<svg clip-rule="evenodd" fill-rule="evenodd" stroke-linejoin="round" stroke-miterlimit="10" viewBox="0 0 1024 1024" xmlns="http://www.w3.org/2000/svg"><g fill="#f6e9c2" fill-rule="nonzero"><path d="m446.094 469c-1.879-.018-4.066.616-6.094 1.906-4.057 2.581-5.99 6.801-4.312 9.438 2.153 3.199 5.375 5.155 8.656 7.062 1.76 1.024 3.704 2.014 5.218 3.406 4.61 4.241 8.514 9.083 12.563 13.844 2.344 2.757 4.957 5.303 7.219 8.125 1.134 1.416 1.857 3.162 2.656 4.781.991 2.011 1.927 4.067 2.812 6.126 3.352 7.79 5.892 15.912 8.313 24.031 1.787 5.992 3.384 12.095 5.625 17.937 2.904 7.571 6.278 15.167 7.75 23.188.963 5.25.639 10.631.656 15.937.012 3.443.108 6.905-.125 10.344-.061.908-.285 1.786-.406 2.687-.228 1.698-.295 3.42-.437 5.126-.078.927-.257 2.374-.25 3.281.012 1.644.3 3.289.312 4.937.009 1.185-.044 2.379-.094 3.563-.163 3.893-.799 7.754-.906 11.656-.109 3.97.361 7.908.812 11.844.292 2.542.589 5.097.782 7.656-8.292 10.245-11.241 21.859-6.406 30.687 2.049 3.881 4.514 7.633 8.156 10.219.945.672 1.884 1.39 2.937 1.875 2.082.96 4.191 1.984 6.438 2.438 3.485.704 7.08 1.28 10.625 1 5.178-.41 10.387-1.291 15.281-3.032 5.5-1.955 10.67-4.801 15.594-7.937 3.581-2.28 6.696-5.269 9.75-8.219 2.006-1.938 3.699-4.176 5.375-6.406 1.144-1.523 2.108-3.164 3.062-4.812 5.182-8.949 6.015-19.49 5.594-29.594-.084-2.023-.224-4.044-.375-6.063-.057-.759-.083-1.529-.187-2.281-1.045-7.476-3.692-14.693-6.813-21.531-1.575-3.451-3.48-6.797-4.906-10.313-.58-1.428-1.074-3.002-1.438-4.5-.396-1.632-.482-3.345-.906-4.968-.136-.522-.362-1.02-.531-1.532-.413-1.247-.683-2.315-1.188-3.531-.413-.997-.974-1.917-1.406-2.906-.551-1.26-1.041-2.552-1.656-3.781-1.687-3.371-3.526-6.679-5.25-10.032-2.209-4.293-4.291-8.646-6.844-12.75-3.329-5.352-7.635-10.046-12.062-14.5-2.876-2.892-5.858-5.694-8.563-8.75-3.923-4.43-7.578-9.099-11.313-13.687-5.574-6.849-11.336-13.546-17.531-19.844-1.699-1.728-3.461-3.428-5.25-5.063-.887-.81-1.859-1.568-2.719-2.406-1.379-1.344-2.545-2.919-3.843-4.344-5.571-6.115-10.591-12.724-16.594-18.437-2.251-2.142-4.791-3.693-7.469-5.25-2.166-1.259-4.579-2.476-6-4.625-.838-1.318-2.433-1.982-4.312-2zm49.406 210.281c-.116.638-.223 1.276-.375 1.907-.035.143-.102.299-.156.437-.023.057-.085.217-.094.156-.056-.375.156-1.031.25-1.343.116-.386.236-.778.375-1.157z"/><path d="m429.156 457.906c-10.568-.148-23.285 5.162-33.968 15.156-17.095 15.992-22.52 37.952-12.126 49.063 2.187 1.283 4.409 2.458 6.75 3.437 4.231 1.77 8.66 2.938 13.126 3.938 1.019.228 2.05.403 3.062.656.696.175 1.38.454 2.094.532.122.013-.207-.126-.313-.188-.079-.046-.337-.154-.25-.125.682.228 1.305.568 2 .75.038.01-.037-.136 0-.125 1.369.418 2.705 1.184 4 1.781 2.012.928 3.992 1.875 5.969 2.875 5.179 2.621 10.299 5.431 15.406 8.188 3.18 1.716 6.341 3.458 9.625 4.968.543.25 1.101.53 1.657.75.319.128.727.083 1.062.188.899.281 1.587.655 2.406 1.156 4.661 2.853 7.715 7.598 12 10.906 1.341 1.035 2.881 1.898 4.375 2.688.992.524 2.03 1.069 3.094 1.438.429.148.864.303 1.313.374.119.02.253-.059.374-.062.429-.01 1.002.207 1.376.406 1.223.655 2.398 1.681 3.406 2.625 3.082 2.89 5.751 6.169 8.375 9.469 2.618 3.293 5.216 6.627 7.812 9.938 5.259 6.706 10.332 13.596 14.969 20.75 8.524 13.152 15.79 27.202 21.906 41.624 1.899 4.477 3.546 9.047 5.344 13.563 1.094 2.746 2.255 5.452 3.375 8.187.509 1.244 1.064 2.511 1.5 3.782.333.968.525 1.972.75 2.968.378 1.674.719 3.351 1.063 5.032 1.263 6.176 2.121 12.573 1.562 18.875-.082.926-1.094 1.888-1.625 2.531-.214.259-.44.524-.656.781-1.673 1.985-3.238 4.022-4.469 6.313-.879 1.636-1.644 3.475-1.406 5.375.069.553.209.97.437 1.469.03.065.059.124.094.187-.002.013.002.021 0 .031-.022.107-.038.207-.063.313-.002.01.003.021 0 .031-.19.286-.178.303-.437.625-.538.668-1.12 1.299-1.656 1.969-1.032 1.289-1.959 2.649-2.813 4.062-.314 2.505 2.554 4.923 6.406 5.406 3.853.484 7.217-1.151 7.532-3.656 1.028-1.808 2.565-3.223 3.781-4.906 1.622-2.245 2.79-4.712 3.187-7.469.149-1.027.077-2.17-.156-3.25.301-.436.595-.869.938-1.281 2.848-3.419 5.901-6.943 6.718-11.469.649-3.591.46-7.446.157-11.062-.534-6.367-1.97-12.547-3.281-18.781-.513-2.435-.612-4.996-.876-7.469-.384-3.61-.785-7.224-1.062-10.844-.751-9.825-1.598-19.594-3.062-29.344-1.665-11.088-4.009-22.023-6.688-32.906-2.531-10.28-5.442-20.423-8.781-30.469-1.408-4.236-2.537-8.546-3.844-12.812-1.575-5.142-3.433-10.247-5.969-15-1.639-3.074-3.791-5.706-6.218-8.188-1.24-1.267-2.742-2.422-3.813-3.844-.102-.135-.203-.254-.281-.406-.061-.118.018-.3-.063-.406-.739-.964-1.621-1.808-2.312-2.812-2.741-3.984-4.824-8.36-7.969-12.063-.848-.999-1.788-1.895-2.688-2.844-.949-1.001-1.478-1.701-2.437-2.687-6.078-6.248-13.035-11.845-20.094-16.938-2.644-1.907-5.335-3.745-8.062-5.531-1.77-1.159-3.554-2.383-5.407-3.406-3.732-2.062-7.706-3.634-11.75-4.969-1.767-.584-3.553-1.109-5.312-1.719-.899-.312-1.935-.621-2.719-1.187-.133-.097-.116-.238-.187-.313-.115-.12-.247-.206-.375-.312-3.898-4.167-9.472-6.224-15.813-6.313z"/><path d="m467.906 486.5c-9.305.698-19.817 4.732-29.312 11.969-18.991 14.474-26.752 36.218-17.344 48.562 1.495 1.287 3.006 2.548 4.438 3.907 3.327 3.157 6.381 6.626 9.343 10.124 2.297 2.713 4.437 5.546 6.625 8.344 1.634 2.09 3.343 4.142 5.032 6.188 2.081 2.522 4.322 4.87 6.718 7.094 1.353 1.255 2.779 2.42 4.063 3.75.806.834 1.616 1.689 2.343 2.593 1.081 1.343 1.901 2.85 3.032 4.157 2.726 3.149 6.082 5.731 9.094 8.593 4.246 4.037 8.353 8.258 12.187 12.688 4.806 5.552 9.503 11.319 13.531 17.469 7.661 11.694 13.211 24.32 15.938 38.062.446 2.249.836 4.484 1.187 6.75.089.572.23 1.143.281 1.719.212 2.377-.137 4.848-.312 7.219-.233 3.153-.504 6.309-.656 9.468-.416 8.636-.468 17.098-3.625 25.282.124 2.718 3.63 4.785 7.812 4.593 4.183-.191 7.468-2.562 7.344-5.281 1.504-3.917 2.582-7.913 3.219-12.062.86-5.607.946-11.283 1.218-16.938.148-3.073.399-6.151.626-9.219.185-2.509.2-5.079.624-7.562.228-1.332.579-2.644.844-3.969.533-2.657 1-5.325 1.438-8 1.346-8.237 2.219-16.554 2.218-24.906 0-8.454-.89-16.805-2.124-25.156-.664-4.491-1.428-8.96-2.344-13.407-1.04-5.043-2.309-10.055-3.5-15.062-1.035-4.35-2.146-8.661-3.219-13-.758-3.065-1.35-6.183-2.219-9.219-.336-1.175-.683-2.36-1.125-3.5-.643-1.661-1.631-3.124-2.343-4.75-.475-1.082-.878-2.223-1.25-3.344-.795-2.392-1.247-4.921-1.813-7.375-.528-2.288-1.278-4.548-2.094-6.75-.964-2.6-1.925-5.207-3.031-7.75-1.474-3.388-3.145-6.719-4.844-10-1.385-2.676-2.798-5.356-4.406-7.906-3.415-5.417-7.331-10.4-11.5-15.25-4.704-6.172-12.788-8.823-22.094-8.125z"/><path d="m495.844 555.438c-4.842-.361-10.587.885-16.032 3.874-10.889 5.98-16.542 16.579-12.656 23.657 2.345 4.674 4.251 9.501 6 14.406-.021.153-.102.288-.125.437-.076.494-.091 1.001-.093 1.5-.012 2.162 1.322 4.738 2.187 6.688.266.6.57 1.185.844 1.781.451 2.117.794 4.281 1.343 6.375.765 2.913 1.849 5.763 2.782 8.625 1.895 5.819 3.858 11.631 5.594 17.5.995 3.367 1.903 6.765 2.687 10.188.129.564.279 1.727.437 2.437.922 4.126 2.068 8.25 4.188 11.938.476.828 1.138 1.515 1.75 2.25.012.112.019.237.031.344.085.751.188 1.503.313 2.25.404 2.427 1.061 5.879 3.781 6.75.41.131.82.289 1.25.281.99-.02 2.103.105 2.969-.375 1.885-1.045 3.601-2.45 5.031-4.063.255-.287.367-.641.437-1.031.228-.043.463-.041.688-.094 1.633-.382 3.242-.897 4.781-1.562 1.549-.67 3.025-1.515 4.438-2.438 1.286-.84 2.51-1.786 3.625-2.844 1.208-1.146 2.323-2.409 3.312-3.75.785-1.063 1.407-2.24 1.969-3.437.423-.9.726-1.849.969-2.813.185-.733.272-1.494.312-2.25.126-2.337-.504-4.512-1.5-6.593-.373-.78-.792-1.514-1.125-2.313-.028-.067-.14-.353-.093-.437.034-.063.097.09.124.156.064.15.154.632.157.469.008-.484-.092-.955-.125-1.438-.067-.965-.08-1.939-.094-2.906-.027-1.85-.029-3.684-.156-5.531-.28-4.074-.971-8.11-1.844-12.094-1.693-7.723-4.103-15.273-6.031-22.937-3.168-12.591-6.157-25.186-11.375-37.126-1.943-3.539-5.909-5.514-10.75-5.874z"/><path d="m535.781 414.281c-4.594.016-9.214.591-13.687 1.625-3.804.879-7.595 2.093-11.188 3.625-3.573 1.524-6.902 3.493-10.375 5.219-1.333.663-2.705 1.265-4 2-2.602 1.476-5.025 3.3-7.437 5.062-2.91 2.126-5.745 4.311-8.532 6.594-10.543 8.64-20.516 18.255-28.75 29.156-1.732 2.294-3.366 4.672-4.812 7.157-1.096 1.883-1.983 3.896-3.125 5.75-1.494 2.424-3.164 4.803-4.813 7.125-.988 1.393-2.002 2.779-3.093 4.094-1.757 2.116-3.732 4.048-5.5 6.156-1.168 1.392-2.19 2.86-3.188 4.375-.232 1.252 1.136 2.548 3.063 2.906 1.926.358 3.674-.373 3.906-1.625.772-1.172 1.534-2.298 2.438-3.375 2.084-2.486 4.447-4.712 6.437-7.281 1.842-2.379 3.568-4.883 5.25-7.375.812-1.204 1.548-2.454 2.406-3.625 1.488-2.031 3.334-3.924 5.094-5.719 2.494-2.544 5.259-4.756 8.094-6.906 2.925-2.219 5.942-4.33 9.031-6.313 7.349-4.717 15.187-8.88 23.438-11.781 1.853-.652 3.735-1.127 5.624-1.656 1.685-.472 3.295-1.242 5-1.625 1.474-.331 2.972-.365 4.469-.5 1.224-.111 2.428-.292 3.657-.344.965-.041 1.973-.089 2.937 0 .678.063 1.31.227 1.969.375 1.212.273 2.442.479 3.656.75 2.312.516 4.634 1.002 6.969 1.406 6.106 3.625 15.58-1.043 21.156-10.437s5.137-19.969-.969-23.594c-5.05-.347-10.05-1.236-15.125-1.219z"/><path d="m543.375 425.406c-1.321-.036-2.681.011-4.063.156-11.052 1.164-19.412 7.941-18.656 15.126-1.119 3.967-1.558 7.944-1.344 12.062.195 3.74.955 7.426 1.219 11.156.103 1.45.1 2.892.157 4.344.1 2.575.28 5.154.531 7.719.772 7.886 2.31 15.674 4.843 23.187 1.13 3.351 2.382 6.668 3.876 9.875 2.542 5.46 5.781 10.581 8.406 16 .814 1.681 1.514 3.405 2.375 5.063 2.58 4.974 5.627 9.705 8.469 14.531 4.005 6.801 7.983 13.637 12.093 20.375 2.145 3.516 4.274 7.027 6.438 10.531 2.783 4.509 5.737 8.934 8.719 13.313 7.309 10.733 15.048 21.161 23.718 30.844 7.385 8.247 16.412 14.751 24.188 22.593 2.999 3.025 5.412 6.505 8 9.875 3.167 4.126 6.443 8.16 10.187 11.782 2.323 2.246 4.889 4.248 7.469 6.187 6.189 4.65 12.833 8.635 19.438 12.656 1.085 1.135 3.379.702 5.124-.969 1.746-1.67 2.273-3.928 1.188-5.062-6.481-3.945-13.021-7.875-19.094-12.438-2.442-1.834-4.865-3.716-7.062-5.843-8.206-7.943-14.292-17.775-21.344-26.688-4.833-6.108-10.116-11.841-14.438-18.343-3.317-4.992-6.272-10.265-9.124-15.532-3.878-7.158-7.48-14.486-10.688-21.968-2.787-6.502-5.33-13.097-7.812-19.719-1.181-3.15-2.399-6.291-3.5-9.469-1.727-4.981-3.313-9.995-4.969-15-2.018-6.097-3.595-12.376-5.813-18.406-.637-1.732-1.431-3.403-2.094-5.125-.67-1.745-1.282-3.53-1.843-5.313-1.17-3.716-2.007-7.532-2.938-11.312-1.673-6.8-3.192-13.615-3.906-20.594-.376-3.675-.548-7.369-.531-11.062.011-2.34.163-4.662.218-7 .078-3.304-.206-6.584-.437-9.876-.151-2.158-.464-4.526.313-6.593-.662-6.286-8.066-10.81-17.313-11.063z"/><path d="m647.438 656.094c-.647.085-1.278.253-1.876.531-2.676 1.527-5.314 3.145-7.906 4.813-3.155 2.029-6.239 4.157-9.562 5.906-2.083 1.096-4.267 2.023-6.406 3-3.692 1.684-7.389 3.367-11.032 5.156-4.946 2.429-9.704 5.182-14.281 8.25-3.295 2.209-6.542 4.542-9.656 7-3.317 2.618-6.504 5.397-9.781 8.062-3.792 3.085-7.725 5.991-11.5 9.094-4.412 3.626-8.749 7.313-13.407 10.625-9.512 6.765-20.17 11.704-30.406 17.25-7.862 4.261-15.906 8.778-23.063 14.157-.072.054.204-.101.219-.094.104.047-.186.124-.281.187-.059.04-.129.086-.188.125-.229.153-.456.318-.687.469-.762.497-1.517.975-2.281 1.469-2.142 1.384-4.278 2.752-6.406 4.156-1.476.974-3.034 1.94-4.407 3.062-.507.415-1.117.76-1.469 1.313-.747 1.175-1.373 2.414-2.062 3.625-.138.243-.117.731-.125 1-.014.468.04.93.187 1.375.183.551.864 1.683 1.469 1.875.833.264 1.618.583 2.469.781.734.171 1.538-.004 2.281-.125 1.156-.188 2.26-.661 3.313-1.156.666-.313 1.286-.721 1.937-1.062 1.445-.132 2.886-.274 4.313-.376 3.038-.215 6.115-.59 8.968-1.718 6.586-2.606 11.724-7.257 17.063-11.75.976-.822 1.971-1.612 2.969-2.406 8.891-3.486 17.873-6.712 26.625-10.532 4.211-1.838 8.333-3.879 12.375-6.062 6.665-3.601 13.354-7.367 19.625-11.625 2.922-1.985 5.76-4.096 8.719-6.031 3.504-2.293 7.143-4.342 10.75-6.469 2.8-1.652 5.618-3.393 8.531-4.844 7.938-3.954 16.42-6.573 24.469-10.281 3.117-1.437 6.174-3.019 9.156-4.719 3.975-2.266 7.804-4.747 11.875-6.844 4.783-2.228 5.896-9.985 2.469-17.343-3-6.44-8.475-10.44-13-9.844z"/><path d="m619.438 683.531c-1.259-.125-2.357.432-2.438 1.25-2.822 5.012-6.451 9.351-10.125 13.75-3.37 4.036-6.832 7.954-10.406 11.813-2.481 2.678-5.021 5.319-7.719 7.781-4.661 4.254-10.019 8.123-16.312 9.406-.674.138-1.899.472-2.563.313-.083-.02-.168-.056-.219-.125-.039-.055.025-.151-.031-.188-.173-.112-.396-.127-.594-.187-1.078-.328-2.259-.352-3.375-.344-3.13.022-6.278.158-9.406.281-1.348.053-2.717.157-4.062 0-5.259-.612-10.336-2.295-15.532-3.281-3.788-2.355-9.814.454-13.437 6.281-3.624 5.828-3.476 12.458.312 14.813 6.902.749 13.696 2.397 20.688 1.906 2.684-.188 5.402-.679 8-1.375 2.097-.562 4.075-1.344 6.219-1.719 1.648-.288 3.4-.141 5.062-.375 2.371-.333 4.587-.938 6.812-1.812 10.468-4.114 19.214-11.414 25.938-20.344 2.849-3.783 5.358-7.787 7.844-11.813 1.372-2.222 2.649-4.566 4.218-6.656 1.952-2.599 4.201-4.977 6.25-7.5 2.613-3.216 4.967-6.576 7-10.187.082-.819-.866-1.562-2.124-1.688z"/><path d="m624.719 682.844c-2.402.028-4.85.757-6.781 1.687-.701.337-1.376.708-2.032 1.125-.584.372-1.146.786-1.687 1.219-.829.663-1.588 1.419-2.281 2.219-1.742 2.008-2.481 4.08-3.157 6.531-.313 1.136-.635 2.267-.937 3.406-.071.269-.146.545-.219.813-.092.114-.809.642-.937.75-.807.674-1.642 1.32-2.469 1.968-2.613 2.049-5.232 4.116-7.875 6.126-7.389 5.617-15.128 10.888-23.938 14-2.62.925-5.327 1.612-8.062 2.093-2.73.481-5.451.811-8.156 1.438-2.498.579-5.148 1.384-7.75 1.437-2.594-4.039-9.715-4.608-16.313-1.125-6.831 3.606-10.469 10.154-8.125 14.594.488 1.113 1.054 2.13 1.844 3.063 1.477 1.742 3.409 2.763 5.468 3.5-.173 1.066-.162 2.137.438 3.156 1.191 2.021 3.743 2.609 5.906 2.812 2.294.215 4.63.105 6.969-.156 1.213.11 2.424.307 3.656.312 7.84.036 15.653-.14 23.125-2.812 5.019-1.795 9.621-4.613 13.656-8.094 5.288-2.963 9.907-6.897 14-11.344 1.641-1.129 3.303-2.215 4.876-3.437 4.519-3.513 8.771-7.444 12.281-11.969 3.325-2.817 6.632-5.745 9.156-9.312.98-1.385 1.902-2.8 2.781-4.25.613-1.011 1.197-2.018 1.75-3.063 2.086-3.938 4.877-10.346 1.25-14.25-1.683-1.811-4.036-2.466-6.437-2.437z"/><path d="m676.469 666.062c-1.385.102-2.788.309-4.094.782-1.272.46-2.446 1.205-3.563 1.968-.763.522-1.416 1.214-2.062 1.876-1.157 1.183-1.79 2.631-2.75 3.937-.026.035-.104.136-.094.094.024-.101.118-.185.156-.281.012-.03.023-.117 0-.094-2.749 2.867-4.703 6.33-7.124 9.437-1.006 1.016-2.041 1.972-3.157 2.875-.052.032-.103.063-.156.094-1.873 1.109-3.916 1.914-5.906 2.781-4.93 2.148-10.079 4.047-15.407 4.907-2.624.423-5.266.632-7.843-.126-3.723-2.686-10.086-.195-14.219 5.532s-4.472 12.532-.75 15.218c7.402 1.636 15.064.717 22.312-1.25 8.146-2.21 16.141-5.6 23.313-10.062 3.079-1.916 6.025-4.071 8.875-6.312 2.063-1.624 4.15-3.29 5.875-5.282 1.548-1.786 2.662-3.776 3.687-5.844 1.83-1.535 3.648-3.086 5.219-4.906 2.817-3.262 6.735-9.269 2.844-13.25-.347-.355-.768-.705-1.187-.968-.446-.28-1.274-.672-1.75-.782-.732-.167-1.471-.398-2.219-.344zm-8.313 10.563c-.033.182-.208.321-.281.5.003-.021-.004-.042 0-.063.023-.122.056-.238.125-.343.032-.049.167-.152.156-.094z"/><path d="m541.469 506.688c-.601-.059-1.315.081-2 .437-1.37.712-2.088 2.016-1.625 2.906 2.821 6.985 6.15 13.735 9.875 20.281 2.215 3.893 4.542 7.697 6.906 11.5 1.182 1.903 2.417 3.795 3.563 5.719 1.905 3.202 3.632 6.566 5.343 9.875 4.079 7.889 7.027 16.308 11.313 24.094 7.069 12.843 14.709 25.36 22.687 37.656 3.952 6.09 7.924 12.216 12.188 18.094 2.931 4.04 6.292 7.737 9.343 11.688 3.827 4.954 7.954 9.629 12.376 14.062 2.894 2.902 5.963 5.617 8.906 8.469 1.978 1.917 3.923 3.868 5.875 5.812 2.234 2.225 4.549 4.345 6.906 6.438.463.411.941.841 1.406 1.25.007.006.354.356.375.343 7.731-4.83 15.982-8.957 23.219-14.5.697-.533-.804-1.57-1.219-2.343-.219-.41-.693-.776-1-1.125-.277-.315-.566-.623-.844-.938-.803-1.093-1.966-1.774-3.312-2.218-.639-.528-1.275-1.057-1.906-1.594-1.698-1.447-3.324-2.999-5-4.469-2.175-1.907-4.392-3.756-6.625-5.594-5.513-4.537-10.914-9.177-16.344-13.812-1.87-1.596-3.767-3.168-5.594-4.813-2.282-2.055-4.324-4.309-6.469-6.5-2.033-2.077-4.197-4.036-6.281-6.062-8.927-8.682-17.232-17.951-25.219-27.5-5.381-6.435-10.726-12.999-15.624-19.813-3.845-5.347-7.02-11.122-10.626-16.625-2.878-4.392-6.184-8.478-9.093-12.844-2.471-3.708-4.768-7.556-7.063-11.374-4.972-8.276-9.506-16.76-13.125-25.719-.231-.446-.712-.723-1.312-.781z"/><path d="m546.75 494.75c-1.7.245-3.466.736-5.219 1.5-3.367 1.468-5.991 3.65-7.656 6.031-1.069-2.034-2.121-4.089-3.187-6.125-.502-.872-2.002-.959-3.344-.187-1.343.771-2.033 2.127-1.532 3 2.679 5.11 5.283 10.253 7.876 15.406 1.375 4.806 2.964 9.544 4.937 14.156 4.147 9.693 9.472 18.802 15.375 27.563 1.609 3.225 3.219 6.454 4.812 9.687 1.871 3.797 3.615 7.647 5.5 11.438 3.773 7.583 7.763 15.063 12.094 22.343 6.873 11.553 14.77 22.494 23.063 33.063 2.246 2.863 4.562 5.676 6.969 8.406 1.989 2.258 4.038 4.455 6.187 6.563 1.272 1.247 2.588 2.461 3.937 3.625 1.734 1.496 3.548 2.884 5.407 4.219 4.605 3.304 9.657 6.036 15.469 3.906.84-.308 1.778-.771 2.531-1.25.875-.557 1.609-1.141 2.343-1.875 1.574-1.573 2.883-3.784 3-6.063.107-2.062-.906-3.814-2.062-5.437-.967-1.357-2.059-2.624-3.156-3.875-.589-.672-1.269-1.297-1.782-2.032-5.647-8.094-10.442-16.926-15.218-25.624-3.709-6.756-7.545-13.452-11.906-19.813-2.886-4.209-5.976-8.277-8.844-12.5-5.505-8.106-11.015-16.215-16.532-24.313-9.707-14.248-19.013-29.14-24.656-45.531-1.364-3.962-2.412-7.973-3.312-12.062-1.49-3.417-5.993-4.953-11.094-4.219zm32.812 94.344c1.582 1.855 3.17 3.711 4.719 5.594 3.774 4.584 7.313 9.355 10.969 14.031 2.695 3.447 5.322 6.937 7.906 10.469-4.069-4.634-8.137-9.261-11.968-14.094-4.097-5.168-7.951-10.529-11.626-16zm58.657 59.375c.059.008.141-.018.187 0 .022.008-.039.032-.062.031-.046-.002-.08-.025-.125-.031z"/><path d="m495.344 417.719c-5.454-.089-11.494 1.084-17.469 3.593-15.934 6.692-25.318 20.518-20.969 30.876 1.486 5.561 3.513 10.929 6.125 16.062 1.8 3.536 3.654 7.051 5.5 10.562.597 1.136 1.254 2.236 1.719 3.438.458 1.185.819 2.368 1.25 3.562.777 2.156 1.64 4.311 2.219 6.532.292 1.123.577 2.302.812 3.437.262 1.261.392 2.533.719 3.781.537 2.049 1.428 4.056 2.5 5.876 2.817 4.782 6.42 9.111 9.875 13.437.991 1.241 1.892 2.543 2.844 3.813.693.924 1.208 1.987 1.812 2.968.388.63.84 1.193 1.188 1.844 1.863 3.489 2.344 7.493 3.125 11.312.691 3.381 1.566 6.711 2.968 9.876 4.076 9.195 12.495 15.391 17.126 24.218.457.873.955 1.808 1.25 2.75.554 1.772.628 3.909.906 5.75.352 2.337.701 4.721 1.344 7 1.544 5.484 4.705 10.207 7.562 15.063 1.062 1.805 2.019 3.634 2.969 5.5 1.126 1.982 4.512 2.201 7.562.469 3.05-1.733 4.626-4.737 3.5-6.719-1.495-2.935-3.117-5.77-4.812-8.594-2.095-3.49-4.231-7.051-5.344-11-.726-2.577-1.025-5.263-1.406-7.906-.207-1.431-.534-2.872-.657-4.313-.106-1.255-.091-2.527-.25-3.781-.154-1.229-.425-2.44-.656-3.656-.17-.897-.328-1.805-.562-2.688-1.877-7.088-5.122-13.935-5.75-21.312-.315-3.701.316-7.374.968-11 .748-4.149 1.535-8.302 1.563-12.531.013-1.925-.205-3.781-.437-5.688-.175-1.434-.269-2.889-.532-4.312-.611-3.304-1.304-6.6-1.906-9.907-.534-2.934-1.027-5.858-1.156-8.843-.088-2.045.129-4.084.062-6.126-.026-.799-.207-1.603-.187-2.406.022-.904.13-1.854.25-2.75.348-2.609 1.06-5.157 1.343-7.781.236-2.177.276-4.409.157-6.594-.636-11.603-6.454-22.12-7.875-33.593-2.719-6.474-10.16-10.072-19.25-10.219z"/><path d="m501.594 404c-1.923.098-3.886.319-5.875.688-15.917 2.949-27.261 13.747-25.344 24.093-.782 5.54-1.084 11.059-.375 16.625 1.28 10.043 5.739 19.536 11.625 27.688.873 1.208 1.807 2.433 2.781 3.562 1.593 1.846 3.396 3.478 5.032 5.282.918 1.012 1.827 2.148 2.593 3.281.75 1.108 1.329 2.293 2.125 3.375 1.555 2.111 3.359 3.997 4.969 6.062 1.437 1.843 2.616 3.893 3.844 5.875 3.14 5.072 6.136 10.209 9.062 15.407 1.872 3.323 3.65 6.677 5.281 10.124.633 1.336 1.253 2.651 1.782 4.032 1.779 4.646 2.853 9.538 4.218 14.312.928 3.245 2.066 6.431 3.469 9.5 1.509 3.298 3.701 6.2 5.938 9.032 1.413 1.789 3.055 3.579 4.093 5.624.655 1.289 1.169 2.685 1.688 4.032 1.078 2.795 2.027 5.636 2.906 8.5 2.251 7.333 4.114 14.785 6.344 22.125.965 2.047 4.287 2.515 7.438 1.031 3.15-1.484 4.933-4.359 3.968-6.406-2.836-9.335-5.059-18.889-8.312-28.094-.695-1.965-1.435-3.894-2.25-5.812-.419-.987-.808-1.832-1.156-2.844-.645-1.872-1.259-3.784-1.907-5.656-.886-2.562-1.734-5.146-2.093-7.844-.363-2.717-.295-5.49-.219-8.219.179-6.448 1.131-12.851 1.062-19.313-.026-2.486-.295-4.958-.469-7.437-.489-7.003-1.31-13.974-2.187-20.937-.809-6.425-1.242-12.889-2.281-19.282-.448-2.755-.913-5.526-1.782-8.187-.49-1.503-1.264-2.833-1.874-4.281-.395-.937-.727-1.917-1.063-2.876-.981-2.798-1.529-5.722-2.375-8.562-.387-1.298-.816-2.592-1.25-3.875-2.205-6.526-4.528-13.164-4.156-20.156.117-2.196.59-4.259 1.156-6.375-1.678-9.053-12.95-14.781-26.406-14.094z"/><path d="m475.031 431.719c-1.872-.033-3.795.056-5.75.281-15.64 1.803-27.359 11.49-26.187 21.656-.748 2.898-1.226 5.812-1.188 8.813.142 10.975 6.59 20.338 13 28.719 1.592 2.08 3.172 4.183 4.782 6.25.763.98 1.411 2.068 2.062 3.124 1.109 1.8 2.186 3.637 3.344 5.407 1.615 2.468 3.472 4.746 5.031 7.25.794 1.275 1.55 2.655 2.219 4 .777 1.564 1.418 3.146 2.312 4.656 1.828 3.088 4.007 5.967 5.969 8.969 2.633 4.028 5.093 8.177 7.5 12.344 8.9 15.401 16.939 31.304 26.563 46.281 3.303 5.141 6.791 10.166 10.531 15 1.387 1.793 2.802 3.567 4.25 5.312.868 1.047 1.787 2.036 2.562 3.157 1.025 1.479 1.948 3.058 2.938 4.562 1.488 2.26 3.034 4.486 4.562 6.719 5.505 8.041 11.126 15.984 16.531 24.093 1.224 1.926 4.632 1.945 7.594.063 2.963-1.882 4.38-4.949 3.156-6.875-5.418-8.127-11.076-16.097-16.593-24.156-1.761-2.573-3.514-5.139-5.219-7.75-.964-1.477-2.021-2.936-2.781-4.532-1.138-2.388-2.095-4.914-3.063-7.374-3.927-9.984-6.548-20.411-8.844-30.876-2.148-9.794-3.846-19.639-5.468-29.531-1.454-8.868-2.85-17.743-4.219-26.625-.6-3.893-1.074-7.829-2.031-11.656-.431-1.722-1.122-3.316-1.656-5-.45-1.416-.79-2.921-1.094-4.375-.653-3.115-.946-6.299-1.656-9.406-1.184-5.177-2.849-10.4-5.282-15.125-2.221-4.315-4.732-8.487-6.75-12.906-.714-1.566-1.425-3.137-1.937-4.782-.163-.521-.281-1.052-.375-1.594-.064.441-.162.894-.125 1.313-1.026-8.895-11.585-15.178-24.688-15.406zm24.813 14.093c.025-.178.067-.354.062-.531-.001-.03.02-.448-.094-.5-.085-.039-.064.574-.062.594.016.149.068.29.094.437z"/><path d="m541.812 495.281c-7.813-.757-17.542 2.382-26.062 9.125-13.632 10.789-19.013 26.734-12 35.594 3.522 2.653 6.572 5.797 9.312 9.25 2.178 2.743 4.089 5.707 6.157 8.531 1.013 1.384 2.121 2.679 3.25 3.969.682.779 1.432 1.528 2.031 2.375.586.828 1.112 1.764 1.531 2.687.282.622.468 1.269.781 1.876.315.609.747 1.177 1.126 1.75 1.129 1.709 2.488 3.245 3.687 4.906 1.842 2.549 3.621 5.172 5.281 7.844 6.352 10.219 11.5 21.098 17 31.781 1.758 3.414 3.572 6.828 5.375 10.219.603 1.132 1.195 2.251 1.813 3.374.309.564.684 1.097.937 1.688.512 1.191.79 2.453 1.188 3.688.597 1.854 1.192 3.725 1.843 5.562 2.198 6.198 4.781 12.243 7.719 18.125 1.12 1.986 4.507 2.191 7.563.469 3.055-1.723 4.619-4.733 3.5-6.719-3.123-6.249-5.801-12.672-8.063-19.281-.614-1.794-1.223-3.595-1.781-5.406-.186-.605-.416-1.191-.531-1.813-.243-1.313-.218-2.668-.313-4-.094-1.336-.174-2.663-.25-4-.269-4.733-.354-9.48-.437-14.219-.208-11.843-.187-23.688-.375-35.531-.064-4.017-.159-8.046-.188-12.063-.016-2.326.032-4.617-.187-6.937-.112-1.18-.435-2.2-.719-3.344-.282-1.136-.461-2.337-.594-3.5-.142-1.25-.158-2.526-.25-3.781-.154-2.106-.416-4.156-.875-6.219-2.524-11.343-8.216-21.903-16.156-30.343-2.63-3.323-6.625-5.203-11.313-5.657z"/><path d="m568.312 532.312c-7.773-.398-17.3 3.126-25.437 10.188-13.019 11.299-17.595 27.319-10.25 35.781 2.691 1.546 5.163 3.333 7.25 5.657 1.84 2.048 3.32 4.389 5 6.562 1.093 1.413 2.473 2.602 3.375 4.156.333.573.59 1.03.812 1.656.212.596.278 1.234.532 1.813.529 1.208 1.385 2.322 2.125 3.406 3.173 4.653 5.769 9.665 8.593 14.531 3.021 5.204 6.12 10.381 9.126 15.594 2.364 4.103 4.76 8.184 6.906 12.406.539 1.062 1.088 2.125 1.625 3.188.314.623.671 1.239.875 1.906.303.997.413 2.13.594 3.156.312 1.773.599 3.545.937 5.313.976 5.107 2.271 10.076 4.125 14.937 1.031 2.025 4.385 2.399 7.5.813s4.812-4.506 3.781-6.531c-1.987-5.212-3.225-10.582-4.219-16.063-.255-1.406-.5-2.811-.75-4.219-.127-.717-.352-1.43-.406-2.156-.059-.797.062-1.576.094-2.375.053-1.324.105-2.675.156-4 .155-3.988.324-7.979.438-11.969.28-9.821.454-19.626 1.5-29.406.359-3.362.875-6.696 1.437-10.031.272-1.61.642-3.255.844-4.875.101-.809.196-1.623.187-2.438-.008-.76-.18-1.496-.25-2.25-.062-.68-.098-1.725-.093-2.406.019-3.029.506-5.992.219-9.031-.615-6.494-3.018-13.012-6.532-18.5-2.36-3.688-5.404-6.846-8.656-9.75-2.754-3.173-6.773-4.823-11.438-5.063z"/><path d="m592.594 577.469c-5.478.039-11.528 1.34-17.469 4-15.842 7.092-24.922 21.171-20.313 31.469 1.149 2.616 2.203 5.273 3.313 7.906.8 1.897 1.517 3.827 2.594 5.594.604.99 1.431 1.812 2.156 2.718.367.459.766.914 1.031 1.438.261.514.31 1.124.532 1.656.225.542.487 1.074.812 1.562.692 1.042 1.602 1.931 2.344 2.938.91 1.235 1.765 2.501 2.562 3.812 2.873 4.723 5.104 9.877 6.719 15.157.741 2.42 1.363 4.856 1.656 7.375.106.905.305 1.825.125 2.718-.091.456-.318.885-.5 1.313-.319.752-.735 1.623-1.125 2.344-1.081 1.999-2.471 3.858-4.469 5-1.31.698-1.48 2.89-.406 4.906s3.002 3.105 4.313 2.406c4.706-2.739 8.4-6.689 11-11.469.563-1.036 1.132-2.257 1.593-3.343.244-.573.408-1.194.688-1.75.974-1.932 2.287-3.703 3.344-5.594 5.182-9.271 8.989-19.258 12.437-29.281.842-2.448 1.716-4.878 2.594-7.313.595-1.649 1.325-3.254 1.813-4.937.217-.752.358-1.538.468-2.313.103-.72.03-1.44.156-2.156.416-2.362 1.489-4.535 1.907-6.906.468-2.657.498-5.344.5-8.031.002-3.84-.339-7.631-.813-11.438-2.881-6.436-10.432-9.846-19.562-9.781z"/><path d="m613.25 613.656c-6.85-.326-14.862 1.699-22.438 6.125-15.15 8.854-22.785 24.028-17.031 33.875 1.37 1.68 2.66 3.38 3.813 5.219.868 1.385 1.594 2.856 2.5 4.219.473.712.997 1.388 1.594 2 .614.629 1.316 1.122 1.718 1.937.331.672.326 1.488.719 2.125.395.639.988 1.111 1.469 1.688.416.498.872 1.013 1.218 1.562.177.279.239.612.438.875.067.088.225.058.312.125.245.189.416.551.626.782.124.137.316.212.406.374.327.589.396 1.467.468 2.126.4 3.621-1.86 7.637-4.562 9.874-.671.556-1.465 1.24-2.312 1.5-.748.23-1.663.237-2.438.25-3.508.06-6.675-1.29-9.438-3.374-1.469-1.693-4.771-1.229-7.374 1.031-2.604 2.26-3.501 5.464-2.032 7.156 3.988 2.997 8.554 4.729 13.563 4.875 2.012.059 3.951-.256 5.937-.5 2.028-.249 4.043-.214 6.063-.594 5.134-.965 10.016-2.956 14.531-5.562 6.393-3.69 12.369-8.642 17.031-14.375 2.415-2.969 4.454-6.338 6.344-9.657 1.362-2.391 2.621-4.896 3.75-7.406.373-.829.772-1.669 1.063-2.531.515-1.531.608-3.169.937-4.75.353-1.699.989-3.324 1.437-5 .638-2.382.902-4.788.938-7.25.096-6.568-1.418-12.729-3.844-18.781-2.877-4.924-8.556-7.612-15.406-7.938z"/><path d="m615.281 634.406c-3.714-.102-7.672.296-11.687 1.282-16.06 3.942-27 15.623-24.438 26.062.141 2.974.24 5.88.782 8.812.139.758.221 1.96 1.124 2.282.69.246 1.777.182 2.438-.125.261-.122.45-.365.719-.469.799-.311 1.828-.543 2.687-.531.695.01 1.572.154 1.813.937.304.992-.664 2.237-1.219 2.938-1.621 2.045-3.842 3.606-6 5.031-2.771 1.83-5.697 3.433-8.688 4.875-1.146.553-2.33 1.233-3.531 1.656-.75.264-1.472.324-2.25.438-1.092.16-2.186.323-3.281.468-3.331.442-6.662.799-10 1.188-1.722-.498-3.734 1.257-4.5 3.906s-.003 5.19 1.719 5.688c3.412-.398 6.844-.768 10.25-1.219 1.16-.154 2.31-.33 3.469-.5.637-.093 1.722-.272 2.374-.25.77.026 1.518.217 2.282.313 1.182.148 2.346.279 3.531.406 3.434.366 6.889.569 10.344.437 10.535-.402 20.321-3.339 29.187-9.125 2.885-1.882 5.756-3.981 8.125-6.5 1.722-1.83 3.078-3.973 4.594-5.968 1.858-2.446 3.796-4.819 5.313-7.5 3.727-6.592 5.174-14.174 6.874-21.469-1.921-7.829-10.889-12.755-22.031-13.063z"/><path d="m575.156 633.594c-6.794.431-12.226 3.374-14.031 8.312-.44.601-.838 1.111-1.25 1.688-.993.433-1.995.839-2.969 1.312-2.35 1.143-4.615 2.482-6.718 4.032-2.824 2.08-5.322 4.607-7.782 7.093-1.963 1.985-3.951 3.983-5.594 6.25-2.898 4.003-4.137 9.05-5.124 13.813-.109.522-.205 1.062-.25 1.594-.017.19-.126.452.031.562.056.04.169-.08.219-.031.074.074.012.22.062.312.128.236.433.365.531.657.181.535-.177 1.188-.437 1.624-.798 1.34-1.93 2.446-3 3.563-1.126 1.174-2.112 2.138-3.219 3.344-3.702 4.034-6.616 8.019-8.375 13.219-.629 1.858-1.063 3.793-1.656 5.656-.215.675-.647 1.246-.906 1.906-.029.073.141-.189.187-.125.005.007-.373.662-.406.75-.054.139-.176.277-.157.437.007.055.207-.054.157-.031-5.185 2.395-9.194 9.173-10.531 14.563-.416 1.672-.837 3.702-.344 5.406.138.479.378 1.034.718 1.406.271.295.547.607.907.782.583.281 1.23.504 1.875.562.774.07 1.548-.043 2.312-.188 1.085-.205 2.468-.871 3.375-1.468.937-.617 1.712-1.376 2.407-2.25 1.024-1.29 1.585-2.837 1.656-4.469.043-1.003-.162-2.039 0-3.031-.075-.346-.329-.618-.532-.906.512-1.029 1.107-2.005 1.782-2.969.231-.129.467-.25.718-.407 1.204-.75 2.409-1.518 3.563-2.343 3.431-2.453 6.242-5.554 9-8.719 1.48-1.699 2.992-3.673 4.906-4.906.163-.105.673-.481.907-.406.051.016.011.175.062.156.416-.159.783-.438 1.188-.625 1.128-.522 2.329-.934 3.468-1.438 3.184-1.407 6.22-2.997 9.094-4.969 3.446-2.364 6.618-5.164 9.438-8.25.438-.48.91-.921 1.343-1.406.273-.025.591-.036.813-.062 4.543-.537 8.985-1.846 13.25-3.469 7.674-2.921 14.558-7.597 20.562-13.156 3.071-2.843 5.817-5.992 8.75-8.969 2.888-7.902-4.624-17.902-16.781-22.344-4.559-1.666-9.142-2.321-13.219-2.062zm-2.844 6.406c.282-.014 1.215-.017 1.407.125.034.025-.053.082-.094.094-.179.053-.377.07-.563.093-.54.069-1.086.076-1.624.157-1.174.177-2.345.355-3.5.625-.913.213-1.811.487-2.719.718.646-.312 1.27-.641 1.937-.906.402-.159.924-.212 1.344-.312.981-.233 1.967-.384 2.969-.5.279-.033.563-.08.843-.094zm.094 33.719c.123.025-.02.273-.094.375-.113.156-.217.291-.343.437-.227.264-.488.521-.719.781-.287.324-.741.601-.781 1.032-.004.035.072.034.093.062.126.16-.028.48-.124.594-.687.807-1.399 1.552-2.313 2.125-.923.578-1.876 1.094-2.844 1.594-.438.226-.901.406-1.343.625 1.625-1.811 3.193-3.661 5-5.313.392-.359.827-.676 1.25-1 .197-.151.389-.327.593-.469.182-.126.374-.227.563-.343.202-.124.774-.561 1.062-.5z"/><path d="m526 648.594c-1.874-.029-3.794.082-5.75.312-15.651 1.842-27.384 11.577-26.188 21.75-.56 2.97-1.044 5.941-1.124 8.969-.054 2.012.106 4.063.312 6.063.172 1.665.436 3.264.906 4.874.251.86.521 1.677 1 2.438.421.668.985 1.242 1.313 1.969.388.861.17 1.745.469 2.656.285.871.818 1.66 1.187 2.5.746 1.7 1.306 3.528 1.687 5.344 1.028 4.887 1.204 9.836 1.157 14.812-.035 3.663-.019 7.388-.438 11.031-.249 2.172-1.11 4.232-1.656 6.344-.713 2.757-1.259 5.585-2.187 8.282-.307.89-.688 1.748-1.032 2.624.079 1.981 2.61 3.497 5.656 3.376 3.047-.122 5.454-1.833 5.376-3.813.397-1.013.832-2.033 1.187-3.063.694-2.014 1.18-4.088 1.687-6.156.451-1.835.872-3.695 1.438-5.5.13-.414.209-.832.406-1.218.524-1.028 1.36-1.867 2.063-2.782.407-.53.812-1.094 1.219-1.625 2.097-2.74 4.252-5.442 6.343-8.187 4.944-6.49 9.633-13.14 14.094-19.969 1.329-2.035 2.62-4.094 3.906-6.156.888-1.422 1.84-2.801 2.563-4.313.765-1.6 1.053-3.27 1.687-4.906 1.04-2.68 2.451-5.15 3.313-7.906.965-3.088 1.659-6.223 2.718-9.282.375-1.08.941-2.073 1.438-3.093-1.047-8.902-11.634-15.177-24.75-15.375z"/><path d="m589.719 641.812c-6.609-.15-12.123 2.249-14.281 6.876-2.921 3.266-5.873 6.461-8.969 9.562-3.849 3.854-7.979 7.437-12.094 11-6.648 5.755-13.581 11.126-20.656 16.344-5.06 3.731-10.191 7.368-15.344 10.968-2.054 1.435-4.099 2.884-6.156 4.313-1.056.733-2.15 1.42-3.157 2.219-.18.143.393-.231.594-.344.204-.115.416-.239.625-.344.075-.037.144-.088.219-.125-5.154 3.147-9.991 6.639-13.375 11.781-.696 1.058-1.442 2.1-1.969 3.25-.774 1.691-1.452 3.456-1.937 5.25-.311 1.148-.292 2.352-.438 3.532.032.637-.035 1.281.094 1.906.272 1.318.536 2.665 1.125 3.875.614 1.261 1.439 2.453 2.438 3.437 1.001.987 2.219 1.762 3.468 2.407 1.182.61 2.46.989 3.75 1.312 1.144.287 2.325.406 3.5.5.994.08 2.004.07 3 .031 2.049-.079 4.105-.453 6.094-.937 4.422-1.077 7.653-2.761 11.656-4.969 2.121-1.17 4.263-2.313 6.375-3.5.757-.425 1.496-.882 2.25-1.312 1.212.518 2.654.727 3.907.5 2.232-.405 4.192-1.466 5.968-2.844.531-.412 1.001-.865 1.5-1.312.229-.205.485-.42.719-.626.027-.023.035-.07.063-.093-.02.012.037-.014.062-.031.027-.024.092-.083.062-.063 1.446-.909 2.901-1.807 4.344-2.719 10.644-6.725 20.92-14.066 31.125-21.437 1.427-1.031 2.865-2.07 4.25-3.157 2.854-2.239 6.469-5.162 8.094-8.5.349-.716.589-1.521.656-2.312.079-.068.172-.119.25-.188 1.172-.449 2.337-.904 3.5-1.374 5.316-2.15 10.597-4.614 15.188-8.094 3.389-2.57 6.483-5.651 8.593-9.375.268-.473.538-.938.75-1.438.34-.797.716-1.592.907-2.437.254-1.125.523-2.288.437-3.438-.095-1.271-.348-2.605-.968-3.718-.661-1.185-1.63-2.205-2.75-2.969-1.141-.778-2.525-1.246-3.876-1.531-1.495-.317-3.034-.295-4.562-.25-.925.027-1.84.194-2.75.374-2.538-2.668-5.794-5.089-9.688-6.906-4.27-1.992-8.628-3.003-12.593-3.094zm-56.438 87.594c-.495.435-.931.923-1.469 1.375-.104.088-.233.169-.343.25-.194.142-.376.306-.594.407-.045.02.058-.091.094-.126.718-.691 1.54-1.273 2.312-1.906z"/><path d="m556.031 693.562c-3.863 1.443-7.673 2.99-11.375 4.813-8.983 4.424-17.627 10.203-25.156 16.813-.995.873-2.504 2.24-3.438 3.187-1.516 1.539-2.851 3.253-4.343 4.813-1.368 1.429-2.92 2.577-4.344 3.937-.438.418-.825.912-1.25 1.344-.431.438-.915.804-1.344 1.25-1.402 1.456-2.514 3.219-3.719 4.843-4.242 3.119-8.27 6.511-11.093 10.75-3.138 4.713-4.99 10.862-1.344 15.876.347.477.636 1.101 1.187 1.312 2.961 1.131 5.968 2.381 9.126 2.656 2.213.193 4.382-.717 6.531-1.281 1.12-.294 2.189-.814 3.25-1.281 2.683-1.181 5.073-2.931 7.593-4.406 2.56-1.498 5.137-2.981 7.719-4.438 1.429-.806 2.888-1.586 4.344-2.344.462-.24 1.128-.714 1.656-.781.047-.006-.028.092-.062.125-.087.084-.391.271-.281.219 2.164-1.037 3.951-2.631 6.093-3.719 2.582-1.312 5.309-2.339 7.907-3.625 3.623-1.794 7.229-3.733 11.093-4.969.959-.306 1.93-.388 2.907-.594 7.986-.296 14.081-10.493 13.624-22.781-.456-12.287-7.294-22.015-15.281-21.719zm-34.656 50.688c-.098.871-.251 1.734-.594 2.531-.311.725-.739 1.529-1.375 2.031-.077.062-.375.234-.468.063-.142-.26.124-.775.218-1 .382-.919.887-1.829 1.438-2.656.23-.346.54-.631.781-.969z"/><path d="m647.938 665.062c-1.917-.042-3.737.399-5.313 1.376-1.784 1.633-3.657 3.243-5.156 5.156-.382.487-.773.984-1.063 1.531-.319.603-.429 1.272-.75 1.875-.279.525-.731.955-1.031 1.469-.986 1.688-1.466 3.627-2.25 5.406-1.49 3.383-3.337 6.612-5.281 9.75-.66 1.065-1.342 2.131-2.063 3.156-.364.519-.675 1.085-1.125 1.531-.749.743-1.886 1.159-2.812 1.594-1.509.71-3.036 1.395-4.563 2.063-1.485.352-2.229 2.464-1.687 4.75.541 2.285 2.17 3.852 3.656 3.5 1.686-.737 3.366-1.468 5.031-2.25.56-.263 1.116-.546 1.688-.781.563-.232 1.118-.493 1.719-.594.638-.108 1.289-.026 1.937-.032.656-.005 1.313.006 1.969 0 1.346-.011 2.685-.048 4.031-.093 3.452-.116 6.919-.289 10.375-.281 1.464.002 2.911.172 4.375.187.7.007 1.398-.02 2.094-.094.634-.067 1.269-.306 1.906-.343.723-.043 1.433.128 2.156.093.631-.03 1.258-.149 1.875-.281 2.309-.493 4.551-1.352 6.75-2.188 6.304-3.906 6.542-14.958.532-24.656-4.508-7.273-11.252-11.717-17-11.844z"/></g><path d="m507.982 415.012c-1.036.223-2.084.401-3.11.67-2.434.639-4.885 1.24-7.267 2.053-.372.127.789.075 1.179.026 2.275-.287 4.557-.565 6.803-1.032 4.733-.985 10.059-2.887 14.546-4.696.249-.101 6.027-2.445 5.086-3.428-1.506-1.572-9.877-.349-11.793.04-1.605.326-3.411.994-4.759 1.96-.113.081-.397.188-.301.288.664.693 5.072-1.544 5.342-1.653 1.568-.632 12.193-3.34 12.465-3.857.021-.04-1.008-1.07-1.002-1.348.021-.968 3.788-2.372 2.872-3.328-1.536-1.605-14.267 3.83-16.904 4.645-2.237.693-4.459 1.38-6.677 2.067-.715.221-2.787.587-2.082.839.916.327 4.184-.884 5.035-1.07 5.159-1.128 14.619-5.66 19.687-3.848 2.782.995-7.005 9.167-7.145 10.015-.025.154-.008.393.138.446 1.25.446 6.79-2.574 8.17-2.919.272-.068 5.173-.649 5.179-.919.016-.739-1.473-.275-2.207-.196-1.569.171-12.112 3.39-12.452 3.268-1.39-.497-2.347-2.161-4.074-2.446-2.638-.436-7.565 3.268-10.114 4.202-3.713 1.361-7.722 1.73-11.418 3.143-5.796 2.217-11.482 6.209-17 9.065-3.703 1.917-6.626 5.191-9.607 8.047-.969.927-2.087 1.915-3.155 2.732-.002.001-1.631 1.061-1.643.996-.444-2.499 11.719-13.687 13.749-15.474.887-.782 1.848-1.481 2.703-2.3.305-.292 1.132-.818.759-1.015-1.184-.624-5.068 2.936-5.525 3.271-5.486 4.01-10.561 8.381-15.465 13.078-1.718 1.644-3.265 3.415-4.974 5.051-.462.443-1.529 2.041-1.066 1.598 4.338-4.154 7.703-9.371 12.23-13.443 1.499-1.348 2.989-2.706 4.509-4.029.736-.64 2.956-2.542 2.252-1.868-5.387 5.159-10.989 10.234-16.401 15.416-1.254 1.202-2.508 2.403-3.763 3.604-.454.435-1.422 2.04-1.21 1.448 1.879-5.256 8.756-10.304 12.682-13.876 2.983-2.713 2.447-1.982 5.255-4.455.678-.597 2.609-2.499 1.957-1.874-3.2 3.065-30.1 26.742-11.974 15.217 1.081-.687 2.228-1.27 3.286-1.992" fill="none" stroke="#f6e9c2" stroke-width="69.85"/><path d="m519.265 404.497c.272-.262 3.951-2.805 4.615-2.111.104.108-5.516 3.556-5.531 3.565-2.159 1.352-4.272 2.777-6.428 4.135-5.47 3.444-10.836 7.351-16.442 10.551" fill="none" stroke="#f6e9c2" stroke-width="69.85"/><path d="m439.798 459.818c2.44-2.336-7.756 2.162-8.602 2.467-3.689 1.327-22.402 4.664-24.22 2.128-.605-.844 4.534-3.659 4.948-3.872 2.28-1.175 7.226-2.963 8.923-3.639.798-.318 4.545-1.179 5.349-1.948.112-.108.015-.42-.138-.445-1.232-.204-11.571 5.603-13.256 6.345-3.415 1.505-7.259 2.393-10.553 4.046-8.686 4.361-16.113 10.979-24.795 15.087" fill="none" stroke="#f6e9c2" stroke-width="69.85"/><path d="m396.18 485.343c-.06-.176-4.068-.543-4.16-.559-.932-.165-5.122-1.313-6.106-.976" fill="none" stroke="#f6e9c2" stroke-width="69.85"/><path d="m389.227 479.788c-1.687-1.291-5.993-.834-8.149-.096" fill="none" stroke="#f6e9c2" stroke-width="69.85"/><path d="m391.166 485.978c-3.488 2.259-8.156 2.001-12.066 2.688-8.368 1.471-16.497 3.159-24.952 4.034-4.284.443-8.568.899-12.832 1.507-1.466.21-2.896.32-4.367.414-.402.025-1.523.444-1.186.225 2.359-1.528 6.502-1.898 8.939-2.339 8.8-1.591 17.79-1.099 26.585-2.428 3.985-.603 7.854-1.79 11.854-2.255.932-.109 1.867-.203 2.804-.239.331-.013 1.119-.09.973.208-.394.804-5.684 1.156-6.25 1.238-7.182 1.045-14.299 2.46-21.562 2.873-4.059.231-8.129.209-12.194.207-1.493 0-2.986.044-4.479.091-.234.007-.699.294-.701.059-.004-.506 7.101-3.198 8.013-3.465 1.369-.4 2.766-.697 4.147-1.059 6.759-1.768 13.518-3.348 20.359-4.806 3.653-.778 8.332-.912 11.743-2.578.504-.245-1.115-.188-1.674-.148-.702.051-1.408.068-2.103.179-.961.154-1.907.395-2.855.617-2.392.56-4.773 1.163-7.163 1.731-.557.132-8.432 2.05-8.727 1.906-.471-.231.846-.651 1.342-.821.485-.166.969-.331 1.453-.497 2.434-.833.857-.343 3.607-1.055 3.695-.955 7.381-2.026 11.094-2.896.619-.145 1.262-.161 1.886-.285.223-.045.861-.295.646-.221-2.665.912-5.68 1.199-8.459 1.633-.954.15-5.603.9-6.361.915-1.658.035-3.313-.153-4.967-.283-2.41-.189-3.367-.486-2.974-.785 2.147-1.638 11.615-.326 14.191-.17 1.909.117 3.823.171 5.723.386.487.055 1.002.145 1.407.42.509.346-2.612 2.84-2.889 3.153" fill="none" stroke="#f6e9c2" stroke-width="1.63"/><path d="m391.834 488.455c.32-.471 1.144-.873.96-1.411-.149-.436-7.429 1.867-8.132 2.062-5.152 1.433-10.925 2.006-16.221 2.669-.356.044-7.758.873-7.296-1.29.337-1.578 10.204-4.396 11.993-5.008.227-.078 5.598-1.961 5.217-2.147-.153-.076-.317.131-.484.165-2.492.52-5.034.723-7.546 1.141-.682.113-2.14 1.026-2.047.34.071-.534 10.113-3.645 10.821-3.163.404.275-4.206 1.656-4.465 1.709-.956.194-8.79 1.556-9.22.992-.474-.621 2.829-1.814 3.114-1.968 2.92-1.576 6.101-2.957 8.755-4.982.163-.124.441-.295.374-.489-.633-1.848-9.028-.42-8.731 1.366.706 4.248 9.143 2.732 11.57 2.713.316-.003 3.33-.104 3.514.781.764 3.663-9.437 8.585-11.796 9.269-.248.072-4.898.973-5.014.635-.203-.595 1.21-.353 1.831-.447 2.191-.331 4.389-.445 6.577-.809 1.26-.209 2.559-.267 3.828-.409.233-.026.805-.27.701-.059-.456.932-5.095.803-5.82.91-3.76.556-7.607.869-11.319 1.711-.868.197-4.674.968-2.837 2.775" fill="none" stroke="#f6e9c2" stroke-width="5.53"/><path d="m374.4 501.278c-.244-.713-2.29.38-3.072.51-3.598.599-7.252 1.074-10.889 1.384-9.457.805-19.238.461-28.757.827-3.704.143-7.614-.43-11.234-1.204-.169-.036-.622.007-.65-.318-.216-2.54 11.711-.398 12.517-.318 4.456.442 8.942.049 13.388.647 7.598 1.022 14.814 2.934 22.27 4.46 3.553.727 6.195 2.094 9.365 3.648.434.212 1.513.203 1.301.637-.378.77-9.491-2.103-10.542-2.343-7.344-1.677-15.036-2.052-22.473-2.948-3.871-.466-7.469-2.167-11.354-2.606-6.863-.775-13.42-2.197-20.259-2.803-2.473-.219-4.857-1.827-7.199-2.586-.697-.226-1.735.197-2.426.29-.252.033-.868.126-.756-.102.541-1.104 11.811-2.776 12.712-2.91 12.291-1.828 24.205-4.655 36.709-4.993 4.742-.128 9.458.474 14.196.371 1.904-.042 3.811-.191 5.718-.155.594.012 2.343-.26 1.781-.068-8.747 2.995-19.891.674-28.867.504-1.043-.019-10.077.188-10.21-1.374-.054-.627 4.449-1.552 4.681-1.603 1.924-.42 12.227-1.219 13.15-2.157.2-.203-.428-.416-.705-.48-2.548-.593-5.504-.087-8.094.066-.882.052-3.032.976-2.643.183.518-1.058 8.787-1.563 9.866-1.214.108.036.851.548.654.859-.97 1.525-8.633 2.637-8.271 4.816.188 1.133 4.431 1.103 5.082 1.146 3.906.254 7.429 1.502 11.243 2.283.927.189 2.75-.268 2.757.679.01 1.137-5.53 1.262-5.871 1.289-5.235.405-10.201-.041-15.436-.307-2.175-.11-4.354-.177-6.531-.109-1.151.037-4.262.742-3.454-.079.644-.655 4.379-.726 4.958-.796 5.257-.639 10.462-.73 15.75-.884 4.906-.142 9.929-.602 14.837-.39 3.895.168 7.625 1.292 11.456 1.85 6.331.921 12.889 1.35 19.282 2.056" fill="none" stroke="#f6e9c2" stroke-width="12.43"/><path d="m569.125 371.562c-14.959-.042-27.129 7.809-27.156 17.532-2.058 4.927-3.663 9.996-4.657 15.25-2.18 11.53-1.386 23.22.75 34.687 1.23 6.602 2.862 13.073 4.688 19.531.946 3.347 1.89 6.694 2.969 10 1.277 3.913 2.733 7.763 4.062 11.657.783 2.292 1.552 4.606 2.313 6.906.801 2.423 1.5 4.904 2.594 7.219.906 1.918 2.003 3.722 3 5.594.852 1.601 1.572 3.274 2.218 4.968 1.854 4.859 3.2 9.897 5.156 14.719 1.164 2.868 2.506 5.649 3.782 8.469 2.056 4.544 4.139 9.087 6.344 13.562 7.14 14.496 15.173 28.587 24.562 41.75 8.125 11.392 17.291 21.968 27 32.032 2.429 2.517 4.91 5.018 7.438 7.437 1.669 1.597 3.464 3.114 5.031 4.813 3.378 3.662 6.698 7.346 10.187 10.906 3.95 4.029 8.061 7.899 11.906 12.031 7.237 7.775 14.31 16.05 23.813 21.125 1.565 1.541 4.754.814 7.125-1.594s3.034-5.584 1.469-7.125c-10.759-5.729-18.201-16.141-26.688-24.593-4.375-4.358-8.768-8.657-13-13.157-1.787-1.9-3.663-3.802-5.25-5.875-1.815-2.371-3.484-4.901-5.156-7.375-3.351-4.958-6.521-10.028-9.5-15.219-7.818-13.619-14.444-27.969-19.5-42.843-3.32-9.769-5.848-19.805-8.063-29.875-1.79-8.142-3.416-16.384-4.218-24.688-.677-7.004-.288-14.057-1.656-21-.81-4.109-2.285-8.071-3.188-12.156-.262-1.184-.429-2.393-.594-3.594-.728-5.322-.53-10.713-.937-16.062-.492-6.464-1.328-12.912-2.125-19.344-.935-7.546-1.636-15.109-1.25-22.719.273-5.392 1.121-10.436 3.562-15.281.028-9.723-12.072-17.645-27.031-17.688z" fill="#d4c18b" fill-rule="nonzero"/><path d="m562.094 381.312c-.742-.022-1.541.056-2.344.25-3.211.78-5.382 3.132-4.875 5.219-.374 3.659-.813 7.249-1.437 10.875-1.235 7.162-2.836 14.303-3.063 21.594-.293 9.419.826 18.871 2.094 28.188.423 3.108.859 6.207 1.312 9.312.27 1.849.62 3.7.781 5.562.841 9.72-.508 19.595 1.157 29.25 1.282 7.437 3.123 14.796 5.25 22.032 8.223 27.983 22.177 54.164 39.75 77.375 5.873 7.757 12.102 15.216 18.656 22.406 3.285 3.604 6.574 7.214 10.031 10.656 1.802 1.794 3.631 3.588 5.469 5.344 1.928 1.843 4.01 3.495 5.906 5.375 3.713 3.682 7.137 7.658 10.875 11.312 2.704 2.643 5.535 5.14 8.656 7.282 2.881 1.976 5.95 3.608 9.063 5.156-.236 1.421-.514 2.836-.781 4.25-.043.227.029.458.062.688.065.443.123.874.219 1.312.097.445.203.911.344 1.344.732 2.252 2.065 4.138 3.781 5.75.176.165.31.373.531.468 2.702 1.163 5.325 2.568 8.125 3.469 1.253.403 2.591.411 3.906.407 1.947-.007 3.913-.194 5.844-.438 1.255-.158 2.461-.478 3.688-.781 2.476-.613 4.891-1.577 7.218-2.625 8.055 5.748 22.521 3.373 34.532-6.313 13.512-10.896 18.739-26.873 11.656-35.656-1.967-1.631-3.939-3.244-5.906-4.875-1.312-1.087-2.626-2.194-3.938-3.281-.655-.544-1.313-1.082-1.968-1.625-1.62-1.343-3.978-3.581-5.876-4.688-.549-.32-1.045-.728-1.656-.906-2.726-.795-5.485-2.498-8.281-2-5.382.958-10.563 2.777-15.719 4.656-2.312-.809-4.649-1.564-6.844-2.656-4.55-2.263-9.039-4.753-13.218-7.656-2.319-1.611-4.624-3.342-6.813-5.125-2.282-1.859-4.494-3.787-6.937-5.438-5.373-3.629-11.019-6.781-16.438-10.343-7.824-5.145-15.394-10.843-22.5-16.938-10.118-8.679-19.632-18.228-28.062-28.562-8.071-9.894-15.195-20.576-21.313-31.782-2.96-5.422-5.679-10.952-8.125-16.625-1.267-2.939-2.557-5.927-3.562-8.969-2.142-6.482-2.616-13.355-3.875-20.031-.362-1.916-.845-3.806-1.219-5.719-.836-4.278-1.331-8.652-1.938-12.968-1.113-7.932-2.063-15.922-2.25-23.938-.091-3.925.044-7.824.563-11.718.873-6.548 2.419-12.984 3.281-19.532.25-1.896.4-3.816.594-5.718-.38-1.566-2.18-2.558-4.406-2.626z" fill="#d4c18b" fill-rule="nonzero"/><g fill="none"><path d="m596.784 501.934c-.094 6.706 5.917 14.875 8.853 20.96 9.044 18.741 22.062 34.206 34.739 50.416 2.791 3.569 5.24 10.145 8.713 12.827" stroke="#d4c18b" stroke-linecap="round" stroke-width="27.53"/><path d="m639.724 565.424c8.585 9.307 16.627 15.326 26.998 22.612 4.181 2.937 7.803 6.478 12.454 8.814 13.996 7.03 29.536 13.497 42.108 23.205" stroke="#d4c18b" stroke-linecap="round" stroke-width="27.53"/><path d="m661.668 586.059c16.992 13.989 37.635 27.315 58.328 35.248 6.245 2.394 12.056 8.05 19.211 7.13" stroke="#d4c18b" stroke-linecap="round" stroke-width="27.53"/><path d="m699.356 616.444c12.71 7.501 29.145 10.216 43.539 11.791 2.632.288 1.254-4.457 3.853-4.539 0 0-7.559 3.715-7.541 3.663.034-.095-16.628-8.849-3.643 0 2.054 1.4 6.653.407 5.028 1.987-3.16 3.073-6.877 3.14-10.498 5.697-5.438 3.84-11.997 6.55-17.299 10.556-2.547 1.924-2.379 3.912-4.023 6.042" stroke="#d4c18b" stroke-linecap="round" stroke-width="27.53"/><path d="m691.508 659.657c-5.958 7.716-13.066 2.561-19.556-.656-2.418-1.198-5.287-1.139-7.586-2.647-8.467-5.557-14.187-15.06-20.902-22.399-2.811-3.071-5.653-6.113-8.511-9.14-4.111-4.354-8.129-8.834-11.88-13.506-5.108-6.363-9.636-13.139-13.82-20.141-4.231-7.08-8.22-14.334-12.276-21.516" stroke="#d4c18b" stroke-linecap="round" stroke-width="27.53"/><path d="m560.174 391.028c-3.241-2.344 6.031-9.937 8.086-12.065 8.358-8.654 19.577-15.697 31.304-18.518 1.961-.472 4.399-1.424 6.181-2.355.799-.417 1.981-2.05 2.398-1.251.246.472-1.059.958-1.191 1.058-4.934 3.721-9.728 7.877-14.133 12.17-7.924 7.722-9.265 15.76-15.307 24.116" stroke="#d4c18b" stroke-linecap="round" stroke-width="27.53"/><path d="m768.258 623.77c.4 14.483-18.726 33.792-28.862 42.861-8.159 7.3-15.372 15.451-23.643 22.609-8.608 7.449-19.728 11.839-29.326 17.681-5.789 3.524-10.868 8.482-16.534 12.244-10.238 6.799-21.162 12.941-31.584 19.593" stroke="#e65269" stroke-linecap="round" stroke-width="27.53"/><path d="m737.947 664.359c1.117-3.687-14.195 7.075-14.589 7.337-6.778 4.501-13.162 9.292-19.479 14.405-14.325 11.595-29.204 23.163-44.372 33.582-6.313 4.337-12.116 8.051-17.419 13.655" stroke="#e65269" stroke-linecap="round" stroke-width="27.53"/><path d="m715.468 670.527c-3.418-1.035-8.606 3.185-11.657 4.713-9.924 4.969-17.278 12.555-24.856 20.563" stroke="#e65269" stroke-linecap="round" stroke-width="27.53"/><path d="m692.268 684.11c-.67-1.839-2.301 3.118-2.669 3.772-1.706 3.029-4.241 6.069-6.461 8.73-6.581 7.886-14.712 15.658-22.495 22.346-9.673 8.313-21.553 19.322-33.53 24.5-14.098 6.096-30.818 7.184-44.958 12.335" stroke="#e65269" stroke-linecap="round" stroke-width="27.53"/><path d="m637.023 717.299c-.017-.613-8.551 9.78-10.305 11.841-6.321 7.425-13.801 13.828-22.372 18.414" stroke="#e65269" stroke-linecap="round" stroke-width="27.53"/><path d="m603.221 744.946c-.166 3.771-14.511 8.648-17.608 10.03-7.431 3.316-14.845 6.129-22.444 8.931-12.414 4.576-24.722 11.197-38.353 10.599" stroke="#e65269" stroke-linecap="round" stroke-width="27.53"/><path d="m538.764 763.575c-.733.327 1.415-.869 1.844-1.547.831-1.318-5.381 3.125-3.958 2.49 1.614-.72 3.239-1.446 2.114-.943z" stroke="#e65269" stroke-linecap="round" stroke-width="27.53"/><path d="m537.873 773.747c-3.747 1.672-7.202 4.295-11.203 5.724-6.114 2.183-12.665 3.184-18.859 4.796-1.161.302-10.259 2.354-9.935.451.334-1.971 3.729-.381 4.431.195" stroke="#e65269" stroke-linecap="round" stroke-width="27.53"/><path d="m508.49 789.032c6.555-1.157 13.253 2.714 20.043 1.917 6.502-.764 12.64-2.013 19.198-2.413 4.333-.265 8.469 1.408 12.658 1.592 6.089.267 13.45-1.647 19.23-3.151 3.34-.87 7.121-.118 10.54-.721 5.374-.949 10.841-2.204 16.141-3.583 6.731-1.752 13.728-2.145 20.2-5.033" stroke="#e65269" stroke-linecap="round" stroke-width="27.53"/><path d="m755.242 658.596c.387 4.049-4.106 9.707-6.03 13.064-2.891 5.045-4.319 9.997-6.268 15.386-1.067 2.949-4.539 5.331-6.115 8.169-3.206 5.772-4.554 12.249-8.267 17.722-6.173 9.098-14.665 15.307-21.921 23.164-15.808 17.117-30.882 31.169-53.708 37.692-2.607.745-4.624 2.409-6.839 3.795-3.295 2.06-18.082 5.271-21.352 4.261" stroke="#e65269" stroke-linecap="round" stroke-width="27.53"/><path d="m729.221 704.6c-6.134 4.993-13.345 8.225-20.037 12.41-30.321 18.963-62.03 34.44-94.715 48.736-8.595 3.759-17.82 6.042-26.281 10.402-2.777 1.43-7.027 4.435-9.523 1.369" stroke="#e65269" stroke-linecap="round" stroke-width="27.53"/><path d="m469.91 778.695c-.506-.121 2.89.691 3.815.913 2.642.632 5.087 1.734 7.742 2.301 4.326.925 8.605 1.439 12.972 1.985 3.129.391 5.977 1.461 9.126.728" stroke="#e65269" stroke-linecap="round" stroke-width="27.53"/><path d="m496.767 335.583c-4.294-2.692-16.098 3.878-20.223 5.734-6.932 3.118-13.249 7.713-19.991 11.236-9.424 4.924-19.11 9.017-28.213 14.562-5.896 3.591-12.103 6.94-18.405 9.775-.404.182-8.958 4.583-8.363 3.015 1.25-3.294 6.806-6.24 9.343-8.315 6.364-5.208 13.303-9.422 20.534-13.351 16.616-9.025 33.863-18.321 51.671-24.74 11.89-4.286 19.193-7.738 31.927-4.644 6.316 1.534 13.051 1.409 19.429 2.473 3.88.647 6.042 3.804 9.233 5.566 1.341.74 5.018 1.849 5.829 2.985.52.728.53 11.947.371 13.29-.581 4.92-4.995 8.199-7.213 12.216-.326.591-.161 1.782-.405 2.425-1.049 2.767-2.581 4.011-4.959 5.595-1.592 1.062-2.117 4.317-3.715 5.036-1.465.659-5.149-.375-6.855-.28-3.143.174-5.957 1.072-9.062 1.46-3.066.383-6.581.184-9.513 1.289-6.639 2.501-13.125 5.905-19.586 8.811-8.142 3.663-14.689 10.176-21.841 15.433-4.479 3.292-10.398 6.559-13.135 11.517-.606 1.097-1.689 2.412-2.13 3.575-.436 1.149.056 2.58-.607 3.637-1.92 3.063-4.57 5.677-7.197 8.097-.717.66-1.754 3.754-2.752 3.855-1.207.122-3.783-1.897-5.098-2.192-1.887-.424-4.163-.258-6.093-.249-5.929.026-10.79 2.544-16.462 3.293-6.201.819-11.748 2.021-17.704 3.853-7.178 2.208-13.347 6.614-19.649 10.335-1.362.805-3.352 1.455-4.383 2.72-3.586 4.394-6.272 10.316-10.634 13.755-1.065.84-.164 1.958-1.927 2.362-.966.222-2.982-1.298-4.057-1.539-2.417-.542-5.282.381-7.788.139-14.147-1.368-27.045 2.536-38.72 10.317-4.005 2.67-8.119 4.831-11.768 7.911-.918.775-3.059 1.947-3.482 3.062-.235.619-.863 2.236-1.135 1.632-.358-.797 4.06-8.662 4.525-9.886 1.813-4.78.457-10.133 1.524-14.89.715-3.183 2.767-5.991 3.732-9.155.861-2.825.571-6.489 1.897-9.078 3.388-6.616 6.313-14.489 11.054-20.299 3.86-4.731 8.272-8.933 12.156-13.693 3.583-4.391 6.758-9.459 10.774-13.444 6.026-5.98 13.685-9.797 20.006-15.355 3.277-2.882 6.25-6.278 9.825-8.906 4.577-3.364 9.903-5.81 14.845-8.548 11.945-6.617 24.274-11.075 37.244-15.26 3.678-1.186 7.479-2.332 11.27-3.201.806-.185 1.943-1.007 2.456-.357.958 1.216-7.641 6.565-8.379 7.134-11.133 8.578-23.117 15.943-33.251 25.799-7.816 7.603-15.486 15.303-23.365 22.847-7.257 6.95-13.489 14.922-20.877 21.728-3.6 3.317-6.861 7.01-10.198 10.569-.756.806-2.911 3.253-3.031 3.233-3.343-.558 1.169-6.959 1.524-7.414 4.296-5.523 8.497-10.958 13.323-16.087 5.083-5.402 10.642-10.166 15.887-15.371 3.747-3.718 6.956-7.697 11.13-10.988 2.003-1.579 7.432-6.257 10.322-6.139.611.025.356 1.289.078 1.834-.489.954-1.111 1.843-1.788 2.673-4.385 5.374-9.909 10.247-14.955 14.952-7.691 7.172-14.58 14.953-22.121 22.288-5.562 5.409-11.768 9.851-17.55 14.998-5.013 4.461-8.876 9.08-12.499 14.594-.698 1.062-1.606 1.969-2.41 2.953-.16.197-.719.501-.482.591 1.66.629 4.237-2.998 5.037-3.761 4.43-4.229 9.309-7.967 14.208-11.626 20.855-15.573 43.093-30.974 66.858-41.666 5.389-2.424 10.778-4.849 16.166-7.273 1.244-.559 2.488-1.119 3.731-1.678.622-.28 1.586-1.461 1.866-.839.563 1.252-1.628 2.262-2.721 3.093-1.562 1.186-3.238 2.216-4.866 3.31-4.775 3.21-9.628 6.303-14.425 9.48-15.27 10.113-29.418 21.733-44.785 31.736-5.029 3.274-10.051 6.544-14.907 10.071-1.227.891-3.085 1.333-3.622 2.751-.091.237.52.112.761.031.862-.289 1.734-.609 2.487-1.119 1.461-.989 2.704-2.268 4.104-3.341 1.752-1.342 3.552-2.619 5.348-3.901 8.28-5.914 16.828-11.505 24.98-17.593 8.108-6.055 15.851-12.646 24.39-18.075 9.151-5.818 19.274-10.54 29.146-14.982 2.177-.979 4.353-1.958 6.529-2.937 2.186-.983 10.756-5.852 13.197-5.563 1.967.232-2.8 3.861-4.648 5.455-1.962 1.693-3.965 3.338-6 4.943-5.217 4.113-10.518 8.122-15.903 12.013-14.853 10.735-30.703 19.939-45.795 30.322-2.387 1.642-4.69 3.403-7.073 5.051-3.914 2.706-4.715 2.814-4.554 3.17.513 1.14 2.384-.838 3.419-1.538 3.157-2.136 6.201-4.442 9.421-6.481 3.983-2.523 11.762-7.117 15.638-9.278 16.233-9.054 32.259-18.587 48.577-27.461 3.798-2.066 7.671-3.993 11.534-5.937 1.116-.562 3.42-1.538 3.42-1.538s-1.687 1.243-2.519 1.88c-1.008.773-2.074 1.469-3.14 2.161-2.247 1.457-7.195 4.423-9.389 5.719-5.575 3.292-11.296 6.508-17.021 9.526-1.809.954-3.6 2.966-5.596 2.518-.351-.079-.336-.794-.109-1.073.819-1.003 1.975-1.678 3-2.471 3.121-2.413 6.309-4.744 9.592-6.931 4.761-3.174 9.824-5.872 14.705-8.859 14.69-8.987 28.356-18.969 42.235-29.094 7.116-5.191 15.418-9.289 23.131-13.396 2.963-1.578 8.169-3.452 10.461-5.828.177-.183.204-.575.032-.762-1.154-1.251-5.602.942-6.467 1.414-6.575 3.589-13.493 6.6-20.519 9.231-1.493.56-2.977 1.149-4.492 1.647-.55.182-2.061.838-1.694.389 1.529-1.874 8.89-2.787 10.819-3.372 8.147-2.471 16.399-4.472 24.544-6.93 2.868-.865 5.654-1.958 8.643-2.393.251-.037.657-.201.761.031.373.829-1.658.746-2.487 1.119-.933.42-1.849.878-2.798 1.259-1.586.635-3.203 1.188-4.803 1.787-10.362 3.88-20.944 7.105-31.275 11.079-3.711 1.428-7.31 3.187-11.021 4.585-.752.283-1.552.421-2.316.668-.217.07-.829.373-.622.28 11.293-5.081 23.891-8.322 35.736-11.965 1.644-.506 3.283-1.028 4.943-1.477 1.492-.403 3.554-1.711 4.601-.574.774.84-1.907 1.288-2.969 1.709-1.483.588-2.971 1.167-4.492 1.647-4.812 1.519-9.695 2.806-14.518 4.289-12.574 3.867-25.037 8.223-37.711 11.732-6.643 1.839-8.288 2.161-14.938 3.356-2.197.395-4.416.668-6.606 1.103-.568.113-2.061.837-1.694.388 1.663-2.039 7.549-3.935 9.808-4.786 2.032-.766 4.125-1.357 6.187-2.036 9.351-3.077 18.815-5.879 28.275-8.608 3.683-1.063 7.44-2.959 11.238-2.44.574.079-.9.744-1.414 1.011-1.312.679-2.659 1.297-4.042 1.818-2.031.765-4.115 1.385-6.186 2.035-5.367 1.685-10.818 3.089-16.213 4.677-11.606 3.418-23.259 6.813-35.161 9.09-2.193.42-4.401.755-6.606 1.103-2.064.326-4.761 1.652-6.264.201-.881-.849 1.507-1.999 2.549-2.642 1.358-.837 2.83-1.473 4.213-2.269 6.063-3.491 12.736-6.388 18.575-10.226 2.981-1.958 8.422-6.319.219-5.331-10.752 1.295-20.593 7.203-30.514 11.111-20.542 8.089-42.173 15.379-60.484 27.584-2.997 1.998-5.919 4.145-8.798 6.201-1.241.886-2.824 1.15-4.182 1.507-3.423.902-6.868 3.563-9.249 6.03-1.664 1.725-2.846 3.796-4.648 5.456-1.27 1.17-2.805 1.508-3.933 2.89-.252.309-3.574 3.689-3.653 3.513-.506-1.125 2.333-4.47 2.814-5.378 2.978-5.623 6.48-11.123 10.276-16.211 1.199-1.607 2.472-3.128 3.995-4.414.687-.58 1.195-1.222 1.757-1.912.161-.197.72-.5.482-.59-1.799-.683-9.735 8.26-10.928 9.775-3.651 4.636-5.281 9.246-7.758 14.331-1.999 4.104-6.042 6.639-8.364 10.491-2.108 3.498-3.709 7.416-5.488 11.067-1.559 3.2-4.165 5.887-6.156 8.75-1.549 2.229-2.659 4.949-4.26 7.15-.772 1.061-1.476 1.174-1.927 2.363-.137.359-.974 7.436-.763 7.445.763.031 1.287-3.117 1.368-3.606.69-4.132.249-8.809 1.743-12.746.954-2.516 3.203-4.439 4.399-6.839 1.61-3.23 2.971-6.633 4.524-9.885 2.453-5.132 6.07-9.371 8.38-14.61.462-1.049 3.727-8.899 5.224-8.331.588.223-.864 3.634-.918 3.777-1.735 4.574-4.254 8.76-6.934 12.838-5.816 8.852-9.832 18.492-12.92 28.615-1.83 6.002-4.35 12.899-5.038 18.714-.065.557-2.036 4.9-.979 5.301.426.162 1.195-2.471 1.337-2.845" stroke="#e65269" stroke-linecap="round" stroke-width="27.53"/></g><path d="m539.906 282.531c-5.372-.048-10.91.546-15.625 3.031-1.806.953-3.116 2.045-4.625 3.407-.629.568-1.161 1.409-1.594 2.125-1.297 2.15-1.875 4.428-1.968 6.937-.018.486.062.984.094 1.469 0 .01-.001.021 0 .031.001.011-.002.021 0 .031.029.21.052.418.093.626.207 1.049.348 1.687.75 2.687.693 1.72 1.762 3.274 3.094 4.563.793.767 1.697 1.424 2.656 1.968 1.118.635 2.87 1.443 4.188 1.5 1.143.05 2.293.148 3.437.156.841.007 1.762-.263 2.563-.5.318-.094 1.129-.466 1.219-.5 1.096-.403 2.212-.739 3.281-1.218.127-.057.249-.1.375-.156.027-.013.066.012.094 0 .985-.122 1.978-.182 2.968-.25 2.166-.151 4.334-.235 6.5-.376 7.674-.498 14.969-2.818 22.469-4.312 4.45-.887 8.919-1.802 13.375-2.656 1.909-.366 3.793-.793 5.719-1.063 3.968-.555 7.976-.681 11.969-.937 1.333-.086 2.666-.258 4-.344 1.99-.129 3.999.068 5.968.344 2.137.299 4.253.704 6.406.875 2.001.159 4.014.151 6 .469 2.062.329 4.014 1.055 6.063 1.437.403.075.811.148 1.219.187.532.052.993.027 1.5.032.889.007 2.124.113 2.562-.875.85-1.914-2.235-2.989-3.562-3.25-2.355-.465-4.905-.421-7.313-.188-2.296-.443-4.636-.578-6.937-1-1.252-.229-2.466-.634-3.688-1-.284-.359-.691-.663-1.062-.875-1.21-.688-2.587-1.048-3.938-1.344-4.373-.956-8.841-.95-13.125-2.374-2.097-.698-4.132-1.548-6.281-2.094-2.48-.631-5.009-1.022-7.562-1.344-1.651-.415-3.289-.864-4.938-1.281-3.073-.777-6.158-1.633-9.281-2.188-6.226-1.106-12.613-.968-18.907-1.281-.963-.048-1.911-.189-2.874-.25-1.723-.109-3.491-.203-5.282-.219zm-11.812 2.5c.125.002.25.028.375.031-.104.015-.209.017-.313.032-.488.068-1.032.314-1.531.281-.063-.004.126-.079.187-.094.223-.054.431-.115.657-.156.206-.037.415-.097.625-.094z" fill="#a93b4c" fill-rule="nonzero"/><path d="m568.156 295.219c-.712.09-1.429.286-2.187.437-1.666.332-3.339.617-5 .969-6.64 1.407-13.215 2.871-19.375 5.813 4.969 3.216 9.17 7.367 13.406 11.468 1.869 1.81 3.773 3.607 5.844 5.188.7.534 1.402 1.108 2.218 1.437.787.318 1.664.391 2.5.531 2.189.368 4.577.481 6.688-.343.741-.29 1.457-.678 2.094-1.157.15-.113.204-.311.344-.437.539-.488 1.367-.8 2.031-1.063 1.771-.701 3.653-1.092 5.5-1.531 1.948-.463 3.921-1.025 5.906-1.312 1.138-.165 2.266-.249 3.406-.063 1.071.175 2.11.548 3.188.688 1.12.145 2.252.161 3.375.312 2.99.403 5.922 1.084 8.906 1.532 3.672.55 7.318.901 11.031.937-6.597-.13-13.497-1.128-19.656-3.594-1.049-.42-2.004-1.011-3.031-1.469-2.801-1.247-6.273-1.763-8.688-3.75-1.136-.934-1.799-2.172-2.5-3.437-.76-1.373-1.504-2.756-2.468-4-2.087-2.69-5.112-4.438-8.188-5.781-1.047-.458-2.051-.947-3.156-1.25-.764-.21-1.476-.215-2.188-.125z" fill="#a93b4c" fill-rule="nonzero"/><path d="m551 307.531c-1.592-.171-3.135-.188-4.719.031-.359.05-.775.029-1.062.25-.041.032.015.134-.031.157-.18.087-.398.119-.594.156-.814.155-1.675.151-2.5.156-2.696.018-5.396-.225-8.094-.156-1.233.031-1.826.146-3.031.25-.715.061-1.452.083-2.157.219-2.108.407-3.935 1.411-5.968 2.031-1.557.475-3.287.608-4.906.625-5.554.059-10.948-1.316-16.438-1.906-.747-.081-1.5-.048-2.25-.094-1.157-.071-2.309-.226-3.469-.125-1.751.152-3.461.601-5.219.719-2.627.176-5.237.108-7.812.75-2.441.608-4.613 2.057-6.875 3.094-2.433 1.115-5.068 1.677-7.437 2.937-2.579 1.371-4.57 3.592-6.969 5.219-2.095 1.42-4.44 2.505-6.625 3.781-3.955 2.31-7.845 4.747-11.969 6.75-1.182.574-2.396 1.086-3.594 1.625 1.2-.534 2.41-1.025 3.594-1.594 4.133-1.987 8.035-4.425 12-6.718 2.197-1.271 4.554-2.347 6.687-3.719 2.424-1.559 4.436-3.701 7.032-5 2.399-1.201 5.048-1.706 7.531-2.688 2.623-1.036 5.184-2.512 8.063-2.687 2.545-.155 5.004.625 7.531.594 1.424-.018 2.827-.379 4.25-.438 1.592-.066 3.479.253 5.031.594 6.566 1.443 12.285 5.324 18.312 8.094 1.303.598 2.623 1.128 4 1.531 1.536.449 3.186.654 4.657 1.312.133.06.601.275.719.407.045.05.008.177.062.218.28.215.608.343.906.532.509.321.955.733 1.438 1.093 2.014 1.506 4.145 2.889 6.437 3.938 1.555.711 3.239 1.277 4.907 1.656 1.174.267 1.868.306 3.031.437.519.059 1.068.081 1.562.25.056.02.17.087.125.126-.083.071-.411-.056-.344.031.128.165.375.19.563.281.614.298 1.242.589 1.875.844 1.16.467 2.355.889 3.562 1.218 1.745.477 3.535.774 5.313 1.094.964.174 1.932.404 2.906.5 1.01.1 2.017.072 3.031.094 2.096.044 4.186.03 6.282 0 2.358-.034 4.751.093 7.094-.219.678-.09 1.439-.213 2.093-.469.082-.031.339-.124.407-.218.046-.065-.111-.238-.032-.25 1.068-.163 2.267.008 3.344 0 1.485-.011 2.953-.006 4.438.031 4.321.109 8.644.346 12.968.344 3.359-.002 6.719-.116 10.063-.438 4.474-.431 8.908-1.121 13.406-1.281-6.307-2.746-12.985-4.484-19.25-7.344-4.884-2.229-9.673-4.712-14.5-7.062-1.456-.709-2.934-1.359-4.406-2.032-.746-.341-1.477-.695-2.25-.968-2.022-.716-4.22-.658-6.25-1.282-.249-.076-.395-.314-.625-.437-.376-.201-.792-.341-1.188-.5-2.334-.941-4.69-1.88-7.062-2.719-.978-.346-1.934-.739-2.938-1-2.275-.591-4.66-.694-6.968-1.094-1.126-.194-2.2-.532-3.313-.781-1.595-.356-2.736-.573-4.375-.75z" fill="#a93b4c" fill-rule="nonzero"/><path d="m507.531 298.438c-1.848-.018-3.829-.093-5.656.25-1.787.335-3.622 1.068-5.313 1.718-4.21 1.619-8.078 3.873-11.531 6.782-1.567 1.32-2.976 2.848-4.437 4.281-3.151 3.09-6.188 6.286-9.782 8.875-2.102 1.515-4.344 2.861-6.656 4.031-1.522.77-3.13 1.425-4.625 2.25-2.254 1.244-4.428 2.59-6.75 3.719-6.736 3.275-13.698 5.938-20.906 7.875 3.93-1.02 7.839-2.156 11.687-3.5 4.024-1.405 7.966-3.033 12-4.407 1.629-.554 3.309-.953 4.938-1.5 1.617-.542 3.152-1.279 4.75-1.874 2.406-.897 4.901-1.612 7.438-2.032 1.728-.286 3.529-.445 5.281-.437 5.053.023 10.03 1.255 15.062 1.562 4.228.259 8.453-.296 12.563-1.25 1.151-.267 2.334-.481 3.437-.906 1.694-.653 3.249-1.736 4.781-2.687 2.149-1.335 4.327-2.67 6.438-4.063 3.377-2.228 6.792-4.397 10.062-6.781 4.911-3.58 9.545-7.478 14.719-10.688-8.073-.855-16.185-.366-24.281-.75-4.405-.209-8.808-.426-13.219-.468zm-75.656 39.781c-2.625.681-5.258 1.323-7.937 1.812 2.667-.504 5.326-1.111 7.937-1.812z" fill="#a93b4c" fill-rule="nonzero"/><path d="m522.344 289.688c-1.785.116-3.569.332-5.282.656-1.966.371-3.926.863-5.843 1.437-.918.275-2.076.61-2.969 1.063-2.079 1.054-3.985 2.505-5.906 3.812-3.927 2.672-7.699 5.542-11.438 8.469-2.716 2.127-5.349 4.355-8 6.563-3.449 2.873-6.822 5.767-9.781 9.156 5.203-1.154 10.482-1.359 15.781-1.719 5.048-.343 10.099-.71 15.156-.875 2.627-.086 5.251-.271 7.876-.406 1.478-.076 2.971-.073 4.437-.313.943-.154 2.089-.546 2.937-.843 4.984-1.751 9.607-4.167 13.782-7.407 3.867-3 7.308-6.601 11.468-9.219 3.353-2.108 7.185-3.425 11.094-4 2.103-.309 4.196-.341 6.313-.374 1.65-.026 3.256-.088 4.906.031 1.66.119 3.311.359 4.969.5 1.366.115 2.754.218 4.125.125 1.988-.135 3.901-.444 5.906-.313 3.727.245 7.356 1.205 11.063 1.594 3.003.315 5.91-.012 8.906-.187-2.995.158-5.907.488-8.906.156-3.708-.411-7.32-1.438-11.032-1.813-2.183-.22-4.295.118-6.468.094-1.162-.013-2.36-.213-3.5-.406-2.464-.418-4.885-1.043-7.313-1.625-.834-.2-1.652-.439-2.5-.563-2.193-.32-4.482-.17-6.687-.187-3.438-.027-6.865-.162-10.282-.563-4.435-.52-8.8-1.531-13.218-2.187-1.427-.212-2.846-.5-4.282-.625-1.739-.152-3.527-.148-5.312-.031z" fill="#a93b4c" fill-rule="nonzero"/><path d="m551.5 274.562c-1.642-.011-3.286.127-4.906.376-.876.134-1.76.262-2.594.562-1.136.409-2.258 1.122-3.281 1.75-1.563.958-3.081 2-4.657 2.938-5.162 3.071-10.307 6.178-14.812 10.187-2.69 2.394-5.164 5.052-6.75 8.313 4.18-1.492 8.655-1.28 13-.782 5.74.659 11.321 2.079 17.062 2.688 1.539.163 3.169.483 4.719.437.913-.027 1.869-.321 2.75-.531 1.569-.374 3.105-.832 4.625-1.375 3.677-1.312 7.103-3.116 10.625-4.781 1.151-.544 2.352-.988 3.5-1.532 2.448-1.157 4.638-2.685 7.407-2.968 2.884-.296 5.629 1.313 8.374 1.844 1.831.353 3.704.512 5.532.906 5.39 1.161 10.739 2.69 16.062 4.125 2.194.591 4.223 1.57 6.375 2.281 1.084.358 2.22.582 3.344.781-1.122-.207-2.263-.447-3.344-.812-2.149-.727-4.184-1.732-6.375-2.344-5.314-1.484-10.629-3.076-15.781-5.063-1.74-.67-3.378-1.496-5.094-2.218-1.34-.565-2.729-1.037-4.062-1.625-1.192-.526-2.33-1.121-3.531-1.625-2.49-1.046-5.193-1.505-7.657-2.594-.976-.432-1.724-.997-2.562-1.625-.845-.633-1.752-1.219-2.625-1.813-3.352-2.277-6.442-4.154-10.469-5-1.609-.337-3.233-.488-4.875-.5z" fill="#a93b4c" fill-rule="nonzero"/><path d="m559.688 277.688c-1.941.116-3.897.557-5.813.874-1.364.227-2.743.421-4.094.719-11.481 2.533-22.028 8.569-31.969 14.625 8.965.969 18.072 2.102 26.688 4.875 1.56.502 3.129 1.062 4.656 1.657 2.666 1.037 5.221 2.543 8.032 3.187.845.194 1.696.229 2.562.281 5.335.321 10.93-.384 15.969-2.187 5.823-2.084 11.466-5.155 17.75-5.531 4.026-.242 7.904.472 11.812 1.343 1.422.317 2.881.53 4.281.938 1.489.433 2.934 1.025 4.438 1.406.77.195 1.55.369 2.344.406 1.548.073 3.042-.187 4.562.25 2.415.695 4.493 2.205 6.875 3 1.257.42 2.61.499 3.907.75-1.727-.376-3.478-.659-5.126-1.406-1.876-.851-3.562-2.097-5.531-2.75-1.782-.592-3.613-.208-5.343-.719-1.467-.433-2.776-1.035-4.126-1.75-1.386-.735-2.724-1.648-4.218-2.156-2.351-.798-4.785-1.385-7.125-2.219-1.94-.69-3.853-1.475-5.719-2.343-4.933-2.297-9.425-5.384-14.219-7.938-1.112-.593-2.183-1.219-3.343-1.719-4.001-1.723-8.176-2.741-12.5-3.219-1.535-.169-3.205-.467-4.75-.374zm72.312 26.687c.882.195 1.74.47 2.562.844-.237-.108-.445-.279-.687-.375-.609-.242-1.246-.322-1.875-.469zm2.562.844c.729.33 1.428.728 2.126 1.125-.666-.371-1.309-.773-2-1.094-.04-.018-.086-.013-.126-.031zm2.126 1.125c1.134.631 2.256 1.27 3.406 1.875 1.05.552 2.146 1.002 3.25 1.437-1.101-.441-2.173-.91-3.219-1.468-1.142-.609-2.305-1.2-3.437-1.844z" fill="#a93b4c" fill-rule="nonzero"/><path d="m547.994 303.012c1.901-4.533 7.652-5.887 12.103-7.231 8.805-2.658 18.145-4.406 27.298-5.229 4.432-.398 8.822.164 13.071 1.273 1.308.341 2.583.805 3.891 1.147.492.128 1.963.11 1.493.302-1.879.769-5.86-1.643-7.508-2.178-3.235-1.051-6.681-1.279-9.978-2.081-3.108-.756-6.77-2.178-10.058-2.277-22.253-.669-43.75 6.024-63.98 14.296" fill="none" stroke="#a93b4c" stroke-linecap="round" stroke-width="27.53"/><path d="m572.207 304.749c-.867-2.119 10.761-.478 12.431-.291 3.89.434 5.822 2.928 9.054 4.284 3.396 1.425 6.728 3.041 10.04 5.022 1.841 1.102 5.183.79 6.646 2.303.57.589 2.963 3.928 2.194 4.807-.066.076-1.428.414-1.289.755.109.265 3.362 1.338 3.305 1.387-1.092.939-5.005-.133-6.237-.188-5.1-.226-9.832-.17-14.902.389-2.449.27-4.939 1.547-7.357 2.096-2.296.52-4.897-.133-7.011 1.269-1.498.993.416 1.894-.214 2.826-.462.683-2.26.717-2.853 1.394-.46.526 1.884 1.577.106 3.608" fill="none" stroke="#a93b4c" stroke-linecap="round" stroke-width="27.53"/><path d="m603.985 290.297c.566-.858.519-2.11 1.106-2.901 2.746-3.701 12.037 3.601 14.359 5.133 1.743 1.149 4.823 2.085 5.973 3.938.98 1.578 3.196 7.148 4.359 7.915" fill="none" stroke="#a93b4c" stroke-linecap="round" stroke-width="27.53"/><path d="m605.381 321.361c1.756 4.897 6.634 1.349 8.768 2.756 1.39.917.481 1.76.994 2.773.204.402 1.106.33 1.428.74.313.397.312 1.82.591 1.397.821-1.246 1.159-8.093 1.374-9.881" fill="none" stroke="#a93b4c" stroke-linecap="round" stroke-width="27.53"/><path d="m599.731 330.54c-2.079-1.371-14.638-1.358-17.131.601-.956.752-1.588 1.658-2.743 2.325-.547.317-1.201-.071-1.749.359-.843.663-2.442 2.175-3.019 3.051-.025.037 1.347 2.676.127 2.1-.233-.11-.115-.619-.097-.77.307-2.559.816-4.999-1.249-6.974-2.702-2.581-6.24-3.349-9.247-5.088-1.48-.856-2.658-2.559-4.127-3.527-5.425-3.577-12.104-5.563-18.247-7.494" fill="none" stroke="#a93b4c" stroke-linecap="round" stroke-width="27.53"/><path d="m571.79 334.823c-2.325-2.345-1.412 6.224-1.711 7.468-1.17 4.884-3.834 8.67-5.363 13.195" fill="none" stroke="#a93b4c" stroke-linecap="round" stroke-width="10.03"/><path d="m566.669 354.79c1.538-2.666 8.363-6.165 11.461-7.699 4.162-2.059 8.616-3.292 12.86-5.146 3.348-1.463 6.656-3.344 10.255-4.128 3.282-.715 6.857-.347 10.185-.445" fill="none" stroke="#a93b4c" stroke-linecap="round" stroke-width="10.03"/><path d="m566.346 350.78c.67-5.746-8.118-14.708-11.994-18.521-9.506-9.352-20.729-16.584-34.055-18.939-2.852-.504-5.371-1.566-8.332-1.377-3.226.206-7.061-.234-10.177.565-2.187.561-4.146 2.445-6.374 2.626" fill="none" stroke="#a93b4c" stroke-linecap="round" stroke-width="10.03"/><path d="m553.764 331.516c.196.248.392.495.588.743" fill="none" stroke="#a93b4c" stroke-linecap="round" stroke-width="10.03"/><path d="m565.572 351.633c.248-.195 1.232.11.947-.024-1.518-.711-3.055-2.822-4.119-3.986-4.208-4.604-8.269-8.743-13.388-12.348-4.537-3.194-8.445-7.392-13.074-10.423-3.49-2.286-7.28-2.554-10.979-4.112-8.749-3.686-14.154-5.598-23.81-5.071-2.924.16-6.159-.401-8.878.986" fill="none" stroke="#a93b4c" stroke-linecap="round" stroke-width="10.03"/><path d="m527.142 317.754c3.595-2.284-9.044.09-11.024.047-8.221-.179-16.244.582-24.039 3.405-9.498 3.441-19.722 2.808-29.26 5.496-6.921 1.951-13.519 5.174-20.569 6.932-6.971 1.739-14.356 2.983-20.569 6.932" fill="none" stroke="#a93b4c" stroke-linecap="round" stroke-width="10.03"/><path d="m440.078 332.149c1.639.985 12.959-6.629 15.507-7.809 12.378-5.731 24.593-12.041 37.006-17.788 4.453-2.062 10.111-6.167 15.003-6.67" fill="none" stroke="#a93b4c" stroke-linecap="round" stroke-width="10.03"/><path d="m656.154 307.494c-8.792-3.944-16.364-13.929-24.49-19.573-18.218-12.653-46.985-19.067-69.138-18.137-41.845 1.756-73.57 32.298-107.366 52.72-13.655 8.251-28.413 11.27-42.835 17.489-48.648 20.98-96.254 39.241-121.827 88.305-5.059 9.708-10.808 17.784-11.932 28.991-1.659 16.541 1.43 35.72 5.069 51.859" fill="none" stroke="#7a1243" stroke-linecap="round" stroke-width="10"/><path d="m288.333 506.641c15.994-5.17 38.559.386 54.709 2.843 88.993 13.543 120.42 58.898 144.033 140.588 7.432 25.713 11.598 89.392-6.023 111.626-7.585 9.57-18.418 12.096-29.133 15.56" fill="none" stroke="#7a1243" stroke-linecap="round" stroke-width="10"/><path d="m774.692 609.698c9.584 19.167-6.803 51.735-12.997 69.432-21.971 62.774-68.452 94.684-129.286 113.895-13.956 4.407-27.638 11.082-42.412 12.313-32.242 2.687-66.085.92-96.793-9.919-10.37-3.659-19.862-4.807-28.389-11.628-2.285-1.829-12.454-6.841-9.235-6.841" fill="none" stroke="#7a1243" stroke-linecap="round" stroke-width="10"/><path d="m774.947 610.846c1.038-3.392-38.142-2.801-44.741-5.76-39.219-17.585-73.031-37.163-98.376-73.225-25.958-36.934-63.11-122.891-21.11-160.723 6.779-6.105 19.257-26.915 26.278-26.548" fill="none" stroke="#7a1243" stroke-linecap="round" stroke-width="10"/><path d="m638.482 345.91c-15.255-11.078-9.836-29.838 7.342-37.582 2.071-.934 7.861.061 10.839-.411" fill="none" stroke="#7a1243" stroke-linecap="round" stroke-width="9.96"/><path d="m630.888 347.442c1.638-4.633-14.942-5.767-17.394-6.148-15.972-2.487-33.908 1.716-46.17 12.296-9.426 8.133-14.957 18.519-20.8 29.092-2.918 5.28.117 11.475-3.065 16.282-.268.405-.415 1.22-.896 1.151-1.417-.203-4.116-8.097-10.063-8.204-3.983-.072-8.113 1.618-12.14 1.823-5.044.257-9.841-.737-14.89.607-20.237 5.39-37.795 20.933-51.988 35.678-2.103 2.184-4.728 5.193-5.978 7.915-1.642 3.578-2.238 11.028-5.494 13.467-2.259 1.693-7.86-7.43-11.086-8.077-7.906-1.585-20.998 1.02-28.655 3.569-4.18 1.391-6.476 4.747-10.045 6.966-8.238 5.123-15.354 10.297-20.897 18.295-2.541 3.667-2.2 12.039-5.66 14.631-2.128 1.594-14.425-9.635-20.847-8.836-6.234.777-12.191 4.796-18.205 6.529-5.363 1.544-11.826 1.483-17.27 3.189-4.371 1.37-6.466 5.549-9.777 8.285-5.03 4.157-9.446 6.436-13.334 11.429" fill="none" stroke="#7a1243" stroke-linecap="round" stroke-width="9.96"/><path d="m463.699 774.398c13.703 0 29.119-.902 42.262-5.283 7.527-2.509 17.444-8.373 23.533-13.447 1.269-1.057 1.926-3.604 3.361-4.322 2.642-1.321 12.211 2.911 15.368 3.362 10.883 1.554 23.09-1.995 33.138-5.763 18.649-6.994 30.144-23.901 43.223-36.98 2.665-2.665 10.517-.473 13.927-.96 6.5-.929 12.023-2.96 17.769-6.244 15.758-9.004 23.827-22.052 33.138-36.018 1.892-2.839 7.864-.764 10.565-1.921 6.746-2.891 13.411-7.122 19.69-11.046 3.845-2.403 8.667-2.511 12.487-4.803 9.44-5.664 20.298-17.138 26.894-25.933 3.114-4.153 5.229-10.058 10.085-12.487" fill="none" stroke="#7a1243" stroke-linecap="round" stroke-width="9.96"/><path d="m336.219 241.406c-7.131.611-12.392 6.901-11.781 14.032.61 7.13 6.869 12.391 14 11.781 1.66-.132 3.244.472 4.75 1.125 2.153.934 4.173 2.137 6.218 3.281 1.302.728 2.633 1.286 3.969 1.937.938.458 1.825 1.019 2.75 1.5 2.432 1.267 4.944 2.431 7.469 3.5 2.398 1.016 4.843 1.943 7.25 2.938 5.246 2.169 10.43 4.51 15.531 7 13.848 6.76 27.105 15.218 37.656 26.562 4.429 4.762 8.266 9.971 11.625 15.532-2.163-6.281-4.878-12.29-8.281-18-6.725-11.285-15.717-21.135-25.437-29.906-4.913-4.434-10.015-8.664-15.219-12.75-4.109-3.227-8.355-6.327-12.407-9.626-1.7-1.384-3.182-2.942-4.781-4.437-.74-.692-1.553-1.326-2.281-2.031-1.22-1.182-2.33-2.339-3.688-3.375-7.855-6.002-17.349-9.947-27.343-9.063z" fill="#7a1243" fill-rule="nonzero"/><path d="m433.479 327.392c1.451.531-3.109-3.531-4.117-5.291-2.786-4.867-6.584-10.1-10.258-14.35-1.335-1.545-2.946-2.947-4.482-4.29-.539-.471-1.952-2.083-1.53-1.506 4.278 5.845 9.306 12.834 14.485 17.79 1.787 1.71 2.5 4.202 4.266 5.913.742.718 1.543 1.296 2.303 1.978.295.266 1.19 1.004.817.867-2.407-.882-4.748-6.753-6.096-8.664-4.761-6.75-10.467-12.449-15.636-18.779-2.545-3.117-4.752-5.618-8.087-7.88-1.229-.834-2.619-1.641-3.804-2.528-.212-.159-.808-.606-.545-.578 1.99.212 4.971 3.843 6.257 5.129 5.955 5.959 10.44 12.883 15.558 19.507 3.085 3.993 5.939 8.74 9.245 12.466.105.118 3.443 3.526 2.754 3.846-.16.074-1.124-1.537-1.135-1.551-2.858-3.539-5.063-7.278-7.716-10.96-5.535-7.682-12.099-13.352-18.577-20.045-2.909-3.004-5.666-5.817-9.088-8.246-1.466-1.041-2.963-2.049-4.288-3.273-.275-.254-1.23-.829-.878-.7 9.374 3.433 16.16 15.431 23.187 21.922 2.383 2.202 4.651 4.701 6.874 7.058.762.808 1.614 1.437 2.408 2.206.459.443 1.979 1.593 1.424 1.278-7.087-4.022-14.6-15.918-19.862-22.218-2.543-3.044-6.372-4.479-8.832-7.396-.028-.033-.692-1.26-.24-1.412 1.914-.642 10.157 7.108 11.879 8.89 6.896 7.135 12.363 15.453 18.89 22.808 2.149 2.421 4.094 5.021 6.13 7.541.801.993 1.594 1.486 2.575 2.267.249.199.944.421.712.639-1.325 1.25-9.203-9.544-9.706-10.175-1.731-2.171-3.939-3.789-5.267-6.28-2.76-5.174-6.693-9.061-10.108-13.727" fill="none" stroke="#7a1243" stroke-linecap="round" stroke-width="3.99"/><path d="m539.014 566.609c-.216 2.297 3.405 19.352 5.409 21.669 1.176 1.36 7.409.681 7.56-1.402.45-6.214-4.669-11.471-9.083-15.173-1.539-1.291-3.778-6.241-3.886-5.094z" fill="none" stroke="#380d21" stroke-linecap="round" stroke-width="3.99"/><path d="m548.598 540.889c-.846.399 10.373 23.736 15.658 18.403 5.211-5.257-11.518-20.354-15.658-18.403z" fill="none" stroke="#380d21" stroke-linecap="round" stroke-width="3.99"/><path d="m542.575 573.369c1.383 1.668 2.594 4.201 3.454 6.201.058.136 1.181 2.605 1.26 2.539.134-.111-.948-1.858-1.023-1.998-.3-.555-.656-1.08-.941-1.644-.606-1.196-1.125-2.495-1.85-3.631-.043-.068-.076-.206-.155-.187-.229.053.929 2.619.959 2.683.891 1.949 1.834 3.845 2.924 5.691.011.018 1.148 2.067.961 2.05-.988-.093-2.692-3.234-3.199-3.989-.288-.427-1.25-1.635-.922-1.238 1.136 1.37 2.135 2.919 2.98 4.486.122.226.476.554.279.717-.249.207-1.857-2.657-2.218-2.167-.302.411 1.778 3.719 2.337 3.965.333.147 1.065-.992 1.427-1.076.121-.029 1.383.224 1.235.346-.623.516-2.411-2.04-2.528-2.542" fill="none" stroke="#380d21" stroke-linecap="round" stroke-width="3.99"/><path d="m548.51 580.149c-.721 1.636.327 2.37.716 4.043" fill="none" stroke="#380d21" stroke-linecap="round" stroke-width="3.99"/><path d="m552.482 545.136c-1.538-1.856 3.033 3.508 3.324 3.884.742.959 1.48 1.606 1.472 1.521-.138-1.316-2.69-3.499-3.5-4.477-.358-.432-.717-.896-1.025-1.364-.047-.071-.178-.247-.093-.239.458.043 1.579 2.123 1.791 2.415 1.257 1.732 2.569 3.423 3.841 5.143.584.792 1.144 1.472 1.812 2.187.035.038.971.813.964.782-.223-.959-1.54-1.77-2.196-2.396-.316-.301-.627-.606-.954-.896-.103-.091-.38-.385-.321-.26.766 1.598 2.678 2.916 3.676 4.436.123.186.461.461.29.603-.1.083-.885-.813-.954-.896-.173-.209-.789-.399-.58-.573.251-.208 1.942 1.729 2.135 1.814.427.188-.48-.802-.693-1.218-.346-.676-.626-1.371-.96-2.049-.543-1.101-3.239-3.843-2.439-4.724.319-.351.683-.039 1.009-.309" fill="none" stroke="#380d21" stroke-linecap="round" stroke-width="3.99"/><path d="m421.281 350.688c-2.801 1.098-5.573 2.216-8.281 3.531-5.351 2.598-10.514 5.576-15.906 8.093-16.182 7.554-32.628 15.019-46.844 26-9.119 7.045-17.407 15.412-25.062 24-6.593 7.397-12.807 15.139-18.626 23.157-1.004 1.384-2.039 2.741-3 4.156-5.958 8.782-11.182 18.038-16.093 27.437-1.23 2.341-.31 5.24 2.031 6.469 2.341 1.23 5.239.31 6.469-2.031 4.974-9.422 10.429-18.511 15.937-27.625 7.723-12.778 16.147-25.043 25.938-36.344 4.271-4.93 8.744-9.722 13.562-14.125 13.655-12.476 30.199-21.071 46.375-29.75 5.257-2.82 10.227-6.101 15.438-9 2.624-1.46 5.334-2.719 8.062-3.968z" fill="#fadddd" fill-rule="nonzero"/><path d="m542.156 762.219c-5.754 4.551-11.105 9.647-17.25 13.687-3.433 2.257-7.221 4.265-11.312 4.969-2.115.364-4.223.205-6.344 0-1.719-.166-3.341-.557-4.969-1.125-2.49-.888-5.237.416-6.125 2.906-.888 2.491.416 5.237 2.906 6.125 2.483.901 5.003 1.572 7.657 1.657 5.51.176 10.88-2.585 15.187-5.813 8.106-6.074 13.783-14.756 20.25-22.406z" fill="#fadddd" fill-rule="nonzero"/><path d="m759.188 642.844c-1.861.143-3.527 1.369-4.157 3.25-1.796 5.3-3.858 10.487-6 15.656-1.25 3.017-2.428 6.043-3.75 9.031-2.323 5.252-4.997 10.364-7.906 15.313-10.508 17.879-24.116 33.628-38.031 48.906 17.394-15.834 34.28-32.391 47.625-51.875 2.989-4.364 5.848-8.825 8.437-13.437.566-1.008 1.162-2.001 1.688-3.032 2.866-5.612 5.023-11.558 7-17.531.84-2.507-.493-5.223-3-6.063-.627-.209-1.286-.266-1.906-.218z" fill="#965555" fill-rule="nonzero"/><path d="m767.656 627.594c-1.851.228-3.488 1.53-4.031 3.437-2.524 8.783-5.605 17.347-8.875 25.875-.591 1.542-1.113 3.09-1.719 4.625-2.873 7.283-6.064 14.48-9.593 21.469-15.683 31.053-37.148 59.261-63.188 82.344 23.659-18.485 43.979-40.964 60.781-65.813 5.195-7.682 10.033-15.592 14.5-23.719 3.029-5.509 6.026-11.104 8.531-16.874 3.56-8.199 6.356-16.687 8.782-25.282.724-2.543-.77-5.182-3.313-5.906-.636-.181-1.258-.232-1.875-.156z" fill="#965555" fill-rule="nonzero"/><path d="m750 684.812c-2.634-.236-4.983 1.679-5.219 4.313-.395 4.417-3.981 8.494-6.843 11.594-4.428 4.794-9.284 9.186-13.657 14.031-1.979 2.194-3.853 4.472-5.843 6.656-3.437 3.771-7.017 7.426-10.688 10.969-16.792 16.209-35.901 30.037-56.719 40.594 20.587-8.532 39.783-20.159 57.281-33.938 5.151-4.056 10.18-8.277 15.032-12.687 2.51-2.282 4.897-4.726 7.468-6.938 2.852-2.452 5.829-4.72 8.719-7.125 3.276-2.726 6.366-5.804 9-9.156 3.014-3.836 5.371-8.201 5.813-13.125.236-2.634-1.71-4.951-4.344-5.188z" fill="#965555" fill-rule="nonzero"/><path d="m760.438 631.906c-1.859.166-3.518 1.425-4.126 3.313-.738 2.23-1.638 4.427-2.281 6.687-.478 1.681-.823 3.391-1.343 5.063-.689 2.211-1.546 4.359-2.5 6.469-3.243 7.164-7.86 13.504-13.188 19.25 8.349-5.651 15.486-12.562 21.375-20.75 1.494-2.077 3.071-4.211 4.281-6.469 1.232-2.298 2.008-4.837 2.782-7.313.809-2.517-.577-5.222-3.094-6.031-.63-.202-1.287-.274-1.906-.219z" fill="#965555" fill-rule="nonzero"/><path d="m763.25 637.281c-.622-.014-1.229.1-1.844.344-4.195 1.646-8.105 3.87-11.781 6.469-2.21 1.562-4.231 3.368-6.437 4.937-1.354.963-2.837 1.84-4.282 2.657-15.372 8.691-31.392 16.196-47.5 23.406 12.264-3.716 24.478-7.61 36.563-11.875 6.055-2.137 12.148-4.216 18.062-6.719 2.994-1.266 5.958-2.806 8.75-4.469 3.318-1.976 6.56-4.053 10.157-5.5 2.457-.975 3.662-3.761 2.687-6.219-.732-1.843-2.51-2.989-4.375-3.031z" fill="#965555" fill-rule="nonzero"/><path d="m756.938 642.031c-1.222.091-2.419.655-3.282 1.657-3.006 3.459-6.145 6.769-9.125 10.25-1.867 2.18-3.663 4.444-5.531 6.624-2.627 3.066-5.352 6.037-8.094 9-7.894 8.531-16.077 16.784-23.906 25.376-3.153 3.46-6.21 7.003-9.25 10.562 3.436-3.162 6.871-6.293 10.406-9.344 7.472-6.447 15.205-12.605 22.875-18.812 4.543-3.677 9.052-7.372 13.531-11.125 2.259-1.893 4.568-3.765 6.719-5.781 3.465-3.249 6.547-6.893 9.625-10.5 1.726-2.004 1.504-5.025-.5-6.75-1.002-.863-2.247-1.248-3.468-1.157z" fill="#965555" fill-rule="nonzero"/><path d="m747.781 646.312c-1.854.204-3.494 1.507-4.062 3.407-1.658 5.464-3.868 10.643-6.063 15.906-1.338 3.21-2.687 6.405-4.218 9.531-4.24 8.655-9.327 16.903-15 24.688-1.716 2.354-3.443 4.717-5.438 6.844-2.963 3.157-6.189 6.028-8.688 9.593-4.43 6.322-7.841 13.329-11.812 19.938 2.62-3.528 5.13-7.125 7.656-10.719 2.044-2.908 4.079-5.887 6.5-8.5 3.603-3.887 8.102-6.789 11.782-10.594 5.851-6.051 11.231-12.598 16.218-19.375 4.087-5.553 8.102-11.282 11.406-17.343 2.962-5.433 5.066-11.332 6.813-17.25.758-2.534-.654-5.18-3.187-5.938-.634-.19-1.289-.255-1.907-.188z" fill="#965555" fill-rule="nonzero"/><path d="m751.625 650.719c-2.61-.424-5.076 1.327-5.5 3.937-1.1 6.639-3.147 12.912-5.531 19.188-3.151 8.295-7.028 16.199-11.594 23.812-12.562 20.945-28.644 39.515-44.844 57.688 17.818-16.948 35.468-34.332 50.125-54.156 3.73-5.045 7.254-10.238 10.469-15.626 1.995-3.342 3.902-6.794 5.438-10.374 2.611-6.092 4.365-12.464 5.406-19 .424-2.61-1.359-5.045-3.969-5.469z" fill="#965555" fill-rule="nonzero"/><path d="m772.312 617.5c-1.865.037-3.607 1.19-4.343 3.031-.887 2.16-1.868 4.336-2.375 6.625-.378 1.709-.519 3.518-.75 5.25-.381 2.852-.787 5.682-1.188 8.532-.633 4.501-1.229 9.04-2.125 13.5-.451 2.247-1.021 4.484-1.531 6.718 1.043-2.056 2.137-4.104 3.125-6.187 2.456-5.176 4.566-10.523 6.906-15.75.923-2.062 1.882-4.08 2.907-6.094.503-.988 1.056-1.966 1.531-2.969.928-1.961 1.589-4.073 2.375-6.094.982-2.455-.202-5.236-2.656-6.218-.614-.246-1.254-.356-1.876-.344z" fill="#965555" fill-rule="nonzero"/><path d="m765.375 646.312c-2.614-.395-5.073 1.417-5.469 4.032-.691 4.429-1.669 8.786-2.5 13.187-.51 2.702-.965 5.415-1.594 8.094-1.122 4.787-2.615 9.473-4.374 14.063-5.286 13.789-13.356 26.151-22.75 37.468 4.259-4.012 8.347-8.146 12.156-12.594 8.208-9.584 15.079-20.266 20.375-31.718 1.957-4.232 3.835-8.552 5.25-13 1.45-4.56 2.213-9.341 2.906-14.063.396-2.614-1.386-5.073-4-5.469z" fill="#965555" fill-rule="nonzero"/><path d="m742.031 680.938c-1.857.176-3.528 1.421-4.125 3.312-1.171 3.644-2.609 7.157-4 10.719-.701 1.795-1.357 3.624-2.094 5.406-1.503 3.639-3.257 7.146-5.156 10.594-6.817 12.377-15.436 23.676-23.625 35.156 8.747-9.248 17.698-18.306 25.813-28.125 3.303-3.997 6.423-8.152 9.344-12.438 1.471-2.159 2.982-4.318 4.218-6.624 1.998-3.727 3.377-7.755 4.625-11.782.796-2.521-.603-5.235-3.125-6.031-.63-.199-1.256-.246-1.875-.187z" fill="#965555" fill-rule="nonzero"/><path d="m740.938 704.156c-1.85-.249-3.741.606-4.75 2.313-2.187 3.657-4.515 7.217-6.75 10.843-1.133 1.839-2.208 3.694-3.344 5.532-2.294 3.71-4.824 7.307-7.5 10.75-9.453 12.158-21.049 22.535-34.469 30.125 14.096-5.775 26.672-14.48 37.781-24.844 3.344-3.119 6.532-6.414 9.625-9.781 1.925-2.096 3.888-4.181 5.625-6.438 2.737-3.556 5.02-7.446 7.282-11.312 1.345-2.276.588-5.217-1.688-6.563-.569-.336-1.196-.542-1.812-.625z" fill="#965555" fill-rule="nonzero"/></svg>