<?xml version="1.0" encoding="UTF-8" standalone="no"?>
<!DOCTYPE svg PUBLIC "-//W3C//DTD SVG 1.1//EN" "http://www.w3.org/Graphics/SVG/1.1/DTD/svg11.dtd">
<svg width="100%" height="100%" viewBox="0 0 1024 1024" version="1.1" xmlns="http://www.w3.org/2000/svg" xmlns:xlink="http://www.w3.org/1999/xlink" xml:space="preserve" xmlns:serif="http://www.serif.com/" style="fill-rule:evenodd;clip-rule:evenodd;stroke-linejoin:round;stroke-miterlimit:2;">
    <g id="Layer-5">
    </g>
    <g id="Layer-6">
    </g>
    <g id="Layer-7">
    </g>
    <g id="Layer-8">
    </g>
    <g id="Layer-9">
    </g>
    <g id="Layer-10">
    </g>
    <g id="Layer-11">
    </g>
    <g id="Layer-4">
    </g>
    <g id="Layer-2">
    </g>
    <g id="Layer-3">
        <g transform="matrix(1,0,0,1,256.001,290.9)">
            <path d="M3.04,230.89L484.74,118.45C528.64,214.16 514.31,305.32 478.49,389.63L0,442.2L3.04,230.89Z" style="fill:rgb(245,182,7);stroke:black;stroke-width:8.5px;"/>
        </g>
        <g transform="matrix(1,0,0,1,256.001,290.9)">
            <path d="M3.01,230.75L4.87,219.45L266.56,0C366.03,2.02 438.83,44.7 484.74,118.45L3.01,230.75Z" style="fill:rgb(250,207,112);stroke:black;stroke-width:8.5px;"/>
        </g>
        <g transform="matrix(1,0,0,1,256.001,290.9)">
            <path d="M236.22,187.69C259.49,187.69 278.36,206.56 278.36,229.83C278.36,253.1 259.49,271.96 236.22,271.96C212.95,271.96 194.09,253.1 194.09,229.83C194.09,206.56 212.95,187.69 236.22,187.69ZM403.39,195.23C426.43,195.23 445.11,213.91 445.11,236.95C445.11,259.99 426.43,278.67 403.39,278.67C380.36,278.67 361.68,259.99 361.68,236.95C361.68,213.91 380.36,195.23 403.39,195.23ZM205.04,321.63C225.43,321.63 241.96,338.16 241.96,358.55C241.96,378.94 225.43,395.47 205.04,395.47C184.64,395.47 168.11,378.94 168.11,358.55C168.11,338.16 184.64,321.63 205.04,321.63ZM352.24,321.79C366.81,321.79 378.63,333.61 378.63,348.18C378.63,362.76 366.81,374.57 352.24,374.57C337.66,374.57 325.85,362.76 325.85,348.18C325.85,333.61 337.66,321.79 352.24,321.79ZM86.61,243.35C99.43,243.35 109.83,253.75 109.83,266.57C109.83,279.39 99.43,289.79 86.61,289.79C73.79,289.79 63.39,279.39 63.39,266.57C63.39,253.75 73.79,243.35 86.61,243.35ZM89.41,354.7C102.23,354.7 112.63,365.09 112.63,377.92C112.63,390.74 102.23,401.13 89.41,401.13C76.59,401.13 66.19,390.74 66.19,377.92C66.19,365.09 76.59,354.7 89.41,354.7ZM256.6,39.7C274.9,39.7 289.74,54.54 289.74,72.84C289.74,91.14 274.9,105.98 256.6,105.98C238.3,105.98 223.46,91.14 223.46,72.84C223.46,54.54 238.3,39.7 256.6,39.7ZM147.73,143.54C158.94,143.54 168.02,152.63 168.02,163.83C168.02,175.03 158.94,184.12 147.73,184.12C136.53,184.12 127.45,175.03 127.45,163.83C127.45,152.63 136.53,143.54 147.73,143.54ZM384.25,69.67C399.49,69.67 411.85,82.03 411.85,97.27C411.85,112.51 399.49,124.86 384.25,124.86C369.01,124.86 356.66,112.51 356.66,97.27C356.66,82.03 369.01,69.67 384.25,69.67Z" style="fill:rgb(210,145,43);"/>
        </g>
    </g>
</svg>
