<svg clip-rule="evenodd" fill-rule="evenodd" stroke-linejoin="round" stroke-miterlimit="2" viewBox="0 0 1024 1024" xmlns="http://www.w3.org/2000/svg"><g transform="translate(256.001 290.9)"><path d="m3.04 230.89 481.7-112.44c43.9 95.71 29.57 186.87-6.25 271.18l-478.49 52.57z" fill="#f5b607" stroke="#000" stroke-width="8.5"/><path d="m3.01 230.75 1.86-11.3 261.69-219.45c99.47 2.02 172.27 44.7 218.18 118.45z" fill="#facf70" stroke="#000" stroke-width="8.5"/><path d="m236.22 187.69c23.27 0 42.14 18.87 42.14 42.14s-18.87 42.13-42.14 42.13-42.13-18.86-42.13-42.13 18.86-42.14 42.13-42.14zm167.17 7.54c23.04 0 41.72 18.68 41.72 41.72s-18.68 41.72-41.72 41.72c-23.03 0-41.71-18.68-41.71-41.72s18.68-41.72 41.71-41.72zm-198.35 126.4c20.39 0 36.92 16.53 36.92 36.92s-16.53 36.92-36.92 36.92c-20.4 0-36.93-16.53-36.93-36.92s16.53-36.92 36.93-36.92zm147.2.16c14.57 0 26.39 11.82 26.39 26.39 0 14.58-11.82 26.39-26.39 26.39-14.58 0-26.39-11.81-26.39-26.39 0-14.57 11.81-26.39 26.39-26.39zm-265.63-78.44c12.82 0 23.22 10.4 23.22 23.22s-10.4 23.22-23.22 23.22-23.22-10.4-23.22-23.22 10.4-23.22 23.22-23.22zm2.8 111.35c12.82 0 23.22 10.39 23.22 23.22 0 12.82-10.4 23.21-23.22 23.21s-23.22-10.39-23.22-23.21c0-12.83 10.4-23.22 23.22-23.22zm167.19-315c18.3 0 33.14 14.84 33.14 33.14s-14.84 33.14-33.14 33.14-33.14-14.84-33.14-33.14 14.84-33.14 33.14-33.14zm-108.87 103.84c11.21 0 20.29 9.09 20.29 20.29s-9.08 20.29-20.29 20.29c-11.2 0-20.28-9.09-20.28-20.29s9.08-20.29 20.28-20.29zm236.52-73.87c15.24 0 27.6 12.36 27.6 27.6s-12.36 27.59-27.6 27.59-27.59-12.35-27.59-27.59 12.35-27.6 27.59-27.6z" fill="#d2912b"/></g></svg>