<?xml version="1.0" encoding="UTF-8" standalone="no"?>
<!DOCTYPE svg PUBLIC "-//W3C//DTD SVG 1.1//EN" "http://www.w3.org/Graphics/SVG/1.1/DTD/svg11.dtd">
<svg width="100%" height="100%" viewBox="0 0 1024 1024" version="1.1" xmlns="http://www.w3.org/2000/svg" xmlns:xlink="http://www.w3.org/1999/xlink" xml:space="preserve" xmlns:serif="http://www.serif.com/" style="fill-rule:evenodd;clip-rule:evenodd;stroke-miterlimit:10;">
    <g transform="matrix(0.869721,0,0,0.869721,242.566,221.19)">
        <path d="M584.286,298.145C584.286,303.038 585.015,307.942 584.774,312.774C584.531,317.659 585.503,322.686 585.019,327.503C584.53,332.366 582.454,337.081 581.726,341.87C580.993,346.7 577.92,351.073 576.95,355.821C575.973,360.604 575.714,365.479 574.502,370.173C573.281,374.9 573.321,379.97 571.871,384.599C570.412,389.253 569.857,394.275 568.171,398.825C566.477,403.398 561.562,406.68 559.646,411.14C557.721,415.619 558.071,421.123 555.929,425.482C553.78,429.855 552.385,434.71 550.024,438.955C547.656,443.212 544.589,447.157 542.015,451.278C539.435,455.409 533.748,457.464 530.968,461.45C528.184,465.444 526.113,469.856 523.134,473.699C520.152,477.546 519.033,482.919 515.863,486.607C512.692,490.298 507.43,492.099 504.079,495.624C500.726,499.15 498.457,503.724 494.932,507.076C491.407,510.428 487.154,512.962 483.462,516.133C479.774,519.303 477.259,523.939 473.411,526.921C469.568,529.9 463.718,530.127 459.724,532.912C455.737,535.692 452.992,540.288 448.862,542.867C444.74,545.441 439.825,546.646 435.567,549.014C431.322,551.375 428.321,556.165 423.948,558.315C419.59,560.457 413.832,559.599 409.353,561.524C404.893,563.44 401.221,567.315 396.649,569.009C392.099,570.695 386.667,569.757 382.011,571.216C377.383,572.667 373.001,574.769 368.276,575.988C363.582,577.2 358.711,577.386 353.926,578.365C349.179,579.335 344.487,580.167 339.657,580.9C334.868,581.628 330.224,583.068 325.362,583.557C320.545,584.041 315.742,584.238 310.858,584.481C306.025,584.722 301.225,586.555 296.333,586.555C291.441,586.555 286.566,586.225 281.733,585.984C276.849,585.741 271.896,586.28 267.079,585.796C262.216,585.307 257.638,582.685 252.849,581.957C248.019,581.224 242.78,582.793 238.033,581.822C233.249,580.844 228.592,579.107 223.897,577.895C219.171,576.674 215.129,573.151 210.501,571.7C205.846,570.241 200.178,571.74 195.627,570.054C191.054,568.36 186.952,565.343 182.492,563.426C178.013,561.502 174.498,557.556 170.139,555.414C165.766,553.265 160.979,552.022 156.734,549.661C152.477,547.293 147.694,545.804 143.573,543.229C139.443,540.649 135.806,537.292 131.82,534.512C127.826,531.727 122.814,530.256 118.972,527.278C115.125,524.296 111.169,521.299 107.481,518.13C103.79,514.958 101.194,510.489 97.669,507.138C94.143,503.785 89.59,501.378 86.237,497.853C82.885,494.328 81.51,488.971 78.339,485.28C75.17,481.592 70.496,479.104 67.514,475.258C64.535,471.415 61.377,467.605 58.592,463.612C55.812,459.625 55.1,454.237 52.52,450.106C49.946,445.985 45.117,443.148 42.749,438.89C40.388,434.645 38.954,429.819 36.805,425.445C34.663,421.088 34.452,415.829 32.528,411.35C30.611,406.89 28.662,402.479 26.968,397.907C25.282,393.357 21.303,389.551 19.844,384.895C18.393,380.267 17.491,375.386 16.271,370.662C15.059,365.968 17.195,360.502 16.217,355.719C15.246,350.971 13.77,346.383 13.036,341.553C12.308,336.764 10.949,332.085 10.46,327.223C9.976,322.406 10.517,317.542 10.273,312.659C10.032,307.825 9.111,303.04 9.111,298.147C9.111,293.254 10.07,288.471 10.311,283.638C10.555,278.754 8.283,273.719 8.767,268.902C9.256,264.039 12.821,259.608 13.548,254.819C14.282,249.989 11.19,244.493 12.16,239.745C13.138,234.962 14.736,230.242 15.948,225.547C17.168,220.821 18.213,215.968 19.664,211.339C21.123,206.684 23.265,202.187 24.951,197.637C26.645,193.064 28.032,188.292 29.948,183.832C31.873,179.353 36.602,176.155 38.744,171.797C40.893,167.424 43.142,163.176 45.504,158.931C47.872,154.674 48.579,149.45 51.153,145.329C53.733,141.199 56.749,137.317 59.529,133.33C62.314,129.336 65.32,125.48 68.299,121.638C71.281,117.791 75.021,114.567 78.19,110.879C81.362,107.188 83.432,102.479 86.784,98.954C90.137,95.428 93.263,91.576 96.789,88.223C100.314,84.871 104.94,82.665 108.631,79.494C112.319,76.325 115.911,73.004 119.758,70.022C123.6,67.043 128.196,65.089 132.19,62.304C136.177,59.524 140.717,57.675 144.848,55.096C148.969,52.522 151.834,47.837 156.091,45.469C160.336,43.108 164.903,41.263 169.276,39.114C173.634,36.972 178.599,36.148 183.078,34.223C187.538,32.306 191.61,29.426 196.183,27.731C200.733,26.045 205.79,25.867 210.445,24.408C215.073,22.957 219.315,20.169 224.041,18.949C228.735,17.737 233.297,15.682 238.081,14.705C242.828,13.734 247.892,14.228 252.721,13.494C257.51,12.766 262.374,12.557 267.237,12.068C272.054,11.584 276.874,11.036 281.758,10.792C286.591,10.551 291.442,9.875 296.334,9.875C301.226,9.875 306.185,8.387 311.018,8.628C315.902,8.872 320.698,10.738 325.515,11.222C330.378,11.711 335.478,10.657 340.267,11.385C345.097,12.119 349.591,14.95 354.338,15.921C359.122,16.899 363.416,19.743 368.11,20.956C372.836,22.176 378.093,21.369 382.721,22.82C387.376,24.279 391.634,26.86 396.184,28.546C400.757,30.24 405.835,30.67 410.294,32.586C414.773,34.511 419.18,36.678 423.538,38.819C427.911,40.968 431.823,44.025 436.068,46.386C440.325,48.754 444.828,50.718 448.949,53.292C453.08,55.872 456.878,58.974 460.864,61.754C464.858,64.539 468.703,67.518 472.546,70.497C476.393,73.479 478.93,77.98 482.618,81.15C486.308,84.321 491.027,86.272 494.552,89.624C498.078,92.977 502.379,95.579 505.732,99.104C509.084,102.629 511.775,106.791 514.946,110.482C518.116,114.17 520.697,118.332 523.678,122.178C526.657,126.021 528.824,130.407 531.61,134.401C534.389,138.388 539.904,140.597 542.484,144.727C545.058,148.849 544.231,154.991 546.599,159.248C548.96,163.493 552.252,167.193 554.401,171.566C556.544,175.924 557.979,180.566 559.904,185.045C561.82,189.505 565.887,193.117 567.582,197.69C569.268,202.24 570.29,207.08 571.749,211.735C573.2,216.363 572.523,221.592 573.743,226.318C574.955,231.012 576.911,235.498 577.889,240.282C578.86,245.03 580.633,249.648 581.367,254.478C582.095,259.267 581.714,264.209 582.203,269.072C582.686,273.889 583.045,278.707 583.288,283.592C583.528,288.422 584.286,293.252 584.286,298.145Z" style="fill:rgb(251,177,100);fill-rule:nonzero;"/>
    </g>
    <g transform="matrix(0.869721,0,0,0.869721,242.566,221.19)">
        <g opacity="0.2">
            <path d="M296.333,10.597C291.44,10.597 286.532,9.393 281.699,9.634C276.815,9.878 272.036,11.403 267.219,11.887C262.356,12.376 257.323,11.533 252.534,12.261C247.704,12.995 243.158,15.344 238.41,16.315C233.626,17.293 229.144,19.328 224.45,20.541C219.724,21.761 214.699,21.768 210.071,23.219C205.416,24.678 200.669,25.876 196.119,27.562C191.546,29.256 187.078,31.242 182.619,33.158C178.14,35.083 173.952,37.621 169.593,39.763C165.22,41.912 161.705,45.572 157.46,47.933C153.203,50.301 148.298,51.451 144.177,54.025C140.047,56.605 136.967,60.659 132.98,63.439C128.986,66.224 123.926,67.466 120.083,70.444C116.236,73.426 111.292,75.132 107.604,78.302C103.913,81.473 101.769,86.406 98.244,89.757C94.718,93.11 90.523,95.799 87.17,99.325C83.818,102.85 81.664,107.451 78.492,111.142C75.323,114.83 72.175,118.487 69.192,122.334C66.214,126.176 62.621,129.553 59.836,133.547C57.056,137.534 54.878,141.915 52.297,146.046C49.723,150.168 46.83,154.096 44.462,158.354C42.101,162.599 39.734,166.857 37.585,171.23C35.443,175.588 31.676,179.271 29.752,183.75C27.835,188.21 27.601,193.42 25.907,197.993C24.221,202.543 23.789,207.521 22.33,212.176C20.879,216.804 18.785,221.239 17.565,225.965C16.353,230.659 14.638,235.268 13.66,240.052C12.689,244.8 10.987,249.488 10.253,254.318C9.525,259.107 12.275,264.341 11.787,269.204C11.303,274.021 7.116,278.581 6.872,283.466C6.631,288.299 7.707,293.254 7.707,298.147C7.707,302.879 7.186,307.645 7.413,312.321C7.642,317.044 10.413,321.563 10.868,326.223C11.326,330.928 11.298,335.629 11.98,340.265C12.668,344.939 11.414,349.953 12.323,354.553C13.24,359.185 15.152,363.633 16.287,368.184C17.43,372.764 19.585,377.059 20.944,381.549C22.311,386.065 23.693,391.272 25.272,395.692C28.118,389.817 31.221,385.467 34.229,382.566C38.468,378.475 42.558,374.537 47.943,374.518C52.435,374.503 57.399,377.877 63.305,379.327C67.839,380.439 72.623,382.88 78.282,384.206C83.453,385.417 87.968,386.388 91.989,388.63C96.454,391.118 102.131,392.093 105.432,395.583C108.807,399.151 109.341,405.031 111.781,409.348C114.169,413.573 117.911,417.272 119.673,421.925C121.404,426.5 121.844,431.602 123.227,436.321C124.626,441.097 127.403,445.457 128.706,450.103C130.081,455.006 128.359,460.763 129.929,465.203C131.672,470.133 136.621,473.31 139.005,477.243C141.694,481.68 142.672,487.724 146.75,490.285C150.585,492.692 156.175,493.232 161.759,493.428C166.006,493.577 170.505,490.871 176.019,489.468C180.78,488.257 185.17,486.678 189.38,485.703C194.222,484.581 199.421,486.859 203.607,486.036C208.563,485.062 212.921,483.68 217.076,483.101C222.181,482.39 226.625,481.189 230.738,481.037C235.956,480.842 240.727,479.446 244.787,480.066C249.725,480.821 254.164,482.843 258.192,484.652C262.268,486.483 266.033,489.235 270.086,491.974C273.591,494.342 277.839,496.225 281.964,499.154C285.397,501.591 287.818,506.123 292.056,508.877C296.81,511.967 301.997,512.073 306.327,513.143C311.439,514.407 315.851,514.685 320.691,513.873C325.436,513.077 330.046,511.878 334.856,509.852C339.238,508.005 343.335,505.095 348.028,502.826C352.345,500.738 357.954,501.041 362.734,499.058C367.173,497.217 371.216,493.783 376.213,492.403C381.151,491.04 386.041,490.222 390.628,490.163C395.579,490.1 400.266,492.291 404.928,492.861C409.81,493.459 414.559,495.274 419.263,495.538C424.072,495.808 428.627,492.452 433.4,491.261C438.227,490.056 443.613,489.756 447.205,486.27C450.489,483.082 452.106,477.947 454.637,473.397C456.89,469.345 458.959,464.924 460.815,460.183C462.549,455.754 465.618,451.599 467.165,446.878C468.683,442.251 468.419,436.993 469.902,432.372C471.426,427.624 471.59,422.418 473.235,417.978C475.018,413.165 479.997,409.95 482.114,405.874C484.556,401.173 486.298,396.694 489.472,393.535C492.795,390.228 497.255,391.433 501.808,395.038C505.144,397.68 508.161,401.777 511.7,404.487C515.942,407.734 520.11,409.718 524.037,408.203C527.388,406.91 531.327,403.497 533.354,397.709C534.715,393.824 532.868,388.369 533.905,383.293C534.797,378.924 536.086,374.378 536.887,369.588C537.657,364.994 538.54,360.317 539.353,355.721C540.196,350.95 541.671,346.355 542.696,341.996C543.871,337 545.649,332.512 547.256,328.653C549.459,323.36 551.511,318.077 554.989,316.347C558.508,314.598 563.401,315.083 568.773,318.669C570.802,314.567 573.28,312.024 575.054,307.872C576.851,303.669 578.344,299.348 579.886,295.101C581.446,290.808 582.533,286.378 583.84,282.049C583.572,277.183 585.324,272.132 584.819,267.334C584.307,262.491 581.842,257.862 581.094,253.094C580.339,248.284 580.943,243.191 579.953,238.464C578.956,233.701 577.854,228.884 576.625,224.212C575.388,219.508 572.417,215.27 570.951,210.664C569.476,206.031 567.231,201.687 565.533,197.16C563.825,192.61 560.692,188.717 558.764,184.28C556.828,179.824 558.048,173.92 555.898,169.585C553.739,165.235 548.33,162.618 545.961,158.396C543.586,154.162 544.016,148.281 541.437,144.183C538.852,140.076 536.387,135.795 533.604,131.831C530.816,127.86 526.937,124.626 523.957,120.807C520.974,116.982 517.676,113.389 514.507,109.723C511.336,106.054 506.588,103.866 503.238,100.362C499.887,96.858 496.408,93.61 492.886,90.278C489.365,86.947 485.892,83.697 482.206,80.545C478.522,77.396 474.841,74.381 471,71.419C467.164,68.459 464.237,64.334 460.252,61.567C456.273,58.805 453.305,54.418 449.183,51.855C445.072,49.297 440.219,47.862 435.972,45.509C431.738,43.164 427.188,41.364 422.826,39.229C418.479,37.102 413.645,36.062 409.18,34.151C404.733,32.248 401.34,27.583 396.782,25.901C392.245,24.226 386.642,25.545 382.002,24.096C377.389,22.655 372.596,22.025 367.885,20.814C363.206,19.61 359.208,15.372 354.44,14.401C349.709,13.437 344.467,15.14 339.654,14.412C334.882,13.689 330.07,13.599 325.224,13.114C320.423,12.633 315.695,11.665 310.828,11.424C306.012,11.178 301.209,10.597 296.333,10.597Z" style="fill:white;fill-rule:nonzero;"/>
        </g>
    </g>
    <g transform="matrix(0.869721,0,0,0.869721,242.566,221.19)">
        <path d="M296.786,125.553C296.786,131.031 294.435,135.919 292.46,140.683C290.412,145.621 288.425,150.604 284.703,154.326C280.982,158.047 275.883,159.753 270.944,161.801C266.18,163.776 261.41,166.292 255.931,166.292C250.452,166.292 244.727,166.075 239.963,164.1C235.025,162.052 231.129,157.798 227.407,154.077C223.685,150.355 221.072,145.778 219.024,140.84C217.048,136.076 215.809,131.032 215.809,125.554C215.809,120.076 216.366,114.748 218.341,109.985C220.389,105.047 222.307,99.374 226.029,95.652C229.751,91.93 235.381,89.911 240.318,87.863C245.082,85.888 250.452,83.083 255.93,83.083C261.408,83.083 266.658,86.177 271.421,88.153C276.359,90.2 279.55,94.491 283.272,98.213C286.993,101.934 291.668,104.965 293.715,109.903C295.692,114.666 296.786,120.075 296.786,125.553Z" style="fill:rgb(124,65,30);fill-rule:nonzero;"/>
    </g>
    <g transform="matrix(0.869721,0,0,0.869721,242.566,221.19)">
        <path d="M171.5,242.008C171.5,247.723 171.052,253.534 168.382,258.149C165.628,262.91 160.929,266.522 156.168,269.276C151.553,271.946 146.14,272.857 140.425,272.857C134.71,272.857 130.042,270.66 125.426,267.99C120.665,265.235 114.267,263.463 111.512,258.701C108.842,254.086 110.878,247.722 110.878,242.007C110.878,236.292 111.122,231.247 113.792,226.632C116.547,221.871 120.607,218.68 125.369,215.925C129.984,213.255 134.71,209.46 140.425,209.46C146.14,209.46 151.786,211.665 156.401,214.335C161.162,217.089 163.535,222.315 166.29,227.076C168.961,231.693 171.5,236.293 171.5,242.008Z" style="fill:rgb(124,65,30);fill-rule:nonzero;"/>
    </g>
    <g transform="matrix(0.869721,0,0,0.869721,242.566,221.19)">
        <path d="M330.246,282.887C330.246,287.657 331.643,292.654 329.924,296.801C328.142,301.1 324.854,304.926 321.613,308.166C318.372,311.406 313.517,312.213 309.218,313.996C305.071,315.715 301.103,317.444 296.333,317.444C291.563,317.444 286.895,317.406 282.747,315.685C278.448,313.903 275.182,310.517 271.941,307.278C268.702,304.039 266.242,300.387 264.46,296.088C262.74,291.941 259.231,287.656 259.231,282.886C259.231,278.117 262.506,273.734 264.226,269.587C266.008,265.288 269.31,262.342 272.549,259.102C275.789,255.862 278.873,252.894 283.172,251.111C287.319,249.391 291.564,245.681 296.333,245.681C301.102,245.681 305.286,249.538 309.434,251.258C313.734,253.041 318.653,254.088 321.893,257.327C325.133,260.566 326.916,265.181 328.699,269.48C330.418,273.628 330.246,278.118 330.246,282.887Z" style="fill:rgb(124,65,30);fill-rule:nonzero;"/>
    </g>
    <g transform="matrix(0.869721,0,0,0.869721,242.566,221.19)">
        <path d="M211.856,420.73C211.856,425.886 207.921,430.439 206.063,434.922C204.135,439.569 202.877,444.803 199.374,448.306C195.872,451.809 190.944,453.804 186.296,455.731C181.813,457.59 176.954,460.155 171.798,460.155C166.642,460.155 162.445,455.996 157.962,454.136C153.315,452.209 147.403,452.131 143.9,448.628C140.397,445.125 140.379,439.189 138.452,434.541C136.593,430.058 134.524,425.886 134.524,420.729C134.524,415.574 133.476,410.109 135.336,405.625C137.263,400.978 140.046,395.982 143.549,392.479C147.051,388.976 153.131,388.806 157.778,386.878C162.261,385.019 166.642,383.47 171.798,383.47C176.954,383.47 181.878,383.71 186.361,385.569C191.009,387.496 196.365,389.156 199.868,392.658C203.37,396.161 205.978,401.125 207.906,405.772C209.765,410.258 211.856,415.575 211.856,420.73Z" style="fill:rgb(124,65,30);fill-rule:nonzero;"/>
    </g>
    <g transform="matrix(0.869721,0,0,0.869721,242.566,221.19)">
        <path d="M419.152,450.201C419.152,454.971 418.989,459.525 417.269,463.673C415.486,467.972 414.039,473.015 410.798,476.255C407.557,479.495 402.907,481.891 398.609,483.674C394.462,485.394 389.514,486.016 384.745,486.016C379.976,486.016 374.807,485.927 370.659,484.207C366.36,482.424 363.616,477.811 360.376,474.57C357.137,471.33 352.829,468.459 351.047,464.16C349.327,460.013 348.556,454.971 348.556,450.201C348.556,445.431 349.918,440.635 351.638,436.487C353.421,432.188 355.605,427.54 358.845,424.299C362.084,421.06 367.455,420.616 371.754,418.834C375.901,417.114 379.976,414.409 384.745,414.409C389.514,414.409 394.4,415.159 398.548,416.879C402.847,418.662 405.789,422.677 409.029,425.916C412.269,429.156 413.668,433.185 415.451,437.483C417.17,441.632 419.152,445.432 419.152,450.201Z" style="fill:rgb(124,65,30);fill-rule:nonzero;"/>
    </g>
    <g transform="matrix(0.869721,0,0,0.869721,242.566,221.19)">
        <path d="M524.157,293.343C524.157,297.726 523.484,302.243 521.904,306.054C520.265,310.004 516.462,312.634 513.485,315.611C510.507,318.589 506.794,319.775 502.842,321.413C499.031,322.994 495.6,326.934 491.217,326.934C486.834,326.934 483.183,323.524 479.372,321.944C475.421,320.305 471.124,319.391 468.147,316.413C465.169,313.436 462.783,309.751 461.144,305.801C459.564,301.989 460.223,297.727 460.223,293.344C460.223,288.962 459.316,284.596 460.897,280.785C462.535,276.834 463.994,272.075 466.97,269.097C469.947,266.12 475.427,266.397 479.377,264.759C483.188,263.178 486.833,261.366 491.216,261.366C495.599,261.366 500.099,261.12 503.909,262.7C507.858,264.338 511.097,267.508 514.073,270.486C517.05,273.463 519.654,276.935 521.293,280.886C522.875,284.697 524.157,288.961 524.157,293.343Z" style="fill:rgb(124,65,30);fill-rule:nonzero;"/>
    </g>
    <g transform="matrix(0.869721,0,0,0.869721,242.566,221.19)">
        <path d="M449.01,168.808C449.01,174.003 449.371,179.118 446.945,183.313C444.441,187.641 441.395,192.709 437.067,195.213C432.873,197.64 427.016,195.936 421.821,195.936C416.626,195.936 411.926,195.639 407.731,193.212C403.403,190.708 398.896,187.816 396.392,183.488C393.965,179.293 393.296,174.002 393.296,168.807C393.296,163.611 394.496,158.628 396.924,154.433C399.428,150.105 403.946,147.846 408.275,145.342C412.47,142.915 416.626,138.612 421.821,138.612C427.016,138.612 432.48,140.654 436.675,143.082C441.003,145.586 444.936,149.688 447.44,154.016C449.867,158.211 449.01,163.612 449.01,168.808Z" style="fill:rgb(124,65,30);fill-rule:nonzero;"/>
    </g>
    <g transform="matrix(0.869721,0,0,0.869721,242.566,221.19)">
        <path d="M584.286,298.145C584.286,303.038 585.015,307.942 584.774,312.774C584.531,317.659 585.503,322.686 585.019,327.503C584.53,332.366 582.454,337.081 581.726,341.87C580.993,346.7 577.92,351.073 576.95,355.821C575.973,360.604 575.714,365.479 574.502,370.173C573.281,374.9 573.321,379.97 571.871,384.599C570.412,389.253 569.857,394.275 568.171,398.825C566.477,403.398 561.562,406.68 559.646,411.14C557.721,415.619 558.071,421.123 555.929,425.482C553.78,429.855 552.385,434.71 550.024,438.955C547.656,443.212 544.589,447.157 542.015,451.278C539.435,455.409 533.748,457.464 530.968,461.45C528.184,465.444 526.113,469.856 523.134,473.699C520.152,477.546 519.033,482.919 515.863,486.607C512.692,490.298 507.43,492.099 504.079,495.624C500.726,499.15 498.457,503.724 494.932,507.076C491.407,510.428 487.154,512.962 483.462,516.133C479.774,519.303 477.259,523.939 473.411,526.921C469.568,529.9 463.718,530.127 459.724,532.912C455.737,535.692 452.992,540.288 448.862,542.867C444.74,545.441 439.825,546.646 435.567,549.014C431.322,551.375 428.321,556.165 423.948,558.315C419.59,560.457 413.832,559.599 409.353,561.524C404.893,563.44 401.221,567.315 396.649,569.009C392.099,570.695 386.667,569.757 382.011,571.216C377.383,572.667 373.001,574.769 368.276,575.988C363.582,577.2 358.711,577.386 353.926,578.365C349.179,579.335 344.487,580.167 339.657,580.9C334.868,581.628 330.224,583.068 325.362,583.557C320.545,584.041 315.742,584.238 310.858,584.481C306.025,584.722 301.225,586.555 296.333,586.555C291.441,586.555 286.566,586.225 281.733,585.984C276.849,585.741 271.896,586.28 267.079,585.796C262.216,585.307 257.638,582.685 252.849,581.957C248.019,581.224 242.78,582.793 238.033,581.822C233.249,580.844 228.592,579.107 223.897,577.895C219.171,576.674 215.129,573.151 210.501,571.7C205.846,570.241 200.178,571.74 195.627,570.054C191.054,568.36 186.952,565.343 182.492,563.426C178.013,561.502 174.498,557.556 170.139,555.414C165.766,553.265 160.979,552.022 156.734,549.661C152.477,547.293 147.694,545.804 143.573,543.229C139.443,540.649 135.806,537.292 131.82,534.512C127.826,531.727 122.814,530.256 118.972,527.278C115.125,524.296 111.169,521.299 107.481,518.13C103.79,514.958 101.194,510.489 97.669,507.138C94.143,503.785 89.59,501.378 86.237,497.853C82.885,494.328 81.51,488.971 78.339,485.28C75.17,481.592 70.496,479.104 67.514,475.258C64.535,471.415 61.377,467.605 58.592,463.612C55.812,459.625 55.1,454.237 52.52,450.106C49.946,445.985 45.117,443.148 42.749,438.89C40.388,434.645 38.954,429.819 36.805,425.445C34.663,421.088 34.452,415.829 32.528,411.35C30.611,406.89 28.662,402.479 26.968,397.907C25.282,393.357 21.303,389.551 19.844,384.895C18.393,380.267 17.491,375.386 16.271,370.662C15.059,365.968 17.195,360.502 16.217,355.719C15.246,350.971 13.77,346.383 13.036,341.553C12.308,336.764 10.949,332.085 10.46,327.223C9.976,322.406 10.517,317.542 10.273,312.659C10.032,307.825 9.111,303.04 9.111,298.147C9.111,293.254 10.07,288.471 10.311,283.638C10.555,278.754 8.283,273.719 8.767,268.902C9.256,264.039 12.821,259.608 13.548,254.819C14.282,249.989 11.19,244.493 12.16,239.745C13.138,234.962 14.736,230.242 15.948,225.547C17.168,220.821 18.213,215.968 19.664,211.339C21.123,206.684 23.265,202.187 24.951,197.637C26.645,193.064 28.032,188.292 29.948,183.832C31.873,179.353 36.602,176.155 38.744,171.797C40.893,167.424 43.142,163.176 45.504,158.931C47.872,154.674 48.579,149.45 51.153,145.329C53.733,141.199 56.749,137.317 59.529,133.33C62.314,129.336 65.32,125.48 68.299,121.638C71.281,117.791 75.021,114.567 78.19,110.879C81.362,107.188 83.432,102.479 86.784,98.954C90.137,95.428 93.263,91.576 96.789,88.223C100.314,84.871 104.94,82.665 108.631,79.494C112.319,76.325 115.911,73.004 119.758,70.022C123.6,67.043 128.196,65.089 132.19,62.304C136.177,59.524 140.717,57.675 144.848,55.096C148.969,52.522 151.834,47.837 156.091,45.469C160.336,43.108 164.903,41.263 169.276,39.114C173.634,36.972 178.599,36.148 183.078,34.223C187.538,32.306 191.61,29.426 196.183,27.731C200.733,26.045 205.79,25.867 210.445,24.408C215.073,22.957 219.315,20.169 224.041,18.949C228.735,17.737 233.297,15.682 238.081,14.705C242.828,13.734 247.892,14.228 252.721,13.494C257.51,12.766 262.374,12.557 267.237,12.068C272.054,11.584 276.874,11.036 281.758,10.792C286.591,10.551 291.442,9.875 296.334,9.875C301.226,9.875 306.185,8.387 311.018,8.628C315.902,8.872 320.698,10.738 325.515,11.222C330.378,11.711 335.478,10.657 340.267,11.385C345.097,12.119 349.591,14.95 354.338,15.921C359.122,16.899 363.416,19.743 368.11,20.956C372.836,22.176 378.093,21.369 382.721,22.82C387.376,24.279 391.634,26.86 396.184,28.546C400.757,30.24 405.835,30.67 410.294,32.586C414.773,34.511 419.18,36.678 423.538,38.819C427.911,40.968 431.823,44.025 436.068,46.386C440.325,48.754 444.828,50.718 448.949,53.292C453.08,55.872 456.878,58.974 460.864,61.754C464.858,64.539 468.703,67.518 472.546,70.497C476.393,73.479 478.93,77.98 482.618,81.15C486.308,84.321 491.027,86.272 494.552,89.624C498.078,92.977 502.379,95.579 505.732,99.104C509.084,102.629 511.775,106.791 514.946,110.482C518.116,114.17 520.697,118.332 523.678,122.178C526.657,126.021 528.824,130.407 531.61,134.401C534.389,138.388 539.904,140.597 542.484,144.727C545.058,148.849 544.231,154.991 546.599,159.248C548.96,163.493 552.252,167.193 554.401,171.566C556.544,175.924 557.979,180.566 559.904,185.045C561.82,189.505 565.887,193.117 567.582,197.69C569.268,202.24 570.29,207.08 571.749,211.735C573.2,216.363 572.523,221.592 573.743,226.318C574.955,231.012 576.911,235.498 577.889,240.282C578.86,245.03 580.633,249.648 581.367,254.478C582.095,259.267 581.714,264.209 582.203,269.072C582.686,273.889 583.045,278.707 583.288,283.592C583.528,288.422 584.286,293.252 584.286,298.145Z" style="fill:none;fill-rule:nonzero;stroke:rgb(99,48,15);stroke-width:14px;"/>
    </g>
</svg>
