<?xml version="1.0" encoding="UTF-8" standalone="no"?>
<!DOCTYPE svg PUBLIC "-//W3C//DTD SVG 1.1//EN" "http://www.w3.org/Graphics/SVG/1.1/DTD/svg11.dtd">
<svg width="100%" height="100%" viewBox="0 0 1024 1024" version="1.1" xmlns="http://www.w3.org/2000/svg" xmlns:xlink="http://www.w3.org/1999/xlink" xml:space="preserve" xmlns:serif="http://www.serif.com/" style="fill-rule:evenodd;clip-rule:evenodd;stroke-linejoin:round;stroke-miterlimit:2;">
    <g transform="matrix(2.54017,1.01318,-1.01318,2.54017,374.513,100.669)">
        <path d="M74.405,23.155C73.962,23.87 74.13,24.038 74.845,23.595C75.48,23.203 76,22.684 76,22.441C76,21.607 75.117,22.002 74.405,23.155M36.405,62.155C35.962,62.87 36.13,63.038 36.845,62.595C37.998,61.883 38.393,61 37.559,61C37.316,61 36.797,61.52 36.405,62.155M154,82C154,82.733 154.3,83.033 154.667,82.667C155.033,82.3 155.033,81.7 154.667,81.333C154.3,80.967 154,81.267 154,82M85,95C82.592,97.408 82.553,97.917 84.557,100.777C87.33,104.736 93,103.121 93,98.371C93,93.549 88.393,91.607 85,95" style="fill:rgb(120,177,84);"/>
    </g>
    <g transform="matrix(2.54017,1.01318,-1.01318,2.54017,374.513,100.669)">
        <path d="M38.566,80.328C36.477,81.856 36.168,86.293 37.997,88.497C39.958,90.859 44.706,90.378 46.504,87.635C49.99,82.315 43.73,76.552 38.566,80.328" style="fill:rgb(221,46,65);"/>
    </g>
    <g transform="matrix(2.54017,1.01318,-1.01318,2.54017,374.513,100.669)">
        <path d="M68.011,57.487C64.876,61.264 70.736,67.124 74.513,63.989C76.304,62.503 76.458,58.858 74.8,57.2C73.142,55.542 69.497,55.696 68.011,57.487M30,109.5C31.292,110.875 32.574,112 32.849,112C33.124,112 32.292,110.875 31,109.5C29.708,108.125 28.426,107 28.151,107C27.876,107 28.708,108.125 30,109.5M150,114C149.099,114.582 148.975,114.975 149.691,114.985C150.346,114.993 151.16,114.55 151.5,114C152.267,112.758 151.921,112.758 150,114M140.269,116.693C141.242,116.947 142.592,116.93 143.269,116.656C143.946,116.382 143.15,116.175 141.5,116.195C139.85,116.215 139.296,116.439 140.269,116.693M131.405,122.25L129.5,124.5L131.75,122.595C132.988,121.547 134,120.535 134,120.345C134,119.545 133.195,120.136 131.405,122.25M52.333,121.667C52.7,122.033 53.3,122.033 53.667,121.667C54.033,121.3 53.733,121 53,121C52.267,121 51.967,121.3 52.333,121.667M85.813,121.683C86.534,121.972 87.397,121.936 87.729,121.604C88.061,121.272 87.471,121.036 86.417,121.079C85.252,121.127 85.015,121.364 85.813,121.683M58.333,122.667C58.7,123.033 59.3,123.033 59.667,122.667C60.033,122.3 59.733,122 59,122C58.267,122 57.967,122.3 58.333,122.667M79.333,122.667C79.7,123.033 80.3,123.033 80.667,122.667C81.033,122.3 80.733,122 80,122C79.267,122 78.967,122.3 79.333,122.667M65.25,123.689C66.213,123.941 67.787,123.941 68.75,123.689C69.713,123.438 68.925,123.232 67,123.232C65.075,123.232 64.287,123.438 65.25,123.689" style="fill:rgb(247,146,16);"/>
    </g>
    <g transform="matrix(2.54017,1.01318,-1.01318,2.54017,374.513,100.669)">
        <path d="M111.655,62.829C108.274,66.564 110.775,73 115.606,73C120.971,73 124.097,66.24 120.429,62.571C118.307,60.45 113.685,60.585 111.655,62.829M30,150C30,150.733 30.3,151.033 30.667,150.667C31.033,150.3 31.033,149.7 30.667,149.333C30.3,148.967 30,149.267 30,150M125,156C125,156.733 125.3,157.033 125.667,156.667C126.033,156.3 126.033,155.7 125.667,155.333C125.3,154.967 125,155.267 125,156M124.195,164.5C124.215,166.15 124.439,166.704 124.693,165.731C124.947,164.758 124.93,163.408 124.656,162.731C124.382,162.054 124.175,162.85 124.195,164.5M123.195,175.5C123.215,177.15 123.439,177.704 123.693,176.731C123.947,175.758 123.93,174.408 123.656,173.731C123.382,173.054 123.175,173.85 123.195,175.5M122.079,185.583C122.127,186.748 122.364,186.985 122.683,186.188C122.972,185.466 122.936,184.603 122.604,184.271C122.272,183.939 122.036,184.529 122.079,185.583M41,194C41,194.733 41.3,195.033 41.667,194.667C42.033,194.3 42.033,193.7 41.667,193.333C41.3,192.967 41,193.267 41,194M121.079,196.583C121.127,197.748 121.364,197.985 121.683,197.188C121.972,196.466 121.936,195.603 121.604,195.271C121.272,194.939 121.036,195.529 121.079,196.583M42,198C42,198.733 42.3,199.033 42.667,198.667C43.033,198.3 43.033,197.7 42.667,197.333C42.3,196.967 42,197.267 42,198M120.158,206C120.158,207.375 120.385,207.938 120.662,207.25C120.94,206.563 120.94,205.438 120.662,204.75C120.385,204.063 120.158,204.625 120.158,206M67,211C67,211.733 67.3,212.033 67.667,211.667C68.033,211.3 68.033,210.7 67.667,210.333C67.3,209.967 67,210.267 67,211M119.158,216C119.158,217.375 119.385,217.938 119.662,217.25C119.94,216.563 119.94,215.438 119.662,214.75C119.385,214.063 119.158,214.625 119.158,216M53.333,215.667C53.7,216.033 54.3,216.033 54.667,215.667C55.033,215.3 54.733,215 54,215C53.267,215 52.967,215.3 53.333,215.667M121.813,217.683C122.534,217.972 123.397,217.936 123.729,217.604C124.061,217.272 123.471,217.036 122.417,217.079C121.252,217.127 121.015,217.364 121.813,217.683M70.813,218.683C71.534,218.972 72.397,218.936 72.729,218.604C73.061,218.272 72.471,218.036 71.417,218.079C70.252,218.127 70.015,218.364 70.813,218.683M80.333,219.667C80.7,220.033 81.3,220.033 81.667,219.667C82.033,219.3 81.733,219 81,219C80.267,219 79.967,219.3 80.333,219.667M102.75,219.662C103.438,219.94 104.563,219.94 105.25,219.662C105.938,219.385 105.375,219.158 104,219.158C102.625,219.158 102.063,219.385 102.75,219.662" style="fill:rgb(80,169,237);"/>
    </g>
    <g transform="matrix(2.54017,1.01318,-1.01318,2.54017,374.513,100.669)">
        <path d="M135.25,88.662C134.563,88.94 134,89.804 134,90.583C134,91.362 133.55,92 133,92C131.264,92 131.917,95.917 134,98C137.886,101.886 143.333,99.552 143.333,94C143.333,89.391 139.583,86.914 135.25,88.662" style="fill:rgb(169,140,216);"/>
    </g>
    <g transform="matrix(2.54017,1.01318,-1.01318,2.54017,374.513,100.669)">
        <path d="M68.872,27.75C67.629,29.336 67.664,29.371 69.25,28.128C70.916,26.821 71.445,26 70.622,26C70.415,26 69.627,26.788 68.872,27.75M47,83C47,83.733 47.3,84.033 47.667,83.667C48.033,83.3 48.033,82.7 47.667,82.333C47.3,81.967 47,82.267 47,83M36,86C36,86.733 36.3,87.033 36.667,86.667C37.033,86.3 37.033,85.7 36.667,85.333C36.3,84.967 36,85.267 36,86M157.632,105.511C156.734,106.408 156,107.702 156,108.384C156,112.376 144.955,117.754 139.166,116.582C136.924,116.128 136.081,116.651 133.863,119.875C126.703,130.285 111.623,131.884 94.721,124.025C91.379,122.471 88.162,121.367 87.572,121.571C70.603,127.462 38.342,120.15 29.021,108.3C25.534,103.867 19.106,110.844 18.224,120.017L17.746,124.998L23.319,127.463C31.528,131.093 47.369,134.985 56.5,135.616C60.9,135.92 65.175,136.441 66,136.774C69.956,138.372 89.899,139.484 91.809,138.213C93.315,137.211 94.31,137.184 96.3,138.091C98.244,138.977 101.93,138.978 111.678,138.096C135.506,135.942 148.103,133.492 162.25,128.263L169,125.768L169,121.344C169,113.225 161.025,102.118 157.632,105.511M59.333,137.667C59.7,138.033 60.3,138.033 60.667,137.667C61.033,137.3 60.733,137 60,137C59.267,137 58.967,137.3 59.333,137.667M126.333,137.667C126.7,138.033 127.3,138.033 127.667,137.667C128.033,137.3 127.733,137 127,137C126.267,137 125.967,137.3 126.333,137.667M63.333,228.667C63.7,229.033 64.3,229.033 64.667,228.667C65.033,228.3 64.733,228 64,228C63.267,228 62.967,228.3 63.333,228.667" style="fill:rgb(192,104,78);"/>
    </g>
    <g transform="matrix(2.54017,1.01318,-1.01318,2.54017,374.513,100.669)">
        <path d="M169.195,121.5C169.215,123.15 169.439,123.704 169.693,122.731C169.947,121.758 169.93,120.408 169.656,119.731C169.382,119.054 169.175,119.85 169.195,121.5M18,125.605C18,129.863 25.306,136.4 35.604,141.357L43.618,145.214L51.876,141.062L60.133,136.911L68.572,141.51L77.01,146.11L83.132,142.66L89.255,139.21L78.377,138.488C72.395,138.09 67.05,137.429 66.5,137.019C65.95,136.608 61.675,136.004 57,135.676C47.492,135.009 31.706,131.171 23.447,127.519C20.451,126.194 18,125.333 18,125.605M158,129.533C145.274,133.944 126.438,137.333 107.641,138.593L97.781,139.254L104.076,142.617L110.371,145.981L118.691,141.482L127.012,136.983L135.214,141.108L143.417,145.232L150.725,141.616C154.745,139.627 158.491,138 159.05,138C160.519,138 165.705,132.471 167.509,128.983C169.339,125.443 169.89,125.411 158,129.533" style="fill:rgb(150,72,50);"/>
    </g>
    <g transform="matrix(2.54017,1.01318,-1.01318,2.54017,374.513,100.669)">
        <path d="M51.775,142.102C44.544,145.75 44.083,146.175 44.565,148.75C44.848,150.262 47.472,165.797 50.395,183.272C56.421,219.288 55.337,216.109 61.664,216.331L66.5,216.5L66.245,209C66.104,204.875 64.846,189.597 63.448,175.048C62.05,160.5 61.132,146.1 61.408,143.048C61.747,139.296 61.653,138.471 61.119,140.5L60.329,143.5L59.915,140.852L59.5,138.205L51.775,142.102M85.58,142.026C76.483,147.063 76.976,144.125 79.11,180.5C81.539,221.895 80.857,218.591 87.138,219.424C89.941,219.796 92.411,219.922 92.628,219.705C92.845,219.488 92.905,201.06 92.761,178.753L92.5,138.195L85.58,142.026M118.565,142.235C114.751,144.326 111.418,146.249 111.157,146.509C110.681,146.985 107.139,205.387 107.048,214.25C106.995,219.456 107.671,219.816 114.811,218.388C118.57,217.636 127.409,155.288 125.787,140.967L125.5,138.435L118.565,142.235M152.5,141.616C148.65,143.568 145.188,145.465 144.807,145.832C143.7,146.9 133.146,210.843 133.717,213.025C135.403,219.472 141.239,212.56 143.938,200.918C146.493,189.899 157.505,145.987 158.902,141.25C159.429,139.463 159.779,138.015 159.68,138.034C159.581,138.053 156.35,139.665 152.5,141.616M142.079,146.583C142.127,147.748 142.364,147.985 142.683,147.188C142.972,146.466 142.936,145.603 142.604,145.271C142.272,144.939 142.036,145.529 142.079,146.583M42,147C42,147.733 42.3,148.033 42.667,147.667C43.033,147.3 43.033,146.7 42.667,146.333C42.3,145.967 42,146.267 42,147" style="fill:rgb(188,220,245);"/>
    </g>
    <g transform="matrix(2.54017,1.01318,-1.01318,2.54017,374.513,100.669)">
        <path d="M118.333,32.667C118.7,33.033 119.3,33.033 119.667,32.667C120.033,32.3 119.733,32 119,32C118.267,32 117.967,32.3 118.333,32.667M114.75,60.662C115.438,60.94 116.563,60.94 117.25,60.662C117.938,60.385 117.375,60.158 116,60.158C114.625,60.158 114.063,60.385 114.75,60.662M110.872,62.75C109.629,64.336 109.664,64.371 111.25,63.128C112.916,61.821 113.445,61 112.622,61C112.415,61 111.627,61.788 110.872,62.75M109,67C109,67.733 109.3,68.033 109.667,67.667C110.033,67.3 110.033,66.7 109.667,66.333C109.3,65.967 109,66.267 109,67M122,67C122,67.733 122.3,68.033 122.667,67.667C123.033,67.3 123.033,66.7 122.667,66.333C122.3,65.967 122,66.267 122,67M120.405,71.155C119.962,71.87 120.13,72.038 120.845,71.595C121.48,71.203 122,70.684 122,70.441C122,69.607 121.117,70.002 120.405,71.155M60.195,140.5C60.215,142.15 60.439,142.704 60.693,141.731C60.947,140.758 60.93,139.408 60.656,138.731C60.382,138.054 60.175,138.85 60.195,140.5M62.333,139.667C62.7,140.033 63.3,140.033 63.667,139.667C64.033,139.3 63.733,139 63,139C62.267,139 61.967,139.3 62.333,139.667M93.456,180C93.456,202.275 93.588,211.388 93.749,200.25C93.91,189.113 93.91,170.888 93.749,159.75C93.588,148.613 93.456,157.725 93.456,180M126.272,144C126.272,146.475 126.467,147.488 126.706,146.25C126.944,145.012 126.944,142.988 126.706,141.75C126.467,140.512 126.272,141.525 126.272,144M29,145C29,145.733 29.3,146.033 29.667,145.667C30.033,145.3 30.033,144.7 29.667,144.333C29.3,143.967 29,144.267 29,145M61.3,149C61.3,152.025 61.487,153.262 61.716,151.75C61.945,150.238 61.945,147.762 61.716,146.25C61.487,144.738 61.3,145.975 61.3,149M42.702,146.667C42.984,147.4 43.343,148 43.5,148C43.657,148 44.016,147.4 44.298,146.667C44.579,145.933 44.22,145.333 43.5,145.333C42.78,145.333 42.421,145.933 42.702,146.667M110,149C110,149.733 110.3,150.033 110.667,149.667C111.033,149.3 111.033,148.7 110.667,148.333C110.3,147.967 110,148.267 110,149M44.079,150.583C44.127,151.748 44.364,151.985 44.683,151.188C44.972,150.466 44.936,149.603 44.604,149.271C44.272,148.939 44.036,149.529 44.079,150.583M125.158,151C125.158,152.375 125.385,152.938 125.662,152.25C125.94,151.563 125.94,150.438 125.662,149.75C125.385,149.063 125.158,149.625 125.158,151M142.195,152.5C142.215,154.15 142.439,154.704 142.693,153.731C142.947,152.758 142.93,151.408 142.656,150.731C142.382,150.054 142.175,150.85 142.195,152.5M77.343,159.5C77.346,163.9 77.522,165.576 77.733,163.224C77.945,160.872 77.942,157.272 77.727,155.224C77.512,153.176 77.339,155.1 77.343,159.5M45.195,157.5C45.215,159.15 45.439,159.704 45.693,158.731C45.947,157.758 45.93,156.408 45.656,155.731C45.382,155.054 45.175,155.85 45.195,157.5M62.272,160C62.272,162.475 62.467,163.488 62.706,162.25C62.944,161.012 62.944,158.988 62.706,157.75C62.467,156.512 62.272,157.525 62.272,160M109.32,162C109.32,165.575 109.502,167.037 109.723,165.25C109.945,163.463 109.945,160.537 109.723,158.75C109.502,156.963 109.32,158.425 109.32,162M141.195,158.5C141.215,160.15 141.439,160.704 141.693,159.731C141.947,158.758 141.93,157.408 141.656,156.731C141.382,156.054 141.175,156.85 141.195,158.5M125,158C125,158.733 125.3,159.033 125.667,158.667C126.033,158.3 126.033,157.7 125.667,157.333C125.3,156.967 125,157.267 125,158M124,161C124,161.733 124.3,162.033 124.667,161.667C125.033,161.3 125.033,160.7 124.667,160.333C124.3,159.967 124,160.267 124,161M46.195,163.5C46.215,165.15 46.439,165.704 46.693,164.731C46.947,163.758 46.93,162.408 46.656,161.731C46.382,161.054 46.175,161.85 46.195,163.5M140.195,164.5C140.215,166.15 140.439,166.704 140.693,165.731C140.947,164.758 140.93,163.408 140.656,162.731C140.382,162.054 140.175,162.85 140.195,164.5M47.195,169.5C47.215,171.15 47.439,171.704 47.693,170.731C47.947,169.758 47.93,168.408 47.656,167.731C47.382,167.054 47.175,167.85 47.195,169.5M63.272,171C63.272,173.475 63.467,174.488 63.706,173.25C63.944,172.012 63.944,169.988 63.706,168.75C63.467,167.512 63.272,168.525 63.272,171M124,168C124,168.733 124.3,169.033 124.667,168.667C125.033,168.3 125.033,167.7 124.667,167.333C124.3,166.967 124,167.267 124,168M139.195,170.5C139.215,172.15 139.439,172.704 139.693,171.731C139.947,170.758 139.93,169.408 139.656,168.731C139.382,168.054 139.175,168.85 139.195,170.5M78.343,176.5C78.346,180.9 78.522,182.576 78.733,180.224C78.945,177.872 78.942,174.272 78.727,172.224C78.512,170.176 78.339,172.1 78.343,176.5M123,172C123,172.733 123.3,173.033 123.667,172.667C124.033,172.3 124.033,171.7 123.667,171.333C123.3,170.967 123,171.267 123,172M48.195,175.5C48.215,177.15 48.439,177.704 48.693,176.731C48.947,175.758 48.93,174.408 48.656,173.731C48.382,173.054 48.175,173.85 48.195,175.5M108.31,179.5C108.315,182.8 108.502,184.029 108.725,182.232C108.947,180.435 108.943,177.735 108.715,176.232C108.486,174.729 108.304,176.2 108.31,179.5M138.195,176.5C138.215,178.15 138.439,178.704 138.693,177.731C138.947,176.758 138.93,175.408 138.656,174.731C138.382,174.054 138.175,174.85 138.195,176.5M64,178C64,178.733 64.3,179.033 64.667,178.667C65.033,178.3 65.033,177.7 64.667,177.333C64.3,176.967 64,177.267 64,178M49.195,181.5C49.215,183.15 49.439,183.704 49.693,182.731C49.947,181.758 49.93,180.408 49.656,179.731C49.382,179.054 49.175,179.85 49.195,181.5M64.195,182.5C64.215,184.15 64.439,184.704 64.693,183.731C64.947,182.758 64.93,181.408 64.656,180.731C64.382,180.054 64.175,180.85 64.195,182.5M122.158,182C122.158,183.375 122.385,183.938 122.662,183.25C122.94,182.563 122.94,181.438 122.662,180.75C122.385,180.063 122.158,180.625 122.158,182M137.195,182.5C137.215,184.15 137.439,184.704 137.693,183.731C137.947,182.758 137.93,181.408 137.656,180.731C137.382,180.054 137.175,180.85 137.195,182.5M50.195,187.5C50.215,189.15 50.439,189.704 50.693,188.731C50.947,187.758 50.93,186.408 50.656,185.731C50.382,185.054 50.175,185.85 50.195,187.5M65.286,191.5C65.294,194.25 65.488,195.256 65.718,193.736C65.947,192.216 65.941,189.966 65.704,188.736C65.467,187.506 65.279,188.75 65.286,191.5M122.079,188.583C122.127,189.748 122.364,189.985 122.683,189.188C122.972,188.466 122.936,187.603 122.604,187.271C122.272,186.939 122.036,187.529 122.079,188.583M79.32,194C79.32,197.575 79.502,199.037 79.723,197.25C79.945,195.463 79.945,192.537 79.723,190.75C79.502,188.963 79.32,190.425 79.32,194M136.079,189.583C136.127,190.748 136.364,190.985 136.683,190.188C136.972,189.466 136.936,188.603 136.604,188.271C136.272,187.939 136.036,188.529 136.079,189.583M107.336,197C107.336,201.125 107.513,202.813 107.728,200.75C107.944,198.688 107.944,195.313 107.728,193.25C107.513,191.188 107.336,192.875 107.336,197M51.195,193.5C51.215,195.15 51.439,195.704 51.693,194.731C51.947,193.758 51.93,192.408 51.656,191.731C51.382,191.054 51.175,191.85 51.195,193.5M121,192C121,192.733 121.3,193.033 121.667,192.667C122.033,192.3 122.033,191.7 121.667,191.333C121.3,190.967 121,191.267 121,192M135.195,194.5C135.215,196.15 135.439,196.704 135.693,195.731C135.947,194.758 135.93,193.408 135.656,192.731C135.382,192.054 135.175,192.85 135.195,194.5M52.195,199.5C52.215,201.15 52.439,201.704 52.693,200.731C52.947,199.758 52.93,198.408 52.656,197.731C52.382,197.054 52.175,197.85 52.195,199.5M66.094,202.5C66.059,205.25 66.411,208.101 66.877,208.835C67.372,209.616 67.54,207.956 67.282,204.835C66.677,197.507 66.17,196.512 66.094,202.5M121,199C121,199.733 121.3,200.033 121.667,199.667C122.033,199.3 122.033,198.7 121.667,198.333C121.3,197.967 121,198.267 121,199M134.195,200.5C134.215,202.15 134.439,202.704 134.693,201.731C134.947,200.758 134.93,199.408 134.656,198.731C134.382,198.054 134.175,198.85 134.195,200.5M120,203C120,203.733 120.3,204.033 120.667,203.667C121.033,203.3 121.033,202.7 120.667,202.333C120.3,201.967 120,202.267 120,203M53.195,205.5C53.215,207.15 53.439,207.704 53.693,206.731C53.947,205.758 53.93,204.408 53.656,203.731C53.382,203.054 53.175,203.85 53.195,205.5M80.32,210C80.32,213.575 80.502,215.037 80.723,213.25C80.945,211.463 80.945,208.537 80.723,206.75C80.502,204.963 80.32,206.425 80.32,210M133.195,206.5C133.215,208.15 133.439,208.704 133.693,207.731C133.947,206.758 133.93,205.408 133.656,204.731C133.382,204.054 133.175,204.85 133.195,206.5M106.328,212.5C106.333,216.35 106.513,217.802 106.73,215.728C106.946,213.653 106.943,210.503 106.722,208.728C106.501,206.952 106.324,208.65 106.328,212.5M120,209C120,209.733 120.3,210.033 120.667,209.667C121.033,209.3 121.033,208.7 120.667,208.333C120.3,207.967 120,208.267 120,209M54.158,211C54.158,212.375 54.385,212.938 54.662,212.25C54.94,211.563 54.94,210.438 54.662,209.75C54.385,209.063 54.158,209.625 54.158,211M67.158,214C67.158,215.375 67.385,215.938 67.662,215.25C67.94,214.563 67.94,213.438 67.662,212.75C67.385,212.063 67.158,212.625 67.158,214M119,213C119,213.733 119.3,214.033 119.667,213.667C120.033,213.3 120.033,212.7 119.667,212.333C119.3,211.967 119,212.267 119,213M132.158,214C132.158,215.375 132.385,215.938 132.662,215.25C132.94,214.563 132.94,213.438 132.662,212.75C132.385,212.063 132.158,212.625 132.158,214M126.333,216.667C126.7,217.033 127.3,217.033 127.667,216.667C128.033,216.3 127.733,216 127,216C126.267,216 125.967,216.3 126.333,216.667M84.75,219.662C85.438,219.94 86.563,219.94 87.25,219.662C87.938,219.385 87.375,219.158 86,219.158C84.625,219.158 84.063,219.385 84.75,219.662M97.25,219.689C98.213,219.941 99.787,219.941 100.75,219.689C101.713,219.438 100.925,219.232 99,219.232C97.075,219.232 96.287,219.438 97.25,219.689" style="fill:rgb(134,186,224);"/>
    </g>
    <g transform="matrix(2.54017,1.01318,-1.01318,2.54017,374.513,100.669)">
        <path d="M28.116,140.75C28.703,142.262 32.288,156.1 36.084,171.5C47.485,217.75 45.903,213.627 52.661,214.715C56.154,215.277 56.377,215.183 55.132,213.672C54.38,212.758 54,211.108 54.288,210.005C54.577,208.902 54.354,208 53.793,208C53.229,208 52.97,206.66 53.213,205C53.455,203.35 53.23,202 52.713,202C52.196,202 51.971,200.65 52.213,199C52.455,197.35 52.23,196 51.713,196C51.196,196 50.971,194.65 51.213,193C51.455,191.35 51.23,190 50.713,190C50.196,190 49.971,188.65 50.213,187C50.455,185.35 50.23,184 49.713,184C49.196,184 48.971,182.65 49.213,181C49.455,179.35 49.23,178 48.713,178C48.196,178 47.971,176.65 48.213,175C48.455,173.35 48.23,172 47.713,172C47.196,172 46.971,170.65 47.213,169C47.455,167.35 47.23,166 46.713,166C46.196,166 45.97,164.661 46.21,163.024C46.45,161.388 46.271,159.924 45.811,159.77C45.352,159.617 44.869,156.91 44.738,153.754C44.581,149.964 44.076,148.014 43.25,148.008C42.563,148.004 42,147.407 42,146.682C42,145.641 29.218,138 27.476,138C27.241,138 27.529,139.238 28.116,140.75M94,178.762L94,219.665L99.75,219.208C102.912,218.957 105.56,218.695 105.633,218.626C105.873,218.398 107.849,187.748 108.381,176C108.667,169.675 109.194,160.448 109.551,155.496L110.201,146.492L102.1,142.176L94,137.86L94,178.762M126.232,148.255C126.084,153.89 125.623,158.616 125.206,158.759C124.79,158.901 124.62,160.815 124.83,163.013C125.039,165.21 124.867,167.794 124.447,168.754C124.026,169.714 123.783,170.925 123.906,171.444C124.25,172.898 121.931,198.302 121.3,200C120.993,200.825 120.831,203.367 120.94,205.648C121.049,207.93 120.745,210.04 120.263,210.337C119.781,210.635 119.563,212.385 119.778,214.227L120.169,217.576L126.007,216.61L131.845,215.645L132.521,209.822C132.892,206.62 133.524,204 133.925,204C134.326,204 134.455,202.65 134.213,201C133.938,199.122 134.212,198 134.946,198C135.59,198 135.843,197.554 135.506,197.01C134.762,195.805 137.079,180 138,180C138.359,180 138.455,178.65 138.213,177C137.971,175.35 138.196,174 138.713,174C139.23,174 139.455,172.65 139.213,171C138.971,169.35 139.196,168 139.713,168C140.23,168 140.455,166.65 140.213,165C139.971,163.35 140.196,162 140.713,162C141.23,162 141.455,160.65 141.213,159C140.971,157.35 141.196,156 141.713,156C142.23,156 142.455,154.65 142.213,153C141.962,151.285 142.225,150 142.827,150C143.488,150 143.374,149.023 142.521,147.379C141.416,145.247 129.389,137.985 127,138.006C126.725,138.009 126.379,142.621 126.232,148.255M62.536,153.25C62.946,160.537 63.388,168.591 63.518,171.146C63.647,173.701 64.067,176.3 64.451,176.921C64.835,177.542 65.056,179.727 64.941,181.775C64.826,183.824 64.976,186.175 65.274,187C66.834,191.319 68.153,215.287 66.875,216.078C64.756,217.387 66.076,217.833 74.271,218.575C81.049,219.19 82,219.074 82,217.638C82,216.737 81.526,216 80.947,216C80.318,216 79.88,213.287 79.859,209.25C79.817,201.02 79.211,189.699 77.893,172.5C77.346,165.35 77.046,156.496 77.227,152.824C77.409,149.152 77.319,146.204 77.029,146.272C76.738,146.341 73.7,144.958 70.279,143.199C61.304,138.584 61.682,138.093 62.536,153.25M133.079,213.583C133.127,214.748 133.364,214.985 133.683,214.188C133.972,213.466 133.936,212.603 133.604,212.271C133.272,211.939 133.036,212.529 133.079,213.583M118,217C118,217.733 118.3,218.033 118.667,217.667C119.033,217.3 119.033,216.7 118.667,216.333C118.3,215.967 118,216.267 118,217" style="fill:rgb(138,201,246);"/>
    </g>
    <g transform="matrix(2.19509,0.87554,-0.954674,2.39348,399.562,119.972)">
        <path d="M96.831,3.014C73.79,6.948 46.045,29.401 45.995,44.153C45.993,44.894 42.28,47.399 37.745,49.719C18.556,59.538 4.195,84.692 7.904,101.987C8.954,106.884 8.844,107.619 6.278,112.864C1.032,123.586 2.913,136.789 11.172,147.217C14.827,151.832 16.034,155.842 25.4,194.51C34.178,230.749 34.42,231.101 53.244,234.963C70.258,238.455 87.938,240.21 98.286,239.434C101.704,239.178 107.2,238.779 110.5,238.547C121.372,237.784 138.522,234.609 143.986,232.348C152.494,228.826 154.516,224.855 160.468,199.978C169.03,164.188 172.915,150.702 175.44,148.006C183.25,139.662 186.178,122.702 181.375,113.62C179.495,110.065 179.44,109.401 180.719,105.689C183.109,98.752 180.817,90.749 174.507,84C171.452,80.732 171.202,79.926 170.734,71.844C169.625,52.68 156.954,38.846 136.896,34.9L130.902,33.721L131.595,30.61C134.375,18.122 124.919,6.014 110.5,3.601C102.592,2.278 101.434,2.228 96.831,3.014M86.898,10.34C69.417,16.992 56.066,29.979 52.083,44.204C50.934,48.306 50.487,48.688 42.19,52.663C31.81,57.635 25.948,63.011 21.986,71.189C20.382,74.502 18.601,77.776 18.029,78.465C13.783,83.581 12.29,94.257 14.804,101.528C16.522,106.497 16.516,106.595 14.28,109.913C7.455,120.04 8.275,131.397 16.559,141.506C20.298,146.069 22.824,154.518 32.029,193.232C39.04,222.722 39.175,222.961 50.565,225.976C75.167,232.489 110.494,232.671 135.408,226.413C147.509,223.373 148.254,222.184 154.528,195.899C164.223,155.286 167.027,145.838 170.649,141.579C178.175,132.732 179.582,122.703 174.687,112.812C172.436,108.262 172.285,107.341 173.425,105.074C176.876,98.211 174.565,89.93 167.661,84.421C164.126,81.6 164.116,81.568 164.698,75.334C166.499,56.045 155.268,43.578 131,37.928C118.981,35.129 116.885,34.178 119.59,32.75C141.801,21.022 112.181,0.718 86.898,10.34"/>
    </g>
    <g transform="matrix(2.54017,1.01318,-1.01318,2.54017,374.513,100.669)">
        <path d="M96.78,13.046C88.289,14.448 67.017,26.506 70.805,27.768C71.468,27.989 74.595,30.732 77.755,33.863C84.801,40.845 92.275,44.779 115,53.468C140.361,63.165 149.218,68.903 153.06,78.124L154.466,81.5L155.115,78.5C159.394,58.709 151.754,48.337 129,43.046C106.799,37.883 95.269,22 113.723,22C118.418,22 118.758,21.527 116.439,18.217C113.262,13.68 105.423,11.618 96.78,13.046M125.079,26.583C125.127,27.748 125.364,27.985 125.683,27.188C125.972,26.466 125.936,25.603 125.604,25.271C125.272,24.939 125.036,25.529 125.079,26.583M61.123,40.935C55.513,53.977 60.309,69.158 71.84,74.861C81.305,79.542 128.678,91.087 129.998,89.035C131.262,87.07 140.496,88.09 143.25,90.499C145.832,92.757 147.185,95.85 145,94.5C144.45,94.16 144,94.302 144,94.816C144,95.33 145.294,96.009 146.876,96.325C148.458,96.642 151.446,98.498 153.516,100.45C161.046,107.552 171.381,98.839 165.019,90.751C159.985,84.352 133.012,75.147 121.25,75.814C119.463,75.916 118,75.549 118,74.999C118,74.45 117.404,74 116.675,74C108.876,74 77.722,52.832 70,42.285C64.514,34.794 63.811,34.687 61.123,40.935M140.333,40.667C140.7,41.033 141.3,41.033 141.667,40.667C142.033,40.3 141.733,40 141,40C140.267,40 139.967,40.3 140.333,40.667M53.699,53.536C42.636,57.596 32.994,64.333 30.51,69.74C29.559,71.808 28.15,74.819 27.377,76.432C26.604,78.045 26.367,79.62 26.851,79.932C27.335,80.244 28.032,81.467 28.4,82.649C31.506,92.607 48.706,104.503 72,112.804C76.675,114.47 83.973,117.829 88.218,120.269C107.859,131.56 123.496,131.417 133.393,119.854C141.784,110.051 136.845,107.008 106.106,103.043C98.496,102.062 92.081,101.666 91.55,102.144C90.012,103.53 84.985,103.123 84.387,101.565C84.084,100.776 81.511,99.641 78.668,99.042C58.379,94.77 49.66,87.396 49.648,74.5C49.642,67.872 54.126,56 56.637,56C57.386,56 58,55.1 58,54C58,52.9 57.888,52.032 57.75,52.07C57.612,52.109 55.79,52.769 53.699,53.536M68,57C65.592,59.408 65.553,59.917 67.557,62.777C70.157,66.49 77,64.788 77,60.429C77,58.548 73.405,55 71.5,55C70.675,55 69.1,55.9 68,57M39.228,79.24C34.609,81.446 35.474,89.328 40.473,90.583C44.119,91.498 48,88.706 48,85.168C48,80.037 43.677,77.115 39.228,79.24M42.333,223.667C42.7,224.033 43.3,224.033 43.667,223.667C44.033,223.3 43.733,223 43,223C42.267,223 41.967,223.3 42.333,223.667" style="fill:rgb(255,231,181);"/>
    </g>
    <g transform="matrix(2.54017,1.01318,-1.01318,2.54017,374.513,100.669)">
        <path d="M67.323,30.25C64.132,33.794 63.839,34.783 65.408,36.703C66.216,37.691 68.712,40.859 70.955,43.742C77.077,51.61 87.214,59.427 99.339,65.629L110.199,71.184L109.561,68.276C108.055,61.421 116.626,57.167 120.927,62.635C123.643,66.087 123.545,68.546 120.572,71.518L118.145,73.946L121.822,74.969C131.361,77.621 153.135,82.199 153.669,81.664C159.013,76.32 141.644,63.656 115,53.468C92.192,44.748 84.809,40.853 77.67,33.778C71.175,27.341 70.231,27.019 67.323,30.25M58.118,53.75C58.053,54.987 57.386,56 56.637,56C47.541,56 47.959,82.529 57.179,90.421C62.437,94.922 85.703,102.565 83.552,99.084C82.692,97.692 84.531,94.394 86.613,93.595C89.598,92.45 91.924,94.006 92.957,97.838L93.958,101.556L107.879,103.309C129.99,106.092 137,108.551 137,113.523C137,119.532 152.33,115.234 155.856,108.237L157.739,104.5L155.12,101.891C148.962,95.758 145.321,94.679 142,98C137.996,102.004 131.234,98.58 132.329,93.103L132.867,90.414L114.184,86.59C69.514,77.447 62.047,73.306 59.022,56C58.589,53.525 58.182,52.513 58.118,53.75M70.813,55.683C71.534,55.972 72.397,55.936 72.729,55.604C73.061,55.272 72.471,55.036 71.417,55.079C70.252,55.127 70.015,55.364 70.813,55.683M67.405,57.155C66.962,57.87 67.13,58.038 67.845,57.595C68.48,57.203 69,56.684 69,56.441C69,55.607 68.117,56.002 67.405,57.155M74.5,57C74.84,57.55 75.343,58 75.618,58C75.893,58 75.84,57.55 75.5,57C75.16,56.45 74.657,56 74.382,56C74.107,56 74.16,56.45 74.5,57M66,60C66,60.733 66.3,61.033 66.667,60.667C67.033,60.3 67.033,59.7 66.667,59.333C66.3,58.967 66,59.267 66,60M76.079,60.583C76.127,61.748 76.364,61.985 76.683,61.188C76.972,60.466 76.936,59.603 76.604,59.271C76.272,58.939 76.036,59.529 76.079,60.583M41.333,78.667C41.7,79.033 42.3,79.033 42.667,78.667C43.033,78.3 42.733,78 42,78C41.267,78 40.967,78.3 41.333,78.667M23.423,83.562C15.481,104.359 40.661,124.236 73,122.697C91.492,121.816 91.265,119.566 72,112.772C48.648,104.538 30.825,92.121 28.381,82.383C27.36,78.312 25.235,78.817 23.423,83.562M45.5,80C45.84,80.55 46.343,81 46.618,81C46.893,81 46.84,80.55 46.5,80C46.16,79.45 45.657,79 45.382,79C45.107,79 45.16,79.45 45.5,80M40.75,90.662C41.438,90.94 42.563,90.94 43.25,90.662C43.938,90.385 43.375,90.158 42,90.158C40.625,90.158 40.063,90.385 40.75,90.662" style="fill:rgb(255,204,77);"/>
    </g>
    <g transform="matrix(2.54017,1.01318,-1.01318,2.54017,374.513,100.669)">
        <path d="M96.78,13.046C88.289,14.448 67.017,26.506 70.805,27.768C71.468,27.989 74.595,30.732 77.755,33.863C84.801,40.845 92.275,44.779 115,53.468C140.361,63.165 149.218,68.903 153.06,78.124L154.466,81.5L155.115,78.5C159.394,58.709 151.754,48.337 129,43.046C106.799,37.883 95.269,22 113.723,22C118.418,22 118.758,21.527 116.439,18.217C113.262,13.68 105.423,11.618 96.78,13.046M125.079,26.583C125.127,27.748 125.364,27.985 125.683,27.188C125.972,26.466 125.936,25.603 125.604,25.271C125.272,24.939 125.036,25.529 125.079,26.583M61.123,40.935C55.513,53.977 60.309,69.158 71.84,74.861C81.305,79.542 128.678,91.087 129.998,89.035C131.262,87.07 140.496,88.09 143.25,90.499C145.832,92.757 147.185,95.85 145,94.5C144.45,94.16 144,94.302 144,94.816C144,95.33 145.294,96.009 146.876,96.325C148.458,96.642 151.446,98.498 153.516,100.45C161.046,107.552 171.381,98.839 165.019,90.751C159.985,84.352 133.012,75.147 121.25,75.814C119.463,75.916 118,75.549 118,74.999C118,74.45 117.404,74 116.675,74C108.876,74 77.722,52.832 70,42.285C64.514,34.794 63.811,34.687 61.123,40.935M140.333,40.667C140.7,41.033 141.3,41.033 141.667,40.667C142.033,40.3 141.733,40 141,40C140.267,40 139.967,40.3 140.333,40.667M53.699,53.536C42.636,57.596 32.994,64.333 30.51,69.74C29.559,71.808 28.15,74.819 27.377,76.432C26.604,78.045 26.367,79.62 26.851,79.932C27.335,80.244 28.032,81.467 28.4,82.649C31.506,92.607 48.706,104.503 72,112.804C76.675,114.47 83.973,117.829 88.218,120.269C107.859,131.56 123.496,131.417 133.393,119.854C141.784,110.051 136.845,107.008 106.106,103.043C98.496,102.062 92.081,101.666 91.55,102.144C90.012,103.53 84.985,103.123 84.387,101.565C84.084,100.776 81.511,99.641 78.668,99.042C58.379,94.77 49.66,87.396 49.648,74.5C49.642,67.872 54.126,56 56.637,56C57.386,56 58,55.1 58,54C58,52.9 57.888,52.032 57.75,52.07C57.612,52.109 55.79,52.769 53.699,53.536M68,57C65.592,59.408 65.553,59.917 67.557,62.777C70.157,66.49 77,64.788 77,60.429C77,58.548 73.405,55 71.5,55C70.675,55 69.1,55.9 68,57M39.228,79.24C34.609,81.446 35.474,89.328 40.473,90.583C44.119,91.498 48,88.706 48,85.168C48,80.037 43.677,77.115 39.228,79.24M42.333,223.667C42.7,224.033 43.3,224.033 43.667,223.667C44.033,223.3 43.733,223 43,223C42.267,223 41.967,223.3 42.333,223.667" style="fill:rgb(255,231,181);"/>
    </g>
    <g transform="matrix(2.54017,1.01318,-1.01318,2.54017,374.513,100.669)">
        <path d="M67.323,30.25C64.132,33.794 63.839,34.783 65.408,36.703C66.216,37.691 68.712,40.859 70.955,43.742C77.077,51.61 87.214,59.427 99.339,65.629L110.199,71.184L109.561,68.276C108.055,61.421 116.626,57.167 120.927,62.635C123.643,66.087 123.545,68.546 120.572,71.518L118.145,73.946L121.822,74.969C131.361,77.621 153.135,82.199 153.669,81.664C159.013,76.32 141.644,63.656 115,53.468C92.192,44.748 84.809,40.853 77.67,33.778C71.175,27.341 70.231,27.019 67.323,30.25M58.118,53.75C58.053,54.987 57.386,56 56.637,56C47.541,56 47.959,82.529 57.179,90.421C62.437,94.922 85.703,102.565 83.552,99.084C82.692,97.692 84.531,94.394 86.613,93.595C89.598,92.45 91.924,94.006 92.957,97.838L93.958,101.556L107.879,103.309C129.99,106.092 137,108.551 137,113.523C137,119.532 152.33,115.234 155.856,108.237L157.739,104.5L155.12,101.891C148.962,95.758 145.321,94.679 142,98C137.996,102.004 131.234,98.58 132.329,93.103L132.867,90.414L114.184,86.59C69.514,77.447 62.047,73.306 59.022,56C58.589,53.525 58.182,52.513 58.118,53.75M70.813,55.683C71.534,55.972 72.397,55.936 72.729,55.604C73.061,55.272 72.471,55.036 71.417,55.079C70.252,55.127 70.015,55.364 70.813,55.683M67.405,57.155C66.962,57.87 67.13,58.038 67.845,57.595C68.48,57.203 69,56.684 69,56.441C69,55.607 68.117,56.002 67.405,57.155M74.5,57C74.84,57.55 75.343,58 75.618,58C75.893,58 75.84,57.55 75.5,57C75.16,56.45 74.657,56 74.382,56C74.107,56 74.16,56.45 74.5,57M66,60C66,60.733 66.3,61.033 66.667,60.667C67.033,60.3 67.033,59.7 66.667,59.333C66.3,58.967 66,59.267 66,60M76.079,60.583C76.127,61.748 76.364,61.985 76.683,61.188C76.972,60.466 76.936,59.603 76.604,59.271C76.272,58.939 76.036,59.529 76.079,60.583M41.333,78.667C41.7,79.033 42.3,79.033 42.667,78.667C43.033,78.3 42.733,78 42,78C41.267,78 40.967,78.3 41.333,78.667M23.423,83.562C15.481,104.359 40.661,124.236 73,122.697C91.492,121.816 91.265,119.566 72,112.772C48.648,104.538 30.825,92.121 28.381,82.383C27.36,78.312 25.235,78.817 23.423,83.562M45.5,80C45.84,80.55 46.343,81 46.618,81C46.893,81 46.84,80.55 46.5,80C46.16,79.45 45.657,79 45.382,79C45.107,79 45.16,79.45 45.5,80M40.75,90.662C41.438,90.94 42.563,90.94 43.25,90.662C43.938,90.385 43.375,90.158 42,90.158C40.625,90.158 40.063,90.385 40.75,90.662" style="fill:rgb(255,204,77);"/>
    </g>
    <g transform="matrix(2.54017,1.01318,-1.01318,2.54017,374.513,100.669)">
        <path d="M96.78,13.046C88.289,14.448 67.017,26.506 70.805,27.768C71.468,27.989 74.595,30.732 77.755,33.863C84.801,40.845 92.275,44.779 115,53.468C140.361,63.165 149.218,68.903 153.06,78.124L154.466,81.5L155.115,78.5C159.394,58.709 151.754,48.337 129,43.046C106.799,37.883 95.269,22 113.723,22C118.418,22 118.758,21.527 116.439,18.217C113.262,13.68 105.423,11.618 96.78,13.046M125.079,26.583C125.127,27.748 125.364,27.985 125.683,27.188C125.972,26.466 125.936,25.603 125.604,25.271C125.272,24.939 125.036,25.529 125.079,26.583M61.123,40.935C55.513,53.977 60.309,69.158 71.84,74.861C81.305,79.542 128.678,91.087 129.998,89.035C131.262,87.07 140.496,88.09 143.25,90.499C145.832,92.757 147.185,95.85 145,94.5C144.45,94.16 144,94.302 144,94.816C144,95.33 145.294,96.009 146.876,96.325C148.458,96.642 151.446,98.498 153.516,100.45C161.046,107.552 171.381,98.839 165.019,90.751C159.985,84.352 133.012,75.147 121.25,75.814C119.463,75.916 118,75.549 118,74.999C118,74.45 117.404,74 116.675,74C108.876,74 77.722,52.832 70,42.285C64.514,34.794 63.811,34.687 61.123,40.935M140.333,40.667C140.7,41.033 141.3,41.033 141.667,40.667C142.033,40.3 141.733,40 141,40C140.267,40 139.967,40.3 140.333,40.667M53.699,53.536C47.692,55.74 42.104,58.734 37.854,61.876C34.276,64.52 31.645,67.269 30.51,69.74C29.559,71.808 28.15,74.819 27.377,76.432C26.604,78.045 26.367,79.62 26.851,79.932C27.335,80.244 28.032,81.467 28.4,82.649C31.506,92.607 48.706,104.503 72,112.804C76.675,114.47 83.973,117.829 88.218,120.269C107.859,131.56 123.496,131.417 133.393,119.854C141.784,110.051 136.845,107.008 106.106,103.043C98.496,102.062 92.081,101.666 91.55,102.144C90.012,103.53 84.985,103.123 84.387,101.565C84.084,100.776 81.511,99.641 78.668,99.042C58.379,94.77 49.66,87.396 49.648,74.5C49.642,67.872 54.126,56 56.637,56C57.386,56 58,55.1 58,54C58,52.9 57.888,52.032 57.75,52.07C57.612,52.109 55.79,52.769 53.699,53.536M68,57C65.592,59.408 65.553,59.917 67.557,62.777C70.157,66.49 77,64.788 77,60.429C77,58.548 73.405,55 71.5,55C70.675,55 69.1,55.9 68,57M39.228,79.24C34.609,81.446 35.474,89.328 40.473,90.583C44.119,91.498 48,88.706 48,85.168C48,80.037 43.677,77.115 39.228,79.24M42.333,223.667C42.7,224.033 43.3,224.033 43.667,223.667C44.033,223.3 43.733,223 43,223C42.267,223 41.967,223.3 42.333,223.667" style="fill:rgb(255,231,181);"/>
    </g>
    <g transform="matrix(2.54017,1.01318,-1.01318,2.54017,374.513,100.669)">
        <path d="M67.323,30.25C64.132,33.794 63.839,34.783 65.408,36.703C66.216,37.691 68.712,40.859 70.955,43.742C77.077,51.61 87.214,59.427 99.339,65.629L110.199,71.184L109.561,68.276C108.055,61.421 116.626,57.167 120.927,62.635C123.643,66.087 123.545,68.546 120.572,71.518L118.145,73.946L121.822,74.969C131.361,77.621 153.135,82.199 153.669,81.664C159.013,76.32 141.644,63.656 115,53.468C92.192,44.748 84.809,40.853 77.67,33.778C71.175,27.341 70.231,27.019 67.323,30.25M58.118,53.75C58.053,54.987 57.386,56 56.637,56C47.541,56 47.959,82.529 57.179,90.421C62.437,94.922 85.703,102.565 83.552,99.084C82.692,97.692 84.531,94.394 86.613,93.595C89.598,92.45 91.924,94.006 92.957,97.838L93.958,101.556L107.879,103.309C129.99,106.092 137,108.551 137,113.523C137,119.532 152.33,115.234 155.856,108.237L157.739,104.5L155.12,101.891C148.962,95.758 145.321,94.679 142,98C137.996,102.004 131.234,98.58 132.329,93.103L132.867,90.414L114.184,86.59C69.514,77.447 62.047,73.306 59.022,56C58.589,53.525 58.182,52.513 58.118,53.75M70.813,55.683C71.534,55.972 72.397,55.936 72.729,55.604C73.061,55.272 72.471,55.036 71.417,55.079C70.252,55.127 70.015,55.364 70.813,55.683M67.405,57.155C66.962,57.87 67.13,58.038 67.845,57.595C68.48,57.203 69,56.684 69,56.441C69,55.607 68.117,56.002 67.405,57.155M74.5,57C74.84,57.55 75.343,58 75.618,58C75.893,58 75.84,57.55 75.5,57C75.16,56.45 74.657,56 74.382,56C74.107,56 74.16,56.45 74.5,57M66,60C66,60.733 66.3,61.033 66.667,60.667C67.033,60.3 67.033,59.7 66.667,59.333C66.3,58.967 66,59.267 66,60M76.079,60.583C76.127,61.748 76.364,61.985 76.683,61.188C76.972,60.466 76.936,59.603 76.604,59.271C76.272,58.939 76.036,59.529 76.079,60.583M41.333,78.667C41.7,79.033 42.3,79.033 42.667,78.667C43.033,78.3 42.733,78 42,78C41.267,78 40.967,78.3 41.333,78.667M23.423,83.562C15.481,104.359 40.661,124.236 73,122.697C91.492,121.816 91.265,119.566 72,112.772C48.648,104.538 30.825,92.121 28.381,82.383C27.36,78.312 25.235,78.817 23.423,83.562M45.5,80C45.84,80.55 46.343,81 46.618,81C46.893,81 46.84,80.55 46.5,80C46.16,79.45 45.657,79 45.382,79C45.107,79 45.16,79.45 45.5,80M40.75,90.662C41.438,90.94 42.563,90.94 43.25,90.662C43.938,90.385 43.375,90.158 42,90.158C40.625,90.158 40.063,90.385 40.75,90.662" style="fill:rgb(255,204,77);"/>
    </g>
</svg>
