<svg clip-rule="evenodd" fill-rule="evenodd" stroke-linejoin="round" stroke-miterlimit="2" viewBox="0 0 1024 1024" xmlns="http://www.w3.org/2000/svg"><g transform="matrix(2.54017 1.01318 -1.01318 2.54017 374.513 100.669)"><path d="m74.405 23.155c-.443.715-.275.883.44.44.635-.392 1.155-.911 1.155-1.154 0-.834-.883-.439-1.595.714m-38 39c-.443.715-.275.883.44.44 1.153-.712 1.548-1.595.714-1.595-.243 0-.762.52-1.154 1.155m117.595 19.845c0 .733.3 1.033.667.667.366-.367.366-.967 0-1.334-.367-.366-.667-.066-.667.667m-69 13c-2.408 2.408-2.447 2.917-.443 5.777 2.773 3.959 8.443 2.344 8.443-2.406 0-4.822-4.607-6.764-8-3.371" fill="#78b154"/><path d="m38.566 80.328c-2.089 1.528-2.398 5.965-.569 8.169 1.961 2.362 6.709 1.881 8.507-.862 3.486-5.32-2.774-11.083-7.938-7.307" fill="#dd2e41"/><path d="m68.011 57.487c-3.135 3.777 2.725 9.637 6.502 6.502 1.791-1.486 1.945-5.131.287-6.789s-5.303-1.504-6.789.287m-38.011 52.013c1.292 1.375 2.574 2.5 2.849 2.5s-.557-1.125-1.849-2.5-2.574-2.5-2.849-2.5.557 1.125 1.849 2.5m120 4.5c-.901.582-1.025.975-.309.985.655.008 1.469-.435 1.809-.985.767-1.242.421-1.242-1.5 0m-9.731 2.693c.973.254 2.323.237 3-.037s-.119-.481-1.769-.461-2.204.244-1.231.498m-8.864 5.557-1.905 2.25 2.25-1.905c1.238-1.048 2.25-2.06 2.25-2.25 0-.8-.805-.209-2.595 1.905m-79.072-.583c.367.366.967.366 1.334 0 .366-.367.066-.667-.667-.667s-1.033.3-.667.667m33.48.016c.721.289 1.584.253 1.916-.079s-.258-.568-1.312-.525c-1.165.048-1.402.285-.604.604m-27.48.984c.367.366.967.366 1.334 0 .366-.367.066-.667-.667-.667s-1.033.3-.667.667m21 0c.367.366.967.366 1.334 0 .366-.367.066-.667-.667-.667s-1.033.3-.667.667m-14.083 1.022c.963.252 2.537.252 3.5 0 .963-.251.175-.457-1.75-.457s-2.713.206-1.75.457" fill="#f79210"/><path d="m111.655 62.829c-3.381 3.735-.88 10.171 3.951 10.171 5.365 0 8.491-6.76 4.823-10.429-2.122-2.121-6.744-1.986-8.774.258m-81.655 87.171c0 .733.3 1.033.667.667.366-.367.366-.967 0-1.334-.367-.366-.667-.066-.667.667m95 6c0 .733.3 1.033.667.667.366-.367.366-.967 0-1.334-.367-.366-.667-.066-.667.667m-.805 8.5c.02 1.65.244 2.204.498 1.231s.237-2.323-.037-3-.481.119-.461 1.769m-1 11c.02 1.65.244 2.204.498 1.231s.237-2.323-.037-3-.481.119-.461 1.769m-1.116 10.083c.048 1.165.285 1.402.604.605.289-.722.253-1.585-.079-1.917s-.568.258-.525 1.312m-81.079 8.417c0 .733.3 1.033.667.667.366-.367.366-.967 0-1.334-.367-.366-.667-.066-.667.667m80.079 2.583c.048 1.165.285 1.402.604.605.289-.722.253-1.585-.079-1.917s-.568.258-.525 1.312m-79.079 1.417c0 .733.3 1.033.667.667.366-.367.366-.967 0-1.334-.367-.366-.667-.066-.667.667m78.158 8c0 1.375.227 1.938.504 1.25.278-.687.278-1.812 0-2.5-.277-.687-.504-.125-.504 1.25m-53.158 5c0 .733.3 1.033.667.667.366-.367.366-.967 0-1.334-.367-.366-.667-.066-.667.667m52.158 5c0 1.375.227 1.938.504 1.25.278-.687.278-1.812 0-2.5-.277-.687-.504-.125-.504 1.25m-65.825-.333c.367.366.967.366 1.334 0 .366-.367.066-.667-.667-.667s-1.033.3-.667.667m68.48 2.016c.721.289 1.584.253 1.916-.079s-.258-.568-1.312-.525c-1.165.048-1.402.285-.604.604m-51 1c.721.289 1.584.253 1.916-.079s-.258-.568-1.312-.525c-1.165.048-1.402.285-.604.604m9.52.984c.367.366.967.366 1.334 0 .366-.367.066-.667-.667-.667s-1.033.3-.667.667m22.417-.005c.688.278 1.813.278 2.5 0 .688-.277.125-.504-1.25-.504s-1.937.227-1.25.504" fill="#50a9ed"/><path d="m135.25 88.662c-.687.278-1.25 1.142-1.25 1.921s-.45 1.417-1 1.417c-1.736 0-1.083 3.917 1 6 3.886 3.886 9.333 1.552 9.333-4 0-4.609-3.75-7.086-8.083-5.338" fill="#a98cd8"/><path d="m68.872 27.75c-1.243 1.586-1.208 1.621.378.378 1.666-1.307 2.195-2.128 1.372-2.128-.207 0-.995.788-1.75 1.75m-21.872 55.25c0 .733.3 1.033.667.667.366-.367.366-.967 0-1.334-.367-.366-.667-.066-.667.667m-11 3c0 .733.3 1.033.667.667.366-.367.366-.967 0-1.334-.367-.366-.667-.066-.667.667m121.632 19.511c-.898.897-1.632 2.191-1.632 2.873 0 3.992-11.045 9.37-16.834 8.198-2.242-.454-3.085.069-5.303 3.293-7.16 10.41-22.24 12.009-39.142 4.15-3.342-1.554-6.559-2.658-7.149-2.454-16.969 5.891-49.23-1.421-58.551-13.271-3.487-4.433-9.915 2.544-10.797 11.717l-.478 4.981 5.573 2.465c8.209 3.63 24.05 7.522 33.181 8.153 4.4.304 8.675.825 9.5 1.158 3.956 1.598 23.899 2.71 25.809 1.439 1.506-1.002 2.501-1.029 4.491-.122 1.944.886 5.63.887 15.378.005 23.828-2.154 36.425-4.604 50.572-9.833l6.75-2.495v-4.424c0-8.119-7.975-19.226-11.368-15.833m-98.299 32.156c.367.366.967.366 1.334 0 .366-.367.066-.667-.667-.667s-1.033.3-.667.667m67 0c.367.366.967.366 1.334 0 .366-.367.066-.667-.667-.667s-1.033.3-.667.667m-63 91c.367.366.967.366 1.334 0 .366-.367.066-.667-.667-.667s-1.033.3-.667.667" fill="#c0684e"/><path d="m169.195 121.5c.02 1.65.244 2.204.498 1.231s.237-2.323-.037-3-.481.119-.461 1.769m-151.195 4.105c0 4.258 7.306 10.795 17.604 15.752l8.014 3.857 8.258-4.152 8.257-4.151 8.439 4.599 8.438 4.6 6.122-3.45 6.123-3.45-10.878-.722c-5.982-.398-11.327-1.059-11.877-1.469-.55-.411-4.825-1.015-9.5-1.343-9.508-.667-25.294-4.505-33.553-8.157-2.996-1.325-5.447-2.186-5.447-1.914m140 3.928c-12.726 4.411-31.562 7.8-50.359 9.06l-9.86.661 6.295 3.363 6.295 3.364 8.32-4.499 8.321-4.499 8.202 4.125 8.203 4.124 7.308-3.616c4.02-1.989 7.766-3.616 8.325-3.616 1.469 0 6.655-5.529 8.459-9.017 1.83-3.54 2.381-3.572-9.509.55" fill="#964832"/><path d="m51.775 142.102c-7.231 3.648-7.692 4.073-7.21 6.648.283 1.512 2.907 17.047 5.83 34.522 6.026 36.016 4.942 32.837 11.269 33.059l4.836.169-.255-7.5c-.141-4.125-1.399-19.403-2.797-33.952-1.398-14.548-2.316-28.948-2.04-32 .339-3.752.245-4.577-.289-2.548l-.79 3-.414-2.648-.415-2.647zm33.805-.076c-9.097 5.037-8.604 2.099-6.47 38.474 2.429 41.395 1.747 38.091 8.028 38.924 2.803.372 5.273.498 5.49.281s.277-18.645.133-40.952l-.261-40.558zm32.985.209c-3.814 2.091-7.147 4.014-7.408 4.274-.476.476-4.018 58.878-4.109 67.741-.053 5.206.623 5.566 7.763 4.138 3.759-.752 12.598-63.1 10.976-77.421l-.287-2.532zm33.935-.619c-3.85 1.952-7.312 3.849-7.693 4.216-1.107 1.068-11.661 65.011-11.09 67.193 1.686 6.447 7.522-.465 10.221-12.107 2.555-11.019 13.567-54.931 14.964-59.668.527-1.787.877-3.235.778-3.216s-3.33 1.631-7.18 3.582m-10.421 4.967c.048 1.165.285 1.402.604.605.289-.722.253-1.585-.079-1.917s-.568.258-.525 1.312m-100.079.417c0 .733.3 1.033.667.667.366-.367.366-.967 0-1.334-.367-.366-.667-.066-.667.667" fill="#bcdcf5"/><path d="m118.333 32.667c.367.366.967.366 1.334 0 .366-.367.066-.667-.667-.667s-1.033.3-.667.667m-3.583 27.995c.688.278 1.813.278 2.5 0 .688-.277.125-.504-1.25-.504s-1.937.227-1.25.504m-3.878 2.088c-1.243 1.586-1.208 1.621.378.378 1.666-1.307 2.195-2.128 1.372-2.128-.207 0-.995.788-1.75 1.75m-1.872 4.25c0 .733.3 1.033.667.667.366-.367.366-.967 0-1.334-.367-.366-.667-.066-.667.667m13 0c0 .733.3 1.033.667.667.366-.367.366-.967 0-1.334-.367-.366-.667-.066-.667.667m-1.595 4.155c-.443.715-.275.883.44.44.635-.392 1.155-.911 1.155-1.154 0-.834-.883-.439-1.595.714m-60.21 69.345c.02 1.65.244 2.204.498 1.231s.237-2.323-.037-3-.481.119-.461 1.769m2.138-.833c.367.366.967.366 1.334 0 .366-.367.066-.667-.667-.667s-1.033.3-.667.667m31.123 40.333c0 22.275.132 31.388.293 20.25.161-11.137.161-29.362 0-40.5-.161-11.137-.293-2.025-.293 20.25m32.816-36c0 2.475.195 3.488.434 2.25.238-1.238.238-3.262 0-4.5-.239-1.238-.434-.225-.434 2.25m-97.272 1c0 .733.3 1.033.667.667.366-.367.366-.967 0-1.334-.367-.366-.667-.066-.667.667m32.3 4c0 3.025.187 4.262.416 2.75s.229-3.988 0-5.5-.416-.275-.416 2.75m-18.598-2.333c.282.733.641 1.333.798 1.333s.516-.6.798-1.333c.281-.734-.078-1.334-.798-1.334s-1.079.6-.798 1.334m67.298 2.333c0 .733.3 1.033.667.667.366-.367.366-.967 0-1.334-.367-.366-.667-.066-.667.667m-65.921 1.583c.048 1.165.285 1.402.604.605.289-.722.253-1.585-.079-1.917s-.568.258-.525 1.312m81.079.417c0 1.375.227 1.938.504 1.25.278-.687.278-1.812 0-2.5-.277-.687-.504-.125-.504 1.25m17.037 1.5c.02 1.65.244 2.204.498 1.231s.237-2.323-.037-3-.481.119-.461 1.769m-64.852 7c.003 4.4.179 6.076.39 3.724.212-2.352.209-5.952-.006-8s-.388-.124-.384 4.276m-32.148-2c.02 1.65.244 2.204.498 1.231s.237-2.323-.037-3-.481.119-.461 1.769m17.077 2.5c0 2.475.195 3.488.434 2.25.238-1.238.238-3.262 0-4.5-.239-1.238-.434-.225-.434 2.25m47.048 2c0 3.575.182 5.037.403 3.25.222-1.787.222-4.713 0-6.5-.221-1.787-.403-.325-.403 3.25m31.875-3.5c.02 1.65.244 2.204.498 1.231s.237-2.323-.037-3-.481.119-.461 1.769m-16.195-.5c0 .733.3 1.033.667.667.366-.367.366-.967 0-1.334-.367-.366-.667-.066-.667.667m-1 3c0 .733.3 1.033.667.667.366-.367.366-.967 0-1.334-.367-.366-.667-.066-.667.667m-77.805 2.5c.02 1.65.244 2.204.498 1.231s.237-2.323-.037-3-.481.119-.461 1.769m94 1c.02 1.65.244 2.204.498 1.231s.237-2.323-.037-3-.481.119-.461 1.769m-93 5c.02 1.65.244 2.204.498 1.231s.237-2.323-.037-3-.481.119-.461 1.769m16.077 1.5c0 2.475.195 3.488.434 2.25.238-1.238.238-3.262 0-4.5-.239-1.238-.434-.225-.434 2.25m60.728-3c0 .733.3 1.033.667.667.366-.367.366-.967 0-1.334-.367-.366-.667-.066-.667.667m15.195 2.5c.02 1.65.244 2.204.498 1.231s.237-2.323-.037-3-.481.119-.461 1.769m-60.852 6c.003 4.4.179 6.076.39 3.724.212-2.352.209-5.952-.006-8s-.388-.124-.384 4.276m44.657-4.5c0 .733.3 1.033.667.667.366-.367.366-.967 0-1.334-.367-.366-.667-.066-.667.667m-74.805 3.5c.02 1.65.244 2.204.498 1.231s.237-2.323-.037-3-.481.119-.461 1.769m60.115 4c.005 3.3.192 4.529.415 2.732.222-1.797.218-4.497-.01-6-.229-1.503-.411-.032-.405 3.268m29.885-3c.02 1.65.244 2.204.498 1.231s.237-2.323-.037-3-.481.119-.461 1.769m-74.195 1.5c0 .733.3 1.033.667.667.366-.367.366-.967 0-1.334-.367-.366-.667-.066-.667.667m-14.805 3.5c.02 1.65.244 2.204.498 1.231s.237-2.323-.037-3-.481.119-.461 1.769m15 1c.02 1.65.244 2.204.498 1.231s.237-2.323-.037-3-.481.119-.461 1.769m57.963-.5c0 1.375.227 1.938.504 1.25.278-.687.278-1.812 0-2.5-.277-.687-.504-.125-.504 1.25m15.037.5c.02 1.65.244 2.204.498 1.231s.237-2.323-.037-3-.481.119-.461 1.769m-87 5c.02 1.65.244 2.204.498 1.231s.237-2.323-.037-3-.481.119-.461 1.769m15.091 4c.008 2.75.202 3.756.432 2.236.229-1.52.223-3.77-.014-5s-.425.014-.418 2.764m56.793-2.917c.048 1.165.285 1.402.604.605.289-.722.253-1.585-.079-1.917s-.568.258-.525 1.312m-42.759 5.417c0 3.575.182 5.037.403 3.25.222-1.787.222-4.713 0-6.5-.221-1.787-.403-.325-.403 3.25m56.759-4.417c.048 1.165.285 1.402.604.605.289-.722.253-1.585-.079-1.917s-.568.258-.525 1.312m-28.743 7.417c0 4.125.177 5.813.392 3.75.216-2.062.216-5.437 0-7.5-.215-2.062-.392-.375-.392 3.75m-56.141-3.5c.02 1.65.244 2.204.498 1.231s.237-2.323-.037-3-.481.119-.461 1.769m69.805-1.5c0 .733.3 1.033.667.667.366-.367.366-.967 0-1.334-.367-.366-.667-.066-.667.667m14.195 2.5c.02 1.65.244 2.204.498 1.231s.237-2.323-.037-3-.481.119-.461 1.769m-83 5c.02 1.65.244 2.204.498 1.231s.237-2.323-.037-3-.481.119-.461 1.769m13.899 3c-.035 2.75.317 5.601.783 6.335.495.781.663-.879.405-4-.605-7.328-1.112-8.323-1.188-2.335m54.906-3.5c0 .733.3 1.033.667.667.366-.367.366-.967 0-1.334-.367-.366-.667-.066-.667.667m13.195 1.5c.02 1.65.244 2.204.498 1.231s.237-2.323-.037-3-.481.119-.461 1.769m-14.195 2.5c0 .733.3 1.033.667.667.366-.367.366-.967 0-1.334-.367-.366-.667-.066-.667.667m-66.805 2.5c.02 1.65.244 2.204.498 1.231s.237-2.323-.037-3-.481.119-.461 1.769m27.125 4.5c0 3.575.182 5.037.403 3.25.222-1.787.222-4.713 0-6.5-.221-1.787-.403-.325-.403 3.25m52.875-3.5c.02 1.65.244 2.204.498 1.231s.237-2.323-.037-3-.481.119-.461 1.769m-26.867 6c.005 3.85.185 5.302.402 3.228.216-2.075.213-5.225-.008-7-.221-1.776-.398-.078-.394 3.772m13.672-3.5c0 .733.3 1.033.667.667.366-.367.366-.967 0-1.334-.367-.366-.667-.066-.667.667m-65.842 2c0 1.375.227 1.938.504 1.25.278-.687.278-1.812 0-2.5-.277-.687-.504-.125-.504 1.25m13 3c0 1.375.227 1.938.504 1.25.278-.687.278-1.812 0-2.5-.277-.687-.504-.125-.504 1.25m51.842-1c0 .733.3 1.033.667.667.366-.367.366-.967 0-1.334-.367-.366-.667-.066-.667.667m13.158 1c0 1.375.227 1.938.504 1.25.278-.687.278-1.812 0-2.5-.277-.687-.504-.125-.504 1.25m-5.825 2.667c.367.366.967.366 1.334 0 .366-.367.066-.667-.667-.667s-1.033.3-.667.667m-41.583 2.995c.688.278 1.813.278 2.5 0 .688-.277.125-.504-1.25-.504s-1.937.227-1.25.504m12.5.027c.963.252 2.537.252 3.5 0 .963-.251.175-.457-1.75-.457s-2.713.206-1.75.457" fill="#86bae0"/><path d="m28.116 140.75c.587 1.512 4.172 15.35 7.968 30.75 11.401 46.25 9.819 42.127 16.577 43.215 3.493.562 3.716.468 2.471-1.043-.752-.914-1.132-2.564-.844-3.667.289-1.103.066-2.005-.495-2.005-.564 0-.823-1.34-.58-3 .242-1.65.017-3-.5-3s-.742-1.35-.5-3 .017-3-.5-3-.742-1.35-.5-3 .017-3-.5-3-.742-1.35-.5-3 .017-3-.5-3-.742-1.35-.5-3 .017-3-.5-3-.742-1.35-.5-3 .017-3-.5-3-.742-1.35-.5-3 .017-3-.5-3-.743-1.339-.503-2.976c.24-1.636.061-3.1-.399-3.254-.459-.153-.942-2.86-1.073-6.016-.157-3.79-.662-5.74-1.488-5.746-.687-.004-1.25-.601-1.25-1.326 0-1.041-12.782-8.682-14.524-8.682-.235 0 .053 1.238.64 2.75m65.884 38.012v40.903l5.75-.457c3.162-.251 5.81-.513 5.883-.582.24-.228 2.216-30.878 2.748-42.626.286-6.325.813-15.552 1.17-20.504l.65-9.004-8.101-4.316-8.1-4.316zm32.232-30.507c-.148 5.635-.609 10.361-1.026 10.504-.416.142-.586 2.056-.376 4.254.209 2.197.037 4.781-.383 5.741-.421.96-.664 2.171-.541 2.69.344 1.454-1.975 26.858-2.606 28.556-.307.825-.469 3.367-.36 5.648.109 2.282-.195 4.392-.677 4.689-.482.298-.7 2.048-.485 3.89l.391 3.349 5.838-.966 5.838-.965.676-5.823c.371-3.202 1.003-5.822 1.404-5.822s.53-1.35.288-3c-.275-1.878-.001-3 .733-3 .644 0 .897-.446.56-.99-.744-1.205 1.573-17.01 2.494-17.01.359 0 .455-1.35.213-3s-.017-3 .5-3 .742-1.35.5-3-.017-3 .5-3 .742-1.35.5-3-.017-3 .5-3 .742-1.35.5-3-.017-3 .5-3 .742-1.35.5-3c-.251-1.715.012-3 .614-3 .661 0 .547-.977-.306-2.621-1.105-2.132-13.132-9.394-15.521-9.373-.275.003-.621 4.615-.768 10.249m-63.696 4.995c.41 7.287.852 15.341.982 17.896.129 2.555.549 5.154.933 5.775s.605 2.806.49 4.854c-.115 2.049.035 4.4.333 5.225 1.56 4.319 2.879 28.287 1.601 29.078-2.119 1.309-.799 1.755 7.396 2.497 6.778.615 7.729.499 7.729-.937 0-.901-.474-1.638-1.053-1.638-.629 0-1.067-2.713-1.088-6.75-.042-8.23-.648-19.551-1.966-36.75-.547-7.15-.847-16.004-.666-19.676.182-3.672.092-6.62-.198-6.552-.291.069-3.329-1.314-6.75-3.073-8.975-4.615-8.597-5.106-7.743 10.051m70.543 60.333c.048 1.165.285 1.402.604.605.289-.722.253-1.585-.079-1.917s-.568.258-.525 1.312m-15.079 3.417c0 .733.3 1.033.667.667.366-.367.366-.967 0-1.334-.367-.366-.667-.066-.667.667" fill="#8ac9f6"/></g><path d="m96.831 3.014c-23.041 3.934-50.786 26.387-50.836 41.139-.002.741-3.715 3.246-8.25 5.566-19.189 9.819-33.55 34.973-29.841 52.268 1.05 4.897.94 5.632-1.626 10.877-5.246 10.722-3.365 23.925 4.894 34.353 3.655 4.615 4.862 8.625 14.228 47.293 8.778 36.239 9.02 36.591 27.844 40.453 17.014 3.492 34.694 5.247 45.042 4.471 3.418-.256 8.914-.655 12.214-.887 10.872-.763 28.022-3.938 33.486-6.199 8.508-3.522 10.53-7.493 16.482-32.37 8.562-35.79 12.447-49.276 14.972-51.972 7.81-8.344 10.738-25.304 5.935-34.386-1.88-3.555-1.935-4.219-.656-7.931 2.39-6.937.098-14.94-6.212-21.689-3.055-3.268-3.305-4.074-3.773-12.156-1.109-19.164-13.78-32.998-33.838-36.944l-5.994-1.179.693-3.111c2.78-12.488-6.676-24.596-21.095-27.009-7.908-1.323-9.066-1.373-13.669-.587m-9.933 7.326c-17.481 6.652-30.832 19.639-34.815 33.864-1.149 4.102-1.596 4.484-9.893 8.459-10.38 4.972-16.242 10.348-20.204 18.526-1.604 3.313-3.385 6.587-3.957 7.276-4.246 5.116-5.739 15.792-3.225 23.063 1.718 4.969 1.712 5.067-.524 8.385-6.825 10.127-6.005 21.484 2.279 31.593 3.739 4.563 6.265 13.012 15.47 51.726 7.011 29.49 7.146 29.729 18.536 32.744 24.602 6.513 59.929 6.695 84.843.437 12.101-3.04 12.846-4.229 19.12-30.514 9.695-40.613 12.499-50.061 16.121-54.32 7.526-8.847 8.933-18.876 4.038-28.767-2.251-4.55-2.402-5.471-1.262-7.738 3.451-6.863 1.14-15.144-5.764-20.653-3.535-2.821-3.545-2.853-2.963-9.087 1.801-19.289-9.43-31.756-33.698-37.406-12.019-2.799-14.115-3.75-11.41-5.178 22.211-11.728-7.409-32.032-32.692-22.41" transform="matrix(2.19509 .87554 -.954674 2.39348 399.562 119.972)"/><path d="m96.78 13.046c-8.491 1.402-29.763 13.46-25.975 14.722.663.221 3.79 2.964 6.95 6.095 7.046 6.982 14.52 10.916 37.245 19.605 25.361 9.697 34.218 15.435 38.06 24.656l1.406 3.376.649-3c4.279-19.791-3.361-30.163-26.115-35.454-22.201-5.163-33.731-21.046-15.277-21.046 4.695 0 5.035-.473 2.716-3.783-3.177-4.537-11.016-6.599-19.659-5.171m28.299 13.537c.048 1.165.285 1.402.604.605.289-.722.253-1.585-.079-1.917s-.568.258-.525 1.312m-63.956 14.352c-5.61 13.042-.814 28.223 10.717 33.926 9.465 4.681 56.838 16.226 58.158 14.174 1.264-1.965 10.498-.945 13.252 1.464 2.582 2.258 3.935 5.351 1.75 4.001-.55-.34-1-.198-1 .316s1.294 1.193 2.876 1.509c1.582.317 4.57 2.173 6.64 4.125 7.53 7.102 17.865-1.611 11.503-9.699-5.034-6.399-32.007-15.604-43.769-14.937-1.787.102-3.25-.265-3.25-.815 0-.549-.596-.999-1.325-.999-7.799 0-38.953-21.168-46.675-31.715-5.486-7.491-6.189-7.598-8.877-1.35m79.21-.268c.367.366.967.366 1.334 0 .366-.367.066-.667-.667-.667s-1.033.3-.667.667m-86.634 12.869c-11.063 4.06-20.705 10.797-23.189 16.204-.951 2.068-2.36 5.079-3.133 6.692s-1.01 3.188-.526 3.5 1.181 1.535 1.549 2.717c3.106 9.958 20.306 21.854 43.6 30.155 4.675 1.666 11.973 5.025 16.218 7.465 19.641 11.291 35.278 11.148 45.175-.415 8.391-9.803 3.452-12.846-27.287-16.811-7.61-.981-14.025-1.377-14.556-.899-1.538 1.386-6.565.979-7.163-.579-.303-.789-2.876-1.924-5.719-2.523-20.289-4.272-29.008-11.646-29.02-24.542-.006-6.628 4.478-18.5 6.989-18.5.749 0 1.363-.9 1.363-2s-.112-1.968-.25-1.93c-.138.039-1.96.699-4.051 1.466m14.301 3.464c-2.408 2.408-2.447 2.917-.443 5.777 2.6 3.713 9.443 2.011 9.443-2.348 0-1.881-3.595-5.429-5.5-5.429-.825 0-2.4.9-3.5 2m-28.772 22.24c-4.619 2.206-3.754 10.088 1.245 11.343 3.646.915 7.527-1.877 7.527-5.415 0-5.131-4.323-8.053-8.772-5.928m3.105 144.427c.367.366.967.366 1.334 0 .366-.367.066-.667-.667-.667s-1.033.3-.667.667" fill="#ffe7b5" transform="matrix(2.54017 1.01318 -1.01318 2.54017 374.513 100.669)"/><path d="m67.323 30.25c-3.191 3.544-3.484 4.533-1.915 6.453.808.988 3.304 4.156 5.547 7.039 6.122 7.868 16.259 15.685 28.384 21.887l10.86 5.555-.638-2.908c-1.506-6.855 7.065-11.109 11.366-5.641 2.716 3.452 2.618 5.911-.355 8.883l-2.427 2.428 3.677 1.023c9.539 2.652 31.313 7.23 31.847 6.695 5.344-5.344-12.025-18.008-38.669-28.196-22.808-8.72-30.191-12.615-37.33-19.69-6.495-6.437-7.439-6.759-10.347-3.528m-9.205 23.5c-.065 1.237-.732 2.25-1.481 2.25-9.096 0-8.678 26.529.542 34.421 5.258 4.501 28.524 12.144 26.373 8.663-.86-1.392.979-4.69 3.061-5.489 2.985-1.145 5.311.411 6.344 4.243l1.001 3.718 13.921 1.753c22.111 2.783 29.121 5.242 29.121 10.214 0 6.009 15.33 1.711 18.856-5.286l1.883-3.737-2.619-2.609c-6.158-6.133-9.799-7.212-13.12-3.891-4.004 4.004-10.766.58-9.671-4.897l.538-2.689-18.683-3.824c-44.67-9.143-52.137-13.284-55.162-30.59-.433-2.475-.84-3.487-.904-2.25m12.695 1.933c.721.289 1.584.253 1.916-.079s-.258-.568-1.312-.525c-1.165.048-1.402.285-.604.604m-3.408 1.472c-.443.715-.275.883.44.44.635-.392 1.155-.911 1.155-1.154 0-.834-.883-.439-1.595.714m7.095-.155c.34.55.843 1 1.118 1s.222-.45-.118-1-.843-1-1.118-1-.222.45.118 1m-8.5 3c0 .733.3 1.033.667.667.366-.367.366-.967 0-1.334-.367-.366-.667-.066-.667.667m10.079.583c.048 1.165.285 1.402.604.605.289-.722.253-1.585-.079-1.917s-.568.258-.525 1.312m-34.746 18.084c.367.366.967.366 1.334 0 .366-.367.066-.667-.667-.667s-1.033.3-.667.667m-17.91 4.895c-7.942 20.797 17.238 40.674 49.577 39.135 18.492-.881 18.265-3.131-1-9.925-23.352-8.234-41.175-20.651-43.619-30.389-1.021-4.071-3.146-3.566-4.958 1.179m22.077-3.562c.34.55.843 1 1.118 1s.222-.45-.118-1-.843-1-1.118-1-.222.45.118 1m-4.75 10.662c.688.278 1.813.278 2.5 0 .688-.277.125-.504-1.25-.504s-1.937.227-1.25.504" fill="#ffcc4d" transform="matrix(2.54017 1.01318 -1.01318 2.54017 374.513 100.669)"/><path d="m96.78 13.046c-8.491 1.402-29.763 13.46-25.975 14.722.663.221 3.79 2.964 6.95 6.095 7.046 6.982 14.52 10.916 37.245 19.605 25.361 9.697 34.218 15.435 38.06 24.656l1.406 3.376.649-3c4.279-19.791-3.361-30.163-26.115-35.454-22.201-5.163-33.731-21.046-15.277-21.046 4.695 0 5.035-.473 2.716-3.783-3.177-4.537-11.016-6.599-19.659-5.171m28.299 13.537c.048 1.165.285 1.402.604.605.289-.722.253-1.585-.079-1.917s-.568.258-.525 1.312m-63.956 14.352c-5.61 13.042-.814 28.223 10.717 33.926 9.465 4.681 56.838 16.226 58.158 14.174 1.264-1.965 10.498-.945 13.252 1.464 2.582 2.258 3.935 5.351 1.75 4.001-.55-.34-1-.198-1 .316s1.294 1.193 2.876 1.509c1.582.317 4.57 2.173 6.64 4.125 7.53 7.102 17.865-1.611 11.503-9.699-5.034-6.399-32.007-15.604-43.769-14.937-1.787.102-3.25-.265-3.25-.815 0-.549-.596-.999-1.325-.999-7.799 0-38.953-21.168-46.675-31.715-5.486-7.491-6.189-7.598-8.877-1.35m79.21-.268c.367.366.967.366 1.334 0 .366-.367.066-.667-.667-.667s-1.033.3-.667.667m-86.634 12.869c-11.063 4.06-20.705 10.797-23.189 16.204-.951 2.068-2.36 5.079-3.133 6.692s-1.01 3.188-.526 3.5 1.181 1.535 1.549 2.717c3.106 9.958 20.306 21.854 43.6 30.155 4.675 1.666 11.973 5.025 16.218 7.465 19.641 11.291 35.278 11.148 45.175-.415 8.391-9.803 3.452-12.846-27.287-16.811-7.61-.981-14.025-1.377-14.556-.899-1.538 1.386-6.565.979-7.163-.579-.303-.789-2.876-1.924-5.719-2.523-20.289-4.272-29.008-11.646-29.02-24.542-.006-6.628 4.478-18.5 6.989-18.5.749 0 1.363-.9 1.363-2s-.112-1.968-.25-1.93c-.138.039-1.96.699-4.051 1.466m14.301 3.464c-2.408 2.408-2.447 2.917-.443 5.777 2.6 3.713 9.443 2.011 9.443-2.348 0-1.881-3.595-5.429-5.5-5.429-.825 0-2.4.9-3.5 2m-28.772 22.24c-4.619 2.206-3.754 10.088 1.245 11.343 3.646.915 7.527-1.877 7.527-5.415 0-5.131-4.323-8.053-8.772-5.928m3.105 144.427c.367.366.967.366 1.334 0 .366-.367.066-.667-.667-.667s-1.033.3-.667.667" fill="#ffe7b5" transform="matrix(2.54017 1.01318 -1.01318 2.54017 374.513 100.669)"/><path d="m67.323 30.25c-3.191 3.544-3.484 4.533-1.915 6.453.808.988 3.304 4.156 5.547 7.039 6.122 7.868 16.259 15.685 28.384 21.887l10.86 5.555-.638-2.908c-1.506-6.855 7.065-11.109 11.366-5.641 2.716 3.452 2.618 5.911-.355 8.883l-2.427 2.428 3.677 1.023c9.539 2.652 31.313 7.23 31.847 6.695 5.344-5.344-12.025-18.008-38.669-28.196-22.808-8.72-30.191-12.615-37.33-19.69-6.495-6.437-7.439-6.759-10.347-3.528m-9.205 23.5c-.065 1.237-.732 2.25-1.481 2.25-9.096 0-8.678 26.529.542 34.421 5.258 4.501 28.524 12.144 26.373 8.663-.86-1.392.979-4.69 3.061-5.489 2.985-1.145 5.311.411 6.344 4.243l1.001 3.718 13.921 1.753c22.111 2.783 29.121 5.242 29.121 10.214 0 6.009 15.33 1.711 18.856-5.286l1.883-3.737-2.619-2.609c-6.158-6.133-9.799-7.212-13.12-3.891-4.004 4.004-10.766.58-9.671-4.897l.538-2.689-18.683-3.824c-44.67-9.143-52.137-13.284-55.162-30.59-.433-2.475-.84-3.487-.904-2.25m12.695 1.933c.721.289 1.584.253 1.916-.079s-.258-.568-1.312-.525c-1.165.048-1.402.285-.604.604m-3.408 1.472c-.443.715-.275.883.44.44.635-.392 1.155-.911 1.155-1.154 0-.834-.883-.439-1.595.714m7.095-.155c.34.55.843 1 1.118 1s.222-.45-.118-1-.843-1-1.118-1-.222.45.118 1m-8.5 3c0 .733.3 1.033.667.667.366-.367.366-.967 0-1.334-.367-.366-.667-.066-.667.667m10.079.583c.048 1.165.285 1.402.604.605.289-.722.253-1.585-.079-1.917s-.568.258-.525 1.312m-34.746 18.084c.367.366.967.366 1.334 0 .366-.367.066-.667-.667-.667s-1.033.3-.667.667m-17.91 4.895c-7.942 20.797 17.238 40.674 49.577 39.135 18.492-.881 18.265-3.131-1-9.925-23.352-8.234-41.175-20.651-43.619-30.389-1.021-4.071-3.146-3.566-4.958 1.179m22.077-3.562c.34.55.843 1 1.118 1s.222-.45-.118-1-.843-1-1.118-1-.222.45.118 1m-4.75 10.662c.688.278 1.813.278 2.5 0 .688-.277.125-.504-1.25-.504s-1.937.227-1.25.504" fill="#ffcc4d" transform="matrix(2.54017 1.01318 -1.01318 2.54017 374.513 100.669)"/><path d="m96.78 13.046c-8.491 1.402-29.763 13.46-25.975 14.722.663.221 3.79 2.964 6.95 6.095 7.046 6.982 14.52 10.916 37.245 19.605 25.361 9.697 34.218 15.435 38.06 24.656l1.406 3.376.649-3c4.279-19.791-3.361-30.163-26.115-35.454-22.201-5.163-33.731-21.046-15.277-21.046 4.695 0 5.035-.473 2.716-3.783-3.177-4.537-11.016-6.599-19.659-5.171m28.299 13.537c.048 1.165.285 1.402.604.605.289-.722.253-1.585-.079-1.917s-.568.258-.525 1.312m-63.956 14.352c-5.61 13.042-.814 28.223 10.717 33.926 9.465 4.681 56.838 16.226 58.158 14.174 1.264-1.965 10.498-.945 13.252 1.464 2.582 2.258 3.935 5.351 1.75 4.001-.55-.34-1-.198-1 .316s1.294 1.193 2.876 1.509c1.582.317 4.57 2.173 6.64 4.125 7.53 7.102 17.865-1.611 11.503-9.699-5.034-6.399-32.007-15.604-43.769-14.937-1.787.102-3.25-.265-3.25-.815 0-.549-.596-.999-1.325-.999-7.799 0-38.953-21.168-46.675-31.715-5.486-7.491-6.189-7.598-8.877-1.35m79.21-.268c.367.366.967.366 1.334 0 .366-.367.066-.667-.667-.667s-1.033.3-.667.667m-86.634 12.869c-6.007 2.204-11.595 5.198-15.845 8.34-3.578 2.644-6.209 5.393-7.344 7.864-.951 2.068-2.36 5.079-3.133 6.692s-1.01 3.188-.526 3.5 1.181 1.535 1.549 2.717c3.106 9.958 20.306 21.854 43.6 30.155 4.675 1.666 11.973 5.025 16.218 7.465 19.641 11.291 35.278 11.148 45.175-.415 8.391-9.803 3.452-12.846-27.287-16.811-7.61-.981-14.025-1.377-14.556-.899-1.538 1.386-6.565.979-7.163-.579-.303-.789-2.876-1.924-5.719-2.523-20.289-4.272-29.008-11.646-29.02-24.542-.006-6.628 4.478-18.5 6.989-18.5.749 0 1.363-.9 1.363-2s-.112-1.968-.25-1.93c-.138.039-1.96.699-4.051 1.466m14.301 3.464c-2.408 2.408-2.447 2.917-.443 5.777 2.6 3.713 9.443 2.011 9.443-2.348 0-1.881-3.595-5.429-5.5-5.429-.825 0-2.4.9-3.5 2m-28.772 22.24c-4.619 2.206-3.754 10.088 1.245 11.343 3.646.915 7.527-1.877 7.527-5.415 0-5.131-4.323-8.053-8.772-5.928m3.105 144.427c.367.366.967.366 1.334 0 .366-.367.066-.667-.667-.667s-1.033.3-.667.667" fill="#ffe7b5" transform="matrix(2.54017 1.01318 -1.01318 2.54017 374.513 100.669)"/><path d="m67.323 30.25c-3.191 3.544-3.484 4.533-1.915 6.453.808.988 3.304 4.156 5.547 7.039 6.122 7.868 16.259 15.685 28.384 21.887l10.86 5.555-.638-2.908c-1.506-6.855 7.065-11.109 11.366-5.641 2.716 3.452 2.618 5.911-.355 8.883l-2.427 2.428 3.677 1.023c9.539 2.652 31.313 7.23 31.847 6.695 5.344-5.344-12.025-18.008-38.669-28.196-22.808-8.72-30.191-12.615-37.33-19.69-6.495-6.437-7.439-6.759-10.347-3.528m-9.205 23.5c-.065 1.237-.732 2.25-1.481 2.25-9.096 0-8.678 26.529.542 34.421 5.258 4.501 28.524 12.144 26.373 8.663-.86-1.392.979-4.69 3.061-5.489 2.985-1.145 5.311.411 6.344 4.243l1.001 3.718 13.921 1.753c22.111 2.783 29.121 5.242 29.121 10.214 0 6.009 15.33 1.711 18.856-5.286l1.883-3.737-2.619-2.609c-6.158-6.133-9.799-7.212-13.12-3.891-4.004 4.004-10.766.58-9.671-4.897l.538-2.689-18.683-3.824c-44.67-9.143-52.137-13.284-55.162-30.59-.433-2.475-.84-3.487-.904-2.25m12.695 1.933c.721.289 1.584.253 1.916-.079s-.258-.568-1.312-.525c-1.165.048-1.402.285-.604.604m-3.408 1.472c-.443.715-.275.883.44.44.635-.392 1.155-.911 1.155-1.154 0-.834-.883-.439-1.595.714m7.095-.155c.34.55.843 1 1.118 1s.222-.45-.118-1-.843-1-1.118-1-.222.45.118 1m-8.5 3c0 .733.3 1.033.667.667.366-.367.366-.967 0-1.334-.367-.366-.667-.066-.667.667m10.079.583c.048 1.165.285 1.402.604.605.289-.722.253-1.585-.079-1.917s-.568.258-.525 1.312m-34.746 18.084c.367.366.967.366 1.334 0 .366-.367.066-.667-.667-.667s-1.033.3-.667.667m-17.91 4.895c-7.942 20.797 17.238 40.674 49.577 39.135 18.492-.881 18.265-3.131-1-9.925-23.352-8.234-41.175-20.651-43.619-30.389-1.021-4.071-3.146-3.566-4.958 1.179m22.077-3.562c.34.55.843 1 1.118 1s.222-.45-.118-1-.843-1-1.118-1-.222.45.118 1m-4.75 10.662c.688.278 1.813.278 2.5 0 .688-.277.125-.504-1.25-.504s-1.937.227-1.25.504" fill="#ffcc4d" transform="matrix(2.54017 1.01318 -1.01318 2.54017 374.513 100.669)"/></svg>