<?xml version="1.0" encoding="UTF-8" standalone="no"?>
<!DOCTYPE svg PUBLIC "-//W3C//DTD SVG 1.1//EN" "http://www.w3.org/Graphics/SVG/1.1/DTD/svg11.dtd">
<svg width="100%" height="100%" viewBox="0 0 1024 1024" version="1.1" xmlns="http://www.w3.org/2000/svg" xmlns:xlink="http://www.w3.org/1999/xlink" xml:space="preserve" xmlns:serif="http://www.serif.com/" style="fill-rule:evenodd;clip-rule:evenodd;stroke-linejoin:round;stroke-miterlimit:2;">
    <g transform="matrix(2.54017,1.01318,-1.01318,2.54017,374.513,100.669)">
        <path d="M74.405,23.155C73.962,23.87 74.13,24.038 74.845,23.595C75.48,23.203 76,22.684 76,22.441C76,21.607 75.117,22.002 74.405,23.155M36.405,62.155C35.962,62.87 36.13,63.038 36.845,62.595C37.998,61.883 38.393,61 37.559,61C37.316,61 36.797,61.52 36.405,62.155M154,82C154,82.733 154.3,83.033 154.667,82.667C155.033,82.3 155.033,81.7 154.667,81.333C154.3,80.967 154,81.267 154,82M85,95C82.592,97.408 82.553,97.917 84.557,100.777C87.33,104.736 93,103.121 93,98.371C93,93.549 88.393,91.607 85,95" style="fill:rgb(120,177,84);"/>
        <path d="M38.566,80.328C36.477,81.856 36.168,86.293 37.997,88.497C39.958,90.859 44.706,90.378 46.504,87.635C49.99,82.315 43.73,76.552 38.566,80.328" style="fill:rgb(221,46,65);"/>
        <path d="M68.011,57.487C64.876,61.264 70.736,67.124 74.513,63.989C76.304,62.503 76.458,58.858 74.8,57.2C73.142,55.542 69.497,55.696 68.011,57.487M30,109.5C31.292,110.875 32.574,112 32.849,112C33.124,112 32.292,110.875 31,109.5C29.708,108.125 28.426,107 28.151,107C27.876,107 28.708,108.125 30,109.5M150,114C149.099,114.582 148.975,114.975 149.691,114.985C150.346,114.993 151.16,114.55 151.5,114C152.267,112.758 151.921,112.758 150,114M140.269,116.693C141.242,116.947 142.592,116.93 143.269,116.656C143.946,116.382 143.15,116.175 141.5,116.195C139.85,116.215 139.296,116.439 140.269,116.693M131.405,122.25L129.5,124.5L131.75,122.595C132.988,121.547 134,120.535 134,120.345C134,119.545 133.195,120.136 131.405,122.25M52.333,121.667C52.7,122.033 53.3,122.033 53.667,121.667C54.033,121.3 53.733,121 53,121C52.267,121 51.967,121.3 52.333,121.667M85.813,121.683C86.534,121.972 87.397,121.936 87.729,121.604C88.061,121.272 87.471,121.036 86.417,121.079C85.252,121.127 85.015,121.364 85.813,121.683M58.333,122.667C58.7,123.033 59.3,123.033 59.667,122.667C60.033,122.3 59.733,122 59,122C58.267,122 57.967,122.3 58.333,122.667M79.333,122.667C79.7,123.033 80.3,123.033 80.667,122.667C81.033,122.3 80.733,122 80,122C79.267,122 78.967,122.3 79.333,122.667M65.25,123.689C66.213,123.941 67.787,123.941 68.75,123.689C69.713,123.438 68.925,123.232 67,123.232C65.075,123.232 64.287,123.438 65.25,123.689" style="fill:rgb(247,146,16);"/>
        <path d="M135.25,88.662C134.563,88.94 134,89.804 134,90.583C134,91.362 133.55,92 133,92C131.264,92 131.917,95.917 134,98C137.886,101.886 143.333,99.552 143.333,94C143.333,89.391 139.583,86.914 135.25,88.662" style="fill:rgb(169,140,216);"/>
        <path d="M68.872,27.75C67.629,29.336 67.664,29.371 69.25,28.128C70.916,26.821 71.445,26 70.622,26C70.415,26 69.627,26.788 68.872,27.75M47,83C47,83.733 47.3,84.033 47.667,83.667C48.033,83.3 48.033,82.7 47.667,82.333C47.3,81.967 47,82.267 47,83M36,86C36,86.733 36.3,87.033 36.667,86.667C37.033,86.3 37.033,85.7 36.667,85.333C36.3,84.967 36,85.267 36,86M157.632,105.511C156.734,106.408 156,107.702 156,108.384C156,112.376 144.955,117.754 139.166,116.582C136.924,116.128 136.081,116.651 133.863,119.875C126.703,130.285 111.623,131.884 94.721,124.025C91.379,122.471 88.162,121.367 87.572,121.571C70.603,127.462 38.342,120.15 29.021,108.3C25.534,103.867 19.106,110.844 18.224,120.017L17.746,124.998L23.319,127.463C31.528,131.093 47.369,134.985 56.5,135.616C60.9,135.92 65.175,136.441 66,136.774C69.956,138.372 89.899,139.484 91.809,138.213C93.315,137.211 94.31,137.184 96.3,138.091C98.244,138.977 101.93,138.978 111.678,138.096C135.506,135.942 148.103,133.492 162.25,128.263L169,125.768L169,121.344C169,113.225 161.025,102.118 157.632,105.511M59.333,137.667C59.7,138.033 60.3,138.033 60.667,137.667C61.033,137.3 60.733,137 60,137C59.267,137 58.967,137.3 59.333,137.667M126.333,137.667C126.7,138.033 127.3,138.033 127.667,137.667C128.033,137.3 127.733,137 127,137C126.267,137 125.967,137.3 126.333,137.667M63.333,228.667C63.7,229.033 64.3,229.033 64.667,228.667C65.033,228.3 64.733,228 64,228C63.267,228 62.967,228.3 63.333,228.667" style="fill:rgb(192,104,78);"/>
        <path d="M169.195,121.5C169.215,123.15 169.439,123.704 169.693,122.731C169.947,121.758 169.93,120.408 169.656,119.731C169.382,119.054 169.175,119.85 169.195,121.5M18,125.605C18,129.863 25.306,136.4 35.604,141.357L43.618,145.214L51.876,141.062L60.133,136.911L68.572,141.51L77.01,146.11L83.132,142.66L89.255,139.21L78.377,138.488C72.395,138.09 67.05,137.429 66.5,137.019C65.95,136.608 61.675,136.004 57,135.676C47.492,135.009 31.706,131.171 23.447,127.519C20.451,126.194 18,125.333 18,125.605M158,129.533C145.274,133.944 126.438,137.333 107.641,138.593L97.781,139.254L104.076,142.617L110.371,145.981L118.691,141.482L127.012,136.983L135.214,141.108L143.417,145.232L150.725,141.616C154.745,139.627 158.491,138 159.05,138C160.519,138 165.705,132.471 167.509,128.983C169.339,125.443 169.89,125.411 158,129.533" style="fill:rgb(150,72,50);"/>
    </g>
    <g transform="matrix(2.19509,0.87554,-0.954674,2.39348,399.562,119.972)">
        <path d="M96.831,3.014C73.79,6.948 46.045,29.401 45.995,44.153C45.993,44.894 42.28,47.399 37.745,49.719C18.556,59.538 4.195,84.692 7.904,101.987C8.954,106.884 8.844,107.619 6.278,112.864C1.032,123.586 2.913,136.789 11.172,147.217C14.827,151.832 16.034,155.842 25.4,194.51C34.178,230.749 34.42,231.101 53.244,234.963C70.258,238.455 87.938,240.21 98.286,239.434C101.704,239.178 107.2,238.779 110.5,238.547C121.372,237.784 138.522,234.609 143.986,232.348C152.494,228.826 154.516,224.855 160.468,199.978C169.03,164.188 172.915,150.702 175.44,148.006C183.25,139.662 186.178,122.702 181.375,113.62C179.495,110.065 179.44,109.401 180.719,105.689C183.109,98.752 180.817,90.749 174.507,84C171.452,80.732 171.202,79.926 170.734,71.844C169.625,52.68 156.954,38.846 136.896,34.9L130.902,33.721L131.595,30.61C134.375,18.122 124.919,6.014 110.5,3.601C102.592,2.278 101.434,2.228 96.831,3.014M86.898,10.34C69.417,16.992 56.066,29.979 52.083,44.204C50.934,48.306 50.487,48.688 42.19,52.663C31.81,57.635 25.948,63.011 21.986,71.189C20.382,74.502 18.601,77.776 18.029,78.465C13.783,83.581 12.29,94.257 14.804,101.528C16.522,106.497 16.516,106.595 14.28,109.913C7.455,120.04 8.275,131.397 16.559,141.506C20.298,146.069 22.824,154.518 32.029,193.232C39.04,222.722 39.175,222.961 50.565,225.976C75.167,232.489 110.494,232.671 135.408,226.413C147.509,223.373 148.254,222.184 154.528,195.899C164.223,155.286 167.027,145.838 170.649,141.579C178.175,132.732 179.582,122.703 174.687,112.812C172.436,108.262 172.285,107.341 173.425,105.074C176.876,98.211 174.565,89.93 167.661,84.421C164.126,81.6 164.116,81.568 164.698,75.334C166.499,56.045 155.268,43.578 131,37.928C118.981,35.129 116.885,34.178 119.59,32.75C141.801,21.022 112.181,0.718 86.898,10.34"/>
    </g>
    <g transform="matrix(2.54017,1.01318,-1.01318,2.54017,374.513,100.669)">
        <path d="M96.78,13.046C88.289,14.448 67.017,26.506 70.805,27.768C71.468,27.989 74.595,30.732 77.755,33.863C84.801,40.845 92.275,44.779 115,53.468C140.361,63.165 149.218,68.903 153.06,78.124L154.466,81.5L155.115,78.5C159.394,58.709 151.754,48.337 129,43.046C106.799,37.883 95.269,22 113.723,22C118.418,22 118.758,21.527 116.439,18.217C113.262,13.68 105.423,11.618 96.78,13.046M125.079,26.583C125.127,27.748 125.364,27.985 125.683,27.188C125.972,26.466 125.936,25.603 125.604,25.271C125.272,24.939 125.036,25.529 125.079,26.583M61.123,40.935C55.513,53.977 60.309,69.158 71.84,74.861C81.305,79.542 128.678,91.087 129.998,89.035C131.262,87.07 140.496,88.09 143.25,90.499C145.832,92.757 147.185,95.85 145,94.5C144.45,94.16 144,94.302 144,94.816C144,95.33 145.294,96.009 146.876,96.325C148.458,96.642 151.446,98.498 153.516,100.45C161.046,107.552 171.381,98.839 165.019,90.751C159.985,84.352 133.012,75.147 121.25,75.814C119.463,75.916 118,75.549 118,74.999C118,74.45 117.404,74 116.675,74C108.876,74 77.722,52.832 70,42.285C64.514,34.794 63.811,34.687 61.123,40.935M140.333,40.667C140.7,41.033 141.3,41.033 141.667,40.667C142.033,40.3 141.733,40 141,40C140.267,40 139.967,40.3 140.333,40.667M53.699,53.536C42.636,57.596 32.994,64.333 30.51,69.74C29.559,71.808 28.15,74.819 27.377,76.432C26.604,78.045 26.367,79.62 26.851,79.932C27.335,80.244 28.032,81.467 28.4,82.649C31.506,92.607 48.706,104.503 72,112.804C76.675,114.47 83.973,117.829 88.218,120.269C107.859,131.56 123.496,131.417 133.393,119.854C141.784,110.051 136.845,107.008 106.106,103.043C98.496,102.062 92.081,101.666 91.55,102.144C90.012,103.53 84.985,103.123 84.387,101.565C84.084,100.776 81.511,99.641 78.668,99.042C58.379,94.77 49.66,87.396 49.648,74.5C49.642,67.872 54.126,56 56.637,56C57.386,56 58,55.1 58,54C58,52.9 57.888,52.032 57.75,52.07C57.612,52.109 55.79,52.769 53.699,53.536M68,57C65.592,59.408 65.553,59.917 67.557,62.777C70.157,66.49 77,64.788 77,60.429C77,58.548 73.405,55 71.5,55C70.675,55 69.1,55.9 68,57M39.228,79.24C34.609,81.446 35.474,89.328 40.473,90.583C44.119,91.498 48,88.706 48,85.168C48,80.037 43.677,77.115 39.228,79.24M42.333,223.667C42.7,224.033 43.3,224.033 43.667,223.667C44.033,223.3 43.733,223 43,223C42.267,223 41.967,223.3 42.333,223.667" style="fill:rgb(255,231,181);"/>
    </g>
    <g transform="matrix(2.54017,1.01318,-1.01318,2.54017,374.513,100.669)">
        <path d="M67.323,30.25C64.132,33.794 63.839,34.783 65.408,36.703C66.216,37.691 68.712,40.859 70.955,43.742C77.077,51.61 87.214,59.427 99.339,65.629L110.199,71.184L109.561,68.276C108.055,61.421 116.626,57.167 120.927,62.635C123.643,66.087 123.545,68.546 120.572,71.518L118.145,73.946L121.822,74.969C131.361,77.621 153.135,82.199 153.669,81.664C159.013,76.32 141.644,63.656 115,53.468C92.192,44.748 84.809,40.853 77.67,33.778C71.175,27.341 70.231,27.019 67.323,30.25M58.118,53.75C58.053,54.987 57.386,56 56.637,56C47.541,56 47.959,82.529 57.179,90.421C62.437,94.922 85.703,102.565 83.552,99.084C82.692,97.692 84.531,94.394 86.613,93.595C89.598,92.45 91.924,94.006 92.957,97.838L93.958,101.556L107.879,103.309C129.99,106.092 137,108.551 137,113.523C137,119.532 152.33,115.234 155.856,108.237L157.739,104.5L155.12,101.891C148.962,95.758 145.321,94.679 142,98C137.996,102.004 131.234,98.58 132.329,93.103L132.867,90.414L114.184,86.59C69.514,77.447 62.047,73.306 59.022,56C58.589,53.525 58.182,52.513 58.118,53.75M70.813,55.683C71.534,55.972 72.397,55.936 72.729,55.604C73.061,55.272 72.471,55.036 71.417,55.079C70.252,55.127 70.015,55.364 70.813,55.683M67.405,57.155C66.962,57.87 67.13,58.038 67.845,57.595C68.48,57.203 69,56.684 69,56.441C69,55.607 68.117,56.002 67.405,57.155M74.5,57C74.84,57.55 75.343,58 75.618,58C75.893,58 75.84,57.55 75.5,57C75.16,56.45 74.657,56 74.382,56C74.107,56 74.16,56.45 74.5,57M66,60C66,60.733 66.3,61.033 66.667,60.667C67.033,60.3 67.033,59.7 66.667,59.333C66.3,58.967 66,59.267 66,60M76.079,60.583C76.127,61.748 76.364,61.985 76.683,61.188C76.972,60.466 76.936,59.603 76.604,59.271C76.272,58.939 76.036,59.529 76.079,60.583M41.333,78.667C41.7,79.033 42.3,79.033 42.667,78.667C43.033,78.3 42.733,78 42,78C41.267,78 40.967,78.3 41.333,78.667M23.423,83.562C15.481,104.359 40.661,124.236 73,122.697C91.492,121.816 91.265,119.566 72,112.772C48.648,104.538 30.825,92.121 28.381,82.383C27.36,78.312 25.235,78.817 23.423,83.562M45.5,80C45.84,80.55 46.343,81 46.618,81C46.893,81 46.84,80.55 46.5,80C46.16,79.45 45.657,79 45.382,79C45.107,79 45.16,79.45 45.5,80M40.75,90.662C41.438,90.94 42.563,90.94 43.25,90.662C43.938,90.385 43.375,90.158 42,90.158C40.625,90.158 40.063,90.385 40.75,90.662" style="fill:rgb(255,204,77);"/>
    </g>
    <g transform="matrix(2.54017,1.01318,-1.01318,2.54017,374.513,100.669)">
        <path d="M96.78,13.046C88.289,14.448 67.017,26.506 70.805,27.768C71.468,27.989 74.595,30.732 77.755,33.863C84.801,40.845 92.275,44.779 115,53.468C140.361,63.165 149.218,68.903 153.06,78.124L154.466,81.5L155.115,78.5C159.394,58.709 151.754,48.337 129,43.046C106.799,37.883 95.269,22 113.723,22C118.418,22 118.758,21.527 116.439,18.217C113.262,13.68 105.423,11.618 96.78,13.046M125.079,26.583C125.127,27.748 125.364,27.985 125.683,27.188C125.972,26.466 125.936,25.603 125.604,25.271C125.272,24.939 125.036,25.529 125.079,26.583M61.123,40.935C55.513,53.977 60.309,69.158 71.84,74.861C81.305,79.542 128.678,91.087 129.998,89.035C131.262,87.07 140.496,88.09 143.25,90.499C145.832,92.757 147.185,95.85 145,94.5C144.45,94.16 144,94.302 144,94.816C144,95.33 145.294,96.009 146.876,96.325C148.458,96.642 151.446,98.498 153.516,100.45C161.046,107.552 171.381,98.839 165.019,90.751C159.985,84.352 133.012,75.147 121.25,75.814C119.463,75.916 118,75.549 118,74.999C118,74.45 117.404,74 116.675,74C108.876,74 77.722,52.832 70,42.285C64.514,34.794 63.811,34.687 61.123,40.935M140.333,40.667C140.7,41.033 141.3,41.033 141.667,40.667C142.033,40.3 141.733,40 141,40C140.267,40 139.967,40.3 140.333,40.667M53.699,53.536C42.636,57.596 32.994,64.333 30.51,69.74C29.559,71.808 28.15,74.819 27.377,76.432C26.604,78.045 26.367,79.62 26.851,79.932C27.335,80.244 28.032,81.467 28.4,82.649C31.506,92.607 48.706,104.503 72,112.804C76.675,114.47 83.973,117.829 88.218,120.269C107.859,131.56 123.496,131.417 133.393,119.854C141.784,110.051 136.845,107.008 106.106,103.043C98.496,102.062 92.081,101.666 91.55,102.144C90.012,103.53 84.985,103.123 84.387,101.565C84.084,100.776 81.511,99.641 78.668,99.042C58.379,94.77 49.66,87.396 49.648,74.5C49.642,67.872 54.126,56 56.637,56C57.386,56 58,55.1 58,54C58,52.9 57.888,52.032 57.75,52.07C57.612,52.109 55.79,52.769 53.699,53.536M68,57C65.592,59.408 65.553,59.917 67.557,62.777C70.157,66.49 77,64.788 77,60.429C77,58.548 73.405,55 71.5,55C70.675,55 69.1,55.9 68,57M39.228,79.24C34.609,81.446 35.474,89.328 40.473,90.583C44.119,91.498 48,88.706 48,85.168C48,80.037 43.677,77.115 39.228,79.24M42.333,223.667C42.7,224.033 43.3,224.033 43.667,223.667C44.033,223.3 43.733,223 43,223C42.267,223 41.967,223.3 42.333,223.667" style="fill:rgb(255,231,181);"/>
    </g>
    <g transform="matrix(2.54017,1.01318,-1.01318,2.54017,374.513,100.669)">
        <path d="M67.323,30.25C64.132,33.794 63.839,34.783 65.408,36.703C66.216,37.691 68.712,40.859 70.955,43.742C77.077,51.61 87.214,59.427 99.339,65.629L110.199,71.184L109.561,68.276C108.055,61.421 116.626,57.167 120.927,62.635C123.643,66.087 123.545,68.546 120.572,71.518L118.145,73.946L121.822,74.969C131.361,77.621 153.135,82.199 153.669,81.664C159.013,76.32 141.644,63.656 115,53.468C92.192,44.748 84.809,40.853 77.67,33.778C71.175,27.341 70.231,27.019 67.323,30.25M58.118,53.75C58.053,54.987 57.386,56 56.637,56C47.541,56 47.959,82.529 57.179,90.421C62.437,94.922 85.703,102.565 83.552,99.084C82.692,97.692 84.531,94.394 86.613,93.595C89.598,92.45 91.924,94.006 92.957,97.838L93.958,101.556L107.879,103.309C129.99,106.092 137,108.551 137,113.523C137,119.532 152.33,115.234 155.856,108.237L157.739,104.5L155.12,101.891C148.962,95.758 145.321,94.679 142,98C137.996,102.004 131.234,98.58 132.329,93.103L132.867,90.414L114.184,86.59C69.514,77.447 62.047,73.306 59.022,56C58.589,53.525 58.182,52.513 58.118,53.75M70.813,55.683C71.534,55.972 72.397,55.936 72.729,55.604C73.061,55.272 72.471,55.036 71.417,55.079C70.252,55.127 70.015,55.364 70.813,55.683M67.405,57.155C66.962,57.87 67.13,58.038 67.845,57.595C68.48,57.203 69,56.684 69,56.441C69,55.607 68.117,56.002 67.405,57.155M74.5,57C74.84,57.55 75.343,58 75.618,58C75.893,58 75.84,57.55 75.5,57C75.16,56.45 74.657,56 74.382,56C74.107,56 74.16,56.45 74.5,57M66,60C66,60.733 66.3,61.033 66.667,60.667C67.033,60.3 67.033,59.7 66.667,59.333C66.3,58.967 66,59.267 66,60M76.079,60.583C76.127,61.748 76.364,61.985 76.683,61.188C76.972,60.466 76.936,59.603 76.604,59.271C76.272,58.939 76.036,59.529 76.079,60.583M41.333,78.667C41.7,79.033 42.3,79.033 42.667,78.667C43.033,78.3 42.733,78 42,78C41.267,78 40.967,78.3 41.333,78.667M23.423,83.562C15.481,104.359 40.661,124.236 73,122.697C91.492,121.816 91.265,119.566 72,112.772C48.648,104.538 30.825,92.121 28.381,82.383C27.36,78.312 25.235,78.817 23.423,83.562M45.5,80C45.84,80.55 46.343,81 46.618,81C46.893,81 46.84,80.55 46.5,80C46.16,79.45 45.657,79 45.382,79C45.107,79 45.16,79.45 45.5,80M40.75,90.662C41.438,90.94 42.563,90.94 43.25,90.662C43.938,90.385 43.375,90.158 42,90.158C40.625,90.158 40.063,90.385 40.75,90.662" style="fill:rgb(255,204,77);"/>
    </g>
    <g transform="matrix(2.54017,1.01318,-1.01318,2.54017,374.513,100.669)">
        <path d="M96.78,13.046C88.289,14.448 67.017,26.506 70.805,27.768C71.468,27.989 74.595,30.732 77.755,33.863C84.801,40.845 92.275,44.779 115,53.468C140.361,63.165 149.218,68.903 153.06,78.124L154.466,81.5L155.115,78.5C159.394,58.709 151.754,48.337 129,43.046C106.799,37.883 95.269,22 113.723,22C118.418,22 118.758,21.527 116.439,18.217C113.262,13.68 105.423,11.618 96.78,13.046M125.079,26.583C125.127,27.748 125.364,27.985 125.683,27.188C125.972,26.466 125.936,25.603 125.604,25.271C125.272,24.939 125.036,25.529 125.079,26.583M61.123,40.935C55.513,53.977 60.309,69.158 71.84,74.861C81.305,79.542 128.678,91.087 129.998,89.035C131.262,87.07 140.496,88.09 143.25,90.499C145.832,92.757 147.185,95.85 145,94.5C144.45,94.16 144,94.302 144,94.816C144,95.33 145.294,96.009 146.876,96.325C148.458,96.642 151.446,98.498 153.516,100.45C161.046,107.552 171.381,98.839 165.019,90.751C159.985,84.352 133.012,75.147 121.25,75.814C119.463,75.916 118,75.549 118,74.999C118,74.45 117.404,74 116.675,74C108.876,74 77.722,52.832 70,42.285C64.514,34.794 63.811,34.687 61.123,40.935M140.333,40.667C140.7,41.033 141.3,41.033 141.667,40.667C142.033,40.3 141.733,40 141,40C140.267,40 139.967,40.3 140.333,40.667M53.699,53.536C47.692,55.74 42.104,58.734 37.854,61.876C34.276,64.52 31.645,67.269 30.51,69.74C29.559,71.808 28.15,74.819 27.377,76.432C26.604,78.045 26.367,79.62 26.851,79.932C27.335,80.244 28.032,81.467 28.4,82.649C31.506,92.607 48.706,104.503 72,112.804C76.675,114.47 83.973,117.829 88.218,120.269C107.859,131.56 123.496,131.417 133.393,119.854C141.784,110.051 136.845,107.008 106.106,103.043C98.496,102.062 92.081,101.666 91.55,102.144C90.012,103.53 84.985,103.123 84.387,101.565C84.084,100.776 81.511,99.641 78.668,99.042C58.379,94.77 49.66,87.396 49.648,74.5C49.642,67.872 54.126,56 56.637,56C57.386,56 58,55.1 58,54C58,52.9 57.888,52.032 57.75,52.07C57.612,52.109 55.79,52.769 53.699,53.536M68,57C65.592,59.408 65.553,59.917 67.557,62.777C70.157,66.49 77,64.788 77,60.429C77,58.548 73.405,55 71.5,55C70.675,55 69.1,55.9 68,57M39.228,79.24C34.609,81.446 35.474,89.328 40.473,90.583C44.119,91.498 48,88.706 48,85.168C48,80.037 43.677,77.115 39.228,79.24M42.333,223.667C42.7,224.033 43.3,224.033 43.667,223.667C44.033,223.3 43.733,223 43,223C42.267,223 41.967,223.3 42.333,223.667" style="fill:rgb(255,231,181);"/>
    </g>
    <g transform="matrix(2.54017,1.01318,-1.01318,2.54017,374.513,100.669)">
        <path d="M67.323,30.25C64.132,33.794 63.839,34.783 65.408,36.703C66.216,37.691 68.712,40.859 70.955,43.742C77.077,51.61 87.214,59.427 99.339,65.629L110.199,71.184L109.561,68.276C108.055,61.421 116.626,57.167 120.927,62.635C123.643,66.087 123.545,68.546 120.572,71.518L118.145,73.946L121.822,74.969C131.361,77.621 153.135,82.199 153.669,81.664C159.013,76.32 141.644,63.656 115,53.468C92.192,44.748 84.809,40.853 77.67,33.778C71.175,27.341 70.231,27.019 67.323,30.25M58.118,53.75C58.053,54.987 57.386,56 56.637,56C47.541,56 47.959,82.529 57.179,90.421C62.437,94.922 85.703,102.565 83.552,99.084C82.692,97.692 84.531,94.394 86.613,93.595C89.598,92.45 91.924,94.006 92.957,97.838L93.958,101.556L107.879,103.309C129.99,106.092 137,108.551 137,113.523C137,119.532 152.33,115.234 155.856,108.237L157.739,104.5L155.12,101.891C148.962,95.758 145.321,94.679 142,98C137.996,102.004 131.234,98.58 132.329,93.103L132.867,90.414L114.184,86.59C69.514,77.447 62.047,73.306 59.022,56C58.589,53.525 58.182,52.513 58.118,53.75M70.813,55.683C71.534,55.972 72.397,55.936 72.729,55.604C73.061,55.272 72.471,55.036 71.417,55.079C70.252,55.127 70.015,55.364 70.813,55.683M67.405,57.155C66.962,57.87 67.13,58.038 67.845,57.595C68.48,57.203 69,56.684 69,56.441C69,55.607 68.117,56.002 67.405,57.155M74.5,57C74.84,57.55 75.343,58 75.618,58C75.893,58 75.84,57.55 75.5,57C75.16,56.45 74.657,56 74.382,56C74.107,56 74.16,56.45 74.5,57M66,60C66,60.733 66.3,61.033 66.667,60.667C67.033,60.3 67.033,59.7 66.667,59.333C66.3,58.967 66,59.267 66,60M76.079,60.583C76.127,61.748 76.364,61.985 76.683,61.188C76.972,60.466 76.936,59.603 76.604,59.271C76.272,58.939 76.036,59.529 76.079,60.583M41.333,78.667C41.7,79.033 42.3,79.033 42.667,78.667C43.033,78.3 42.733,78 42,78C41.267,78 40.967,78.3 41.333,78.667M23.423,83.562C15.481,104.359 40.661,124.236 73,122.697C91.492,121.816 91.265,119.566 72,112.772C48.648,104.538 30.825,92.121 28.381,82.383C27.36,78.312 25.235,78.817 23.423,83.562M45.5,80C45.84,80.55 46.343,81 46.618,81C46.893,81 46.84,80.55 46.5,80C46.16,79.45 45.657,79 45.382,79C45.107,79 45.16,79.45 45.5,80M40.75,90.662C41.438,90.94 42.563,90.94 43.25,90.662C43.938,90.385 43.375,90.158 42,90.158C40.625,90.158 40.063,90.385 40.75,90.662" style="fill:rgb(255,204,77);"/>
    </g>
    <path d="M297.272,439.85C297.272,504.348 300.708,568.441 292.365,632.557C290.339,648.125 286.625,663.404 283.861,678.849C282.277,687.698 279.442,694.159 286.091,701.318C299.216,715.449 325.887,719.434 342.869,727.484C359.043,735.15 375.029,743.209 390.9,751.478C402.404,757.471 414.599,765.565 427.398,769.002C443.251,773.259 461.242,772.115 477.452,772.684C491.189,773.166 503.594,771.081 517.104,768.16C522.466,767.001 529.15,766.65 533.883,763.606C546.466,755.517 552.69,741.435 558.526,728.264C565.16,713.294 572.171,698.251 579.792,683.76C587.321,669.445 597.38,657.761 608.081,645.787C611.646,641.798 620.414,635.436 622.066,630.17C623.214,626.512 623.147,622.552 624.69,618.845C628.631,609.37 636.416,608.268 631.994,597.525C631.447,596.198 630.802,594.908 630.084,593.665C620.936,577.855 601.936,569.896 585.361,564.547C565.527,558.147 544.605,554.177 523.754,553.184C503.677,552.227 483.504,554.194 463.768,549.288C445.575,544.767 426.981,536.348 411.608,525.522C403.561,519.855 396.809,512.493 388.588,507.074C377.461,499.739 309.193,445.768 297.272,439.85Z" style="fill:rgb(150,72,50);"/>
    <path d="M297.416,439.559C309.342,445.479 377.636,499.465 388.767,506.802C396.99,512.223 403.745,519.588 411.795,525.256C427.136,536.059 445.692,544.461 463.846,548.973C483.562,553.873 503.714,551.903 523.77,552.859C544.649,553.854 565.6,557.829 585.461,564.238C602.107,569.61 621.178,577.624 630.365,593.503C631.091,594.758 631.742,596.061 632.294,597.402C633.655,600.706 633.877,603.123 633.429,605.147C632.981,607.168 631.859,608.803 630.493,610.542C628.729,612.786 626.553,615.212 624.99,618.97C623.451,622.668 623.521,626.618 622.376,630.267C621.703,632.413 619.88,634.743 617.691,637.019C614.469,640.369 610.461,643.613 608.324,646.004C597.64,657.958 587.596,669.62 580.08,683.911C572.462,698.396 565.454,713.432 558.823,728.396C552.962,741.623 546.696,755.755 534.059,763.88C529.294,766.943 522.57,767.311 517.173,768.478C503.635,771.405 491.205,773.492 477.44,773.009C461.206,772.439 443.19,773.579 427.314,769.316C414.492,765.873 402.274,757.769 390.75,751.766C374.882,743.499 358.9,735.442 342.73,727.778C334.247,723.757 323.344,720.752 312.923,716.987C302.44,713.199 292.447,708.639 285.853,701.539C281.783,697.157 281.193,693.031 281.724,688.481C282.071,685.502 282.906,682.338 283.541,678.792C286.304,663.352 290.017,648.078 292.042,632.515C300.384,568.413 296.947,504.334 296.947,439.85C296.947,439.738 297.005,439.633 297.101,439.574C297.196,439.515 297.316,439.509 297.416,439.559ZM297.597,440.383C297.616,504.716 301.009,568.646 292.687,632.599C290.66,648.172 286.945,663.456 284.181,678.906C283.548,682.438 282.716,685.59 282.37,688.557C281.86,692.926 282.421,696.889 286.329,701.096C292.859,708.127 302.764,712.625 313.144,716.376C323.585,720.148 334.509,723.162 343.008,727.19C359.186,734.858 375.175,742.919 391.05,751.19C402.534,757.172 414.705,765.257 427.482,768.688C443.312,772.938 461.277,771.791 477.463,772.359C491.173,772.84 503.552,770.758 517.035,767.842C522.362,766.691 529.005,766.356 533.708,763.333C546.236,755.278 552.418,741.246 558.229,728.132C564.866,713.156 571.88,698.106 579.505,683.609C587.046,669.27 597.12,657.565 607.839,645.571C609.98,643.175 613.995,639.924 617.222,636.568C619.332,634.374 621.107,632.141 621.756,630.073C622.907,626.406 622.843,622.437 624.389,618.72C625.98,614.897 628.187,612.423 629.982,610.14C631.284,608.483 632.367,606.933 632.794,605.007C633.22,603.083 632.986,600.79 631.693,597.649C631.152,596.335 630.514,595.058 629.802,593.828C620.695,578.087 601.764,570.182 585.261,564.857C565.454,558.465 544.561,554.501 523.739,553.508C503.641,552.551 483.447,554.514 463.689,549.604C445.459,545.073 426.826,536.636 411.42,525.788C403.376,520.123 396.627,512.762 388.409,507.345C377.424,500.104 310.729,447.389 297.597,440.383Z"/>
</svg>
