<svg clip-rule="evenodd" fill-rule="evenodd" stroke-linecap="round" stroke-linejoin="round" stroke-miterlimit="10" viewBox="0 0 1024 1024" xmlns="http://www.w3.org/2000/svg"><path d="m17.2 18.1c-2.9-.6-6.8-.6-8.2 2-1.9 3.3 1.1 4.9 2.9 3.2s-1.6-6-8-3.8" fill="none" stroke="#45413c" transform="matrix(16.7727 0 0 16.7727 139.662 116.488)"/><circle cx="34.7" cy="38.8" fill="#9f5ae5" r="5.1" transform="matrix(13.9364 -9.33401 9.33401 13.9364 -124.11 550.216)"/><path d="m39.4 37c-.2.2-.4.3-.6.5-1.1.7-2.4 1.1-3.6 1.1-.3 1.6-1.2 3.1-2.7 4.2-.2.2-.5.3-.8.4-.5-.4-1-.8-1.4-1.4-1.2-1.8-1.1-4 0-5.7.4-.5.8-1 1.4-1.4.7-.5 1.5-.8 2.3-.8 1.8-.2 3.7.6 4.8 2.2.3.2.5.5.6.9z" fill="#803ec2" fill-rule="nonzero" transform="matrix(16.7727 0 0 16.7727 139.662 116.488)"/><circle cx="34.7" cy="38.8" fill="none" r="5.1" stroke="#45413c" transform="matrix(13.9364 -9.33401 9.33401 13.9364 -124.11 550.216)"/><circle cx="27.2" cy="18.5" fill="#803ec2" r="5.7" stroke="#45413c" transform="matrix(13.9364 -9.33401 9.33401 13.9364 44.4603 422.965)"/><circle cx="18.7" cy="24.2" fill="#9f5ae5" r="5.7" transform="matrix(13.9359 -9.3335 9.3335 13.9359 -32.7273 359.715)"/><path d="m15.6 22.4c2.6-1.7 6.1-1 7.9 1.6.4.5.6 1.1.8 1.7.4-1.5.2-3.2-.8-4.7-1.7-2.6-5.3-3.3-7.9-1.6-2.1 1.4-2.9 3.9-2.3 6.2.3-1.2 1.1-2.4 2.3-3.2z" fill="#bf8df2" fill-rule="nonzero" transform="matrix(16.7727 0 0 16.7727 139.662 116.488)"/><circle cx="18.7" cy="24.2" fill="none" r="5.7" stroke="#45413c" transform="matrix(13.9359 -9.3335 9.3335 13.9359 -32.7273 359.715)"/><circle cx="17.9" cy="32.2" fill="#9f5ae5" r="5.7" transform="matrix(13.9359 -9.3335 9.3335 13.9359 -110.075 375.364)"/><path d="m14.8 30.8c2.6-1.7 6.1-1 7.9 1.6.3.5.6 1 .7 1.5.5-1.6.3-3.3-.7-4.8-1.7-2.6-5.3-3.3-7.9-1.6-2.1 1.4-3 4-2.3 6.4.4-1.3 1.1-2.4 2.3-3.1z" fill="#bf8df2" fill-rule="nonzero" transform="matrix(16.7727 0 0 16.7727 139.662 116.488)"/><circle cx="17.9" cy="32.2" fill="none" r="5.7" stroke="#45413c" transform="matrix(13.9359 -9.3335 9.3335 13.9359 -110.075 375.364)"/><circle cx="33.7" cy="21" fill="#9f5ae5" r="5.7" transform="matrix(13.9364 -9.33401 9.33401 13.9364 39.3967 490.484)"/><path d="m30.5 19.4c2.6-1.7 6.1-1 7.9 1.6.3.5.6 1 .7 1.6.5-1.6.2-3.3-.7-4.8-1.7-2.6-5.3-3.3-7.9-1.6-2.1 1.4-3 4-2.3 6.3.4-1.2 1.2-2.3 2.3-3.1z" fill="#bf8df2" fill-rule="nonzero" transform="matrix(16.7727 0 0 16.7727 139.662 116.488)"/><circle cx="33.7" cy="21" fill="none" r="5.7" stroke="#45413c" transform="matrix(13.9364 -9.33401 9.33401 13.9364 39.3967 490.484)"/><circle cx="34.8" cy="29.8" fill="#9f5ae5" r="5.7" transform="matrix(13.9364 -9.33401 9.33401 13.9364 -39.8191 526.007)"/><path d="m31.6 27.5c2.6-1.7 6.1-1 7.9 1.6.4.6.7 1.3.8 2 .3-1.5.1-3-.8-4.4-1.7-2.6-5.3-3.3-7.9-1.6-2 1.3-2.9 3.7-2.4 5.9.4-1.4 1.2-2.7 2.4-3.5z" fill="#bf8df2" fill-rule="nonzero" transform="matrix(16.7727 0 0 16.7727 139.662 116.488)"/><circle cx="34.8" cy="29.8" fill="none" r="5.7" stroke="#45413c" transform="matrix(13.9364 -9.33401 9.33401 13.9364 -39.8191 526.007)"/><circle cx="26.5" cy="36.8" fill="#9f5ae5" r="5.7" transform="matrix(13.9359 -9.3335 9.3335 13.9359 -128.399 467.847)"/><path d="m31.9 35.3c-.3.3-.7.7-1.1.9-3 2-6.9 1.5-8.7-1.2-.2-.3-.4-.7-.5-1 .4-.7 1-1.4 1.8-1.9 2.6-1.7 6.1-1 7.9 1.6.3.4.5 1 .6 1.6z" fill="#803ec2" fill-rule="nonzero" transform="matrix(16.7727 0 0 16.7727 139.662 116.488)"/><circle cx="26.5" cy="36.8" fill="none" r="5.7" stroke="#45413c" transform="matrix(13.9359 -9.3335 9.3335 13.9359 -128.399 467.847)"/><path d="m25.6 22.3s-1.7-3.7-6.8-7.1c-3-2-5.8-2.6-7.2-2.7-.5-.1-1 .2-1.2.7l-.6 1.4c-.3.7.2 1.5 1 1.6 1.6.1 4.1.5 6.6 2 5.5 3.3 7 6.3 7 6.3z" fill="#6dd627" fill-rule="nonzero" transform="matrix(16.7727 0 0 16.7727 139.662 116.488)"/><path d="m18.1 16.7c4 2.4 6.1 5.2 6.9 6.5l.5-.9s-1.7-3.7-6.8-7.1c-3-2-5.8-2.6-7.2-2.7-.5-.1-1 .2-1.2.7l-.3.9c1.6.1 4.8.6 8.1 2.6z" fill="#9ceb60" fill-rule="nonzero" transform="matrix(16.7727 0 0 16.7727 139.662 116.488)"/><path d="m25.6 22.3s-1.7-3.7-6.8-7.1c-3-2-5.8-2.6-7.2-2.7-.5-.1-1 .2-1.2.7l-.6 1.4c-.3.7.2 1.5 1 1.6 1.6.1 4.1.5 6.6 2 5.5 3.3 7 6.3 7 6.3z" fill="none" stroke="#45413c" transform="matrix(16.7727 0 0 16.7727 139.662 116.488)"/><circle cx="27.6" cy="27.1" fill="#9f5ae5" r="6.8" transform="matrix(13.9364 -9.33401 9.33401 13.9364 -35.537 450.684)"/><path d="m23.8 25.4c3.1-2.1 7.4-1.3 9.5 1.9.4.6.7 1.2.9 1.8.6-1.9.3-4-.9-5.8-2.1-3.1-6.3-4-9.5-1.9-2.6 1.7-3.6 4.8-2.7 7.6.4-1.3 1.3-2.7 2.7-3.6z" fill="#bf8df2" fill-rule="nonzero" transform="matrix(16.7727 0 0 16.7727 139.662 116.488)"/><circle cx="27.6" cy="27.1" fill="none" r="6.8" stroke="#45413c" transform="matrix(13.9364 -9.33401 9.33401 13.9364 -35.537 450.684)"/><g transform="matrix(16.7727 0 0 16.7727 139.662 116.488)"><path d="m16.4 5.3c.1-.5.7-.7 1.1-.4l2.1 1.8c.3.3.8.2 1-.2l.1-.2c.8-1.3 2-2.2 3.3-2.7l1-.3c.3-.1.7.1.8.4l.4.9c.6 1.1.8 2.4.7 3.7v.3c0 .5.3.9.7.8l2.2-.1c.5 0 .9.6.7 1.1l-.3.7c-1.2 2.6-3.5 4.4-6.2 4.7l-3.6.5-2.3-3c-1.8-2.2-2.4-5.2-1.7-8z" fill="#6dd627" fill-rule="nonzero"/><path d="m16.4 7.6c.1-.5.7-.7 1.1-.4l2.1 1.8c.3.3.8.2 1-.2l.1-.2c.8-1.3 1.9-2.2 3.3-2.7l1-.3c.3-.1.7.1.8.4l.4.9c.5 1.2.7 2.4.6 3.7v.3c0 .5.3.9.7.8l2.2-.1h.1c.1-.2.2-.3.2-.5l.3-.7c.2-.5-.1-1.1-.7-1.1l-2.2.1c-.4 0-.8-.4-.7-.8v-.3c.3-1.3.1-2.6-.4-3.7l-.4-.9c-.2-.3-.5-.5-.8-.4l-1 .3c-1.3.4-2.5 1.4-3.3 2.7l-.1.2c-.2.4-.7.4-1 .2l-2.1-1.8c-.4-.3-1-.1-1.1.4-.3 1.1-.3 2.3-.2 3.4-.1-.4 0-.7.1-1.1z" fill="#9ceb60" fill-rule="nonzero"/><path d="m16.4 5.3c.1-.5.7-.7 1.1-.4l2.1 1.8c.3.3.8.2 1-.2l.1-.2c.8-1.3 2-2.2 3.3-2.7l1-.3c.3-.1.7.1.8.4l.4.9c.6 1.1.8 2.4.7 3.7v.3c0 .5.3.9.7.8l2.2-.1c.5 0 .9.6.7 1.1l-.3.7c-1.2 2.6-3.5 4.4-6.2 4.7l-3.6.5-2.3-3c-1.8-2.2-2.4-5.2-1.7-8z" fill="none" stroke="#45413c"/><path d="m20.3 16.3c-.1-2 .9-4.9 2.9-7.5" fill="none" stroke="#45413c"/></g></svg>