<svg clip-rule="evenodd" fill-rule="evenodd" stroke-linejoin="round" stroke-miterlimit="2" viewBox="0 0 1024 1024" xmlns="http://www.w3.org/2000/svg"><g transform="matrix(1.620174384 -.4287683442 .4287683442 1.620174384 -56.98173305 330.7938381)"><path d="m207.5 76.5c10.219 4.446 19.886 9.946 29 16.5 13.184 6.421 25.851 13.587 38 21.5-1.175-.219-2.175.114-3 1 1.112.765 1.779 1.765 2 3-2.518 1.011-2.518 2.344 0 4-1.888 5.438-2.554 11.105-2 17-2.691-2.357-5.024-5.024-7-8-2.673-1.001-5.007-2.501-7-4.5-2.887-.723-5.553-.223-8 1.5-1.114 4.946-1.281 9.946-.5 15 .598 2.808 1.765 5.308 3.5 7.5 1.667.667 3.333.667 5 0 3.103-3.65 6.77-6.15 11-7.5-.396 2.544.271 4.711 2 6.5-.333.333-.667.667-1 1 1.473.71 2.14 1.876 2 3.5-2.619-.268-5.119.065-7.5 1 .497 1.698.33 3.365-.5 5 .525.692 1.192 1.192 2 1.5-.924.85-.924 1.85 0 3-2.067 3.301-3.734 6.801-5 10.5-1 .5-2 1-3 1.5.634 2.075.968 4.241 1 6.5-.483 8.376-1.15 16.709-2 25 1.776 6.776 6.109 10.776 13 12 10.313-.957 20.647-1.791 31-2.5 1.237-.232 2.237-.732 3-1.5 1.777-1.1 3.777-1.934 6-2.5 3.198-4.026 6.532-7.859 10-11.5 1.347-.671 2.514-.671 3.5 0 1.337-3.526 1.837-7.192 1.5-11h8c1.789 2.151 3.122 4.651 4 7.5 11.794 7.634 24.794 11.634 39 12 5.333.667 10.667.667 16 0 1.91-.408 2.91-1.575 3-3.5-.719-2.228-2.052-4.061-4-5.5-8.828-8.333-18.828-14.833-30-19.5-.925-.857-1.592-1.857-2-3 8.965-2.216 8.965-3.716 0-4.5 1.365-1.682 2.865-1.849 4.5-.5 1.667-.667 3.333-1.333 5-2 2.719.944 5.552 1.277 8.5 1-.214 1.644.12 3.144 1 4.5 2.31.497 4.643.663 7 .5 21.932 12.303 43.932 24.636 66 37 .086.996-.248 1.829-1 2.5-5.896 2.406-11.896 4.239-18 5.5-12.073 6.765-24.406 13.265-37 19.5-29.51 22.7-62.51 29.033-99 19-9.049-2.568-17.716-5.901-26-10-6.756-5.045-14.09-9.045-22-12-2.448-.853-3.114-.353-2 1.5-7.287-3.315-13.954-7.648-20-13-18.97-13.34-36.637-28.34-53-45-6.948-10.342-11.448-21.675-13.5-34-.671.752-1.504 1.086-2.5 1 .311-.978.978-1.645 2-2 .998-8.975 1.332-17.975 1-27 2.539-4.135 3.706-8.802 3.5-14 1.388-6.45 4.554-11.784 9.5-16 .798-1.578 1.298-3.244 1.5-5 2.796-.711 5.63-1.378 8.5-2 .857-1.236 1.523-2.569 2-4 3.607-.989 7.274-1.323 11-1v-3z" fill="#f3a398"/><path d="m207.5 76.5h-12v3c-3.726-.323-7.393.011-11 1-.477 1.431-1.143 2.764-2 4-2.87.622-5.704 1.289-8.5 2-.202 1.756-.702 3.422-1.5 5-4.946 4.216-8.112 9.55-9.5 16 .206 5.198-.961 9.865-3.5 14 .94-13.694 5.607-25.861 14-36.5 6.165-4.416 12.832-7.749 20-10 2.333-.167 4.667-.333 7-.5 2.769.029 5.103.695 7 2z" fill="#ecada6"/><path d="m226.5 101.5c12.027-2.672 18.694 1.995 20 14-1.914 4.076-3.581 8.243-5 12.5 2.301 7.672 3.635 15.506 4 23.5-8.358 3.123-16.358 2.29-24-2.5-8.493-5.826-15.66-12.993-21.5-21.5-1.409-5.816-.242-10.983 3.5-15.5 2.756-2.617 5.756-4.95 9-7 4.778-1.249 9.445-2.416 14-3.5z" fill="#e5837d"/><path d="m287.5 122.5c1.052-.149 2.052.017 3 .5 4.398 2.857 8.732 5.691 13 8.5-2.357.163-4.69-.003-7-.5-.837-1.011-1.17-2.178-1-3.5-1.052.149-2.052-.017-3-.5-1.898-1.417-3.564-2.917-5-4.5z" fill="#d98d8a"/><path d="m271.5 139.5v4h-3c-4.23 1.35-7.897 3.85-11 7.5-1.667.667-3.333.667-5 0-1.735-2.192-2.902-4.692-3.5-7.5-.781-5.054-.614-10.054.5-15 2.447-1.723 5.113-2.223 8-1.5 1.993 1.999 4.327 3.499 7 4.5 1.976 2.976 4.309 5.643 7 8z" fill="#f9bbb5"/><path d="m274.5 114.5c4.537 2.43 8.87 5.097 13 8 1.436 1.583 3.102 3.083 5 4.5.948.483 1.948.649 3 .5-.17 1.322.163 2.489 1 3.5 2.31.497 4.643.663 7 .5 3.26 1.274 6.26 2.94 9 5-.086.996.248 1.829 1 2.5 5.284 1.289 5.284 2.622 0 4 1.333.333 2.667.667 4 1-2.736 1.524-4.736 3.691-6 6.5-1.916.748-3.916.748-6 0 .888-2.743 2.055-5.41 3.5-8 1.205-.571 2.372-1.238 3.5-2-1.861-2.617-4.194-3.617-7-3 2.784 2.452 2.451 4.452-1 6-.667 2.333-1.333 4.667-2 7-4.793-3.154-9.793-4.821-15-5-8.067-7.111-12.734-16.111-14-27-.221-1.235-.888-2.235-2-3 .825-.886 1.825-1.219 3-1z" fill="#e7827d"/><path d="m273.5 118.5c1.266 10.889 5.933 19.889 14 27 8.228 5.141 17.228 7.641 27 7.5 4.311-4.424 9.311-5.59 15-3.5-1.373-.157-2.707.01-4 .5 1.169 1.836 2.836 3.002 5 3.5 1.114 1.223 1.281 2.556.5 4-3.521-2.709-7.354-4.709-11.5-6-.744 2.486-2.244 4.486-4.5 6-5.722-1.463-11.389-3.13-17-5-2.036 1.451-3.869.951-5.5-1.5-3.849-2.415-6.516-1.415-8 3 1.811 2.384 4.145 4.051 7 5 6.359.169 12.693.669 19 1.5-1.503 1.057-3.17 1.724-5 2-2.632-.94-5.298-1.107-8-.5-1.27 2.626-.604 4.793 2 6.5 3.641.018 7.308.351 11 1 1.003-2.042 2.337-2.375 4-1 1.836-1.419 3.836-2.586 6-3.5 2.857-3.087 2.524-5.754-1-8 .333-.5.667-1 1-1.5 5.063 2.491 10.063 4.825 15 7v4c-2.46-1.378-5.126-2.378-8-3-.667.333-1.333.667-2 1 1.306 3.946 3.139 7.612 5.5 11 .83 5.308 1.33 10.641 1.5 16h-8c.337 3.808-.163 7.474-1.5 11-.986-.671-2.153-.671-3.5 0 5.329-9.029 5.329-18.029 0-27-9.715-1.428-19.048-4.094-28-8-4.855-3.53-8.188-8.197-10-14-3.162-3.872-6.162-3.538-9 1-10.55 18.022-14.383 37.355-11.5 58 1.395 1.64 2.895 3.14 4.5 4.5 12.693.754 25.359.587 38-.5-.763.768-1.763 1.268-3 1.5-10.353.709-20.687 1.543-31 2.5-6.891-1.224-11.224-5.224-13-12 .85-8.291 1.517-16.624 2-25-.032-2.259-.366-4.425-1-6.5l3-1.5c1.266-3.699 2.933-7.199 5-10.5-.924-1.15-.924-2.15 0-3-.808-.308-1.475-.808-2-1.5.83-1.635.997-3.302.5-5 2.381-.935 4.881-1.268 7.5-1 .14-1.624-.527-2.79-2-3.5.333-.333.667-.667 1-1-1.729-1.789-2.396-3.956-2-6.5h3v-4c-.554-5.895.112-11.562 2-17-2.518-1.656-2.518-2.989 0-4z" fill="#f5a196"/><path d="m312.5 136.5c7.864 4.096 15.531 8.429 23 13h-6c-5.689-2.09-10.689-.924-15 3.5-9.772.141-18.772-2.359-27-7.5 5.207.179 10.207 1.846 15 5 .667-2.333 1.333-4.667 2-7 3.451-1.548 3.784-3.548 1-6 2.806-.617 5.139.383 7 3-1.128.762-2.295 1.429-3.5 2-1.445 2.59-2.612 5.257-3.5 8 2.084.748 4.084.748 6 0 1.264-2.809 3.264-4.976 6-6.5-1.333-.333-2.667-.667-4-1 5.284-1.378 5.284-2.711 0-4-.752-.671-1.086-1.504-1-2.5z" fill="#e2867f"/><path d="m329.5 149.5h6c12.75 7.706 25.75 14.873 39 21.5 2.932 3.126 6.265 5.626 10 7.5-2.357.163-4.69-.003-7-.5-.88-1.356-1.214-2.856-1-4.5-2.948.277-5.781-.056-8.5-1-1.667.667-3.333 1.333-5 2-1.635-1.349-3.135-1.182-4.5.5 8.965.784 8.965 2.284 0 4.5-8.383-3.046-16.05-7.38-23-13v-4c-4.937-2.175-9.937-4.509-15-7-.333.5-.667 1-1 1.5 3.524 2.246 3.857 4.913 1 8-2.164.914-4.164 2.081-6 3.5-1.663-1.375-2.997-1.042-4 1-3.692-.649-7.359-.982-11-1-2.604-1.707-3.27-3.874-2-6.5 2.702-.607 5.368-.44 8 .5 1.83-.276 3.497-.943 5-2-6.307-.831-12.641-1.331-19-1.5-2.855-.949-5.189-2.616-7-5 1.484-4.415 4.151-5.415 8-3 1.631 2.451 3.464 2.951 5.5 1.5 5.611 1.87 11.278 3.537 17 5 2.256-1.514 3.756-3.514 4.5-6 4.146 1.291 7.979 3.291 11.5 6 .781-1.444.614-2.777-.5-4-2.164-.498-3.831-1.664-5-3.5 1.293-.49 2.627-.657 4-.5z" fill="#f2a499"/><path d="m172.5 183.5c-2.865.691-5.032 2.358-6.5 5-3.396 5.613-4.229 11.613-2.5 18 2.729.562 4.229 2.228 4.5 5 7.175 9.168 16.008 11.168 26.5 6 1 .167 2 .333 3 .5 6.629 3.666 13.295 7.333 20 11l6 1.5c1.213-.247 1.88-.914 2-2 6.046 5.352 12.713 9.685 20 13 10.432 7.058 21.099 13.892 32 20.5 9.485 5.939 19.818 9.273 31 10 15.058 2.143 30.058 1.976 45-.5.359 1.871 1.359 3.371 3 4.5 8.837 2.876 17.837 3.209 27 1 7.737-1.979 15.404-4.146 23-6.5 2.518-2.845 5.518-5.012 9-6.5 2.147-3.115 4.647-5.948 7.5-8.5.667-4 .667-8 0-12-1.691-2.859-4.191-4.192-7.5-4 10.045-8.688 21.712-12.855 35-12.5 6.402 3.693 8.402 9.193 6 16.5-2.533 7.849-7.2 14.349-14 19.5-5.611 3.621-10.945 7.454-16 11.5-27.784 16.886-58.117 26.719-91 29.5-10.661.5-21.328.667-32 .5-22.17-3.61-43.503-10.277-64-20-33.012-16.006-64.678-34.339-95-55-8.724-7.229-16.891-14.896-24.5-23-1.704-5.226-2.87-10.559-3.5-16 3.647-6.655 7.313-13.321 11-20 8.89-7.748 18.557-14.415 29-20 .996.086 1.829-.248 2.5-1 2.052 12.325 6.552 23.658 13.5 34z" fill="#d37976"/><path d="m217.5 158.5c13.234.43 24.401 5.43 33.5 15 .667 1.333.667 2.667 0 4-9.771 1.855-19.271 1.022-28.5-2.5-4.704-4.665-6.371-10.165-5-16.5z" fill="#f9bcb5"/><path d="m319.5 202.5c-3.468 3.641-6.802 7.474-10 11.5-2.223.566-4.223 1.4-6 2.5-12.641 1.087-25.307 1.254-38 .5-1.605-1.36-3.105-2.86-4.5-4.5-2.883-20.645.95-39.978 11.5-58 2.838-4.538 5.838-4.872 9-1 1.812 5.803 5.145 10.47 10 14 8.952 3.906 18.285 6.572 28 8 5.329 8.971 5.329 17.971 0 27z" fill="#e5837d"/><path d="m335.5 166.5c6.95 5.62 14.617 9.954 23 13 .408 1.143 1.075 2.143 2 3 11.172 4.667 21.172 11.167 30 19.5 1.948 1.439 3.281 3.272 4 5.5-.09 1.925-1.09 3.092-3 3.5-5.333.667-10.667.667-16 0-14.206-.366-27.206-4.366-39-12-.878-2.849-2.211-5.349-4-7.5-.17-5.359-.67-10.692-1.5-16-2.361-3.388-4.194-7.054-5.5-11 .667-.333 1.333-.667 2-1 2.874.622 5.54 1.622 8 3z" fill="#e5837d"/><path d="m127.5 170.5c-3.687 6.679-7.353 13.345-11 20v-1c1.366-7.74 5.032-14.073 11-19z" fill="#c78989"/><path d="m172.5 183.5c16.363 16.66 34.03 31.66 53 45-.12 1.086-.787 1.753-2 2-2-.5-4-1-6-1.5-6.705-3.667-13.371-7.334-20-11-1-.167-2-.333-3-.5-10.492 5.168-19.325 3.168-26.5-6-.271-2.772-1.771-4.438-4.5-5-1.729-6.387-.896-12.387 2.5-18 1.468-2.642 3.635-4.309 6.5-5z" fill="#c36263"/><path d="m135.5 180.5c10.812 1.668 15.312 8.001 13.5 19-1.483 4.165-4.316 5.665-8.5 4.5-5.472-5.772-7.972-12.606-7.5-20.5 1.045-.873 1.878-1.873 2.5-3z" fill="#f4a098"/><path d="m330.5 207.5c3.35-.165 6.683.002 10 .5 9.694 4.786 19.694 8.786 30 12 2.885 1.933 3.552 4.433 2 7.5-8.148 2.634-16.148 2.134-24-1.5-6.15-4.486-11.983-9.319-17.5-14.5-.49-1.293-.657-2.627-.5-4z" fill="#f9bbb5"/><path d="m124.5 219.5c2.089.357 4.089 1.023 6 2 3.656 3.164 7.323 6.331 11 9.5 5.738 2.338 10.405 5.838 14 10.5-11.57-5.616-21.903-12.949-31-22z" fill="#f0c4c0"/><path d="m116.5 189.5v1c.63 5.441 1.796 10.774 3.5 16 7.609 8.104 15.776 15.771 24.5 23 30.322 20.661 61.988 38.994 95 55-3.194 1.452-6.194 1.119-9-1-3.046-1.274-5.879-2.941-8.5-5-1.578 1.047-3.078 1.047-4.5 0 .209-.586.543-1.086 1-1.5-2.707-.395-5.373-.895-8-1.5-1.527.073-2.527-.594-3-2-1.944-1.428-3.611-3.261-5-5.5-3.307-.653-5.973-2.319-8-5-2.24-.977-4.573-1.477-7-1.5-1.36-4.904-4.693-6.904-10-6-.992.172-1.658-.162-2-1v-3c-5.237-2.628-10.237-5.795-15-9.5-1.634-.494-3.301-.66-5-.5-3.595-4.662-8.262-8.162-14-10.5-3.677-3.169-7.344-6.336-11-9.5-1.911-.977-3.911-1.643-6-2-3.41-4.601-6.244-9.601-8.5-15-.816-5.184-.65-10.184.5-15z" fill="#f9b8b5"/><path d="m197.5 229.5c14.941 4.056 28.107 11.389 39.5 22 .483.948.649 1.948.5 3-8.106.815-15.772-.519-23-4-5.324-4.491-10.157-9.491-14.5-15-1.669-1.669-2.502-3.669-2.5-6z" fill="#f2a197"/><path d="m155.5 241.5c1.699-.16 3.366.006 5 .5 4.763 3.705 9.763 6.872 15 9.5v3c-6.657-4.33-13.324-8.663-20-13z" fill="#f0c4c2"/><path d="m415.5 239.5c3.309-.192 5.809 1.141 7.5 4 .667 4 .667 8 0 12-2.853 2.552-5.353 5.385-7.5 8.5-3.482 1.488-6.482 3.655-9 6.5-7.596 2.354-15.263 4.521-23 6.5-9.163 2.209-18.163 1.876-27-1-1.641-1.129-2.641-2.629-3-4.5 9.377-2.406 18.377-5.906 27-10.5 11.69-7.176 23.356-14.343 35-21.5z" fill="#c36263"/><path d="m177.5 255.5c5.307-.904 8.64 1.096 10 6 2.427.023 4.76.523 7 1.5 2.027 2.681 4.693 4.347 8 5 1.389 2.239 3.056 4.072 5 5.5-10.04-6.017-20.04-12.017-30-18z" fill="#eec4c1"/><path d="m450.5 215.5c4.072 2.421 8.238 4.754 12.5 7 2.084 10.833.25 20.833-5.5 30-13.412 17.216-30.078 30.382-50 39.5-46.165 20.025-93.498 23.692-142 11-10.911-3.462-21.244-7.962-31-13.5-1.359-2.018-2.693-4.018-4-6 2.806 2.119 5.806 2.452 9 1 20.497 9.723 41.83 16.39 64 20-4.517.666-9.183 1.333-14 2 23.393 1.635 46.726 1.135 70-1.5 8.173-2.047 16.006-4.88 23.5-8.5.725.559 1.558.892 2.5 1 6.364-2.034 12.698-4.034 19-6-.219-1.175.114-2.175 1-3 3.855-1.759 7.521-3.759 11-6 .793.431 1.627.765 2.5 1 1.3-1.207 2.8-1.874 4.5-2 .188-2.706 1.188-5.039 3-7 5.055-4.046 10.389-7.879 16-11.5 6.8-5.151 11.467-11.651 14-19.5 5.41-6.021 5.077-11.855-1-17.5-2.726-.182-5.393-.682-8-1.5 1.029.204 2.029-.296 3-1.5-1.272-1.046-2.772-1.546-4.5-1.5-3.148 1.679-7.148 3.013-12 4-1.376-.184-2.209-.851-2.5-2 6.104-1.261 12.104-3.094 18-5.5.752-.671 1.086-1.504 1-2.5z" fill="#f6bdb9"/><path d="m456.5 243.5c2.402-7.307.402-12.807-6-16.5-13.288-.355-24.955 3.812-35 12.5-11.644 7.157-23.31 14.324-35 21.5-8.623 4.594-17.623 8.094-27 10.5-14.942 2.476-29.942 2.643-45 .5-11.182-.727-21.515-4.061-31-10-10.901-6.608-21.568-13.442-32-20.5-1.114-1.853-.448-2.353 2-1.5 7.91 2.955 15.244 6.955 22 12 8.284 4.099 16.951 7.432 26 10 36.49 10.033 69.49 3.7 99-19 12.594-6.235 24.927-12.735 37-19.5.291 1.149 1.124 1.816 2.5 2 4.852-.987 8.852-2.321 12-4 1.728-.046 3.228.454 4.5 1.5-.971 1.204-1.971 1.704-3 1.5 2.607.818 5.274 1.318 8 1.5 6.077 5.645 6.41 11.479 1 17.5z" fill="#f9b9b3"/><path d="m239.5 260.5c3.018-.165 6.018.002 9 .5 17.416 7.205 34.749 14.705 52 22.5.285 3.538-1.382 5.371-5 5.5-8.123.848-16.123.182-24-2-12.185-5.173-22.685-12.673-31.5-22.5-.49-1.293-.657-2.627-.5-4z" fill="#c46263"/><path d="m210.5 275.5c2.627.605 5.293 1.105 8 1.5-.457.414-.791.914-1 1.5 1.422 1.047 2.922 1.047 4.5 0 2.621 2.059 5.454 3.726 8.5 5 1.307 1.982 2.641 3.982 4 6-8.368-4.179-16.368-8.846-24-14z" fill="#f1c6c3"/><path d="m338.5 283.5c6.434.025 12.767.858 19 2.5 2.667 2 2.667 4 0 6-6.069.804-12.069.471-18-1-3.193-1.026-4.526-3.192-4-6.5 1.291.237 2.291-.096 3-1z" fill="#f49f98"/><path d="m426.5 274.5c-1.812 1.961-2.812 4.294-3 7-1.7.126-3.2.793-4.5 2-.873-.235-1.707-.569-2.5-1-3.479 2.241-7.145 4.241-11 6-.886.825-1.219 1.825-1 3-6.302 1.966-12.636 3.966-19 6-.942-.108-1.775-.441-2.5-1-7.494 3.62-15.327 6.453-23.5 8.5-23.274 2.635-46.607 3.135-70 1.5 4.817-.667 9.483-1.334 14-2 10.672.167 21.339 0 32-.5 32.883-2.781 63.216-12.614 91-29.5z" fill="#fab9b4"/></g><g transform="matrix(1.67595 0 0 1.67595 162.6464866 152.0638263)"><path d="m207.5 76.5c10.219 4.446 19.886 9.946 29 16.5 13.184 6.421 25.851 13.587 38 21.5-1.175-.219-2.175.114-3 1 1.112.765 1.779 1.765 2 3-2.518 1.011-2.518 2.344 0 4-1.888 5.438-2.554 11.105-2 17-2.691-2.357-5.024-5.024-7-8-2.673-1.001-5.007-2.501-7-4.5-2.887-.723-5.553-.223-8 1.5-1.114 4.946-1.281 9.946-.5 15 .598 2.808 1.765 5.308 3.5 7.5 1.667.667 3.333.667 5 0 3.103-3.65 6.77-6.15 11-7.5-.396 2.544.271 4.711 2 6.5-.333.333-.667.667-1 1 1.473.71 2.14 1.876 2 3.5-2.619-.268-5.119.065-7.5 1 .497 1.698.33 3.365-.5 5 .525.692 1.192 1.192 2 1.5-.924.85-.924 1.85 0 3-2.067 3.301-3.734 6.801-5 10.5-1 .5-2 1-3 1.5.634 2.075.968 4.241 1 6.5-.483 8.376-1.15 16.709-2 25 1.776 6.776 6.109 10.776 13 12 10.313-.957 20.647-1.791 31-2.5 1.237-.232 2.237-.732 3-1.5 1.777-1.1 3.777-1.934 6-2.5 3.198-4.026 6.532-7.859 10-11.5 1.347-.671 2.514-.671 3.5 0 1.337-3.526 1.837-7.192 1.5-11h8c1.789 2.151 3.122 4.651 4 7.5 11.794 7.634 24.794 11.634 39 12 5.333.667 10.667.667 16 0 1.91-.408 2.91-1.575 3-3.5-.719-2.228-2.052-4.061-4-5.5-8.828-8.333-18.828-14.833-30-19.5-.925-.857-1.592-1.857-2-3 8.965-2.216 8.965-3.716 0-4.5 1.365-1.682 2.865-1.849 4.5-.5 1.667-.667 3.333-1.333 5-2 2.719.944 5.552 1.277 8.5 1-.214 1.644.12 3.144 1 4.5 2.31.497 4.643.663 7 .5 21.932 12.303 43.932 24.636 66 37 .086.996-.248 1.829-1 2.5-5.896 2.406-11.896 4.239-18 5.5-12.073 6.765-24.406 13.265-37 19.5-29.51 22.7-62.51 29.033-99 19-9.049-2.568-17.716-5.901-26-10-6.756-5.045-14.09-9.045-22-12-2.448-.853-3.114-.353-2 1.5-7.287-3.315-13.954-7.648-20-13-18.97-13.34-36.637-28.34-53-45-6.948-10.342-11.448-21.675-13.5-34-.671.752-1.504 1.086-2.5 1 .311-.978.978-1.645 2-2 .998-8.975 1.332-17.975 1-27 2.539-4.135 3.706-8.802 3.5-14 1.388-6.45 4.554-11.784 9.5-16 .798-1.578 1.298-3.244 1.5-5 2.796-.711 5.63-1.378 8.5-2 .857-1.236 1.523-2.569 2-4 3.607-.989 7.274-1.323 11-1v-3z" fill="#f3a398"/><path d="m207.5 76.5h-12v3c-3.726-.323-7.393.011-11 1-.477 1.431-1.143 2.764-2 4-2.87.622-5.704 1.289-8.5 2-.202 1.756-.702 3.422-1.5 5-4.946 4.216-8.112 9.55-9.5 16 .206 5.198-.961 9.865-3.5 14 .94-13.694 5.607-25.861 14-36.5 6.165-4.416 12.832-7.749 20-10 2.333-.167 4.667-.333 7-.5 2.769.029 5.103.695 7 2z" fill="#ecada6"/><path d="m226.5 101.5c12.027-2.672 18.694 1.995 20 14-1.914 4.076-3.581 8.243-5 12.5 2.301 7.672 3.635 15.506 4 23.5-8.358 3.123-16.358 2.29-24-2.5-8.493-5.826-15.66-12.993-21.5-21.5-1.409-5.816-.242-10.983 3.5-15.5 2.756-2.617 5.756-4.95 9-7 4.778-1.249 9.445-2.416 14-3.5z" fill="#e5837d"/><path d="m287.5 122.5c1.052-.149 2.052.017 3 .5 4.398 2.857 8.732 5.691 13 8.5-2.357.163-4.69-.003-7-.5-.837-1.011-1.17-2.178-1-3.5-1.052.149-2.052-.017-3-.5-1.898-1.417-3.564-2.917-5-4.5z" fill="#d98d8a"/><path d="m271.5 139.5v4h-3c-4.23 1.35-7.897 3.85-11 7.5-1.667.667-3.333.667-5 0-1.735-2.192-2.902-4.692-3.5-7.5-.781-5.054-.614-10.054.5-15 2.447-1.723 5.113-2.223 8-1.5 1.993 1.999 4.327 3.499 7 4.5 1.976 2.976 4.309 5.643 7 8z" fill="#f9bbb5"/><path d="m274.5 114.5c4.537 2.43 8.87 5.097 13 8 1.436 1.583 3.102 3.083 5 4.5.948.483 1.948.649 3 .5-.17 1.322.163 2.489 1 3.5 2.31.497 4.643.663 7 .5 3.26 1.274 6.26 2.94 9 5-.086.996.248 1.829 1 2.5 5.284 1.289 5.284 2.622 0 4 1.333.333 2.667.667 4 1-2.736 1.524-4.736 3.691-6 6.5-1.916.748-3.916.748-6 0 .888-2.743 2.055-5.41 3.5-8 1.205-.571 2.372-1.238 3.5-2-1.861-2.617-4.194-3.617-7-3 2.784 2.452 2.451 4.452-1 6-.667 2.333-1.333 4.667-2 7-4.793-3.154-9.793-4.821-15-5-8.067-7.111-12.734-16.111-14-27-.221-1.235-.888-2.235-2-3 .825-.886 1.825-1.219 3-1z" fill="#e7827d"/><path d="m273.5 118.5c1.266 10.889 5.933 19.889 14 27 8.228 5.141 17.228 7.641 27 7.5 4.311-4.424 9.311-5.59 15-3.5-1.373-.157-2.707.01-4 .5 1.169 1.836 2.836 3.002 5 3.5 1.114 1.223 1.281 2.556.5 4-3.521-2.709-7.354-4.709-11.5-6-.744 2.486-2.244 4.486-4.5 6-5.722-1.463-11.389-3.13-17-5-2.036 1.451-3.869.951-5.5-1.5-3.849-2.415-6.516-1.415-8 3 1.811 2.384 4.145 4.051 7 5 6.359.169 12.693.669 19 1.5-1.503 1.057-3.17 1.724-5 2-2.632-.94-5.298-1.107-8-.5-1.27 2.626-.604 4.793 2 6.5 3.641.018 7.308.351 11 1 1.003-2.042 2.337-2.375 4-1 1.836-1.419 3.836-2.586 6-3.5 2.857-3.087 2.524-5.754-1-8 .333-.5.667-1 1-1.5 5.063 2.491 10.063 4.825 15 7v4c-2.46-1.378-5.126-2.378-8-3-.667.333-1.333.667-2 1 1.306 3.946 3.139 7.612 5.5 11 .83 5.308 1.33 10.641 1.5 16h-8c.337 3.808-.163 7.474-1.5 11-.986-.671-2.153-.671-3.5 0 5.329-9.029 5.329-18.029 0-27-9.715-1.428-19.048-4.094-28-8-4.855-3.53-8.188-8.197-10-14-3.162-3.872-6.162-3.538-9 1-10.55 18.022-14.383 37.355-11.5 58 1.395 1.64 2.895 3.14 4.5 4.5 12.693.754 25.359.587 38-.5-.763.768-1.763 1.268-3 1.5-10.353.709-20.687 1.543-31 2.5-6.891-1.224-11.224-5.224-13-12 .85-8.291 1.517-16.624 2-25-.032-2.259-.366-4.425-1-6.5l3-1.5c1.266-3.699 2.933-7.199 5-10.5-.924-1.15-.924-2.15 0-3-.808-.308-1.475-.808-2-1.5.83-1.635.997-3.302.5-5 2.381-.935 4.881-1.268 7.5-1 .14-1.624-.527-2.79-2-3.5.333-.333.667-.667 1-1-1.729-1.789-2.396-3.956-2-6.5h3v-4c-.554-5.895.112-11.562 2-17-2.518-1.656-2.518-2.989 0-4z" fill="#f5a196"/><path d="m312.5 136.5c7.864 4.096 15.531 8.429 23 13h-6c-5.689-2.09-10.689-.924-15 3.5-9.772.141-18.772-2.359-27-7.5 5.207.179 10.207 1.846 15 5 .667-2.333 1.333-4.667 2-7 3.451-1.548 3.784-3.548 1-6 2.806-.617 5.139.383 7 3-1.128.762-2.295 1.429-3.5 2-1.445 2.59-2.612 5.257-3.5 8 2.084.748 4.084.748 6 0 1.264-2.809 3.264-4.976 6-6.5-1.333-.333-2.667-.667-4-1 5.284-1.378 5.284-2.711 0-4-.752-.671-1.086-1.504-1-2.5z" fill="#e2867f"/><path d="m329.5 149.5h6c12.75 7.706 25.75 14.873 39 21.5 2.932 3.126 6.265 5.626 10 7.5-2.357.163-4.69-.003-7-.5-.88-1.356-1.214-2.856-1-4.5-2.948.277-5.781-.056-8.5-1-1.667.667-3.333 1.333-5 2-1.635-1.349-3.135-1.182-4.5.5 8.965.784 8.965 2.284 0 4.5-8.383-3.046-16.05-7.38-23-13v-4c-4.937-2.175-9.937-4.509-15-7-.333.5-.667 1-1 1.5 3.524 2.246 3.857 4.913 1 8-2.164.914-4.164 2.081-6 3.5-1.663-1.375-2.997-1.042-4 1-3.692-.649-7.359-.982-11-1-2.604-1.707-3.27-3.874-2-6.5 2.702-.607 5.368-.44 8 .5 1.83-.276 3.497-.943 5-2-6.307-.831-12.641-1.331-19-1.5-2.855-.949-5.189-2.616-7-5 1.484-4.415 4.151-5.415 8-3 1.631 2.451 3.464 2.951 5.5 1.5 5.611 1.87 11.278 3.537 17 5 2.256-1.514 3.756-3.514 4.5-6 4.146 1.291 7.979 3.291 11.5 6 .781-1.444.614-2.777-.5-4-2.164-.498-3.831-1.664-5-3.5 1.293-.49 2.627-.657 4-.5z" fill="#f2a499"/><path d="m172.5 183.5c-2.865.691-5.032 2.358-6.5 5-3.396 5.613-4.229 11.613-2.5 18 2.729.562 4.229 2.228 4.5 5 7.175 9.168 16.008 11.168 26.5 6 1 .167 2 .333 3 .5 6.629 3.666 13.295 7.333 20 11l6 1.5c1.213-.247 1.88-.914 2-2 6.046 5.352 12.713 9.685 20 13 10.432 7.058 21.099 13.892 32 20.5 9.485 5.939 19.818 9.273 31 10 15.058 2.143 30.058 1.976 45-.5.359 1.871 1.359 3.371 3 4.5 8.837 2.876 17.837 3.209 27 1 7.737-1.979 15.404-4.146 23-6.5 2.518-2.845 5.518-5.012 9-6.5 2.147-3.115 4.647-5.948 7.5-8.5.667-4 .667-8 0-12-1.691-2.859-4.191-4.192-7.5-4 10.045-8.688 21.712-12.855 35-12.5 6.402 3.693 8.402 9.193 6 16.5-2.533 7.849-7.2 14.349-14 19.5-5.611 3.621-10.945 7.454-16 11.5-27.784 16.886-58.117 26.719-91 29.5-10.661.5-21.328.667-32 .5-22.17-3.61-43.503-10.277-64-20-33.012-16.006-64.678-34.339-95-55-8.724-7.229-16.891-14.896-24.5-23-1.704-5.226-2.87-10.559-3.5-16 3.647-6.655 7.313-13.321 11-20 8.89-7.748 18.557-14.415 29-20 .996.086 1.829-.248 2.5-1 2.052 12.325 6.552 23.658 13.5 34z" fill="#d37976"/><path d="m217.5 158.5c13.234.43 24.401 5.43 33.5 15 .667 1.333.667 2.667 0 4-9.771 1.855-19.271 1.022-28.5-2.5-4.704-4.665-6.371-10.165-5-16.5z" fill="#f9bcb5"/><path d="m319.5 202.5c-3.468 3.641-6.802 7.474-10 11.5-2.223.566-4.223 1.4-6 2.5-12.641 1.087-25.307 1.254-38 .5-1.605-1.36-3.105-2.86-4.5-4.5-2.883-20.645.95-39.978 11.5-58 2.838-4.538 5.838-4.872 9-1 1.812 5.803 5.145 10.47 10 14 8.952 3.906 18.285 6.572 28 8 5.329 8.971 5.329 17.971 0 27z" fill="#e5837d"/><path d="m335.5 166.5c6.95 5.62 14.617 9.954 23 13 .408 1.143 1.075 2.143 2 3 11.172 4.667 21.172 11.167 30 19.5 1.948 1.439 3.281 3.272 4 5.5-.09 1.925-1.09 3.092-3 3.5-5.333.667-10.667.667-16 0-14.206-.366-27.206-4.366-39-12-.878-2.849-2.211-5.349-4-7.5-.17-5.359-.67-10.692-1.5-16-2.361-3.388-4.194-7.054-5.5-11 .667-.333 1.333-.667 2-1 2.874.622 5.54 1.622 8 3z" fill="#e5837d"/><path d="m127.5 170.5c-3.687 6.679-7.353 13.345-11 20v-1c1.366-7.74 5.032-14.073 11-19z" fill="#c78989"/><path d="m172.5 183.5c16.363 16.66 34.03 31.66 53 45-.12 1.086-.787 1.753-2 2-2-.5-4-1-6-1.5-6.705-3.667-13.371-7.334-20-11-1-.167-2-.333-3-.5-10.492 5.168-19.325 3.168-26.5-6-.271-2.772-1.771-4.438-4.5-5-1.729-6.387-.896-12.387 2.5-18 1.468-2.642 3.635-4.309 6.5-5z" fill="#c36263"/><path d="m135.5 180.5c10.812 1.668 15.312 8.001 13.5 19-1.483 4.165-4.316 5.665-8.5 4.5-5.472-5.772-7.972-12.606-7.5-20.5 1.045-.873 1.878-1.873 2.5-3z" fill="#f4a098"/><path d="m330.5 207.5c3.35-.165 6.683.002 10 .5 9.694 4.786 19.694 8.786 30 12 2.885 1.933 3.552 4.433 2 7.5-8.148 2.634-16.148 2.134-24-1.5-6.15-4.486-11.983-9.319-17.5-14.5-.49-1.293-.657-2.627-.5-4z" fill="#f9bbb5"/><path d="m124.5 219.5c2.089.357 4.089 1.023 6 2 3.656 3.164 7.323 6.331 11 9.5 5.738 2.338 10.405 5.838 14 10.5-11.57-5.616-21.903-12.949-31-22z" fill="#f0c4c0"/><path d="m116.5 189.5v1c.63 5.441 1.796 10.774 3.5 16 7.609 8.104 15.776 15.771 24.5 23 30.322 20.661 61.988 38.994 95 55-3.194 1.452-6.194 1.119-9-1-3.046-1.274-5.879-2.941-8.5-5-1.578 1.047-3.078 1.047-4.5 0 .209-.586.543-1.086 1-1.5-2.707-.395-5.373-.895-8-1.5-1.527.073-2.527-.594-3-2-1.944-1.428-3.611-3.261-5-5.5-3.307-.653-5.973-2.319-8-5-2.24-.977-4.573-1.477-7-1.5-1.36-4.904-4.693-6.904-10-6-.992.172-1.658-.162-2-1v-3c-5.237-2.628-10.237-5.795-15-9.5-1.634-.494-3.301-.66-5-.5-3.595-4.662-8.262-8.162-14-10.5-3.677-3.169-7.344-6.336-11-9.5-1.911-.977-3.911-1.643-6-2-3.41-4.601-6.244-9.601-8.5-15-.816-5.184-.65-10.184.5-15z" fill="#f9b8b5"/><path d="m197.5 229.5c14.941 4.056 28.107 11.389 39.5 22 .483.948.649 1.948.5 3-8.106.815-15.772-.519-23-4-5.324-4.491-10.157-9.491-14.5-15-1.669-1.669-2.502-3.669-2.5-6z" fill="#f2a197"/><path d="m155.5 241.5c1.699-.16 3.366.006 5 .5 4.763 3.705 9.763 6.872 15 9.5v3c-6.657-4.33-13.324-8.663-20-13z" fill="#f0c4c2"/><path d="m415.5 239.5c3.309-.192 5.809 1.141 7.5 4 .667 4 .667 8 0 12-2.853 2.552-5.353 5.385-7.5 8.5-3.482 1.488-6.482 3.655-9 6.5-7.596 2.354-15.263 4.521-23 6.5-9.163 2.209-18.163 1.876-27-1-1.641-1.129-2.641-2.629-3-4.5 9.377-2.406 18.377-5.906 27-10.5 11.69-7.176 23.356-14.343 35-21.5z" fill="#c36263"/><path d="m177.5 255.5c5.307-.904 8.64 1.096 10 6 2.427.023 4.76.523 7 1.5 2.027 2.681 4.693 4.347 8 5 1.389 2.239 3.056 4.072 5 5.5-10.04-6.017-20.04-12.017-30-18z" fill="#eec4c1"/><path d="m450.5 215.5c4.072 2.421 8.238 4.754 12.5 7 2.084 10.833.25 20.833-5.5 30-13.412 17.216-30.078 30.382-50 39.5-46.165 20.025-93.498 23.692-142 11-10.911-3.462-21.244-7.962-31-13.5-1.359-2.018-2.693-4.018-4-6 2.806 2.119 5.806 2.452 9 1 20.497 9.723 41.83 16.39 64 20-4.517.666-9.183 1.333-14 2 23.393 1.635 46.726 1.135 70-1.5 8.173-2.047 16.006-4.88 23.5-8.5.725.559 1.558.892 2.5 1 6.364-2.034 12.698-4.034 19-6-.219-1.175.114-2.175 1-3 3.855-1.759 7.521-3.759 11-6 .793.431 1.627.765 2.5 1 1.3-1.207 2.8-1.874 4.5-2 .188-2.706 1.188-5.039 3-7 5.055-4.046 10.389-7.879 16-11.5 6.8-5.151 11.467-11.651 14-19.5 5.41-6.021 5.077-11.855-1-17.5-2.726-.182-5.393-.682-8-1.5 1.029.204 2.029-.296 3-1.5-1.272-1.046-2.772-1.546-4.5-1.5-3.148 1.679-7.148 3.013-12 4-1.376-.184-2.209-.851-2.5-2 6.104-1.261 12.104-3.094 18-5.5.752-.671 1.086-1.504 1-2.5z" fill="#f6bdb9"/><path d="m456.5 243.5c2.402-7.307.402-12.807-6-16.5-13.288-.355-24.955 3.812-35 12.5-11.644 7.157-23.31 14.324-35 21.5-8.623 4.594-17.623 8.094-27 10.5-14.942 2.476-29.942 2.643-45 .5-11.182-.727-21.515-4.061-31-10-10.901-6.608-21.568-13.442-32-20.5-1.114-1.853-.448-2.353 2-1.5 7.91 2.955 15.244 6.955 22 12 8.284 4.099 16.951 7.432 26 10 36.49 10.033 69.49 3.7 99-19 12.594-6.235 24.927-12.735 37-19.5.291 1.149 1.124 1.816 2.5 2 4.852-.987 8.852-2.321 12-4 1.728-.046 3.228.454 4.5 1.5-.971 1.204-1.971 1.704-3 1.5 2.607.818 5.274 1.318 8 1.5 6.077 5.645 6.41 11.479 1 17.5z" fill="#f9b9b3"/><path d="m239.5 260.5c3.018-.165 6.018.002 9 .5 17.416 7.205 34.749 14.705 52 22.5.285 3.538-1.382 5.371-5 5.5-8.123.848-16.123.182-24-2-12.185-5.173-22.685-12.673-31.5-22.5-.49-1.293-.657-2.627-.5-4z" fill="#c46263"/><path d="m210.5 275.5c2.627.605 5.293 1.105 8 1.5-.457.414-.791.914-1 1.5 1.422 1.047 2.922 1.047 4.5 0 2.621 2.059 5.454 3.726 8.5 5 1.307 1.982 2.641 3.982 4 6-8.368-4.179-16.368-8.846-24-14z" fill="#f1c6c3"/><path d="m338.5 283.5c6.434.025 12.767.858 19 2.5 2.667 2 2.667 4 0 6-6.069.804-12.069.471-18-1-3.193-1.026-4.526-3.192-4-6.5 1.291.237 2.291-.096 3-1z" fill="#f49f98"/><path d="m426.5 274.5c-1.812 1.961-2.812 4.294-3 7-1.7.126-3.2.793-4.5 2-.873-.235-1.707-.569-2.5-1-3.479 2.241-7.145 4.241-11 6-.886.825-1.219 1.825-1 3-6.302 1.966-12.636 3.966-19 6-.942-.108-1.775-.441-2.5-1-7.494 3.62-15.327 6.453-23.5 8.5-23.274 2.635-46.607 3.135-70 1.5 4.817-.667 9.483-1.334 14-2 10.672.167 21.339 0 32-.5 32.883-2.781 63.216-12.614 91-29.5z" fill="#fab9b4"/></g><g transform="matrix(1.67595 0 0 1.67595 -5.51666045 152.0638263)"><path d="m261.663 105.41c-.005-.368.289-.67.657-.675.367-.005.67.289.675.657.138 10.221-.863 20.25-2.217 30.368-.668 4.987-2.566 11.929-1.475 16.968.883 4.077 3.381 7.929 6.18 11.651 2.872 3.82 6.066 7.502 8.263 11.123 5.232 8.618 9.008 19.187 16.413 26.281 21.762 20.85 51.003 26.593 78.268 37.769 16.911 6.932 31.313 18.393 46.373 28.537.305.205.386.619.181.924-.206.305-.62.385-.924.18-14.986-10.093-29.308-21.511-46.135-28.409-27.419-11.239-56.799-17.071-78.684-38.04-7.487-7.173-11.34-17.837-16.63-26.551-2.177-3.587-5.344-7.23-8.19-11.014-2.919-3.883-5.495-7.917-6.416-12.169-1.121-5.174.771-12.306 1.456-17.427 1.345-10.053 2.343-20.017 2.205-30.173z"/><path d="m426.341 272.877c-.367.014-.677-.273-.691-.64s.272-.677.639-.691c15.267-.598 32.849-4.186 45.934-12.556 8.129-5.201 13.372-13.754 21.065-19.464 6.209-4.608 13.786-6.106 21.009-8.374.35-.11.724.085.834.436.111.35-.085.724-.435.834-7.083 2.224-14.526 3.655-20.614 8.174-7.718 5.728-12.986 14.298-21.142 19.515-13.276 8.493-31.108 12.159-46.599 12.766z"/><path d="m525.752 228.628c-.368 0-.666-.298-.666-.666 0-.367.298-.665.666-.665 5.291 0 10.571-.123 15.825.612 4.307.603 9.756 1.207 13.931 3.142 4.375 2.028 7.407 5.467 6.573 11.73-.224 1.686-.815 3.285-1.615 4.78-1.041 1.943-2.374 3.724-3.85 5.356-5.389 5.962-12.641 9.804-19.069 14.502-6.299 4.604-11.76 9.873-17.478 15.113-.271.249-.693.23-.941-.041s-.23-.692.041-.941c5.754-5.273 11.253-10.573 17.592-15.206 6.356-4.645 13.539-8.426 18.868-14.32 1.403-1.552 2.673-3.243 3.663-5.092.725-1.354 1.266-2.8 1.469-4.326.736-5.528-1.952-8.557-5.813-10.347-4.061-1.882-9.366-2.445-13.555-3.031-5.193-.726-10.412-.6-15.641-.6z"/><path d="m254.894 152.032c.363-.052.701.2.754.564.052.364-.2.701-.564.754-9.115 1.317-16.103 6.889-22.792 12.856-12.565 11.208-22.599 25.08-15.631 41.909 1.296 3.13 2.811 6.303 5.046 8.884 3.042 3.515 7.537 5.46 11.594 7.518 6.089 3.087 12.276 5.983 18.274 9.247 18.339 9.985 36.015 21.122 54.52 30.837.326.171.451.574.28.899s-.573.451-.899.28c-18.511-9.718-36.193-20.858-54.538-30.846-5.986-3.259-12.162-6.148-18.239-9.23-4.207-2.133-8.845-4.188-11.999-7.833-2.327-2.689-3.92-5.986-5.27-9.247-7.206-17.404 2.981-31.82 15.976-43.412 6.885-6.141 14.106-11.824 23.488-13.18z"/><path d="m312.506 272.014c-.354-.099-.561-.466-.463-.82.099-.355.466-.562.82-.463 13.754 3.829 27.043 9.863 39.486 16.872 8.182 4.609 16.218 10.139 25.042 13.442 9.437 3.532 20.153 3.37 30.104 4.113.367.027.642.347.615.713-.028.367-.347.642-.714.615-10.074-.752-20.918-.618-30.472-4.194-8.888-3.326-16.987-8.887-25.229-13.529-12.349-6.957-25.537-12.948-39.189-16.749z"/><path d="m422.528 306.237c-.368 0-.666-.299-.666-.666 0-.368.298-.666.666-.666 18.21 0 35.569-1.193 53.488-4.442 9.613-1.743 18.56-3.223 27.559-7.25.336-.15.73.001.88.336.15.336 0 .73-.336.88-9.1 4.072-18.144 5.581-27.865 7.344-17.999 3.264-35.435 4.464-53.726 4.464z"/><path d="m266.867 96.075c-.128.345-.511.521-.856.394-.345-.128-.521-.511-.393-.856 5.056-13.678 15.791-19.071 29.307-21.317 4.7-.781 9.825-1.57 14.494-.176 6.607 1.971 11.917 6.14 17.726 9.678 9.533 5.805 19.212 11.481 28.98 16.881 7.453 4.121 15.183 7.549 23.405 9.84.354.098.561.466.463.82-.099.354-.466.561-.82.462-8.323-2.318-16.148-5.786-23.693-9.957-9.784-5.409-19.478-11.093-29.027-16.909-5.712-3.478-10.919-7.601-17.414-9.539-4.477-1.336-9.39-.535-13.896.214-13.018 2.163-23.406 7.291-28.276 20.465z"/><path d="m391.241 123.169c-.34-.139-.503-.528-.363-.868.139-.34.529-.503.869-.364 15.796 6.485 32.03 13.235 46.846 21.847 8.858 5.15 17.036 11.323 25.209 17.475 5.304 3.993 12.874 7.648 17.132 12.904.231.286.187.705-.098.936-.286.232-.706.188-.937-.098-4.193-5.176-11.674-8.745-16.898-12.678-8.131-6.12-16.265-12.264-25.078-17.387-14.763-8.583-30.941-15.305-46.682-21.767z"/><path d="m503.285 189.618c-.341-.137-.507-.525-.369-.866.137-.341.525-.506.866-.369 10.532 4.234 20.573 9.445 29.977 15.836 4.632 3.147 8.747 6.949 13.3 10.179 4.056 2.877 8.963 4.534 12.717 7.821.276.242.304.663.062.94-.242.276-.663.304-.939.062-3.72-3.257-8.591-4.886-12.61-7.737-4.546-3.225-8.654-7.021-13.278-10.164-9.325-6.337-19.283-11.503-29.726-15.702z"/><path d="m183.975 128.498c.36-.076.714.155.789.514.076.36-.155.713-.514.789-12.635 2.661-24.484 14.855-27.315 27.591-1.239 5.571-.778 11.116-.458 16.759.744 13.125 3.279 25.762 7.599 38.169.12.347-.063.727-.41.848s-.727-.063-.848-.41c-4.361-12.525-6.919-25.282-7.67-38.532-.327-5.766-.778-11.431.487-17.123 2.937-13.209 15.236-25.846 28.34-28.605z"/><path d="m168.832 224.319c-.247-.272-.227-.693.044-.941.272-.247.694-.227.941.044 8.233 9.044 16.622 17.123 25.778 25.169 6.361 5.59 12.677 11.514 20.151 15.613 16.432 9.014 36.369 12.091 54.677 14.832 9.136 1.367 18.056 3.697 27.167 5.079 6.414.973 12.896 1.109 19.348 1.696.366.033.636.357.603.723s-.357.636-.723.603c-6.479-.589-12.988-.728-19.428-1.705-9.11-1.382-18.029-3.712-27.164-5.079-18.459-2.764-38.553-5.893-55.121-14.981-7.558-4.146-13.955-10.127-20.389-15.781-9.193-8.079-17.617-16.192-25.884-25.272z"/><path d="m156.313 212.941c.284-.233.704-.192.937.092s.192.704-.091.937c-7.264 5.97-14.857 12.699-19.726 20.869-3.472 5.828-6.511 12.105-8.469 18.629-1.464 4.875-3.793 10.739-3.393 16.016.35 4.616 2.234 7.847 5.332 11.309 6.941 7.755 14.827 10.195 23.393 11.181 5.808.668 11.925.672 18.277 1.17 3.753.293 7.494.769 11.191 1.488 7.904 1.537 15.652 3.971 23.284 6.501 9.148 3.032 18.403 6.142 27.076 10.392 17.878 8.76 34.534 19.542 53.236 26.73.343.132.515.517.383.86s-.518.515-.861.383c-18.738-7.202-35.431-18-53.344-26.777-8.619-4.223-17.818-7.311-26.909-10.324-7.578-2.512-15.271-4.931-23.12-6.458-3.646-.709-7.337-1.178-11.04-1.468-6.369-.498-12.502-.504-18.325-1.174-8.879-1.022-17.039-3.578-24.233-11.616-3.31-3.699-5.294-7.165-5.668-12.096-.412-5.433 1.939-11.481 3.445-16.5 1.99-6.628 5.074-13.006 8.601-18.927 4.946-8.301 12.644-15.151 20.024-21.217z"/><path d="m290.848 324.837c-.367-.006-.661-.309-.655-.677.006-.367.309-.661.677-.655 12.133.196 24.456 2.781 36.547 2.421 6.894-.205 13.501-2.166 20.161-3.769 4.989-1.2 11.43-1.428 16.013-4.002.321-.18.727-.066.907.254s.066.727-.255.907c-4.683 2.631-11.255 2.909-16.354 4.136-6.749 1.624-13.447 3.598-20.433 3.806-12.11.36-24.454-2.225-36.608-2.421z"/><path d="m191.835 127.007c-.365-.044-.625-.377-.58-.742s.378-.624.743-.579c21.177 2.61 42.293 10.697 62.145 18.392.343.133.513.519.38.862s-.519.513-.861.38c-19.752-7.656-40.757-15.715-61.827-18.313z"/></g><g transform="matrix(.23878097625 -.07025984628 .06172238939 .20976692985 90.5035429 359.47772235)"><path d="m416.5-.5h417c92.241 12.027 166.74 54.694 223.5 128 56.04 80.242 70.37 167.576 43 262-28.62 90.278-85.45 156.111-170.5 197.5-17.769 7.689-36.103 13.356-55 17 97.907 127.728 195.57 255.562 293 383.5h-112c-98.673-129.997-197.84-259.663-297.5-389-.5-27.331-.667-54.665-.5-82 94.812 19.707 169.979-9.293 225.5-87 43.19-64.533 52.19-133.533 27-207-22.245-50.245-58.078-87.412-107.5-111.5-26.483-13.16-54.483-20.827-84-23-104.333-.5-208.666-.667-313-.5v174h164v339h-164v387h-330v-387h-176v-339h265v89h-177v161h177v388h152v-388h164v-161h-164z" fill="#a61f27"/><path d="m416.5-14.22h417c.458 0 .916.03 1.372.089 95.431 12.443 172.448 56.718 231.168 132.559.14.174.27.352.39.534 58.79 84.168 73.72 175.794 45.02 274.837-.04.12-.07.239-.11.358-29.75 93.846-88.69 162.434-177.102 205.459-.151.073-.302.143-.455.209-11.958 5.174-24.162 9.47-36.612 12.885 93.364 121.839 186.509 243.774 279.439 365.803 3.09 4.059 3.81 9.798 1.85 14.685s-6.24 8.022-10.96 8.022h-112c-3.5 0-6.83-1.734-9.12-4.75-98.654-129.971-197.801-259.611-297.441-388.923-1.872-2.429-2.93-5.531-2.989-8.761-.503-27.458-.67-54.919-.503-82.381.025-4.054 1.623-7.887 4.366-10.472 2.743-2.586 6.349-3.658 9.852-2.93 89.857 18.677 161.216-8.416 213.909-82.059 40.156-60.143 48.686-124.414 25.399-192.863-21.002-47.09-54.796-81.843-101.217-104.468-.026-.013-.052-.026-.078-.039-25.101-12.473-51.636-19.752-79.6-21.856-100.175-.479-200.349-.651-300.525-.516v146.578h151.947c6.657 0 12.053 6.143 12.053 13.72v339c0 7.577-5.396 13.72-12.053 13.72h-151.947v373.28c0 7.577-5.396 13.72-12.053 13.72h-330c-6.657 0-12.053-6.143-12.053-13.72v-373.28h-163.947c-6.657 0-12.053-6.143-12.053-13.72v-339c0-7.577 5.396-13.72 12.053-13.72h265c6.657 0 12.053 6.143 12.053 13.72v89c0 7.577-5.396 13.72-12.053 13.72h-164.947v133.56h164.947c6.657 0 12.053 6.143 12.053 13.72v374.28h127.894v-374.28c0-7.577 5.396-13.72 12.053-13.72h151.947v-133.56h-151.947c-6.657 0-12.053-6.143-12.053-13.72v-351c0-7.577 5.396-13.72 12.053-13.72zm0 13.72v351h164v161h-164v388h-152v-388h-177v-161h177v-89h-265v339h176v387h330v-387h164v-339h-164v-174c104.334-.167 208.667 0 313 .5 29.517 2.173 57.517 9.84 84 23 49.422 24.088 85.255 61.255 107.5 111.5 25.19 73.467 16.19 142.467-27 207-55.521 77.707-130.688 106.707-225.5 87-.167 27.335 0 54.669.5 82 99.66 129.337 198.827 259.003 297.5 389h112c-97.43-127.938-195.093-255.772-293-383.5 18.897-3.644 37.231-9.311 55-17 85.05-41.389 141.88-107.222 170.5-197.5 27.37-94.424 13.04-181.758-43-262-56.76-73.306-131.259-115.973-223.5-128z" fill="#ffd5d5"/></g></svg>