<?xml version="1.0" encoding="UTF-8" standalone="no"?>
<!DOCTYPE svg PUBLIC "-//W3C//DTD SVG 1.1//EN" "http://www.w3.org/Graphics/SVG/1.1/DTD/svg11.dtd">
<!-- Created with Vectornator (http://vectornator.io/) -->
<svg height="427.5pt" stroke-miterlimit="10" style="fill-rule:nonzero;clip-rule:evenodd;stroke-linecap:round;stroke-linejoin:round;" version="1.1" viewBox="0 0 569.5 427.5" width="569.5pt" xml:space="preserve" xmlns="http://www.w3.org/2000/svg" xmlns:vectornator="http://vectornator.io" xmlns:xlink="http://www.w3.org/1999/xlink">
<defs/>
<clipPath id="ArtboardFrame">
<rect height="427.5" width="569.5" x="0" y="0"/>
</clipPath>
<g clip-path="url(#ArtboardFrame)" id="Untitled" vectornator:layerName="Untitled">
<path d="M-0.5-0.5C189.5-0.5 379.5-0.5 569.5-0.5C569.5 142.167 569.5 284.833 569.5 427.5C379.5 427.5 189.5 427.5-0.5 427.5C-0.5 284.833-0.5 142.167-0.5-0.5Z" fill="#fefefe" fill-rule="evenodd" opacity="1" stroke="none" vectornator:layerName="path"/>
<path d="M116.5 94.5C119.649 93.8349 122.982 93.5016 126.5 93.5C132.401 93.4021 138.067 94.0687 143.5 95.5C134.518 94.7817 125.518 94.4484 116.5 94.5Z" fill="#f6cfc8" fill-rule="evenodd" opacity="1" stroke="none" vectornator:layerName="path"/>
<path d="M523.5 145.5C524.165 148.314 524.498 151.314 524.5 154.5C524.295 160.08 523.295 165.414 521.5 170.5C521.729 172.824 522.396 174.991 523.5 177C523.011 178.138 522.678 179.305 522.5 180.5C521.732 179.737 521.232 178.737 521 177.5C520.502 174.183 520.335 170.85 520.5 167.5C520.46 164.575 521.293 161.909 523 159.5C523.499 154.845 523.666 150.179 523.5 145.5Z" fill="#fbd7d5" fill-rule="evenodd" opacity="1" stroke="none" vectornator:layerName="path"/>
<path d="M520.5 167.5C520.335 170.85 520.502 174.183 521 177.5C521.232 178.737 521.732 179.737 522.5 180.5C522.967 193.93 519.134 205.93 511 216.5C497.333 228.167 483.667 239.833 470 251.5C465.826 257.846 462.159 264.512 459 271.5C448.827 284.512 435.994 294.012 420.5 300C409.416 304.418 398.083 307.918 386.5 310.5C384.247 308.466 381.58 307.466 378.5 307.5C378.5 306.5 378.5 305.5 378.5 304.5C383.333 303.154 381.999 303.488 374.5 305.5C368.323 302.896 362.157 302.896 356 305.5C354.5 305 353 304.5 351.5 304C298.1 304.047 244.766 303.047 191.5 301C187.751 299.749 183.917 298.916 180 298.5C173.19 299.311 166.356 299.644 159.5 299.5C159.5 298.5 159.5 297.5 159.5 296.5C166.858 296.582 174.191 296.248 181.5 295.5C245.559 297.239 308.893 291.739 371.5 279C392.32 274.727 412.32 268.06 431.5 259C441.433 253.914 450.1 247.081 457.5 238.5C461.496 230.504 465.996 222.838 471 215.5C474.833 211.667 478.667 207.833 482.5 204C491.72 197.23 500.72 190.23 509.5 183C513.418 177.931 517.085 172.764 520.5 167.5Z" fill="#a9392a" fill-rule="evenodd" opacity="1" stroke="none" vectornator:layerName="path"/>
<path d="M181.5 295.5C174.191 296.248 166.858 296.582 159.5 296.5C159.5 297.5 159.5 298.5 159.5 299.5C166.356 299.644 173.19 299.311 180 298.5C183.917 298.916 187.751 299.749 191.5 301C244.766 303.047 298.1 304.047 351.5 304C353 304.5 354.5 305 356 305.5C362.157 302.896 368.323 302.896 374.5 305.5C381.999 303.488 383.333 303.154 378.5 304.5C378.5 305.5 378.5 306.5 378.5 307.5C381.58 307.466 384.247 308.466 386.5 310.5C364.449 316.564 342.116 321.23 319.5 324.5C313.949 324.527 308.616 325.194 303.5 326.5C296.637 326.638 289.97 327.304 283.5 328.5C273.94 328.749 264.607 329.749 255.5 331.5C224.815 331.787 194.149 331.453 163.5 330.5C159.005 329.578 154.338 328.911 149.5 328.5C128.953 327.18 110.619 320.347 94.5 308C59.9678 276.924 43.6344 238.091 45.5 191.5C46.3238 187.688 46.8238 183.688 47 179.5C47.2311 186.943 48.2311 194.276 50 201.5C53.1866 208.719 56.1866 216.052 59 223.5C65.2471 235.389 72.2471 246.722 80 257.5C91.0587 269.793 104.225 279.293 119.5 286C139.937 291.396 160.603 294.562 181.5 295.5Z" fill="#a8382d" fill-rule="evenodd" opacity="1" stroke="none" vectornator:layerName="path"/>
<path d="M116.5 94.5C125.518 94.4484 134.518 94.7817 143.5 95.5C170.446 99.7525 197.113 105.586 223.5 113C230.095 114.458 236.762 115.624 243.5 116.5C249.775 117.934 256.275 118.6 263 118.5C267.015 118.499 270.849 118.165 274.5 117.5C279.616 117.407 284.616 116.574 289.5 115C293.961 112.884 298.627 111.384 303.5 110.5C316.512 103.108 330.512 98.6076 345.5 97C388.727 91.9186 431.393 94.2519 473.5 104C485.758 108.295 497.424 113.961 508.5 121C514.135 125.629 518.635 131.129 522 137.5C522.822 140.117 523.322 142.784 523.5 145.5C523.666 150.179 523.499 154.845 523 159.5C521.293 161.909 520.46 164.575 520.5 167.5C517.085 172.764 513.418 177.931 509.5 183C500.72 190.23 491.72 197.23 482.5 204C478.667 207.833 474.833 211.667 471 215.5C465.996 222.838 461.496 230.504 457.5 238.5C450.1 247.081 441.433 253.914 431.5 259C412.32 268.06 392.32 274.727 371.5 279C308.893 291.739 245.559 297.239 181.5 295.5C160.603 294.562 139.937 291.396 119.5 286C104.225 279.293 91.0587 269.793 80 257.5C72.2471 246.722 65.2471 235.389 59 223.5C56.1866 216.052 53.1866 208.719 50 201.5C48.2311 194.276 47.2311 186.943 47 179.5C46.8238 183.688 46.3238 187.688 45.5 191.5C44.9365 177.362 45.7698 163.362 48 149.5C57.0208 122.15 75.5208 104.65 103.5 97C107.965 96.1259 112.298 95.2926 116.5 94.5Z" fill="#d9675a" fill-rule="evenodd" opacity="1" stroke="none" vectornator:layerName="path"/>
<path d="M269.5 279.5C267.842 280.181 266.175 281.015 264.5 282C259.982 282.065 255.649 282.731 251.5 284C256.863 284.264 262.197 284.764 267.5 285.5C276.788 284.273 286.122 283.606 295.5 283.5C257.642 288.541 219.642 290.208 181.5 288.5C198.17 288.667 214.837 288.5 231.5 288C232.634 286.984 232.301 286.317 230.5 286C225.316 285.826 220.316 285.326 215.5 284.5C233.576 283.657 251.576 281.991 269.5 279.5Z" fill="#f6ded9" fill-rule="evenodd" opacity="1" stroke="none" vectornator:layerName="path"/>
<path d="M319.5 281.5C314.402 282.957 309.069 283.624 303.5 283.5C308.616 282.194 313.949 281.527 319.5 281.5Z" fill="#d78984" fill-rule="evenodd" opacity="1" stroke="none" vectornator:layerName="path"/>
<path d="M473.5 114.5C481.526 118.023 489.526 121.857 497.5 126C511.979 134.39 516.479 146.556 511 162.5C503.116 176.051 492.283 186.551 478.5 194C465.736 204.033 456.236 216.533 450 231.5C442.607 240.623 433.44 247.457 422.5 252C417.261 254.304 411.928 255.97 406.5 257C409.567 254.812 412.567 252.645 415.5 250.5C418.771 247.732 421.938 244.732 425 241.5C429.655 232.905 434.322 224.238 439 215.5C442 211.5 445 207.5 448 203.5C459.299 193.869 470.299 183.869 481 173.5C499.362 149.853 495.862 130.353 470.5 115C471.448 114.517 472.448 114.351 473.5 114.5Z" fill="#af353c" fill-rule="evenodd" opacity="1" stroke="none" vectornator:layerName="path"/>
<path d="M473.5 111.5C488.509 115.924 501.676 123.591 513 134.5C517.684 142.369 518.684 150.702 516 159.5C512.445 168.718 506.945 176.551 499.5 183C491.5 189 483.5 195 475.5 201C465.652 210.186 458.152 221.019 453 233.5C447.601 240.286 441.101 245.786 433.5 250C426.468 254.02 419.135 257.187 411.5 259.5C408.001 258.159 404.501 258.492 401 260.5C400.5 260.333 400 260.167 399.5 260C400.337 258.989 400.67 257.822 400.5 256.5C401.5 256.5 402.5 256.5 403.5 256.5C403.089 253.724 403.922 253.057 406 254.5C407.722 254.389 407.888 253.889 406.5 253C409.513 252.091 412.513 251.258 415.5 250.5C412.567 252.645 409.567 254.812 406.5 257C411.928 255.97 417.261 254.304 422.5 252C433.44 247.457 442.607 240.623 450 231.5C456.236 216.533 465.736 204.033 478.5 194C492.283 186.551 503.116 176.051 511 162.5C516.479 146.556 511.979 134.39 497.5 126C489.526 121.857 481.526 118.023 473.5 114.5C474.376 114.631 475.043 114.298 475.5 113.5C474.757 112.818 474.091 112.151 473.5 111.5Z" fill="#faece5" fill-rule="evenodd" opacity="1" stroke="none" vectornator:layerName="path"/>
<path d="M95.5 106.5C95.5 107.5 95.5 108.5 95.5 109.5C92.1469 109.345 91.8136 110.012 94.5 111.5C64.7789 125.621 53.7789 148.955 61.5 181.5C60.207 180.158 59.3736 178.491 59 176.5C58.9467 167.066 58.28 157.733 57 148.5C55.8714 160.149 55.0381 171.815 54.5 183.5C47.8786 147.078 61.5452 121.411 95.5 106.5Z" fill="#f9e6e5" fill-rule="evenodd" opacity="1" stroke="none" vectornator:layerName="path"/>
<path d="M61.5 181.5C53.7789 148.955 64.7789 125.621 94.5 111.5C122.886 106.123 150.719 108.123 178 117.5C179.24 125.65 181.906 133.316 186 140.5C200.037 161.876 212.371 184.21 223 207.5C231.279 231.322 225.446 250.822 205.5 266C175.354 287.625 145.02 287.959 114.5 267C86.5477 244.939 68.881 216.439 61.5 181.5Z" fill="#a7353f" fill-rule="evenodd" opacity="1" stroke="none" vectornator:layerName="path"/>
<path d="M473.5 111.5C474.091 112.151 474.757 112.818 475.5 113.5C475.043 114.298 474.376 114.631 473.5 114.5C472.448 114.351 471.448 114.517 470.5 115C495.862 130.353 499.362 149.853 481 173.5C470.299 183.869 459.299 193.869 448 203.5C445 207.5 442 211.5 439 215.5C434.322 224.238 429.655 232.905 425 241.5C421.938 244.732 418.771 247.732 415.5 250.5C412.513 251.258 409.513 252.091 406.5 253C407.888 253.889 407.722 254.389 406 254.5C403.922 253.057 403.089 253.724 403.5 256.5C402.5 256.5 401.5 256.5 400.5 256.5C400.67 257.822 400.337 258.989 399.5 260C400 260.167 400.5 260.333 401 260.5C404.501 258.492 408.001 258.159 411.5 259.5C400.181 263.995 388.515 267.828 376.5 271C357.427 274.954 338.427 278.454 319.5 281.5C313.949 281.527 308.616 282.194 303.5 283.5C300.833 283.5 298.167 283.5 295.5 283.5C286.122 283.606 276.788 284.273 267.5 285.5C262.197 284.764 256.863 284.264 251.5 284C255.649 282.731 259.982 282.065 264.5 282C266.175 281.015 267.842 280.181 269.5 279.5C311.779 271.778 353.779 262.778 395.5 252.5C398.271 252.579 400.937 252.079 403.5 251C401.889 245.889 402.723 245.389 406 249.5C406.5 249 407 248.5 407.5 248C406.315 246.647 404.981 245.48 403.5 244.5C402.692 244.808 402.025 245.308 401.5 246C382.228 248.728 362.894 249.228 343.5 247.5C339.96 247.247 336.627 246.581 333.5 245.5C331.002 243.34 328.002 242.007 324.5 241.5C326.411 240.523 328.411 239.857 330.5 239.5C338.167 240.167 345.833 240.833 353.5 241.5C368.837 241.667 384.17 241.5 399.5 241C401.058 240.79 402.391 240.29 403.5 239.5C411.287 239.293 417.787 236.293 423 230.5C423.791 229.255 424.291 227.922 424.5 226.5C428.518 216.981 434.185 208.481 441.5 201C447.347 198.246 452.68 194.746 457.5 190.5C466.258 175.981 475.758 161.981 486 148.5C486.701 145.072 486.368 141.738 485 138.5C477.51 129.506 468.677 122.173 458.5 116.5C445.833 110.664 432.5 107.164 418.5 106C386.269 102.019 354.935 105.353 324.5 116C309.74 121.293 297.574 130.127 288 142.5C286.814 148.085 286.148 153.751 286 159.5C283.171 167.825 280.505 176.159 278 184.5C276.94 193.974 277.607 203.307 280 212.5C281.886 216.958 284.719 220.625 288.5 223.5C288.421 224.93 288.754 226.264 289.5 227.5C288.975 228.192 288.308 228.692 287.5 229C276.882 230.208 266.215 230.875 255.5 231C250.954 232.47 246.288 233.636 241.5 234.5C241.5 235.5 241.5 236.5 241.5 237.5C229.393 248.119 219.226 260.452 211 274.5C207.86 280.19 209.36 283.523 215.5 284.5C220.316 285.326 225.316 285.826 230.5 286C232.301 286.317 232.634 286.984 231.5 288C214.837 288.5 198.17 288.667 181.5 288.5C160.83 287.541 140.496 284.374 120.5 279C99.4943 268.994 83.3276 253.828 72 233.5C62.6896 218.07 56.8563 201.403 54.5 183.5C55.0381 171.815 55.8714 160.149 57 148.5C58.28 157.733 58.9467 167.066 59 176.5C59.3736 178.491 60.207 180.158 61.5 181.5C68.881 216.439 86.5477 244.939 114.5 267C145.02 287.959 175.354 287.625 205.5 266C225.446 250.822 231.279 231.322 223 207.5C212.371 184.21 200.037 161.876 186 140.5C181.906 133.316 179.24 125.65 178 117.5C150.719 108.123 122.886 106.123 94.5 111.5C91.8136 110.012 92.1469 109.345 95.5 109.5C95.5 108.5 95.5 107.5 95.5 106.5C100.537 104.449 105.87 102.949 111.5 102C127.574 101.002 143.574 101.669 159.5 104C187.012 110.865 214.678 117.198 242.5 123C258.211 125.1 273.878 124.766 289.5 122C301.713 117.894 313.713 113.227 325.5 108C335.704 105.359 346.037 103.359 356.5 102C386.918 100.696 417.252 101.696 447.5 105C456.309 106.634 464.975 108.801 473.5 111.5Z" fill="#fbf6f4" fill-rule="evenodd" opacity="1" stroke="none" vectornator:layerName="path"/>
<path d="M333.5 245.5C336.627 246.581 339.96 247.247 343.5 247.5C361.693 251.461 380.027 251.461 398.5 247.5C400 247.453 401 248.119 401.5 249.5C399.556 250.801 397.556 251.801 395.5 252.5C353.779 262.778 311.779 271.778 269.5 279.5C251.576 281.991 233.576 283.657 215.5 284.5C209.36 283.523 207.86 280.19 211 274.5C219.226 260.452 229.393 248.119 241.5 237.5C252.649 232.642 264.316 230.809 276.5 232C295.801 235.409 314.801 239.909 333.5 245.5Z" fill="#c63638" fill-rule="evenodd" opacity="1" stroke="none" vectornator:layerName="path"/>
<path d="M395.5 252.5C397.556 251.801 399.556 250.801 401.5 249.5C401 248.119 400 247.453 398.5 247.5C380.027 251.461 361.693 251.461 343.5 247.5C362.894 249.228 382.228 248.728 401.5 246C402.025 245.308 402.692 244.808 403.5 244.5C404.981 245.48 406.315 246.647 407.5 248C407 248.5 406.5 249 406 249.5C402.723 245.389 401.889 245.889 403.5 251C400.937 252.079 398.271 252.579 395.5 252.5Z" fill="#fce5e0" fill-rule="evenodd" opacity="1" stroke="none" vectornator:layerName="path"/>
<path d="M403.5 239.5C402.391 240.29 401.058 240.79 399.5 241C384.17 241.5 368.837 241.667 353.5 241.5C370.007 240.708 386.674 240.041 403.5 239.5Z" fill="#9c1b20" fill-rule="evenodd" opacity="1" stroke="none" vectornator:layerName="path"/>
<path d="M288.5 223.5C292.855 227.348 297.855 230.181 303.5 232C312.688 234.296 321.688 236.796 330.5 239.5C328.411 239.857 326.411 240.523 324.5 241.5C328.002 242.007 331.002 243.34 333.5 245.5C314.801 239.909 295.801 235.409 276.5 232C264.316 230.809 252.649 232.642 241.5 237.5C241.5 236.5 241.5 235.5 241.5 234.5C246.288 233.636 250.954 232.47 255.5 231C266.215 230.875 276.882 230.208 287.5 229C288.308 228.692 288.975 228.192 289.5 227.5C288.754 226.264 288.421 224.93 288.5 223.5Z" fill="#faece4" fill-rule="evenodd" opacity="1" stroke="none" vectornator:layerName="path"/>
<path d="M458.5 116.5C468.677 122.173 477.51 129.506 485 138.5C486.368 141.738 486.701 145.072 486 148.5C475.758 161.981 466.258 175.981 457.5 190.5C452.68 194.746 447.347 198.246 441.5 201C434.185 208.481 428.518 216.981 424.5 226.5C423.503 226.53 422.836 226.03 422.5 225C424.386 218.692 423.052 217.526 418.5 221.5C417.289 220.726 417.289 219.893 418.5 219C416.277 217.249 415.943 215.082 417.5 212.5C415.656 205.648 414.99 198.648 415.5 191.5C410.167 191.5 404.833 191.5 399.5 191.5C399.496 184.788 399.329 178.121 399 171.5C399.674 170.422 400.674 169.755 402 169.5C404.462 170.159 406.962 170.493 409.5 170.5C421.84 173.063 431.673 169.397 439 159.5C439.755 155.745 439.589 152.078 438.5 148.5C440.123 152.424 441.123 156.757 441.5 161.5C442.167 158.167 442.833 154.833 443.5 151.5C444.167 154.167 444.833 156.833 445.5 159.5C446.825 144.893 447.492 144.893 447.5 159.5C452.833 159.5 458.167 159.5 463.5 159.5C463.176 155.445 463.509 151.445 464.5 147.5C466.111 146.68 466.778 145.346 466.5 143.5C472.104 143.324 472.604 141.991 468 139.5C468.618 135.474 467.285 134.807 464 137.5C463.502 134.183 463.335 130.85 463.5 127.5C461.42 126.956 459.42 126.122 457.5 125C458.102 122.964 459.102 121.13 460.5 119.5C459.388 118.735 458.721 117.735 458.5 116.5Z" fill="#c63639" fill-rule="evenodd" opacity="1" stroke="none" vectornator:layerName="path"/>
<path d="M438.5 148.5C439.589 152.078 439.755 155.745 439 159.5C431.673 169.397 421.84 173.063 409.5 170.5C399.446 166.606 394.946 159.272 396 148.5C405.673 136.729 417.507 134.229 431.5 141C434.717 142.715 437.05 145.215 438.5 148.5Z" fill="#dbc8cb" fill-rule="evenodd" opacity="1" stroke="none" vectornator:layerName="path"/>
<path d="M411.5 144.5C417.675 143.643 423.342 144.81 428.5 148C432.964 151.155 433.631 154.988 430.5 159.5C422.101 164.788 413.767 164.788 405.5 159.5C401.554 155.706 401.554 151.872 405.5 148C407.432 146.541 409.432 145.375 411.5 144.5Z" fill="#c53936" fill-rule="evenodd" opacity="1" stroke="none" vectornator:layerName="path"/>
<path d="M251.5 128.5C257.245 130.451 263.245 131.785 269.5 132.5C274.239 133.699 278.905 135.199 283.5 137C284.771 141.823 284.605 146.657 283 151.5C279.205 164.752 273.539 177.085 266 188.5C265.333 191.5 265.333 194.5 266 197.5C269.201 204.179 270.868 211.179 271 218.5C263.882 225.479 255.382 228.646 245.5 228C241.089 226.59 237.922 223.757 236 219.5C234.982 213.444 232.982 207.777 230 202.5C218.633 185.763 208.3 168.43 199 150.5C196.142 144.793 195.142 138.793 196 132.5C196.883 129.898 198.383 127.731 200.5 126C209.833 125.333 219.167 125.333 228.5 126C236.098 127.305 243.765 128.139 251.5 128.5Z" fill="#c63637" fill-rule="evenodd" opacity="1" stroke="none" vectornator:layerName="path"/>
<path d="M269.5 132.5C263.245 131.785 257.245 130.451 251.5 128.5C254.579 128.74 257.579 128.407 260.5 127.5C261.386 128.325 261.719 129.325 261.5 130.5C263.857 130.337 266.19 130.503 268.5 131C269.056 131.383 269.389 131.883 269.5 132.5Z" fill="#fdd9d5" fill-rule="evenodd" opacity="1" stroke="none" vectornator:layerName="path"/>
<path d="M458.5 116.5C458.721 117.735 459.388 118.735 460.5 119.5C459.102 121.13 458.102 122.964 457.5 125C459.42 126.122 461.42 126.956 463.5 127.5C463.335 130.85 463.502 134.183 464 137.5C467.285 134.807 468.618 135.474 468 139.5C472.604 141.991 472.104 143.324 466.5 143.5C466.778 145.346 466.111 146.68 464.5 147.5C463.509 151.445 463.176 155.445 463.5 159.5C458.167 159.5 452.833 159.5 447.5 159.5C447.492 144.893 446.825 144.893 445.5 159.5C444.833 156.833 444.167 154.167 443.5 151.5C442.833 154.833 442.167 158.167 441.5 161.5C441.123 156.757 440.123 152.424 438.5 148.5C437.05 145.215 434.717 142.715 431.5 141C417.507 134.229 405.673 136.729 396 148.5C394.946 159.272 399.446 166.606 409.5 170.5C406.962 170.493 404.462 170.159 402 169.5C400.674 169.755 399.674 170.422 399 171.5C399.329 178.121 399.496 184.788 399.5 191.5C404.833 191.5 410.167 191.5 415.5 191.5C414.99 198.648 415.656 205.648 417.5 212.5C415.943 215.082 416.277 217.249 418.5 219C417.289 219.893 417.289 220.726 418.5 221.5C423.052 217.526 424.386 218.692 422.5 225C422.836 226.03 423.503 226.53 424.5 226.5C424.291 227.922 423.791 229.255 423 230.5C417.787 236.293 411.287 239.293 403.5 239.5C386.674 240.041 370.007 240.708 353.5 241.5C345.833 240.833 338.167 240.167 330.5 239.5C321.688 236.796 312.688 234.296 303.5 232C297.855 230.181 292.855 227.348 288.5 223.5C284.719 220.625 281.886 216.958 280 212.5C277.607 203.307 276.94 193.974 278 184.5C280.505 176.159 283.171 167.825 286 159.5C286.148 153.751 286.814 148.085 288 142.5C297.574 130.127 309.74 121.293 324.5 116C354.935 105.353 386.269 102.019 418.5 106C432.5 107.164 445.833 110.664 458.5 116.5Z" fill="#c73637" fill-rule="evenodd" opacity="1" stroke="none" vectornator:layerName="path"/>
<path d="M243.5 116.5C253.817 117.226 264.15 117.56 274.5 117.5C270.849 118.165 267.015 118.499 263 118.5C256.275 118.6 249.775 117.934 243.5 116.5Z" fill="#e79d92" fill-rule="evenodd" opacity="1" stroke="none" vectornator:layerName="path"/>
<path d="M303.5 326.5C297.063 328.039 290.396 328.706 283.5 328.5C289.97 327.304 296.637 326.638 303.5 326.5Z" fill="#d9a49b" fill-rule="evenodd" opacity="1" stroke="none" vectornator:layerName="path"/>
<path d="M319.5 324.5C316.555 326.161 313.221 327.328 309.5 328C304.084 328.159 298.75 328.826 293.5 330C294.167 330.333 294.833 330.667 295.5 331C293.109 331.287 290.776 331.787 288.5 332.5C284.519 331.234 280.352 330.568 276 330.5C269.159 330.761 262.325 331.095 255.5 331.5C264.607 329.749 273.94 328.749 283.5 328.5C290.396 328.706 297.063 328.039 303.5 326.5C308.616 325.194 313.949 324.527 319.5 324.5Z" fill="#fbeee6" fill-rule="evenodd" opacity="1" stroke="none" vectornator:layerName="path"/>
<path d="M149.5 328.5C154.338 328.911 159.005 329.578 163.5 330.5C159.818 330.665 156.152 330.499 152.5 330C151.263 329.768 150.263 329.268 149.5 328.5Z" fill="#f1c3c7" fill-rule="evenodd" opacity="1" stroke="none" vectornator:layerName="path"/>
</g>
</svg>
