<svg clip-rule="evenodd" fill-rule="evenodd" stroke-linejoin="round" stroke-miterlimit="2" viewBox="0 0 1024 1024" xmlns="http://www.w3.org/2000/svg"><g transform="matrix(1.83234 0 0 1.83234 5.39482 121.72)"><path d="m116.5 94.5c3.149-.665 6.482-.998 10-1 5.901-.098 11.567.569 17 2-8.982-.718-17.982-1.052-27-1z" fill="#f6cfc8"/><path d="m523.5 145.5c.665 2.814.998 5.814 1 9-.205 5.58-1.205 10.914-3 16 .229 2.324.896 4.491 2 6.5-.489 1.138-.822 2.305-1 3.5-.768-.763-1.268-1.763-1.5-3-.498-3.317-.665-6.65-.5-10-.04-2.925.793-5.591 2.5-8 .499-4.655.666-9.321.5-14z" fill="#fbd7d5"/><path d="m520.5 167.5c-.165 3.35.002 6.683.5 10 .232 1.237.732 2.237 1.5 3 .467 13.43-3.366 25.43-11.5 36-13.667 11.667-27.333 23.333-41 35-4.174 6.346-7.841 13.012-11 20-10.173 13.012-23.006 22.512-38.5 28.5-11.084 4.418-22.417 7.918-34 10.5-2.253-2.034-4.92-3.034-8-3v-3c4.833-1.346 3.499-1.012-4 1-6.177-2.604-12.343-2.604-18.5 0-1.5-.5-3-1-4.5-1.5-53.4.047-106.734-.953-160-3-3.749-1.251-7.583-2.084-11.5-2.5-6.81.811-13.644 1.144-20.5 1v-3c7.358.082 14.691-.252 22-1 64.059 1.739 127.393-3.761 190-16.5 20.82-4.273 40.82-10.94 60-20 9.933-5.086 18.6-11.919 26-20.5 3.996-7.996 8.496-15.662 13.5-23 3.833-3.833 7.667-7.667 11.5-11.5 9.22-6.77 18.22-13.77 27-21 3.918-5.069 7.585-10.236 11-15.5z" fill="#a9392a"/><path d="m181.5 295.5c-7.309.748-14.642 1.082-22 1v3c6.856.144 13.69-.189 20.5-1 3.917.416 7.751 1.249 11.5 2.5 53.266 2.047 106.6 3.047 160 3l4.5 1.5c6.157-2.604 12.323-2.604 18.5 0 7.499-2.012 8.833-2.346 4-1v3c3.08-.034 5.747.966 8 3-22.051 6.064-44.384 10.73-67 14-5.551.027-10.884.694-16 2-6.863.138-13.53.804-20 2-9.56.249-18.893 1.249-28 3-30.685.287-61.351-.047-92-1-4.495-.922-9.162-1.589-14-2-20.547-1.32-38.881-8.153-55-20.5-34.532-31.076-50.866-69.909-49-116.5.824-3.812 1.324-7.812 1.5-12 .231 7.443 1.231 14.776 3 22 3.187 7.219 6.187 14.552 9 22 6.247 11.889 13.247 23.222 21 34 11.059 12.293 24.225 21.793 39.5 28.5 20.437 5.396 41.103 8.562 62 9.5z" fill="#a8382d"/><path d="m116.5 94.5c9.018-.052 18.018.282 27 1 26.946 4.253 53.613 10.086 80 17.5 6.595 1.458 13.262 2.624 20 3.5 6.275 1.434 12.775 2.1 19.5 2 4.015-.001 7.849-.335 11.5-1 5.116-.093 10.116-.926 15-2.5 4.461-2.116 9.127-3.616 14-4.5 13.012-7.392 27.012-11.892 42-13.5 43.227-5.081 85.893-2.748 128 7 12.258 4.295 23.924 9.961 35 17 5.635 4.629 10.135 10.129 13.5 16.5.822 2.617 1.322 5.284 1.5 8 .166 4.679-.001 9.345-.5 14-1.707 2.409-2.54 5.075-2.5 8-3.415 5.264-7.082 10.431-11 15.5-8.78 7.23-17.78 14.23-27 21-3.833 3.833-7.667 7.667-11.5 11.5-5.004 7.338-9.504 15.004-13.5 23-7.4 8.581-16.067 15.414-26 20.5-19.18 9.06-39.18 15.727-60 20-62.607 12.739-125.941 18.239-190 16.5-20.897-.938-41.563-4.104-62-9.5-15.275-6.707-28.441-16.207-39.5-28.5-7.753-10.778-14.753-22.111-21-34-2.813-7.448-5.813-14.781-9-22-1.769-7.224-2.769-14.557-3-22-.176 4.188-.676 8.188-1.5 12-.563-14.138.27-28.138 2.5-42 9.021-27.35 27.521-44.85 55.5-52.5 4.465-.874 8.798-1.707 13-2.5z" fill="#d9675a"/><path d="m269.5 279.5c-1.658.681-3.325 1.515-5 2.5-4.518.065-8.851.731-13 2 5.363.264 10.697.764 16 1.5 9.288-1.227 18.622-1.894 28-2-37.858 5.041-75.858 6.708-114 5 16.67.167 33.337 0 50-.5 1.134-1.016.801-1.683-1-2-5.184-.174-10.184-.674-15-1.5 18.076-.843 36.076-2.509 54-5z" fill="#f6ded9"/><path d="m319.5 281.5c-5.098 1.457-10.431 2.124-16 2 5.116-1.306 10.449-1.973 16-2z" fill="#d78984"/><path d="m473.5 114.5c8.026 3.523 16.026 7.357 24 11.5 14.479 8.39 18.979 20.556 13.5 36.5-7.884 13.551-18.717 24.051-32.5 31.5-12.764 10.033-22.264 22.533-28.5 37.5-7.393 9.123-16.56 15.957-27.5 20.5-5.239 2.304-10.572 3.97-16 5 3.067-2.188 6.067-4.355 9-6.5 3.271-2.768 6.438-5.768 9.5-9 4.655-8.595 9.322-17.262 14-26l9-12c11.299-9.631 22.299-19.631 33-30 18.362-23.647 14.862-43.147-10.5-58.5.948-.483 1.948-.649 3-.5z" fill="#af353c"/><path d="m473.5 111.5c15.009 4.424 28.176 12.091 39.5 23 4.684 7.869 5.684 16.202 3 25-3.555 9.218-9.055 17.051-16.5 23.5-8 6-16 12-24 18-9.848 9.186-17.348 20.019-22.5 32.5-5.399 6.786-11.899 12.286-19.5 16.5-7.032 4.02-14.365 7.187-22 9.5-3.499-1.341-6.999-1.008-10.5 1-.5-.167-1-.333-1.5-.5.837-1.011 1.17-2.178 1-3.5h3c-.411-2.776.422-3.443 2.5-2 1.722-.111 1.888-.611.5-1.5 3.013-.909 6.013-1.742 9-2.5-2.933 2.145-5.933 4.312-9 6.5 5.428-1.03 10.761-2.696 16-5 10.94-4.543 20.107-11.377 27.5-20.5 6.236-14.967 15.736-27.467 28.5-37.5 13.783-7.449 24.616-17.949 32.5-31.5 5.479-15.944.979-28.11-13.5-36.5-7.974-4.143-15.974-7.977-24-11.5.876.131 1.543-.202 2-1-.743-.682-1.409-1.349-2-2z" fill="#faece5"/><path d="m95.5 106.5v3c-3.353-.155-3.686.512-1 2-29.721 14.121-40.721 37.455-33 70-1.293-1.342-2.126-3.009-2.5-5-.053-9.434-.72-18.767-2-28-1.129 11.649-1.962 23.315-2.5 35-6.621-36.422 7.045-62.089 41-77z" fill="#f9e6e5"/><path d="m61.5 181.5c-7.721-32.545 3.279-55.879 33-70 28.386-5.377 56.219-3.377 83.5 6 1.24 8.15 3.906 15.816 8 23 14.037 21.376 26.371 43.71 37 67 8.279 23.822 2.446 43.322-17.5 58.5-30.146 21.625-60.48 21.959-91 1-27.952-22.061-45.619-50.561-53-85.5z" fill="#a7353f"/><path d="m473.5 111.5c.591.651 1.257 1.318 2 2-.457.798-1.124 1.131-2 1-1.052-.149-2.052.017-3 .5 25.362 15.353 28.862 34.853 10.5 58.5-10.701 10.369-21.701 20.369-33 30-3 4-6 8-9 12-4.678 8.738-9.345 17.405-14 26-3.062 3.232-6.229 6.232-9.5 9-2.987.758-5.987 1.591-9 2.5 1.388.889 1.222 1.389-.5 1.5-2.078-1.443-2.911-.776-2.5 2h-3c.17 1.322-.163 2.489-1 3.5.5.167 1 .333 1.5.5 3.501-2.008 7.001-2.341 10.5-1-11.319 4.495-22.985 8.328-35 11.5-19.073 3.954-38.073 7.454-57 10.5-5.551.027-10.884.694-16 2h-8c-9.378.106-18.712.773-28 2-5.303-.736-10.637-1.236-16-1.5 4.149-1.269 8.482-1.935 13-2 1.675-.985 3.342-1.819 5-2.5 42.279-7.722 84.279-16.722 126-27 2.771.079 5.437-.421 8-1.5-1.611-5.111-.777-5.611 2.5-1.5l1.5-1.5c-1.185-1.353-2.519-2.52-4-3.5-.808.308-1.475.808-2 1.5-19.272 2.728-38.606 3.228-58 1.5-3.54-.253-6.873-.919-10-2-2.498-2.16-5.498-3.493-9-4 1.911-.977 3.911-1.643 6-2 7.667.667 15.333 1.333 23 2 15.337.167 30.67 0 46-.5 1.558-.21 2.891-.71 4-1.5 7.787-.207 14.287-3.207 19.5-9 .791-1.245 1.291-2.578 1.5-4 4.018-9.519 9.685-18.019 17-25.5 5.847-2.754 11.18-6.254 16-10.5 8.758-14.519 18.258-28.519 28.5-42 .701-3.428.368-6.762-1-10-7.49-8.994-16.323-16.327-26.5-22-12.667-5.836-26-9.336-40-10.5-32.231-3.981-63.565-.647-94 10-14.76 5.293-26.926 14.127-36.5 26.5-1.186 5.585-1.852 11.251-2 17-2.829 8.325-5.495 16.659-8 25-1.06 9.474-.393 18.807 2 28 1.886 4.458 4.719 8.125 8.5 11-.079 1.43.254 2.764 1 4-.525.692-1.192 1.192-2 1.5-10.618 1.208-21.285 1.875-32 2-4.546 1.47-9.212 2.636-14 3.5v3c-12.107 10.619-22.274 22.952-30.5 37-3.14 5.69-1.64 9.023 4.5 10 4.816.826 9.816 1.326 15 1.5 1.801.317 2.134.984 1 2-16.663.5-33.33.667-50 .5-20.67-.959-41.004-4.126-61-9.5-21.006-10.006-37.172-25.172-48.5-45.5-9.31-15.43-15.144-32.097-17.5-50 .538-11.685 1.371-23.351 2.5-35 1.28 9.233 1.947 18.566 2 28 .374 1.991 1.207 3.658 2.5 5 7.381 34.939 25.048 63.439 53 85.5 30.52 20.959 60.854 20.625 91-1 19.946-15.178 25.779-34.678 17.5-58.5-10.629-23.29-22.963-45.624-37-67-4.094-7.184-6.76-14.85-8-23-27.281-9.377-55.114-11.377-83.5-6-2.686-1.488-2.353-2.155 1-2v-3c5.037-2.051 10.37-3.551 16-4.5 16.074-.998 32.074-.331 48 2 27.512 6.865 55.178 13.198 83 19 15.711 2.1 31.378 1.766 47-1 12.213-4.106 24.213-8.773 36-14 10.204-2.641 20.537-4.641 31-6 30.418-1.304 60.752-.304 91 3 8.809 1.634 17.475 3.801 26 6.5z" fill="#fbf6f4"/><path d="m333.5 245.5c3.127 1.081 6.46 1.747 10 2 18.193 3.961 36.527 3.961 55 0 1.5-.047 2.5.619 3 2-1.944 1.301-3.944 2.301-6 3-41.721 10.278-83.721 19.278-126 27-17.924 2.491-35.924 4.157-54 5-6.14-.977-7.64-4.31-4.5-10 8.226-14.048 18.393-26.381 30.5-37 11.149-4.858 22.816-6.691 35-5.5 19.301 3.409 38.301 7.909 57 13.5z" fill="#c63638"/><path d="m395.5 252.5c2.056-.699 4.056-1.699 6-3-.5-1.381-1.5-2.047-3-2-18.473 3.961-36.807 3.961-55 0 19.394 1.728 38.728 1.228 58-1.5.525-.692 1.192-1.192 2-1.5 1.481.98 2.815 2.147 4 3.5-.5.5-1 1-1.5 1.5-3.277-4.111-4.111-3.611-2.5 1.5-2.563 1.079-5.229 1.579-8 1.5z" fill="#fce5e0"/><path d="m403.5 239.5c-1.109.79-2.442 1.29-4 1.5-15.33.5-30.663.667-46 .5 16.507-.792 33.174-1.459 50-2z" fill="#9c1b20"/><path d="m288.5 223.5c4.355 3.848 9.355 6.681 15 8.5 9.188 2.296 18.188 4.796 27 7.5-2.089.357-4.089 1.023-6 2 3.502.507 6.502 1.84 9 4-18.699-5.591-37.699-10.091-57-13.5-12.184-1.191-23.851.642-35 5.5v-3c4.788-.864 9.454-2.03 14-3.5 10.715-.125 21.382-.792 32-2 .808-.308 1.475-.808 2-1.5-.746-1.236-1.079-2.57-1-4z" fill="#faece4"/><path d="m458.5 116.5c10.177 5.673 19.01 13.006 26.5 22 1.368 3.238 1.701 6.572 1 10-10.242 13.481-19.742 27.481-28.5 42-4.82 4.246-10.153 7.746-16 10.5-7.315 7.481-12.982 15.981-17 25.5-.997.03-1.664-.47-2-1.5 1.886-6.308.552-7.474-4-3.5-1.211-.774-1.211-1.607 0-2.5-2.223-1.751-2.557-3.918-1-6.5-1.844-6.852-2.51-13.852-2-21h-16c-.004-6.712-.171-13.379-.5-20 .674-1.078 1.674-1.745 3-2 2.462.659 4.962.993 7.5 1 12.34 2.563 22.173-1.103 29.5-11 .755-3.755.589-7.422-.5-11 1.623 3.924 2.623 8.257 3 13 .667-3.333 1.333-6.667 2-10 .667 2.667 1.333 5.333 2 8 1.325-14.607 1.992-14.607 2 0h16c-.324-4.055.009-8.055 1-12 1.611-.82 2.278-2.154 2-4 5.604-.176 6.104-1.509 1.5-4 .618-4.026-.715-4.693-4-2-.498-3.317-.665-6.65-.5-10-2.08-.544-4.08-1.378-6-2.5.602-2.036 1.602-3.87 3-5.5-1.112-.765-1.779-1.765-2-3z" fill="#c63639"/><path d="m438.5 148.5c1.089 3.578 1.255 7.245.5 11-7.327 9.897-17.16 13.563-29.5 11-10.054-3.894-14.554-11.228-13.5-22 9.673-11.771 21.507-14.271 35.5-7.5 3.217 1.715 5.55 4.215 7 7.5z" fill="#dbc8cb"/><path d="m411.5 144.5c6.175-.857 11.842.31 17 3.5 4.464 3.155 5.131 6.988 2 11.5-8.399 5.288-16.733 5.288-25 0-3.946-3.794-3.946-7.628 0-11.5 1.932-1.459 3.932-2.625 6-3.5z" fill="#c53936"/><path d="m251.5 128.5c5.745 1.951 11.745 3.285 18 4 4.739 1.199 9.405 2.699 14 4.5 1.271 4.823 1.105 9.657-.5 14.5-3.795 13.252-9.461 25.585-17 37-.667 3-.667 6 0 9 3.201 6.679 4.868 13.679 5 21-7.118 6.979-15.618 10.146-25.5 9.5-4.411-1.41-7.578-4.243-9.5-8.5-1.018-6.056-3.018-11.723-6-17-11.367-16.737-21.7-34.07-31-52-2.858-5.707-3.858-11.707-3-18 .883-2.602 2.383-4.769 4.5-6.5 9.333-.667 18.667-.667 28 0 7.598 1.305 15.265 2.139 23 2.5z" fill="#c63637"/><path d="m269.5 132.5c-6.255-.715-12.255-2.049-18-4 3.079.24 6.079-.093 9-1 .886.825 1.219 1.825 1 3 2.357-.163 4.69.003 7 .5.556.383.889.883 1 1.5z" fill="#fdd9d5"/><path d="m458.5 116.5c.221 1.235.888 2.235 2 3-1.398 1.63-2.398 3.464-3 5.5 1.92 1.122 3.92 1.956 6 2.5-.165 3.35.002 6.683.5 10 3.285-2.693 4.618-2.026 4 2 4.604 2.491 4.104 3.824-1.5 4 .278 1.846-.389 3.18-2 4-.991 3.945-1.324 7.945-1 12h-16c-.008-14.607-.675-14.607-2 0-.667-2.667-1.333-5.333-2-8-.667 3.333-1.333 6.667-2 10-.377-4.743-1.377-9.076-3-13-1.45-3.285-3.783-5.785-7-7.5-13.993-6.771-25.827-4.271-35.5 7.5-1.054 10.772 3.446 18.106 13.5 22-2.538-.007-5.038-.341-7.5-1-1.326.255-2.326.922-3 2 .329 6.621.496 13.288.5 20h16c-.51 7.148.156 14.148 2 21-1.557 2.582-1.223 4.749 1 6.5-1.211.893-1.211 1.726 0 2.5 4.552-3.974 5.886-2.808 4 3.5.336 1.03 1.003 1.53 2 1.5-.209 1.422-.709 2.755-1.5 4-5.213 5.793-11.713 8.793-19.5 9-16.826.541-33.493 1.208-50 2-7.667-.667-15.333-1.333-23-2-8.812-2.704-17.812-5.204-27-7.5-5.645-1.819-10.645-4.652-15-8.5-3.781-2.875-6.614-6.542-8.5-11-2.393-9.193-3.06-18.526-2-28 2.505-8.341 5.171-16.675 8-25 .148-5.749.814-11.415 2-17 9.574-12.373 21.74-21.207 36.5-26.5 30.435-10.647 61.769-13.981 94-10 14 1.164 27.333 4.664 40 10.5z" fill="#c73637"/><path d="m243.5 116.5c10.317.726 20.65 1.06 31 1-3.651.665-7.485.999-11.5 1-6.725.1-13.225-.566-19.5-2z" fill="#e79d92"/><path d="m303.5 326.5c-6.437 1.539-13.104 2.206-20 2 6.47-1.196 13.137-1.862 20-2z" fill="#d9a49b"/><path d="m319.5 324.5c-2.945 1.661-6.279 2.828-10 3.5-5.416.159-10.75.826-16 2 .667.333 1.333.667 2 1-2.391.287-4.724.787-7 1.5-3.981-1.266-8.148-1.932-12.5-2-6.841.261-13.675.595-20.5 1 9.107-1.751 18.44-2.751 28-3 6.896.206 13.563-.461 20-2 5.116-1.306 10.449-1.973 16-2z" fill="#fbeee6"/><path d="m149.5 328.5c4.838.411 9.505 1.078 14 2-3.682.165-7.348-.001-11-.5-1.237-.232-2.237-.732-3-1.5z" fill="#f1c3c7"/></g><path d="m84.688 437.851c0-1.38 1.12-2.5 2.5-2.5s2.5 1.12 2.5 2.5c0 41.859-6.178 90.439 6.954 130.829 14.238 43.789 56.486 81.565 90.864 109.693 8.16 6.676 17.31 15.788 27.196 23.866 9.575 7.825 19.834 14.703 30.589 17.166 35.962 8.234 77.049-1.066 113.591-2.036 39.132-1.038 78.781 6.652 117.531 10.916 1.372.151 2.363 1.387 2.212 2.758-.151 1.372-1.387 2.363-2.758 2.212-38.528-4.239-77.945-11.92-116.852-10.887-36.944.98-78.483 10.236-114.84 1.911-9.2-2.107-18.098-7.163-26.524-13.399-12.239-9.057-23.492-20.603-33.311-28.637-35.055-28.682-77.935-67.366-92.453-112.017-13.288-40.87-7.199-90.019-7.199-132.375z"/><path d="m943.664 351.672c-.637-1.224-.161-2.735 1.062-3.372 1.224-.638 2.735-.162 3.373 1.062 6.756 12.968 12.595 26.092 14.948 40.633 2.665 16.471 2.117 63.002-2.856 95.845-2.187 14.444-5.307 26.278-9.245 32.029-11.296 16.496-27.359 29.454-44.134 41.787-16.44 12.087-33.563 23.575-47.326 37.399-59.531 59.798-75.339 101.839-174.574 111.518-1.373.133-2.597-.873-2.731-2.246s.872-2.597 2.246-2.731c97.627-9.522 112.949-51.24 171.516-110.068 13.938-14 31.258-25.66 47.907-37.9 16.314-11.994 31.985-24.541 42.97-40.584 3.676-5.368 6.386-16.471 8.428-29.952 4.892-32.314 5.486-78.093 2.863-94.298-2.266-14.007-7.939-26.631-14.447-39.122z"/><path d="m212.313 297.436c-1.38 0-2.5-1.121-2.5-2.5 0-1.38 1.12-2.5 2.5-2.5 38.692 0 82.495-4.435 120.262 5.432 39.943 10.437 78.912 32.148 120.171 36.188 47.75 4.676 97.521-6.564 144.161-14.64 1.36-.235 2.654.678 2.89 2.037.235 1.36-.677 2.655-2.037 2.89-47.071 8.15-97.31 19.409-145.501 14.69-41.517-4.066-80.755-25.825-120.948-36.327-37.369-9.764-80.714-5.27-118.998-5.27z"/><path d="m461.407 661.31c-1.379 0-2.5-1.121-2.5-2.5 0-1.38 1.121-2.5 2.5-2.5 90.401 0 164.187-19.86 250.853-39.203 35.948-8.023 72.96-12.926 108.179-23.667 1.32-.402 2.718.342 3.121 1.662.402 1.32-.342 2.718-1.662 3.121-35.341 10.777-72.477 15.713-108.548 23.764-87.04 19.426-161.152 39.323-251.943 39.323z"/></svg>