<?xml version="1.0" encoding="UTF-8" standalone="no"?>
<!DOCTYPE svg PUBLIC "-//W3C//DTD SVG 1.1//EN" "http://www.w3.org/Graphics/SVG/1.1/DTD/svg11.dtd">
<svg width="100%" height="100%" viewBox="0 0 1024 1024" version="1.1" xmlns="http://www.w3.org/2000/svg" xmlns:xlink="http://www.w3.org/1999/xlink" xml:space="preserve" xmlns:serif="http://www.serif.com/" style="fill-rule:evenodd;clip-rule:evenodd;stroke-linejoin:round;stroke-miterlimit:2;">
    <g transform="matrix(1.67595,0,0,1.67595,-348.23,-272.88)">
        <g id="Layer-3">
            <g>
                <g transform="matrix(0.96672,-0.255836,0.255836,0.96672,173.781,360.198)">
                    <path d="M207.5,76.5C217.719,80.946 227.386,86.446 236.5,93C249.684,99.421 262.351,106.587 274.5,114.5C273.325,114.281 272.325,114.614 271.5,115.5C272.612,116.265 273.279,117.265 273.5,118.5C270.982,119.511 270.982,120.844 273.5,122.5C271.612,127.938 270.946,133.605 271.5,139.5C268.809,137.143 266.476,134.476 264.5,131.5C261.827,130.499 259.493,128.999 257.5,127C254.613,126.277 251.947,126.777 249.5,128.5C248.386,133.446 248.219,138.446 249,143.5C249.598,146.308 250.765,148.808 252.5,151C254.167,151.667 255.833,151.667 257.5,151C260.603,147.35 264.27,144.85 268.5,143.5C268.104,146.044 268.771,148.211 270.5,150C270.167,150.333 269.833,150.667 269.5,151C270.973,151.71 271.64,152.876 271.5,154.5C268.881,154.232 266.381,154.565 264,155.5C264.497,157.198 264.33,158.865 263.5,160.5C264.025,161.192 264.692,161.692 265.5,162C264.576,162.85 264.576,163.85 265.5,165C263.433,168.301 261.766,171.801 260.5,175.5C259.5,176 258.5,176.5 257.5,177C258.134,179.075 258.468,181.241 258.5,183.5C258.017,191.876 257.35,200.209 256.5,208.5C258.276,215.276 262.609,219.276 269.5,220.5C279.813,219.543 290.147,218.709 300.5,218C301.737,217.768 302.737,217.268 303.5,216.5C305.277,215.4 307.277,214.566 309.5,214C312.698,209.974 316.032,206.141 319.5,202.5C320.847,201.829 322.014,201.829 323,202.5C324.337,198.974 324.837,195.308 324.5,191.5L332.5,191.5C334.289,193.651 335.622,196.151 336.5,199C348.294,206.634 361.294,210.634 375.5,211C380.833,211.667 386.167,211.667 391.5,211C393.41,210.592 394.41,209.425 394.5,207.5C393.781,205.272 392.448,203.439 390.5,202C381.672,193.667 371.672,187.167 360.5,182.5C359.575,181.643 358.908,180.643 358.5,179.5C367.465,177.284 367.465,175.784 358.5,175C359.865,173.318 361.365,173.151 363,174.5C364.667,173.833 366.333,173.167 368,172.5C370.719,173.444 373.552,173.777 376.5,173.5C376.286,175.144 376.62,176.644 377.5,178C379.81,178.497 382.143,178.663 384.5,178.5C406.432,190.803 428.432,203.136 450.5,215.5C450.586,216.496 450.252,217.329 449.5,218C443.604,220.406 437.604,222.239 431.5,223.5C419.427,230.265 407.094,236.765 394.5,243C364.99,265.7 331.99,272.033 295.5,262C286.451,259.432 277.784,256.099 269.5,252C262.744,246.955 255.41,242.955 247.5,240C245.052,239.147 244.386,239.647 245.5,241.5C238.213,238.185 231.546,233.852 225.5,228.5C206.53,215.16 188.863,200.16 172.5,183.5C165.552,173.158 161.052,161.825 159,149.5C158.329,150.252 157.496,150.586 156.5,150.5C156.811,149.522 157.478,148.855 158.5,148.5C159.498,139.525 159.832,130.525 159.5,121.5C162.039,117.365 163.206,112.698 163,107.5C164.388,101.05 167.554,95.716 172.5,91.5C173.298,89.922 173.798,88.256 174,86.5C176.796,85.789 179.63,85.122 182.5,84.5C183.357,83.264 184.023,81.931 184.5,80.5C188.107,79.511 191.774,79.177 195.5,79.5L195.5,76.5L207.5,76.5Z" style="fill:rgb(243,163,152);"/>
                    <path d="M207.5,76.5L195.5,76.5L195.5,79.5C191.774,79.177 188.107,79.511 184.5,80.5C184.023,81.931 183.357,83.264 182.5,84.5C179.63,85.122 176.796,85.789 174,86.5C173.798,88.256 173.298,89.922 172.5,91.5C167.554,95.716 164.388,101.05 163,107.5C163.206,112.698 162.039,117.365 159.5,121.5C160.44,107.806 165.107,95.639 173.5,85C179.665,80.584 186.332,77.251 193.5,75C195.833,74.833 198.167,74.667 200.5,74.5C203.269,74.529 205.603,75.195 207.5,76.5Z" style="fill:rgb(236,173,166);"/>
                    <path d="M226.5,101.5C238.527,98.828 245.194,103.495 246.5,115.5C244.586,119.576 242.919,123.743 241.5,128C243.801,135.672 245.135,143.506 245.5,151.5C237.142,154.623 229.142,153.79 221.5,149C213.007,143.174 205.84,136.007 200,127.5C198.591,121.684 199.758,116.517 203.5,112C206.256,109.383 209.256,107.05 212.5,105C217.278,103.751 221.945,102.584 226.5,101.5Z" style="fill:rgb(229,131,125);"/>
                    <path d="M287.5,122.5C288.552,122.351 289.552,122.517 290.5,123C294.898,125.857 299.232,128.691 303.5,131.5C301.143,131.663 298.81,131.497 296.5,131C295.663,129.989 295.33,128.822 295.5,127.5C294.448,127.649 293.448,127.483 292.5,127C290.602,125.583 288.936,124.083 287.5,122.5Z" style="fill:rgb(217,141,138);"/>
                    <path d="M271.5,139.5L271.5,143.5L268.5,143.5C264.27,144.85 260.603,147.35 257.5,151C255.833,151.667 254.167,151.667 252.5,151C250.765,148.808 249.598,146.308 249,143.5C248.219,138.446 248.386,133.446 249.5,128.5C251.947,126.777 254.613,126.277 257.5,127C259.493,128.999 261.827,130.499 264.5,131.5C266.476,134.476 268.809,137.143 271.5,139.5Z" style="fill:rgb(249,187,181);"/>
                    <path d="M274.5,114.5C279.037,116.93 283.37,119.597 287.5,122.5C288.936,124.083 290.602,125.583 292.5,127C293.448,127.483 294.448,127.649 295.5,127.5C295.33,128.822 295.663,129.989 296.5,131C298.81,131.497 301.143,131.663 303.5,131.5C306.76,132.774 309.76,134.44 312.5,136.5C312.414,137.496 312.748,138.329 313.5,139C318.784,140.289 318.784,141.622 313.5,143C314.833,143.333 316.167,143.667 317.5,144C314.764,145.524 312.764,147.691 311.5,150.5C309.584,151.248 307.584,151.248 305.5,150.5C306.388,147.757 307.555,145.09 309,142.5C310.205,141.929 311.372,141.262 312.5,140.5C310.639,137.883 308.306,136.883 305.5,137.5C308.284,139.952 307.951,141.952 304.5,143.5C303.833,145.833 303.167,148.167 302.5,150.5C297.707,147.346 292.707,145.679 287.5,145.5C279.433,138.389 274.766,129.389 273.5,118.5C273.279,117.265 272.612,116.265 271.5,115.5C272.325,114.614 273.325,114.281 274.5,114.5Z" style="fill:rgb(231,130,125);"/>
                    <path d="M273.5,118.5C274.766,129.389 279.433,138.389 287.5,145.5C295.728,150.641 304.728,153.141 314.5,153C318.811,148.576 323.811,147.41 329.5,149.5C328.127,149.343 326.793,149.51 325.5,150C326.669,151.836 328.336,153.002 330.5,153.5C331.614,154.723 331.781,156.056 331,157.5C327.479,154.791 323.646,152.791 319.5,151.5C318.756,153.986 317.256,155.986 315,157.5C309.278,156.037 303.611,154.37 298,152.5C295.964,153.951 294.131,153.451 292.5,151C288.651,148.585 285.984,149.585 284.5,154C286.311,156.384 288.645,158.051 291.5,159C297.859,159.169 304.193,159.669 310.5,160.5C308.997,161.557 307.33,162.224 305.5,162.5C302.868,161.56 300.202,161.393 297.5,162C296.23,164.626 296.896,166.793 299.5,168.5C303.141,168.518 306.808,168.851 310.5,169.5C311.503,167.458 312.837,167.125 314.5,168.5C316.336,167.081 318.336,165.914 320.5,165C323.357,161.913 323.024,159.246 319.5,157C319.833,156.5 320.167,156 320.5,155.5C325.563,157.991 330.563,160.325 335.5,162.5L335.5,166.5C333.04,165.122 330.374,164.122 327.5,163.5C326.833,163.833 326.167,164.167 325.5,164.5C326.806,168.446 328.639,172.112 331,175.5C331.83,180.808 332.33,186.141 332.5,191.5L324.5,191.5C324.837,195.308 324.337,198.974 323,202.5C322.014,201.829 320.847,201.829 319.5,202.5C324.829,193.471 324.829,184.471 319.5,175.5C309.785,174.072 300.452,171.406 291.5,167.5C286.645,163.97 283.312,159.303 281.5,153.5C278.338,149.628 275.338,149.962 272.5,154.5C261.95,172.522 258.117,191.855 261,212.5C262.395,214.14 263.895,215.64 265.5,217C278.193,217.754 290.859,217.587 303.5,216.5C302.737,217.268 301.737,217.768 300.5,218C290.147,218.709 279.813,219.543 269.5,220.5C262.609,219.276 258.276,215.276 256.5,208.5C257.35,200.209 258.017,191.876 258.5,183.5C258.468,181.241 258.134,179.075 257.5,177C258.5,176.5 259.5,176 260.5,175.5C261.766,171.801 263.433,168.301 265.5,165C264.576,163.85 264.576,162.85 265.5,162C264.692,161.692 264.025,161.192 263.5,160.5C264.33,158.865 264.497,157.198 264,155.5C266.381,154.565 268.881,154.232 271.5,154.5C271.64,152.876 270.973,151.71 269.5,151C269.833,150.667 270.167,150.333 270.5,150C268.771,148.211 268.104,146.044 268.5,143.5L271.5,143.5L271.5,139.5C270.946,133.605 271.612,127.938 273.5,122.5C270.982,120.844 270.982,119.511 273.5,118.5Z" style="fill:rgb(245,161,150);"/>
                    <path d="M312.5,136.5C320.364,140.596 328.031,144.929 335.5,149.5L329.5,149.5C323.811,147.41 318.811,148.576 314.5,153C304.728,153.141 295.728,150.641 287.5,145.5C292.707,145.679 297.707,147.346 302.5,150.5C303.167,148.167 303.833,145.833 304.5,143.5C307.951,141.952 308.284,139.952 305.5,137.5C308.306,136.883 310.639,137.883 312.5,140.5C311.372,141.262 310.205,141.929 309,142.5C307.555,145.09 306.388,147.757 305.5,150.5C307.584,151.248 309.584,151.248 311.5,150.5C312.764,147.691 314.764,145.524 317.5,144C316.167,143.667 314.833,143.333 313.5,143C318.784,141.622 318.784,140.289 313.5,139C312.748,138.329 312.414,137.496 312.5,136.5Z" style="fill:rgb(226,134,127);"/>
                    <path d="M329.5,149.5L335.5,149.5C348.25,157.206 361.25,164.373 374.5,171C377.432,174.126 380.765,176.626 384.5,178.5C382.143,178.663 379.81,178.497 377.5,178C376.62,176.644 376.286,175.144 376.5,173.5C373.552,173.777 370.719,173.444 368,172.5C366.333,173.167 364.667,173.833 363,174.5C361.365,173.151 359.865,173.318 358.5,175C367.465,175.784 367.465,177.284 358.5,179.5C350.117,176.454 342.45,172.12 335.5,166.5L335.5,162.5C330.563,160.325 325.563,157.991 320.5,155.5C320.167,156 319.833,156.5 319.5,157C323.024,159.246 323.357,161.913 320.5,165C318.336,165.914 316.336,167.081 314.5,168.5C312.837,167.125 311.503,167.458 310.5,169.5C306.808,168.851 303.141,168.518 299.5,168.5C296.896,166.793 296.23,164.626 297.5,162C300.202,161.393 302.868,161.56 305.5,162.5C307.33,162.224 308.997,161.557 310.5,160.5C304.193,159.669 297.859,159.169 291.5,159C288.645,158.051 286.311,156.384 284.5,154C285.984,149.585 288.651,148.585 292.5,151C294.131,153.451 295.964,153.951 298,152.5C303.611,154.37 309.278,156.037 315,157.5C317.256,155.986 318.756,153.986 319.5,151.5C323.646,152.791 327.479,154.791 331,157.5C331.781,156.056 331.614,154.723 330.5,153.5C328.336,153.002 326.669,151.836 325.5,150C326.793,149.51 328.127,149.343 329.5,149.5Z" style="fill:rgb(242,164,153);"/>
                    <path d="M172.5,183.5C169.635,184.191 167.468,185.858 166,188.5C162.604,194.113 161.771,200.113 163.5,206.5C166.229,207.062 167.729,208.728 168,211.5C175.175,220.668 184.008,222.668 194.5,217.5C195.5,217.667 196.5,217.833 197.5,218C204.129,221.666 210.795,225.333 217.5,229C219.5,229.5 221.5,230 223.5,230.5C224.713,230.253 225.38,229.586 225.5,228.5C231.546,233.852 238.213,238.185 245.5,241.5C255.932,248.558 266.599,255.392 277.5,262C286.985,267.939 297.318,271.273 308.5,272C323.558,274.143 338.558,273.976 353.5,271.5C353.859,273.371 354.859,274.871 356.5,276C365.337,278.876 374.337,279.209 383.5,277C391.237,275.021 398.904,272.854 406.5,270.5C409.018,267.655 412.018,265.488 415.5,264C417.647,260.885 420.147,258.052 423,255.5C423.667,251.5 423.667,247.5 423,243.5C421.309,240.641 418.809,239.308 415.5,239.5C425.545,230.812 437.212,226.645 450.5,227C456.902,230.693 458.902,236.193 456.5,243.5C453.967,251.349 449.3,257.849 442.5,263C436.889,266.621 431.555,270.454 426.5,274.5C398.716,291.386 368.383,301.219 335.5,304C324.839,304.5 314.172,304.667 303.5,304.5C281.33,300.89 259.997,294.223 239.5,284.5C206.488,268.494 174.822,250.161 144.5,229.5C135.776,222.271 127.609,214.604 120,206.5C118.296,201.274 117.13,195.941 116.5,190.5C120.147,183.845 123.813,177.179 127.5,170.5C136.39,162.752 146.057,156.085 156.5,150.5C157.496,150.586 158.329,150.252 159,149.5C161.052,161.825 165.552,173.158 172.5,183.5Z" style="fill:rgb(211,121,118);"/>
                    <path d="M217.5,158.5C230.734,158.93 241.901,163.93 251,173.5C251.667,174.833 251.667,176.167 251,177.5C241.229,179.355 231.729,178.522 222.5,175C217.796,170.335 216.129,164.835 217.5,158.5Z" style="fill:rgb(249,188,181);"/>
                    <path d="M319.5,202.5C316.032,206.141 312.698,209.974 309.5,214C307.277,214.566 305.277,215.4 303.5,216.5C290.859,217.587 278.193,217.754 265.5,217C263.895,215.64 262.395,214.14 261,212.5C258.117,191.855 261.95,172.522 272.5,154.5C275.338,149.962 278.338,149.628 281.5,153.5C283.312,159.303 286.645,163.97 291.5,167.5C300.452,171.406 309.785,174.072 319.5,175.5C324.829,184.471 324.829,193.471 319.5,202.5Z" style="fill:rgb(229,131,125);"/>
                    <path d="M335.5,166.5C342.45,172.12 350.117,176.454 358.5,179.5C358.908,180.643 359.575,181.643 360.5,182.5C371.672,187.167 381.672,193.667 390.5,202C392.448,203.439 393.781,205.272 394.5,207.5C394.41,209.425 393.41,210.592 391.5,211C386.167,211.667 380.833,211.667 375.5,211C361.294,210.634 348.294,206.634 336.5,199C335.622,196.151 334.289,193.651 332.5,191.5C332.33,186.141 331.83,180.808 331,175.5C328.639,172.112 326.806,168.446 325.5,164.5C326.167,164.167 326.833,163.833 327.5,163.5C330.374,164.122 333.04,165.122 335.5,166.5Z" style="fill:rgb(229,131,125);"/>
                    <path d="M127.5,170.5C123.813,177.179 120.147,183.845 116.5,190.5L116.5,189.5C117.866,181.76 121.532,175.427 127.5,170.5Z" style="fill:rgb(199,137,137);"/>
                    <path d="M172.5,183.5C188.863,200.16 206.53,215.16 225.5,228.5C225.38,229.586 224.713,230.253 223.5,230.5C221.5,230 219.5,229.5 217.5,229C210.795,225.333 204.129,221.666 197.5,218C196.5,217.833 195.5,217.667 194.5,217.5C184.008,222.668 175.175,220.668 168,211.5C167.729,208.728 166.229,207.062 163.5,206.5C161.771,200.113 162.604,194.113 166,188.5C167.468,185.858 169.635,184.191 172.5,183.5Z" style="fill:rgb(195,98,99);"/>
                    <path d="M135.5,180.5C146.312,182.168 150.812,188.501 149,199.5C147.517,203.665 144.684,205.165 140.5,204C135.028,198.228 132.528,191.394 133,183.5C134.045,182.627 134.878,181.627 135.5,180.5Z" style="fill:rgb(244,160,152);"/>
                    <path d="M330.5,207.5C333.85,207.335 337.183,207.502 340.5,208C350.194,212.786 360.194,216.786 370.5,220C373.385,221.933 374.052,224.433 372.5,227.5C364.352,230.134 356.352,229.634 348.5,226C342.35,221.514 336.517,216.681 331,211.5C330.51,210.207 330.343,208.873 330.5,207.5Z" style="fill:rgb(249,187,181);"/>
                    <path d="M124.5,219.5C126.589,219.857 128.589,220.523 130.5,221.5C134.156,224.664 137.823,227.831 141.5,231C147.238,233.338 151.905,236.838 155.5,241.5C143.93,235.884 133.597,228.551 124.5,219.5Z" style="fill:rgb(240,196,192);"/>
                    <path d="M116.5,189.5L116.5,190.5C117.13,195.941 118.296,201.274 120,206.5C127.609,214.604 135.776,222.271 144.5,229.5C174.822,250.161 206.488,268.494 239.5,284.5C236.306,285.952 233.306,285.619 230.5,283.5C227.454,282.226 224.621,280.559 222,278.5C220.422,279.547 218.922,279.547 217.5,278.5C217.709,277.914 218.043,277.414 218.5,277C215.793,276.605 213.127,276.105 210.5,275.5C208.973,275.573 207.973,274.906 207.5,273.5C205.556,272.072 203.889,270.239 202.5,268C199.193,267.347 196.527,265.681 194.5,263C192.26,262.023 189.927,261.523 187.5,261.5C186.14,256.596 182.807,254.596 177.5,255.5C176.508,255.672 175.842,255.338 175.5,254.5L175.5,251.5C170.263,248.872 165.263,245.705 160.5,242C158.866,241.506 157.199,241.34 155.5,241.5C151.905,236.838 147.238,233.338 141.5,231C137.823,227.831 134.156,224.664 130.5,221.5C128.589,220.523 126.589,219.857 124.5,219.5C121.09,214.899 118.256,209.899 116,204.5C115.184,199.316 115.35,194.316 116.5,189.5Z" style="fill:rgb(249,184,181);"/>
                    <path d="M197.5,229.5C212.441,233.556 225.607,240.889 237,251.5C237.483,252.448 237.649,253.448 237.5,254.5C229.394,255.315 221.728,253.981 214.5,250.5C209.176,246.009 204.343,241.009 200,235.5C198.331,233.831 197.498,231.831 197.5,229.5Z" style="fill:rgb(242,161,151);"/>
                    <path d="M155.5,241.5C157.199,241.34 158.866,241.506 160.5,242C165.263,245.705 170.263,248.872 175.5,251.5L175.5,254.5C168.843,250.17 162.176,245.837 155.5,241.5Z" style="fill:rgb(240,196,194);"/>
                    <path d="M415.5,239.5C418.809,239.308 421.309,240.641 423,243.5C423.667,247.5 423.667,251.5 423,255.5C420.147,258.052 417.647,260.885 415.5,264C412.018,265.488 409.018,267.655 406.5,270.5C398.904,272.854 391.237,275.021 383.5,277C374.337,279.209 365.337,278.876 356.5,276C354.859,274.871 353.859,273.371 353.5,271.5C362.877,269.094 371.877,265.594 380.5,261C392.19,253.824 403.856,246.657 415.5,239.5Z" style="fill:rgb(195,98,99);"/>
                    <path d="M177.5,255.5C182.807,254.596 186.14,256.596 187.5,261.5C189.927,261.523 192.26,262.023 194.5,263C196.527,265.681 199.193,267.347 202.5,268C203.889,270.239 205.556,272.072 207.5,273.5C197.46,267.483 187.46,261.483 177.5,255.5Z" style="fill:rgb(238,196,193);"/>
                    <path d="M450.5,215.5C454.572,217.921 458.738,220.254 463,222.5C465.084,233.333 463.25,243.333 457.5,252.5C444.088,269.716 427.422,282.882 407.5,292C361.335,312.025 314.002,315.692 265.5,303C254.589,299.538 244.256,295.038 234.5,289.5C233.141,287.482 231.807,285.482 230.5,283.5C233.306,285.619 236.306,285.952 239.5,284.5C259.997,294.223 281.33,300.89 303.5,304.5C298.983,305.166 294.317,305.833 289.5,306.5C312.893,308.135 336.226,307.635 359.5,305C367.673,302.953 375.506,300.12 383,296.5C383.725,297.059 384.558,297.392 385.5,297.5C391.864,295.466 398.198,293.466 404.5,291.5C404.281,290.325 404.614,289.325 405.5,288.5C409.355,286.741 413.021,284.741 416.5,282.5C417.293,282.931 418.127,283.265 419,283.5C420.3,282.293 421.8,281.626 423.5,281.5C423.688,278.794 424.688,276.461 426.5,274.5C431.555,270.454 436.889,266.621 442.5,263C449.3,257.849 453.967,251.349 456.5,243.5C461.91,237.479 461.577,231.645 455.5,226C452.774,225.818 450.107,225.318 447.5,224.5C448.529,224.704 449.529,224.204 450.5,223C449.228,221.954 447.728,221.454 446,221.5C442.852,223.179 438.852,224.513 434,225.5C432.624,225.316 431.791,224.649 431.5,223.5C437.604,222.239 443.604,220.406 449.5,218C450.252,217.329 450.586,216.496 450.5,215.5Z" style="fill:rgb(246,189,185);"/>
                    <path d="M456.5,243.5C458.902,236.193 456.902,230.693 450.5,227C437.212,226.645 425.545,230.812 415.5,239.5C403.856,246.657 392.19,253.824 380.5,261C371.877,265.594 362.877,269.094 353.5,271.5C338.558,273.976 323.558,274.143 308.5,272C297.318,271.273 286.985,267.939 277.5,262C266.599,255.392 255.932,248.558 245.5,241.5C244.386,239.647 245.052,239.147 247.5,240C255.41,242.955 262.744,246.955 269.5,252C277.784,256.099 286.451,259.432 295.5,262C331.99,272.033 364.99,265.7 394.5,243C407.094,236.765 419.427,230.265 431.5,223.5C431.791,224.649 432.624,225.316 434,225.5C438.852,224.513 442.852,223.179 446,221.5C447.728,221.454 449.228,221.954 450.5,223C449.529,224.204 448.529,224.704 447.5,224.5C450.107,225.318 452.774,225.818 455.5,226C461.577,231.645 461.91,237.479 456.5,243.5Z" style="fill:rgb(249,185,179);"/>
                    <path d="M239.5,260.5C242.518,260.335 245.518,260.502 248.5,261C265.916,268.205 283.249,275.705 300.5,283.5C300.785,287.038 299.118,288.871 295.5,289C287.377,289.848 279.377,289.182 271.5,287C259.315,281.827 248.815,274.327 240,264.5C239.51,263.207 239.343,261.873 239.5,260.5Z" style="fill:rgb(196,98,99);"/>
                    <path d="M210.5,275.5C213.127,276.105 215.793,276.605 218.5,277C218.043,277.414 217.709,277.914 217.5,278.5C218.922,279.547 220.422,279.547 222,278.5C224.621,280.559 227.454,282.226 230.5,283.5C231.807,285.482 233.141,287.482 234.5,289.5C226.132,285.321 218.132,280.654 210.5,275.5Z" style="fill:rgb(241,198,195);"/>
                    <path d="M338.5,283.5C344.934,283.525 351.267,284.358 357.5,286C360.167,288 360.167,290 357.5,292C351.431,292.804 345.431,292.471 339.5,291C336.307,289.974 334.974,287.808 335.5,284.5C336.791,284.737 337.791,284.404 338.5,283.5Z" style="fill:rgb(244,159,152);"/>
                    <path d="M426.5,274.5C424.688,276.461 423.688,278.794 423.5,281.5C421.8,281.626 420.3,282.293 419,283.5C418.127,283.265 417.293,282.931 416.5,282.5C413.021,284.741 409.355,286.741 405.5,288.5C404.614,289.325 404.281,290.325 404.5,291.5C398.198,293.466 391.864,295.466 385.5,297.5C384.558,297.392 383.725,297.059 383,296.5C375.506,300.12 367.673,302.953 359.5,305C336.226,307.635 312.893,308.135 289.5,306.5C294.317,305.833 298.983,305.166 303.5,304.5C314.172,304.667 324.839,304.5 335.5,304C368.383,301.219 398.716,291.386 426.5,274.5Z" style="fill:rgb(250,185,180);"/>
                </g>
                <g transform="matrix(1,0,0,1,304.828,253.554)">
                    <path d="M207.5,76.5C217.719,80.946 227.386,86.446 236.5,93C249.684,99.421 262.351,106.587 274.5,114.5C273.325,114.281 272.325,114.614 271.5,115.5C272.612,116.265 273.279,117.265 273.5,118.5C270.982,119.511 270.982,120.844 273.5,122.5C271.612,127.938 270.946,133.605 271.5,139.5C268.809,137.143 266.476,134.476 264.5,131.5C261.827,130.499 259.493,128.999 257.5,127C254.613,126.277 251.947,126.777 249.5,128.5C248.386,133.446 248.219,138.446 249,143.5C249.598,146.308 250.765,148.808 252.5,151C254.167,151.667 255.833,151.667 257.5,151C260.603,147.35 264.27,144.85 268.5,143.5C268.104,146.044 268.771,148.211 270.5,150C270.167,150.333 269.833,150.667 269.5,151C270.973,151.71 271.64,152.876 271.5,154.5C268.881,154.232 266.381,154.565 264,155.5C264.497,157.198 264.33,158.865 263.5,160.5C264.025,161.192 264.692,161.692 265.5,162C264.576,162.85 264.576,163.85 265.5,165C263.433,168.301 261.766,171.801 260.5,175.5C259.5,176 258.5,176.5 257.5,177C258.134,179.075 258.468,181.241 258.5,183.5C258.017,191.876 257.35,200.209 256.5,208.5C258.276,215.276 262.609,219.276 269.5,220.5C279.813,219.543 290.147,218.709 300.5,218C301.737,217.768 302.737,217.268 303.5,216.5C305.277,215.4 307.277,214.566 309.5,214C312.698,209.974 316.032,206.141 319.5,202.5C320.847,201.829 322.014,201.829 323,202.5C324.337,198.974 324.837,195.308 324.5,191.5L332.5,191.5C334.289,193.651 335.622,196.151 336.5,199C348.294,206.634 361.294,210.634 375.5,211C380.833,211.667 386.167,211.667 391.5,211C393.41,210.592 394.41,209.425 394.5,207.5C393.781,205.272 392.448,203.439 390.5,202C381.672,193.667 371.672,187.167 360.5,182.5C359.575,181.643 358.908,180.643 358.5,179.5C367.465,177.284 367.465,175.784 358.5,175C359.865,173.318 361.365,173.151 363,174.5C364.667,173.833 366.333,173.167 368,172.5C370.719,173.444 373.552,173.777 376.5,173.5C376.286,175.144 376.62,176.644 377.5,178C379.81,178.497 382.143,178.663 384.5,178.5C406.432,190.803 428.432,203.136 450.5,215.5C450.586,216.496 450.252,217.329 449.5,218C443.604,220.406 437.604,222.239 431.5,223.5C419.427,230.265 407.094,236.765 394.5,243C364.99,265.7 331.99,272.033 295.5,262C286.451,259.432 277.784,256.099 269.5,252C262.744,246.955 255.41,242.955 247.5,240C245.052,239.147 244.386,239.647 245.5,241.5C238.213,238.185 231.546,233.852 225.5,228.5C206.53,215.16 188.863,200.16 172.5,183.5C165.552,173.158 161.052,161.825 159,149.5C158.329,150.252 157.496,150.586 156.5,150.5C156.811,149.522 157.478,148.855 158.5,148.5C159.498,139.525 159.832,130.525 159.5,121.5C162.039,117.365 163.206,112.698 163,107.5C164.388,101.05 167.554,95.716 172.5,91.5C173.298,89.922 173.798,88.256 174,86.5C176.796,85.789 179.63,85.122 182.5,84.5C183.357,83.264 184.023,81.931 184.5,80.5C188.107,79.511 191.774,79.177 195.5,79.5L195.5,76.5L207.5,76.5Z" style="fill:rgb(243,163,152);"/>
                    <path d="M207.5,76.5L195.5,76.5L195.5,79.5C191.774,79.177 188.107,79.511 184.5,80.5C184.023,81.931 183.357,83.264 182.5,84.5C179.63,85.122 176.796,85.789 174,86.5C173.798,88.256 173.298,89.922 172.5,91.5C167.554,95.716 164.388,101.05 163,107.5C163.206,112.698 162.039,117.365 159.5,121.5C160.44,107.806 165.107,95.639 173.5,85C179.665,80.584 186.332,77.251 193.5,75C195.833,74.833 198.167,74.667 200.5,74.5C203.269,74.529 205.603,75.195 207.5,76.5Z" style="fill:rgb(236,173,166);"/>
                    <path d="M226.5,101.5C238.527,98.828 245.194,103.495 246.5,115.5C244.586,119.576 242.919,123.743 241.5,128C243.801,135.672 245.135,143.506 245.5,151.5C237.142,154.623 229.142,153.79 221.5,149C213.007,143.174 205.84,136.007 200,127.5C198.591,121.684 199.758,116.517 203.5,112C206.256,109.383 209.256,107.05 212.5,105C217.278,103.751 221.945,102.584 226.5,101.5Z" style="fill:rgb(229,131,125);"/>
                    <path d="M287.5,122.5C288.552,122.351 289.552,122.517 290.5,123C294.898,125.857 299.232,128.691 303.5,131.5C301.143,131.663 298.81,131.497 296.5,131C295.663,129.989 295.33,128.822 295.5,127.5C294.448,127.649 293.448,127.483 292.5,127C290.602,125.583 288.936,124.083 287.5,122.5Z" style="fill:rgb(217,141,138);"/>
                    <path d="M271.5,139.5L271.5,143.5L268.5,143.5C264.27,144.85 260.603,147.35 257.5,151C255.833,151.667 254.167,151.667 252.5,151C250.765,148.808 249.598,146.308 249,143.5C248.219,138.446 248.386,133.446 249.5,128.5C251.947,126.777 254.613,126.277 257.5,127C259.493,128.999 261.827,130.499 264.5,131.5C266.476,134.476 268.809,137.143 271.5,139.5Z" style="fill:rgb(249,187,181);"/>
                    <path d="M274.5,114.5C279.037,116.93 283.37,119.597 287.5,122.5C288.936,124.083 290.602,125.583 292.5,127C293.448,127.483 294.448,127.649 295.5,127.5C295.33,128.822 295.663,129.989 296.5,131C298.81,131.497 301.143,131.663 303.5,131.5C306.76,132.774 309.76,134.44 312.5,136.5C312.414,137.496 312.748,138.329 313.5,139C318.784,140.289 318.784,141.622 313.5,143C314.833,143.333 316.167,143.667 317.5,144C314.764,145.524 312.764,147.691 311.5,150.5C309.584,151.248 307.584,151.248 305.5,150.5C306.388,147.757 307.555,145.09 309,142.5C310.205,141.929 311.372,141.262 312.5,140.5C310.639,137.883 308.306,136.883 305.5,137.5C308.284,139.952 307.951,141.952 304.5,143.5C303.833,145.833 303.167,148.167 302.5,150.5C297.707,147.346 292.707,145.679 287.5,145.5C279.433,138.389 274.766,129.389 273.5,118.5C273.279,117.265 272.612,116.265 271.5,115.5C272.325,114.614 273.325,114.281 274.5,114.5Z" style="fill:rgb(231,130,125);"/>
                    <path d="M273.5,118.5C274.766,129.389 279.433,138.389 287.5,145.5C295.728,150.641 304.728,153.141 314.5,153C318.811,148.576 323.811,147.41 329.5,149.5C328.127,149.343 326.793,149.51 325.5,150C326.669,151.836 328.336,153.002 330.5,153.5C331.614,154.723 331.781,156.056 331,157.5C327.479,154.791 323.646,152.791 319.5,151.5C318.756,153.986 317.256,155.986 315,157.5C309.278,156.037 303.611,154.37 298,152.5C295.964,153.951 294.131,153.451 292.5,151C288.651,148.585 285.984,149.585 284.5,154C286.311,156.384 288.645,158.051 291.5,159C297.859,159.169 304.193,159.669 310.5,160.5C308.997,161.557 307.33,162.224 305.5,162.5C302.868,161.56 300.202,161.393 297.5,162C296.23,164.626 296.896,166.793 299.5,168.5C303.141,168.518 306.808,168.851 310.5,169.5C311.503,167.458 312.837,167.125 314.5,168.5C316.336,167.081 318.336,165.914 320.5,165C323.357,161.913 323.024,159.246 319.5,157C319.833,156.5 320.167,156 320.5,155.5C325.563,157.991 330.563,160.325 335.5,162.5L335.5,166.5C333.04,165.122 330.374,164.122 327.5,163.5C326.833,163.833 326.167,164.167 325.5,164.5C326.806,168.446 328.639,172.112 331,175.5C331.83,180.808 332.33,186.141 332.5,191.5L324.5,191.5C324.837,195.308 324.337,198.974 323,202.5C322.014,201.829 320.847,201.829 319.5,202.5C324.829,193.471 324.829,184.471 319.5,175.5C309.785,174.072 300.452,171.406 291.5,167.5C286.645,163.97 283.312,159.303 281.5,153.5C278.338,149.628 275.338,149.962 272.5,154.5C261.95,172.522 258.117,191.855 261,212.5C262.395,214.14 263.895,215.64 265.5,217C278.193,217.754 290.859,217.587 303.5,216.5C302.737,217.268 301.737,217.768 300.5,218C290.147,218.709 279.813,219.543 269.5,220.5C262.609,219.276 258.276,215.276 256.5,208.5C257.35,200.209 258.017,191.876 258.5,183.5C258.468,181.241 258.134,179.075 257.5,177C258.5,176.5 259.5,176 260.5,175.5C261.766,171.801 263.433,168.301 265.5,165C264.576,163.85 264.576,162.85 265.5,162C264.692,161.692 264.025,161.192 263.5,160.5C264.33,158.865 264.497,157.198 264,155.5C266.381,154.565 268.881,154.232 271.5,154.5C271.64,152.876 270.973,151.71 269.5,151C269.833,150.667 270.167,150.333 270.5,150C268.771,148.211 268.104,146.044 268.5,143.5L271.5,143.5L271.5,139.5C270.946,133.605 271.612,127.938 273.5,122.5C270.982,120.844 270.982,119.511 273.5,118.5Z" style="fill:rgb(245,161,150);"/>
                    <path d="M312.5,136.5C320.364,140.596 328.031,144.929 335.5,149.5L329.5,149.5C323.811,147.41 318.811,148.576 314.5,153C304.728,153.141 295.728,150.641 287.5,145.5C292.707,145.679 297.707,147.346 302.5,150.5C303.167,148.167 303.833,145.833 304.5,143.5C307.951,141.952 308.284,139.952 305.5,137.5C308.306,136.883 310.639,137.883 312.5,140.5C311.372,141.262 310.205,141.929 309,142.5C307.555,145.09 306.388,147.757 305.5,150.5C307.584,151.248 309.584,151.248 311.5,150.5C312.764,147.691 314.764,145.524 317.5,144C316.167,143.667 314.833,143.333 313.5,143C318.784,141.622 318.784,140.289 313.5,139C312.748,138.329 312.414,137.496 312.5,136.5Z" style="fill:rgb(226,134,127);"/>
                    <path d="M329.5,149.5L335.5,149.5C348.25,157.206 361.25,164.373 374.5,171C377.432,174.126 380.765,176.626 384.5,178.5C382.143,178.663 379.81,178.497 377.5,178C376.62,176.644 376.286,175.144 376.5,173.5C373.552,173.777 370.719,173.444 368,172.5C366.333,173.167 364.667,173.833 363,174.5C361.365,173.151 359.865,173.318 358.5,175C367.465,175.784 367.465,177.284 358.5,179.5C350.117,176.454 342.45,172.12 335.5,166.5L335.5,162.5C330.563,160.325 325.563,157.991 320.5,155.5C320.167,156 319.833,156.5 319.5,157C323.024,159.246 323.357,161.913 320.5,165C318.336,165.914 316.336,167.081 314.5,168.5C312.837,167.125 311.503,167.458 310.5,169.5C306.808,168.851 303.141,168.518 299.5,168.5C296.896,166.793 296.23,164.626 297.5,162C300.202,161.393 302.868,161.56 305.5,162.5C307.33,162.224 308.997,161.557 310.5,160.5C304.193,159.669 297.859,159.169 291.5,159C288.645,158.051 286.311,156.384 284.5,154C285.984,149.585 288.651,148.585 292.5,151C294.131,153.451 295.964,153.951 298,152.5C303.611,154.37 309.278,156.037 315,157.5C317.256,155.986 318.756,153.986 319.5,151.5C323.646,152.791 327.479,154.791 331,157.5C331.781,156.056 331.614,154.723 330.5,153.5C328.336,153.002 326.669,151.836 325.5,150C326.793,149.51 328.127,149.343 329.5,149.5Z" style="fill:rgb(242,164,153);"/>
                    <path d="M172.5,183.5C169.635,184.191 167.468,185.858 166,188.5C162.604,194.113 161.771,200.113 163.5,206.5C166.229,207.062 167.729,208.728 168,211.5C175.175,220.668 184.008,222.668 194.5,217.5C195.5,217.667 196.5,217.833 197.5,218C204.129,221.666 210.795,225.333 217.5,229C219.5,229.5 221.5,230 223.5,230.5C224.713,230.253 225.38,229.586 225.5,228.5C231.546,233.852 238.213,238.185 245.5,241.5C255.932,248.558 266.599,255.392 277.5,262C286.985,267.939 297.318,271.273 308.5,272C323.558,274.143 338.558,273.976 353.5,271.5C353.859,273.371 354.859,274.871 356.5,276C365.337,278.876 374.337,279.209 383.5,277C391.237,275.021 398.904,272.854 406.5,270.5C409.018,267.655 412.018,265.488 415.5,264C417.647,260.885 420.147,258.052 423,255.5C423.667,251.5 423.667,247.5 423,243.5C421.309,240.641 418.809,239.308 415.5,239.5C425.545,230.812 437.212,226.645 450.5,227C456.902,230.693 458.902,236.193 456.5,243.5C453.967,251.349 449.3,257.849 442.5,263C436.889,266.621 431.555,270.454 426.5,274.5C398.716,291.386 368.383,301.219 335.5,304C324.839,304.5 314.172,304.667 303.5,304.5C281.33,300.89 259.997,294.223 239.5,284.5C206.488,268.494 174.822,250.161 144.5,229.5C135.776,222.271 127.609,214.604 120,206.5C118.296,201.274 117.13,195.941 116.5,190.5C120.147,183.845 123.813,177.179 127.5,170.5C136.39,162.752 146.057,156.085 156.5,150.5C157.496,150.586 158.329,150.252 159,149.5C161.052,161.825 165.552,173.158 172.5,183.5Z" style="fill:rgb(211,121,118);"/>
                    <path d="M217.5,158.5C230.734,158.93 241.901,163.93 251,173.5C251.667,174.833 251.667,176.167 251,177.5C241.229,179.355 231.729,178.522 222.5,175C217.796,170.335 216.129,164.835 217.5,158.5Z" style="fill:rgb(249,188,181);"/>
                    <path d="M319.5,202.5C316.032,206.141 312.698,209.974 309.5,214C307.277,214.566 305.277,215.4 303.5,216.5C290.859,217.587 278.193,217.754 265.5,217C263.895,215.64 262.395,214.14 261,212.5C258.117,191.855 261.95,172.522 272.5,154.5C275.338,149.962 278.338,149.628 281.5,153.5C283.312,159.303 286.645,163.97 291.5,167.5C300.452,171.406 309.785,174.072 319.5,175.5C324.829,184.471 324.829,193.471 319.5,202.5Z" style="fill:rgb(229,131,125);"/>
                    <path d="M335.5,166.5C342.45,172.12 350.117,176.454 358.5,179.5C358.908,180.643 359.575,181.643 360.5,182.5C371.672,187.167 381.672,193.667 390.5,202C392.448,203.439 393.781,205.272 394.5,207.5C394.41,209.425 393.41,210.592 391.5,211C386.167,211.667 380.833,211.667 375.5,211C361.294,210.634 348.294,206.634 336.5,199C335.622,196.151 334.289,193.651 332.5,191.5C332.33,186.141 331.83,180.808 331,175.5C328.639,172.112 326.806,168.446 325.5,164.5C326.167,164.167 326.833,163.833 327.5,163.5C330.374,164.122 333.04,165.122 335.5,166.5Z" style="fill:rgb(229,131,125);"/>
                    <path d="M127.5,170.5C123.813,177.179 120.147,183.845 116.5,190.5L116.5,189.5C117.866,181.76 121.532,175.427 127.5,170.5Z" style="fill:rgb(199,137,137);"/>
                    <path d="M172.5,183.5C188.863,200.16 206.53,215.16 225.5,228.5C225.38,229.586 224.713,230.253 223.5,230.5C221.5,230 219.5,229.5 217.5,229C210.795,225.333 204.129,221.666 197.5,218C196.5,217.833 195.5,217.667 194.5,217.5C184.008,222.668 175.175,220.668 168,211.5C167.729,208.728 166.229,207.062 163.5,206.5C161.771,200.113 162.604,194.113 166,188.5C167.468,185.858 169.635,184.191 172.5,183.5Z" style="fill:rgb(195,98,99);"/>
                    <path d="M135.5,180.5C146.312,182.168 150.812,188.501 149,199.5C147.517,203.665 144.684,205.165 140.5,204C135.028,198.228 132.528,191.394 133,183.5C134.045,182.627 134.878,181.627 135.5,180.5Z" style="fill:rgb(244,160,152);"/>
                    <path d="M330.5,207.5C333.85,207.335 337.183,207.502 340.5,208C350.194,212.786 360.194,216.786 370.5,220C373.385,221.933 374.052,224.433 372.5,227.5C364.352,230.134 356.352,229.634 348.5,226C342.35,221.514 336.517,216.681 331,211.5C330.51,210.207 330.343,208.873 330.5,207.5Z" style="fill:rgb(249,187,181);"/>
                    <path d="M124.5,219.5C126.589,219.857 128.589,220.523 130.5,221.5C134.156,224.664 137.823,227.831 141.5,231C147.238,233.338 151.905,236.838 155.5,241.5C143.93,235.884 133.597,228.551 124.5,219.5Z" style="fill:rgb(240,196,192);"/>
                    <path d="M116.5,189.5L116.5,190.5C117.13,195.941 118.296,201.274 120,206.5C127.609,214.604 135.776,222.271 144.5,229.5C174.822,250.161 206.488,268.494 239.5,284.5C236.306,285.952 233.306,285.619 230.5,283.5C227.454,282.226 224.621,280.559 222,278.5C220.422,279.547 218.922,279.547 217.5,278.5C217.709,277.914 218.043,277.414 218.5,277C215.793,276.605 213.127,276.105 210.5,275.5C208.973,275.573 207.973,274.906 207.5,273.5C205.556,272.072 203.889,270.239 202.5,268C199.193,267.347 196.527,265.681 194.5,263C192.26,262.023 189.927,261.523 187.5,261.5C186.14,256.596 182.807,254.596 177.5,255.5C176.508,255.672 175.842,255.338 175.5,254.5L175.5,251.5C170.263,248.872 165.263,245.705 160.5,242C158.866,241.506 157.199,241.34 155.5,241.5C151.905,236.838 147.238,233.338 141.5,231C137.823,227.831 134.156,224.664 130.5,221.5C128.589,220.523 126.589,219.857 124.5,219.5C121.09,214.899 118.256,209.899 116,204.5C115.184,199.316 115.35,194.316 116.5,189.5Z" style="fill:rgb(249,184,181);"/>
                    <path d="M197.5,229.5C212.441,233.556 225.607,240.889 237,251.5C237.483,252.448 237.649,253.448 237.5,254.5C229.394,255.315 221.728,253.981 214.5,250.5C209.176,246.009 204.343,241.009 200,235.5C198.331,233.831 197.498,231.831 197.5,229.5Z" style="fill:rgb(242,161,151);"/>
                    <path d="M155.5,241.5C157.199,241.34 158.866,241.506 160.5,242C165.263,245.705 170.263,248.872 175.5,251.5L175.5,254.5C168.843,250.17 162.176,245.837 155.5,241.5Z" style="fill:rgb(240,196,194);"/>
                    <path d="M415.5,239.5C418.809,239.308 421.309,240.641 423,243.5C423.667,247.5 423.667,251.5 423,255.5C420.147,258.052 417.647,260.885 415.5,264C412.018,265.488 409.018,267.655 406.5,270.5C398.904,272.854 391.237,275.021 383.5,277C374.337,279.209 365.337,278.876 356.5,276C354.859,274.871 353.859,273.371 353.5,271.5C362.877,269.094 371.877,265.594 380.5,261C392.19,253.824 403.856,246.657 415.5,239.5Z" style="fill:rgb(195,98,99);"/>
                    <path d="M177.5,255.5C182.807,254.596 186.14,256.596 187.5,261.5C189.927,261.523 192.26,262.023 194.5,263C196.527,265.681 199.193,267.347 202.5,268C203.889,270.239 205.556,272.072 207.5,273.5C197.46,267.483 187.46,261.483 177.5,255.5Z" style="fill:rgb(238,196,193);"/>
                    <path d="M450.5,215.5C454.572,217.921 458.738,220.254 463,222.5C465.084,233.333 463.25,243.333 457.5,252.5C444.088,269.716 427.422,282.882 407.5,292C361.335,312.025 314.002,315.692 265.5,303C254.589,299.538 244.256,295.038 234.5,289.5C233.141,287.482 231.807,285.482 230.5,283.5C233.306,285.619 236.306,285.952 239.5,284.5C259.997,294.223 281.33,300.89 303.5,304.5C298.983,305.166 294.317,305.833 289.5,306.5C312.893,308.135 336.226,307.635 359.5,305C367.673,302.953 375.506,300.12 383,296.5C383.725,297.059 384.558,297.392 385.5,297.5C391.864,295.466 398.198,293.466 404.5,291.5C404.281,290.325 404.614,289.325 405.5,288.5C409.355,286.741 413.021,284.741 416.5,282.5C417.293,282.931 418.127,283.265 419,283.5C420.3,282.293 421.8,281.626 423.5,281.5C423.688,278.794 424.688,276.461 426.5,274.5C431.555,270.454 436.889,266.621 442.5,263C449.3,257.849 453.967,251.349 456.5,243.5C461.91,237.479 461.577,231.645 455.5,226C452.774,225.818 450.107,225.318 447.5,224.5C448.529,224.704 449.529,224.204 450.5,223C449.228,221.954 447.728,221.454 446,221.5C442.852,223.179 438.852,224.513 434,225.5C432.624,225.316 431.791,224.649 431.5,223.5C437.604,222.239 443.604,220.406 449.5,218C450.252,217.329 450.586,216.496 450.5,215.5Z" style="fill:rgb(246,189,185);"/>
                    <path d="M456.5,243.5C458.902,236.193 456.902,230.693 450.5,227C437.212,226.645 425.545,230.812 415.5,239.5C403.856,246.657 392.19,253.824 380.5,261C371.877,265.594 362.877,269.094 353.5,271.5C338.558,273.976 323.558,274.143 308.5,272C297.318,271.273 286.985,267.939 277.5,262C266.599,255.392 255.932,248.558 245.5,241.5C244.386,239.647 245.052,239.147 247.5,240C255.41,242.955 262.744,246.955 269.5,252C277.784,256.099 286.451,259.432 295.5,262C331.99,272.033 364.99,265.7 394.5,243C407.094,236.765 419.427,230.265 431.5,223.5C431.791,224.649 432.624,225.316 434,225.5C438.852,224.513 442.852,223.179 446,221.5C447.728,221.454 449.228,221.954 450.5,223C449.529,224.204 448.529,224.704 447.5,224.5C450.107,225.318 452.774,225.818 455.5,226C461.577,231.645 461.91,237.479 456.5,243.5Z" style="fill:rgb(249,185,179);"/>
                    <path d="M239.5,260.5C242.518,260.335 245.518,260.502 248.5,261C265.916,268.205 283.249,275.705 300.5,283.5C300.785,287.038 299.118,288.871 295.5,289C287.377,289.848 279.377,289.182 271.5,287C259.315,281.827 248.815,274.327 240,264.5C239.51,263.207 239.343,261.873 239.5,260.5Z" style="fill:rgb(196,98,99);"/>
                    <path d="M210.5,275.5C213.127,276.105 215.793,276.605 218.5,277C218.043,277.414 217.709,277.914 217.5,278.5C218.922,279.547 220.422,279.547 222,278.5C224.621,280.559 227.454,282.226 230.5,283.5C231.807,285.482 233.141,287.482 234.5,289.5C226.132,285.321 218.132,280.654 210.5,275.5Z" style="fill:rgb(241,198,195);"/>
                    <path d="M338.5,283.5C344.934,283.525 351.267,284.358 357.5,286C360.167,288 360.167,290 357.5,292C351.431,292.804 345.431,292.471 339.5,291C336.307,289.974 334.974,287.808 335.5,284.5C336.791,284.737 337.791,284.404 338.5,283.5Z" style="fill:rgb(244,159,152);"/>
                    <path d="M426.5,274.5C424.688,276.461 423.688,278.794 423.5,281.5C421.8,281.626 420.3,282.293 419,283.5C418.127,283.265 417.293,282.931 416.5,282.5C413.021,284.741 409.355,286.741 405.5,288.5C404.614,289.325 404.281,290.325 404.5,291.5C398.198,293.466 391.864,295.466 385.5,297.5C384.558,297.392 383.725,297.059 383,296.5C375.506,300.12 367.673,302.953 359.5,305C336.226,307.635 312.893,308.135 289.5,306.5C294.317,305.833 298.983,305.166 303.5,304.5C314.172,304.667 324.839,304.5 335.5,304C368.383,301.219 398.716,291.386 426.5,274.5Z" style="fill:rgb(250,185,180);"/>
                </g>
                <g transform="matrix(1,0,0,1,204.489,253.554)">
                    <path d="M261.663,105.41C261.658,105.042 261.952,104.74 262.32,104.735C262.687,104.73 262.99,105.024 262.995,105.392C263.133,115.613 262.132,125.642 260.778,135.76C260.11,140.747 258.212,147.689 259.303,152.728C260.186,156.805 262.684,160.657 265.483,164.379C268.355,168.199 271.549,171.881 273.746,175.502C278.978,184.12 282.754,194.689 290.159,201.783C311.921,222.633 341.162,228.376 368.427,239.552C385.338,246.484 399.74,257.945 414.8,268.089C415.105,268.294 415.186,268.708 414.981,269.013C414.775,269.318 414.361,269.398 414.057,269.193C399.071,259.1 384.749,247.682 367.922,240.784C340.503,229.545 311.123,223.713 289.238,202.744C281.751,195.571 277.898,184.907 272.608,176.193C270.431,172.606 267.264,168.963 264.418,165.179C261.499,161.296 258.923,157.262 258.002,153.01C256.881,147.836 258.773,140.704 259.458,135.583C260.803,125.53 261.801,115.566 261.663,105.41Z"/>
                </g>
                <g transform="matrix(1,0,0,1,204.489,253.554)">
                    <path d="M426.341,272.877C425.974,272.891 425.664,272.604 425.65,272.237C425.636,271.87 425.922,271.56 426.289,271.546C441.556,270.948 459.138,267.36 472.223,258.99C480.352,253.789 485.595,245.236 493.288,239.526C499.497,234.918 507.074,233.42 514.297,231.152C514.647,231.042 515.021,231.237 515.131,231.588C515.242,231.938 515.046,232.312 514.696,232.422C507.613,234.646 500.17,236.077 494.082,240.596C486.364,246.324 481.096,254.894 472.94,260.111C459.664,268.604 441.832,272.27 426.341,272.877Z"/>
                </g>
                <g transform="matrix(1,0,0,1,204.489,253.554)">
                    <path d="M525.752,228.628C525.384,228.628 525.086,228.33 525.086,227.962C525.086,227.595 525.384,227.297 525.752,227.297C531.043,227.297 536.323,227.174 541.577,227.909C545.884,228.512 551.333,229.116 555.508,231.051C559.883,233.079 562.915,236.518 562.081,242.781C561.857,244.467 561.266,246.066 560.466,247.561C559.425,249.504 558.092,251.285 556.616,252.917C551.227,258.879 543.975,262.721 537.547,267.419C531.248,272.023 525.787,277.292 520.069,282.532C519.798,282.781 519.376,282.762 519.128,282.491C518.88,282.22 518.898,281.799 519.169,281.55C524.923,276.277 530.422,270.977 536.761,266.344C543.117,261.699 550.3,257.918 555.629,252.024C557.032,250.472 558.302,248.781 559.292,246.932C560.017,245.578 560.558,244.132 560.761,242.606C561.497,237.078 558.809,234.049 554.948,232.259C550.887,230.377 545.582,229.814 541.393,229.228C536.2,228.502 530.981,228.628 525.752,228.628Z"/>
                </g>
                <g transform="matrix(1,0,0,1,204.489,253.554)">
                    <path d="M254.894,152.032C255.257,151.98 255.595,152.232 255.648,152.596C255.7,152.96 255.448,153.297 255.084,153.35C245.969,154.667 238.981,160.239 232.292,166.206C219.727,177.414 209.693,191.286 216.661,208.115C217.957,211.245 219.472,214.418 221.707,216.999C224.749,220.514 229.244,222.459 233.301,224.517C239.39,227.604 245.577,230.5 251.575,233.764C269.914,243.749 287.59,254.886 306.095,264.601C306.421,264.772 306.546,265.175 306.375,265.5C306.204,265.825 305.802,265.951 305.476,265.78C286.965,256.062 269.283,244.922 250.938,234.934C244.952,231.675 238.776,228.786 232.699,225.704C228.492,223.571 223.854,221.516 220.7,217.871C218.373,215.182 216.78,211.885 215.43,208.624C208.224,191.22 218.411,176.804 231.406,165.212C238.291,159.071 245.512,153.388 254.894,152.032Z"/>
                </g>
                <g transform="matrix(1,0,0,1,204.489,253.554)">
                    <path d="M312.506,272.014C312.152,271.915 311.945,271.548 312.043,271.194C312.142,270.839 312.509,270.632 312.863,270.731C326.617,274.56 339.906,280.594 352.349,287.603C360.531,292.212 368.567,297.742 377.391,301.045C386.828,304.577 397.544,304.415 407.495,305.158C407.862,305.185 408.137,305.505 408.11,305.871C408.082,306.238 407.763,306.513 407.396,306.486C397.322,305.734 386.478,305.868 376.924,302.292C368.036,298.966 359.937,293.405 351.695,288.763C339.346,281.806 326.158,275.815 312.506,272.014Z"/>
                </g>
                <g transform="matrix(1,0,0,1,204.489,253.554)">
                    <path d="M422.528,306.237C422.16,306.237 421.862,305.938 421.862,305.571C421.862,305.203 422.16,304.905 422.528,304.905C440.738,304.905 458.097,303.712 476.016,300.463C485.629,298.72 494.576,297.24 503.575,293.213C503.911,293.063 504.305,293.214 504.455,293.549C504.605,293.885 504.455,294.279 504.119,294.429C495.019,298.501 485.975,300.01 476.254,301.773C458.255,305.037 440.819,306.237 422.528,306.237Z"/>
                </g>
                <g transform="matrix(1,0,0,1,204.489,253.554)">
                    <path d="M266.867,96.075C266.739,96.42 266.356,96.596 266.011,96.469C265.666,96.341 265.49,95.958 265.618,95.613C270.674,81.935 281.409,76.542 294.925,74.296C299.625,73.515 304.75,72.726 309.419,74.12C316.026,76.091 321.336,80.26 327.145,83.798C336.678,89.603 346.357,95.279 356.125,100.679C363.578,104.8 371.308,108.228 379.53,110.519C379.884,110.617 380.091,110.985 379.993,111.339C379.894,111.693 379.527,111.9 379.173,111.801C370.85,109.483 363.025,106.015 355.48,101.844C345.696,96.435 336.002,90.751 326.453,84.935C320.741,81.457 315.534,77.334 309.039,75.396C304.562,74.06 299.649,74.861 295.143,75.61C282.125,77.773 271.737,82.901 266.867,96.075Z"/>
                </g>
                <g transform="matrix(1,0,0,1,204.489,253.554)">
                    <path d="M391.241,123.169C390.901,123.03 390.738,122.641 390.878,122.301C391.017,121.961 391.407,121.798 391.747,121.937C407.543,128.422 423.777,135.172 438.593,143.784C447.451,148.934 455.629,155.107 463.802,161.259C469.106,165.252 476.676,168.907 480.934,174.163C481.165,174.449 481.121,174.868 480.836,175.099C480.55,175.331 480.13,175.287 479.899,175.001C475.706,169.825 468.225,166.256 463.001,162.323C454.87,156.203 446.736,150.059 437.923,144.936C423.16,136.353 406.982,129.631 391.241,123.169Z"/>
                </g>
                <g transform="matrix(1,0,0,1,204.489,253.554)">
                    <path d="M503.285,189.618C502.944,189.481 502.778,189.093 502.916,188.752C503.053,188.411 503.441,188.246 503.782,188.383C514.314,192.617 524.355,197.828 533.759,204.219C538.391,207.366 542.506,211.168 547.059,214.398C551.115,217.275 556.022,218.932 559.776,222.219C560.052,222.461 560.08,222.882 559.838,223.159C559.596,223.435 559.175,223.463 558.899,223.221C555.179,219.964 550.308,218.335 546.289,215.484C541.743,212.259 537.635,208.463 533.011,205.32C523.686,198.983 513.728,193.817 503.285,189.618Z"/>
                </g>
                <g transform="matrix(1,0,0,1,204.489,253.554)">
                    <path d="M183.975,128.498C184.335,128.422 184.689,128.653 184.764,129.012C184.84,129.372 184.609,129.725 184.25,129.801C171.615,132.462 159.766,144.656 156.935,157.392C155.696,162.963 156.157,168.508 156.477,174.151C157.221,187.276 159.756,199.913 164.076,212.32C164.196,212.667 164.013,213.047 163.666,213.168C163.319,213.289 162.939,213.105 162.818,212.758C158.457,200.233 155.899,187.476 155.148,174.226C154.821,168.46 154.37,162.795 155.635,157.103C158.572,143.894 170.871,131.257 183.975,128.498Z"/>
                </g>
                <g transform="matrix(1,0,0,1,204.489,253.554)">
                    <path d="M168.832,224.319C168.585,224.047 168.605,223.626 168.876,223.378C169.148,223.131 169.57,223.151 169.817,223.422C178.05,232.466 186.439,240.545 195.595,248.591C201.956,254.181 208.272,260.105 215.746,264.204C232.178,273.218 252.115,276.295 270.423,279.036C279.559,280.403 288.479,282.733 297.59,284.115C304.004,285.088 310.486,285.224 316.938,285.811C317.304,285.844 317.574,286.168 317.541,286.534C317.508,286.9 317.184,287.17 316.818,287.137C310.339,286.548 303.83,286.409 297.39,285.432C288.28,284.05 279.361,281.72 270.226,280.353C251.767,277.589 231.673,274.46 215.105,265.372C207.547,261.226 201.15,255.245 194.716,249.591C185.523,241.512 177.099,233.399 168.832,224.319Z"/>
                </g>
                <g transform="matrix(1,0,0,1,204.489,253.554)">
                    <path d="M156.313,212.941C156.597,212.708 157.017,212.749 157.25,213.033C157.483,213.317 157.442,213.737 157.159,213.97C149.895,219.94 142.302,226.669 137.433,234.839C133.961,240.667 130.922,246.944 128.964,253.468C127.5,258.343 125.171,264.207 125.571,269.484C125.921,274.1 127.805,277.331 130.903,280.793C137.844,288.548 145.73,290.988 154.296,291.974C160.104,292.642 166.221,292.646 172.573,293.144C176.326,293.437 180.067,293.913 183.764,294.632C191.668,296.169 199.416,298.603 207.048,301.133C216.196,304.165 225.451,307.275 234.124,311.525C252.002,320.285 268.658,331.067 287.36,338.255C287.703,338.387 287.875,338.772 287.743,339.115C287.611,339.458 287.225,339.63 286.882,339.498C268.144,332.296 251.451,321.498 233.538,312.721C224.919,308.498 215.72,305.41 206.629,302.397C199.051,299.885 191.358,297.466 183.509,295.939C179.863,295.23 176.172,294.761 172.469,294.471C166.1,293.973 159.967,293.967 154.144,293.297C145.265,292.275 137.105,289.719 129.911,281.681C126.601,277.982 124.617,274.516 124.243,269.585C123.831,264.152 126.182,258.104 127.688,253.085C129.678,246.457 132.762,240.079 136.289,234.158C141.235,225.857 148.933,219.007 156.313,212.941Z"/>
                </g>
                <g transform="matrix(1,0,0,1,204.489,253.554)">
                    <path d="M290.848,324.837C290.481,324.831 290.187,324.528 290.193,324.16C290.199,323.793 290.502,323.499 290.87,323.505C303.003,323.701 315.326,326.286 327.417,325.926C334.311,325.721 340.918,323.76 347.578,322.157C352.567,320.957 359.008,320.729 363.591,318.155C363.912,317.975 364.318,318.089 364.498,318.409C364.678,318.729 364.564,319.136 364.243,319.316C359.56,321.947 352.988,322.225 347.889,323.452C341.14,325.076 334.442,327.05 327.456,327.258C315.346,327.618 303.002,325.033 290.848,324.837Z"/>
                </g>
                <g transform="matrix(1,0,0,1,204.489,253.554)">
                    <path d="M191.835,127.007C191.47,126.963 191.21,126.63 191.255,126.265C191.3,125.9 191.633,125.641 191.998,125.686C213.175,128.296 234.291,136.383 254.143,144.078C254.486,144.211 254.656,144.597 254.523,144.94C254.39,145.283 254.004,145.453 253.662,145.32C233.91,137.664 212.905,129.605 191.835,127.007Z"/>
                </g>
                <g transform="matrix(0.142475,-0.0419224,0.0368283,0.125163,261.782,377.313)">
                    <path d="M416.5,-0.5L833.5,-0.5C925.741,11.527 1000.24,54.194 1057,127.5C1113.04,207.742 1127.37,295.076 1100,389.5C1071.38,479.778 1014.55,545.611 929.5,587C911.731,594.689 893.397,600.356 874.5,604C972.407,731.728 1070.07,859.562 1167.5,987.5L1055.5,987.5C956.827,857.503 857.66,727.837 758,598.5C757.5,571.169 757.333,543.835 757.5,516.5C852.312,536.207 927.479,507.207 983,429.5C1026.19,364.967 1035.19,295.967 1010,222.5C987.755,172.255 951.922,135.088 902.5,111C876.017,97.84 848.017,90.173 818.5,88C714.167,87.5 609.834,87.333 505.5,87.5L505.5,261.5L669.5,261.5L669.5,600.5L505.5,600.5L505.5,987.5L175.5,987.5L175.5,600.5L-0.5,600.5L-0.5,261.5L264.5,261.5L264.5,350.5L87.5,350.5L87.5,511.5L264.5,511.5L264.5,899.5L416.5,899.5L416.5,511.5L580.5,511.5L580.5,350.5L416.5,350.5L416.5,-0.5Z" style="fill:rgb(166,31,39);"/>
                    <path d="M416.5,-14.22L833.5,-14.22C833.958,-14.22 834.416,-14.19 834.872,-14.131C930.303,-1.688 1007.32,42.587 1066.04,118.428C1066.18,118.602 1066.31,118.78 1066.43,118.962C1125.22,203.13 1140.15,294.756 1111.45,393.799C1111.41,393.919 1111.38,394.038 1111.34,394.157C1081.59,488.003 1022.65,556.591 934.238,599.616C934.087,599.689 933.936,599.759 933.783,599.825C921.825,604.999 909.621,609.295 897.171,612.71C990.535,734.549 1083.68,856.484 1176.61,978.513C1179.7,982.572 1180.42,988.311 1178.46,993.198C1176.5,998.085 1172.22,1001.22 1167.5,1001.22L1055.5,1001.22C1052,1001.22 1048.67,999.486 1046.38,996.47C947.726,866.499 848.579,736.859 748.939,607.547C747.067,605.118 746.009,602.016 745.95,598.786C745.447,571.328 745.28,543.867 745.447,516.405C745.472,512.351 747.07,508.518 749.813,505.933C752.556,503.347 756.162,502.275 759.665,503.003C849.522,521.68 920.881,494.587 973.574,420.944C1013.73,360.801 1022.26,296.53 998.973,228.081C977.971,180.991 944.177,146.238 897.756,123.613C897.73,123.6 897.704,123.587 897.678,123.574C872.577,111.101 846.042,103.822 818.078,101.718C717.903,101.239 617.729,101.067 517.553,101.202L517.553,247.78L669.5,247.78C676.157,247.78 681.553,253.923 681.553,261.5L681.553,600.5C681.553,608.077 676.157,614.22 669.5,614.22L517.553,614.22L517.553,987.5C517.553,995.077 512.157,1001.22 505.5,1001.22L175.5,1001.22C168.843,1001.22 163.447,995.077 163.447,987.5C163.447,987.5 163.447,614.22 163.447,614.22L-0.5,614.22C-7.157,614.22 -12.553,608.077 -12.553,600.5L-12.553,261.5C-12.553,253.923 -7.157,247.78 -0.5,247.78L264.5,247.78C271.157,247.78 276.553,253.923 276.553,261.5L276.553,350.5C276.553,358.077 271.157,364.22 264.5,364.22L99.553,364.22L99.553,497.78L264.5,497.78C271.157,497.78 276.553,503.923 276.553,511.5C276.553,511.5 276.553,885.78 276.553,885.78C276.553,885.78 404.447,885.78 404.447,885.78L404.447,511.5C404.447,503.923 409.843,497.78 416.5,497.78L568.447,497.78L568.447,364.22L416.5,364.22C409.843,364.22 404.447,358.077 404.447,350.5L404.447,-0.5C404.447,-8.077 409.843,-14.22 416.5,-14.22ZM416.5,-0.5L416.5,350.5L580.5,350.5L580.5,511.5L416.5,511.5L416.5,899.5L264.5,899.5L264.5,511.5L87.5,511.5L87.5,350.5L264.5,350.5L264.5,261.5L-0.5,261.5L-0.5,600.5L175.5,600.5L175.5,987.5L505.5,987.5L505.5,600.5L669.5,600.5L669.5,261.5L505.5,261.5L505.5,87.5C609.834,87.333 714.167,87.5 818.5,88C848.017,90.173 876.017,97.84 902.5,111C951.922,135.088 987.755,172.255 1010,222.5C1035.19,295.967 1026.19,364.967 983,429.5C927.479,507.207 852.312,536.207 757.5,516.5C757.333,543.835 757.5,571.169 758,598.5C857.66,727.837 956.827,857.503 1055.5,987.5L1167.5,987.5C1070.07,859.562 972.407,731.728 874.5,604C893.397,600.356 911.731,594.689 929.5,587C1014.55,545.611 1071.38,479.778 1100,389.5C1127.37,295.076 1113.04,207.742 1057,127.5C1000.24,54.194 925.741,11.527 833.5,-0.5L416.5,-0.5Z" style="fill:rgb(255,213,213);"/>
                </g>
            </g>
        </g>
    </g>
</svg>
