<?xml version="1.0" encoding="UTF-8" standalone="no"?>
<!DOCTYPE svg PUBLIC "-//W3C//DTD SVG 1.1//EN" "http://www.w3.org/Graphics/SVG/1.1/DTD/svg11.dtd">
<svg width="100%" height="100%" viewBox="0 0 1024 1024" version="1.1" xmlns="http://www.w3.org/2000/svg" xmlns:xlink="http://www.w3.org/1999/xlink" xml:space="preserve" xmlns:serif="http://www.serif.com/" style="fill-rule:evenodd;clip-rule:evenodd;stroke-linejoin:round;stroke-miterlimit:2;">
    <g id="Layer-3">
        <g>
            <g transform="matrix(0.889266,0,0,0.889266,59.101,39.737)">
                <path d="M533.5,265.5L533.5,270.5C538.363,270.181 543.03,270.514 547.5,271.5C538.161,271.334 528.827,271.5 519.5,272C516.833,273 514.167,274 511.5,275C503.333,281.833 495.833,289.333 489,297.5C487.462,302.12 488.962,305.287 493.5,307C500.671,308.39 507.671,310.39 514.5,313C520.157,313.499 525.824,313.666 531.5,313.5C531.386,325.351 530.719,337.018 529.5,348.5C522.497,344.331 515.164,340.831 507.5,338C493.503,337.411 481.67,342.245 472,352.5C471.105,355.466 471.605,358.133 473.5,360.5C491.617,371.755 510.283,373.088 529.5,364.5C528.891,378.837 528.224,393.17 527.5,407.5C517.694,407.157 508.86,409.824 501,415.5C495.813,422.335 494.146,430.002 496,438.5C498.007,442.593 501.173,445.427 505.5,447C511.825,447.5 518.158,447.666 524.5,447.5C525.78,454.704 525.78,462.038 524.5,469.5C507.88,467.91 491.213,467.243 474.5,467.5C460.78,467.837 447.113,468.837 433.5,470.5C434.568,469.566 435.901,469.232 437.5,469.5L437.5,463.5C432.195,464.442 426.861,464.609 421.5,464C417.013,462.7 415.013,459.7 415.5,455C415.524,449.615 417.857,445.615 422.5,443C427.823,442.501 433.156,442.334 438.5,442.5C439.298,423.462 440.298,404.462 441.5,385.5C454.441,393.069 465.941,391.069 476,379.5C480.04,373.074 478.206,369.241 470.5,368C457.271,365.334 447.605,369.834 441.5,381.5C441.326,374.465 441.659,367.465 442.5,360.5C457.925,351.595 473.258,342.428 488.5,333C489.89,330.006 488.89,328.006 485.5,327C472.021,323.406 458.355,322.573 444.5,324.5C443.853,323.726 443.52,322.726 443.5,321.5C444.196,311.495 444.862,301.495 445.5,291.5C451.088,287.181 452.921,281.514 451,274.5C448.708,270.212 445.208,267.378 440.5,266C418.517,260.029 396.183,258.196 373.5,260.5C371.656,258.721 370.99,256.388 371.5,253.5C385.801,252.384 400.134,252.218 414.5,253C441.869,256.74 469.202,260.74 496.5,265C508.829,265.5 521.162,265.667 533.5,265.5Z" style="fill:rgb(153,58,17);"/>
            </g>
            <g transform="matrix(0.889266,0,0,0.889266,59.101,39.737)">
                <path d="M445.5,291.5C435.093,296.578 424.093,299.745 412.5,301C398.161,301.476 383.827,301.309 369.5,300.5C347.955,299.03 326.288,299.364 304.5,301.5C304.491,299.692 304.991,298.025 306,296.5C320.899,284.962 336.733,274.795 353.5,266C360.164,263.66 366.83,261.827 373.5,260.5C396.183,258.196 418.517,260.029 440.5,266C445.208,267.378 448.708,270.212 451,274.5C452.921,281.514 451.088,287.181 445.5,291.5Z" style="fill:rgb(185,74,27);"/>
            </g>
            <g transform="matrix(0.889266,0,0,0.889266,59.101,39.737)">
                <path d="M371.5,253.5C370.99,256.388 371.656,258.721 373.5,260.5C366.83,261.827 360.164,263.66 353.5,266C336.733,274.795 320.899,284.962 306,296.5C304.991,298.025 304.491,299.692 304.5,301.5C326.288,299.364 347.955,299.03 369.5,300.5C369.683,307.868 369.35,315.201 368.5,322.5C335.66,330.686 335.326,340.019 367.5,350.5C367.451,357.849 367.118,365.183 366.5,372.5C361.133,372.012 355.799,371.346 350.5,370.5C341.503,371.807 335.503,376.641 332.5,385C332.632,387.799 333.965,389.799 336.5,391C345.571,396.349 355.238,397.849 365.5,395.5C364.645,419.174 363.645,442.841 362.5,466.5C354.569,463.94 348.069,459.274 343,452.5C339.775,439.99 335.275,427.99 329.5,416.5C323.447,406.121 314.447,399.621 302.5,397C297.404,395.64 292.404,394.474 287.5,393.5L290.5,393.5C292.639,361.029 293.639,328.696 293.5,296.5C310.407,278.783 330.407,265.616 353.5,257C359.392,255.193 365.392,254.026 371.5,253.5Z" style="fill:rgb(165,62,18);"/>
            </g>
            <g transform="matrix(0.889266,0,0,0.889266,59.101,39.737)">
                <path d="M533.5,265.5C551.621,265.78 568.621,270.28 584.5,279C592.051,284.058 599.717,288.891 607.5,293.5L607.5,298.5C603.534,296.281 599.2,295.114 594.5,295C591.118,294.176 587.784,294.343 584.5,295.5C577.738,306.692 570.238,317.359 562,327.5C558.011,333.025 558.845,337.525 564.5,341C574.412,343.828 584.412,344.161 594.5,342C598.324,339.99 601.658,337.49 604.5,334.5C605.486,338.97 605.819,343.637 605.5,348.5C592.781,348.075 583.781,353.575 578.5,365C578.847,368.014 580.514,369.681 583.5,370C590.453,371.163 597.453,371.663 604.5,371.5C603.4,386.803 602.733,402.136 602.5,417.5C587.523,414.991 575.023,419.324 565,430.5C562.579,434.209 563.079,437.375 566.5,440C574.421,441.568 582.421,441.901 590.5,441C594.188,439.487 597.855,437.987 601.5,436.5C601.093,442.161 600.76,447.828 600.5,453.5C584.535,460.373 567.868,465.04 550.5,467.5C541.907,469.006 533.241,469.673 524.5,469.5C525.78,462.038 525.78,454.704 524.5,447.5C536.375,446.147 546.541,441.147 555,432.5C560.13,418.606 555.297,410.44 540.5,408C536.179,407.501 531.846,407.334 527.5,407.5C528.224,393.17 528.891,378.837 529.5,364.5C531.968,362.359 533.634,359.692 534.5,356.5C533.634,353.308 531.968,350.641 529.5,348.5C530.719,337.018 531.386,325.351 531.5,313.5C544.687,310.158 556.187,303.825 566,294.5C569.833,288 569,282.167 563.5,277C558.559,274.075 553.225,272.242 547.5,271.5C543.03,270.514 538.363,270.181 533.5,270.5L533.5,265.5Z" style="fill:rgb(146,56,17);"/>
            </g>
            <g transform="matrix(0.889266,0,0,0.889266,59.101,39.737)">
                <path d="M547.5,271.5C553.225,272.242 558.559,274.075 563.5,277C569,282.167 569.833,288 566,294.5C556.187,303.825 544.687,310.158 531.5,313.5C525.824,313.666 520.157,313.499 514.5,313C507.671,310.39 500.671,308.39 493.5,307C488.962,305.287 487.462,302.12 489,297.5C495.833,289.333 503.333,281.833 511.5,275C514.167,274 516.833,273 519.5,272C528.827,271.5 538.161,271.334 547.5,271.5Z" style="fill:rgb(185,74,27);"/>
            </g>
            <g transform="matrix(0.889266,0,0,0.889266,59.101,39.737)">
                <path d="M445.5,291.5C444.862,301.495 444.196,311.495 443.5,321.5C443.52,322.726 443.853,323.726 444.5,324.5C429.419,327.398 418.919,336.065 413,350.5C409.034,355.467 404.701,360.134 400,364.5C398.017,368.959 398.35,373.292 401,377.5C404.887,382.054 409.387,385.887 414.5,389C420.201,390.565 424.367,388.732 427,383.5C429.716,374.035 434.882,366.368 442.5,360.5C441.659,367.465 441.326,374.465 441.5,381.5L441.5,385.5C440.298,404.462 439.298,423.462 438.5,442.5C433.156,442.334 427.823,442.501 422.5,443C417.857,445.615 415.524,449.615 415.5,455C415.013,459.7 417.013,462.7 421.5,464C426.861,464.609 432.195,464.442 437.5,463.5L437.5,469.5C435.901,469.232 434.568,469.566 433.5,470.5C425.851,471.355 418.184,472.021 410.5,472.5C395.981,473.304 381.647,472.137 367.5,469C365.685,468.243 364.019,467.41 362.5,466.5C363.645,442.841 364.645,419.174 365.5,395.5C381.133,388.606 381.466,380.939 366.5,372.5C367.118,365.183 367.451,357.849 367.5,350.5C379.948,354.07 390.448,351.07 399,341.5C402.273,336.1 402.273,330.767 399,325.5C394.127,322.448 388.794,321.115 383,321.5C378.159,321.812 373.326,322.145 368.5,322.5C369.35,315.201 369.683,307.868 369.5,300.5C383.827,301.309 398.161,301.476 412.5,301C424.093,299.745 435.093,296.578 445.5,291.5Z" style="fill:rgb(159,60,18);"/>
            </g>
            <g transform="matrix(0.889266,0,0,0.889266,59.101,39.737)">
                <path d="M607.5,293.5C611.5,295.5 615.5,297.5 619.5,299.5C624.849,303.237 630.849,305.737 637.5,307C652.249,308.555 666.915,310.389 681.5,312.5L681.5,320.5C667.823,318.304 654.157,318.137 640.5,320C638.376,321.122 636.543,322.622 635,324.5C630.484,331.22 627.65,338.554 626.5,346.5C626.369,354.067 629.702,359.567 636.5,363C648.802,368.034 661.302,372.534 674,376.5C675.8,375.68 677.634,375.014 679.5,374.5C678.257,389.416 677.591,404.416 677.5,419.5C657.394,426.973 638.061,435.973 619.5,446.5C613.265,449.118 606.932,451.452 600.5,453.5C600.76,447.828 601.093,442.161 601.5,436.5C605.003,432.995 607.336,428.829 608.5,424C608.071,420.403 606.071,418.237 602.5,417.5C602.733,402.136 603.4,386.803 604.5,371.5C597.453,371.663 590.453,371.163 583.5,370C580.514,369.681 578.847,368.014 578.5,365C583.781,353.575 592.781,348.075 605.5,348.5C605.819,343.637 605.486,338.97 604.5,334.5C610.525,326.972 615.525,318.805 619.5,310C619.297,307.594 618.297,305.594 616.5,304C613.436,302.141 610.436,300.308 607.5,298.5L607.5,293.5Z" style="fill:rgb(140,54,17);"/>
            </g>
            <g transform="matrix(0.889266,0,0,0.889266,59.101,39.737)">
                <path d="M607.5,298.5C610.436,300.308 613.436,302.141 616.5,304C618.297,305.594 619.297,307.594 619.5,310C615.525,318.805 610.525,326.972 604.5,334.5C601.658,337.49 598.324,339.99 594.5,342C584.412,344.161 574.412,343.828 564.5,341C558.845,337.525 558.011,333.025 562,327.5C570.238,317.359 577.738,306.692 584.5,295.5C587.784,294.343 591.118,294.176 594.5,295C599.2,295.114 603.534,296.281 607.5,298.5Z" style="fill:rgb(135,52,16);"/>
            </g>
            <g transform="matrix(0.889266,0,0,0.889266,59.101,39.737)">
                <path d="M293.5,296.5C293.639,328.696 292.639,361.029 290.5,393.5L287.5,393.5C282.537,392.746 277.537,392.413 272.5,392.5C249.423,391.133 226.423,392.966 203.5,398C189.546,402.724 175.212,404.724 160.5,404C159.748,403.329 159.414,402.496 159.5,401.5C160.206,395.425 162.539,390.092 166.5,385.5C172.896,378.63 180.563,373.464 189.5,370C207.698,365.133 226.031,360.8 244.5,357C261.25,352.583 270.417,341.75 272,324.5C272.926,322.308 274.093,320.308 275.5,318.5C279.106,312.293 283.439,306.627 288.5,301.5C289.833,299.5 291.5,297.833 293.5,296.5Z" style="fill:rgb(171,65,18);"/>
            </g>
            <g transform="matrix(0.889266,0,0,0.889266,59.101,39.737)">
                <path d="M681.5,312.5C708.291,314.874 732.957,323.207 755.5,337.5C755.813,340.247 755.48,342.914 754.5,345.5C748.862,343.04 743.362,343.04 738,345.5C736.698,358.268 731.531,369.101 722.5,378C712.453,380.456 703.12,384.456 694.5,390C690.968,392.286 690.302,394.952 692.5,398C712.432,400.685 732.432,401.185 752.5,399.5C752.666,406.841 752.5,414.174 752,421.5C751.768,422.737 751.268,423.737 750.5,424.5C739.502,422.502 728.502,420.336 717.5,418C704.087,417.029 690.754,417.529 677.5,419.5C677.591,404.416 678.257,389.416 679.5,374.5C688.811,371.678 697.478,367.511 705.5,362C714.477,354.55 718.31,345.05 717,333.5C713.92,329.369 709.753,326.869 704.5,326C696.852,324.004 689.185,322.171 681.5,320.5L681.5,312.5Z" style="fill:rgb(134,53,17);"/>
            </g>
            <g transform="matrix(0.889266,0,0,0.889266,59.101,39.737)">
                <path d="M681.5,320.5C689.185,322.171 696.852,324.004 704.5,326C709.753,326.869 713.92,329.369 717,333.5C718.31,345.05 714.477,354.55 705.5,362C697.478,367.511 688.811,371.678 679.5,374.5C677.634,375.014 675.8,375.68 674,376.5C661.302,372.534 648.802,368.034 636.5,363C629.702,359.567 626.369,354.067 626.5,346.5C627.65,338.554 630.484,331.22 635,324.5C636.543,322.622 638.376,321.122 640.5,320C654.157,318.137 667.823,318.304 681.5,320.5Z" style="fill:rgb(185,74,27);"/>
            </g>
            <g transform="matrix(0.889266,0,0,0.889266,59.101,39.737)">
                <path d="M367.5,350.5C335.326,340.019 335.66,330.686 368.5,322.5C373.326,322.145 378.159,321.812 383,321.5C388.794,321.115 394.127,322.448 399,325.5C402.273,330.767 402.273,336.1 399,341.5C390.448,351.07 379.948,354.07 367.5,350.5Z" style="fill:rgb(149,56,17);"/>
            </g>
            <g transform="matrix(0.889266,0,0,0.889266,59.101,39.737)">
                <path d="M442.5,360.5C434.882,366.368 429.716,374.035 427,383.5C424.367,388.732 420.201,390.565 414.5,389C409.387,385.887 404.887,382.054 401,377.5C398.35,373.292 398.017,368.959 400,364.5C404.701,360.134 409.034,355.467 413,350.5C418.919,336.065 429.419,327.398 444.5,324.5C458.355,322.573 472.021,323.406 485.5,327C488.89,328.006 489.89,330.006 488.5,333C473.258,342.428 457.925,351.595 442.5,360.5Z" style="fill:rgb(185,74,27);"/>
            </g>
            <g transform="matrix(0.889266,0,0,0.889266,59.101,39.737)">
                <path d="M529.5,348.5C531.968,350.641 533.634,353.308 534.5,356.5C533.634,359.692 531.968,362.359 529.5,364.5C510.283,373.088 491.617,371.755 473.5,360.5C471.605,358.133 471.105,355.466 472,352.5C481.67,342.245 493.503,337.411 507.5,338C515.164,340.831 522.497,344.331 529.5,348.5Z" style="fill:rgb(140,54,16);"/>
            </g>
            <g transform="matrix(0.889266,0,0,0.889266,59.101,39.737)">
                <path d="M755.5,337.5C757.284,337.893 758.95,338.559 760.5,339.5C779.99,352.093 798.657,365.926 816.5,381C827.137,390.796 836.804,401.296 845.5,412.5C847.115,415.45 849.115,418.116 851.5,420.5C847.846,428.679 841.513,433.512 832.5,435C808.23,435.1 784.23,432.6 760.5,427.5C757.01,426.743 753.677,425.743 750.5,424.5C751.268,423.737 751.768,422.737 752,421.5C752.5,414.174 752.666,406.841 752.5,399.5C732.432,401.185 712.432,400.685 692.5,398C690.302,394.952 690.968,392.286 694.5,390C703.12,384.456 712.453,380.456 722.5,378C731.531,369.101 736.698,358.268 738,345.5C743.362,343.04 748.862,343.04 754.5,345.5C755.48,342.914 755.813,340.247 755.5,337.5Z" style="fill:rgb(126,50,16);"/>
            </g>
            <g transform="matrix(0.889266,0,0,0.889266,59.101,39.737)">
                <path d="M314.5,340.5C330.686,338.162 334.519,343.828 326,357.5C316.562,362.97 306.728,363.803 296.5,360C293.994,357.451 294.16,354.951 297,352.5C301.964,347.004 307.797,343.004 314.5,340.5Z" style="fill:rgb(185,74,27);"/>
            </g>
            <g transform="matrix(0.889266,0,0,0.889266,59.101,39.737)">
                <path d="M218.5,366.5C225.175,366.334 231.842,366.5 238.5,367C240.325,368.466 240.825,370.299 240,372.5C238.5,376.667 235.667,379.5 231.5,381C216.502,385.625 201.168,387.291 185.5,386C181.454,384.529 180.621,382.029 183,378.5C185.408,376.044 188.241,374.211 191.5,373C200.604,370.688 209.604,368.522 218.5,366.5Z" style="fill:rgb(185,74,27);"/>
            </g>
            <g transform="matrix(0.889266,0,0,0.889266,59.101,39.737)">
                <path d="M441.5,385.5L441.5,381.5C447.605,369.834 457.271,365.334 470.5,368C478.206,369.241 480.04,373.074 476,379.5C465.941,391.069 454.441,393.069 441.5,385.5Z" style="fill:rgb(143,55,17);"/>
            </g>
            <g transform="matrix(0.889266,0,0,0.889266,59.101,39.737)">
                <path d="M366.5,372.5C381.466,380.939 381.133,388.606 365.5,395.5C355.238,397.849 345.571,396.349 336.5,391C333.965,389.799 332.632,387.799 332.5,385C335.503,376.641 341.503,371.807 350.5,370.5C355.799,371.346 361.133,372.012 366.5,372.5Z" style="fill:rgb(150,57,17);"/>
            </g>
            <g transform="matrix(0.889266,0,0,0.889266,59.101,39.737)">
                <path d="M272.5,392.5C277.537,392.413 282.537,392.746 287.5,393.5C292.404,394.474 297.404,395.64 302.5,397C314.447,399.621 323.447,406.121 329.5,416.5C328.177,419.938 327.51,423.771 327.5,428C326.82,439.825 326.486,451.658 326.5,463.5C325.167,462.167 323.833,460.833 322.5,459.5C321.341,455.849 319.674,452.515 317.5,449.5C316.341,445.849 314.674,442.515 312.5,439.5C312.34,437.847 311.674,436.514 310.5,435.5C310.267,433.938 309.6,432.605 308.5,431.5C306.833,428.833 305.167,426.167 303.5,423.5C301.996,421.164 299.996,419.331 297.5,418C291.829,415.054 285.829,413.22 279.5,412.5C272.62,410.452 265.62,409.119 258.5,408.5L258.5,392.5L272.5,392.5Z" style="fill:rgb(146,55,15);"/>
            </g>
            <g transform="matrix(0.889266,0,0,0.889266,59.101,39.737)">
                <path d="M272.5,392.5L258.5,392.5L258.5,408.5C240.964,408.294 223.631,409.961 206.5,413.5C195.294,415.817 183.96,416.817 172.5,416.5C163.911,416.241 159.245,411.908 158.5,403.5C158.328,402.508 158.662,401.842 159.5,401.5C159.414,402.496 159.748,403.329 160.5,404C175.212,404.724 189.546,402.724 203.5,398C226.423,392.966 249.423,391.133 272.5,392.5Z" style="fill:rgb(154,58,16);"/>
            </g>
            <g transform="matrix(0.889266,0,0,0.889266,59.101,39.737)">
                <path d="M633.5,392.5C642.066,392.646 650.4,394.146 658.5,397C666.342,399.503 667.342,403.503 661.5,409C652.963,415.734 643.297,419.067 632.5,419C625.655,417.503 619.488,414.669 614,410.5C612,408.5 612,406.5 614,404.5C619.217,398.313 625.717,394.313 633.5,392.5Z" style="fill:rgb(131,51,16);"/>
            </g>
            <g transform="matrix(0.889266,0,0,0.889266,59.101,39.737)">
                <path d="M158.5,403.5C159.245,411.908 163.911,416.241 172.5,416.5C174.369,417.165 176.369,417.831 178.5,418.5C179.815,420.199 179.815,421.865 178.5,423.5C176.958,422.699 175.292,422.366 173.5,422.5C165.802,420.199 157.802,418.865 149.5,418.5C151.749,412.995 154.749,407.995 158.5,403.5Z" style="fill:rgb(222,200,116);"/>
            </g>
            <g transform="matrix(0.889266,0,0,0.889266,59.101,39.737)">
                <path d="M527.5,407.5C531.846,407.334 536.179,407.501 540.5,408C555.297,410.44 560.13,418.606 555,432.5C546.541,441.147 536.375,446.147 524.5,447.5C518.158,447.666 511.825,447.5 505.5,447C501.173,445.427 498.007,442.593 496,438.5C494.146,430.002 495.813,422.335 501,415.5C508.86,409.824 517.694,407.157 527.5,407.5Z" style="fill:rgb(138,53,16);"/>
            </g>
            <g transform="matrix(0.889266,0,0,0.889266,59.101,39.737)">
                <path d="M206.5,413.5C201.463,418.539 196.129,423.206 190.5,427.5C186.715,425.572 182.715,424.238 178.5,423.5C179.815,421.865 179.815,420.199 178.5,418.5C176.369,417.831 174.369,417.165 172.5,416.5C183.96,416.817 195.294,415.817 206.5,413.5Z" style="fill:rgb(193,172,94);"/>
            </g>
            <g transform="matrix(0.889266,0,0,0.889266,59.101,39.737)">
                <path d="M279.5,412.5C285.829,413.22 291.829,415.054 297.5,418C299.996,419.331 301.996,421.164 303.5,423.5C296.029,424.401 289.363,427.234 283.5,432C277.937,439.649 272.27,447.149 266.5,454.5C265.833,454.5 265.5,454.833 265.5,455.5C264.5,456.167 263.5,456.833 262.5,457.5C261.148,452.746 259.814,448.079 258.5,443.5C263.125,441.848 267.125,439.182 270.5,435.5C269.91,434.201 268.91,433.368 267.5,433C264.964,432.814 262.631,432.314 260.5,431.5C262.844,429.282 263.177,426.615 261.5,423.5C267.798,420.35 273.798,416.683 279.5,412.5Z" style="fill:rgb(168,141,78);"/>
            </g>
            <g transform="matrix(0.889266,0,0,0.889266,59.101,39.737)">
                <path d="M845.5,412.5C850.643,415.575 855.643,418.908 860.5,422.5C868.984,429.484 876.984,436.984 884.5,445C888.837,444.84 893.17,444.34 897.5,443.5C897.027,446.833 898.36,449 901.5,450C905.167,450.667 908.833,450.667 912.5,450C916.816,449.004 921.149,448.17 925.5,447.5C937.028,451.182 946.861,457.515 955,466.5C958.463,473.571 962.296,480.405 966.5,487C967.729,487.781 969.062,488.281 970.5,488.5C973.782,487.512 977.115,486.846 980.5,486.5C980.769,490.931 980.436,495.265 979.5,499.5C953.173,488.839 927.173,477.339 901.5,465C884.767,459.567 867.767,456.401 850.5,455.5C856.367,453.902 862.033,451.735 867.5,449C870.302,444.254 869.802,439.754 866,435.5C861.663,429.997 856.83,424.997 851.5,420.5C849.115,418.116 847.115,415.45 845.5,412.5Z" style="fill:rgb(222,200,112);"/>
            </g>
            <g transform="matrix(0.889266,0,0,0.889266,59.101,39.737)">
                <path d="M329.5,416.5C335.275,427.99 339.775,439.99 343,452.5C348.069,459.274 354.569,463.94 362.5,466.5C364.019,467.41 365.685,468.243 367.5,469C381.647,472.137 395.981,473.304 410.5,472.5C405.695,473.487 400.695,473.821 395.5,473.5C395.666,478.844 395.499,484.177 395,489.5C394.768,490.737 394.268,491.737 393.5,492.5C391.139,492.326 388.806,491.993 386.5,491.5C384.565,490.85 382.565,490.517 380.5,490.5C372.399,487.722 364.066,485.388 355.5,483.5C351.576,481.853 347.576,480.186 343.5,478.5C337.562,474.894 332.229,470.561 327.5,465.5C327.167,464.833 326.833,464.167 326.5,463.5C326.486,451.658 326.82,439.825 327.5,428C327.51,423.771 328.177,419.938 329.5,416.5Z" style="fill:rgb(141,53,14);"/>
            </g>
            <g transform="matrix(0.889266,0,0,0.889266,59.101,39.737)">
                <path d="M602.5,417.5C606.071,418.237 608.071,420.403 608.5,424C607.336,428.829 605.003,432.995 601.5,436.5C597.855,437.987 594.188,439.487 590.5,441C582.421,441.901 574.421,441.568 566.5,440C563.079,437.375 562.579,434.209 565,430.5C575.023,419.324 587.523,414.991 602.5,417.5Z" style="fill:rgb(185,74,27);"/>
            </g>
            <g transform="matrix(0.889266,0,0,0.889266,59.101,39.737)">
                <path d="M149.5,418.5C157.802,418.865 165.802,420.199 173.5,422.5C178.285,437.86 184.618,452.526 192.5,466.5C186.042,464.174 179.375,462.674 172.5,462C158.468,461.219 144.468,461.386 130.5,462.5C128.637,458.245 126.97,453.912 125.5,449.5C138.975,446.05 152.641,443.383 166.5,441.5C159.479,435.825 151.479,431.991 142.5,430C130.623,426.507 118.623,425.841 106.5,428C101.687,429.907 97.02,432.074 92.5,434.5C92.088,431.198 90.755,428.531 88.5,426.5C90.979,425.205 93.646,424.205 96.5,423.5C113.908,419.283 131.574,417.616 149.5,418.5Z" style="fill:rgb(233,215,144);"/>
            </g>
            <g transform="matrix(0.889266,0,0,0.889266,59.101,39.737)">
                <path d="M750.5,424.5C753.677,425.743 757.01,426.743 760.5,427.5C759.71,434.471 759.377,441.471 759.5,448.5C758.391,448.443 757.391,448.11 756.5,447.5C752.5,445.833 748.5,444.167 744.5,442.5C742.819,440.992 740.819,439.992 738.5,439.5C737.833,439.167 737.167,438.833 736.5,438.5C729.385,434.713 721.719,433.547 713.5,435C705.913,437.129 698.913,440.295 692.5,444.5C688.561,446.446 684.894,448.779 681.5,451.5C674.566,455.11 667.9,459.11 661.5,463.5C652.433,468.366 643.1,472.7 633.5,476.5C628.77,478.537 624.103,480.537 619.5,482.5L618.5,482.5C617.848,470.498 618.181,458.498 619.5,446.5C638.061,435.973 657.394,426.973 677.5,419.5C690.754,417.529 704.087,417.029 717.5,418C728.502,420.336 739.502,422.502 750.5,424.5Z" style="fill:rgb(114,43,12);"/>
            </g>
            <g transform="matrix(0.889266,0,0,0.889266,59.101,39.737)">
                <path d="M173.5,422.5C175.292,422.366 176.958,422.699 178.5,423.5C182.715,424.238 186.715,425.572 190.5,427.5C197.749,430.764 204.749,434.43 211.5,438.5C224.46,448.791 237.126,459.457 249.5,470.5C244.155,477.871 238.821,485.205 233.5,492.5C222.847,485.836 212.514,478.67 202.5,471C199.259,469.211 195.926,467.711 192.5,466.5C184.618,452.526 178.285,437.86 173.5,422.5Z" style="fill:rgb(236,219,153);"/>
            </g>
            <g transform="matrix(0.889266,0,0,0.889266,59.101,39.737)">
                <path d="M303.5,423.5C305.167,426.167 306.833,428.833 308.5,431.5C293.036,436.663 279.036,444.33 266.5,454.5C272.27,447.149 277.937,439.649 283.5,432C289.363,427.234 296.029,424.401 303.5,423.5Z" style="fill:rgb(195,176,102);"/>
            </g>
            <g transform="matrix(0.889266,0,0,0.889266,59.101,39.737)">
                <path d="M88.5,426.5C90.755,428.531 92.088,431.198 92.5,434.5C88.232,437.589 84.066,440.923 80,444.5C77.849,447.216 78.016,449.716 80.5,452C84.245,453.045 88.079,453.545 92,453.5C103.269,452.933 114.436,451.6 125.5,449.5C126.97,453.912 128.637,458.245 130.5,462.5C121.327,463.387 113.493,467.054 107,473.5C103.173,480.56 104.007,486.893 109.5,492.5C111.543,495.543 114.21,497.876 117.5,499.5C118.306,500.728 119.306,501.728 120.5,502.5C119.624,502.369 118.957,502.702 118.5,503.5C124.192,514.22 129.859,524.887 135.5,535.5C118.403,529.95 102.403,522.283 87.5,512.5C79.226,506.061 71.726,498.728 65,490.5C58.435,482.7 54.602,473.7 53.5,463.5C57.248,443.751 68.914,431.417 88.5,426.5Z" style="fill:rgb(228,208,127);"/>
            </g>
            <g transform="matrix(0.889266,0,0,0.889266,59.101,39.737)">
                <path d="M125.5,449.5C114.436,451.6 103.269,452.933 92,453.5C88.079,453.545 84.245,453.045 80.5,452C78.016,449.716 77.849,447.216 80,444.5C84.066,440.923 88.232,437.589 92.5,434.5C97.02,432.074 101.687,429.907 106.5,428C118.623,425.841 130.623,426.507 142.5,430C151.479,431.991 159.479,435.825 166.5,441.5C152.641,443.383 138.975,446.05 125.5,449.5Z" style="fill:rgb(254,254,253);"/>
            </g>
            <g transform="matrix(0.889266,0,0,0.889266,59.101,39.737)">
                <path d="M851.5,420.5C856.83,424.997 861.663,429.997 866,435.5C869.802,439.754 870.302,444.254 867.5,449C862.033,451.735 856.367,453.902 850.5,455.5C849.391,455.557 848.391,455.89 847.5,456.5C837.575,459.148 827.575,461.481 817.5,463.5C813.232,464.373 808.898,464.706 804.5,464.5C800.481,464.354 796.481,464.021 792.5,463.5C780.841,459.835 769.841,454.835 759.5,448.5C759.377,441.471 759.71,434.471 760.5,427.5C784.23,432.6 808.23,435.1 832.5,435C841.513,433.512 847.846,428.679 851.5,420.5Z" style="fill:rgb(103,38,11);"/>
            </g>
            <g transform="matrix(0.889266,0,0,0.889266,59.101,39.737)">
                <path d="M261.5,423.5C263.177,426.615 262.844,429.282 260.5,431.5C253.411,431.116 246.411,431.616 239.5,433C235.998,435.496 235.665,438.329 238.5,441.5C240.028,442.861 241.695,444.028 243.5,445C248.61,445.57 253.61,445.07 258.5,443.5C259.814,448.079 261.148,452.746 262.5,457.5C257.806,461.527 253.473,465.86 249.5,470.5C237.126,459.457 224.46,448.791 211.5,438.5C228.172,433.496 244.839,428.496 261.5,423.5Z" style="fill:rgb(159,132,72);"/>
            </g>
            <g transform="matrix(0.889266,0,0,0.889266,59.101,39.737)">
                <path d="M260.5,431.5C262.631,432.314 264.964,432.814 267.5,433C268.91,433.368 269.91,434.201 270.5,435.5C267.125,439.182 263.125,441.848 258.5,443.5C253.61,445.07 248.61,445.57 243.5,445C241.695,444.028 240.028,442.861 238.5,441.5C235.665,438.329 235.998,435.496 239.5,433C246.411,431.616 253.411,431.116 260.5,431.5Z" style="fill:rgb(237,220,158);"/>
            </g>
            <g transform="matrix(0.889266,0,0,0.889266,59.101,39.737)">
                <path d="M389.5,431.5C396.214,431.363 402.88,431.863 409.5,433C414.115,434.077 415.615,436.91 414,441.5C409.618,449.546 404.118,456.712 397.5,463C395.5,463.667 393.5,463.667 391.5,463C383.045,459.03 375.211,454.196 368,448.5C367.365,446.365 367.699,444.365 369,442.5C374.587,436.293 381.421,432.626 389.5,431.5Z" style="fill:rgb(185,74,27);"/>
            </g>
            <g transform="matrix(0.889266,0,0,0.889266,59.101,39.737)">
                <path d="M310.5,435.5C311.674,436.514 312.34,437.847 312.5,439.5C309.517,440.388 306.35,441.054 303,441.5C302.167,441.167 301.333,440.833 300.5,440.5C303.397,437.931 306.73,436.264 310.5,435.5Z" style="fill:rgb(251,247,240);"/>
            </g>
            <g transform="matrix(0.889266,0,0,0.889266,59.101,39.737)">
                <path d="M736.5,438.5C731.942,440.386 727.608,442.719 723.5,445.5C718.507,445.084 713.507,444.751 708.5,444.5C706.814,442.984 704.981,441.65 703,440.5C699.634,442.27 696.134,443.603 692.5,444.5C698.913,440.295 705.913,437.129 713.5,435C721.719,433.547 729.385,434.713 736.5,438.5Z" style="fill:rgb(187,167,92);"/>
            </g>
            <g transform="matrix(0.889266,0,0,0.889266,59.101,39.737)">
                <path d="M925.5,447.5C921.149,448.17 916.816,449.004 912.5,450C908.833,450.667 905.167,450.667 901.5,450C898.36,449 897.027,446.833 897.5,443.5C900.592,440.621 904.259,438.787 908.5,438C913.833,437.333 919.167,437.333 924.5,438C937.451,440.071 937.784,443.237 925.5,447.5Z" style="fill:rgb(253,253,251);"/>
            </g>
            <g transform="matrix(0.889266,0,0,0.889266,59.101,39.737)">
                <path d="M738.5,439.5C740.819,439.992 742.819,440.992 744.5,442.5C732.538,452.624 720.705,462.958 709,473.5C701.794,485.77 696.127,498.77 692,512.5C691.311,513.357 690.478,514.023 689.5,514.5C686.553,500.16 689.386,487.16 698,475.5C710.802,462.521 724.302,450.521 738.5,439.5Z" style="fill:rgb(254,253,251);"/>
            </g>
            <g transform="matrix(0.889266,0,0,0.889266,59.101,39.737)">
                <path d="M708.5,444.5C710.843,447.207 713.177,449.874 715.5,452.5C709.833,457.5 704.5,462.833 699.5,468.5C694.808,461.475 688.808,455.809 681.5,451.5C684.894,448.779 688.561,446.446 692.5,444.5C696.134,443.603 699.634,442.27 703,440.5C704.981,441.65 706.814,442.984 708.5,444.5Z" style="fill:rgb(232,215,144);"/>
            </g>
            <g transform="matrix(0.889266,0,0,0.889266,59.101,39.737)">
                <path d="M308.5,431.5C309.6,432.605 310.267,433.938 310.5,435.5C306.73,436.264 303.397,437.931 300.5,440.5C301.333,440.833 302.167,441.167 303,441.5C306.35,441.054 309.517,440.388 312.5,439.5C314.674,442.515 316.341,445.849 317.5,449.5C300.011,453.911 285.344,462.911 273.5,476.5C272.5,477.167 271.5,477.833 270.5,478.5C268.215,471.086 266.549,463.419 265.5,455.5C265.5,454.833 265.833,454.5 266.5,454.5C279.036,444.33 293.036,436.663 308.5,431.5Z" style="fill:rgb(233,214,142);"/>
            </g>
            <g transform="matrix(0.889266,0,0,0.889266,59.101,39.737)">
                <path d="M708.5,444.5C713.507,444.751 718.507,445.084 723.5,445.5C720.874,447.823 718.207,450.157 715.5,452.5C713.177,449.874 710.843,447.207 708.5,444.5Z" style="fill:rgb(163,136,75);"/>
            </g>
            <g transform="matrix(0.889266,0,0,0.889266,59.101,39.737)">
                <path d="M619.5,446.5C618.181,458.498 617.848,470.498 618.5,482.5C608.669,485.776 598.669,488.443 588.5,490.5C579.972,492.65 571.305,493.983 562.5,494.5L546.5,494.5C547.377,485.867 547.711,477.2 547.5,468.5C548.791,468.737 549.791,468.404 550.5,467.5C567.868,465.04 584.535,460.373 600.5,453.5C606.932,451.452 613.265,449.118 619.5,446.5Z" style="fill:rgb(121,45,12);"/>
            </g>
            <g transform="matrix(0.889266,0,0,0.889266,59.101,39.737)">
                <path d="M681.5,451.5C688.808,455.809 694.808,461.475 699.5,468.5C691.371,477.304 684.371,486.971 678.5,497.5C658.442,493.902 638.776,488.902 619.5,482.5C624.103,480.537 628.77,478.537 633.5,476.5C635.649,478.746 638.316,480.246 641.5,481C654.274,483.771 666.607,482.437 678.5,477C681.167,474.667 681.167,472.333 678.5,470C672.992,467.375 667.325,465.208 661.5,463.5C667.9,459.11 674.566,455.11 681.5,451.5Z" style="fill:rgb(167,140,77);"/>
            </g>
            <g transform="matrix(0.889266,0,0,0.889266,59.101,39.737)">
                <path d="M736.5,438.5C737.167,438.833 737.833,439.167 738.5,439.5C724.302,450.521 710.802,462.521 698,475.5C689.386,487.16 686.553,500.16 689.5,514.5C690.478,514.023 691.311,513.357 692,512.5C696.127,498.77 701.794,485.77 709,473.5C720.705,462.958 732.538,452.624 744.5,442.5C748.5,444.167 752.5,445.833 756.5,447.5C754.5,449.167 752.5,450.833 750.5,452.5C742.907,457.097 735.907,462.431 729.5,468.5C723.833,473.5 718.5,478.833 713.5,484.5C705.883,493.068 701.55,503.068 700.5,514.5C701.497,524.476 702.164,534.476 702.5,544.5C702.662,546.527 702.495,548.527 702,550.5C697.685,555.982 692.851,560.982 687.5,565.5C683.62,558.09 680.62,550.423 678.5,542.5C676.779,534.56 675.445,526.56 674.5,518.5C674.092,511.139 675.425,504.139 678.5,497.5C684.371,486.971 691.371,477.304 699.5,468.5C704.5,462.833 709.833,457.5 715.5,452.5C718.207,450.157 720.874,447.823 723.5,445.5C727.608,442.719 731.942,440.386 736.5,438.5Z" style="fill:rgb(237,221,157);"/>
            </g>
            <g transform="matrix(0.889266,0,0,0.889266,59.101,39.737)">
                <path d="M750.5,452.5C763.437,457.448 775.103,464.448 785.5,473.5C783.896,474.287 783.229,475.62 783.5,477.5C767.148,467.885 749.814,465.218 731.5,469.5C730.833,469.167 730.167,468.833 729.5,468.5C735.907,462.431 742.907,457.097 750.5,452.5Z" style="fill:rgb(149,120,63);"/>
            </g>
            <g transform="matrix(0.889266,0,0,0.889266,59.101,39.737)">
                <path d="M850.5,455.5C867.767,456.401 884.767,459.567 901.5,465C927.173,477.339 953.173,488.839 979.5,499.5C979.198,502.373 978.531,505.039 977.5,507.5C967.68,507.046 958.013,505.546 948.5,503C934.489,494.329 920.822,485.162 907.5,475.5C906.959,477.523 907.459,479.523 909,481.5C911.952,490.68 910.452,499.013 904.5,506.5C902.031,503.856 899.698,501.023 897.5,498C903.355,490.648 904.855,482.481 902,473.5C891.994,467.874 881.494,465.207 870.5,465.5C869.711,465.217 869.044,464.717 868.5,464C862.82,463.555 857.154,463.055 851.5,462.5C850.18,460.537 848.846,458.537 847.5,456.5C848.391,455.89 849.391,455.557 850.5,455.5Z" style="fill:rgb(189,170,89);"/>
            </g>
            <g transform="matrix(0.889266,0,0,0.889266,59.101,39.737)">
                <path d="M192.5,466.5C195.926,467.711 199.259,469.211 202.5,471C212.514,478.67 222.847,485.836 233.5,492.5C233.737,493.791 233.404,494.791 232.5,495.5C230.393,493.273 228.06,491.273 225.5,489.5C216.862,483.509 207.862,478.009 198.5,473C189.808,469.695 180.808,467.862 171.5,467.5C162.447,467.222 153.447,467.556 144.5,468.5C134.637,469.066 125.304,471.566 116.5,476C111.003,480.16 108.67,485.66 109.5,492.5C104.007,486.893 103.173,480.56 107,473.5C113.493,467.054 121.327,463.387 130.5,462.5C144.468,461.386 158.468,461.219 172.5,462C179.375,462.674 186.042,464.174 192.5,466.5Z" style="fill:rgb(198,179,100);"/>
            </g>
            <g transform="matrix(0.889266,0,0,0.889266,59.101,39.737)">
                <path d="M851.5,462.5C857.154,463.055 862.82,463.555 868.5,464C869.044,464.717 869.711,465.217 870.5,465.5C870.666,469.846 870.499,474.179 870,478.5C865.912,476.206 861.745,474.039 857.5,472C855.364,468.89 853.364,465.723 851.5,462.5Z" style="fill:rgb(128,97,47);"/>
            </g>
            <g transform="matrix(0.889266,0,0,0.889266,59.101,39.737)">
                <path d="M661.5,463.5C667.325,465.208 672.992,467.375 678.5,470C681.167,472.333 681.167,474.667 678.5,477C666.607,482.437 654.274,483.771 641.5,481C638.316,480.246 635.649,478.746 633.5,476.5C643.1,472.7 652.433,468.366 661.5,463.5Z" style="fill:rgb(236,220,158);"/>
            </g>
            <g transform="matrix(0.889266,0,0,0.889266,59.101,39.737)">
                <path d="M817.5,463.5C817.414,464.496 817.748,465.329 818.5,466C823.833,469 829.167,472 834.5,475C838.047,479.041 841.38,483.208 844.5,487.5C830.832,480.335 817.499,472.669 804.5,464.5C808.898,464.706 813.232,464.373 817.5,463.5Z" style="fill:rgb(168,149,66);"/>
            </g>
            <g transform="matrix(0.889266,0,0,0.889266,59.101,39.737)">
                <path d="M847.5,456.5C848.846,458.537 850.18,460.537 851.5,462.5C853.364,465.723 855.364,468.89 857.5,472C861.745,474.039 865.912,476.206 870,478.5C870.499,474.179 870.666,469.846 870.5,465.5C881.494,465.207 891.994,467.874 902,473.5C904.855,482.481 903.355,490.648 897.5,498C899.698,501.023 902.031,503.856 904.5,506.5C905.787,509.406 906.787,512.406 907.5,515.5C910.372,524.965 909.872,534.298 906,543.5C905.667,550.167 905.333,556.833 905,563.5C901.257,566.621 897.424,569.621 893.5,572.5C892.702,570.922 892.202,569.256 892,567.5C886.326,570.416 880.826,573.416 875.5,576.5C874.391,576.557 873.391,576.89 872.5,577.5C869.168,579.339 865.835,580.839 862.5,582C869.708,569.75 877.041,557.584 884.5,545.5C879.559,537.069 874.059,529.069 868,521.5C866.775,521.862 865.609,522.362 864.5,523C872.843,529.182 876.01,537.349 874,547.5C872.6,550.902 870.433,553.736 867.5,556C861.916,559.959 855.916,563.125 849.5,565.5C847.333,563.489 844.666,562.322 841.5,562C835.202,560.838 828.869,560.005 822.5,559.5C828.422,556.581 833.088,552.247 836.5,546.5C838.495,541.457 837.162,537.29 832.5,534C820.814,527.938 808.481,523.771 795.5,521.5C796.787,518.594 797.787,515.594 798.5,512.5L803.5,512.5C808.671,512.876 813.671,514.042 818.5,516C825.776,520.31 833.442,523.477 841.5,525.5C841.323,521.474 839.323,518.641 835.5,517C825.224,511.525 814.557,507.358 803.5,504.5C803.33,503.178 803.663,502.011 804.5,501C801.854,500.503 799.187,500.336 796.5,500.5C801.985,499.348 807.651,499.182 813.5,500C818.855,500.771 824.188,501.605 829.5,502.5C834.4,504.473 839.4,506.473 844.5,508.5C848.755,506.47 852.088,504.137 854.5,501.5C851.555,496.555 848.221,491.888 844.5,487.5C841.38,483.208 838.047,479.041 834.5,475C829.167,472 823.833,469 818.5,466C817.748,465.329 817.414,464.496 817.5,463.5C827.575,461.481 837.575,459.148 847.5,456.5Z" style="fill:rgb(223,201,112);"/>
            </g>
            <g transform="matrix(0.889266,0,0,0.889266,59.101,39.737)">
                <path d="M327.5,465.5C332.229,470.561 337.562,474.894 343.5,478.5C331.272,482.184 318.939,486.017 306.5,490C300.078,491.301 294.078,490.301 288.5,487C286.52,482.634 287.853,479.634 292.5,478C303.401,471.543 315.068,467.376 327.5,465.5Z" style="fill:rgb(237,221,159);"/>
            </g>
            <g transform="matrix(0.889266,0,0,0.889266,59.101,39.737)">
                <path d="M317.5,449.5C319.674,452.515 321.341,455.849 322.5,459.5C304.497,464.002 289.497,473.335 277.5,487.5C276.32,483.783 274.987,480.116 273.5,476.5C285.344,462.911 300.011,453.911 317.5,449.5Z" style="fill:rgb(186,169,98);"/>
            </g>
            <g transform="matrix(0.889266,0,0,0.889266,59.101,39.737)">
                <path d="M474.5,467.5C491.213,467.243 507.88,467.91 524.5,469.5C533.241,469.673 541.907,469.006 550.5,467.5C549.791,468.404 548.791,468.737 547.5,468.5C547.711,477.2 547.377,485.867 546.5,494.5L562.5,494.5C552.974,495.767 543.308,495.767 533.5,494.5C523.163,492.498 512.83,490.498 502.5,488.5C491.045,484.996 479.378,484.663 467.5,487.5C466.186,485.085 465.519,482.252 465.5,479C465.667,476.167 465.833,473.333 466,470.5C468.677,468.959 471.51,467.959 474.5,467.5Z" style="fill:rgb(128,48,13);"/>
            </g>
            <g transform="matrix(0.889266,0,0,0.889266,59.101,39.737)">
                <path d="M474.5,467.5C471.51,467.959 468.677,468.959 466,470.5C465.833,473.333 465.667,476.167 465.5,479C465.519,482.252 466.186,485.085 467.5,487.5C464.358,488.79 461.025,489.79 457.5,490.5C451.721,491.852 446.054,493.185 440.5,494.5C435.195,495.194 429.862,495.528 424.5,495.5L409.5,495.5C404.484,494.942 399.484,494.275 394.5,493.5C393.833,493.5 393.5,493.167 393.5,492.5C394.268,491.737 394.768,490.737 395,489.5C395.499,484.177 395.666,478.844 395.5,473.5C400.695,473.821 405.695,473.487 410.5,472.5C418.184,472.021 425.851,471.355 433.5,470.5C447.113,468.837 460.78,467.837 474.5,467.5Z" style="fill:rgb(135,50,14);"/>
            </g>
            <g transform="matrix(0.889266,0,0,0.889266,59.101,39.737)">
                <path d="M783.5,477.5C790.002,485.063 790.002,492.73 783.5,500.5C760.646,499.291 743.312,488.958 731.5,469.5C749.814,465.218 767.148,467.885 783.5,477.5Z" style="fill:rgb(181,162,84);"/>
            </g>
            <g transform="matrix(0.889266,0,0,0.889266,59.101,39.737)">
                <path d="M171.5,467.5C172.301,469.042 172.634,470.708 172.5,472.5L167.5,472.5C155.801,470.937 146.634,474.937 140,484.5C138.729,488.166 139.896,490.666 143.5,492C149.341,493.951 155.341,494.784 161.5,494.5C163.167,495.167 164.833,495.833 166.5,496.5C151.553,497.087 136.886,499.42 122.5,503.5C121.833,503.167 121.167,502.833 120.5,502.5C119.306,501.728 118.306,500.728 117.5,499.5C120.815,493.553 124.648,487.887 129,482.5C134.362,477.968 139.528,473.301 144.5,468.5C153.447,467.556 162.447,467.222 171.5,467.5Z" style="fill:rgb(136,105,54);"/>
            </g>
            <g transform="matrix(0.889266,0,0,0.889266,59.101,39.737)">
                <path d="M171.5,467.5C180.808,467.862 189.808,469.695 198.5,473C207.862,478.009 216.862,483.509 225.5,489.5C224.152,491.48 222.152,492.647 219.5,493C213.925,494.515 208.258,495.515 202.5,496C190.505,496.5 178.505,496.667 166.5,496.5C164.833,495.833 163.167,495.167 161.5,494.5C170.173,494.666 178.84,494.5 187.5,494C198.593,492.674 200.259,488.007 192.5,480C184.463,476.08 176.13,473.58 167.5,472.5L172.5,472.5C172.634,470.708 172.301,469.042 171.5,467.5Z" style="fill:rgb(150,122,65);"/>
            </g>
            <g transform="matrix(0.889266,0,0,0.889266,59.101,39.737)">
                <path d="M792.5,463.5C796.481,464.021 800.481,464.354 804.5,464.5C817.499,472.669 830.832,480.335 844.5,487.5C848.221,491.888 851.555,496.555 854.5,501.5C832.508,490.809 811.841,478.142 792.5,463.5Z" style="fill:rgb(135,105,52);"/>
            </g>
            <g transform="matrix(0.889266,0,0,0.889266,59.101,39.737)">
                <path d="M167.5,472.5C176.13,473.58 184.463,476.08 192.5,480C200.259,488.007 198.593,492.674 187.5,494C178.84,494.5 170.173,494.666 161.5,494.5C155.341,494.784 149.341,493.951 143.5,492C139.896,490.666 138.729,488.166 140,484.5C146.634,474.937 155.801,470.937 167.5,472.5Z" style="fill:rgb(237,221,159);"/>
            </g>
            <g transform="matrix(0.889266,0,0,0.889266,59.101,39.737)">
                <path d="M265.5,455.5C266.549,463.419 268.215,471.086 270.5,478.5C262.112,488.727 254.279,499.394 247,510.5C244.332,514.334 241.165,517.667 237.5,520.5C234.414,513.853 232.081,506.853 230.5,499.5C230.733,497.938 231.4,496.605 232.5,495.5C233.404,494.791 233.737,493.791 233.5,492.5C238.821,485.205 244.155,477.871 249.5,470.5C253.473,465.86 257.806,461.527 262.5,457.5C263.5,456.833 264.5,456.167 265.5,455.5Z" style="fill:rgb(229,209,129);"/>
            </g>
            <g transform="matrix(0.889266,0,0,0.889266,59.101,39.737)">
                <path d="M322.5,459.5C323.833,460.833 325.167,462.167 326.5,463.5C326.833,464.167 327.167,464.833 327.5,465.5C315.068,467.376 303.401,471.543 292.5,478C287.853,479.634 286.52,482.634 288.5,487C294.078,490.301 300.078,491.301 306.5,490C318.939,486.017 331.272,482.184 343.5,478.5C347.576,480.186 351.576,481.853 355.5,483.5C352.112,487.531 347.778,490.031 342.5,491C325.448,490.741 310.114,495.575 296.5,505.5C288.997,501.918 281.997,497.585 275.5,492.5C275.893,490.716 276.559,489.05 277.5,487.5C289.497,473.335 304.497,464.002 322.5,459.5Z" style="fill:rgb(171,144,80);"/>
            </g>
            <g transform="matrix(0.889266,0,0,0.889266,59.101,39.737)">
                <path d="M756.5,447.5C757.391,448.11 758.391,448.443 759.5,448.5C769.841,454.835 780.841,459.835 792.5,463.5C811.841,478.142 832.508,490.809 854.5,501.5C852.088,504.137 848.755,506.47 844.5,508.5C839.4,506.473 834.4,504.473 829.5,502.5C815.184,492.339 800.518,482.673 785.5,473.5C775.103,464.448 763.437,457.448 750.5,452.5C752.5,450.833 754.5,449.167 756.5,447.5Z" style="fill:rgb(179,159,81);"/>
            </g>
            <g transform="matrix(0.889266,0,0,0.889266,59.101,39.737)">
                <path d="M618.5,482.5L619.5,482.5C638.776,488.902 658.442,493.902 678.5,497.5C675.425,504.139 674.092,511.139 674.5,518.5C665.025,519.011 655.691,518.178 646.5,516C635.103,511.591 623.77,507.091 612.5,502.5C604.308,498.928 595.974,495.428 587.5,492C588.056,491.617 588.389,491.117 588.5,490.5C598.669,488.443 608.669,485.776 618.5,482.5Z" style="fill:rgb(193,174,100);"/>
            </g>
            <g transform="matrix(0.889266,0,0,0.889266,59.101,39.737)">
                <path d="M355.5,483.5C364.066,485.388 372.399,487.722 380.5,490.5C376.75,502.751 368.75,510.917 356.5,515C344.167,515.333 331.833,515.667 319.5,516C321.91,516.6 323.91,517.766 325.5,519.5C320.868,518.404 316.534,516.737 312.5,514.5C307.199,511.514 301.865,508.514 296.5,505.5C310.114,495.575 325.448,490.741 342.5,491C347.778,490.031 352.112,487.531 355.5,483.5Z" style="fill:rgb(186,167,90);"/>
            </g>
            <g transform="matrix(0.889266,0,0,0.889266,59.101,39.737)">
                <path d="M729.5,468.5C730.167,468.833 730.833,469.167 731.5,469.5C743.312,488.958 760.646,499.291 783.5,500.5L796.5,500.5C799.187,500.336 801.854,500.503 804.5,501C803.663,502.011 803.33,503.178 803.5,504.5C784.874,502.062 766.207,500.229 747.5,499C753.483,503.22 760.15,505.887 767.5,507C779.569,509.366 791.569,511.199 803.5,512.5L798.5,512.5C797.787,515.594 796.787,518.594 795.5,521.5C783.528,519.818 771.528,518.318 759.5,517C751.175,515.285 743.509,512.118 736.5,507.5C735.527,507.013 734.527,506.513 733.5,506C726.967,498.636 720.3,491.47 713.5,484.5C718.5,478.833 723.833,473.5 729.5,468.5Z" style="fill:rgb(230,211,133);"/>
            </g>
            <g transform="matrix(0.889266,0,0,0.889266,59.101,39.737)">
                <path d="M502.5,488.5C492.273,487.842 482.273,488.842 472.5,491.5C466.858,492.818 461.525,494.985 456.5,498C450.805,501.843 445.138,505.677 439.5,509.5L438.5,509.5C443.839,502.161 450.173,495.827 457.5,490.5C461.025,489.79 464.358,488.79 467.5,487.5C479.378,484.663 491.045,484.996 502.5,488.5Z" style="fill:rgb(201,180,110);"/>
            </g>
            <g transform="matrix(0.889266,0,0,0.889266,59.101,39.737)">
                <path d="M502.5,488.5C512.83,490.498 523.163,492.498 533.5,494.5C542.326,498.979 550.66,504.313 558.5,510.5C564.963,517.286 570.629,524.62 575.5,532.5L575.5,533.5C575.423,534.75 574.756,535.583 573.5,536C570.854,536.497 568.187,536.664 565.5,536.5C553.336,509.665 532.503,496.665 503,497.5C502.289,499.367 502.789,500.867 504.5,502C512.853,506.118 521.52,509.452 530.5,512C541.992,516.993 550.325,525.159 555.5,536.5C551.466,536.495 547.466,536.162 543.5,535.5C542.833,534.833 542.167,534.167 541.5,533.5C533.498,523.832 523.498,517.166 511.5,513.5C505.703,511.311 499.703,509.978 493.5,509.5C491.369,508.686 489.036,508.186 486.5,508C480.995,503.119 476.328,497.619 472.5,491.5C482.273,488.842 492.273,487.842 502.5,488.5Z" style="fill:rgb(244,231,178);"/>
            </g>
            <g transform="matrix(0.889266,0,0,0.889266,59.101,39.737)">
                <path d="M785.5,473.5C800.518,482.673 815.184,492.339 829.5,502.5C824.188,501.605 818.855,500.771 813.5,500C807.651,499.182 801.985,499.348 796.5,500.5L783.5,500.5C790.002,492.73 790.002,485.063 783.5,477.5C783.229,475.62 783.896,474.287 785.5,473.5Z" style="fill:rgb(139,109,55);"/>
            </g>
            <g transform="matrix(0.889266,0,0,0.889266,59.101,39.737)">
                <path d="M275.5,492.5C281.997,497.585 288.997,501.918 296.5,505.5C301.865,508.514 307.199,511.514 312.5,514.5C307.922,513.085 303.255,512.085 298.5,511.5C298.95,515.232 300.617,518.398 303.5,521C319.53,533.844 337.864,540.01 358.5,539.5L358.5,540.5C349.989,542.782 341.655,545.449 333.5,548.5C307.81,538.157 283.477,525.491 260.5,510.5C264.859,503.822 269.859,497.822 275.5,492.5Z" style="fill:rgb(238,222,159);"/>
            </g>
            <g transform="matrix(0.889266,0,0,0.889266,59.101,39.737)">
                <path d="M394.5,493.5C399.484,494.275 404.484,494.942 409.5,495.5C410.234,496.708 410.567,498.041 410.5,499.5C404.272,499.713 398.939,497.713 394.5,493.5Z" style="fill:rgb(254,253,249);"/>
            </g>
            <g transform="matrix(0.889266,0,0,0.889266,59.101,39.737)">
                <path d="M440.5,494.5C441.239,494.369 441.906,494.536 442.5,495C436.6,500.825 430.6,500.991 424.5,495.5C429.862,495.528 435.195,495.194 440.5,494.5Z" style="fill:rgb(249,246,242);"/>
            </g>
            <g transform="matrix(0.889266,0,0,0.889266,59.101,39.737)">
                <path d="M588.5,490.5C588.389,491.117 588.056,491.617 587.5,492C595.974,495.428 604.308,498.928 612.5,502.5C610.716,504.948 609.382,507.615 608.5,510.5C603.395,509.188 598.229,508.188 593,507.5C581.509,508.679 570.009,509.679 558.5,510.5C550.66,504.313 542.326,498.979 533.5,494.5C543.308,495.767 552.974,495.767 562.5,494.5C571.305,493.983 579.972,492.65 588.5,490.5Z" style="fill:rgb(181,155,88);"/>
            </g>
            <g transform="matrix(0.889266,0,0,0.889266,59.101,39.737)">
                <path d="M225.5,489.5C228.06,491.273 230.393,493.273 232.5,495.5C231.4,496.605 230.733,497.938 230.5,499.5C225.527,505.14 220.194,510.473 214.5,515.5C213.726,514.853 212.726,514.52 211.5,514.5C198.86,516.744 186.527,519.744 174.5,523.5C156.035,519.594 138.702,512.927 122.5,503.5C136.886,499.42 151.553,497.087 166.5,496.5C178.505,496.667 190.505,496.5 202.5,496C208.258,495.515 213.925,494.515 219.5,493C222.152,492.647 224.152,491.48 225.5,489.5Z" style="fill:rgb(183,164,86);"/>
            </g>
            <g transform="matrix(0.889266,0,0,0.889266,59.101,39.737)">
                <path d="M386.5,491.5C388.806,491.993 391.139,492.326 393.5,492.5C393.5,493.167 393.833,493.5 394.5,493.5C398.939,497.713 404.272,499.713 410.5,499.5C410.567,498.041 410.234,496.708 409.5,495.5L413.5,495.5C415.369,496.165 417.369,496.831 419.5,497.5C422.35,502.194 424.35,507.194 425.5,512.5C425.773,514.451 425.107,515.951 423.5,517C416.155,520.256 408.655,523.09 401,525.5C400.235,525.43 399.735,525.097 399.5,524.5C400.933,519.35 400.433,514.35 398,509.5C394.732,503.08 390.899,497.08 386.5,491.5Z" style="fill:rgb(242,228,172);"/>
            </g>
            <g transform="matrix(0.889266,0,0,0.889266,59.101,39.737)">
                <path d="M457.5,490.5C450.173,495.827 443.839,502.161 438.5,509.5C435.021,511.742 431.354,513.742 427.5,515.5C426.824,514.398 426.158,513.398 425.5,512.5C424.35,507.194 422.35,502.194 419.5,497.5C417.369,496.831 415.369,496.165 413.5,495.5L424.5,495.5C430.6,500.991 436.6,500.825 442.5,495C441.906,494.536 441.239,494.369 440.5,494.5C446.054,493.185 451.721,491.852 457.5,490.5Z" style="fill:rgb(190,164,95);"/>
            </g>
            <g transform="matrix(0.889266,0,0,0.889266,59.101,39.737)">
                <path d="M565.5,536.5C566.39,538.782 566.556,541.115 566,543.5C565.439,544.022 564.772,544.355 564,544.5C560.653,542.318 557.819,539.651 555.5,536.5C550.325,525.159 541.992,516.993 530.5,512C521.52,509.452 512.853,506.118 504.5,502C502.789,500.867 502.289,499.367 503,497.5C532.503,496.665 553.336,509.665 565.5,536.5Z" style="fill:rgb(254,254,252);"/>
            </g>
            <g transform="matrix(0.889266,0,0,0.889266,59.101,39.737)">
                <path d="M713.5,484.5C720.3,491.47 726.967,498.636 733.5,506C734.527,506.513 735.527,507.013 736.5,507.5C738.263,511.099 740.93,513.932 744.5,516C755.295,521.549 766.628,524.716 778.5,525.5C777.325,525.281 776.325,525.614 775.5,526.5C776.246,527.736 776.579,529.07 776.5,530.5C770.111,532.014 763.778,533.68 757.5,535.5C756.449,527.276 752.116,521.442 744.5,518C735.524,517.147 726.69,515.647 718,513.5C712.19,514.267 706.357,514.601 700.5,514.5C701.55,503.068 705.883,493.068 713.5,484.5Z" style="fill:rgb(187,168,92);"/>
            </g>
            <g transform="matrix(0.889266,0,0,0.889266,59.101,39.737)">
                <path d="M803.5,504.5C814.557,507.358 825.224,511.525 835.5,517C839.323,518.641 841.323,521.474 841.5,525.5C833.442,523.477 825.776,520.31 818.5,516C813.671,514.042 808.671,512.876 803.5,512.5C791.569,511.199 779.569,509.366 767.5,507C760.15,505.887 753.483,503.22 747.5,499C766.207,500.229 784.874,502.062 803.5,504.5Z" style="fill:rgb(253,252,248);"/>
            </g>
            <g transform="matrix(0.889266,0,0,0.889266,59.101,39.737)">
                <path d="M472.5,491.5C476.328,497.619 480.995,503.119 486.5,508C489.036,508.186 491.369,508.686 493.5,509.5L484.5,509.5C478.262,509.392 472.262,510.559 466.5,513C460.591,516.426 454.591,519.592 448.5,522.5C445.085,518.424 442.085,514.091 439.5,509.5C445.138,505.677 450.805,501.843 456.5,498C461.525,494.985 466.858,492.818 472.5,491.5Z" style="fill:rgb(240,225,166);"/>
            </g>
            <g transform="matrix(0.889266,0,0,0.889266,59.101,39.737)">
                <path d="M120.5,502.5C121.167,502.833 121.833,503.167 122.5,503.5C138.702,512.927 156.035,519.594 174.5,523.5C182.791,525.375 191.125,527.041 199.5,528.5C192.91,535.366 187.577,543.032 183.5,551.5C167.286,546.762 151.286,541.429 135.5,535.5C129.859,524.887 124.192,514.22 118.5,503.5C118.957,502.702 119.624,502.369 120.5,502.5Z" style="fill:rgb(230,211,135);"/>
            </g>
            <g transform="matrix(0.889266,0,0,0.889266,59.101,39.737)">
                <path d="M273.5,476.5C274.987,480.116 276.32,483.783 277.5,487.5C276.559,489.05 275.893,490.716 275.5,492.5C269.859,497.822 264.859,503.822 260.5,510.5C259.662,510.842 259.328,511.508 259.5,512.5C254.597,517.974 249.93,523.64 245.5,529.5C242.194,532.14 239.194,535.14 236.5,538.5C228.239,544.017 223.239,551.684 221.5,561.5C220.102,564.007 220.436,566.34 222.5,568.5C221.351,568.791 220.684,569.624 220.5,571C221.275,573.822 221.942,576.656 222.5,579.5C215.925,570.254 213.758,559.921 216,548.5C217.393,544.714 219.059,541.048 221,537.5C226.703,531.965 232.203,526.298 237.5,520.5C241.165,517.667 244.332,514.334 247,510.5C254.279,499.394 262.112,488.727 270.5,478.5C271.5,477.833 272.5,477.167 273.5,476.5Z" style="fill:rgb(178,161,83);"/>
            </g>
            <g transform="matrix(0.889266,0,0,0.889266,59.101,39.737)">
                <path d="M380.5,490.5C382.565,490.517 384.565,490.85 386.5,491.5C390.899,497.08 394.732,503.08 398,509.5C400.433,514.35 400.933,519.35 399.5,524.5C398.662,524.842 398.328,525.508 398.5,526.5C391.242,529.959 383.575,531.293 375.5,530.5C358.441,528.547 341.774,524.88 325.5,519.5C323.91,517.766 321.91,516.6 319.5,516C331.833,515.667 344.167,515.333 356.5,515C368.75,510.917 376.75,502.751 380.5,490.5Z" style="fill:rgb(179,153,86);"/>
            </g>
            <g transform="matrix(0.889266,0,0,0.889266,59.101,39.737)">
                <path d="M608.5,510.5C620.811,514.16 632.477,519.16 643.5,525.5C639.479,531.521 634.479,536.521 628.5,540.5C615.759,536.565 602.759,533.732 589.5,532C584.648,531.185 579.981,531.352 575.5,532.5C570.629,524.62 564.963,517.286 558.5,510.5C570.009,509.679 581.509,508.679 593,507.5C598.229,508.188 603.395,509.188 608.5,510.5Z" style="fill:rgb(237,221,156);"/>
            </g>
            <g transform="matrix(0.889266,0,0,0.889266,59.101,39.737)">
                <path d="M259.5,512.5C266.203,516.847 272.87,521.18 279.5,525.5C273.824,525.334 268.157,525.501 262.5,526C256.846,527.275 251.18,528.441 245.5,529.5C249.93,523.64 254.597,517.974 259.5,512.5Z" style="fill:rgb(159,131,71);"/>
            </g>
            <g transform="matrix(0.889266,0,0,0.889266,59.101,39.737)">
                <path d="M312.5,514.5C316.534,516.737 320.868,518.404 325.5,519.5C339.623,524.766 353.623,530.432 367.5,536.5C364.811,538.117 361.811,539.117 358.5,539.5C337.864,540.01 319.53,533.844 303.5,521C300.617,518.398 298.95,515.232 298.5,511.5C303.255,512.085 307.922,513.085 312.5,514.5Z" style="fill:rgb(254,254,252);"/>
            </g>
            <g transform="matrix(0.889266,0,0,0.889266,59.101,39.737)">
                <path d="M484.5,509.5L493.5,509.5C499.703,509.978 505.703,511.311 511.5,513.5C483.438,519.531 459.438,532.864 439.5,553.5C448.557,541.599 458.223,530.099 468.5,519C473.764,515.542 479.097,512.375 484.5,509.5Z" style="fill:rgb(187,162,93);"/>
            </g>
            <g transform="matrix(0.889266,0,0,0.889266,59.101,39.737)">
                <path d="M511.5,513.5C523.498,517.166 533.498,523.832 541.5,533.5C516.154,536.726 492.488,544.726 470.5,557.5C465.515,558.248 460.515,558.915 455.5,559.5C463.567,551.099 470.9,542.099 477.5,532.5C477,532.167 476.5,531.833 476,531.5C461.567,539.101 449.067,549.101 438.5,561.5C437.081,560.549 435.415,560.216 433.5,560.5C435.5,558.167 437.5,555.833 439.5,553.5C459.438,532.864 483.438,519.531 511.5,513.5Z" style="fill:rgb(240,225,165);"/>
            </g>
            <g transform="matrix(0.889266,0,0,0.889266,59.101,39.737)">
                <path d="M757.5,535.5C740.095,539.744 723.428,545.744 707.5,553.5L704.5,553.5C703.912,550.39 703.245,547.39 702.5,544.5C702.164,534.476 701.497,524.476 700.5,514.5C706.357,514.601 712.19,514.267 718,513.5C726.69,515.647 735.524,517.147 744.5,518C752.116,521.442 756.449,527.276 757.5,535.5Z" style="fill:rgb(151,122,65);"/>
            </g>
            <g transform="matrix(0.889266,0,0,0.889266,59.101,39.737)">
                <path d="M602.5,514.5C608.221,514.369 613.888,514.869 619.5,516C627.324,518.403 627.324,521.07 619.5,524C612.235,525.588 605.735,524.088 600,519.5C599.833,519 599.667,518.5 599.5,518C600.544,516.826 601.544,515.659 602.5,514.5Z" style="fill:rgb(254,253,250);"/>
            </g>
            <g transform="matrix(0.889266,0,0,0.889266,59.101,39.737)">
                <path d="M612.5,502.5C623.77,507.091 635.103,511.591 646.5,516C655.691,518.178 665.025,519.011 674.5,518.5C675.445,526.56 676.779,534.56 678.5,542.5C666.68,537.09 655.013,531.423 643.5,525.5C632.477,519.16 620.811,514.16 608.5,510.5C609.382,507.615 610.716,504.948 612.5,502.5Z" style="fill:rgb(167,140,77);"/>
            </g>
            <g transform="matrix(0.889266,0,0,0.889266,59.101,39.737)">
                <path d="M214.5,515.5C209.154,519.518 204.154,523.851 199.5,528.5C191.125,527.041 182.791,525.375 174.5,523.5C186.527,519.744 198.86,516.744 211.5,514.5C212.726,514.52 213.726,514.853 214.5,515.5Z" style="fill:rgb(148,118,62);"/>
            </g>
            <g transform="matrix(0.889266,0,0,0.889266,59.101,39.737)">
                <path d="M438.5,509.5L439.5,509.5C442.085,514.091 445.085,518.424 448.5,522.5C443.033,526.071 437.367,529.404 431.5,532.5C425.064,536.052 418.397,539.052 411.5,541.5C408.677,537.195 405.844,532.862 403,528.5C401.89,526.963 400.39,526.297 398.5,526.5C398.328,525.508 398.662,524.842 399.5,524.5C399.735,525.097 400.235,525.43 401,525.5C408.655,523.09 416.155,520.256 423.5,517C425.107,515.951 425.773,514.451 425.5,512.5C426.158,513.398 426.824,514.398 427.5,515.5C431.354,513.742 435.021,511.742 438.5,509.5Z" style="fill:rgb(237,220,154);"/>
            </g>
            <g transform="matrix(0.889266,0,0,0.889266,59.101,39.737)">
                <path d="M260.5,510.5C283.477,525.491 307.81,538.157 333.5,548.5C331.574,549.486 329.574,550.486 327.5,551.5C327.53,550.503 327.03,549.836 326,549.5C318.627,546.563 311.46,543.229 304.5,539.5C296.192,534.874 287.858,530.208 279.5,525.5C272.87,521.18 266.203,516.847 259.5,512.5C259.328,511.508 259.662,510.842 260.5,510.5Z" style="fill:rgb(207,187,110);"/>
            </g>
            <g transform="matrix(0.889266,0,0,0.889266,59.101,39.737)">
                <path d="M279.5,525.5C287.858,530.208 296.192,534.874 304.5,539.5C304.062,539.435 303.728,539.601 303.5,540C307.477,544.799 310.81,549.965 313.5,555.5C309.524,558.469 305.524,561.469 301.5,564.5C300.391,564.557 299.391,564.89 298.5,565.5C296.276,562.376 293.276,560.209 289.5,559C282.769,556.447 276.102,554.947 269.5,554.5C259.978,546.24 248.978,540.906 236.5,538.5C239.194,535.14 242.194,532.14 245.5,529.5C251.18,528.441 256.846,527.275 262.5,526C268.157,525.501 273.824,525.334 279.5,525.5Z" style="fill:rgb(190,171,96);"/>
            </g>
            <g transform="matrix(0.889266,0,0,0.889266,59.101,39.737)">
                <path d="M325.5,519.5C341.774,524.88 358.441,528.547 375.5,530.5C377.631,531.314 379.964,531.814 382.5,532C377.452,533.405 372.452,534.905 367.5,536.5C353.623,530.432 339.623,524.766 325.5,519.5Z" style="fill:rgb(240,225,167);"/>
            </g>
            <g transform="matrix(0.889266,0,0,0.889266,59.101,39.737)">
                <path d="M643.5,525.5C655.013,531.423 666.68,537.09 678.5,542.5C680.62,550.423 683.62,558.09 687.5,565.5C692.851,560.982 697.685,555.982 702,550.5C702.495,548.527 702.662,546.527 702.5,544.5C703.245,547.39 703.912,550.39 704.5,553.5C704.833,560.833 705.167,568.167 705.5,575.5C702.047,579.294 698.047,582.294 693.5,584.5C692.028,580.083 690.362,575.75 688.5,571.5C688.249,569.83 687.582,568.33 686.5,567C667.196,557.844 647.862,549.01 628.5,540.5C634.479,536.521 639.479,531.521 643.5,525.5Z" style="fill:rgb(233,215,144);"/>
            </g>
            <g transform="matrix(0.889266,0,0,0.889266,59.101,39.737)">
                <path d="M778.5,525.5C782.36,525.808 786.026,526.475 789.5,527.5C785.127,528.343 780.793,529.343 776.5,530.5C776.579,529.07 776.246,527.736 775.5,526.5C776.325,525.614 777.325,525.281 778.5,525.5Z" style="fill:rgb(143,113,58);"/>
            </g>
            <g transform="matrix(0.889266,0,0,0.889266,59.101,39.737)">
                <path d="M102.5,524.5C114.799,532.149 127.799,538.482 141.5,543.5C141.813,547.042 141.479,550.375 140.5,553.5C128.468,548.736 117.635,542.07 108,533.5C105.653,530.806 103.82,527.806 102.5,524.5Z" style="fill:rgb(177,158,80);"/>
            </g>
            <g transform="matrix(0.889266,0,0,0.889266,59.101,39.737)">
                <path d="M789.5,527.5C803.8,528.104 817.466,531.27 830.5,537C815.176,541.618 799.509,544.285 783.5,545C766.613,548.783 750.947,555.283 736.5,564.5C734.036,562.43 731.369,560.596 728.5,559C721.578,556.718 714.578,554.885 707.5,553.5C723.428,545.744 740.095,539.744 757.5,535.5C763.778,533.68 770.111,532.014 776.5,530.5C780.793,529.343 785.127,528.343 789.5,527.5Z" style="fill:rgb(223,201,111);"/>
            </g>
            <g transform="matrix(0.889266,0,0,0.889266,59.101,39.737)">
                <path d="M87.5,512.5C102.403,522.283 118.403,529.95 135.5,535.5C151.286,541.429 167.286,546.762 183.5,551.5C181.505,557.77 181.172,564.103 182.5,570.5C177.164,569.332 172.164,567.332 167.5,564.5C171.287,561.433 175.287,558.6 179.5,556C166.607,552.536 153.94,548.369 141.5,543.5C127.799,538.482 114.799,532.149 102.5,524.5C99.816,522.807 97.149,521.14 94.5,519.5C91.973,517.395 89.64,515.061 87.5,512.5Z" style="fill:rgb(192,172,93);"/>
            </g>
            <g transform="matrix(0.889266,0,0,0.889266,59.101,39.737)">
                <path d="M94.5,519.5C97.149,521.14 99.816,522.807 102.5,524.5C103.82,527.806 105.653,530.806 108,533.5C117.635,542.07 128.468,548.736 140.5,553.5C140.932,554.71 141.599,555.71 142.5,556.5C143.227,558.954 144.227,561.287 145.5,563.5C126.172,554.845 108.172,544.179 91.5,531.5C89.725,526.823 90.725,522.823 94.5,519.5Z" style="fill:rgb(129,98,50);"/>
            </g>
            <g transform="matrix(0.889266,0,0,0.889266,59.101,39.737)">
                <path d="M230.5,499.5C232.081,506.853 234.414,513.853 237.5,520.5C232.203,526.298 226.703,531.965 221,537.5C219.059,541.048 217.393,544.714 216,548.5C213.758,559.921 215.925,570.254 222.5,579.5C223.69,583.026 225.69,586.026 228.5,588.5C232.5,592.167 236.5,595.833 240.5,599.5C222.59,594.865 205.257,588.865 188.5,581.5C185.752,578.268 183.752,574.602 182.5,570.5C181.172,564.103 181.505,557.77 183.5,551.5C187.577,543.032 192.91,535.366 199.5,528.5C204.154,523.851 209.154,519.518 214.5,515.5C220.194,510.473 225.527,505.14 230.5,499.5Z" style="fill:rgb(224,202,113);"/>
            </g>
            <g transform="matrix(0.889266,0,0,0.889266,59.101,39.737)">
                <path d="M455.5,559.5C451.038,563.627 446.038,566.961 440.5,569.5C439.558,569.392 438.725,569.059 438,568.5C437.444,566.115 437.61,563.782 438.5,561.5C449.067,549.101 461.567,539.101 476,531.5C476.5,531.833 477,532.167 477.5,532.5C470.9,542.099 463.567,551.099 455.5,559.5Z" style="fill:rgb(254,253,251);"/>
            </g>
            <g transform="matrix(0.889266,0,0,0.889266,59.101,39.737)">
                <path d="M398.5,526.5C400.39,526.297 401.89,526.963 403,528.5C405.844,532.862 408.677,537.195 411.5,541.5C411.027,542.906 410.027,543.573 408.5,543.5C395.042,545.946 381.708,548.946 368.5,552.5C366.779,548.727 364.779,545.061 362.5,541.5C361.311,540.571 359.978,540.238 358.5,540.5L358.5,539.5C361.811,539.117 364.811,538.117 367.5,536.5C372.452,534.905 377.452,533.405 382.5,532C379.964,531.814 377.631,531.314 375.5,530.5C383.575,531.293 391.242,529.959 398.5,526.5Z" style="fill:rgb(233,215,142);"/>
            </g>
            <g transform="matrix(0.889266,0,0,0.889266,59.101,39.737)">
                <path d="M541.5,533.5C542.167,534.167 542.833,534.833 543.5,535.5C544.5,537.5 545.5,539.5 546.5,541.5C503.553,544.971 468.886,563.638 442.5,597.5C436.861,603.474 431.195,609.474 425.5,615.5C424.069,617.437 422.402,619.27 420.5,621C413.934,625.113 407.267,628.946 400.5,632.5C394.81,631.979 389.144,631.312 383.5,630.5C393.33,626.365 402.996,621.532 412.5,616C423.399,605.77 433.566,594.937 443,583.5C451.76,574.235 460.927,565.569 470.5,557.5C492.488,544.726 516.154,536.726 541.5,533.5Z" style="fill:rgb(209,189,112);"/>
            </g>
            <g transform="matrix(0.889266,0,0,0.889266,59.101,39.737)">
                <path d="M736.5,507.5C743.509,512.118 751.175,515.285 759.5,517C771.528,518.318 783.528,519.818 795.5,521.5C808.481,523.771 820.814,527.938 832.5,534C837.162,537.29 838.495,541.457 836.5,546.5C836.44,545.957 836.107,545.624 835.5,545.5C820.527,549.852 805.193,552.352 789.5,553C783.006,554.372 776.673,556.206 770.5,558.5C764.786,561.252 759.119,563.919 753.5,566.5C749.548,568.146 746.215,570.479 743.5,573.5C740.027,571.363 737.694,568.363 736.5,564.5C750.947,555.283 766.613,548.783 783.5,545C799.509,544.285 815.176,541.618 830.5,537C817.466,531.27 803.8,528.104 789.5,527.5C786.026,526.475 782.36,525.808 778.5,525.5C766.628,524.716 755.295,521.549 744.5,516C740.93,513.932 738.263,511.099 736.5,507.5Z" style="fill:rgb(191,171,89);"/>
            </g>
            <g transform="matrix(0.889266,0,0,0.889266,59.101,39.737)">
                <path d="M872.5,577.5C871.958,583.225 868.958,585.725 863.5,585C860.976,579.957 860.976,574.791 863.5,569.5C853.666,572.274 843.666,575.44 833.5,579C825.723,581.89 817.723,583.223 809.5,583C808.577,580.959 808.244,578.792 808.5,576.5C813.17,576.489 817.503,575.489 821.5,573.5C831.568,573.028 840.902,570.362 849.5,565.5C855.916,563.125 861.916,559.959 867.5,556C870.433,553.736 872.6,550.902 874,547.5C876.01,537.349 872.843,529.182 864.5,523C865.609,522.362 866.775,521.862 868,521.5C874.059,529.069 879.559,537.069 884.5,545.5C877.041,557.584 869.708,569.75 862.5,582C865.835,580.839 869.168,579.339 872.5,577.5Z" style="fill:rgb(187,168,86);"/>
            </g>
            <g transform="matrix(0.889266,0,0,0.889266,59.101,39.737)">
                <path d="M236.5,538.5C248.978,540.906 259.978,546.24 269.5,554.5C276.157,559.825 282.49,565.491 288.5,571.5C284.227,577.442 279.227,582.776 273.5,587.5C258.563,576.2 241.896,568.367 223.5,564C222.244,563.583 221.577,562.75 221.5,561.5C223.239,551.684 228.239,544.017 236.5,538.5Z" style="fill:rgb(234,217,146);"/>
            </g>
            <g transform="matrix(0.889266,0,0,0.889266,59.101,39.737)">
                <path d="M304.5,539.5C311.46,543.229 318.627,546.563 326,549.5C327.03,549.836 327.53,550.503 327.5,551.5C324.341,552.331 321.341,553.331 318.5,554.5C316.784,554.629 315.117,554.962 313.5,555.5C310.81,549.965 307.477,544.799 303.5,540C303.728,539.601 304.062,539.435 304.5,539.5Z" style="fill:rgb(166,138,76);"/>
            </g>
            <g transform="matrix(0.889266,0,0,0.889266,59.101,39.737)">
                <path d="M141.5,543.5C153.94,548.369 166.607,552.536 179.5,556C175.287,558.6 171.287,561.433 167.5,564.5C172.164,567.332 177.164,569.332 182.5,570.5C183.752,574.602 185.752,578.268 188.5,581.5C178.016,577.894 167.683,573.894 157.5,569.5C157.47,568.503 157.97,567.836 159,567.5C161.245,566.863 163.412,566.03 165.5,565C158.952,561.814 152.285,558.814 145.5,556C144.251,555.26 143.251,555.427 142.5,556.5C141.599,555.71 140.932,554.71 140.5,553.5C141.479,550.375 141.813,547.042 141.5,543.5Z" style="fill:rgb(136,106,54);"/>
            </g>
            <g transform="matrix(0.889266,0,0,0.889266,59.101,39.737)">
                <path d="M358.5,540.5C359.978,540.238 361.311,540.571 362.5,541.5C364.779,545.061 366.779,548.727 368.5,552.5C365.198,552.912 362.531,554.245 360.5,556.5C356.466,556.517 352.799,557.517 349.5,559.5C342.281,561.895 335.614,565.229 329.5,569.5L328.5,569.5C327.32,566.46 325.653,563.794 323.5,561.5C325.85,559.787 326.85,557.453 326.5,554.5L318.5,554.5C321.341,553.331 324.341,552.331 327.5,551.5C329.574,550.486 331.574,549.486 333.5,548.5C341.655,545.449 349.989,542.782 358.5,540.5Z" style="fill:rgb(228,209,129);"/>
            </g>
            <g transform="matrix(0.889266,0,0,0.889266,59.101,39.737)">
                <path d="M578.5,538.5C599.379,537.772 619.379,541.439 638.5,549.5C631.442,556.554 624.775,563.888 618.5,571.5C611.993,567.739 605.993,563.239 600.5,558C595.234,554.697 589.567,552.53 583.5,551.5C582.03,547.088 580.363,542.755 578.5,538.5Z" style="fill:rgb(168,141,78);"/>
            </g>
            <g transform="matrix(0.889266,0,0,0.889266,59.101,39.737)">
                <path d="M484.5,509.5C479.097,512.375 473.764,515.542 468.5,519C458.223,530.099 448.557,541.599 439.5,553.5C437.5,555.833 435.5,558.167 433.5,560.5C430.194,564.473 426.527,568.14 422.5,571.5C422.103,570.475 421.437,570.308 420.5,571C409.283,581.41 395.95,586.744 380.5,587C363.138,587.86 345.804,587.526 328.5,586C322.698,585.427 317.698,583.26 313.5,579.5C317.947,575.436 322.947,572.102 328.5,569.5L329.5,569.5C335.917,572.099 342.584,572.933 349.5,572C361.604,570.455 373.27,567.622 384.5,563.5C390.932,563.038 397.266,561.538 403.5,559C414.367,551.629 423.7,542.796 431.5,532.5C437.367,529.404 443.033,526.071 448.5,522.5C454.591,519.592 460.591,516.426 466.5,513C472.262,510.559 478.262,509.392 484.5,509.5Z" style="fill:rgb(195,176,103);"/>
            </g>
            <g transform="matrix(0.889266,0,0,0.889266,59.101,39.737)">
                <path d="M914.5,545.5C921.348,550.171 928.348,554.671 935.5,559C936.252,559.671 936.586,560.504 936.5,561.5C930.698,565.572 924.698,569.406 918.5,573C873.383,595.65 826.05,611.817 776.5,621.5L776.5,619.5C785.232,617.65 793.899,615.484 802.5,613C799.517,611.365 796.851,609.532 794.5,607.5C795.239,607.631 795.906,607.464 796.5,607C794.14,605.82 791.807,604.653 789.5,603.5C793.555,594.389 797.888,585.389 802.5,576.5L808.5,576.5C808.244,578.792 808.577,580.959 809.5,583C817.723,583.223 825.723,581.89 833.5,579C843.666,575.44 853.666,572.274 863.5,569.5C860.976,574.791 860.976,579.957 863.5,585C868.958,585.725 871.958,583.225 872.5,577.5C873.391,576.89 874.391,576.557 875.5,576.5C873.795,581.555 871.129,586.555 867.5,591.5C877.415,587.575 887.415,583.075 897.5,578C905.704,568.424 911.37,557.591 914.5,545.5Z" style="fill:rgb(127,95,47);"/>
            </g>
            <g transform="matrix(0.889266,0,0,0.889266,59.101,39.737)">
                <path d="M628.5,540.5C647.862,549.01 667.196,557.844 686.5,567C687.582,568.33 688.249,569.83 688.5,571.5C685.167,570.167 681.833,568.833 678.5,567.5C665.698,560.435 652.365,554.435 638.5,549.5C619.379,541.439 599.379,537.772 578.5,538.5C577.737,536.632 576.737,534.965 575.5,533.5L575.5,532.5C579.981,531.352 584.648,531.185 589.5,532C602.759,533.732 615.759,536.565 628.5,540.5Z" style="fill:rgb(204,184,106);"/>
            </g>
            <g transform="matrix(0.889266,0,0,0.889266,59.101,39.737)">
                <path d="M241.5,549.5C246.818,549.913 251.818,551.413 256.5,554C263.061,557.44 269.061,561.606 274.5,566.5C264.081,567.978 254.414,565.811 245.5,560C241.766,557.197 240.433,553.697 241.5,549.5Z" style="fill:rgb(254,253,250);"/>
            </g>
            <g transform="matrix(0.889266,0,0,0.889266,59.101,39.737)">
                <path d="M408.5,543.5C399.126,553.448 387.459,558.115 373.5,557.5C369.149,557.291 364.815,556.957 360.5,556.5C362.531,554.245 365.198,552.912 368.5,552.5C381.708,548.946 395.042,545.946 408.5,543.5Z" style="fill:rgb(238,222,159);"/>
            </g>
            <g transform="matrix(0.889266,0,0,0.889266,59.101,39.737)">
                <path d="M836.5,546.5C833.088,552.247 828.422,556.581 822.5,559.5C817.116,560.023 812.782,562.357 809.5,566.5C803.277,567.062 800.943,570.396 802.5,576.5C797.888,585.389 793.555,594.389 789.5,603.5C786.46,602.32 783.794,600.653 781.5,598.5C778.045,589.637 774.879,580.637 772,571.5C770.925,567.23 770.425,562.897 770.5,558.5C776.673,556.206 783.006,554.372 789.5,553C805.193,552.352 820.527,549.852 835.5,545.5C836.107,545.624 836.44,545.957 836.5,546.5Z" style="fill:rgb(134,103,52);"/>
            </g>
            <g transform="matrix(0.889266,0,0,0.889266,59.101,39.737)">
                <path d="M550.5,553.5C552.023,560.611 552.69,567.944 552.5,575.5C552.5,576.167 552.167,576.5 551.5,576.5L551.5,572.5C542.085,575.203 533.085,579.037 524.5,584C510.564,594.137 495.564,602.47 479.5,609C461.687,612.643 443.687,614.81 425.5,615.5C431.195,609.474 436.861,603.474 442.5,597.5C457.898,599.99 471.898,596.823 484.5,588C502.405,568.879 524.405,557.379 550.5,553.5Z" style="fill:rgb(194,175,101);"/>
            </g>
            <g transform="matrix(0.889266,0,0,0.889266,59.101,39.737)">
                <path d="M269.5,554.5C276.102,554.947 282.769,556.447 289.5,559C293.276,560.209 296.276,562.376 298.5,565.5C295.426,568.033 292.093,570.033 288.5,571.5C282.49,565.491 276.157,559.825 269.5,554.5Z" style="fill:rgb(159,131,71);"/>
            </g>
            <g transform="matrix(0.889266,0,0,0.889266,59.101,39.737)">
                <path d="M318.5,554.5L326.5,554.5C326.85,557.453 325.85,559.787 323.5,561.5C314.013,570.652 303.013,577.319 290.5,581.5C290.491,579.692 290.991,578.025 292,576.5C295.381,572.625 298.547,568.625 301.5,564.5C305.524,561.469 309.524,558.469 313.5,555.5C315.117,554.962 316.784,554.629 318.5,554.5Z" style="fill:rgb(254,253,251);"/>
            </g>
            <g transform="matrix(0.889266,0,0,0.889266,59.101,39.737)">
                <path d="M575.5,533.5C576.737,534.965 577.737,536.632 578.5,538.5C580.363,542.755 582.03,547.088 583.5,551.5C585.268,557.343 586.268,563.343 586.5,569.5L586.5,573.5C575.236,575.133 563.903,575.8 552.5,575.5C552.69,567.944 552.023,560.611 550.5,553.5C549.768,549.303 548.434,545.303 546.5,541.5C545.5,539.5 544.5,537.5 543.5,535.5C547.466,536.162 551.466,536.495 555.5,536.5C557.819,539.651 560.653,542.318 564,544.5C564.772,544.355 565.439,544.022 566,543.5C566.556,541.115 566.39,538.782 565.5,536.5C568.187,536.664 570.854,536.497 573.5,536C574.756,535.583 575.423,534.75 575.5,533.5Z" style="fill:rgb(240,225,166);"/>
            </g>
            <g transform="matrix(0.889266,0,0,0.889266,59.101,39.737)">
                <path d="M638.5,549.5C652.365,554.435 665.698,560.435 678.5,567.5C669.172,573.826 659.838,580.159 650.5,586.5C639.252,582.645 628.586,577.645 618.5,571.5C624.775,563.888 631.442,556.554 638.5,549.5Z" style="fill:rgb(161,133,72);"/>
            </g>
            <g transform="matrix(0.889266,0,0,0.889266,59.101,39.737)">
                <path d="M431.5,532.5C423.7,542.796 414.367,551.629 403.5,559C397.266,561.538 390.932,563.038 384.5,563.5C379.156,563.666 373.823,563.499 368.5,563C362.239,561.351 355.906,560.184 349.5,559.5C352.799,557.517 356.466,556.517 360.5,556.5C364.815,556.957 369.149,557.291 373.5,557.5C387.459,558.115 399.126,553.448 408.5,543.5C410.027,543.573 411.027,542.906 411.5,541.5C418.397,539.052 425.064,536.052 431.5,532.5Z" style="fill:rgb(209,189,112);"/>
            </g>
            <g transform="matrix(0.889266,0,0,0.889266,59.101,39.737)">
                <path d="M704.5,553.5L707.5,553.5C714.578,554.885 721.578,556.718 728.5,559C731.369,560.596 734.036,562.43 736.5,564.5C737.694,568.363 740.027,571.363 743.5,573.5C744.833,575.5 746.5,577.167 748.5,578.5C745.165,582.675 741.998,587.008 739,591.5C738.329,592.252 737.496,592.586 736.5,592.5C727.326,586.745 717.66,581.745 707.5,577.5C706.516,580.428 706.183,583.428 706.5,586.5C705.518,583.038 705.185,579.371 705.5,575.5C705.167,568.167 704.833,560.833 704.5,553.5Z" style="fill:rgb(229,209,128);"/>
            </g>
            <g transform="matrix(0.889266,0,0,0.889266,59.101,39.737)">
                <path d="M157.5,569.5C153.435,567.467 149.435,565.467 145.5,563.5C144.227,561.287 143.227,558.954 142.5,556.5C143.251,555.427 144.251,555.26 145.5,556C152.285,558.814 158.952,561.814 165.5,565C163.412,566.03 161.245,566.863 159,567.5C157.97,567.836 157.47,568.503 157.5,569.5Z" style="fill:rgb(178,159,82);"/>
            </g>
            <g transform="matrix(0.889266,0,0,0.889266,59.101,39.737)">
                <path d="M349.5,559.5C355.906,560.184 362.239,561.351 368.5,563C373.823,563.499 379.156,563.666 384.5,563.5C373.27,567.622 361.604,570.455 349.5,572C342.584,572.933 335.917,572.099 329.5,569.5C335.614,565.229 342.281,561.895 349.5,559.5Z" style="fill:rgb(168,141,78);"/>
            </g>
            <g transform="matrix(0.889266,0,0,0.889266,59.101,39.737)">
                <path d="M770.5,558.5C770.425,562.897 770.925,567.23 772,571.5C774.879,580.637 778.045,589.637 781.5,598.5C771.049,594.022 761.382,588.355 752.5,581.5C753.487,576.695 753.821,571.695 753.5,566.5C759.119,563.919 764.786,561.252 770.5,558.5Z" style="fill:rgb(179,160,81);"/>
            </g>
            <g transform="matrix(0.889266,0,0,0.889266,59.101,39.737)">
                <path d="M822.5,559.5C828.869,560.005 835.202,560.838 841.5,562C844.666,562.322 847.333,563.489 849.5,565.5C840.902,570.362 831.568,573.028 821.5,573.5C817.033,573.867 812.7,573.367 808.5,572C807.243,569.924 807.576,568.09 809.5,566.5C812.782,562.357 817.116,560.023 822.5,559.5Z" style="fill:rgb(253,252,249);"/>
            </g>
            <g transform="matrix(0.889266,0,0,0.889266,59.101,39.737)">
                <path d="M221.5,561.5C221.577,562.75 222.244,563.583 223.5,564C241.896,568.367 258.563,576.2 273.5,587.5C273.167,588.167 272.833,588.833 272.5,589.5C257.233,579.404 240.566,572.404 222.5,568.5C220.436,566.34 220.102,564.007 221.5,561.5Z" style="fill:rgb(200,180,101);"/>
            </g>
            <g transform="matrix(0.889266,0,0,0.889266,59.101,39.737)">
                <path d="M753.5,566.5C753.821,571.695 753.487,576.695 752.5,581.5C751.167,580.5 749.833,579.5 748.5,578.5C746.5,577.167 744.833,575.5 743.5,573.5C746.215,570.479 749.548,568.146 753.5,566.5Z" style="fill:rgb(143,114,59);"/>
            </g>
            <g transform="matrix(0.889266,0,0,0.889266,59.101,39.737)">
                <path d="M809.5,566.5C807.576,568.09 807.243,569.924 808.5,572C812.7,573.367 817.033,573.867 821.5,573.5C817.503,575.489 813.17,576.489 808.5,576.5L802.5,576.5C800.943,570.396 803.277,567.062 809.5,566.5Z" style="fill:rgb(222,200,113);"/>
            </g>
            <g transform="matrix(0.889266,0,0,0.889266,59.101,39.737)">
                <path d="M678.5,567.5C681.833,568.833 685.167,570.167 688.5,571.5C690.362,575.75 692.028,580.083 693.5,584.5C693.833,585.833 694.167,587.167 694.5,588.5C688.282,591.183 681.782,592.516 675,592.5C665.479,592.116 655.979,591.449 646.5,590.5C648.188,589.479 649.521,588.145 650.5,586.5C659.838,580.159 669.172,573.826 678.5,567.5Z" style="fill:rgb(223,201,114);"/>
            </g>
            <g transform="matrix(0.889266,0,0,0.889266,59.101,39.737)">
                <path d="M907.5,515.5C909.136,516.749 910.303,518.416 911,520.5C914.108,528.524 915.275,536.857 914.5,545.5C911.37,557.591 905.704,568.424 897.5,578C887.415,583.075 877.415,587.575 867.5,591.5C871.129,586.555 873.795,581.555 875.5,576.5C880.826,573.416 886.326,570.416 892,567.5C892.202,569.256 892.702,570.922 893.5,572.5C897.424,569.621 901.257,566.621 905,563.5C905.333,556.833 905.667,550.167 906,543.5C909.872,534.298 910.372,524.965 907.5,515.5Z" style="fill:rgb(170,152,69);"/>
            </g>
            <g transform="matrix(0.889266,0,0,0.889266,59.101,39.737)">
                <path d="M323.5,561.5C325.653,563.794 327.32,566.46 328.5,569.5C322.947,572.102 317.947,575.436 313.5,579.5C310.19,581.482 307.19,583.815 304.5,586.5C299.149,590.851 294.483,595.851 290.5,601.5C292.19,603.519 293.856,605.519 295.5,607.5C293.264,606.611 291.264,605.278 289.5,603.5C287.169,606.158 284.836,608.824 282.5,611.5C275.266,609.945 268.266,607.945 261.5,605.5C262.82,603.537 264.154,601.537 265.5,599.5C267.833,596.167 270.167,592.833 272.5,589.5C272.833,588.833 273.167,588.167 273.5,587.5C279.227,582.776 284.227,577.442 288.5,571.5C292.093,570.033 295.426,568.033 298.5,565.5C299.391,564.89 300.391,564.557 301.5,564.5C298.547,568.625 295.381,572.625 292,576.5C290.991,578.025 290.491,579.692 290.5,581.5C303.013,577.319 314.013,570.652 323.5,561.5Z" style="fill:rgb(224,202,114);"/>
            </g>
            <g transform="matrix(0.889266,0,0,0.889266,59.101,39.737)">
                <path d="M222.5,568.5C240.566,572.404 257.233,579.404 272.5,589.5C270.167,592.833 267.833,596.167 265.5,599.5C253.113,596.038 240.78,592.371 228.5,588.5C225.69,586.026 223.69,583.026 222.5,579.5C221.942,576.656 221.275,573.822 220.5,571C220.684,569.624 221.351,568.791 222.5,568.5Z" style="fill:rgb(149,119,63);"/>
            </g>
            <g transform="matrix(0.889266,0,0,0.889266,59.101,39.737)">
                <path d="M546.5,541.5C548.434,545.303 549.768,549.303 550.5,553.5C524.405,557.379 502.405,568.879 484.5,588C471.898,596.823 457.898,599.99 442.5,597.5C468.886,563.638 503.553,544.971 546.5,541.5Z" style="fill:rgb(175,149,83);"/>
            </g>
            <g transform="matrix(0.889266,0,0,0.889266,59.101,39.737)">
                <path d="M736.5,592.5C739.167,595.167 741.833,597.833 744.5,600.5C736.836,595.666 728.836,591.333 720.5,587.5C716.386,589.057 712.386,590.89 708.5,593C707.62,594.356 707.286,595.856 707.5,597.5C706.518,594.038 706.185,590.371 706.5,586.5C706.183,583.428 706.516,580.428 707.5,577.5C717.66,581.745 727.326,586.745 736.5,592.5Z" style="fill:rgb(195,175,95);"/>
            </g>
            <g transform="matrix(0.889266,0,0,0.889266,59.101,39.737)">
                <path d="M422.5,571.5C412.395,582.277 401.395,591.944 389.5,600.5C375.362,603.368 361.362,606.868 347.5,611C344.854,611.497 342.187,611.664 339.5,611.5C332.949,609.466 326.949,606.299 321.5,602C315.638,596.967 309.971,591.801 304.5,586.5C307.19,583.815 310.19,581.482 313.5,579.5C317.698,583.26 322.698,585.427 328.5,586C345.804,587.526 363.138,587.86 380.5,587C395.95,586.744 409.283,581.41 420.5,571C421.437,570.308 422.103,570.475 422.5,571.5Z" style="fill:rgb(163,135,74);"/>
            </g>
            <g transform="matrix(0.889266,0,0,0.889266,59.101,39.737)">
                <path d="M228.5,588.5C240.78,592.371 253.113,596.038 265.5,599.5C264.154,601.537 262.82,603.537 261.5,605.5C254.172,604.255 247.172,602.255 240.5,599.5C236.5,595.833 232.5,592.167 228.5,588.5Z" style="fill:rgb(184,165,90);"/>
            </g>
            <g transform="matrix(0.889266,0,0,0.889266,59.101,39.737)">
                <path d="M470.5,557.5C460.927,565.569 451.76,574.235 443,583.5C433.566,594.937 423.399,605.77 412.5,616C402.996,621.532 393.33,626.365 383.5,630.5C357.755,627.323 332.421,622.656 307.5,616.5C303.866,613.016 299.866,610.016 295.5,607.5C293.856,605.519 292.19,603.519 290.5,601.5C294.483,595.851 299.149,590.851 304.5,586.5C309.971,591.801 315.638,596.967 321.5,602C326.949,606.299 332.949,609.466 339.5,611.5C358.257,617.646 374.923,613.979 389.5,600.5C401.395,591.944 412.395,582.277 422.5,571.5C426.527,568.14 430.194,564.473 433.5,560.5C435.415,560.216 437.081,560.549 438.5,561.5C437.61,563.782 437.444,566.115 438,568.5C438.725,569.059 439.558,569.392 440.5,569.5C446.038,566.961 451.038,563.627 455.5,559.5C460.515,558.915 465.515,558.248 470.5,557.5Z" style="fill:rgb(236,219,152);"/>
            </g>
            <g transform="matrix(0.889266,0,0,0.889266,59.101,39.737)">
                <path d="M627.5,597.5C632.104,601.041 634.271,605.708 634,611.5C631.11,614.271 627.61,615.604 623.5,615.5C609.99,616.801 600.157,611.468 594,599.5C593.333,597.5 593.333,595.5 594,593.5C595.4,592.884 596.9,592.551 598.5,592.5C608.204,594.076 617.871,595.743 627.5,597.5Z" style="fill:rgb(237,221,159);"/>
            </g>
            <g transform="matrix(0.889266,0,0,0.889266,59.101,39.737)">
                <path d="M748.5,578.5C749.833,579.5 751.167,580.5 752.5,581.5C761.382,588.355 771.049,594.022 781.5,598.5C783.794,600.653 786.46,602.32 789.5,603.5C791.807,604.653 794.14,605.82 796.5,607C795.906,607.464 795.239,607.631 794.5,607.5C781.018,611.248 767.351,614.248 753.5,616.5C752.277,610.251 749.277,604.917 744.5,600.5C741.833,597.833 739.167,595.167 736.5,592.5C737.496,592.586 738.329,592.252 739,591.5C741.998,587.008 745.165,582.675 748.5,578.5Z" style="fill:rgb(225,203,117);"/>
            </g>
            <g transform="matrix(0.889266,0,0,0.889266,59.101,39.737)">
                <path d="M586.5,569.5C587.434,570.568 587.768,571.901 587.5,573.5C587.5,587.51 587.166,601.51 586.5,615.5C572.952,617.31 559.286,617.977 545.5,617.5C547.76,603.866 549.76,590.199 551.5,576.5C552.167,576.5 552.5,576.167 552.5,575.5C563.903,575.8 575.236,575.133 586.5,573.5L586.5,569.5Z" style="fill:rgb(236,219,153);"/>
            </g>
            <g transform="matrix(0.889266,0,0,0.889266,59.101,39.737)">
                <path d="M583.5,551.5C589.567,552.53 595.234,554.697 600.5,558C605.993,563.239 611.993,567.739 618.5,571.5C628.586,577.645 639.252,582.645 650.5,586.5C649.521,588.145 648.188,589.479 646.5,590.5C655.979,591.449 665.479,592.116 675,592.5C681.782,592.516 688.282,591.183 694.5,588.5C696.398,601.818 692.398,612.818 682.5,621.5C665.82,610.823 648.487,601.156 630.5,592.5C616.488,585.601 602.155,579.267 587.5,573.5C587.768,571.901 587.434,570.568 586.5,569.5C586.268,563.343 585.268,557.343 583.5,551.5Z" style="fill:rgb(187,168,92);"/>
            </g>
            <g transform="matrix(0.889266,0,0,0.889266,59.101,39.737)">
                <path d="M389.5,600.5C374.923,613.979 358.257,617.646 339.5,611.5C342.187,611.664 344.854,611.497 347.5,611C361.362,606.868 375.362,603.368 389.5,600.5Z" style="fill:rgb(191,171,97);"/>
            </g>
            <g transform="matrix(0.889266,0,0,0.889266,59.101,39.737)">
                <path d="M744.5,600.5C749.277,604.917 752.277,610.251 753.5,616.5C754.209,617.404 755.209,617.737 756.5,617.5C756.37,620.237 757.536,622.237 760,623.5C765.456,621.927 770.956,620.594 776.5,619.5L776.5,621.5C748.209,627.659 719.543,632.326 690.5,635.5C693.45,633.885 696.116,631.885 698.5,629.5C704.687,631.348 711.02,631.848 717.5,631C724.351,625.465 727.517,618.298 727,609.5C721.462,604.147 714.962,600.481 707.5,598.5L707.5,597.5C707.286,595.856 707.62,594.356 708.5,593C712.386,590.89 716.386,589.057 720.5,587.5C728.836,591.333 736.836,595.666 744.5,600.5Z" style="fill:rgb(141,111,57);"/>
            </g>
            <g transform="matrix(0.889266,0,0,0.889266,59.101,39.737)">
                <path d="M705.5,575.5C705.185,579.371 705.518,583.038 706.5,586.5C706.185,590.371 706.518,594.038 707.5,597.5L707.5,598.5C709.505,610.466 706.505,620.799 698.5,629.5C696.116,631.885 693.45,633.885 690.5,635.5C675.585,637.545 660.585,638.878 645.5,639.5C645.918,638.778 646.584,638.278 647.5,638C645.527,637.505 643.527,637.338 641.5,637.5C656.642,636.116 670.309,630.783 682.5,621.5C692.398,612.818 696.398,601.818 694.5,588.5C694.167,587.167 693.833,585.833 693.5,584.5C698.047,582.294 702.047,579.294 705.5,575.5Z" style="fill:rgb(230,211,135);"/>
            </g>
            <g transform="matrix(0.889266,0,0,0.889266,59.101,39.737)">
                <path d="M295.5,607.5C299.866,610.016 303.866,613.016 307.5,616.5C299.13,615.044 290.796,613.377 282.5,611.5C284.836,608.824 287.169,606.158 289.5,603.5C291.264,605.278 293.264,606.611 295.5,607.5Z" style="fill:rgb(186,165,94);"/>
            </g>
            <g transform="matrix(0.889266,0,0,0.889266,59.101,39.737)">
                <path d="M630.5,592.5C648.487,601.156 665.82,610.823 682.5,621.5C670.309,630.783 656.642,636.116 641.5,637.5C631.828,637.666 622.161,637.5 612.5,637C607.268,636.273 602.268,635.107 597.5,633.5C606.515,627.993 615.182,621.993 623.5,615.5C627.61,615.604 631.11,614.271 634,611.5C634.271,605.708 632.104,601.041 627.5,597.5C626.953,595.288 627.953,593.621 630.5,592.5Z" style="fill:rgb(152,124,66);"/>
            </g>
            <g transform="matrix(0.889266,0,0,0.889266,59.101,39.737)">
                <path d="M707.5,598.5C714.962,600.481 721.462,604.147 727,609.5C727.517,618.298 724.351,625.465 717.5,631C711.02,631.848 704.687,631.348 698.5,629.5C706.505,620.799 709.505,610.466 707.5,598.5Z" style="fill:rgb(181,161,84);"/>
            </g>
            <g transform="matrix(0.889266,0,0,0.889266,59.101,39.737)">
                <path d="M794.5,607.5C796.851,609.532 799.517,611.365 802.5,613C793.899,615.484 785.232,617.65 776.5,619.5C770.956,620.594 765.456,621.927 760,623.5C757.536,622.237 756.37,620.237 756.5,617.5C755.209,617.737 754.209,617.404 753.5,616.5C767.351,614.248 781.018,611.248 794.5,607.5Z" style="fill:rgb(190,170,89);"/>
            </g>
            <g transform="matrix(0.889266,0,0,0.889266,59.101,39.737)">
                <path d="M551.5,576.5C549.76,590.199 547.76,603.866 545.5,617.5C544.185,625.038 544.185,632.705 545.5,640.5C537.193,641.498 528.86,641.831 520.5,641.5C480.335,640.534 440.335,637.534 400.5,632.5C407.267,628.946 413.934,625.113 420.5,621C422.402,619.27 424.069,617.437 425.5,615.5C443.687,614.81 461.687,612.643 479.5,609C495.564,602.47 510.564,594.137 524.5,584C533.085,579.037 542.085,575.203 551.5,572.5L551.5,576.5Z" style="fill:rgb(165,137,76);"/>
            </g>
            <g transform="matrix(0.889266,0,0,0.889266,59.101,39.737)">
                <path d="M539.5,585.5L544.5,585.5C544.579,588.271 544.079,590.937 543,593.5C539.922,599.991 536.588,606.325 533,612.5C527.742,617.588 521.409,619.921 514,619.5C506.272,620.072 499.606,617.738 494,612.5C493.333,611.167 493.333,609.833 494,608.5C496.205,605.96 498.705,603.793 501.5,602C514.226,596.379 526.893,590.879 539.5,585.5Z" style="fill:rgb(237,221,159);"/>
            </g>
            <g transform="matrix(0.889266,0,0,0.889266,59.101,39.737)">
                <path d="M587.5,573.5C602.155,579.267 616.488,585.601 630.5,592.5C627.953,593.621 626.953,595.288 627.5,597.5C617.871,595.743 608.204,594.076 598.5,592.5C596.9,592.551 595.4,592.884 594,593.5C593.333,595.5 593.333,597.5 594,599.5C600.157,611.468 609.99,616.801 623.5,615.5C615.182,621.993 606.515,627.993 597.5,633.5C588.318,631.015 584.651,625.015 586.5,615.5C587.166,601.51 587.5,587.51 587.5,573.5Z" style="fill:rgb(161,133,73);"/>
            </g>
            <g transform="matrix(0.889266,0,0,0.889266,59.101,39.737)">
                <path d="M586.5,615.5C584.651,625.015 588.318,631.015 597.5,633.5C602.268,635.107 607.268,636.273 612.5,637C622.161,637.5 631.828,637.666 641.5,637.5C643.527,637.338 645.527,637.505 647.5,638C646.584,638.278 645.918,638.778 645.5,639.5C603.714,642.433 562.047,643.099 520.5,641.5C528.86,641.831 537.193,641.498 545.5,640.5C544.185,632.705 544.185,625.038 545.5,617.5C559.286,617.977 572.952,617.31 586.5,615.5Z" style="fill:rgb(233,215,145);"/>
            </g>
        </g>
    </g>
</svg>
