<?xml version="1.0" encoding="UTF-8"?>
<!DOCTYPE svg PUBLIC "-//W3C//DTD SVG 1.1//EN" "http://www.w3.org/Graphics/SVG/1.1/DTD/svg11.dtd">
<svg xmlns="http://www.w3.org/2000/svg" version="1.1" width="1024px" height="1195px" style="shape-rendering:geometricPrecision; text-rendering:geometricPrecision; image-rendering:optimizeQuality; fill-rule:evenodd; clip-rule:evenodd" xmlns:xlink="http://www.w3.org/1999/xlink">
<g><path style="opacity:0.998" fill="#993a11" d="M 533.5,265.5 C 533.5,267.167 533.5,268.833 533.5,270.5C 538.363,270.181 543.03,270.514 547.5,271.5C 538.161,271.334 528.827,271.5 519.5,272C 516.833,273 514.167,274 511.5,275C 503.333,281.833 495.833,289.333 489,297.5C 487.462,302.12 488.962,305.287 493.5,307C 500.671,308.39 507.671,310.39 514.5,313C 520.157,313.499 525.824,313.666 531.5,313.5C 531.386,325.351 530.719,337.018 529.5,348.5C 522.497,344.331 515.164,340.831 507.5,338C 493.503,337.411 481.67,342.245 472,352.5C 471.105,355.466 471.605,358.133 473.5,360.5C 491.617,371.755 510.283,373.088 529.5,364.5C 528.891,378.837 528.224,393.17 527.5,407.5C 517.694,407.157 508.86,409.824 501,415.5C 495.813,422.335 494.146,430.002 496,438.5C 498.007,442.593 501.173,445.427 505.5,447C 511.825,447.5 518.158,447.666 524.5,447.5C 525.78,454.704 525.78,462.038 524.5,469.5C 507.88,467.91 491.213,467.243 474.5,467.5C 460.78,467.837 447.113,468.837 433.5,470.5C 434.568,469.566 435.901,469.232 437.5,469.5C 437.5,467.5 437.5,465.5 437.5,463.5C 432.195,464.442 426.861,464.609 421.5,464C 417.013,462.7 415.013,459.7 415.5,455C 415.524,449.615 417.857,445.615 422.5,443C 427.823,442.501 433.156,442.334 438.5,442.5C 439.298,423.462 440.298,404.462 441.5,385.5C 454.441,393.069 465.941,391.069 476,379.5C 480.04,373.074 478.206,369.241 470.5,368C 457.271,365.334 447.605,369.834 441.5,381.5C 441.326,374.465 441.659,367.465 442.5,360.5C 457.925,351.595 473.258,342.428 488.5,333C 489.89,330.006 488.89,328.006 485.5,327C 472.021,323.406 458.355,322.573 444.5,324.5C 443.853,323.726 443.52,322.726 443.5,321.5C 444.196,311.495 444.862,301.495 445.5,291.5C 451.088,287.181 452.921,281.514 451,274.5C 448.708,270.212 445.208,267.378 440.5,266C 418.517,260.029 396.183,258.196 373.5,260.5C 371.656,258.721 370.99,256.388 371.5,253.5C 385.801,252.384 400.134,252.218 414.5,253C 441.869,256.74 469.202,260.74 496.5,265C 508.829,265.5 521.162,265.667 533.5,265.5 Z"/></g>
<g><path style="opacity:1" fill="#b94a1b" d="M 445.5,291.5 C 435.093,296.578 424.093,299.745 412.5,301C 398.161,301.476 383.827,301.309 369.5,300.5C 347.955,299.03 326.288,299.364 304.5,301.5C 304.491,299.692 304.991,298.025 306,296.5C 320.899,284.962 336.733,274.795 353.5,266C 360.164,263.66 366.83,261.827 373.5,260.5C 396.183,258.196 418.517,260.029 440.5,266C 445.208,267.378 448.708,270.212 451,274.5C 452.921,281.514 451.088,287.181 445.5,291.5 Z"/></g>
<g><path style="opacity:0.998" fill="#a53e12" d="M 371.5,253.5 C 370.99,256.388 371.656,258.721 373.5,260.5C 366.83,261.827 360.164,263.66 353.5,266C 336.733,274.795 320.899,284.962 306,296.5C 304.991,298.025 304.491,299.692 304.5,301.5C 326.288,299.364 347.955,299.03 369.5,300.5C 369.683,307.868 369.35,315.201 368.5,322.5C 335.66,330.686 335.326,340.019 367.5,350.5C 367.451,357.849 367.118,365.183 366.5,372.5C 361.133,372.012 355.799,371.346 350.5,370.5C 341.503,371.807 335.503,376.641 332.5,385C 332.632,387.799 333.965,389.799 336.5,391C 345.571,396.349 355.238,397.849 365.5,395.5C 364.645,419.174 363.645,442.841 362.5,466.5C 354.569,463.94 348.069,459.274 343,452.5C 339.775,439.99 335.275,427.99 329.5,416.5C 323.447,406.121 314.447,399.621 302.5,397C 297.404,395.64 292.404,394.474 287.5,393.5C 288.5,393.5 289.5,393.5 290.5,393.5C 292.639,361.029 293.639,328.696 293.5,296.5C 310.407,278.783 330.407,265.616 353.5,257C 359.392,255.193 365.392,254.026 371.5,253.5 Z"/></g>
<g><path style="opacity:0.998" fill="#923811" d="M 533.5,265.5 C 551.621,265.78 568.621,270.28 584.5,279C 592.051,284.058 599.717,288.891 607.5,293.5C 607.5,295.167 607.5,296.833 607.5,298.5C 603.534,296.281 599.2,295.114 594.5,295C 591.118,294.176 587.784,294.343 584.5,295.5C 577.738,306.692 570.238,317.359 562,327.5C 558.011,333.025 558.845,337.525 564.5,341C 574.412,343.828 584.412,344.161 594.5,342C 598.324,339.99 601.658,337.49 604.5,334.5C 605.486,338.97 605.819,343.637 605.5,348.5C 592.781,348.075 583.781,353.575 578.5,365C 578.847,368.014 580.514,369.681 583.5,370C 590.453,371.163 597.453,371.663 604.5,371.5C 603.4,386.803 602.733,402.136 602.5,417.5C 587.523,414.991 575.023,419.324 565,430.5C 562.579,434.209 563.079,437.375 566.5,440C 574.421,441.568 582.421,441.901 590.5,441C 594.188,439.487 597.855,437.987 601.5,436.5C 601.093,442.161 600.76,447.828 600.5,453.5C 584.535,460.373 567.868,465.04 550.5,467.5C 541.907,469.006 533.241,469.673 524.5,469.5C 525.78,462.038 525.78,454.704 524.5,447.5C 536.375,446.147 546.541,441.147 555,432.5C 560.13,418.606 555.297,410.44 540.5,408C 536.179,407.501 531.846,407.334 527.5,407.5C 528.224,393.17 528.891,378.837 529.5,364.5C 531.968,362.359 533.634,359.692 534.5,356.5C 533.634,353.308 531.968,350.641 529.5,348.5C 530.719,337.018 531.386,325.351 531.5,313.5C 544.687,310.158 556.187,303.825 566,294.5C 569.833,288 569,282.167 563.5,277C 558.559,274.075 553.225,272.242 547.5,271.5C 543.03,270.514 538.363,270.181 533.5,270.5C 533.5,268.833 533.5,267.167 533.5,265.5 Z"/></g>
<g><path style="opacity:1" fill="#b94a1b" d="M 547.5,271.5 C 553.225,272.242 558.559,274.075 563.5,277C 569,282.167 569.833,288 566,294.5C 556.187,303.825 544.687,310.158 531.5,313.5C 525.824,313.666 520.157,313.499 514.5,313C 507.671,310.39 500.671,308.39 493.5,307C 488.962,305.287 487.462,302.12 489,297.5C 495.833,289.333 503.333,281.833 511.5,275C 514.167,274 516.833,273 519.5,272C 528.827,271.5 538.161,271.334 547.5,271.5 Z"/></g>
<g><path style="opacity:1" fill="#9f3c12" d="M 445.5,291.5 C 444.862,301.495 444.196,311.495 443.5,321.5C 443.52,322.726 443.853,323.726 444.5,324.5C 429.419,327.398 418.919,336.065 413,350.5C 409.034,355.467 404.701,360.134 400,364.5C 398.017,368.959 398.35,373.292 401,377.5C 404.887,382.054 409.387,385.887 414.5,389C 420.201,390.565 424.367,388.732 427,383.5C 429.716,374.035 434.882,366.368 442.5,360.5C 441.659,367.465 441.326,374.465 441.5,381.5C 441.5,382.833 441.5,384.167 441.5,385.5C 440.298,404.462 439.298,423.462 438.5,442.5C 433.156,442.334 427.823,442.501 422.5,443C 417.857,445.615 415.524,449.615 415.5,455C 415.013,459.7 417.013,462.7 421.5,464C 426.861,464.609 432.195,464.442 437.5,463.5C 437.5,465.5 437.5,467.5 437.5,469.5C 435.901,469.232 434.568,469.566 433.5,470.5C 425.851,471.355 418.184,472.021 410.5,472.5C 395.981,473.304 381.647,472.137 367.5,469C 365.685,468.243 364.019,467.41 362.5,466.5C 363.645,442.841 364.645,419.174 365.5,395.5C 381.133,388.606 381.466,380.939 366.5,372.5C 367.118,365.183 367.451,357.849 367.5,350.5C 379.948,354.07 390.448,351.07 399,341.5C 402.273,336.1 402.273,330.767 399,325.5C 394.127,322.448 388.794,321.115 383,321.5C 378.159,321.812 373.326,322.145 368.5,322.5C 369.35,315.201 369.683,307.868 369.5,300.5C 383.827,301.309 398.161,301.476 412.5,301C 424.093,299.745 435.093,296.578 445.5,291.5 Z"/></g>
<g><path style="opacity:1" fill="#8c3611" d="M 607.5,293.5 C 611.5,295.5 615.5,297.5 619.5,299.5C 624.849,303.237 630.849,305.737 637.5,307C 652.249,308.555 666.915,310.389 681.5,312.5C 681.5,315.167 681.5,317.833 681.5,320.5C 667.823,318.304 654.157,318.137 640.5,320C 638.376,321.122 636.543,322.622 635,324.5C 630.484,331.22 627.65,338.554 626.5,346.5C 626.369,354.067 629.702,359.567 636.5,363C 648.802,368.034 661.302,372.534 674,376.5C 675.8,375.68 677.634,375.014 679.5,374.5C 678.257,389.416 677.591,404.416 677.5,419.5C 657.394,426.973 638.061,435.973 619.5,446.5C 613.265,449.118 606.932,451.452 600.5,453.5C 600.76,447.828 601.093,442.161 601.5,436.5C 605.003,432.995 607.336,428.829 608.5,424C 608.071,420.403 606.071,418.237 602.5,417.5C 602.733,402.136 603.4,386.803 604.5,371.5C 597.453,371.663 590.453,371.163 583.5,370C 580.514,369.681 578.847,368.014 578.5,365C 583.781,353.575 592.781,348.075 605.5,348.5C 605.819,343.637 605.486,338.97 604.5,334.5C 610.525,326.972 615.525,318.805 619.5,310C 619.297,307.594 618.297,305.594 616.5,304C 613.436,302.141 610.436,300.308 607.5,298.5C 607.5,296.833 607.5,295.167 607.5,293.5 Z"/></g>
<g><path style="opacity:1" fill="#873410" d="M 607.5,298.5 C 610.436,300.308 613.436,302.141 616.5,304C 618.297,305.594 619.297,307.594 619.5,310C 615.525,318.805 610.525,326.972 604.5,334.5C 601.658,337.49 598.324,339.99 594.5,342C 584.412,344.161 574.412,343.828 564.5,341C 558.845,337.525 558.011,333.025 562,327.5C 570.238,317.359 577.738,306.692 584.5,295.5C 587.784,294.343 591.118,294.176 594.5,295C 599.2,295.114 603.534,296.281 607.5,298.5 Z"/></g>
<g><path style="opacity:1" fill="#ab4112" d="M 293.5,296.5 C 293.639,328.696 292.639,361.029 290.5,393.5C 289.5,393.5 288.5,393.5 287.5,393.5C 282.537,392.746 277.537,392.413 272.5,392.5C 249.423,391.133 226.423,392.966 203.5,398C 189.546,402.724 175.212,404.724 160.5,404C 159.748,403.329 159.414,402.496 159.5,401.5C 160.206,395.425 162.539,390.092 166.5,385.5C 172.896,378.63 180.563,373.464 189.5,370C 207.698,365.133 226.031,360.8 244.5,357C 261.25,352.583 270.417,341.75 272,324.5C 272.926,322.308 274.093,320.308 275.5,318.5C 279.106,312.293 283.439,306.627 288.5,301.5C 289.833,299.5 291.5,297.833 293.5,296.5 Z"/></g>
<g><path style="opacity:0.992" fill="#f4f4f4" d="M 619.5,299.5 C 708.276,308.286 793.942,329.453 876.5,363C 910.902,377.355 942.569,396.022 971.5,419C 988.033,432.926 1000.53,449.76 1009,469.5C 1018.23,497.894 1014.39,524.227 997.5,548.5C 980.924,569.109 960.924,585.442 937.5,597.5C 890.266,620.467 840.933,637.467 789.5,648.5C 693.355,667.273 596.355,673.94 498.5,668.5C 490.804,668.646 483.138,668.313 475.5,667.5C 467.514,666.901 459.514,666.568 451.5,666.5C 445.916,665.507 440.249,664.841 434.5,664.5C 424.807,663.571 415.14,662.571 405.5,661.5C 379.096,658.299 352.763,654.633 326.5,650.5C 316.474,648.717 306.474,646.717 296.5,644.5C 285.853,642.172 275.187,639.839 264.5,637.5C 255.845,635.169 247.178,632.836 238.5,630.5C 235.933,629.525 233.267,628.858 230.5,628.5C 224.385,626.13 218.051,624.13 211.5,622.5C 205.624,620.647 199.791,618.647 194,616.5C 192.747,635.486 191.747,654.486 191,673.5C 190.809,675.708 190.309,677.708 189.5,679.5C 184.528,674.193 179.528,668.86 174.5,663.5C 176.145,649.534 177.145,635.367 177.5,621C 177.167,617.5 176.833,614 176.5,610.5C 157.97,602.702 139.636,595.369 121.5,588.5C 107.297,580.39 92.9632,572.223 78.5,564C 67.0587,556.387 56.0587,548.22 45.5,539.5C 31.1303,526.48 19.4637,511.48 10.5,494.5C -0.946045,461.52 4.55396,431.52 27,404.5C 47.5634,382.298 71.7301,365.131 99.5,353C 160.039,326.948 223.039,309.781 288.5,301.5C 283.439,306.627 279.106,312.293 275.5,318.5C 237.868,324.407 201.202,333.741 165.5,346.5C 141.697,353.905 119.364,364.238 98.5,377.5C 74.9896,389.845 57.8229,408.179 47,432.5C 39.672,461.522 46.0054,487.188 66,509.5C 73.5071,518.188 82.0071,525.521 91.5,531.5C 108.172,544.179 126.172,554.845 145.5,563.5C 149.435,565.467 153.435,567.467 157.5,569.5C 167.683,573.894 178.016,577.894 188.5,581.5C 205.257,588.865 222.59,594.865 240.5,599.5C 247.172,602.255 254.172,604.255 261.5,605.5C 268.266,607.945 275.266,609.945 282.5,611.5C 290.796,613.377 299.13,615.044 307.5,616.5C 332.421,622.656 357.755,627.323 383.5,630.5C 389.144,631.312 394.81,631.979 400.5,632.5C 440.335,637.534 480.335,640.534 520.5,641.5C 562.047,643.099 603.714,642.433 645.5,639.5C 660.585,638.878 675.585,637.545 690.5,635.5C 719.543,632.326 748.209,627.659 776.5,621.5C 826.05,611.817 873.383,595.65 918.5,573C 924.698,569.406 930.698,565.572 936.5,561.5C 952.358,550.477 964.858,536.477 974,519.5C 975.79,515.673 976.956,511.673 977.5,507.5C 978.531,505.039 979.198,502.373 979.5,499.5C 980.436,495.265 980.769,490.931 980.5,486.5C 979.931,474.292 976.431,462.959 970,452.5C 955.753,431.921 937.92,415.088 916.5,402C 899.164,391.499 881.164,382.332 862.5,374.5C 829.697,359.676 795.697,348.009 760.5,339.5C 758.95,338.559 757.284,337.893 755.5,337.5C 732.957,323.207 708.291,314.874 681.5,312.5C 666.915,310.389 652.249,308.555 637.5,307C 630.849,305.737 624.849,303.237 619.5,299.5 Z"/></g>
<g><path style="opacity:1" fill="#863511" d="M 681.5,312.5 C 708.291,314.874 732.957,323.207 755.5,337.5C 755.813,340.247 755.48,342.914 754.5,345.5C 748.862,343.04 743.362,343.04 738,345.5C 736.698,358.268 731.531,369.101 722.5,378C 712.453,380.456 703.12,384.456 694.5,390C 690.968,392.286 690.302,394.952 692.5,398C 712.432,400.685 732.432,401.185 752.5,399.5C 752.666,406.841 752.5,414.174 752,421.5C 751.768,422.737 751.268,423.737 750.5,424.5C 739.502,422.502 728.502,420.336 717.5,418C 704.087,417.029 690.754,417.529 677.5,419.5C 677.591,404.416 678.257,389.416 679.5,374.5C 688.811,371.678 697.478,367.511 705.5,362C 714.477,354.55 718.31,345.05 717,333.5C 713.92,329.369 709.753,326.869 704.5,326C 696.852,324.004 689.185,322.171 681.5,320.5C 681.5,317.833 681.5,315.167 681.5,312.5 Z"/></g>
<g><path style="opacity:1" fill="#b94a1b" d="M 681.5,320.5 C 689.185,322.171 696.852,324.004 704.5,326C 709.753,326.869 713.92,329.369 717,333.5C 718.31,345.05 714.477,354.55 705.5,362C 697.478,367.511 688.811,371.678 679.5,374.5C 677.634,375.014 675.8,375.68 674,376.5C 661.302,372.534 648.802,368.034 636.5,363C 629.702,359.567 626.369,354.067 626.5,346.5C 627.65,338.554 630.484,331.22 635,324.5C 636.543,322.622 638.376,321.122 640.5,320C 654.157,318.137 667.823,318.304 681.5,320.5 Z"/></g>
<g><path style="opacity:1" fill="#953811" d="M 367.5,350.5 C 335.326,340.019 335.66,330.686 368.5,322.5C 373.326,322.145 378.159,321.812 383,321.5C 388.794,321.115 394.127,322.448 399,325.5C 402.273,330.767 402.273,336.1 399,341.5C 390.448,351.07 379.948,354.07 367.5,350.5 Z"/></g>
<g><path style="opacity:1" fill="#b94a1b" d="M 442.5,360.5 C 434.882,366.368 429.716,374.035 427,383.5C 424.367,388.732 420.201,390.565 414.5,389C 409.387,385.887 404.887,382.054 401,377.5C 398.35,373.292 398.017,368.959 400,364.5C 404.701,360.134 409.034,355.467 413,350.5C 418.919,336.065 429.419,327.398 444.5,324.5C 458.355,322.573 472.021,323.406 485.5,327C 488.89,328.006 489.89,330.006 488.5,333C 473.258,342.428 457.925,351.595 442.5,360.5 Z"/></g>
<g><path style="opacity:1" fill="#8e8d8d" d="M 275.5,318.5 C 274.093,320.308 272.926,322.308 272,324.5C 270.417,341.75 261.25,352.583 244.5,357C 226.031,360.8 207.698,365.133 189.5,370C 180.563,373.464 172.896,378.63 166.5,385.5C 165.838,383.696 165.505,381.696 165.5,379.5C 166.061,369.319 166.728,359.152 167.5,349C 167.316,347.624 166.649,346.791 165.5,346.5C 201.202,333.741 237.868,324.407 275.5,318.5 Z"/></g>
<g><path style="opacity:1" fill="#8c3610" d="M 529.5,348.5 C 531.968,350.641 533.634,353.308 534.5,356.5C 533.634,359.692 531.968,362.359 529.5,364.5C 510.283,373.088 491.617,371.755 473.5,360.5C 471.605,358.133 471.105,355.466 472,352.5C 481.67,342.245 493.503,337.411 507.5,338C 515.164,340.831 522.497,344.331 529.5,348.5 Z"/></g>
<g><path style="opacity:1" fill="#7e3210" d="M 755.5,337.5 C 757.284,337.893 758.95,338.559 760.5,339.5C 779.99,352.093 798.657,365.926 816.5,381C 827.137,390.796 836.804,401.296 845.5,412.5C 847.115,415.45 849.115,418.116 851.5,420.5C 847.846,428.679 841.513,433.512 832.5,435C 808.23,435.1 784.23,432.6 760.5,427.5C 757.01,426.743 753.677,425.743 750.5,424.5C 751.268,423.737 751.768,422.737 752,421.5C 752.5,414.174 752.666,406.841 752.5,399.5C 732.432,401.185 712.432,400.685 692.5,398C 690.302,394.952 690.968,392.286 694.5,390C 703.12,384.456 712.453,380.456 722.5,378C 731.531,369.101 736.698,358.268 738,345.5C 743.362,343.04 748.862,343.04 754.5,345.5C 755.48,342.914 755.813,340.247 755.5,337.5 Z"/></g>
<g><path style="opacity:1" fill="#b94a1b" d="M 314.5,340.5 C 330.686,338.162 334.519,343.828 326,357.5C 316.562,362.97 306.728,363.803 296.5,360C 293.994,357.451 294.16,354.951 297,352.5C 301.964,347.004 307.797,343.004 314.5,340.5 Z"/></g>
<g><path style="opacity:1" fill="#868686" d="M 165.5,346.5 C 166.649,346.791 167.316,347.624 167.5,349C 166.728,359.152 166.061,369.319 165.5,379.5C 165.505,381.696 165.838,383.696 166.5,385.5C 162.539,390.092 160.206,395.425 159.5,401.5C 158.662,401.842 158.328,402.508 158.5,403.5C 154.749,407.995 151.749,412.995 149.5,418.5C 131.574,417.616 113.908,419.283 96.5,423.5C 97.1062,408.164 97.7729,392.83 98.5,377.5C 119.364,364.238 141.697,353.905 165.5,346.5 Z"/></g>
<g><path style="opacity:1" fill="#c4c3c3" d="M 760.5,339.5 C 795.697,348.009 829.697,359.676 862.5,374.5C 861.515,390.483 860.849,406.483 860.5,422.5C 855.643,418.908 850.643,415.575 845.5,412.5C 836.804,401.296 827.137,390.796 816.5,381C 798.657,365.926 779.99,352.093 760.5,339.5 Z"/></g>
<g><path style="opacity:1" fill="#b94a1b" d="M 218.5,366.5 C 225.175,366.334 231.842,366.5 238.5,367C 240.325,368.466 240.825,370.299 240,372.5C 238.5,376.667 235.667,379.5 231.5,381C 216.502,385.625 201.168,387.291 185.5,386C 181.454,384.529 180.621,382.029 183,378.5C 185.408,376.044 188.241,374.211 191.5,373C 200.604,370.688 209.604,368.522 218.5,366.5 Z"/></g>
<g><path style="opacity:1" fill="#8f3711" d="M 441.5,385.5 C 441.5,384.167 441.5,382.833 441.5,381.5C 447.605,369.834 457.271,365.334 470.5,368C 478.206,369.241 480.04,373.074 476,379.5C 465.941,391.069 454.441,393.069 441.5,385.5 Z"/></g>
<g><path style="opacity:1" fill="#963911" d="M 366.5,372.5 C 381.466,380.939 381.133,388.606 365.5,395.5C 355.238,397.849 345.571,396.349 336.5,391C 333.965,389.799 332.632,387.799 332.5,385C 335.503,376.641 341.503,371.807 350.5,370.5C 355.799,371.346 361.133,372.012 366.5,372.5 Z"/></g>
<g><path style="opacity:1" fill="#cccccb" d="M 862.5,374.5 C 881.164,382.332 899.164,391.499 916.5,402C 937.92,415.088 955.753,431.921 970,452.5C 976.431,462.959 979.931,474.292 980.5,486.5C 977.115,486.846 973.782,487.512 970.5,488.5C 969.062,488.281 967.729,487.781 966.5,487C 962.296,480.405 958.463,473.571 955,466.5C 946.861,457.515 937.028,451.182 925.5,447.5C 937.784,443.237 937.451,440.071 924.5,438C 919.167,437.333 913.833,437.333 908.5,438C 904.259,438.787 900.592,440.621 897.5,443.5C 893.17,444.34 888.837,444.84 884.5,445C 876.984,436.984 868.984,429.484 860.5,422.5C 860.849,406.483 861.515,390.483 862.5,374.5 Z"/></g>
<g><path style="opacity:1" fill="#828282" d="M 98.5,377.5 C 97.7729,392.83 97.1062,408.164 96.5,423.5C 93.6458,424.205 90.9791,425.205 88.5,426.5C 68.9144,431.417 57.2477,443.751 53.5,463.5C 54.6022,473.7 58.4355,482.7 65,490.5C 71.7264,498.728 79.2264,506.061 87.5,512.5C 89.6397,515.061 91.973,517.395 94.5,519.5C 90.725,522.823 89.725,526.823 91.5,531.5C 82.0071,525.521 73.5071,518.188 66,509.5C 46.0054,487.188 39.672,461.522 47,432.5C 57.8229,408.179 74.9896,389.845 98.5,377.5 Z"/></g>
<g><path style="opacity:1" fill="#92370f" d="M 272.5,392.5 C 277.537,392.413 282.537,392.746 287.5,393.5C 292.404,394.474 297.404,395.64 302.5,397C 314.447,399.621 323.447,406.121 329.5,416.5C 328.177,419.938 327.51,423.771 327.5,428C 326.82,439.825 326.486,451.658 326.5,463.5C 325.167,462.167 323.833,460.833 322.5,459.5C 321.341,455.849 319.674,452.515 317.5,449.5C 316.341,445.849 314.674,442.515 312.5,439.5C 312.34,437.847 311.674,436.514 310.5,435.5C 310.267,433.938 309.6,432.605 308.5,431.5C 306.833,428.833 305.167,426.167 303.5,423.5C 301.996,421.164 299.996,419.331 297.5,418C 291.829,415.054 285.829,413.22 279.5,412.5C 272.62,410.452 265.62,409.119 258.5,408.5C 258.5,403.167 258.5,397.833 258.5,392.5C 263.167,392.5 267.833,392.5 272.5,392.5 Z"/></g>
<g><path style="opacity:1" fill="#9a3a10" d="M 272.5,392.5 C 267.833,392.5 263.167,392.5 258.5,392.5C 258.5,397.833 258.5,403.167 258.5,408.5C 240.964,408.294 223.631,409.961 206.5,413.5C 195.294,415.817 183.96,416.817 172.5,416.5C 163.911,416.241 159.245,411.908 158.5,403.5C 158.328,402.508 158.662,401.842 159.5,401.5C 159.414,402.496 159.748,403.329 160.5,404C 175.212,404.724 189.546,402.724 203.5,398C 226.423,392.966 249.423,391.133 272.5,392.5 Z"/></g>
<g><path style="opacity:1" fill="#833310" d="M 633.5,392.5 C 642.066,392.646 650.4,394.146 658.5,397C 666.342,399.503 667.342,403.503 661.5,409C 652.963,415.734 643.297,419.067 632.5,419C 625.655,417.503 619.488,414.669 614,410.5C 612,408.5 612,406.5 614,404.5C 619.217,398.313 625.717,394.313 633.5,392.5 Z"/></g>
<g><path style="opacity:1" fill="#dec874" d="M 158.5,403.5 C 159.245,411.908 163.911,416.241 172.5,416.5C 174.369,417.165 176.369,417.831 178.5,418.5C 179.815,420.199 179.815,421.865 178.5,423.5C 176.958,422.699 175.292,422.366 173.5,422.5C 165.802,420.199 157.802,418.865 149.5,418.5C 151.749,412.995 154.749,407.995 158.5,403.5 Z"/></g>
<g><path style="opacity:1" fill="#8a3510" d="M 527.5,407.5 C 531.846,407.334 536.179,407.501 540.5,408C 555.297,410.44 560.13,418.606 555,432.5C 546.541,441.147 536.375,446.147 524.5,447.5C 518.158,447.666 511.825,447.5 505.5,447C 501.173,445.427 498.007,442.593 496,438.5C 494.146,430.002 495.813,422.335 501,415.5C 508.86,409.824 517.694,407.157 527.5,407.5 Z"/></g>
<g><path style="opacity:1" fill="#8f8e8d" d="M 258.5,408.5 C 265.62,409.119 272.62,410.452 279.5,412.5C 273.798,416.683 267.798,420.35 261.5,423.5C 244.839,428.496 228.172,433.496 211.5,438.5C 204.749,434.43 197.749,430.764 190.5,427.5C 196.129,423.206 201.463,418.539 206.5,413.5C 223.631,409.961 240.964,408.294 258.5,408.5 Z"/></g>
<g><path style="opacity:1" fill="#c1ac5e" d="M 206.5,413.5 C 201.463,418.539 196.129,423.206 190.5,427.5C 186.715,425.572 182.715,424.238 178.5,423.5C 179.815,421.865 179.815,420.199 178.5,418.5C 176.369,417.831 174.369,417.165 172.5,416.5C 183.96,416.817 195.294,415.817 206.5,413.5 Z"/></g>
<g><path style="opacity:1" fill="#a88d4e" d="M 279.5,412.5 C 285.829,413.22 291.829,415.054 297.5,418C 299.996,419.331 301.996,421.164 303.5,423.5C 296.029,424.401 289.363,427.234 283.5,432C 277.937,439.649 272.27,447.149 266.5,454.5C 265.833,454.5 265.5,454.833 265.5,455.5C 264.5,456.167 263.5,456.833 262.5,457.5C 261.148,452.746 259.814,448.079 258.5,443.5C 263.125,441.848 267.125,439.182 270.5,435.5C 269.91,434.201 268.91,433.368 267.5,433C 264.964,432.814 262.631,432.314 260.5,431.5C 262.844,429.282 263.177,426.615 261.5,423.5C 267.798,420.35 273.798,416.683 279.5,412.5 Z"/></g>
<g><path style="opacity:1" fill="#dec870" d="M 845.5,412.5 C 850.643,415.575 855.643,418.908 860.5,422.5C 868.984,429.484 876.984,436.984 884.5,445C 888.837,444.84 893.17,444.34 897.5,443.5C 897.027,446.833 898.36,449 901.5,450C 905.167,450.667 908.833,450.667 912.5,450C 916.816,449.004 921.149,448.17 925.5,447.5C 937.028,451.182 946.861,457.515 955,466.5C 958.463,473.571 962.296,480.405 966.5,487C 967.729,487.781 969.062,488.281 970.5,488.5C 973.782,487.512 977.115,486.846 980.5,486.5C 980.769,490.931 980.436,495.265 979.5,499.5C 953.173,488.839 927.173,477.339 901.5,465C 884.767,459.567 867.767,456.401 850.5,455.5C 856.367,453.902 862.033,451.735 867.5,449C 870.302,444.254 869.802,439.754 866,435.5C 861.663,429.997 856.83,424.997 851.5,420.5C 849.115,418.116 847.115,415.45 845.5,412.5 Z"/></g>
<g><path style="opacity:1" fill="#8d350e" d="M 329.5,416.5 C 335.275,427.99 339.775,439.99 343,452.5C 348.069,459.274 354.569,463.94 362.5,466.5C 364.019,467.41 365.685,468.243 367.5,469C 381.647,472.137 395.981,473.304 410.5,472.5C 405.695,473.487 400.695,473.821 395.5,473.5C 395.666,478.844 395.499,484.177 395,489.5C 394.768,490.737 394.268,491.737 393.5,492.5C 391.139,492.326 388.806,491.993 386.5,491.5C 384.565,490.85 382.565,490.517 380.5,490.5C 372.399,487.722 364.066,485.388 355.5,483.5C 351.576,481.853 347.576,480.186 343.5,478.5C 337.562,474.894 332.229,470.561 327.5,465.5C 327.167,464.833 326.833,464.167 326.5,463.5C 326.486,451.658 326.82,439.825 327.5,428C 327.51,423.771 328.177,419.938 329.5,416.5 Z"/></g>
<g><path style="opacity:1" fill="#b94a1b" d="M 602.5,417.5 C 606.071,418.237 608.071,420.403 608.5,424C 607.336,428.829 605.003,432.995 601.5,436.5C 597.855,437.987 594.188,439.487 590.5,441C 582.421,441.901 574.421,441.568 566.5,440C 563.079,437.375 562.579,434.209 565,430.5C 575.023,419.324 587.523,414.991 602.5,417.5 Z"/></g>
<g><path style="opacity:1" fill="#e9d790" d="M 149.5,418.5 C 157.802,418.865 165.802,420.199 173.5,422.5C 178.285,437.86 184.618,452.526 192.5,466.5C 186.042,464.174 179.375,462.674 172.5,462C 158.468,461.219 144.468,461.386 130.5,462.5C 128.637,458.245 126.97,453.912 125.5,449.5C 138.975,446.05 152.641,443.383 166.5,441.5C 159.479,435.825 151.479,431.991 142.5,430C 130.623,426.507 118.623,425.841 106.5,428C 101.687,429.907 97.0204,432.074 92.5,434.5C 92.0884,431.198 90.755,428.531 88.5,426.5C 90.9791,425.205 93.6458,424.205 96.5,423.5C 113.908,419.283 131.574,417.616 149.5,418.5 Z"/></g>
<g><path style="opacity:1" fill="#722b0c" d="M 750.5,424.5 C 753.677,425.743 757.01,426.743 760.5,427.5C 759.71,434.471 759.377,441.471 759.5,448.5C 758.391,448.443 757.391,448.11 756.5,447.5C 752.5,445.833 748.5,444.167 744.5,442.5C 742.819,440.992 740.819,439.992 738.5,439.5C 737.833,439.167 737.167,438.833 736.5,438.5C 729.385,434.713 721.719,433.547 713.5,435C 705.913,437.129 698.913,440.295 692.5,444.5C 688.561,446.446 684.894,448.779 681.5,451.5C 674.566,455.11 667.9,459.11 661.5,463.5C 652.433,468.366 643.1,472.7 633.5,476.5C 628.77,478.537 624.103,480.537 619.5,482.5C 619.167,482.5 618.833,482.5 618.5,482.5C 617.848,470.498 618.181,458.498 619.5,446.5C 638.061,435.973 657.394,426.973 677.5,419.5C 690.754,417.529 704.087,417.029 717.5,418C 728.502,420.336 739.502,422.502 750.5,424.5 Z"/></g>
<g><path style="opacity:1" fill="#ecdb99" d="M 173.5,422.5 C 175.292,422.366 176.958,422.699 178.5,423.5C 182.715,424.238 186.715,425.572 190.5,427.5C 197.749,430.764 204.749,434.43 211.5,438.5C 224.46,448.791 237.126,459.457 249.5,470.5C 244.155,477.871 238.821,485.205 233.5,492.5C 222.847,485.836 212.514,478.67 202.5,471C 199.259,469.211 195.926,467.711 192.5,466.5C 184.618,452.526 178.285,437.86 173.5,422.5 Z"/></g>
<g><path style="opacity:1" fill="#c3b066" d="M 303.5,423.5 C 305.167,426.167 306.833,428.833 308.5,431.5C 293.036,436.663 279.036,444.33 266.5,454.5C 272.27,447.149 277.937,439.649 283.5,432C 289.363,427.234 296.029,424.401 303.5,423.5 Z"/></g>
<g><path style="opacity:1" fill="#e4d07f" d="M 88.5,426.5 C 90.755,428.531 92.0884,431.198 92.5,434.5C 88.2324,437.589 84.0657,440.923 80,444.5C 77.8489,447.216 78.0155,449.716 80.5,452C 84.2453,453.045 88.0786,453.545 92,453.5C 103.269,452.933 114.436,451.6 125.5,449.5C 126.97,453.912 128.637,458.245 130.5,462.5C 121.327,463.387 113.493,467.054 107,473.5C 103.173,480.56 104.007,486.893 109.5,492.5C 111.543,495.543 114.21,497.876 117.5,499.5C 118.306,500.728 119.306,501.728 120.5,502.5C 119.624,502.369 118.957,502.702 118.5,503.5C 124.192,514.22 129.859,524.887 135.5,535.5C 118.403,529.95 102.403,522.283 87.5,512.5C 79.2264,506.061 71.7264,498.728 65,490.5C 58.4355,482.7 54.6022,473.7 53.5,463.5C 57.2477,443.751 68.9144,431.417 88.5,426.5 Z"/></g>
<g><path style="opacity:1" fill="#fefefd" d="M 125.5,449.5 C 114.436,451.6 103.269,452.933 92,453.5C 88.0786,453.545 84.2453,453.045 80.5,452C 78.0155,449.716 77.8489,447.216 80,444.5C 84.0657,440.923 88.2324,437.589 92.5,434.5C 97.0204,432.074 101.687,429.907 106.5,428C 118.623,425.841 130.623,426.507 142.5,430C 151.479,431.991 159.479,435.825 166.5,441.5C 152.641,443.383 138.975,446.05 125.5,449.5 Z"/></g>
<g><path style="opacity:1" fill="#67260b" d="M 851.5,420.5 C 856.83,424.997 861.663,429.997 866,435.5C 869.802,439.754 870.302,444.254 867.5,449C 862.033,451.735 856.367,453.902 850.5,455.5C 849.391,455.557 848.391,455.89 847.5,456.5C 837.575,459.148 827.575,461.481 817.5,463.5C 813.232,464.373 808.898,464.706 804.5,464.5C 800.481,464.354 796.481,464.021 792.5,463.5C 780.841,459.835 769.841,454.835 759.5,448.5C 759.377,441.471 759.71,434.471 760.5,427.5C 784.23,432.6 808.23,435.1 832.5,435C 841.513,433.512 847.846,428.679 851.5,420.5 Z"/></g>
<g><path style="opacity:1" fill="#9f8448" d="M 261.5,423.5 C 263.177,426.615 262.844,429.282 260.5,431.5C 253.411,431.116 246.411,431.616 239.5,433C 235.998,435.496 235.665,438.329 238.5,441.5C 240.028,442.861 241.695,444.028 243.5,445C 248.61,445.57 253.61,445.07 258.5,443.5C 259.814,448.079 261.148,452.746 262.5,457.5C 257.806,461.527 253.473,465.86 249.5,470.5C 237.126,459.457 224.46,448.791 211.5,438.5C 228.172,433.496 244.839,428.496 261.5,423.5 Z"/></g>
<g><path style="opacity:1" fill="#eddc9e" d="M 260.5,431.5 C 262.631,432.314 264.964,432.814 267.5,433C 268.91,433.368 269.91,434.201 270.5,435.5C 267.125,439.182 263.125,441.848 258.5,443.5C 253.61,445.07 248.61,445.57 243.5,445C 241.695,444.028 240.028,442.861 238.5,441.5C 235.665,438.329 235.998,435.496 239.5,433C 246.411,431.616 253.411,431.116 260.5,431.5 Z"/></g>
<g><path style="opacity:1" fill="#b94a1b" d="M 389.5,431.5 C 396.214,431.363 402.88,431.863 409.5,433C 414.115,434.077 415.615,436.91 414,441.5C 409.618,449.546 404.118,456.712 397.5,463C 395.5,463.667 393.5,463.667 391.5,463C 383.045,459.03 375.211,454.196 368,448.5C 367.365,446.365 367.699,444.365 369,442.5C 374.587,436.293 381.421,432.626 389.5,431.5 Z"/></g>
<g><path style="opacity:1" fill="#fbf7f0" d="M 310.5,435.5 C 311.674,436.514 312.34,437.847 312.5,439.5C 309.517,440.388 306.35,441.054 303,441.5C 302.167,441.167 301.333,440.833 300.5,440.5C 303.397,437.931 306.73,436.264 310.5,435.5 Z"/></g>
<g><path style="opacity:1" fill="#bba75c" d="M 736.5,438.5 C 731.942,440.386 727.608,442.719 723.5,445.5C 718.507,445.084 713.507,444.751 708.5,444.5C 706.814,442.984 704.981,441.65 703,440.5C 699.634,442.27 696.134,443.603 692.5,444.5C 698.913,440.295 705.913,437.129 713.5,435C 721.719,433.547 729.385,434.713 736.5,438.5 Z"/></g>
<g><path style="opacity:1" fill="#fdfdfb" d="M 925.5,447.5 C 921.149,448.17 916.816,449.004 912.5,450C 908.833,450.667 905.167,450.667 901.5,450C 898.36,449 897.027,446.833 897.5,443.5C 900.592,440.621 904.259,438.787 908.5,438C 913.833,437.333 919.167,437.333 924.5,438C 937.451,440.071 937.784,443.237 925.5,447.5 Z"/></g>
<g><path style="opacity:1" fill="#fefdfb" d="M 738.5,439.5 C 740.819,439.992 742.819,440.992 744.5,442.5C 732.538,452.624 720.705,462.958 709,473.5C 701.794,485.77 696.127,498.77 692,512.5C 691.311,513.357 690.478,514.023 689.5,514.5C 686.553,500.16 689.386,487.16 698,475.5C 710.802,462.521 724.302,450.521 738.5,439.5 Z"/></g>
<g><path style="opacity:1" fill="#e8d790" d="M 708.5,444.5 C 710.843,447.207 713.177,449.874 715.5,452.5C 709.833,457.5 704.5,462.833 699.5,468.5C 694.808,461.475 688.808,455.809 681.5,451.5C 684.894,448.779 688.561,446.446 692.5,444.5C 696.134,443.603 699.634,442.27 703,440.5C 704.981,441.65 706.814,442.984 708.5,444.5 Z"/></g>
<g><path style="opacity:1" fill="#e9d68e" d="M 308.5,431.5 C 309.6,432.605 310.267,433.938 310.5,435.5C 306.73,436.264 303.397,437.931 300.5,440.5C 301.333,440.833 302.167,441.167 303,441.5C 306.35,441.054 309.517,440.388 312.5,439.5C 314.674,442.515 316.341,445.849 317.5,449.5C 300.011,453.911 285.344,462.911 273.5,476.5C 272.5,477.167 271.5,477.833 270.5,478.5C 268.215,471.086 266.549,463.419 265.5,455.5C 265.5,454.833 265.833,454.5 266.5,454.5C 279.036,444.33 293.036,436.663 308.5,431.5 Z"/></g>
<g><path style="opacity:1" fill="#a3884b" d="M 708.5,444.5 C 713.507,444.751 718.507,445.084 723.5,445.5C 720.874,447.823 718.207,450.157 715.5,452.5C 713.177,449.874 710.843,447.207 708.5,444.5 Z"/></g>
<g><path style="opacity:1" fill="#792d0c" d="M 619.5,446.5 C 618.181,458.498 617.848,470.498 618.5,482.5C 608.669,485.776 598.669,488.443 588.5,490.5C 579.972,492.65 571.305,493.983 562.5,494.5C 557.167,494.5 551.833,494.5 546.5,494.5C 547.377,485.867 547.711,477.2 547.5,468.5C 548.791,468.737 549.791,468.404 550.5,467.5C 567.868,465.04 584.535,460.373 600.5,453.5C 606.932,451.452 613.265,449.118 619.5,446.5 Z"/></g>
<g><path style="opacity:1" fill="#a78c4d" d="M 681.5,451.5 C 688.808,455.809 694.808,461.475 699.5,468.5C 691.371,477.304 684.371,486.971 678.5,497.5C 658.442,493.902 638.776,488.902 619.5,482.5C 624.103,480.537 628.77,478.537 633.5,476.5C 635.649,478.746 638.316,480.246 641.5,481C 654.274,483.771 666.607,482.437 678.5,477C 681.167,474.667 681.167,472.333 678.5,470C 672.992,467.375 667.325,465.208 661.5,463.5C 667.9,459.11 674.566,455.11 681.5,451.5 Z"/></g>
<g><path style="opacity:1" fill="#eddd9d" d="M 736.5,438.5 C 737.167,438.833 737.833,439.167 738.5,439.5C 724.302,450.521 710.802,462.521 698,475.5C 689.386,487.16 686.553,500.16 689.5,514.5C 690.478,514.023 691.311,513.357 692,512.5C 696.127,498.77 701.794,485.77 709,473.5C 720.705,462.958 732.538,452.624 744.5,442.5C 748.5,444.167 752.5,445.833 756.5,447.5C 754.5,449.167 752.5,450.833 750.5,452.5C 742.907,457.097 735.907,462.431 729.5,468.5C 723.833,473.5 718.5,478.833 713.5,484.5C 705.883,493.068 701.55,503.068 700.5,514.5C 701.497,524.476 702.164,534.476 702.5,544.5C 702.662,546.527 702.495,548.527 702,550.5C 697.685,555.982 692.851,560.982 687.5,565.5C 683.62,558.09 680.62,550.423 678.5,542.5C 676.779,534.56 675.445,526.56 674.5,518.5C 674.092,511.139 675.425,504.139 678.5,497.5C 684.371,486.971 691.371,477.304 699.5,468.5C 704.5,462.833 709.833,457.5 715.5,452.5C 718.207,450.157 720.874,447.823 723.5,445.5C 727.608,442.719 731.942,440.386 736.5,438.5 Z"/></g>
<g><path style="opacity:1" fill="#95783f" d="M 750.5,452.5 C 763.437,457.448 775.103,464.448 785.5,473.5C 783.896,474.287 783.229,475.62 783.5,477.5C 767.148,467.885 749.814,465.218 731.5,469.5C 730.833,469.167 730.167,468.833 729.5,468.5C 735.907,462.431 742.907,457.097 750.5,452.5 Z"/></g>
<g><path style="opacity:1" fill="#bdaa59" d="M 850.5,455.5 C 867.767,456.401 884.767,459.567 901.5,465C 927.173,477.339 953.173,488.839 979.5,499.5C 979.198,502.373 978.531,505.039 977.5,507.5C 967.68,507.046 958.013,505.546 948.5,503C 934.489,494.329 920.822,485.162 907.5,475.5C 906.959,477.523 907.459,479.523 909,481.5C 911.952,490.68 910.452,499.013 904.5,506.5C 902.031,503.856 899.698,501.023 897.5,498C 903.355,490.648 904.855,482.481 902,473.5C 891.994,467.874 881.494,465.207 870.5,465.5C 869.711,465.217 869.044,464.717 868.5,464C 862.82,463.555 857.154,463.055 851.5,462.5C 850.18,460.537 848.846,458.537 847.5,456.5C 848.391,455.89 849.391,455.557 850.5,455.5 Z"/></g>
<g><path style="opacity:1" fill="#c6b364" d="M 192.5,466.5 C 195.926,467.711 199.259,469.211 202.5,471C 212.514,478.67 222.847,485.836 233.5,492.5C 233.737,493.791 233.404,494.791 232.5,495.5C 230.393,493.273 228.06,491.273 225.5,489.5C 216.862,483.509 207.862,478.009 198.5,473C 189.808,469.695 180.808,467.862 171.5,467.5C 162.447,467.222 153.447,467.556 144.5,468.5C 134.637,469.066 125.304,471.566 116.5,476C 111.003,480.16 108.67,485.66 109.5,492.5C 104.007,486.893 103.173,480.56 107,473.5C 113.493,467.054 121.327,463.387 130.5,462.5C 144.468,461.386 158.468,461.219 172.5,462C 179.375,462.674 186.042,464.174 192.5,466.5 Z"/></g>
<g><path style="opacity:1" fill="#80612f" d="M 851.5,462.5 C 857.154,463.055 862.82,463.555 868.5,464C 869.044,464.717 869.711,465.217 870.5,465.5C 870.666,469.846 870.499,474.179 870,478.5C 865.912,476.206 861.745,474.039 857.5,472C 855.364,468.89 853.364,465.723 851.5,462.5 Z"/></g>
<g><path style="opacity:1" fill="#ecdc9e" d="M 661.5,463.5 C 667.325,465.208 672.992,467.375 678.5,470C 681.167,472.333 681.167,474.667 678.5,477C 666.607,482.437 654.274,483.771 641.5,481C 638.316,480.246 635.649,478.746 633.5,476.5C 643.1,472.7 652.433,468.366 661.5,463.5 Z"/></g>
<g><path style="opacity:1" fill="#a89542" d="M 817.5,463.5 C 817.414,464.496 817.748,465.329 818.5,466C 823.833,469 829.167,472 834.5,475C 838.047,479.041 841.38,483.208 844.5,487.5C 830.832,480.335 817.499,472.669 804.5,464.5C 808.898,464.706 813.232,464.373 817.5,463.5 Z"/></g>
<g><path style="opacity:1" fill="#dfc970" d="M 847.5,456.5 C 848.846,458.537 850.18,460.537 851.5,462.5C 853.364,465.723 855.364,468.89 857.5,472C 861.745,474.039 865.912,476.206 870,478.5C 870.499,474.179 870.666,469.846 870.5,465.5C 881.494,465.207 891.994,467.874 902,473.5C 904.855,482.481 903.355,490.648 897.5,498C 899.698,501.023 902.031,503.856 904.5,506.5C 905.787,509.406 906.787,512.406 907.5,515.5C 910.372,524.965 909.872,534.298 906,543.5C 905.667,550.167 905.333,556.833 905,563.5C 901.257,566.621 897.424,569.621 893.5,572.5C 892.702,570.922 892.202,569.256 892,567.5C 886.326,570.416 880.826,573.416 875.5,576.5C 874.391,576.557 873.391,576.89 872.5,577.5C 869.168,579.339 865.835,580.839 862.5,582C 869.708,569.75 877.041,557.584 884.5,545.5C 879.559,537.069 874.059,529.069 868,521.5C 866.775,521.862 865.609,522.362 864.5,523C 872.843,529.182 876.01,537.349 874,547.5C 872.6,550.902 870.433,553.736 867.5,556C 861.916,559.959 855.916,563.125 849.5,565.5C 847.333,563.489 844.666,562.322 841.5,562C 835.202,560.838 828.869,560.005 822.5,559.5C 828.422,556.581 833.088,552.247 836.5,546.5C 838.495,541.457 837.162,537.29 832.5,534C 820.814,527.938 808.481,523.771 795.5,521.5C 796.787,518.594 797.787,515.594 798.5,512.5C 800.167,512.5 801.833,512.5 803.5,512.5C 808.671,512.876 813.671,514.042 818.5,516C 825.776,520.31 833.442,523.477 841.5,525.5C 841.323,521.474 839.323,518.641 835.5,517C 825.224,511.525 814.557,507.358 803.5,504.5C 803.33,503.178 803.663,502.011 804.5,501C 801.854,500.503 799.187,500.336 796.5,500.5C 801.985,499.348 807.651,499.182 813.5,500C 818.855,500.771 824.188,501.605 829.5,502.5C 834.4,504.473 839.4,506.473 844.5,508.5C 848.755,506.47 852.088,504.137 854.5,501.5C 851.555,496.555 848.221,491.888 844.5,487.5C 841.38,483.208 838.047,479.041 834.5,475C 829.167,472 823.833,469 818.5,466C 817.748,465.329 817.414,464.496 817.5,463.5C 827.575,461.481 837.575,459.148 847.5,456.5 Z"/></g>
<g><path style="opacity:1" fill="#eddd9f" d="M 327.5,465.5 C 332.229,470.561 337.562,474.894 343.5,478.5C 331.272,482.184 318.939,486.017 306.5,490C 300.078,491.301 294.078,490.301 288.5,487C 286.52,482.634 287.853,479.634 292.5,478C 303.401,471.543 315.068,467.376 327.5,465.5 Z"/></g>
<g><path style="opacity:1" fill="#baa962" d="M 317.5,449.5 C 319.674,452.515 321.341,455.849 322.5,459.5C 304.497,464.002 289.497,473.335 277.5,487.5C 276.32,483.783 274.987,480.116 273.5,476.5C 285.344,462.911 300.011,453.911 317.5,449.5 Z"/></g>
<g><path style="opacity:1" fill="#80300d" d="M 474.5,467.5 C 491.213,467.243 507.88,467.91 524.5,469.5C 533.241,469.673 541.907,469.006 550.5,467.5C 549.791,468.404 548.791,468.737 547.5,468.5C 547.711,477.2 547.377,485.867 546.5,494.5C 551.833,494.5 557.167,494.5 562.5,494.5C 552.974,495.767 543.308,495.767 533.5,494.5C 523.163,492.498 512.83,490.498 502.5,488.5C 491.045,484.996 479.378,484.663 467.5,487.5C 466.186,485.085 465.519,482.252 465.5,479C 465.667,476.167 465.833,473.333 466,470.5C 468.677,468.959 471.51,467.959 474.5,467.5 Z"/></g>
<g><path style="opacity:1" fill="#878684" d="M 144.5,468.5 C 139.528,473.301 134.362,477.968 129,482.5C 124.648,487.887 120.815,493.553 117.5,499.5C 114.21,497.876 111.543,495.543 109.5,492.5C 108.67,485.66 111.003,480.16 116.5,476C 125.304,471.566 134.637,469.066 144.5,468.5 Z"/></g>
<g><path style="opacity:1" fill="#87320e" d="M 474.5,467.5 C 471.51,467.959 468.677,468.959 466,470.5C 465.833,473.333 465.667,476.167 465.5,479C 465.519,482.252 466.186,485.085 467.5,487.5C 464.358,488.79 461.025,489.79 457.5,490.5C 451.721,491.852 446.054,493.185 440.5,494.5C 435.195,495.194 429.862,495.528 424.5,495.5C 420.833,495.5 417.167,495.5 413.5,495.5C 412.167,495.5 410.833,495.5 409.5,495.5C 404.484,494.942 399.484,494.275 394.5,493.5C 393.833,493.5 393.5,493.167 393.5,492.5C 394.268,491.737 394.768,490.737 395,489.5C 395.499,484.177 395.666,478.844 395.5,473.5C 400.695,473.821 405.695,473.487 410.5,472.5C 418.184,472.021 425.851,471.355 433.5,470.5C 447.113,468.837 460.78,467.837 474.5,467.5 Z"/></g>
<g><path style="opacity:1" fill="#b5a254" d="M 783.5,477.5 C 790.002,485.063 790.002,492.73 783.5,500.5C 760.646,499.291 743.312,488.958 731.5,469.5C 749.814,465.218 767.148,467.885 783.5,477.5 Z"/></g>
<g><path style="opacity:1" fill="#886936" d="M 171.5,467.5 C 172.301,469.042 172.634,470.708 172.5,472.5C 170.833,472.5 169.167,472.5 167.5,472.5C 155.801,470.937 146.634,474.937 140,484.5C 138.729,488.166 139.896,490.666 143.5,492C 149.341,493.951 155.341,494.784 161.5,494.5C 163.167,495.167 164.833,495.833 166.5,496.5C 151.553,497.087 136.886,499.42 122.5,503.5C 121.833,503.167 121.167,502.833 120.5,502.5C 119.306,501.728 118.306,500.728 117.5,499.5C 120.815,493.553 124.648,487.887 129,482.5C 134.362,477.968 139.528,473.301 144.5,468.5C 153.447,467.556 162.447,467.222 171.5,467.5 Z"/></g>
<g><path style="opacity:1" fill="#967a41" d="M 171.5,467.5 C 180.808,467.862 189.808,469.695 198.5,473C 207.862,478.009 216.862,483.509 225.5,489.5C 224.152,491.48 222.152,492.647 219.5,493C 213.925,494.515 208.258,495.515 202.5,496C 190.505,496.5 178.505,496.667 166.5,496.5C 164.833,495.833 163.167,495.167 161.5,494.5C 170.173,494.666 178.84,494.5 187.5,494C 198.593,492.674 200.259,488.007 192.5,480C 184.463,476.08 176.13,473.58 167.5,472.5C 169.167,472.5 170.833,472.5 172.5,472.5C 172.634,470.708 172.301,469.042 171.5,467.5 Z"/></g>
<g><path style="opacity:1" fill="#876934" d="M 792.5,463.5 C 796.481,464.021 800.481,464.354 804.5,464.5C 817.499,472.669 830.832,480.335 844.5,487.5C 848.221,491.888 851.555,496.555 854.5,501.5C 832.508,490.809 811.841,478.142 792.5,463.5 Z"/></g>
<g><path style="opacity:1" fill="#eddd9f" d="M 167.5,472.5 C 176.13,473.58 184.463,476.08 192.5,480C 200.259,488.007 198.593,492.674 187.5,494C 178.84,494.5 170.173,494.666 161.5,494.5C 155.341,494.784 149.341,493.951 143.5,492C 139.896,490.666 138.729,488.166 140,484.5C 146.634,474.937 155.801,470.937 167.5,472.5 Z"/></g>
<g><path style="opacity:1" fill="#e5d181" d="M 265.5,455.5 C 266.549,463.419 268.215,471.086 270.5,478.5C 262.112,488.727 254.279,499.394 247,510.5C 244.332,514.334 241.165,517.667 237.5,520.5C 234.414,513.853 232.081,506.853 230.5,499.5C 230.733,497.938 231.4,496.605 232.5,495.5C 233.404,494.791 233.737,493.791 233.5,492.5C 238.821,485.205 244.155,477.871 249.5,470.5C 253.473,465.86 257.806,461.527 262.5,457.5C 263.5,456.833 264.5,456.167 265.5,455.5 Z"/></g>
<g><path style="opacity:1" fill="#ab9050" d="M 322.5,459.5 C 323.833,460.833 325.167,462.167 326.5,463.5C 326.833,464.167 327.167,464.833 327.5,465.5C 315.068,467.376 303.401,471.543 292.5,478C 287.853,479.634 286.52,482.634 288.5,487C 294.078,490.301 300.078,491.301 306.5,490C 318.939,486.017 331.272,482.184 343.5,478.5C 347.576,480.186 351.576,481.853 355.5,483.5C 352.112,487.531 347.778,490.031 342.5,491C 325.448,490.741 310.114,495.575 296.5,505.5C 288.997,501.918 281.997,497.585 275.5,492.5C 275.893,490.716 276.559,489.05 277.5,487.5C 289.497,473.335 304.497,464.002 322.5,459.5 Z"/></g>
<g><path style="opacity:1" fill="#b39f51" d="M 756.5,447.5 C 757.391,448.11 758.391,448.443 759.5,448.5C 769.841,454.835 780.841,459.835 792.5,463.5C 811.841,478.142 832.508,490.809 854.5,501.5C 852.088,504.137 848.755,506.47 844.5,508.5C 839.4,506.473 834.4,504.473 829.5,502.5C 815.184,492.339 800.518,482.673 785.5,473.5C 775.103,464.448 763.437,457.448 750.5,452.5C 752.5,450.833 754.5,449.167 756.5,447.5 Z"/></g>
<g><path style="opacity:1" fill="#c1ae64" d="M 618.5,482.5 C 618.833,482.5 619.167,482.5 619.5,482.5C 638.776,488.902 658.442,493.902 678.5,497.5C 675.425,504.139 674.092,511.139 674.5,518.5C 665.025,519.011 655.691,518.178 646.5,516C 635.103,511.591 623.77,507.091 612.5,502.5C 604.308,498.928 595.974,495.428 587.5,492C 588.056,491.617 588.389,491.117 588.5,490.5C 598.669,488.443 608.669,485.776 618.5,482.5 Z"/></g>
<g><path style="opacity:1" fill="#baa75a" d="M 355.5,483.5 C 364.066,485.388 372.399,487.722 380.5,490.5C 376.75,502.751 368.75,510.917 356.5,515C 344.167,515.333 331.833,515.667 319.5,516C 321.91,516.6 323.91,517.766 325.5,519.5C 320.868,518.404 316.534,516.737 312.5,514.5C 307.199,511.514 301.865,508.514 296.5,505.5C 310.114,495.575 325.448,490.741 342.5,491C 347.778,490.031 352.112,487.531 355.5,483.5 Z"/></g>
<g><path style="opacity:1" fill="#e6d385" d="M 729.5,468.5 C 730.167,468.833 730.833,469.167 731.5,469.5C 743.312,488.958 760.646,499.291 783.5,500.5C 787.833,500.5 792.167,500.5 796.5,500.5C 799.187,500.336 801.854,500.503 804.5,501C 803.663,502.011 803.33,503.178 803.5,504.5C 784.874,502.062 766.207,500.229 747.5,499C 753.483,503.22 760.15,505.887 767.5,507C 779.569,509.366 791.569,511.199 803.5,512.5C 801.833,512.5 800.167,512.5 798.5,512.5C 797.787,515.594 796.787,518.594 795.5,521.5C 783.528,519.818 771.528,518.318 759.5,517C 751.175,515.285 743.509,512.118 736.5,507.5C 735.527,507.013 734.527,506.513 733.5,506C 726.967,498.636 720.3,491.47 713.5,484.5C 718.5,478.833 723.833,473.5 729.5,468.5 Z"/></g>
<g><path style="opacity:1" fill="#c9b46e" d="M 502.5,488.5 C 492.273,487.842 482.273,488.842 472.5,491.5C 466.858,492.818 461.525,494.985 456.5,498C 450.805,501.843 445.138,505.677 439.5,509.5C 439.167,509.5 438.833,509.5 438.5,509.5C 443.839,502.161 450.173,495.827 457.5,490.5C 461.025,489.79 464.358,488.79 467.5,487.5C 479.378,484.663 491.045,484.996 502.5,488.5 Z"/></g>
<g><path style="opacity:1" fill="#f4e7b2" d="M 502.5,488.5 C 512.83,490.498 523.163,492.498 533.5,494.5C 542.326,498.979 550.66,504.313 558.5,510.5C 564.963,517.286 570.629,524.62 575.5,532.5C 575.5,532.833 575.5,533.167 575.5,533.5C 575.423,534.75 574.756,535.583 573.5,536C 570.854,536.497 568.187,536.664 565.5,536.5C 553.336,509.665 532.503,496.665 503,497.5C 502.289,499.367 502.789,500.867 504.5,502C 512.853,506.118 521.52,509.452 530.5,512C 541.992,516.993 550.325,525.159 555.5,536.5C 551.466,536.495 547.466,536.162 543.5,535.5C 542.833,534.833 542.167,534.167 541.5,533.5C 533.498,523.832 523.498,517.166 511.5,513.5C 505.703,511.311 499.703,509.978 493.5,509.5C 491.369,508.686 489.036,508.186 486.5,508C 480.995,503.119 476.328,497.619 472.5,491.5C 482.273,488.842 492.273,487.842 502.5,488.5 Z"/></g>
<g><path style="opacity:1" fill="#8b6d37" d="M 785.5,473.5 C 800.518,482.673 815.184,492.339 829.5,502.5C 824.188,501.605 818.855,500.771 813.5,500C 807.651,499.182 801.985,499.348 796.5,500.5C 792.167,500.5 787.833,500.5 783.5,500.5C 790.002,492.73 790.002,485.063 783.5,477.5C 783.229,475.62 783.896,474.287 785.5,473.5 Z"/></g>
<g><path style="opacity:1" fill="#eede9f" d="M 275.5,492.5 C 281.997,497.585 288.997,501.918 296.5,505.5C 301.865,508.514 307.199,511.514 312.5,514.5C 307.922,513.085 303.255,512.085 298.5,511.5C 298.95,515.232 300.617,518.398 303.5,521C 319.53,533.844 337.864,540.01 358.5,539.5C 358.5,539.833 358.5,540.167 358.5,540.5C 349.989,542.782 341.655,545.449 333.5,548.5C 307.81,538.157 283.477,525.491 260.5,510.5C 264.859,503.822 269.859,497.822 275.5,492.5 Z"/></g>
<g><path style="opacity:1" fill="#fefdf9" d="M 394.5,493.5 C 399.484,494.275 404.484,494.942 409.5,495.5C 410.234,496.708 410.567,498.041 410.5,499.5C 404.272,499.713 398.939,497.713 394.5,493.5 Z"/></g>
<g><path style="opacity:1" fill="#f9f6f2" d="M 440.5,494.5 C 441.239,494.369 441.906,494.536 442.5,495C 436.6,500.825 430.6,500.991 424.5,495.5C 429.862,495.528 435.195,495.194 440.5,494.5 Z"/></g>
<g><path style="opacity:1" fill="#b59b58" d="M 588.5,490.5 C 588.389,491.117 588.056,491.617 587.5,492C 595.974,495.428 604.308,498.928 612.5,502.5C 610.716,504.948 609.382,507.615 608.5,510.5C 603.395,509.188 598.229,508.188 593,507.5C 581.509,508.679 570.009,509.679 558.5,510.5C 550.66,504.313 542.326,498.979 533.5,494.5C 543.308,495.767 552.974,495.767 562.5,494.5C 571.305,493.983 579.972,492.65 588.5,490.5 Z"/></g>
<g><path style="opacity:1" fill="#b7a456" d="M 225.5,489.5 C 228.06,491.273 230.393,493.273 232.5,495.5C 231.4,496.605 230.733,497.938 230.5,499.5C 225.527,505.14 220.194,510.473 214.5,515.5C 213.726,514.853 212.726,514.52 211.5,514.5C 198.86,516.744 186.527,519.744 174.5,523.5C 156.035,519.594 138.702,512.927 122.5,503.5C 136.886,499.42 151.553,497.087 166.5,496.5C 178.505,496.667 190.505,496.5 202.5,496C 208.258,495.515 213.925,494.515 219.5,493C 222.152,492.647 224.152,491.48 225.5,489.5 Z"/></g>
<g><path style="opacity:1" fill="#f2e4ac" d="M 386.5,491.5 C 388.806,491.993 391.139,492.326 393.5,492.5C 393.5,493.167 393.833,493.5 394.5,493.5C 398.939,497.713 404.272,499.713 410.5,499.5C 410.567,498.041 410.234,496.708 409.5,495.5C 410.833,495.5 412.167,495.5 413.5,495.5C 415.369,496.165 417.369,496.831 419.5,497.5C 422.35,502.194 424.35,507.194 425.5,512.5C 425.773,514.451 425.107,515.951 423.5,517C 416.155,520.256 408.655,523.09 401,525.5C 400.235,525.43 399.735,525.097 399.5,524.5C 400.933,519.35 400.433,514.35 398,509.5C 394.732,503.08 390.899,497.08 386.5,491.5 Z"/></g>
<g><path style="opacity:1" fill="#bea45f" d="M 457.5,490.5 C 450.173,495.827 443.839,502.161 438.5,509.5C 435.021,511.742 431.354,513.742 427.5,515.5C 426.824,514.398 426.158,513.398 425.5,512.5C 424.35,507.194 422.35,502.194 419.5,497.5C 417.369,496.831 415.369,496.165 413.5,495.5C 417.167,495.5 420.833,495.5 424.5,495.5C 430.6,500.991 436.6,500.825 442.5,495C 441.906,494.536 441.239,494.369 440.5,494.5C 446.054,493.185 451.721,491.852 457.5,490.5 Z"/></g>
<g><path style="opacity:1" fill="#fefefc" d="M 565.5,536.5 C 566.39,538.782 566.556,541.115 566,543.5C 565.439,544.022 564.772,544.355 564,544.5C 560.653,542.318 557.819,539.651 555.5,536.5C 550.325,525.159 541.992,516.993 530.5,512C 521.52,509.452 512.853,506.118 504.5,502C 502.789,500.867 502.289,499.367 503,497.5C 532.503,496.665 553.336,509.665 565.5,536.5 Z"/></g>
<g><path style="opacity:1" fill="#cfcece" d="M 977.5,507.5 C 976.956,511.673 975.79,515.673 974,519.5C 964.858,536.477 952.358,550.477 936.5,561.5C 936.586,560.504 936.252,559.671 935.5,559C 928.348,554.671 921.348,550.171 914.5,545.5C 915.275,536.857 914.108,528.524 911,520.5C 910.303,518.416 909.136,516.749 907.5,515.5C 906.787,512.406 905.787,509.406 904.5,506.5C 910.452,499.013 911.952,490.68 909,481.5C 907.459,479.523 906.959,477.523 907.5,475.5C 920.822,485.162 934.489,494.329 948.5,503C 958.013,505.546 967.68,507.046 977.5,507.5 Z"/></g>
<g><path style="opacity:1" fill="#bba85c" d="M 713.5,484.5 C 720.3,491.47 726.967,498.636 733.5,506C 734.527,506.513 735.527,507.013 736.5,507.5C 738.263,511.099 740.93,513.932 744.5,516C 755.295,521.549 766.628,524.716 778.5,525.5C 777.325,525.281 776.325,525.614 775.5,526.5C 776.246,527.736 776.579,529.07 776.5,530.5C 770.111,532.014 763.778,533.68 757.5,535.5C 756.449,527.276 752.116,521.442 744.5,518C 735.524,517.147 726.69,515.647 718,513.5C 712.19,514.267 706.357,514.601 700.5,514.5C 701.55,503.068 705.883,493.068 713.5,484.5 Z"/></g>
<g><path style="opacity:1" fill="#fdfcf8" d="M 803.5,504.5 C 814.557,507.358 825.224,511.525 835.5,517C 839.323,518.641 841.323,521.474 841.5,525.5C 833.442,523.477 825.776,520.31 818.5,516C 813.671,514.042 808.671,512.876 803.5,512.5C 791.569,511.199 779.569,509.366 767.5,507C 760.15,505.887 753.483,503.22 747.5,499C 766.207,500.229 784.874,502.062 803.5,504.5 Z"/></g>
<g><path style="opacity:1" fill="#f0e1a6" d="M 472.5,491.5 C 476.328,497.619 480.995,503.119 486.5,508C 489.036,508.186 491.369,508.686 493.5,509.5C 490.5,509.5 487.5,509.5 484.5,509.5C 478.262,509.392 472.262,510.559 466.5,513C 460.591,516.426 454.591,519.592 448.5,522.5C 445.085,518.424 442.085,514.091 439.5,509.5C 445.138,505.677 450.805,501.843 456.5,498C 461.525,494.985 466.858,492.818 472.5,491.5 Z"/></g>
<g><path style="opacity:0.999" fill="#aeaeae" d="M 10.5,494.5 C 19.4637,511.48 31.1303,526.48 45.5,539.5C 76.6272,611.964 122.627,673.298 183.5,723.5C 182.89,724.391 182.557,725.391 182.5,726.5C 149.958,706.48 121.125,681.813 96,652.5C 70.7566,623.906 49.4233,592.573 32,558.5C 22.5332,537.933 15.3665,516.599 10.5,494.5 Z"/></g>
<g><path style="opacity:1" fill="#e6d387" d="M 120.5,502.5 C 121.167,502.833 121.833,503.167 122.5,503.5C 138.702,512.927 156.035,519.594 174.5,523.5C 182.791,525.375 191.125,527.041 199.5,528.5C 192.91,535.366 187.577,543.032 183.5,551.5C 167.286,546.762 151.286,541.429 135.5,535.5C 129.859,524.887 124.192,514.22 118.5,503.5C 118.957,502.702 119.624,502.369 120.5,502.5 Z"/></g>
<g><path style="opacity:1" fill="#b2a153" d="M 273.5,476.5 C 274.987,480.116 276.32,483.783 277.5,487.5C 276.559,489.05 275.893,490.716 275.5,492.5C 269.859,497.822 264.859,503.822 260.5,510.5C 259.662,510.842 259.328,511.508 259.5,512.5C 254.597,517.974 249.93,523.64 245.5,529.5C 242.194,532.14 239.194,535.14 236.5,538.5C 228.239,544.017 223.239,551.684 221.5,561.5C 220.102,564.007 220.436,566.34 222.5,568.5C 221.351,568.791 220.684,569.624 220.5,571C 221.275,573.822 221.942,576.656 222.5,579.5C 215.925,570.254 213.758,559.921 216,548.5C 217.393,544.714 219.059,541.048 221,537.5C 226.703,531.965 232.203,526.298 237.5,520.5C 241.165,517.667 244.332,514.334 247,510.5C 254.279,499.394 262.112,488.727 270.5,478.5C 271.5,477.833 272.5,477.167 273.5,476.5 Z"/></g>
<g><path style="opacity:1" fill="#b39956" d="M 380.5,490.5 C 382.565,490.517 384.565,490.85 386.5,491.5C 390.899,497.08 394.732,503.08 398,509.5C 400.433,514.35 400.933,519.35 399.5,524.5C 398.662,524.842 398.328,525.508 398.5,526.5C 391.242,529.959 383.575,531.293 375.5,530.5C 358.441,528.547 341.774,524.88 325.5,519.5C 323.91,517.766 321.91,516.6 319.5,516C 331.833,515.667 344.167,515.333 356.5,515C 368.75,510.917 376.75,502.751 380.5,490.5 Z"/></g>
<g><path style="opacity:1" fill="#eddd9c" d="M 608.5,510.5 C 620.811,514.16 632.477,519.16 643.5,525.5C 639.479,531.521 634.479,536.521 628.5,540.5C 615.759,536.565 602.759,533.732 589.5,532C 584.648,531.185 579.981,531.352 575.5,532.5C 570.629,524.62 564.963,517.286 558.5,510.5C 570.009,509.679 581.509,508.679 593,507.5C 598.229,508.188 603.395,509.188 608.5,510.5 Z"/></g>
<g><path style="opacity:1" fill="#9f8347" d="M 259.5,512.5 C 266.203,516.847 272.87,521.18 279.5,525.5C 273.824,525.334 268.157,525.501 262.5,526C 256.846,527.275 251.18,528.441 245.5,529.5C 249.93,523.64 254.597,517.974 259.5,512.5 Z"/></g>
<g><path style="opacity:1" fill="#fefefc" d="M 312.5,514.5 C 316.534,516.737 320.868,518.404 325.5,519.5C 339.623,524.766 353.623,530.432 367.5,536.5C 364.811,538.117 361.811,539.117 358.5,539.5C 337.864,540.01 319.53,533.844 303.5,521C 300.617,518.398 298.95,515.232 298.5,511.5C 303.255,512.085 307.922,513.085 312.5,514.5 Z"/></g>
<g><path style="opacity:1" fill="#bba25d" d="M 484.5,509.5 C 487.5,509.5 490.5,509.5 493.5,509.5C 499.703,509.978 505.703,511.311 511.5,513.5C 483.438,519.531 459.438,532.864 439.5,553.5C 448.557,541.599 458.223,530.099 468.5,519C 473.764,515.542 479.097,512.375 484.5,509.5 Z"/></g>
<g><path style="opacity:1" fill="#f0e1a5" d="M 511.5,513.5 C 523.498,517.166 533.498,523.832 541.5,533.5C 516.154,536.726 492.488,544.726 470.5,557.5C 465.515,558.248 460.515,558.915 455.5,559.5C 463.567,551.099 470.9,542.099 477.5,532.5C 477,532.167 476.5,531.833 476,531.5C 461.567,539.101 449.067,549.101 438.5,561.5C 437.081,560.549 435.415,560.216 433.5,560.5C 435.5,558.167 437.5,555.833 439.5,553.5C 459.438,532.864 483.438,519.531 511.5,513.5 Z"/></g>
<g><path style="opacity:1" fill="#977a41" d="M 757.5,535.5 C 740.095,539.744 723.428,545.744 707.5,553.5C 706.5,553.5 705.5,553.5 704.5,553.5C 703.912,550.39 703.245,547.39 702.5,544.5C 702.164,534.476 701.497,524.476 700.5,514.5C 706.357,514.601 712.19,514.267 718,513.5C 726.69,515.647 735.524,517.147 744.5,518C 752.116,521.442 756.449,527.276 757.5,535.5 Z"/></g>
<g><path style="opacity:1" fill="#fefdfa" d="M 602.5,514.5 C 608.221,514.369 613.888,514.869 619.5,516C 627.324,518.403 627.324,521.07 619.5,524C 612.235,525.588 605.735,524.088 600,519.5C 599.833,519 599.667,518.5 599.5,518C 600.544,516.826 601.544,515.659 602.5,514.5 Z"/></g>
<g><path style="opacity:1" fill="#a78c4d" d="M 612.5,502.5 C 623.77,507.091 635.103,511.591 646.5,516C 655.691,518.178 665.025,519.011 674.5,518.5C 675.445,526.56 676.779,534.56 678.5,542.5C 666.68,537.09 655.013,531.423 643.5,525.5C 632.477,519.16 620.811,514.16 608.5,510.5C 609.382,507.615 610.716,504.948 612.5,502.5 Z"/></g>
<g><path style="opacity:1" fill="#94763e" d="M 214.5,515.5 C 209.154,519.518 204.154,523.851 199.5,528.5C 191.125,527.041 182.791,525.375 174.5,523.5C 186.527,519.744 198.86,516.744 211.5,514.5C 212.726,514.52 213.726,514.853 214.5,515.5 Z"/></g>
<g><path style="opacity:1" fill="#eddc9a" d="M 438.5,509.5 C 438.833,509.5 439.167,509.5 439.5,509.5C 442.085,514.091 445.085,518.424 448.5,522.5C 443.033,526.071 437.367,529.404 431.5,532.5C 425.064,536.052 418.397,539.052 411.5,541.5C 408.677,537.195 405.844,532.862 403,528.5C 401.89,526.963 400.39,526.297 398.5,526.5C 398.328,525.508 398.662,524.842 399.5,524.5C 399.735,525.097 400.235,525.43 401,525.5C 408.655,523.09 416.155,520.256 423.5,517C 425.107,515.951 425.773,514.451 425.5,512.5C 426.158,513.398 426.824,514.398 427.5,515.5C 431.354,513.742 435.021,511.742 438.5,509.5 Z"/></g>
<g><path style="opacity:1" fill="#cfbb6e" d="M 260.5,510.5 C 283.477,525.491 307.81,538.157 333.5,548.5C 331.574,549.486 329.574,550.486 327.5,551.5C 327.53,550.503 327.03,549.836 326,549.5C 318.627,546.563 311.46,543.229 304.5,539.5C 296.192,534.874 287.858,530.208 279.5,525.5C 272.87,521.18 266.203,516.847 259.5,512.5C 259.328,511.508 259.662,510.842 260.5,510.5 Z"/></g>
<g><path style="opacity:1" fill="#beab60" d="M 279.5,525.5 C 287.858,530.208 296.192,534.874 304.5,539.5C 304.062,539.435 303.728,539.601 303.5,540C 307.477,544.799 310.81,549.965 313.5,555.5C 309.524,558.469 305.524,561.469 301.5,564.5C 300.391,564.557 299.391,564.89 298.5,565.5C 296.276,562.376 293.276,560.209 289.5,559C 282.769,556.447 276.102,554.947 269.5,554.5C 259.978,546.24 248.978,540.906 236.5,538.5C 239.194,535.14 242.194,532.14 245.5,529.5C 251.18,528.441 256.846,527.275 262.5,526C 268.157,525.501 273.824,525.334 279.5,525.5 Z"/></g>
<g><path style="opacity:1" fill="#f0e1a7" d="M 325.5,519.5 C 341.774,524.88 358.441,528.547 375.5,530.5C 377.631,531.314 379.964,531.814 382.5,532C 377.452,533.405 372.452,534.905 367.5,536.5C 353.623,530.432 339.623,524.766 325.5,519.5 Z"/></g>
<g><path style="opacity:1" fill="#e9d790" d="M 643.5,525.5 C 655.013,531.423 666.68,537.09 678.5,542.5C 680.62,550.423 683.62,558.09 687.5,565.5C 692.851,560.982 697.685,555.982 702,550.5C 702.495,548.527 702.662,546.527 702.5,544.5C 703.245,547.39 703.912,550.39 704.5,553.5C 704.833,560.833 705.167,568.167 705.5,575.5C 702.047,579.294 698.047,582.294 693.5,584.5C 692.028,580.083 690.362,575.75 688.5,571.5C 688.249,569.83 687.582,568.33 686.5,567C 667.196,557.844 647.862,549.01 628.5,540.5C 634.479,536.521 639.479,531.521 643.5,525.5 Z"/></g>
<g><path style="opacity:1" fill="#8f713a" d="M 778.5,525.5 C 782.36,525.808 786.026,526.475 789.5,527.5C 785.127,528.343 780.793,529.343 776.5,530.5C 776.579,529.07 776.246,527.736 775.5,526.5C 776.325,525.614 777.325,525.281 778.5,525.5 Z"/></g>
<g><path style="opacity:1" fill="#b19e50" d="M 102.5,524.5 C 114.799,532.149 127.799,538.482 141.5,543.5C 141.813,547.042 141.479,550.375 140.5,553.5C 128.468,548.736 117.635,542.07 108,533.5C 105.653,530.806 103.82,527.806 102.5,524.5 Z"/></g>
<g><path style="opacity:1" fill="#dfc96f" d="M 789.5,527.5 C 803.8,528.104 817.466,531.27 830.5,537C 815.176,541.618 799.509,544.285 783.5,545C 766.613,548.783 750.947,555.283 736.5,564.5C 734.036,562.43 731.369,560.596 728.5,559C 721.578,556.718 714.578,554.885 707.5,553.5C 723.428,545.744 740.095,539.744 757.5,535.5C 763.778,533.68 770.111,532.014 776.5,530.5C 780.793,529.343 785.127,528.343 789.5,527.5 Z"/></g>
<g><path style="opacity:1" fill="#c0ac5d" d="M 87.5,512.5 C 102.403,522.283 118.403,529.95 135.5,535.5C 151.286,541.429 167.286,546.762 183.5,551.5C 181.505,557.77 181.172,564.103 182.5,570.5C 177.164,569.332 172.164,567.332 167.5,564.5C 171.287,561.433 175.287,558.6 179.5,556C 166.607,552.536 153.94,548.369 141.5,543.5C 127.799,538.482 114.799,532.149 102.5,524.5C 99.8159,522.807 97.1492,521.14 94.5,519.5C 91.973,517.395 89.6397,515.061 87.5,512.5 Z"/></g>
<g><path style="opacity:1" fill="#816232" d="M 94.5,519.5 C 97.1492,521.14 99.8159,522.807 102.5,524.5C 103.82,527.806 105.653,530.806 108,533.5C 117.635,542.07 128.468,548.736 140.5,553.5C 140.932,554.71 141.599,555.71 142.5,556.5C 143.227,558.954 144.227,561.287 145.5,563.5C 126.172,554.845 108.172,544.179 91.5,531.5C 89.725,526.823 90.725,522.823 94.5,519.5 Z"/></g>
<g><path style="opacity:1" fill="#e0ca71" d="M 230.5,499.5 C 232.081,506.853 234.414,513.853 237.5,520.5C 232.203,526.298 226.703,531.965 221,537.5C 219.059,541.048 217.393,544.714 216,548.5C 213.758,559.921 215.925,570.254 222.5,579.5C 223.69,583.026 225.69,586.026 228.5,588.5C 232.5,592.167 236.5,595.833 240.5,599.5C 222.59,594.865 205.257,588.865 188.5,581.5C 185.752,578.268 183.752,574.602 182.5,570.5C 181.172,564.103 181.505,557.77 183.5,551.5C 187.577,543.032 192.91,535.366 199.5,528.5C 204.154,523.851 209.154,519.518 214.5,515.5C 220.194,510.473 225.527,505.14 230.5,499.5 Z"/></g>
<g><path style="opacity:1" fill="#fefdfb" d="M 455.5,559.5 C 451.038,563.627 446.038,566.961 440.5,569.5C 439.558,569.392 438.725,569.059 438,568.5C 437.444,566.115 437.61,563.782 438.5,561.5C 449.067,549.101 461.567,539.101 476,531.5C 476.5,531.833 477,532.167 477.5,532.5C 470.9,542.099 463.567,551.099 455.5,559.5 Z"/></g>
<g><path style="opacity:1" fill="#e9d78e" d="M 398.5,526.5 C 400.39,526.297 401.89,526.963 403,528.5C 405.844,532.862 408.677,537.195 411.5,541.5C 411.027,542.906 410.027,543.573 408.5,543.5C 395.042,545.946 381.708,548.946 368.5,552.5C 366.779,548.727 364.779,545.061 362.5,541.5C 361.311,540.571 359.978,540.238 358.5,540.5C 358.5,540.167 358.5,539.833 358.5,539.5C 361.811,539.117 364.811,538.117 367.5,536.5C 372.452,534.905 377.452,533.405 382.5,532C 379.964,531.814 377.631,531.314 375.5,530.5C 383.575,531.293 391.242,529.959 398.5,526.5 Z"/></g>
<g><path style="opacity:1" fill="#d1bd70" d="M 541.5,533.5 C 542.167,534.167 542.833,534.833 543.5,535.5C 544.5,537.5 545.5,539.5 546.5,541.5C 503.553,544.971 468.886,563.638 442.5,597.5C 436.861,603.474 431.195,609.474 425.5,615.5C 424.069,617.437 422.402,619.27 420.5,621C 413.934,625.113 407.267,628.946 400.5,632.5C 394.81,631.979 389.144,631.312 383.5,630.5C 393.33,626.365 402.996,621.532 412.5,616C 423.399,605.77 433.566,594.937 443,583.5C 451.76,574.235 460.927,565.569 470.5,557.5C 492.488,544.726 516.154,536.726 541.5,533.5 Z"/></g>
<g><path style="opacity:1" fill="#bfab59" d="M 736.5,507.5 C 743.509,512.118 751.175,515.285 759.5,517C 771.528,518.318 783.528,519.818 795.5,521.5C 808.481,523.771 820.814,527.938 832.5,534C 837.162,537.29 838.495,541.457 836.5,546.5C 836.44,545.957 836.107,545.624 835.5,545.5C 820.527,549.852 805.193,552.352 789.5,553C 783.006,554.372 776.673,556.206 770.5,558.5C 764.786,561.252 759.119,563.919 753.5,566.5C 749.548,568.146 746.215,570.479 743.5,573.5C 740.027,571.363 737.694,568.363 736.5,564.5C 750.947,555.283 766.613,548.783 783.5,545C 799.509,544.285 815.176,541.618 830.5,537C 817.466,531.27 803.8,528.104 789.5,527.5C 786.026,526.475 782.36,525.808 778.5,525.5C 766.628,524.716 755.295,521.549 744.5,516C 740.93,513.932 738.263,511.099 736.5,507.5 Z"/></g>
<g><path style="opacity:1" fill="#bba856" d="M 872.5,577.5 C 871.958,583.225 868.958,585.725 863.5,585C 860.976,579.957 860.976,574.791 863.5,569.5C 853.666,572.274 843.666,575.44 833.5,579C 825.723,581.89 817.723,583.223 809.5,583C 808.577,580.959 808.244,578.792 808.5,576.5C 813.17,576.489 817.503,575.489 821.5,573.5C 831.568,573.028 840.902,570.362 849.5,565.5C 855.916,563.125 861.916,559.959 867.5,556C 870.433,553.736 872.6,550.902 874,547.5C 876.01,537.349 872.843,529.182 864.5,523C 865.609,522.362 866.775,521.862 868,521.5C 874.059,529.069 879.559,537.069 884.5,545.5C 877.041,557.584 869.708,569.75 862.5,582C 865.835,580.839 869.168,579.339 872.5,577.5 Z"/></g>
<g><path style="opacity:1" fill="#ead992" d="M 236.5,538.5 C 248.978,540.906 259.978,546.24 269.5,554.5C 276.157,559.825 282.49,565.491 288.5,571.5C 284.227,577.442 279.227,582.776 273.5,587.5C 258.563,576.2 241.896,568.367 223.5,564C 222.244,563.583 221.577,562.75 221.5,561.5C 223.239,551.684 228.239,544.017 236.5,538.5 Z"/></g>
<g><path style="opacity:1" fill="#a68a4c" d="M 304.5,539.5 C 311.46,543.229 318.627,546.563 326,549.5C 327.03,549.836 327.53,550.503 327.5,551.5C 324.341,552.331 321.341,553.331 318.5,554.5C 316.784,554.629 315.117,554.962 313.5,555.5C 310.81,549.965 307.477,544.799 303.5,540C 303.728,539.601 304.062,539.435 304.5,539.5 Z"/></g>
<g><path style="opacity:1" fill="#d8d8d8" d="M 45.5,539.5 C 56.0587,548.22 67.0587,556.387 78.5,564C 92.9632,572.223 107.297,580.39 121.5,588.5C 136.421,615.424 154.087,640.424 174.5,663.5C 179.528,668.86 184.528,674.193 189.5,679.5C 195.163,685.996 201.329,691.996 208,697.5C 209.832,672.531 210.999,647.531 211.5,622.5C 218.051,624.13 224.385,626.13 230.5,628.5C 229.179,631.598 228.512,635.098 228.5,639C 227.515,660.501 226.515,682.001 225.5,703.5C 225.833,707.167 226.167,710.833 226.5,714.5C 229.158,716.831 231.824,719.164 234.5,721.5C 238.639,725.468 242.973,729.301 247.5,733C 246.906,733.464 246.239,733.631 245.5,733.5C 232.059,727.298 218.059,722.798 203.5,720C 196.366,718.751 189.699,719.918 183.5,723.5C 122.627,673.298 76.6272,611.964 45.5,539.5 Z"/></g>
<g><path style="opacity:1" fill="#886a36" d="M 141.5,543.5 C 153.94,548.369 166.607,552.536 179.5,556C 175.287,558.6 171.287,561.433 167.5,564.5C 172.164,567.332 177.164,569.332 182.5,570.5C 183.752,574.602 185.752,578.268 188.5,581.5C 178.016,577.894 167.683,573.894 157.5,569.5C 157.47,568.503 157.97,567.836 159,567.5C 161.245,566.863 163.412,566.03 165.5,565C 158.952,561.814 152.285,558.814 145.5,556C 144.251,555.26 143.251,555.427 142.5,556.5C 141.599,555.71 140.932,554.71 140.5,553.5C 141.479,550.375 141.813,547.042 141.5,543.5 Z"/></g>
<g><path style="opacity:1" fill="#e4d181" d="M 358.5,540.5 C 359.978,540.238 361.311,540.571 362.5,541.5C 364.779,545.061 366.779,548.727 368.5,552.5C 365.198,552.912 362.531,554.245 360.5,556.5C 356.466,556.517 352.799,557.517 349.5,559.5C 342.281,561.895 335.614,565.229 329.5,569.5C 329.167,569.5 328.833,569.5 328.5,569.5C 327.32,566.46 325.653,563.794 323.5,561.5C 325.85,559.787 326.85,557.453 326.5,554.5C 323.833,554.5 321.167,554.5 318.5,554.5C 321.341,553.331 324.341,552.331 327.5,551.5C 329.574,550.486 331.574,549.486 333.5,548.5C 341.655,545.449 349.989,542.782 358.5,540.5 Z"/></g>
<g><path style="opacity:1" fill="#a88d4e" d="M 578.5,538.5 C 599.379,537.772 619.379,541.439 638.5,549.5C 631.442,556.554 624.775,563.888 618.5,571.5C 611.993,567.739 605.993,563.239 600.5,558C 595.234,554.697 589.567,552.53 583.5,551.5C 582.03,547.088 580.363,542.755 578.5,538.5 Z"/></g>
<g><path style="opacity:1" fill="#c3b067" d="M 484.5,509.5 C 479.097,512.375 473.764,515.542 468.5,519C 458.223,530.099 448.557,541.599 439.5,553.5C 437.5,555.833 435.5,558.167 433.5,560.5C 430.194,564.473 426.527,568.14 422.5,571.5C 422.103,570.475 421.437,570.308 420.5,571C 409.283,581.41 395.95,586.744 380.5,587C 363.138,587.86 345.804,587.526 328.5,586C 322.698,585.427 317.698,583.26 313.5,579.5C 317.947,575.436 322.947,572.102 328.5,569.5C 328.833,569.5 329.167,569.5 329.5,569.5C 335.917,572.099 342.584,572.933 349.5,572C 361.604,570.455 373.27,567.622 384.5,563.5C 390.932,563.038 397.266,561.538 403.5,559C 414.367,551.629 423.7,542.796 431.5,532.5C 437.367,529.404 443.033,526.071 448.5,522.5C 454.591,519.592 460.591,516.426 466.5,513C 472.262,510.559 478.262,509.392 484.5,509.5 Z"/></g>
<g><path style="opacity:1" fill="#7f5f2f" d="M 914.5,545.5 C 921.348,550.171 928.348,554.671 935.5,559C 936.252,559.671 936.586,560.504 936.5,561.5C 930.698,565.572 924.698,569.406 918.5,573C 873.383,595.65 826.05,611.817 776.5,621.5C 776.5,620.833 776.5,620.167 776.5,619.5C 785.232,617.65 793.899,615.484 802.5,613C 799.517,611.365 796.851,609.532 794.5,607.5C 795.239,607.631 795.906,607.464 796.5,607C 794.14,605.82 791.807,604.653 789.5,603.5C 793.555,594.389 797.888,585.389 802.5,576.5C 804.5,576.5 806.5,576.5 808.5,576.5C 808.244,578.792 808.577,580.959 809.5,583C 817.723,583.223 825.723,581.89 833.5,579C 843.666,575.44 853.666,572.274 863.5,569.5C 860.976,574.791 860.976,579.957 863.5,585C 868.958,585.725 871.958,583.225 872.5,577.5C 873.391,576.89 874.391,576.557 875.5,576.5C 873.795,581.555 871.129,586.555 867.5,591.5C 877.415,587.575 887.415,583.075 897.5,578C 905.704,568.424 911.37,557.591 914.5,545.5 Z"/></g>
<g><path style="opacity:1" fill="#ccb86a" d="M 628.5,540.5 C 647.862,549.01 667.196,557.844 686.5,567C 687.582,568.33 688.249,569.83 688.5,571.5C 685.167,570.167 681.833,568.833 678.5,567.5C 665.698,560.435 652.365,554.435 638.5,549.5C 619.379,541.439 599.379,537.772 578.5,538.5C 577.737,536.632 576.737,534.965 575.5,533.5C 575.5,533.167 575.5,532.833 575.5,532.5C 579.981,531.352 584.648,531.185 589.5,532C 602.759,533.732 615.759,536.565 628.5,540.5 Z"/></g>
<g><path style="opacity:1" fill="#fefdfa" d="M 241.5,549.5 C 246.818,549.913 251.818,551.413 256.5,554C 263.061,557.44 269.061,561.606 274.5,566.5C 264.081,567.978 254.414,565.811 245.5,560C 241.766,557.197 240.433,553.697 241.5,549.5 Z"/></g>
<g><path style="opacity:1" fill="#eede9f" d="M 408.5,543.5 C 399.126,553.448 387.459,558.115 373.5,557.5C 369.149,557.291 364.815,556.957 360.5,556.5C 362.531,554.245 365.198,552.912 368.5,552.5C 381.708,548.946 395.042,545.946 408.5,543.5 Z"/></g>
<g><path style="opacity:1" fill="#866734" d="M 836.5,546.5 C 833.088,552.247 828.422,556.581 822.5,559.5C 817.116,560.023 812.782,562.357 809.5,566.5C 803.277,567.062 800.943,570.396 802.5,576.5C 797.888,585.389 793.555,594.389 789.5,603.5C 786.46,602.32 783.794,600.653 781.5,598.5C 778.045,589.637 774.879,580.637 772,571.5C 770.925,567.23 770.425,562.897 770.5,558.5C 776.673,556.206 783.006,554.372 789.5,553C 805.193,552.352 820.527,549.852 835.5,545.5C 836.107,545.624 836.44,545.957 836.5,546.5 Z"/></g>
<g><path style="opacity:0.981" fill="#d8d8d8" d="M 997.5,548.5 C 984.614,583.627 966.114,615.294 942,643.5C 910.979,679.369 876.145,710.703 837.5,737.5C 838.275,733.818 836.941,731.318 833.5,730C 824.524,728.911 815.857,730.078 807.5,733.5C 836.878,711.975 864.378,687.975 890,661.5C 908.363,641.981 924.197,620.647 937.5,597.5C 960.924,585.442 980.924,569.109 997.5,548.5 Z"/></g>
<g><path style="opacity:1" fill="#c2af65" d="M 550.5,553.5 C 552.023,560.611 552.69,567.944 552.5,575.5C 552.5,576.167 552.167,576.5 551.5,576.5C 551.5,575.167 551.5,573.833 551.5,572.5C 542.085,575.203 533.085,579.037 524.5,584C 510.564,594.137 495.564,602.47 479.5,609C 461.687,612.643 443.687,614.81 425.5,615.5C 431.195,609.474 436.861,603.474 442.5,597.5C 457.898,599.99 471.898,596.823 484.5,588C 502.405,568.879 524.405,557.379 550.5,553.5 Z"/></g>
<g><path style="opacity:1" fill="#9f8347" d="M 269.5,554.5 C 276.102,554.947 282.769,556.447 289.5,559C 293.276,560.209 296.276,562.376 298.5,565.5C 295.426,568.033 292.093,570.033 288.5,571.5C 282.49,565.491 276.157,559.825 269.5,554.5 Z"/></g>
<g><path style="opacity:1" fill="#fefdfb" d="M 318.5,554.5 C 321.167,554.5 323.833,554.5 326.5,554.5C 326.85,557.453 325.85,559.787 323.5,561.5C 314.013,570.652 303.013,577.319 290.5,581.5C 290.491,579.692 290.991,578.025 292,576.5C 295.381,572.625 298.547,568.625 301.5,564.5C 305.524,561.469 309.524,558.469 313.5,555.5C 315.117,554.962 316.784,554.629 318.5,554.5 Z"/></g>
<g><path style="opacity:1" fill="#f0e1a6" d="M 575.5,533.5 C 576.737,534.965 577.737,536.632 578.5,538.5C 580.363,542.755 582.03,547.088 583.5,551.5C 585.268,557.343 586.268,563.343 586.5,569.5C 586.5,570.833 586.5,572.167 586.5,573.5C 575.236,575.133 563.903,575.8 552.5,575.5C 552.69,567.944 552.023,560.611 550.5,553.5C 549.768,549.303 548.434,545.303 546.5,541.5C 545.5,539.5 544.5,537.5 543.5,535.5C 547.466,536.162 551.466,536.495 555.5,536.5C 557.819,539.651 560.653,542.318 564,544.5C 564.772,544.355 565.439,544.022 566,543.5C 566.556,541.115 566.39,538.782 565.5,536.5C 568.187,536.664 570.854,536.497 573.5,536C 574.756,535.583 575.423,534.75 575.5,533.5 Z"/></g>
<g><path style="opacity:1" fill="#a18548" d="M 638.5,549.5 C 652.365,554.435 665.698,560.435 678.5,567.5C 669.172,573.826 659.838,580.159 650.5,586.5C 639.252,582.645 628.586,577.645 618.5,571.5C 624.775,563.888 631.442,556.554 638.5,549.5 Z"/></g>
<g><path style="opacity:1" fill="#d1bd70" d="M 431.5,532.5 C 423.7,542.796 414.367,551.629 403.5,559C 397.266,561.538 390.932,563.038 384.5,563.5C 379.156,563.666 373.823,563.499 368.5,563C 362.239,561.351 355.906,560.184 349.5,559.5C 352.799,557.517 356.466,556.517 360.5,556.5C 364.815,556.957 369.149,557.291 373.5,557.5C 387.459,558.115 399.126,553.448 408.5,543.5C 410.027,543.573 411.027,542.906 411.5,541.5C 418.397,539.052 425.064,536.052 431.5,532.5 Z"/></g>
<g><path style="opacity:1" fill="#e5d180" d="M 704.5,553.5 C 705.5,553.5 706.5,553.5 707.5,553.5C 714.578,554.885 721.578,556.718 728.5,559C 731.369,560.596 734.036,562.43 736.5,564.5C 737.694,568.363 740.027,571.363 743.5,573.5C 744.833,575.5 746.5,577.167 748.5,578.5C 745.165,582.675 741.998,587.008 739,591.5C 738.329,592.252 737.496,592.586 736.5,592.5C 727.326,586.745 717.66,581.745 707.5,577.5C 706.516,580.428 706.183,583.428 706.5,586.5C 705.518,583.038 705.185,579.371 705.5,575.5C 705.167,568.167 704.833,560.833 704.5,553.5 Z"/></g>
<g><path style="opacity:1" fill="#b29f52" d="M 157.5,569.5 C 153.435,567.467 149.435,565.467 145.5,563.5C 144.227,561.287 143.227,558.954 142.5,556.5C 143.251,555.427 144.251,555.26 145.5,556C 152.285,558.814 158.952,561.814 165.5,565C 163.412,566.03 161.245,566.863 159,567.5C 157.97,567.836 157.47,568.503 157.5,569.5 Z"/></g>
<g><path style="opacity:1" fill="#a88d4e" d="M 349.5,559.5 C 355.906,560.184 362.239,561.351 368.5,563C 373.823,563.499 379.156,563.666 384.5,563.5C 373.27,567.622 361.604,570.455 349.5,572C 342.584,572.933 335.917,572.099 329.5,569.5C 335.614,565.229 342.281,561.895 349.5,559.5 Z"/></g>
<g><path style="opacity:1" fill="#b3a051" d="M 770.5,558.5 C 770.425,562.897 770.925,567.23 772,571.5C 774.879,580.637 778.045,589.637 781.5,598.5C 771.049,594.022 761.382,588.355 752.5,581.5C 753.487,576.695 753.821,571.695 753.5,566.5C 759.119,563.919 764.786,561.252 770.5,558.5 Z"/></g>
<g><path style="opacity:1" fill="#fdfcf9" d="M 822.5,559.5 C 828.869,560.005 835.202,560.838 841.5,562C 844.666,562.322 847.333,563.489 849.5,565.5C 840.902,570.362 831.568,573.028 821.5,573.5C 817.033,573.867 812.7,573.367 808.5,572C 807.243,569.924 807.576,568.09 809.5,566.5C 812.782,562.357 817.116,560.023 822.5,559.5 Z"/></g>
<g><path style="opacity:1" fill="#c8b465" d="M 221.5,561.5 C 221.577,562.75 222.244,563.583 223.5,564C 241.896,568.367 258.563,576.2 273.5,587.5C 273.167,588.167 272.833,588.833 272.5,589.5C 257.233,579.404 240.566,572.404 222.5,568.5C 220.436,566.34 220.102,564.007 221.5,561.5 Z"/></g>
<g><path style="opacity:1" fill="#8f723b" d="M 753.5,566.5 C 753.821,571.695 753.487,576.695 752.5,581.5C 751.167,580.5 749.833,579.5 748.5,578.5C 746.5,577.167 744.833,575.5 743.5,573.5C 746.215,570.479 749.548,568.146 753.5,566.5 Z"/></g>
<g><path style="opacity:1" fill="#dec871" d="M 809.5,566.5 C 807.576,568.09 807.243,569.924 808.5,572C 812.7,573.367 817.033,573.867 821.5,573.5C 817.503,575.489 813.17,576.489 808.5,576.5C 806.5,576.5 804.5,576.5 802.5,576.5C 800.943,570.396 803.277,567.062 809.5,566.5 Z"/></g>
<g><path style="opacity:1" fill="#dfc972" d="M 678.5,567.5 C 681.833,568.833 685.167,570.167 688.5,571.5C 690.362,575.75 692.028,580.083 693.5,584.5C 693.833,585.833 694.167,587.167 694.5,588.5C 688.282,591.183 681.782,592.516 675,592.5C 665.479,592.116 655.979,591.449 646.5,590.5C 648.188,589.479 649.521,588.145 650.5,586.5C 659.838,580.159 669.172,573.826 678.5,567.5 Z"/></g>
<g><path style="opacity:1" fill="#aa9845" d="M 907.5,515.5 C 909.136,516.749 910.303,518.416 911,520.5C 914.108,528.524 915.275,536.857 914.5,545.5C 911.37,557.591 905.704,568.424 897.5,578C 887.415,583.075 877.415,587.575 867.5,591.5C 871.129,586.555 873.795,581.555 875.5,576.5C 880.826,573.416 886.326,570.416 892,567.5C 892.202,569.256 892.702,570.922 893.5,572.5C 897.424,569.621 901.257,566.621 905,563.5C 905.333,556.833 905.667,550.167 906,543.5C 909.872,534.298 910.372,524.965 907.5,515.5 Z"/></g>
<g><path style="opacity:1" fill="#e0ca72" d="M 323.5,561.5 C 325.653,563.794 327.32,566.46 328.5,569.5C 322.947,572.102 317.947,575.436 313.5,579.5C 310.19,581.482 307.19,583.815 304.5,586.5C 299.149,590.851 294.483,595.851 290.5,601.5C 292.19,603.519 293.856,605.519 295.5,607.5C 293.264,606.611 291.264,605.278 289.5,603.5C 287.169,606.158 284.836,608.824 282.5,611.5C 275.266,609.945 268.266,607.945 261.5,605.5C 262.82,603.537 264.154,601.537 265.5,599.5C 267.833,596.167 270.167,592.833 272.5,589.5C 272.833,588.833 273.167,588.167 273.5,587.5C 279.227,582.776 284.227,577.442 288.5,571.5C 292.093,570.033 295.426,568.033 298.5,565.5C 299.391,564.89 300.391,564.557 301.5,564.5C 298.547,568.625 295.381,572.625 292,576.5C 290.991,578.025 290.491,579.692 290.5,581.5C 303.013,577.319 314.013,570.652 323.5,561.5 Z"/></g>
<g><path style="opacity:1" fill="#95773f" d="M 222.5,568.5 C 240.566,572.404 257.233,579.404 272.5,589.5C 270.167,592.833 267.833,596.167 265.5,599.5C 253.113,596.038 240.78,592.371 228.5,588.5C 225.69,586.026 223.69,583.026 222.5,579.5C 221.942,576.656 221.275,573.822 220.5,571C 220.684,569.624 221.351,568.791 222.5,568.5 Z"/></g>
<g><path style="opacity:1" fill="#af9553" d="M 546.5,541.5 C 548.434,545.303 549.768,549.303 550.5,553.5C 524.405,557.379 502.405,568.879 484.5,588C 471.898,596.823 457.898,599.99 442.5,597.5C 468.886,563.638 503.553,544.971 546.5,541.5 Z"/></g>
<g><path style="opacity:1" fill="#c3af5f" d="M 736.5,592.5 C 739.167,595.167 741.833,597.833 744.5,600.5C 736.836,595.666 728.836,591.333 720.5,587.5C 716.386,589.057 712.386,590.89 708.5,593C 707.62,594.356 707.286,595.856 707.5,597.5C 706.518,594.038 706.185,590.371 706.5,586.5C 706.183,583.428 706.516,580.428 707.5,577.5C 717.66,581.745 727.326,586.745 736.5,592.5 Z"/></g>
<g><path style="opacity:1" fill="#a3874a" d="M 422.5,571.5 C 412.395,582.277 401.395,591.944 389.5,600.5C 375.362,603.368 361.362,606.868 347.5,611C 344.854,611.497 342.187,611.664 339.5,611.5C 332.949,609.466 326.949,606.299 321.5,602C 315.638,596.967 309.971,591.801 304.5,586.5C 307.19,583.815 310.19,581.482 313.5,579.5C 317.698,583.26 322.698,585.427 328.5,586C 345.804,587.526 363.138,587.86 380.5,587C 395.95,586.744 409.283,581.41 420.5,571C 421.437,570.308 422.103,570.475 422.5,571.5 Z"/></g>
<g><path style="opacity:1" fill="#fefefe" d="M 174.5,663.5 C 154.087,640.424 136.421,615.424 121.5,588.5C 139.636,595.369 157.97,602.702 176.5,610.5C 176.833,614 177.167,617.5 177.5,621C 177.145,635.367 176.145,649.534 174.5,663.5 Z"/></g>
<g><path style="opacity:1" fill="#b8a55a" d="M 228.5,588.5 C 240.78,592.371 253.113,596.038 265.5,599.5C 264.154,601.537 262.82,603.537 261.5,605.5C 254.172,604.255 247.172,602.255 240.5,599.5C 236.5,595.833 232.5,592.167 228.5,588.5 Z"/></g>
<g><path style="opacity:1" fill="#ecdb98" d="M 470.5,557.5 C 460.927,565.569 451.76,574.235 443,583.5C 433.566,594.937 423.399,605.77 412.5,616C 402.996,621.532 393.33,626.365 383.5,630.5C 357.755,627.323 332.421,622.656 307.5,616.5C 303.866,613.016 299.866,610.016 295.5,607.5C 293.856,605.519 292.19,603.519 290.5,601.5C 294.483,595.851 299.149,590.851 304.5,586.5C 309.971,591.801 315.638,596.967 321.5,602C 326.949,606.299 332.949,609.466 339.5,611.5C 358.257,617.646 374.923,613.979 389.5,600.5C 401.395,591.944 412.395,582.277 422.5,571.5C 426.527,568.14 430.194,564.473 433.5,560.5C 435.415,560.216 437.081,560.549 438.5,561.5C 437.61,563.782 437.444,566.115 438,568.5C 438.725,569.059 439.558,569.392 440.5,569.5C 446.038,566.961 451.038,563.627 455.5,559.5C 460.515,558.915 465.515,558.248 470.5,557.5 Z"/></g>
<g><path style="opacity:1" fill="#eddd9f" d="M 627.5,597.5 C 632.104,601.041 634.271,605.708 634,611.5C 631.11,614.271 627.61,615.604 623.5,615.5C 609.99,616.801 600.157,611.468 594,599.5C 593.333,597.5 593.333,595.5 594,593.5C 595.4,592.884 596.9,592.551 598.5,592.5C 608.204,594.076 617.871,595.743 627.5,597.5 Z"/></g>
<g><path style="opacity:1" fill="#e1cb75" d="M 748.5,578.5 C 749.833,579.5 751.167,580.5 752.5,581.5C 761.382,588.355 771.049,594.022 781.5,598.5C 783.794,600.653 786.46,602.32 789.5,603.5C 791.807,604.653 794.14,605.82 796.5,607C 795.906,607.464 795.239,607.631 794.5,607.5C 781.018,611.248 767.351,614.248 753.5,616.5C 752.277,610.251 749.277,604.917 744.5,600.5C 741.833,597.833 739.167,595.167 736.5,592.5C 737.496,592.586 738.329,592.252 739,591.5C 741.998,587.008 745.165,582.675 748.5,578.5 Z"/></g>
<g><path style="opacity:1" fill="#ecdb99" d="M 586.5,569.5 C 587.434,570.568 587.768,571.901 587.5,573.5C 587.5,587.51 587.166,601.51 586.5,615.5C 572.952,617.31 559.286,617.977 545.5,617.5C 547.76,603.866 549.76,590.199 551.5,576.5C 552.167,576.5 552.5,576.167 552.5,575.5C 563.903,575.8 575.236,575.133 586.5,573.5C 586.5,572.167 586.5,570.833 586.5,569.5 Z"/></g>
<g><path style="opacity:1" fill="#bba85c" d="M 583.5,551.5 C 589.567,552.53 595.234,554.697 600.5,558C 605.993,563.239 611.993,567.739 618.5,571.5C 628.586,577.645 639.252,582.645 650.5,586.5C 649.521,588.145 648.188,589.479 646.5,590.5C 655.979,591.449 665.479,592.116 675,592.5C 681.782,592.516 688.282,591.183 694.5,588.5C 696.398,601.818 692.398,612.818 682.5,621.5C 665.82,610.823 648.487,601.156 630.5,592.5C 616.488,585.601 602.155,579.267 587.5,573.5C 587.768,571.901 587.434,570.568 586.5,569.5C 586.268,563.343 585.268,557.343 583.5,551.5 Z"/></g>
<g><path style="opacity:1" fill="#acacac" d="M 937.5,597.5 C 924.197,620.647 908.363,641.981 890,661.5C 864.378,687.975 836.878,711.975 807.5,733.5C 773.291,746.851 738.624,759.351 703.5,771C 695.648,773.463 687.648,775.296 679.5,776.5C 703.546,760.637 725.379,741.97 745,720.5C 763.127,698.589 777.96,674.589 789.5,648.5C 840.933,637.467 890.266,620.467 937.5,597.5 Z"/></g>
<g><path style="opacity:1" fill="#bfab61" d="M 389.5,600.5 C 374.923,613.979 358.257,617.646 339.5,611.5C 342.187,611.664 344.854,611.497 347.5,611C 361.362,606.868 375.362,603.368 389.5,600.5 Z"/></g>
<g><path style="opacity:1" fill="#8d6f39" d="M 744.5,600.5 C 749.277,604.917 752.277,610.251 753.5,616.5C 754.209,617.404 755.209,617.737 756.5,617.5C 756.37,620.237 757.536,622.237 760,623.5C 765.456,621.927 770.956,620.594 776.5,619.5C 776.5,620.167 776.5,620.833 776.5,621.5C 748.209,627.659 719.543,632.326 690.5,635.5C 693.45,633.885 696.116,631.885 698.5,629.5C 704.687,631.348 711.02,631.848 717.5,631C 724.351,625.465 727.517,618.298 727,609.5C 721.462,604.147 714.962,600.481 707.5,598.5C 707.5,598.167 707.5,597.833 707.5,597.5C 707.286,595.856 707.62,594.356 708.5,593C 712.386,590.89 716.386,589.057 720.5,587.5C 728.836,591.333 736.836,595.666 744.5,600.5 Z"/></g>
<g><path style="opacity:1" fill="#e6d387" d="M 705.5,575.5 C 705.185,579.371 705.518,583.038 706.5,586.5C 706.185,590.371 706.518,594.038 707.5,597.5C 707.5,597.833 707.5,598.167 707.5,598.5C 709.505,610.466 706.505,620.799 698.5,629.5C 696.116,631.885 693.45,633.885 690.5,635.5C 675.585,637.545 660.585,638.878 645.5,639.5C 645.918,638.778 646.584,638.278 647.5,638C 645.527,637.505 643.527,637.338 641.5,637.5C 656.642,636.116 670.309,630.783 682.5,621.5C 692.398,612.818 696.398,601.818 694.5,588.5C 694.167,587.167 693.833,585.833 693.5,584.5C 698.047,582.294 702.047,579.294 705.5,575.5 Z"/></g>
<g><path style="opacity:1" fill="#baa55e" d="M 295.5,607.5 C 299.866,610.016 303.866,613.016 307.5,616.5C 299.13,615.044 290.796,613.377 282.5,611.5C 284.836,608.824 287.169,606.158 289.5,603.5C 291.264,605.278 293.264,606.611 295.5,607.5 Z"/></g>
<g><path style="opacity:1" fill="#987c42" d="M 630.5,592.5 C 648.487,601.156 665.82,610.823 682.5,621.5C 670.309,630.783 656.642,636.116 641.5,637.5C 631.828,637.666 622.161,637.5 612.5,637C 607.268,636.273 602.268,635.107 597.5,633.5C 606.515,627.993 615.182,621.993 623.5,615.5C 627.61,615.604 631.11,614.271 634,611.5C 634.271,605.708 632.104,601.041 627.5,597.5C 626.953,595.288 627.953,593.621 630.5,592.5 Z"/></g>
<g><path style="opacity:1" fill="#b5a154" d="M 707.5,598.5 C 714.962,600.481 721.462,604.147 727,609.5C 727.517,618.298 724.351,625.465 717.5,631C 711.02,631.848 704.687,631.348 698.5,629.5C 706.505,620.799 709.505,610.466 707.5,598.5 Z"/></g>
<g><path style="opacity:1" fill="#beaa59" d="M 794.5,607.5 C 796.851,609.532 799.517,611.365 802.5,613C 793.899,615.484 785.232,617.65 776.5,619.5C 770.956,620.594 765.456,621.927 760,623.5C 757.536,622.237 756.37,620.237 756.5,617.5C 755.209,617.737 754.209,617.404 753.5,616.5C 767.351,614.248 781.018,611.248 794.5,607.5 Z"/></g>
<g><path style="opacity:1" fill="#a5894c" d="M 551.5,576.5 C 549.76,590.199 547.76,603.866 545.5,617.5C 544.185,625.038 544.185,632.705 545.5,640.5C 537.193,641.498 528.86,641.831 520.5,641.5C 480.335,640.534 440.335,637.534 400.5,632.5C 407.267,628.946 413.934,625.113 420.5,621C 422.402,619.27 424.069,617.437 425.5,615.5C 443.687,614.81 461.687,612.643 479.5,609C 495.564,602.47 510.564,594.137 524.5,584C 533.085,579.037 542.085,575.203 551.5,572.5C 551.5,573.833 551.5,575.167 551.5,576.5 Z"/></g>
<g><path style="opacity:1" fill="#eddd9f" d="M 539.5,585.5 C 541.167,585.5 542.833,585.5 544.5,585.5C 544.579,588.271 544.079,590.937 543,593.5C 539.922,599.991 536.588,606.325 533,612.5C 527.742,617.588 521.409,619.921 514,619.5C 506.272,620.072 499.606,617.738 494,612.5C 493.333,611.167 493.333,609.833 494,608.5C 496.205,605.96 498.705,603.793 501.5,602C 514.226,596.379 526.893,590.879 539.5,585.5 Z"/></g>
<g><path style="opacity:1" fill="#a18549" d="M 587.5,573.5 C 602.155,579.267 616.488,585.601 630.5,592.5C 627.953,593.621 626.953,595.288 627.5,597.5C 617.871,595.743 608.204,594.076 598.5,592.5C 596.9,592.551 595.4,592.884 594,593.5C 593.333,595.5 593.333,597.5 594,599.5C 600.157,611.468 609.99,616.801 623.5,615.5C 615.182,621.993 606.515,627.993 597.5,633.5C 588.318,631.015 584.651,625.015 586.5,615.5C 587.166,601.51 587.5,587.51 587.5,573.5 Z"/></g>
<g><path style="opacity:1" fill="#e9d791" d="M 586.5,615.5 C 584.651,625.015 588.318,631.015 597.5,633.5C 602.268,635.107 607.268,636.273 612.5,637C 622.161,637.5 631.828,637.666 641.5,637.5C 643.527,637.338 645.527,637.505 647.5,638C 646.584,638.278 645.918,638.778 645.5,639.5C 603.714,642.433 562.047,643.099 520.5,641.5C 528.86,641.831 537.193,641.498 545.5,640.5C 544.185,632.705 544.185,625.038 545.5,617.5C 559.286,617.977 572.952,617.31 586.5,615.5 Z"/></g>
<g><path style="opacity:1" fill="#e5e5e5" d="M 211.5,622.5 C 210.999,647.531 209.832,672.531 208,697.5C 201.329,691.996 195.163,685.996 189.5,679.5C 190.309,677.708 190.809,675.708 191,673.5C 191.747,654.486 192.747,635.486 194,616.5C 199.791,618.647 205.624,620.647 211.5,622.5 Z"/></g>
<g><path style="opacity:1" fill="#d1d1d1" d="M 230.5,628.5 C 233.267,628.858 235.933,629.525 238.5,630.5C 236.597,660.801 235.263,691.134 234.5,721.5C 231.824,719.164 229.158,716.831 226.5,714.5C 226.167,710.833 225.833,707.167 225.5,703.5C 226.515,682.001 227.515,660.501 228.5,639C 228.512,635.098 229.179,631.598 230.5,628.5 Z"/></g>
<g><path style="opacity:1" fill="#c6c6c6" d="M 238.5,630.5 C 247.178,632.836 255.845,635.169 264.5,637.5C 262.984,669.495 261.484,701.495 260,733.5C 259.802,735.382 259.302,737.048 258.5,738.5C 253.868,737.404 249.534,735.737 245.5,733.5C 246.239,733.631 246.906,733.464 247.5,733C 242.973,729.301 238.639,725.468 234.5,721.5C 235.263,691.134 236.597,660.801 238.5,630.5 Z"/></g>
<g><path style="opacity:1" fill="#bababa" d="M 264.5,637.5 C 275.187,639.839 285.853,642.172 296.5,644.5C 294.321,679.447 292.654,714.447 291.5,749.5C 279.949,747.205 268.949,743.539 258.5,738.5C 259.302,737.048 259.802,735.382 260,733.5C 261.484,701.495 262.984,669.495 264.5,637.5 Z"/></g>
<g><path style="opacity:1" fill="#b1b1b1" d="M 296.5,644.5 C 306.474,646.717 316.474,648.717 326.5,650.5C 325.096,685.356 323.096,720.023 320.5,754.5C 310.652,753.631 300.985,751.964 291.5,749.5C 292.654,714.447 294.321,679.447 296.5,644.5 Z"/></g>
<g><path style="opacity:1" fill="#d8d8d8" d="M 789.5,648.5 C 777.96,674.589 763.127,698.589 745,720.5C 725.379,741.97 703.546,760.637 679.5,776.5C 659.555,782.525 639.888,781.691 620.5,774C 609.553,771.294 598.553,770.961 587.5,773C 557.965,783.344 527.631,788.177 496.5,787.5C 495.914,785.757 495.581,783.924 495.5,782C 497.376,744.602 499.376,707.269 501.5,670C 500.263,669.768 499.263,669.268 498.5,668.5C 596.355,673.94 693.355,667.273 789.5,648.5 Z"/></g>
<g><path style="opacity:1" fill="#ababab" d="M 326.5,650.5 C 352.763,654.633 379.096,658.299 405.5,661.5C 405.312,699.129 403.979,736.796 401.5,774.5C 399.524,776.011 397.191,776.844 394.5,777C 386.778,777.812 379.111,777.478 371.5,776C 354.421,768.787 337.421,761.62 320.5,754.5C 323.096,720.023 325.096,685.356 326.5,650.5 Z"/></g>
<g><path style="opacity:1" fill="#b2b2b2" d="M 405.5,661.5 C 415.14,662.571 424.807,663.571 434.5,664.5C 433.226,700.192 431.559,735.859 429.5,771.5C 420.001,771.088 410.667,772.088 401.5,774.5C 403.979,736.796 405.312,699.129 405.5,661.5 Z"/></g>
<g><path style="opacity:1" fill="#b8b8b8" d="M 434.5,664.5 C 440.249,664.841 445.916,665.507 451.5,666.5C 450.481,702.088 448.814,737.588 446.5,773C 447.056,773.383 447.389,773.883 447.5,774.5C 441.487,773.493 435.487,772.493 429.5,771.5C 431.559,735.859 433.226,700.192 434.5,664.5 Z"/></g>
<g><path style="opacity:1" fill="#c2c2c2" d="M 451.5,666.5 C 459.514,666.568 467.514,666.901 475.5,667.5C 476.209,668.404 477.209,668.737 478.5,668.5C 476.865,703.497 475.199,738.497 473.5,773.5C 473.539,776.917 473.873,780.25 474.5,783.5C 465.421,780.696 456.421,777.696 447.5,774.5C 447.389,773.883 447.056,773.383 446.5,773C 448.814,737.588 450.481,702.088 451.5,666.5 Z"/></g>
<g><path style="opacity:1" fill="#cecece" d="M 475.5,667.5 C 483.138,668.313 490.804,668.646 498.5,668.5C 499.263,669.268 500.263,669.768 501.5,670C 499.376,707.269 497.376,744.602 495.5,782C 495.581,783.924 495.914,785.757 496.5,787.5C 488.934,787.32 481.601,785.986 474.5,783.5C 473.873,780.25 473.539,776.917 473.5,773.5C 475.199,738.497 476.865,703.497 478.5,668.5C 477.209,668.737 476.209,668.404 475.5,667.5 Z"/></g>
<g><path style="opacity:1" fill="#838383" d="M 245.5,733.5 C 249.534,735.737 253.868,737.404 258.5,738.5C 268.949,743.539 279.949,747.205 291.5,749.5C 300.985,751.964 310.652,753.631 320.5,754.5C 337.421,761.62 354.421,768.787 371.5,776C 379.111,777.478 386.778,777.812 394.5,777C 397.191,776.844 399.524,776.011 401.5,774.5C 410.667,772.088 420.001,771.088 429.5,771.5C 435.487,772.493 441.487,773.493 447.5,774.5C 456.421,777.696 465.421,780.696 474.5,783.5C 481.601,785.986 488.934,787.32 496.5,787.5C 527.631,788.177 557.965,783.344 587.5,773C 598.553,770.961 609.553,771.294 620.5,774C 639.888,781.691 659.555,782.525 679.5,776.5C 687.648,775.296 695.648,773.463 703.5,771C 738.624,759.351 773.291,746.851 807.5,733.5C 815.857,730.078 824.524,728.911 833.5,730C 836.941,731.318 838.275,733.818 837.5,737.5C 822.842,747.997 806.842,756.164 789.5,762C 773.45,763.536 757.45,765.536 741.5,768C 706.108,778.131 670.774,788.464 635.5,799C 621.662,802.207 607.662,803.207 593.5,802C 585.308,798.66 576.808,796.494 568,795.5C 564.08,795.951 560.247,796.784 556.5,798C 537.075,810.639 516.408,812.972 494.5,805C 483.51,799.507 472.843,793.507 462.5,787C 449.819,782.809 436.819,781.476 423.5,783C 405.819,786.439 387.986,788.606 370,789.5C 339.024,788.623 311.857,778.123 288.5,758C 279.453,752.873 269.787,749.54 259.5,748C 231.313,749.209 205.647,742.042 182.5,726.5C 182.557,725.391 182.89,724.391 183.5,723.5C 189.699,719.918 196.366,718.751 203.5,720C 218.059,722.798 232.059,727.298 245.5,733.5 Z"/></g>
</svg>
