<svg clip-rule="evenodd" fill-rule="evenodd" stroke-linejoin="round" stroke-miterlimit="2" viewBox="0 0 1024 1024" xmlns="http://www.w3.org/2000/svg"><g transform="matrix(.889266 0 0 .889266 59.101 39.737)"><path d="m533.5 265.5v5c4.863-.319 9.53.014 14 1-9.339-.166-18.673 0-28 .5-2.667 1-5.333 2-8 3-8.167 6.833-15.667 14.333-22.5 22.5-1.538 4.62-.038 7.787 4.5 9.5 7.171 1.39 14.171 3.39 21 6 5.657.499 11.324.666 17 .5-.114 11.851-.781 23.518-2 35-7.003-4.169-14.336-7.669-22-10.5-13.997-.589-25.83 4.245-35.5 14.5-.895 2.966-.395 5.633 1.5 8 18.117 11.255 36.783 12.588 56 4-.609 14.337-1.276 28.67-2 43-9.806-.343-18.64 2.324-26.5 8-5.187 6.835-6.854 14.502-5 23 2.007 4.093 5.173 6.927 9.5 8.5 6.325.5 12.658.666 19 .5 1.28 7.204 1.28 14.538 0 22-16.62-1.59-33.287-2.257-50-2-13.72.337-27.387 1.337-41 3 1.068-.934 2.401-1.268 4-1v-6c-5.305.942-10.639 1.109-16 .5-4.487-1.3-6.487-4.3-6-9 .024-5.385 2.357-9.385 7-12 5.323-.499 10.656-.666 16-.5.798-19.038 1.798-38.038 3-57 12.941 7.569 24.441 5.569 34.5-6 4.04-6.426 2.206-10.259-5.5-11.5-13.229-2.666-22.895 1.834-29 13.5-.174-7.035.159-14.035 1-21 15.425-8.905 30.758-18.072 46-27.5 1.39-2.994.39-4.994-3-6-13.479-3.594-27.145-4.427-41-2.5-.647-.774-.98-1.774-1-3 .696-10.005 1.362-20.005 2-30 5.588-4.319 7.421-9.986 5.5-17-2.292-4.288-5.792-7.122-10.5-8.5-21.983-5.971-44.317-7.804-67-5.5-1.844-1.779-2.51-4.112-2-7 14.301-1.116 28.634-1.282 43-.5 27.369 3.74 54.702 7.74 82 12 12.329.5 24.662.667 37 .5z" fill="#993a11"/><path d="m445.5 291.5c-10.407 5.078-21.407 8.245-33 9.5-14.339.476-28.673.309-43-.5-21.545-1.47-43.212-1.136-65 1-.009-1.808.491-3.475 1.5-5 14.899-11.538 30.733-21.705 47.5-30.5 6.664-2.34 13.33-4.173 20-5.5 22.683-2.304 45.017-.471 67 5.5 4.708 1.378 8.208 4.212 10.5 8.5 1.921 7.014.088 12.681-5.5 17z" fill="#b94a1b"/><path d="m371.5 253.5c-.51 2.888.156 5.221 2 7-6.67 1.327-13.336 3.16-20 5.5-16.767 8.795-32.601 18.962-47.5 30.5-1.009 1.525-1.509 3.192-1.5 5 21.788-2.136 43.455-2.47 65-1 .183 7.368-.15 14.701-1 22-32.84 8.186-33.174 17.519-1 28-.049 7.349-.382 14.683-1 22-5.367-.488-10.701-1.154-16-2-8.997 1.307-14.997 6.141-18 14.5.132 2.799 1.465 4.799 4 6 9.071 5.349 18.738 6.849 29 4.5-.855 23.674-1.855 47.341-3 71-7.931-2.56-14.431-7.226-19.5-14-3.225-12.51-7.725-24.51-13.5-36-6.053-10.379-15.053-16.879-27-19.5-5.096-1.36-10.096-2.526-15-3.5h3c2.139-32.471 3.139-64.804 3-97 16.907-17.717 36.907-30.884 60-39.5 5.892-1.807 11.892-2.974 18-3.5z" fill="#a53e12"/><path d="m533.5 265.5c18.121.28 35.121 4.78 51 13.5 7.551 5.058 15.217 9.891 23 14.5v5c-3.966-2.219-8.3-3.386-13-3.5-3.382-.824-6.716-.657-10 .5-6.762 11.192-14.262 21.859-22.5 32-3.989 5.525-3.155 10.025 2.5 13.5 9.912 2.828 19.912 3.161 30 1 3.824-2.01 7.158-4.51 10-7.5.986 4.47 1.319 9.137 1 14-12.719-.425-21.719 5.075-27 16.5.347 3.014 2.014 4.681 5 5 6.953 1.163 13.953 1.663 21 1.5-1.1 15.303-1.767 30.636-2 46-14.977-2.509-27.477 1.824-37.5 13-2.421 3.709-1.921 6.875 1.5 9.5 7.921 1.568 15.921 1.901 24 1 3.688-1.513 7.355-3.013 11-4.5-.407 5.661-.74 11.328-1 17-15.965 6.873-32.632 11.54-50 14-8.593 1.506-17.259 2.173-26 2 1.28-7.462 1.28-14.796 0-22 11.875-1.353 22.041-6.353 30.5-15 5.13-13.894.297-22.06-14.5-24.5-4.321-.499-8.654-.666-13-.5.724-14.33 1.391-28.663 2-43 2.468-2.141 4.134-4.808 5-8-.866-3.192-2.532-5.859-5-8 1.219-11.482 1.886-23.149 2-35 13.187-3.342 24.687-9.675 34.5-19 3.833-6.5 3-12.333-2.5-17.5-4.941-2.925-10.275-4.758-16-5.5-4.47-.986-9.137-1.319-14-1z" fill="#923811"/><path d="m547.5 271.5c5.725.742 11.059 2.575 16 5.5 5.5 5.167 6.333 11 2.5 17.5-9.813 9.325-21.313 15.658-34.5 19-5.676.166-11.343-.001-17-.5-6.829-2.61-13.829-4.61-21-6-4.538-1.713-6.038-4.88-4.5-9.5 6.833-8.167 14.333-15.667 22.5-22.5 2.667-1 5.333-2 8-3 9.327-.5 18.661-.666 28-.5z" fill="#b94a1b"/><path d="m445.5 291.5c-.638 9.995-1.304 19.995-2 30 .02 1.226.353 2.226 1 3-15.081 2.898-25.581 11.565-31.5 26-3.966 4.967-8.299 9.634-13 14-1.983 4.459-1.65 8.792 1 13 3.887 4.554 8.387 8.387 13.5 11.5 5.701 1.565 9.867-.268 12.5-5.5 2.716-9.465 7.882-17.132 15.5-23-.841 6.965-1.174 13.965-1 21v4c-1.202 18.962-2.202 37.962-3 57-5.344-.166-10.677.001-16 .5-4.643 2.615-6.976 6.615-7 12-.487 4.7 1.513 7.7 6 9 5.361.609 10.695.442 16-.5v6c-1.599-.268-2.932.066-4 1-7.649.855-15.316 1.521-23 2-14.519.804-28.853-.363-43-3.5-1.815-.757-3.481-1.59-5-2.5 1.145-23.659 2.145-47.326 3-71 15.633-6.894 15.966-14.561 1-23 .618-7.317.951-14.651 1-22 12.448 3.57 22.948.57 31.5-9 3.273-5.4 3.273-10.733 0-16-4.873-3.052-10.206-4.385-16-4-4.841.312-9.674.645-14.5 1 .85-7.299 1.183-14.632 1-22 14.327.809 28.661.976 43 .5 11.593-1.255 22.593-4.422 33-9.5z" fill="#9f3c12"/><path d="m607.5 293.5 12 6c5.349 3.737 11.349 6.237 18 7.5 14.749 1.555 29.415 3.389 44 5.5v8c-13.677-2.196-27.343-2.363-41-.5-2.124 1.122-3.957 2.622-5.5 4.5-4.516 6.72-7.35 14.054-8.5 22-.131 7.567 3.202 13.067 10 16.5 12.302 5.034 24.802 9.534 37.5 13.5 1.8-.82 3.634-1.486 5.5-2-1.243 14.916-1.909 29.916-2 45-20.106 7.473-39.439 16.473-58 27-6.235 2.618-12.568 4.952-19 7 .26-5.672.593-11.339 1-17 3.503-3.505 5.836-7.671 7-12.5-.429-3.597-2.429-5.763-6-6.5.233-15.364.9-30.697 2-46-7.047.163-14.047-.337-21-1.5-2.986-.319-4.653-1.986-5-5 5.281-11.425 14.281-16.925 27-16.5.319-4.863-.014-9.53-1-14 6.025-7.528 11.025-15.695 15-24.5-.203-2.406-1.203-4.406-3-6-3.064-1.859-6.064-3.692-9-5.5z" fill="#8c3611"/><path d="m607.5 298.5c2.936 1.808 5.936 3.641 9 5.5 1.797 1.594 2.797 3.594 3 6-3.975 8.805-8.975 16.972-15 24.5-2.842 2.99-6.176 5.49-10 7.5-10.088 2.161-20.088 1.828-30-1-5.655-3.475-6.489-7.975-2.5-13.5 8.238-10.141 15.738-20.808 22.5-32 3.284-1.157 6.618-1.324 10-.5 4.7.114 9.034 1.281 13 3.5z" fill="#873410"/><path d="m293.5 296.5c.139 32.196-.861 64.529-3 97h-3c-4.963-.754-9.963-1.087-15-1-23.077-1.367-46.077.466-69 5.5-13.954 4.724-28.288 6.724-43 6-.752-.671-1.086-1.504-1-2.5.706-6.075 3.039-11.408 7-16 6.396-6.87 14.063-12.036 23-15.5 18.198-4.867 36.531-9.2 55-13 16.75-4.417 25.917-15.25 27.5-32.5.926-2.192 2.093-4.192 3.5-6 3.606-6.207 7.939-11.873 13-17 1.333-2 3-3.667 5-5z" fill="#ab4112"/><path d="m681.5 312.5c26.791 2.374 51.457 10.707 74 25 .313 2.747-.02 5.414-1 8-5.638-2.46-11.138-2.46-16.5 0-1.302 12.768-6.469 23.601-15.5 32.5-10.047 2.456-19.38 6.456-28 12-3.532 2.286-4.198 4.952-2 8 19.932 2.685 39.932 3.185 60 1.5.166 7.341 0 14.674-.5 22-.232 1.237-.732 2.237-1.5 3-10.998-1.998-21.998-4.164-33-6.5-13.413-.971-26.746-.471-40 1.5.091-15.084.757-30.084 2-45 9.311-2.822 17.978-6.989 26-12.5 8.977-7.45 12.81-16.95 11.5-28.5-3.08-4.131-7.247-6.631-12.5-7.5-7.648-1.996-15.315-3.829-23-5.5z" fill="#863511"/><path d="m681.5 320.5c7.685 1.671 15.352 3.504 23 5.5 5.253.869 9.42 3.369 12.5 7.5 1.31 11.55-2.523 21.05-11.5 28.5-8.022 5.511-16.689 9.678-26 12.5-1.866.514-3.7 1.18-5.5 2-12.698-3.966-25.198-8.466-37.5-13.5-6.798-3.433-10.131-8.933-10-16.5 1.15-7.946 3.984-15.28 8.5-22 1.543-1.878 3.376-3.378 5.5-4.5 13.657-1.863 27.323-1.696 41 .5z" fill="#b94a1b"/><path d="m367.5 350.5c-32.174-10.481-31.84-19.814 1-28 4.826-.355 9.659-.688 14.5-1 5.794-.385 11.127.948 16 4 3.273 5.267 3.273 10.6 0 16-8.552 9.57-19.052 12.57-31.5 9z" fill="#953811"/><path d="m442.5 360.5c-7.618 5.868-12.784 13.535-15.5 23-2.633 5.232-6.799 7.065-12.5 5.5-5.113-3.113-9.613-6.946-13.5-11.5-2.65-4.208-2.983-8.541-1-13 4.701-4.366 9.034-9.033 13-14 5.919-14.435 16.419-23.102 31.5-26 13.855-1.927 27.521-1.094 41 2.5 3.39 1.006 4.39 3.006 3 6-15.242 9.428-30.575 18.595-46 27.5z" fill="#b94a1b"/><path d="m529.5 348.5c2.468 2.141 4.134 4.808 5 8-.866 3.192-2.532 5.859-5 8-19.217 8.588-37.883 7.255-56-4-1.895-2.367-2.395-5.034-1.5-8 9.67-10.255 21.503-15.089 35.5-14.5 7.664 2.831 14.997 6.331 22 10.5z" fill="#8c3610"/><path d="m755.5 337.5c1.784.393 3.45 1.059 5 2 19.49 12.593 38.157 26.426 56 41.5 10.637 9.796 20.304 20.296 29 31.5 1.615 2.95 3.615 5.616 6 8-3.654 8.179-9.987 13.012-19 14.5-24.27.1-48.27-2.4-72-7.5-3.49-.757-6.823-1.757-10-3 .768-.763 1.268-1.763 1.5-3 .5-7.326.666-14.659.5-22-20.068 1.685-40.068 1.185-60-1.5-2.198-3.048-1.532-5.714 2-8 8.62-5.544 17.953-9.544 28-12 9.031-8.899 14.198-19.732 15.5-32.5 5.362-2.46 10.862-2.46 16.5 0 .98-2.586 1.313-5.253 1-8z" fill="#7e3210"/><path d="m314.5 340.5c16.186-2.338 20.019 3.328 11.5 17-9.438 5.47-19.272 6.303-29.5 2.5-2.506-2.549-2.34-5.049.5-7.5 4.964-5.496 10.797-9.496 17.5-12z" fill="#b94a1b"/><path d="m218.5 366.5c6.675-.166 13.342 0 20 .5 1.825 1.466 2.325 3.299 1.5 5.5-1.5 4.167-4.333 7-8.5 8.5-14.998 4.625-30.332 6.291-46 5-4.046-1.471-4.879-3.971-2.5-7.5 2.408-2.456 5.241-4.289 8.5-5.5 9.104-2.312 18.104-4.478 27-6.5z" fill="#b94a1b"/><path d="m441.5 385.5v-4c6.105-11.666 15.771-16.166 29-13.5 7.706 1.241 9.54 5.074 5.5 11.5-10.059 11.569-21.559 13.569-34.5 6z" fill="#8f3711"/><path d="m366.5 372.5c14.966 8.439 14.633 16.106-1 23-10.262 2.349-19.929.849-29-4.5-2.535-1.201-3.868-3.201-4-6 3.003-8.359 9.003-13.193 18-14.5 5.299.846 10.633 1.512 16 2z" fill="#963911"/><path d="m272.5 392.5c5.037-.087 10.037.246 15 1 4.904.974 9.904 2.14 15 3.5 11.947 2.621 20.947 9.121 27 19.5-1.323 3.438-1.99 7.271-2 11.5-.68 11.825-1.014 23.658-1 35.5-1.333-1.333-2.667-2.667-4-4-1.159-3.651-2.826-6.985-5-10-1.159-3.651-2.826-6.985-5-10-.16-1.653-.826-2.986-2-4-.233-1.562-.9-2.895-2-4-1.667-2.667-3.333-5.333-5-8-1.504-2.336-3.504-4.169-6-5.5-5.671-2.946-11.671-4.78-18-5.5-6.88-2.048-13.88-3.381-21-4v-16z" fill="#92370f"/><path d="m272.5 392.5h-14v16c-17.536-.206-34.869 1.461-52 5-11.206 2.317-22.54 3.317-34 3-8.589-.259-13.255-4.592-14-13-.172-.992.162-1.658 1-2-.086.996.248 1.829 1 2.5 14.712.724 29.046-1.276 43-6 22.923-5.034 45.923-6.867 69-5.5z" fill="#9a3a10"/><path d="m633.5 392.5c8.566.146 16.9 1.646 25 4.5 7.842 2.503 8.842 6.503 3 12-8.537 6.734-18.203 10.067-29 10-6.845-1.497-13.012-4.331-18.5-8.5-2-2-2-4 0-6 5.217-6.187 11.717-10.187 19.5-12z" fill="#833310"/><path d="m158.5 403.5c.745 8.408 5.411 12.741 14 13 1.869.665 3.869 1.331 6 2 1.315 1.699 1.315 3.365 0 5-1.542-.801-3.208-1.134-5-1-7.698-2.301-15.698-3.635-24-4 2.249-5.505 5.249-10.505 9-15z" fill="#dec874"/><path d="m527.5 407.5c4.346-.166 8.679.001 13 .5 14.797 2.44 19.63 10.606 14.5 24.5-8.459 8.647-18.625 13.647-30.5 15-6.342.166-12.675 0-19-.5-4.327-1.573-7.493-4.407-9.5-8.5-1.854-8.498-.187-16.165 5-23 7.86-5.676 16.694-8.343 26.5-8z" fill="#8a3510"/><path d="m206.5 413.5c-5.037 5.039-10.371 9.706-16 14-3.785-1.928-7.785-3.262-12-4 1.315-1.635 1.315-3.301 0-5-2.131-.669-4.131-1.335-6-2 11.46.317 22.794-.683 34-3z" fill="#c1ac5e"/><path d="m279.5 412.5c6.329.72 12.329 2.554 18 5.5 2.496 1.331 4.496 3.164 6 5.5-7.471.901-14.137 3.734-20 8.5-5.563 7.649-11.23 15.149-17 22.5-.667 0-1 .333-1 1-1 .667-2 1.333-3 2-1.352-4.754-2.686-9.421-4-14 4.625-1.652 8.625-4.318 12-8-.59-1.299-1.59-2.132-3-2.5-2.536-.186-4.869-.686-7-1.5 2.344-2.218 2.677-4.885 1-8 6.298-3.15 12.298-6.817 18-11z" fill="#a88d4e"/><path d="m845.5 412.5c5.143 3.075 10.143 6.408 15 10 8.484 6.984 16.484 14.484 24 22.5 4.337-.16 8.67-.66 13-1.5-.473 3.333.86 5.5 4 6.5 3.667.667 7.333.667 11 0 4.316-.996 8.649-1.83 13-2.5 11.528 3.682 21.361 10.015 29.5 19 3.463 7.071 7.296 13.905 11.5 20.5 1.229.781 2.562 1.281 4 1.5 3.282-.988 6.615-1.654 10-2 .269 4.431-.064 8.765-1 13-26.327-10.661-52.327-22.161-78-34.5-16.733-5.433-33.733-8.599-51-9.5 5.867-1.598 11.533-3.765 17-6.5 2.802-4.746 2.302-9.246-1.5-13.5-4.337-5.503-9.17-10.503-14.5-15-2.385-2.384-4.385-5.05-6-8z" fill="#dec870"/><path d="m329.5 416.5c5.775 11.49 10.275 23.49 13.5 36 5.069 6.774 11.569 11.44 19.5 14 1.519.91 3.185 1.743 5 2.5 14.147 3.137 28.481 4.304 43 3.5-4.805.987-9.805 1.321-15 1 .166 5.344-.001 10.677-.5 16-.232 1.237-.732 2.237-1.5 3-2.361-.174-4.694-.507-7-1-1.935-.65-3.935-.983-6-1-8.101-2.778-16.434-5.112-25-7-3.924-1.647-7.924-3.314-12-5-5.938-3.606-11.271-7.939-16-13-.333-.667-.667-1.333-1-2-.014-11.842.32-23.675 1-35.5.01-4.229.677-8.062 2-11.5z" fill="#8d350e"/><path d="m602.5 417.5c3.571.737 5.571 2.903 6 6.5-1.164 4.829-3.497 8.995-7 12.5-3.645 1.487-7.312 2.987-11 4.5-8.079.901-16.079.568-24-1-3.421-2.625-3.921-5.791-1.5-9.5 10.023-11.176 22.523-15.509 37.5-13z" fill="#b94a1b"/><path d="m149.5 418.5c8.302.365 16.302 1.699 24 4 4.785 15.36 11.118 30.026 19 44-6.458-2.326-13.125-3.826-20-4.5-14.032-.781-28.032-.614-42 .5-1.863-4.255-3.53-8.588-5-13 13.475-3.45 27.141-6.117 41-8-7.021-5.675-15.021-9.509-24-11.5-11.877-3.493-23.877-4.159-36-2-4.813 1.907-9.48 4.074-14 6.5-.412-3.302-1.745-5.969-4-8 2.479-1.295 5.146-2.295 8-3 17.408-4.217 35.074-5.884 53-5z" fill="#e9d790"/><path d="m750.5 424.5c3.177 1.243 6.51 2.243 10 3-.79 6.971-1.123 13.971-1 21-1.109-.057-2.109-.39-3-1-4-1.667-8-3.333-12-5-1.681-1.508-3.681-2.508-6-3-.667-.333-1.333-.667-2-1-7.115-3.787-14.781-4.953-23-3.5-7.587 2.129-14.587 5.295-21 9.5-3.939 1.946-7.606 4.279-11 7-6.934 3.61-13.6 7.61-20 12-9.067 4.866-18.4 9.2-28 13-4.73 2.037-9.397 4.037-14 6h-1c-.652-12.002-.319-24.002 1-36 18.561-10.527 37.894-19.527 58-27 13.254-1.971 26.587-2.471 40-1.5 11.002 2.336 22.002 4.502 33 6.5z" fill="#722b0c"/><path d="m173.5 422.5c1.792-.134 3.458.199 5 1 4.215.738 8.215 2.072 12 4 7.249 3.264 14.249 6.93 21 11 12.96 10.291 25.626 20.957 38 32-5.345 7.371-10.679 14.705-16 22-10.653-6.664-20.986-13.83-31-21.5-3.241-1.789-6.574-3.289-10-4.5-7.882-13.974-14.215-28.64-19-44z" fill="#ecdb99"/><path d="m303.5 423.5c1.667 2.667 3.333 5.333 5 8-15.464 5.163-29.464 12.83-42 23 5.77-7.351 11.437-14.851 17-22.5 5.863-4.766 12.529-7.599 20-8.5z" fill="#c3b066"/><path d="m88.5 426.5c2.255 2.031 3.588 4.698 4 8-4.268 3.089-8.434 6.423-12.5 10-2.151 2.716-1.984 5.216.5 7.5 3.745 1.045 7.579 1.545 11.5 1.5 11.269-.567 22.436-1.9 33.5-4 1.47 4.412 3.137 8.745 5 13-9.173.887-17.007 4.554-23.5 11-3.827 7.06-2.993 13.393 2.5 19 2.043 3.043 4.71 5.376 8 7 .806 1.228 1.806 2.228 3 3-.876-.131-1.543.202-2 1 5.692 10.72 11.359 21.387 17 32-17.097-5.55-33.097-13.217-48-23-8.274-6.439-15.774-13.772-22.5-22-6.565-7.8-10.398-16.8-11.5-27 3.748-19.749 15.414-32.083 35-37z" fill="#e4d07f"/><path d="m125.5 449.5c-11.064 2.1-22.231 3.433-33.5 4-3.921.045-7.755-.455-11.5-1.5-2.484-2.284-2.651-4.784-.5-7.5 4.066-3.577 8.232-6.911 12.5-10 4.52-2.426 9.187-4.593 14-6.5 12.123-2.159 24.123-1.493 36 2 8.979 1.991 16.979 5.825 24 11.5-13.859 1.883-27.525 4.55-41 8z" fill="#fefefd"/><path d="m851.5 420.5c5.33 4.497 10.163 9.497 14.5 15 3.802 4.254 4.302 8.754 1.5 13.5-5.467 2.735-11.133 4.902-17 6.5-1.109.057-2.109.39-3 1-9.925 2.648-19.925 4.981-30 7-4.268.873-8.602 1.206-13 1-4.019-.146-8.019-.479-12-1-11.659-3.665-22.659-8.665-33-15-.123-7.029.21-14.029 1-21 23.73 5.1 47.73 7.6 72 7.5 9.013-1.488 15.346-6.321 19-14.5z" fill="#67260b"/><path d="m261.5 423.5c1.677 3.115 1.344 5.782-1 8-7.089-.384-14.089.116-21 1.5-3.502 2.496-3.835 5.329-1 8.5 1.528 1.361 3.195 2.528 5 3.5 5.11.57 10.11.07 15-1.5 1.314 4.579 2.648 9.246 4 14-4.694 4.027-9.027 8.36-13 13-12.374-11.043-25.04-21.709-38-32 16.672-5.004 33.339-10.004 50-15z" fill="#9f8448"/><path d="m260.5 431.5c2.131.814 4.464 1.314 7 1.5 1.41.368 2.41 1.201 3 2.5-3.375 3.682-7.375 6.348-12 8-4.89 1.57-9.89 2.07-15 1.5-1.805-.972-3.472-2.139-5-3.5-2.835-3.171-2.502-6.004 1-8.5 6.911-1.384 13.911-1.884 21-1.5z" fill="#eddc9e"/><path d="m389.5 431.5c6.714-.137 13.38.363 20 1.5 4.615 1.077 6.115 3.91 4.5 8.5-4.382 8.046-9.882 15.212-16.5 21.5-2 .667-4 .667-6 0-8.455-3.97-16.289-8.804-23.5-14.5-.635-2.135-.301-4.135 1-6 5.587-6.207 12.421-9.874 20.5-11z" fill="#b94a1b"/><path d="m310.5 435.5c1.174 1.014 1.84 2.347 2 4-2.983.888-6.15 1.554-9.5 2-.833-.333-1.667-.667-2.5-1 2.897-2.569 6.23-4.236 10-5z" fill="#fbf7f0"/><path d="m736.5 438.5c-4.558 1.886-8.892 4.219-13 7-4.993-.416-9.993-.749-15-1-1.686-1.516-3.519-2.85-5.5-4-3.366 1.77-6.866 3.103-10.5 4 6.413-4.205 13.413-7.371 21-9.5 8.219-1.453 15.885-.287 23 3.5z" fill="#bba75c"/><path d="m925.5 447.5c-4.351.67-8.684 1.504-13 2.5-3.667.667-7.333.667-11 0-3.14-1-4.473-3.167-4-6.5 3.092-2.879 6.759-4.713 11-5.5 5.333-.667 10.667-.667 16 0 12.951 2.071 13.284 5.237 1 9.5z" fill="#fdfdfb"/><path d="m738.5 439.5c2.319.492 4.319 1.492 6 3-11.962 10.124-23.795 20.458-35.5 31-7.206 12.27-12.873 25.27-17 39-.689.857-1.522 1.523-2.5 2-2.947-14.34-.114-27.34 8.5-39 12.802-12.979 26.302-24.979 40.5-36z" fill="#fefdfb"/><path d="m708.5 444.5c2.343 2.707 4.677 5.374 7 8-5.667 5-11 10.333-16 16-4.692-7.025-10.692-12.691-18-17 3.394-2.721 7.061-5.054 11-7 3.634-.897 7.134-2.23 10.5-4 1.981 1.15 3.814 2.484 5.5 4z" fill="#e8d790"/><path d="m308.5 431.5c1.1 1.105 1.767 2.438 2 4-3.77.764-7.103 2.431-10 5 .833.333 1.667.667 2.5 1 3.35-.446 6.517-1.112 9.5-2 2.174 3.015 3.841 6.349 5 10-17.489 4.411-32.156 13.411-44 27-1 .667-2 1.333-3 2-2.285-7.414-3.951-15.081-5-23 0-.667.333-1 1-1 12.536-10.17 26.536-17.837 42-23z" fill="#e9d68e"/><path d="m708.5 444.5c5.007.251 10.007.584 15 1-2.626 2.323-5.293 4.657-8 7-2.323-2.626-4.657-5.293-7-8z" fill="#a3884b"/><path d="m619.5 446.5c-1.319 11.998-1.652 23.998-1 36-9.831 3.276-19.831 5.943-30 8-8.528 2.15-17.195 3.483-26 4h-16c.877-8.633 1.211-17.3 1-26 1.291.237 2.291-.096 3-1 17.368-2.46 34.035-7.127 50-14 6.432-2.048 12.765-4.382 19-7z" fill="#792d0c"/><path d="m681.5 451.5c7.308 4.309 13.308 9.975 18 17-8.129 8.804-15.129 18.471-21 29-20.058-3.598-39.724-8.598-59-15 4.603-1.963 9.27-3.963 14-6 2.149 2.246 4.816 3.746 8 4.5 12.774 2.771 25.107 1.437 37-4 2.667-2.333 2.667-4.667 0-7-5.508-2.625-11.175-4.792-17-6.5 6.4-4.39 13.066-8.39 20-12z" fill="#a78c4d"/><path d="m736.5 438.5c.667.333 1.333.667 2 1-14.198 11.021-27.698 23.021-40.5 36-8.614 11.66-11.447 24.66-8.5 39 .978-.477 1.811-1.143 2.5-2 4.127-13.73 9.794-26.73 17-39 11.705-10.542 23.538-20.876 35.5-31 4 1.667 8 3.333 12 5-2 1.667-4 3.333-6 5-7.593 4.597-14.593 9.931-21 16-5.667 5-11 10.333-16 16-7.617 8.568-11.95 18.568-13 30 .997 9.976 1.664 19.976 2 30 .162 2.027-.005 4.027-.5 6-4.315 5.482-9.149 10.482-14.5 15-3.88-7.41-6.88-15.077-9-23-1.721-7.94-3.055-15.94-4-24-.408-7.361.925-14.361 4-21 5.871-10.529 12.871-20.196 21-29 5-5.667 10.333-11 16-16 2.707-2.343 5.374-4.677 8-7 4.108-2.781 8.442-5.114 13-7z" fill="#eddd9d"/><path d="m750.5 452.5c12.937 4.948 24.603 11.948 35 21-1.604.787-2.271 2.12-2 4-16.352-9.615-33.686-12.282-52-8-.667-.333-1.333-.667-2-1 6.407-6.069 13.407-11.403 21-16z" fill="#95783f"/><path d="m850.5 455.5c17.267.901 34.267 4.067 51 9.5 25.673 12.339 51.673 23.839 78 34.5-.302 2.873-.969 5.539-2 8-9.82-.454-19.487-1.954-29-4.5-14.011-8.671-27.678-17.838-41-27.5-.541 2.023-.041 4.023 1.5 6 2.952 9.18 1.452 17.513-4.5 25-2.469-2.644-4.802-5.477-7-8.5 5.855-7.352 7.355-15.519 4.5-24.5-10.006-5.626-20.506-8.293-31.5-8-.789-.283-1.456-.783-2-1.5-5.68-.445-11.346-.945-17-1.5-1.32-1.963-2.654-3.963-4-6 .891-.61 1.891-.943 3-1z" fill="#bdaa59"/><path d="m192.5 466.5c3.426 1.211 6.759 2.711 10 4.5 10.014 7.67 20.347 14.836 31 21.5.237 1.291-.096 2.291-1 3-2.107-2.227-4.44-4.227-7-6-8.638-5.991-17.638-11.491-27-16.5-8.692-3.305-17.692-5.138-27-5.5-9.053-.278-18.053.056-27 1-9.863.566-19.196 3.066-28 7.5-5.497 4.16-7.83 9.66-7 16.5-5.493-5.607-6.327-11.94-2.5-19 6.493-6.446 14.327-10.113 23.5-11 13.968-1.114 27.968-1.281 42-.5 6.875.674 13.542 2.174 20 4.5z" fill="#c6b364"/><path d="m851.5 462.5c5.654.555 11.32 1.055 17 1.5.544.717 1.211 1.217 2 1.5.166 4.346-.001 8.679-.5 13-4.088-2.294-8.255-4.461-12.5-6.5-2.136-3.11-4.136-6.277-6-9.5z" fill="#80612f"/><path d="m661.5 463.5c5.825 1.708 11.492 3.875 17 6.5 2.667 2.333 2.667 4.667 0 7-11.893 5.437-24.226 6.771-37 4-3.184-.754-5.851-2.254-8-4.5 9.6-3.8 18.933-8.134 28-13z" fill="#ecdc9e"/><path d="m817.5 463.5c-.086.996.248 1.829 1 2.5 5.333 3 10.667 6 16 9 3.547 4.041 6.88 8.208 10 12.5-13.668-7.165-27.001-14.831-40-23 4.398.206 8.732-.127 13-1z" fill="#a89542"/><path d="m847.5 456.5c1.346 2.037 2.68 4.037 4 6 1.864 3.223 3.864 6.39 6 9.5 4.245 2.039 8.412 4.206 12.5 6.5.499-4.321.666-8.654.5-13 10.994-.293 21.494 2.374 31.5 8 2.855 8.981 1.355 17.148-4.5 24.5 2.198 3.023 4.531 5.856 7 8.5 1.287 2.906 2.287 5.906 3 9 2.872 9.465 2.372 18.798-1.5 28-.333 6.667-.667 13.333-1 20-3.743 3.121-7.576 6.121-11.5 9-.798-1.578-1.298-3.244-1.5-5-5.674 2.916-11.174 5.916-16.5 9-1.109.057-2.109.39-3 1-3.332 1.839-6.665 3.339-10 4.5 7.208-12.25 14.541-24.416 22-36.5-4.941-8.431-10.441-16.431-16.5-24-1.225.362-2.391.862-3.5 1.5 8.343 6.182 11.51 14.349 9.5 24.5-1.4 3.402-3.567 6.236-6.5 8.5-5.584 3.959-11.584 7.125-18 9.5-2.167-2.011-4.834-3.178-8-3.5-6.298-1.162-12.631-1.995-19-2.5 5.922-2.919 10.588-7.253 14-13 1.995-5.043.662-9.21-4-12.5-11.686-6.062-24.019-10.229-37-12.5 1.287-2.906 2.287-5.906 3-9h5c5.171.376 10.171 1.542 15 3.5 7.276 4.31 14.942 7.477 23 9.5-.177-4.026-2.177-6.859-6-8.5-10.276-5.475-20.943-9.642-32-12.5-.17-1.322.163-2.489 1-3.5-2.646-.497-5.313-.664-8-.5 5.485-1.152 11.151-1.318 17-.5 5.355.771 10.688 1.605 16 2.5 4.9 1.973 9.9 3.973 15 6 4.255-2.03 7.588-4.363 10-7-2.945-4.945-6.279-9.612-10-14-3.12-4.292-6.453-8.459-10-12.5-5.333-3-10.667-6-16-9-.752-.671-1.086-1.504-1-2.5 10.075-2.019 20.075-4.352 30-7z" fill="#dfc970"/><path d="m327.5 465.5c4.729 5.061 10.062 9.394 16 13-12.228 3.684-24.561 7.517-37 11.5-6.422 1.301-12.422.301-18-3-1.98-4.366-.647-7.366 4-9 10.901-6.457 22.568-10.624 35-12.5z" fill="#eddd9f"/><path d="m317.5 449.5c2.174 3.015 3.841 6.349 5 10-18.003 4.502-33.003 13.835-45 28-1.18-3.717-2.513-7.384-4-11 11.844-13.589 26.511-22.589 44-27z" fill="#baa962"/><path d="m474.5 467.5c16.713-.257 33.38.41 50 2 8.741.173 17.407-.494 26-2-.709.904-1.709 1.237-3 1 .211 8.7-.123 17.367-1 26h16c-9.526 1.267-19.192 1.267-29 0-10.337-2.002-20.67-4.002-31-6-11.455-3.504-23.122-3.837-35-1-1.314-2.415-1.981-5.248-2-8.5.167-2.833.333-5.667.5-8.5 2.677-1.541 5.51-2.541 8.5-3z" fill="#80300d"/><path d="m474.5 467.5c-2.99.459-5.823 1.459-8.5 3-.167 2.833-.333 5.667-.5 8.5.019 3.252.686 6.085 2 8.5-3.142 1.29-6.475 2.29-10 3-5.779 1.352-11.446 2.685-17 4-5.305.694-10.638 1.028-16 1h-15c-5.016-.558-10.016-1.225-15-2-.667 0-1-.333-1-1 .768-.763 1.268-1.763 1.5-3 .499-5.323.666-10.656.5-16 5.195.321 10.195-.013 15-1 7.684-.479 15.351-1.145 23-2 13.613-1.663 27.28-2.663 41-3z" fill="#87320e"/><path d="m783.5 477.5c6.502 7.563 6.502 15.23 0 23-22.854-1.209-40.188-11.542-52-31 18.314-4.282 35.648-1.615 52 8z" fill="#b5a254"/><path d="m171.5 467.5c.801 1.542 1.134 3.208 1 5h-5c-11.699-1.563-20.866 2.437-27.5 12-1.271 3.666-.104 6.166 3.5 7.5 5.841 1.951 11.841 2.784 18 2.5 1.667.667 3.333 1.333 5 2-14.947.587-29.614 2.92-44 7-.667-.333-1.333-.667-2-1-1.194-.772-2.194-1.772-3-3 3.315-5.947 7.148-11.613 11.5-17 5.362-4.532 10.528-9.199 15.5-14 8.947-.944 17.947-1.278 27-1z" fill="#886936"/><path d="m171.5 467.5c9.308.362 18.308 2.195 27 5.5 9.362 5.009 18.362 10.509 27 16.5-1.348 1.98-3.348 3.147-6 3.5-5.575 1.515-11.242 2.515-17 3-11.995.5-23.995.667-36 .5-1.667-.667-3.333-1.333-5-2 8.673.166 17.34 0 26-.5 11.093-1.326 12.759-5.993 5-14-8.037-3.92-16.37-6.42-25-7.5h5c.134-1.792-.199-3.458-1-5z" fill="#967a41"/><path d="m792.5 463.5c3.981.521 7.981.854 12 1 12.999 8.169 26.332 15.835 40 23 3.721 4.388 7.055 9.055 10 14-21.992-10.691-42.659-23.358-62-38z" fill="#876934"/><path d="m167.5 472.5c8.63 1.08 16.963 3.58 25 7.5 7.759 8.007 6.093 12.674-5 14-8.66.5-17.327.666-26 .5-6.159.284-12.159-.549-18-2.5-3.604-1.334-4.771-3.834-3.5-7.5 6.634-9.563 15.801-13.563 27.5-12z" fill="#eddd9f"/><path d="m265.5 455.5c1.049 7.919 2.715 15.586 5 23-8.388 10.227-16.221 20.894-23.5 32-2.668 3.834-5.835 7.167-9.5 10-3.086-6.647-5.419-13.647-7-21 .233-1.562.9-2.895 2-4 .904-.709 1.237-1.709 1-3 5.321-7.295 10.655-14.629 16-22 3.973-4.64 8.306-8.973 13-13 1-.667 2-1.333 3-2z" fill="#e5d181"/><path d="m322.5 459.5 4 4c.333.667.667 1.333 1 2-12.432 1.876-24.099 6.043-35 12.5-4.647 1.634-5.98 4.634-4 9 5.578 3.301 11.578 4.301 18 3 12.439-3.983 24.772-7.816 37-11.5 4.076 1.686 8.076 3.353 12 5-3.388 4.031-7.722 6.531-13 7.5-17.052-.259-32.386 4.575-46 14.5-7.503-3.582-14.503-7.915-21-13 .393-1.784 1.059-3.45 2-5 11.997-14.165 26.997-23.498 45-28z" fill="#ab9050"/><path d="m756.5 447.5c.891.61 1.891.943 3 1 10.341 6.335 21.341 11.335 33 15 19.341 14.642 40.008 27.309 62 38-2.412 2.637-5.745 4.97-10 7-5.1-2.027-10.1-4.027-15-6-14.316-10.161-28.982-19.827-44-29-10.397-9.052-22.063-16.052-35-21 2-1.667 4-3.333 6-5z" fill="#b39f51"/><path d="m618.5 482.5h1c19.276 6.402 38.942 11.402 59 15-3.075 6.639-4.408 13.639-4 21-9.475.511-18.809-.322-28-2.5-11.397-4.409-22.73-8.909-34-13.5-8.192-3.572-16.526-7.072-25-10.5.556-.383.889-.883 1-1.5 10.169-2.057 20.169-4.724 30-8z" fill="#c1ae64"/><path d="m355.5 483.5c8.566 1.888 16.899 4.222 25 7-3.75 12.251-11.75 20.417-24 24.5-12.333.333-24.667.667-37 1 2.41.6 4.41 1.766 6 3.5-4.632-1.096-8.966-2.763-13-5-5.301-2.986-10.635-5.986-16-9 13.614-9.925 28.948-14.759 46-14.5 5.278-.969 9.612-3.469 13-7.5z" fill="#baa75a"/><path d="m729.5 468.5c.667.333 1.333.667 2 1 11.812 19.458 29.146 29.791 52 31h13c2.687-.164 5.354.003 8 .5-.837 1.011-1.17 2.178-1 3.5-18.626-2.438-37.293-4.271-56-5.5 5.983 4.22 12.65 6.887 20 8 12.069 2.366 24.069 4.199 36 5.5h-5c-.713 3.094-1.713 6.094-3 9-11.972-1.682-23.972-3.182-36-4.5-8.325-1.715-15.991-4.882-23-9.5-.973-.487-1.973-.987-3-1.5-6.533-7.364-13.2-14.53-20-21.5 5-5.667 10.333-11 16-16z" fill="#e6d385"/><path d="m502.5 488.5c-10.227-.658-20.227.342-30 3-5.642 1.318-10.975 3.485-16 6.5-5.695 3.843-11.362 7.677-17 11.5h-1c5.339-7.339 11.673-13.673 19-19 3.525-.71 6.858-1.71 10-3 11.878-2.837 23.545-2.504 35 1z" fill="#c9b46e"/><path d="m502.5 488.5c10.33 1.998 20.663 3.998 31 6 8.826 4.479 17.16 9.813 25 16 6.463 6.786 12.129 14.12 17 22v1c-.077 1.25-.744 2.083-2 2.5-2.646.497-5.313.664-8 .5-12.164-26.835-32.997-39.835-62.5-39-.711 1.867-.211 3.367 1.5 4.5 8.353 4.118 17.02 7.452 26 10 11.492 4.993 19.825 13.159 25 24.5-4.034-.005-8.034-.338-12-1-.667-.667-1.333-1.333-2-2-8.002-9.668-18.002-16.334-30-20-5.797-2.189-11.797-3.522-18-4-2.131-.814-4.464-1.314-7-1.5-5.505-4.881-10.172-10.381-14-16.5 9.773-2.658 19.773-3.658 30-3z" fill="#f4e7b2"/><path d="m785.5 473.5c15.018 9.173 29.684 18.839 44 29-5.312-.895-10.645-1.729-16-2.5-5.849-.818-11.515-.652-17 .5h-13c6.502-7.77 6.502-15.437 0-23-.271-1.88.396-3.213 2-4z" fill="#8b6d37"/><path d="m275.5 492.5c6.497 5.085 13.497 9.418 21 13 5.365 3.014 10.699 6.014 16 9-4.578-1.415-9.245-2.415-14-3 .45 3.732 2.117 6.898 5 9.5 16.03 12.844 34.364 19.01 55 18.5v1c-8.511 2.282-16.845 4.949-25 8-25.69-10.343-50.023-23.009-73-38 4.359-6.678 9.359-12.678 15-18z" fill="#eede9f"/><path d="m394.5 493.5c4.984.775 9.984 1.442 15 2 .734 1.208 1.067 2.541 1 4-6.228.213-11.561-1.787-16-6z" fill="#fefdf9"/><path d="m440.5 494.5c.739-.131 1.406.036 2 .5-5.9 5.825-11.9 5.991-18 .5 5.362.028 10.695-.306 16-1z" fill="#f9f6f2"/><path d="m588.5 490.5c-.111.617-.444 1.117-1 1.5 8.474 3.428 16.808 6.928 25 10.5-1.784 2.448-3.118 5.115-4 8-5.105-1.312-10.271-2.312-15.5-3-11.491 1.179-22.991 2.179-34.5 3-7.84-6.187-16.174-11.521-25-16 9.808 1.267 19.474 1.267 29 0 8.805-.517 17.472-1.85 26-4z" fill="#b59b58"/><path d="m225.5 489.5c2.56 1.773 4.893 3.773 7 6-1.1 1.105-1.767 2.438-2 4-4.973 5.64-10.306 10.973-16 16-.774-.647-1.774-.98-3-1-12.64 2.244-24.973 5.244-37 9-18.465-3.906-35.798-10.573-52-20 14.386-4.08 29.053-6.413 44-7 12.005.167 24.005 0 36-.5 5.758-.485 11.425-1.485 17-3 2.652-.353 4.652-1.52 6-3.5z" fill="#b7a456"/><path d="m386.5 491.5c2.306.493 4.639.826 7 1 0 .667.333 1 1 1 4.439 4.213 9.772 6.213 16 6 .067-1.459-.266-2.792-1-4h4c1.869.665 3.869 1.331 6 2 2.85 4.694 4.85 9.694 6 15 .273 1.951-.393 3.451-2 4.5-7.345 3.256-14.845 6.09-22.5 8.5-.765-.07-1.265-.403-1.5-1 1.433-5.15.933-10.15-1.5-15-3.268-6.42-7.101-12.42-11.5-18z" fill="#f2e4ac"/><path d="m457.5 490.5c-7.327 5.327-13.661 11.661-19 19-3.479 2.242-7.146 4.242-11 6-.676-1.102-1.342-2.102-2-3-1.15-5.306-3.15-10.306-6-15-2.131-.669-4.131-1.335-6-2h11c6.1 5.491 12.1 5.325 18-.5-.594-.464-1.261-.631-2-.5 5.554-1.315 11.221-2.648 17-4z" fill="#bea45f"/><path d="m565.5 536.5c.89 2.282 1.056 4.615.5 7-.561.522-1.228.855-2 1-3.347-2.182-6.181-4.849-8.5-8-5.175-11.341-13.508-19.507-25-24.5-8.98-2.548-17.647-5.882-26-10-1.711-1.133-2.211-2.633-1.5-4.5 29.503-.835 50.336 12.165 62.5 39z" fill="#fefefc"/><path d="m713.5 484.5c6.8 6.97 13.467 14.136 20 21.5 1.027.513 2.027 1.013 3 1.5 1.763 3.599 4.43 6.432 8 8.5 10.795 5.549 22.128 8.716 34 9.5-1.175-.219-2.175.114-3 1 .746 1.236 1.079 2.57 1 4-6.389 1.514-12.722 3.18-19 5-1.051-8.224-5.384-14.058-13-17.5-8.976-.853-17.81-2.353-26.5-4.5-5.81.767-11.643 1.101-17.5 1 1.05-11.432 5.383-21.432 13-30z" fill="#bba85c"/><path d="m803.5 504.5c11.057 2.858 21.724 7.025 32 12.5 3.823 1.641 5.823 4.474 6 8.5-8.058-2.023-15.724-5.19-23-9.5-4.829-1.958-9.829-3.124-15-3.5-11.931-1.301-23.931-3.134-36-5.5-7.35-1.113-14.017-3.78-20-8 18.707 1.229 37.374 3.062 56 5.5z" fill="#fdfcf8"/><path d="m472.5 491.5c3.828 6.119 8.495 11.619 14 16.5 2.536.186 4.869.686 7 1.5h-9c-6.238-.108-12.238 1.059-18 3.5-5.909 3.426-11.909 6.592-18 9.5-3.415-4.076-6.415-8.409-9-13 5.638-3.823 11.305-7.657 17-11.5 5.025-3.015 10.358-5.182 16-6.5z" fill="#f0e1a6"/><path d="m120.5 502.5c.667.333 1.333.667 2 1 16.202 9.427 33.535 16.094 52 20 8.291 1.875 16.625 3.541 25 5-6.59 6.866-11.923 14.532-16 23-16.214-4.738-32.214-10.071-48-16-5.641-10.613-11.308-21.28-17-32 .457-.798 1.124-1.131 2-1z" fill="#e6d387"/><path d="m273.5 476.5c1.487 3.616 2.82 7.283 4 11-.941 1.55-1.607 3.216-2 5-5.641 5.322-10.641 11.322-15 18-.838.342-1.172 1.008-1 2-4.903 5.474-9.57 11.14-14 17-3.306 2.64-6.306 5.64-9 9-8.261 5.517-13.261 13.184-15 23-1.398 2.507-1.064 4.84 1 7-1.149.291-1.816 1.124-2 2.5.775 2.822 1.442 5.656 2 8.5-6.575-9.246-8.742-19.579-6.5-31 1.393-3.786 3.059-7.452 5-11 5.703-5.535 11.203-11.202 16.5-17 3.665-2.833 6.832-6.166 9.5-10 7.279-11.106 15.112-21.773 23.5-32 1-.667 2-1.333 3-2z" fill="#b2a153"/><path d="m380.5 490.5c2.065.017 4.065.35 6 1 4.399 5.58 8.232 11.58 11.5 18 2.433 4.85 2.933 9.85 1.5 15-.838.342-1.172 1.008-1 2-7.258 3.459-14.925 4.793-23 4-17.059-1.953-33.726-5.62-50-11-1.59-1.734-3.59-2.9-6-3.5 12.333-.333 24.667-.667 37-1 12.25-4.083 20.25-12.249 24-24.5z" fill="#b39956"/><path d="m608.5 510.5c12.311 3.66 23.977 8.66 35 15-4.021 6.021-9.021 11.021-15 15-12.741-3.935-25.741-6.768-39-8.5-4.852-.815-9.519-.648-14 .5-4.871-7.88-10.537-15.214-17-22 11.509-.821 23.009-1.821 34.5-3 5.229.688 10.395 1.688 15.5 3z" fill="#eddd9c"/><path d="m259.5 512.5c6.703 4.347 13.37 8.68 20 13-5.676-.166-11.343.001-17 .5-5.654 1.275-11.32 2.441-17 3.5 4.43-5.86 9.097-11.526 14-17z" fill="#9f8347"/><path d="m312.5 514.5c4.034 2.237 8.368 3.904 13 5 14.123 5.266 28.123 10.932 42 17-2.689 1.617-5.689 2.617-9 3-20.636.51-38.97-5.656-55-18.5-2.883-2.602-4.55-5.768-5-9.5 4.755.585 9.422 1.585 14 3z" fill="#fefefc"/><path d="m484.5 509.5h9c6.203.478 12.203 1.811 18 4-28.062 6.031-52.062 19.364-72 40 9.057-11.901 18.723-23.401 29-34.5 5.264-3.458 10.597-6.625 16-9.5z" fill="#bba25d"/><path d="m511.5 513.5c11.998 3.666 21.998 10.332 30 20-25.346 3.226-49.012 11.226-71 24-4.985.748-9.985 1.415-15 2 8.067-8.401 15.4-17.401 22-27-.5-.333-1-.667-1.5-1-14.433 7.601-26.933 17.601-37.5 30-1.419-.951-3.085-1.284-5-1 2-2.333 4-4.667 6-7 19.938-20.636 43.938-33.969 72-40z" fill="#f0e1a5"/><path d="m757.5 535.5c-17.405 4.244-34.072 10.244-50 18h-3c-.588-3.11-1.255-6.11-2-9-.336-10.024-1.003-20.024-2-30 5.857.101 11.69-.233 17.5-1 8.69 2.147 17.524 3.647 26.5 4.5 7.616 3.442 11.949 9.276 13 17.5z" fill="#977a41"/><path d="m602.5 514.5c5.721-.131 11.388.369 17 1.5 7.824 2.403 7.824 5.07 0 8-7.265 1.588-13.765.088-19.5-4.5-.167-.5-.333-1-.5-1.5 1.044-1.174 2.044-2.341 3-3.5z" fill="#fefdfa"/><path d="m612.5 502.5c11.27 4.591 22.603 9.091 34 13.5 9.191 2.178 18.525 3.011 28 2.5.945 8.06 2.279 16.06 4 24-11.82-5.41-23.487-11.077-35-17-11.023-6.34-22.689-11.34-35-15 .882-2.885 2.216-5.552 4-8z" fill="#a78c4d"/><path d="m214.5 515.5c-5.346 4.018-10.346 8.351-15 13-8.375-1.459-16.709-3.125-25-5 12.027-3.756 24.36-6.756 37-9 1.226.02 2.226.353 3 1z" fill="#94763e"/><path d="m438.5 509.5h1c2.585 4.591 5.585 8.924 9 13-5.467 3.571-11.133 6.904-17 10-6.436 3.552-13.103 6.552-20 9-2.823-4.305-5.656-8.638-8.5-13-1.11-1.537-2.61-2.203-4.5-2-.172-.992.162-1.658 1-2 .235.597.735.93 1.5 1 7.655-2.41 15.155-5.244 22.5-8.5 1.607-1.049 2.273-2.549 2-4.5.658.898 1.324 1.898 2 3 3.854-1.758 7.521-3.758 11-6z" fill="#eddc9a"/><path d="m260.5 510.5c22.977 14.991 47.31 27.657 73 38-1.926.986-3.926 1.986-6 3 .03-.997-.47-1.664-1.5-2-7.373-2.937-14.54-6.271-21.5-10-8.308-4.626-16.642-9.292-25-14-6.63-4.32-13.297-8.653-20-13-.172-.992.162-1.658 1-2z" fill="#cfbb6e"/><path d="m279.5 525.5c8.358 4.708 16.692 9.374 25 14-.438-.065-.772.101-1 .5 3.977 4.799 7.31 9.965 10 15.5-3.976 2.969-7.976 5.969-12 9-1.109.057-2.109.39-3 1-2.224-3.124-5.224-5.291-9-6.5-6.731-2.553-13.398-4.053-20-4.5-9.522-8.26-20.522-13.594-33-16 2.694-3.36 5.694-6.36 9-9 5.68-1.059 11.346-2.225 17-3.5 5.657-.499 11.324-.666 17-.5z" fill="#beab60"/><path d="m325.5 519.5c16.274 5.38 32.941 9.047 50 11 2.131.814 4.464 1.314 7 1.5-5.048 1.405-10.048 2.905-15 4.5-13.877-6.068-27.877-11.734-42-17z" fill="#f0e1a7"/><path d="m643.5 525.5c11.513 5.923 23.18 11.59 35 17 2.12 7.923 5.12 15.59 9 23 5.351-4.518 10.185-9.518 14.5-15 .495-1.973.662-3.973.5-6 .745 2.89 1.412 5.89 2 9 .333 7.333.667 14.667 1 22-3.453 3.794-7.453 6.794-12 9-1.472-4.417-3.138-8.75-5-13-.251-1.67-.918-3.17-2-4.5-19.304-9.156-38.638-17.99-58-26.5 5.979-3.979 10.979-8.979 15-15z" fill="#e9d790"/><path d="m778.5 525.5c3.86.308 7.526.975 11 2-4.373.843-8.707 1.843-13 3 .079-1.43-.254-2.764-1-4 .825-.886 1.825-1.219 3-1z" fill="#8f713a"/><path d="m102.5 524.5c12.299 7.649 25.299 13.982 39 19 .313 3.542-.021 6.875-1 10-12.032-4.764-22.865-11.43-32.5-20-2.347-2.694-4.18-5.694-5.5-9z" fill="#b19e50"/><path d="m789.5 527.5c14.3.604 27.966 3.77 41 9.5-15.324 4.618-30.991 7.285-47 8-16.887 3.783-32.553 10.283-47 19.5-2.464-2.07-5.131-3.904-8-5.5-6.922-2.282-13.922-4.115-21-5.5 15.928-7.756 32.595-13.756 50-18 6.278-1.82 12.611-3.486 19-5 4.293-1.157 8.627-2.157 13-3z" fill="#dfc96f"/><path d="m87.5 512.5c14.903 9.783 30.903 17.45 48 23 15.786 5.929 31.786 11.262 48 16-1.995 6.27-2.328 12.603-1 19-5.336-1.168-10.336-3.168-15-6 3.787-3.067 7.787-5.9 12-8.5-12.893-3.464-25.56-7.631-38-12.5-13.701-5.018-26.701-11.351-39-19-2.684-1.693-5.351-3.36-8-5-2.527-2.105-4.86-4.439-7-7z" fill="#c0ac5d"/><path d="m94.5 519.5c2.649 1.64 5.316 3.307 8 5 1.32 3.306 3.153 6.306 5.5 9 9.635 8.57 20.468 15.236 32.5 20 .432 1.21 1.099 2.21 2 3 .727 2.454 1.727 4.787 3 7-19.328-8.655-37.328-19.321-54-32-1.775-4.677-.775-8.677 3-12z" fill="#816232"/><path d="m230.5 499.5c1.581 7.353 3.914 14.353 7 21-5.297 5.798-10.797 11.465-16.5 17-1.941 3.548-3.607 7.214-5 11-2.242 11.421-.075 21.754 6.5 31 1.19 3.526 3.19 6.526 6 9 4 3.667 8 7.333 12 11-17.91-4.635-35.243-10.635-52-18-2.748-3.232-4.748-6.898-6-11-1.328-6.397-.995-12.73 1-19 4.077-8.468 9.41-16.134 16-23 4.654-4.649 9.654-8.982 15-13 5.694-5.027 11.027-10.36 16-16z" fill="#e0ca71"/><path d="m455.5 559.5c-4.462 4.127-9.462 7.461-15 10-.942-.108-1.775-.441-2.5-1-.556-2.385-.39-4.718.5-7 10.567-12.399 23.067-22.399 37.5-30 .5.333 1 .667 1.5 1-6.6 9.599-13.933 18.599-22 27z" fill="#fefdfb"/><path d="m398.5 526.5c1.89-.203 3.39.463 4.5 2 2.844 4.362 5.677 8.695 8.5 13-.473 1.406-1.473 2.073-3 2-13.458 2.446-26.792 5.446-40 9-1.721-3.773-3.721-7.439-6-11-1.189-.929-2.522-1.262-4-1v-1c3.311-.383 6.311-1.383 9-3 4.952-1.595 9.952-3.095 15-4.5-2.536-.186-4.869-.686-7-1.5 8.075.793 15.742-.541 23-4z" fill="#e9d78e"/><path d="m541.5 533.5 2 2 3 6c-42.947 3.471-77.614 22.138-104 56-5.639 5.974-11.305 11.974-17 18-1.431 1.937-3.098 3.77-5 5.5-6.566 4.113-13.233 7.946-20 11.5-5.69-.521-11.356-1.188-17-2 9.83-4.135 19.496-8.968 29-14.5 10.899-10.23 21.066-21.063 30.5-32.5 8.76-9.265 17.927-17.931 27.5-26 21.988-12.774 45.654-20.774 71-24z" fill="#d1bd70"/><path d="m736.5 507.5c7.009 4.618 14.675 7.785 23 9.5 12.028 1.318 24.028 2.818 36 4.5 12.981 2.271 25.314 6.438 37 12.5 4.662 3.29 5.995 7.457 4 12.5-.06-.543-.393-.876-1-1-14.973 4.352-30.307 6.852-46 7.5-6.494 1.372-12.827 3.206-19 5.5-5.714 2.752-11.381 5.419-17 8-3.952 1.646-7.285 3.979-10 7-3.473-2.137-5.806-5.137-7-9 14.447-9.217 30.113-15.717 47-19.5 16.009-.715 31.676-3.382 47-8-13.034-5.73-26.7-8.896-41-9.5-3.474-1.025-7.14-1.692-11-2-11.872-.784-23.205-3.951-34-9.5-3.57-2.068-6.237-4.901-8-8.5z" fill="#bfab59"/><path d="m872.5 577.5c-.542 5.725-3.542 8.225-9 7.5-2.524-5.043-2.524-10.209 0-15.5-9.834 2.774-19.834 5.94-30 9.5-7.777 2.89-15.777 4.223-24 4-.923-2.041-1.256-4.208-1-6.5 4.67-.011 9.003-1.011 13-3 10.068-.472 19.402-3.138 28-8 6.416-2.375 12.416-5.541 18-9.5 2.933-2.264 5.1-5.098 6.5-8.5 2.01-10.151-1.157-18.318-9.5-24.5 1.109-.638 2.275-1.138 3.5-1.5 6.059 7.569 11.559 15.569 16.5 24-7.459 12.084-14.792 24.25-22 36.5 3.335-1.161 6.668-2.661 10-4.5z" fill="#bba856"/><path d="m236.5 538.5c12.478 2.406 23.478 7.74 33 16 6.657 5.325 12.99 10.991 19 17-4.273 5.942-9.273 11.276-15 16-14.937-11.3-31.604-19.133-50-23.5-1.256-.417-1.923-1.25-2-2.5 1.739-9.816 6.739-17.483 15-23z" fill="#ead992"/><path d="m304.5 539.5c6.96 3.729 14.127 7.063 21.5 10 1.03.336 1.53 1.003 1.5 2-3.159.831-6.159 1.831-9 3-1.716.129-3.383.462-5 1-2.69-5.535-6.023-10.701-10-15.5.228-.399.562-.565 1-.5z" fill="#a68a4c"/><path d="m141.5 543.5c12.44 4.869 25.107 9.036 38 12.5-4.213 2.6-8.213 5.433-12 8.5 4.664 2.832 9.664 4.832 15 6 1.252 4.102 3.252 7.768 6 11-10.484-3.606-20.817-7.606-31-12-.03-.997.47-1.664 1.5-2 2.245-.637 4.412-1.47 6.5-2.5-6.548-3.186-13.215-6.186-20-9-1.249-.74-2.249-.573-3 .5-.901-.79-1.568-1.79-2-3 .979-3.125 1.313-6.458 1-10z" fill="#886a36"/><path d="m358.5 540.5c1.478-.262 2.811.071 4 1 2.279 3.561 4.279 7.227 6 11-3.302.412-5.969 1.745-8 4-4.034.017-7.701 1.017-11 3-7.219 2.395-13.886 5.729-20 10h-1c-1.18-3.04-2.847-5.706-5-8 2.35-1.713 3.35-4.047 3-7h-8c2.841-1.169 5.841-2.169 9-3 2.074-1.014 4.074-2.014 6-3 8.155-3.051 16.489-5.718 25-8z" fill="#e4d181"/><path d="m578.5 538.5c20.879-.728 40.879 2.939 60 11-7.058 7.054-13.725 14.388-20 22-6.507-3.761-12.507-8.261-18-13.5-5.266-3.303-10.933-5.47-17-6.5-1.47-4.412-3.137-8.745-5-13z" fill="#a88d4e"/><path d="m484.5 509.5c-5.403 2.875-10.736 6.042-16 9.5-10.277 11.099-19.943 22.599-29 34.5-2 2.333-4 4.667-6 7-3.306 3.973-6.973 7.64-11 11-.397-1.025-1.063-1.192-2-.5-11.217 10.41-24.55 15.744-40 16-17.362.86-34.696.526-52-1-5.802-.573-10.802-2.74-15-6.5 4.447-4.064 9.447-7.398 15-10h1c6.417 2.599 13.084 3.433 20 2.5 12.104-1.545 23.77-4.378 35-8.5 6.432-.462 12.766-1.962 19-4.5 10.867-7.371 20.2-16.204 28-26.5 5.867-3.096 11.533-6.429 17-10 6.091-2.908 12.091-6.074 18-9.5 5.762-2.441 11.762-3.608 18-3.5z" fill="#c3b067"/><path d="m914.5 545.5c6.848 4.671 13.848 9.171 21 13.5.752.671 1.086 1.504 1 2.5-5.802 4.072-11.802 7.906-18 11.5-45.117 22.65-92.45 38.817-142 48.5v-2c8.732-1.85 17.399-4.016 26-6.5-2.983-1.635-5.649-3.468-8-5.5.739.131 1.406-.036 2-.5-2.36-1.18-4.693-2.347-7-3.5 4.055-9.111 8.388-18.111 13-27h6c-.256 2.292.077 4.459 1 6.5 8.223.223 16.223-1.11 24-4 10.166-3.56 20.166-6.726 30-9.5-2.524 5.291-2.524 10.457 0 15.5 5.458.725 8.458-1.775 9-7.5.891-.61 1.891-.943 3-1-1.705 5.055-4.371 10.055-8 15 9.915-3.925 19.915-8.425 30-13.5 8.204-9.576 13.87-20.409 17-32.5z" fill="#7f5f2f"/><path d="m628.5 540.5c19.362 8.51 38.696 17.344 58 26.5 1.082 1.33 1.749 2.83 2 4.5-3.333-1.333-6.667-2.667-10-4-12.802-7.065-26.135-13.065-40-18-19.121-8.061-39.121-11.728-60-11-.763-1.868-1.763-3.535-3-5v-1c4.481-1.148 9.148-1.315 14-.5 13.259 1.732 26.259 4.565 39 8.5z" fill="#ccb86a"/><path d="m241.5 549.5c5.318.413 10.318 1.913 15 4.5 6.561 3.44 12.561 7.606 18 12.5-10.419 1.478-20.086-.689-29-6.5-3.734-2.803-5.067-6.303-4-10.5z" fill="#fefdfa"/><path d="m408.5 543.5c-9.374 9.948-21.041 14.615-35 14-4.351-.209-8.685-.543-13-1 2.031-2.255 4.698-3.588 8-4 13.208-3.554 26.542-6.554 40-9z" fill="#eede9f"/><path d="m836.5 546.5c-3.412 5.747-8.078 10.081-14 13-5.384.523-9.718 2.857-13 7-6.223.562-8.557 3.896-7 10-4.612 8.889-8.945 17.889-13 27-3.04-1.18-5.706-2.847-8-5-3.455-8.863-6.621-17.863-9.5-27-1.075-4.27-1.575-8.603-1.5-13 6.173-2.294 12.506-4.128 19-5.5 15.693-.648 31.027-3.148 46-7.5.607.124.94.457 1 1z" fill="#866734"/><path d="m550.5 553.5c1.523 7.111 2.19 14.444 2 22 0 .667-.333 1-1 1v-4c-9.415 2.703-18.415 6.537-27 11.5-13.936 10.137-28.936 18.47-45 25-17.813 3.643-35.813 5.81-54 6.5 5.695-6.026 11.361-12.026 17-18 15.398 2.49 29.398-.677 42-9.5 17.905-19.121 39.905-30.621 66-34.5z" fill="#c2af65"/><path d="m269.5 554.5c6.602.447 13.269 1.947 20 4.5 3.776 1.209 6.776 3.376 9 6.5-3.074 2.533-6.407 4.533-10 6-6.01-6.009-12.343-11.675-19-17z" fill="#9f8347"/><path d="m318.5 554.5h8c.35 2.953-.65 5.287-3 7-9.487 9.152-20.487 15.819-33 20-.009-1.808.491-3.475 1.5-5 3.381-3.875 6.547-7.875 9.5-12 4.024-3.031 8.024-6.031 12-9 1.617-.538 3.284-.871 5-1z" fill="#fefdfb"/><path d="m575.5 533.5c1.237 1.465 2.237 3.132 3 5 1.863 4.255 3.53 8.588 5 13 1.768 5.843 2.768 11.843 3 18v4c-11.264 1.633-22.597 2.3-34 2 .19-7.556-.477-14.889-2-22-.732-4.197-2.066-8.197-4-12-1-2-2-4-3-6 3.966.662 7.966.995 12 1 2.319 3.151 5.153 5.818 8.5 8 .772-.145 1.439-.478 2-1 .556-2.385.39-4.718-.5-7 2.687.164 5.354-.003 8-.5 1.256-.417 1.923-1.25 2-2.5z" fill="#f0e1a6"/><path d="m638.5 549.5c13.865 4.935 27.198 10.935 40 18-9.328 6.326-18.662 12.659-28 19-11.248-3.855-21.914-8.855-32-15 6.275-7.612 12.942-14.946 20-22z" fill="#a18548"/><path d="m431.5 532.5c-7.8 10.296-17.133 19.129-28 26.5-6.234 2.538-12.568 4.038-19 4.5-5.344.166-10.677-.001-16-.5-6.261-1.649-12.594-2.816-19-3.5 3.299-1.983 6.966-2.983 11-3 4.315.457 8.649.791 13 1 13.959.615 25.626-4.052 35-14 1.527.073 2.527-.594 3-2 6.897-2.448 13.564-5.448 20-9z" fill="#d1bd70"/><path d="m704.5 553.5h3c7.078 1.385 14.078 3.218 21 5.5 2.869 1.596 5.536 3.43 8 5.5 1.194 3.863 3.527 6.863 7 9 1.333 2 3 3.667 5 5-3.335 4.175-6.502 8.508-9.5 13-.671.752-1.504 1.086-2.5 1-9.174-5.755-18.84-10.755-29-15-.984 2.928-1.317 5.928-1 9-.982-3.462-1.315-7.129-1-11-.333-7.333-.667-14.667-1-22z" fill="#e5d180"/><path d="m157.5 569.5c-4.065-2.033-8.065-4.033-12-6-1.273-2.213-2.273-4.546-3-7 .751-1.073 1.751-1.24 3-.5 6.785 2.814 13.452 5.814 20 9-2.088 1.03-4.255 1.863-6.5 2.5-1.03.336-1.53 1.003-1.5 2z" fill="#b29f52"/><path d="m349.5 559.5c6.406.684 12.739 1.851 19 3.5 5.323.499 10.656.666 16 .5-11.23 4.122-22.896 6.955-35 8.5-6.916.933-13.583.099-20-2.5 6.114-4.271 12.781-7.605 20-10z" fill="#a88d4e"/><path d="m770.5 558.5c-.075 4.397.425 8.73 1.5 13 2.879 9.137 6.045 18.137 9.5 27-10.451-4.478-20.118-10.145-29-17 .987-4.805 1.321-9.805 1-15 5.619-2.581 11.286-5.248 17-8z" fill="#b3a051"/><path d="m822.5 559.5c6.369.505 12.702 1.338 19 2.5 3.166.322 5.833 1.489 8 3.5-8.598 4.862-17.932 7.528-28 8-4.467.367-8.8-.133-13-1.5-1.257-2.076-.924-3.91 1-5.5 3.282-4.143 7.616-6.477 13-7z" fill="#fdfcf9"/><path d="m221.5 561.5c.077 1.25.744 2.083 2 2.5 18.396 4.367 35.063 12.2 50 23.5-.333.667-.667 1.333-1 2-15.267-10.096-31.934-17.096-50-21-2.064-2.16-2.398-4.493-1-7z" fill="#c8b465"/><path d="m753.5 566.5c.321 5.195-.013 10.195-1 15-1.333-1-2.667-2-4-3-2-1.333-3.667-3-5-5 2.715-3.021 6.048-5.354 10-7z" fill="#8f723b"/><path d="m809.5 566.5c-1.924 1.59-2.257 3.424-1 5.5 4.2 1.367 8.533 1.867 13 1.5-3.997 1.989-8.33 2.989-13 3h-6c-1.557-6.104.777-9.438 7-10z" fill="#dec871"/><path d="m678.5 567.5c3.333 1.333 6.667 2.667 10 4 1.862 4.25 3.528 8.583 5 13 .333 1.333.667 2.667 1 4-6.218 2.683-12.718 4.016-19.5 4-9.521-.384-19.021-1.051-28.5-2 1.688-1.021 3.021-2.355 4-4 9.338-6.341 18.672-12.674 28-19z" fill="#dfc972"/><path d="m907.5 515.5c1.636 1.249 2.803 2.916 3.5 5 3.108 8.024 4.275 16.357 3.5 25-3.13 12.091-8.796 22.924-17 32.5-10.085 5.075-20.085 9.575-30 13.5 3.629-4.945 6.295-9.945 8-15 5.326-3.084 10.826-6.084 16.5-9 .202 1.756.702 3.422 1.5 5 3.924-2.879 7.757-5.879 11.5-9 .333-6.667.667-13.333 1-20 3.872-9.202 4.372-18.535 1.5-28z" fill="#aa9845"/><path d="m323.5 561.5c2.153 2.294 3.82 4.96 5 8-5.553 2.602-10.553 5.936-15 10-3.31 1.982-6.31 4.315-9 7-5.351 4.351-10.017 9.351-14 15 1.69 2.019 3.356 4.019 5 6-2.236-.889-4.236-2.222-6-4-2.331 2.658-4.664 5.324-7 8-7.234-1.555-14.234-3.555-21-6 1.32-1.963 2.654-3.963 4-6 2.333-3.333 4.667-6.667 7-10 .333-.667.667-1.333 1-2 5.727-4.724 10.727-10.058 15-16 3.593-1.467 6.926-3.467 10-6 .891-.61 1.891-.943 3-1-2.953 4.125-6.119 8.125-9.5 12-1.009 1.525-1.509 3.192-1.5 5 12.513-4.181 23.513-10.848 33-20z" fill="#e0ca72"/><path d="m222.5 568.5c18.066 3.904 34.733 10.904 50 21-2.333 3.333-4.667 6.667-7 10-12.387-3.462-24.72-7.129-37-11-2.81-2.474-4.81-5.474-6-9-.558-2.844-1.225-5.678-2-8.5.184-1.376.851-2.209 2-2.5z" fill="#95773f"/><path d="m546.5 541.5c1.934 3.803 3.268 7.803 4 12-26.095 3.879-48.095 15.379-66 34.5-12.602 8.823-26.602 11.99-42 9.5 26.386-33.862 61.053-52.529 104-56z" fill="#af9553"/><path d="m736.5 592.5 8 8c-7.664-4.834-15.664-9.167-24-13-4.114 1.557-8.114 3.39-12 5.5-.88 1.356-1.214 2.856-1 4.5-.982-3.462-1.315-7.129-1-11-.317-3.072.016-6.072 1-9 10.16 4.245 19.826 9.245 29 15z" fill="#c3af5f"/><path d="m422.5 571.5c-10.105 10.777-21.105 20.444-33 29-14.138 2.868-28.138 6.368-42 10.5-2.646.497-5.313.664-8 .5-6.551-2.034-12.551-5.201-18-9.5-5.862-5.033-11.529-10.199-17-15.5 2.69-2.685 5.69-5.018 9-7 4.198 3.76 9.198 5.927 15 6.5 17.304 1.526 34.638 1.86 52 1 15.45-.256 28.783-5.59 40-16 .937-.692 1.603-.525 2 .5z" fill="#a3874a"/><path d="m228.5 588.5c12.28 3.871 24.613 7.538 37 11-1.346 2.037-2.68 4.037-4 6-7.328-1.245-14.328-3.245-21-6-4-3.667-8-7.333-12-11z" fill="#b8a55a"/><path d="m470.5 557.5c-9.573 8.069-18.74 16.735-27.5 26-9.434 11.437-19.601 22.27-30.5 32.5-9.504 5.532-19.17 10.365-29 14.5-25.745-3.177-51.079-7.844-76-14-3.634-3.484-7.634-6.484-12-9-1.644-1.981-3.31-3.981-5-6 3.983-5.649 8.649-10.649 14-15 5.471 5.301 11.138 10.467 17 15.5 5.449 4.299 11.449 7.466 18 9.5 18.757 6.146 35.423 2.479 50-11 11.895-8.556 22.895-18.223 33-29 4.027-3.36 7.694-7.027 11-11 1.915-.284 3.581.049 5 1-.89 2.282-1.056 4.615-.5 7 .725.559 1.558.892 2.5 1 5.538-2.539 10.538-5.873 15-10 5.015-.585 10.015-1.252 15-2z" fill="#ecdb98"/><path d="m627.5 597.5c4.604 3.541 6.771 8.208 6.5 14-2.89 2.771-6.39 4.104-10.5 4-13.51 1.301-23.343-4.032-29.5-16-.667-2-.667-4 0-6 1.4-.616 2.9-.949 4.5-1 9.704 1.576 19.371 3.243 29 5z" fill="#eddd9f"/><path d="m748.5 578.5c1.333 1 2.667 2 4 3 8.882 6.855 18.549 12.522 29 17 2.294 2.153 4.96 3.82 8 5 2.307 1.153 4.64 2.32 7 3.5-.594.464-1.261.631-2 .5-13.482 3.748-27.149 6.748-41 9-1.223-6.249-4.223-11.583-9-16-2.667-2.667-5.333-5.333-8-8 .996.086 1.829-.248 2.5-1 2.998-4.492 6.165-8.825 9.5-13z" fill="#e1cb75"/><path d="m586.5 569.5c.934 1.068 1.268 2.401 1 4 0 14.01-.334 28.01-1 42-13.548 1.81-27.214 2.477-41 2 2.26-13.634 4.26-27.301 6-41 .667 0 1-.333 1-1 11.403.3 22.736-.367 34-2z" fill="#ecdb99"/><path d="m583.5 551.5c6.067 1.03 11.734 3.197 17 6.5 5.493 5.239 11.493 9.739 18 13.5 10.086 6.145 20.752 11.145 32 15-.979 1.645-2.312 2.979-4 4 9.479.949 18.979 1.616 28.5 2 6.782.016 13.282-1.317 19.5-4 1.898 13.318-2.102 24.318-12 33-16.68-10.677-34.013-20.344-52-29-14.012-6.899-28.345-13.233-43-19 .268-1.599-.066-2.932-1-4-.232-6.157-1.232-12.157-3-18z" fill="#bba85c"/><path d="m389.5 600.5c-14.577 13.479-31.243 17.146-50 11 2.687.164 5.354-.003 8-.5 13.862-4.132 27.862-7.632 42-10.5z" fill="#bfab61"/><path d="m744.5 600.5c4.777 4.417 7.777 9.751 9 16 .709.904 1.709 1.237 3 1-.13 2.737 1.036 4.737 3.5 6 5.456-1.573 10.956-2.906 16.5-4v2c-28.291 6.159-56.957 10.826-86 14 2.95-1.615 5.616-3.615 8-6 6.187 1.848 12.52 2.348 19 1.5 6.851-5.535 10.017-12.702 9.5-21.5-5.538-5.353-12.038-9.019-19.5-11v-1c-.214-1.644.12-3.144 1-4.5 3.886-2.11 7.886-3.943 12-5.5 8.336 3.833 16.336 8.166 24 13z" fill="#8d6f39"/><path d="m705.5 575.5c-.315 3.871.018 7.538 1 11-.315 3.871.018 7.538 1 11v1c2.005 11.966-.995 22.299-9 31-2.384 2.385-5.05 4.385-8 6-14.915 2.045-29.915 3.378-45 4 .418-.722 1.084-1.222 2-1.5-1.973-.495-3.973-.662-6-.5 15.142-1.384 28.809-6.717 41-16 9.898-8.682 13.898-19.682 12-33-.333-1.333-.667-2.667-1-4 4.547-2.206 8.547-5.206 12-9z" fill="#e6d387"/><path d="m295.5 607.5c4.366 2.516 8.366 5.516 12 9-8.37-1.456-16.704-3.123-25-5 2.336-2.676 4.669-5.342 7-8 1.764 1.778 3.764 3.111 6 4z" fill="#baa55e"/><path d="m630.5 592.5c17.987 8.656 35.32 18.323 52 29-12.191 9.283-25.858 14.616-41 16-9.672.166-19.339 0-29-.5-5.232-.727-10.232-1.893-15-3.5 9.015-5.507 17.682-11.507 26-18 4.11.104 7.61-1.229 10.5-4 .271-5.792-1.896-10.459-6.5-14-.547-2.212.453-3.879 3-5z" fill="#987c42"/><path d="m707.5 598.5c7.462 1.981 13.962 5.647 19.5 11 .517 8.798-2.649 15.965-9.5 21.5-6.48.848-12.813.348-19-1.5 8.005-8.701 11.005-19.034 9-31z" fill="#b5a154"/><path d="m794.5 607.5c2.351 2.032 5.017 3.865 8 5.5-8.601 2.484-17.268 4.65-26 6.5-5.544 1.094-11.044 2.427-16.5 4-2.464-1.263-3.63-3.263-3.5-6-1.291.237-2.291-.096-3-1 13.851-2.252 27.518-5.252 41-9z" fill="#beaa59"/><path d="m551.5 576.5c-1.74 13.699-3.74 27.366-6 41-1.315 7.538-1.315 15.205 0 23-8.307.998-16.64 1.331-25 1-40.165-.966-80.165-3.966-120-9 6.767-3.554 13.434-7.387 20-11.5 1.902-1.73 3.569-3.563 5-5.5 18.187-.69 36.187-2.857 54-6.5 16.064-6.53 31.064-14.863 45-25 8.585-4.963 17.585-8.797 27-11.5z" fill="#a5894c"/><path d="m539.5 585.5h5c.079 2.771-.421 5.437-1.5 8-3.078 6.491-6.412 12.825-10 19-5.258 5.088-11.591 7.421-19 7-7.728.572-14.394-1.762-20-7-.667-1.333-.667-2.667 0-4 2.205-2.54 4.705-4.707 7.5-6.5 12.726-5.621 25.393-11.121 38-16.5z" fill="#eddd9f"/><path d="m587.5 573.5c14.655 5.767 28.988 12.101 43 19-2.547 1.121-3.547 2.788-3 5-9.629-1.757-19.296-3.424-29-5-1.6.051-3.1.384-4.5 1-.667 2-.667 4 0 6 6.157 11.968 15.99 17.301 29.5 16-8.318 6.493-16.985 12.493-26 18-9.182-2.485-12.849-8.485-11-18 .666-13.99 1-27.99 1-42z" fill="#a18549"/><path d="m586.5 615.5c-1.849 9.515 1.818 15.515 11 18 4.768 1.607 9.768 2.773 15 3.5 9.661.5 19.328.666 29 .5 2.027-.162 4.027.005 6 .5-.916.278-1.582.778-2 1.5-41.786 2.933-83.453 3.599-125 2 8.36.331 16.693-.002 25-1-1.315-7.795-1.315-15.462 0-23 13.786.477 27.452-.19 41-2z" fill="#e9d791"/></g></svg>