<?xml version="1.0" encoding="UTF-8" standalone="no"?>
<!DOCTYPE svg PUBLIC "-//W3C//DTD SVG 1.1//EN" "http://www.w3.org/Graphics/SVG/1.1/DTD/svg11.dtd">
<svg width="100%" height="100%" viewBox="0 0 1024 1024" version="1.1" xmlns="http://www.w3.org/2000/svg" xmlns:xlink="http://www.w3.org/1999/xlink" xml:space="preserve" xmlns:serif="http://www.serif.com/" style="fill-rule:evenodd;clip-rule:evenodd;stroke-linejoin:round;stroke-miterlimit:2;">
    <g transform="matrix(1.01093,0,0,1.00712,-102.128,76.7044)">
        <g transform="matrix(1.97537,0.364676,-0.349121,1.90545,377.202,94.3743)">
            <path d="M121.5,20.5C129.416,19.299 137.416,19.632 145.5,21.5L145.5,22.5C137.541,21.396 129.541,20.729 121.5,20.5Z" style="fill:rgb(231,165,113);"/>
        </g>
        <g transform="matrix(1.97537,0.364676,-0.349121,1.90545,377.202,94.3743)">
            <path d="M121.5,20.5C120.876,22.754 119.543,24.421 117.5,25.5C118.136,23.205 119.469,21.539 121.5,20.5Z" style="fill:rgb(231,168,123);"/>
        </g>
        <g transform="matrix(1.97537,0.364676,-0.349121,1.90545,377.202,94.3743)">
            <path d="M145.5,22.5L145.5,21.5C148.518,21.335 151.518,21.502 154.5,22C157.006,23.299 159.673,24.299 162.5,25C163.381,25.708 164.047,26.542 164.5,27.5C158.237,25.533 151.904,23.867 145.5,22.5Z" style="fill:rgb(255,240,217);"/>
        </g>
        <g transform="matrix(1.97537,0.364676,-0.349121,1.90545,377.202,94.3743)">
            <path d="M121.5,20.5C129.541,20.729 137.541,21.396 145.5,22.5C151.904,23.867 158.237,25.533 164.5,27.5C168.072,29.083 171.738,30.583 175.5,32C178.691,34.426 182.025,36.593 185.5,38.5C187.179,41.175 188.846,43.841 190.5,46.5C188.365,50.875 186.031,55.208 183.5,59.5C182.055,61.063 180.389,62.396 178.5,63.5C178.712,61.616 179.712,60.283 181.5,59.5C173.971,53.619 165.971,48.452 157.5,44C158.167,43.667 158.833,43.333 159.5,43C151.502,42.74 143.502,41.406 135.5,39C128.767,37.943 122.1,37.776 115.5,38.5L115.5,29.5C115.66,27.847 116.326,26.514 117.5,25.5C119.543,24.421 120.876,22.754 121.5,20.5Z" style="fill:rgb(246,137,62);"/>
        </g>
        <g transform="matrix(1.97537,0.364676,-0.349121,1.90545,377.202,94.3743)">
            <path d="M115.5,29.5L115.5,38.5C116.038,45.822 116.371,53.155 116.5,60.5L114.5,60.5L114.5,31.5C114.328,30.508 114.662,29.842 115.5,29.5Z" style="fill:rgb(224,148,97);"/>
        </g>
        <g transform="matrix(1.97537,0.364676,-0.349121,1.90545,377.202,94.3743)">
            <path d="M178.5,63.5C178.027,64.906 177.027,65.573 175.5,65.5C171.836,67.574 168.003,69.574 164,71.5C162.774,71.355 161.607,71.022 160.5,70.5C159.758,72.108 159.591,73.775 160,75.5C147.042,68.909 133.376,64.576 119,62.5C117.624,62.316 116.791,61.649 116.5,60.5C116.371,53.155 116.038,45.822 115.5,38.5C122.1,37.776 128.767,37.943 135.5,39C143.502,41.406 151.502,42.74 159.5,43C158.833,43.333 158.167,43.667 157.5,44C165.971,48.452 173.971,53.619 181.5,59.5C179.712,60.283 178.712,61.616 178.5,63.5Z" style="fill:rgb(236,122,43);"/>
        </g>
        <g transform="matrix(1.97537,0.364676,-0.349121,1.90545,377.202,94.3743)">
            <path d="M185.5,38.5C190.614,40.911 192.447,44.911 191,50.5C188.971,53.89 186.471,56.89 183.5,59.5C186.031,55.208 188.365,50.875 190.5,46.5C188.846,43.841 187.179,41.175 185.5,38.5Z" style="fill:rgb(241,176,127);"/>
        </g>
        <g transform="matrix(1.97537,0.364676,-0.349121,1.90545,377.202,94.3743)">
            <path d="M114.5,31.5L114.5,61.5L107.5,61.5L107.5,71.5C106.907,68.324 105.907,65.157 104.5,62C106.704,59.393 109.371,58.893 112.5,60.5C113.167,50.675 113.833,41.008 114.5,31.5Z" style="fill:rgb(255,238,216);"/>
        </g>
        <g transform="matrix(1.97537,0.364676,-0.349121,1.90545,377.202,94.3743)">
            <path d="M107.5,91.5C114.132,103.891 119.299,116.891 123,130.5C128.114,151.676 127.448,172.676 121,193.5C114.292,211.242 108.459,229.242 103.5,247.5C101.2,249.202 98.533,249.868 95.5,249.5C86.643,248.785 77.976,247.119 69.5,244.5C67.629,232.57 67.129,220.57 68,208.5C73.207,184.797 78.54,161.13 84,137.5C88.508,111.895 85.008,87.561 73.5,64.5C81.397,62.721 89.397,61.721 97.5,61.5C98.673,72.351 102.006,82.351 107.5,91.5Z" style="fill:rgb(44,44,42);"/>
        </g>
        <g transform="matrix(1.97537,0.364676,-0.349121,1.90545,377.202,94.3743)">
            <path d="M114.5,60.5L116.5,60.5C116.791,61.649 117.624,62.316 119,62.5C133.376,64.576 147.042,68.909 160,75.5C159.591,73.775 159.758,72.108 160.5,70.5C161.607,71.022 162.774,71.355 164,71.5C168.003,69.574 171.836,67.574 175.5,65.5L175.5,66.5C170.909,69.085 166.576,72.085 162.5,75.5C163.174,77.025 164.174,78.358 165.5,79.5C163.525,80.578 161.692,80.245 160,78.5C157.527,79.12 155.027,79.786 152.5,80.5C150.767,82.676 149.1,84.843 147.5,87C146.521,90.805 146.355,94.638 147,98.5C147.893,99.711 148.726,99.711 149.5,98.5C149.967,94.91 151.467,91.91 154,89.5C154.499,93.486 154.666,97.486 154.5,101.5C150.508,112.664 147.842,124.164 146.5,136C147.391,146.635 149.058,157.135 151.5,167.5C152.585,173.846 153.752,180.18 155,186.5C156.11,188.037 157.61,188.703 159.5,188.5C159.263,189.791 159.596,190.791 160.5,191.5C160.338,193.527 160.505,195.527 161,197.5C163.057,198.978 164.39,200.978 165,203.5C165.671,204.252 166.504,204.586 167.5,204.5C168.11,205.391 168.443,206.391 168.5,207.5C153.435,210.079 138.102,212.745 122.5,215.5C123.371,212.888 124.037,210.221 124.5,207.5L127.5,207.5C127.338,205.473 127.505,203.473 128,201.5C128.908,197.807 130.408,194.473 132.5,191.5C133.687,188.054 134.354,184.387 134.5,180.5C135.75,169.828 135.584,159.161 134,148.5C131.52,140.231 129.354,131.898 127.5,123.5C126.694,120.715 126.028,117.881 125.5,115C125.559,113.564 125.892,112.231 126.5,111C125.451,110.508 124.451,110.674 123.5,111.5C120.448,104.397 117.781,97.064 115.5,89.5C114.606,87.721 113.273,86.388 111.5,85.5C111.795,83.265 111.461,81.265 110.5,79.5C110.044,74.135 109.377,68.801 108.5,63.5C111.01,63.947 113.01,63.28 114.5,61.5L114.5,60.5Z" style="fill:rgb(253,155,81);"/>
        </g>
        <g transform="matrix(1.97537,0.364676,-0.349121,1.90545,377.202,94.3743)">
            <path d="M114.5,61.5C113.01,63.28 111.01,63.947 108.5,63.5C109.377,68.801 110.044,74.135 110.5,79.5C109.833,77.5 109.167,75.5 108.5,73.5C108.672,72.508 108.338,71.842 107.5,71.5L107.5,61.5L114.5,61.5Z" style="fill:rgb(241,177,132);"/>
        </g>
        <g transform="matrix(1.97537,0.364676,-0.349121,1.90545,377.202,94.3743)">
            <path d="M63.5,68.5L63.5,67.5C64.822,67.33 65.989,67.663 67,68.5C69.566,71.692 71.066,75.358 71.5,79.5C68.201,77.02 66.368,73.687 66,69.5C65.329,68.748 64.496,68.414 63.5,68.5Z" style="fill:rgb(239,173,126);"/>
        </g>
        <g transform="matrix(1.97537,0.364676,-0.349121,1.90545,377.202,94.3743)">
            <path d="M63.5,69.5C59.516,71.496 55.849,73.996 52.5,77C54.246,77.471 55.913,78.138 57.5,79C54.647,79.664 51.981,79.164 49.5,77.5C47.944,78.547 46.277,79.214 44.5,79.5C45.052,81.331 45.052,82.997 44.5,84.5C40.865,83.145 38.198,84.312 36.5,88C34.866,88.494 33.199,88.66 31.5,88.5C40.269,79.11 50.936,72.777 63.5,69.5Z" style="fill:rgb(246,165,104);"/>
        </g>
        <g transform="matrix(1.97537,0.364676,-0.349121,1.90545,377.202,94.3743)">
            <path d="M63.5,68.5C64.496,68.414 65.329,68.748 66,69.5C66.368,73.687 68.201,77.02 71.5,79.5L72.5,79.5C72.045,85.435 73.378,90.768 76.5,95.5C77.166,99.653 77.499,103.987 77.5,108.5C77.68,115.072 77.013,121.405 75.5,127.5C73.38,131.804 72.38,136.471 72.5,141.5C69.155,154.203 64.822,166.537 59.5,178.5C56.217,182.106 54.883,186.44 55.5,191.5C54.507,199.65 54.174,207.983 54.5,216.5C47.029,216.174 39.862,214.507 33,211.5C32.228,211.645 31.561,211.978 31,212.5C29.47,210.703 27.636,209.37 25.5,208.5C26.209,207.596 27.209,207.263 28.5,207.5C28.662,205.473 28.496,203.473 28,201.5C26.63,198.009 25.13,194.675 23.5,191.5L18.5,191.5C20.49,180.946 21.823,170.279 22.5,159.5C23.969,165.164 24.302,170.831 23.5,176.5C24.861,178.028 26.028,179.695 27,181.5C30.539,180.432 34.039,180.765 37.5,182.5C41.105,181.488 44.439,180.155 47.5,178.5L47.5,175.5C47.411,172.275 48.077,169.275 49.5,166.5C48.818,164.159 48.151,161.826 47.5,159.5C47.272,155.607 45.272,153.274 41.5,152.5C45.19,148.134 45.356,143.468 42,138.5C32.042,130.58 24.376,132.247 19,143.5C18.272,146.23 18.438,148.897 19.5,151.5C21.167,152.666 22.834,152.666 24.5,151.5C28.702,151.431 29.369,153.265 26.5,157C24.287,157.626 22.12,157.459 20,156.5C18.274,156.946 16.774,157.779 15.5,159C16.658,160.009 17.325,161.342 17.5,163C16.664,165.49 15.998,167.99 15.5,170.5C16.516,176.845 15.182,182.512 11.5,187.5C10.482,186.807 9.482,186.141 8.5,185.5C6.267,182.61 4.934,179.277 4.5,175.5C4.473,169.949 3.806,164.616 2.5,159.5C1.236,152.295 1.402,144.961 3,137.5C4.364,131.764 6.031,126.098 8,120.5C10.67,118.021 12.17,115.021 12.5,111.5L15.5,111.5L15.5,108.5C18.391,106.116 21.224,103.449 24,100.5C24.494,98.866 24.66,97.199 24.5,95.5C26.473,92.861 28.806,90.527 31.5,88.5C33.199,88.66 34.866,88.494 36.5,88C38.198,84.312 40.865,83.145 44.5,84.5C45.052,82.997 45.052,81.331 44.5,79.5C46.277,79.214 47.944,78.547 49.5,77.5C51.981,79.164 54.647,79.664 57.5,79C55.913,78.138 54.246,77.471 52.5,77C55.849,73.996 59.516,71.496 63.5,69.5L63.5,68.5Z" style="fill:rgb(253,156,81);"/>
        </g>
        <g transform="matrix(1.97537,0.364676,-0.349121,1.90545,377.202,94.3743)">
            <path d="M162.5,75.5C164.853,76.34 166.853,77.674 168.5,79.5C161.799,85.576 157.132,92.91 154.5,101.5C154.666,97.486 154.499,93.486 154,89.5C151.467,91.91 149.967,94.91 149.5,98.5C148.726,99.711 147.893,99.711 147,98.5C146.355,94.638 146.521,90.805 147.5,87C149.1,84.843 150.767,82.676 152.5,80.5C155.027,79.786 157.527,79.12 160,78.5C161.692,80.245 163.525,80.578 165.5,79.5C164.174,78.358 163.174,77.025 162.5,75.5Z" style="fill:rgb(249,158,90);"/>
        </g>
        <g transform="matrix(1.97537,0.364676,-0.349121,1.90545,377.202,94.3743)">
            <path d="M181.5,85.5C186.518,88.859 191.518,92.193 196.5,95.5C190.606,105.611 184.439,115.611 178,125.5C172.741,137.881 172.074,150.548 176,163.5C179.251,177.79 185.084,190.79 193.5,202.5C195.825,207.147 198.659,211.48 202,215.5C202.667,216.5 202.667,217.5 202,218.5C195.603,223.227 188.936,227.56 182,231.5C181.768,230.263 181.268,229.263 180.5,228.5C179.79,221.995 178.29,215.661 176,209.5C169.408,194.057 163.408,178.39 158,162.5C151.203,138.724 153.537,116.057 165,94.5C167.809,90.39 170.975,86.557 174.5,83C177.042,82.993 179.376,83.826 181.5,85.5Z" style="fill:rgb(45,44,42);"/>
        </g>
        <g transform="matrix(1.97537,0.364676,-0.349121,1.90545,377.202,94.3743)">
            <path d="M72.5,79.5C75.064,84.422 76.397,89.755 76.5,95.5C73.378,90.768 72.045,85.435 72.5,79.5Z" style="fill:rgb(242,170,113);"/>
        </g>
        <g transform="matrix(1.97537,0.364676,-0.349121,1.90545,377.202,94.3743)">
            <path d="M73.5,64.5C85.008,87.561 88.508,111.895 84,137.5C78.54,161.13 73.207,184.797 68,208.5C67.129,220.57 67.629,232.57 69.5,244.5C66.29,243.828 63.124,242.828 60,241.5C58.97,241.164 58.47,240.497 58.5,239.5C59.497,239.53 60.164,239.03 60.5,238C58.226,230.77 56.226,223.603 54.5,216.5C54.174,207.983 54.507,199.65 55.5,191.5C56.801,187.255 58.135,182.922 59.5,178.5C64.822,166.537 69.155,154.203 72.5,141.5C74.419,137.143 75.419,132.477 75.5,127.5C77.013,121.405 77.68,115.072 77.5,108.5C77.499,103.987 77.166,99.653 76.5,95.5C76.397,89.755 75.064,84.422 72.5,79.5L71.5,79.5C71.066,75.358 69.566,71.692 67,68.5C65.989,67.663 64.822,67.33 63.5,67.5C64.949,65.836 66.949,65.002 69.5,65C68.112,64.111 68.278,63.611 70,63.5C71.368,64.266 72.535,64.6 73.5,64.5Z" style="fill:rgb(249,248,244);"/>
        </g>
        <g transform="matrix(1.97537,0.364676,-0.349121,1.90545,377.202,94.3743)">
            <path d="M24.5,95.5C24.66,97.199 24.494,98.866 24,100.5C21.224,103.449 18.391,106.116 15.5,108.5C17.297,103.364 20.297,99.031 24.5,95.5Z" style="fill:rgb(241,167,112);"/>
        </g>
        <g transform="matrix(1.97537,0.364676,-0.349121,1.90545,377.202,94.3743)">
            <path d="M271.5,107.5C268.978,107.872 266.978,107.039 265.5,105C263.19,104.503 260.857,104.337 258.5,104.5L258.5,107.5L255.5,107.5L255.5,104.5L252.5,104.5C249.013,105.445 247.68,107.778 248.5,111.5L245.5,111.5C246.703,116.783 244.703,119.783 239.5,120.5C241.994,113.003 246.327,106.836 252.5,102C259.515,101.933 265.849,103.766 271.5,107.5Z" style="fill:rgb(234,143,80);"/>
        </g>
        <g transform="matrix(1.97537,0.364676,-0.349121,1.90545,377.202,94.3743)">
            <path d="M203.5,101.5C205.705,103.363 207.039,105.697 207.5,108.5C209.933,108.273 211.599,109.273 212.5,111.5C212.08,113.094 211.414,114.594 210.5,116C210.833,116.5 211.167,117 211.5,117.5C215.44,115.764 217.107,117.097 216.5,121.5C219.5,121.167 220.833,122.5 220.5,125.5L223.5,125.5C226.067,129.629 228.4,133.962 230.5,138.5C231.176,137.398 231.842,136.398 232.5,135.5C232.854,138.421 231.854,140.754 229.5,142.5C230.325,143.386 231.325,143.719 232.5,143.5C232.833,146.167 233.167,148.833 233.5,151.5C233.736,159.542 233.403,167.542 232.5,175.5L229.5,175.5L229.5,178.5C227.436,178.687 225.436,179.187 223.5,180C218.675,183.248 213.675,186.248 208.5,189C206.593,192.319 203.926,194.819 200.5,196.5C199.571,197.689 199.238,199.022 199.5,200.5C196.22,197.957 193.387,194.957 191,191.5C188.037,185.741 185.204,179.908 182.5,174C180.318,169.441 178.984,164.607 178.5,159.5C178.334,152.492 178.5,145.492 179,138.5C181.015,135.469 182.181,132.136 182.5,128.5C182.5,127.833 182.833,127.5 183.5,127.5C187.327,123.867 191.16,120.2 195,116.5C195.494,114.866 195.66,113.199 195.5,111.5C197.143,107.206 199.81,103.873 203.5,101.5Z" style="fill:rgb(253,155,81);"/>
        </g>
        <g transform="matrix(1.97537,0.364676,-0.349121,1.90545,377.202,94.3743)">
            <path d="M111.5,85.5C113.273,86.388 114.606,87.721 115.5,89.5C117.781,97.064 120.448,104.397 123.5,111.5C124.451,110.674 125.451,110.508 126.5,111C125.892,112.231 125.559,113.564 125.5,115C126.028,117.881 126.694,120.715 127.5,123.5C125.108,119.722 122.941,115.722 121,111.5C118.079,102.674 114.912,94.007 111.5,85.5Z" style="fill:rgb(243,164,107);"/>
        </g>
        <g transform="matrix(1.97537,0.364676,-0.349121,1.90545,377.202,94.3743)">
            <path d="M212.5,111.5C216.844,115.525 220.511,120.192 223.5,125.5L220.5,125.5C220.833,122.5 219.5,121.167 216.5,121.5C217.107,117.097 215.44,115.764 211.5,117.5C211.167,117 210.833,116.5 210.5,116C211.414,114.594 212.08,113.094 212.5,111.5Z" style="fill:rgb(243,166,107);"/>
        </g>
        <g transform="matrix(1.97537,0.364676,-0.349121,1.90545,377.202,94.3743)">
            <path d="M175.5,66.5C175.631,67.239 175.464,67.906 175,68.5C171.887,69.71 169.387,71.71 167.5,74.5C168.689,75.429 170.022,75.762 171.5,75.5L171.5,78.5C176.917,78.215 180.917,79.715 183.5,83C182.619,83.708 181.953,84.542 181.5,85.5C179.376,83.826 177.042,82.993 174.5,83C170.975,86.557 167.809,90.39 165,94.5C153.537,116.057 151.203,138.724 158,162.5C163.408,178.39 169.408,194.057 176,209.5C178.29,215.661 179.79,221.995 180.5,228.5C181.238,234.262 178.738,237.595 173,238.5C172.333,239.833 172.333,241.167 173,242.5C174.892,243.617 175.725,245.284 175.5,247.5C173.167,244.5 170.5,241.833 167.5,239.5C167.414,238.504 167.748,237.671 168.5,237C171.104,236.61 173.438,235.776 175.5,234.5C176.497,234.53 177.164,234.03 177.5,233C177.101,231.272 176.434,229.772 175.5,228.5C174.857,223.399 173.691,218.399 172,213.5C171.576,210.975 170.41,208.975 168.5,207.5C168.443,206.391 168.11,205.391 167.5,204.5C165.403,199.968 163.069,195.635 160.5,191.5C159.596,190.791 159.263,189.791 159.5,188.5C157.6,181.124 154.934,174.124 151.5,167.5C149.058,157.135 147.391,146.635 146.5,136C147.842,124.164 150.508,112.664 154.5,101.5C157.132,92.91 161.799,85.576 168.5,79.5C166.853,77.674 164.853,76.34 162.5,75.5C166.576,72.085 170.909,69.085 175.5,66.5Z" style="fill:rgb(247,244,237);"/>
        </g>
        <g transform="matrix(1.97537,0.364676,-0.349121,1.90545,377.202,94.3743)">
            <path d="M252.5,104.5C255.019,109.535 258.186,114.201 262,118.5C263.804,123.44 266.137,128.107 269,132.5C270.555,139.027 272.388,145.361 274.5,151.5L271.5,151.5L271.5,154.5C269.396,154.201 267.396,154.534 265.5,155.5C264.873,156.417 264.539,157.417 264.5,158.5C261.858,159.102 259.525,160.436 257.5,162.5C261.143,164.045 264.81,165.712 268.5,167.5C270.5,168.5 272.5,169.5 274.5,170.5C274.594,173.068 275.928,174.568 278.5,175C277.062,175.219 275.729,175.719 274.5,176.5C273.118,179.192 272.118,182.026 271.5,185C269.266,187.569 267.433,190.402 266,193.5C262.951,196.211 259.618,198.545 256,200.5C254.274,202.591 253.107,204.924 252.5,207.5C250.712,207.215 249.045,207.548 247.5,208.5C248.862,211.236 250.696,213.569 253,215.5C253.49,216.793 253.657,218.127 253.5,219.5C252.448,219.649 251.448,219.483 250.5,219C248.951,216.289 246.951,214.123 244.5,212.5C241.816,207.132 239.15,201.799 236.5,196.5C235.892,193.673 234.892,191.007 233.5,188.5C233.606,185.921 232.939,183.588 231.5,181.5C232.493,178.927 233.326,176.26 234,173.5C234.822,165.988 234.655,158.655 233.5,151.5C233.167,148.833 232.833,146.167 232.5,143.5C231.325,143.719 230.325,143.386 229.5,142.5C231.854,140.754 232.854,138.421 232.5,135.5C234.579,130.344 236.912,125.344 239.5,120.5C244.703,119.783 246.703,116.783 245.5,111.5L248.5,111.5C247.68,107.778 249.013,105.445 252.5,104.5Z" style="fill:rgb(237,122,43);"/>
        </g>
        <g transform="matrix(1.97537,0.364676,-0.349121,1.90545,377.202,94.3743)">
            <path d="M195.5,111.5C195.66,113.199 195.494,114.866 195,116.5C191.16,120.2 187.327,123.867 183.5,127.5C183.608,125.217 184.441,123.217 186,121.5C188.718,117.619 191.884,114.285 195.5,111.5Z" style="fill:rgb(244,169,116);"/>
        </g>
        <g transform="matrix(1.97537,0.364676,-0.349121,1.90545,377.202,94.3743)">
            <path d="M287.5,119.5C293.745,123.308 296.079,128.641 294.5,135.5C293.584,131.757 292.25,128.09 290.5,124.5C288.227,123.625 287.227,121.958 287.5,119.5Z" style="fill:rgb(229,155,106);"/>
        </g>
        <g transform="matrix(1.97537,0.364676,-0.349121,1.90545,377.202,94.3743)">
            <path d="M252.5,104.5L255.5,104.5L255.5,107.5L258.5,107.5L258.5,104.5C260.857,104.337 263.19,104.503 265.5,105C266.978,107.039 268.978,107.872 271.5,107.5C277.665,110.324 282.999,114.324 287.5,119.5C287.227,121.958 288.227,123.625 290.5,124.5C292.25,128.09 293.584,131.757 294.5,135.5C292.107,140.288 288.774,144.288 284.5,147.5C279.803,149.178 275.803,151.844 272.5,155.5C269.66,156.203 266.993,157.203 264.5,158.5C264.539,157.417 264.873,156.417 265.5,155.5C267.396,154.534 269.396,154.201 271.5,154.5L271.5,151.5L274.5,151.5C272.388,145.361 270.555,139.027 269,132.5C266.137,128.107 263.804,123.44 262,118.5C258.186,114.201 255.019,109.535 252.5,104.5Z" style="fill:rgb(245,136,62);"/>
        </g>
        <g transform="matrix(1.97537,0.364676,-0.349121,1.90545,377.202,94.3743)">
            <path d="M75.5,127.5C75.419,132.477 74.419,137.143 72.5,141.5C72.38,136.471 73.38,131.804 75.5,127.5Z" style="fill:rgb(236,173,125);"/>
        </g>
        <g transform="matrix(1.97537,0.364676,-0.349121,1.90545,377.202,94.3743)">
            <path d="M41.5,152.5C40.503,152.53 39.836,152.03 39.5,151C38.678,148.566 38.344,146.066 38.5,143.5C39.792,145.255 40.792,147.255 41.5,149.5C42.587,141.891 39.253,137.224 31.5,135.5C29.161,135.669 26.994,136.336 25,137.5C23.345,140.641 21.845,143.808 20.5,147C20.833,148.167 21.167,149.333 21.5,150.5C22.132,147.898 23.132,145.564 24.5,143.5L24.5,151.5C22.834,152.666 21.167,152.666 19.5,151.5C18.438,148.897 18.272,146.23 19,143.5C24.376,132.247 32.042,130.58 42,138.5C45.356,143.468 45.19,148.134 41.5,152.5Z" style="fill:rgb(237,155,92);"/>
        </g>
        <g transform="matrix(1.97537,0.364676,-0.349121,1.90545,377.202,94.3743)">
            <path d="M38.5,143.5C36.537,138.354 32.87,136.688 27.5,138.5C25.679,139.728 24.679,141.394 24.5,143.5C23.132,145.564 22.132,147.898 21.5,150.5C21.167,149.333 20.833,148.167 20.5,147C21.845,143.808 23.345,140.641 25,137.5C26.994,136.336 29.161,135.669 31.5,135.5C39.253,137.224 42.587,141.891 41.5,149.5C40.792,147.255 39.792,145.255 38.5,143.5Z" style="fill:rgb(169,100,48);"/>
        </g>
        <g transform="matrix(1.97537,0.364676,-0.349121,1.90545,377.202,94.3743)">
            <path d="M182.5,128.5C182.181,132.136 181.015,135.469 179,138.5C178.5,145.492 178.334,152.492 178.5,159.5C175.161,148.561 176.494,138.227 182.5,128.5Z" style="fill:rgb(238,168,115);"/>
        </g>
        <g transform="matrix(1.97537,0.364676,-0.349121,1.90545,377.202,94.3743)">
            <path d="M108.5,73.5C109.167,75.5 109.833,77.5 110.5,79.5C111.461,81.265 111.795,83.265 111.5,85.5C114.912,94.007 118.079,102.674 121,111.5C122.941,115.722 125.108,119.722 127.5,123.5C129.354,131.898 131.52,140.231 134,148.5C135.584,159.161 135.75,169.828 134.5,180.5C132.918,183.876 132.251,187.542 132.5,191.5C130.408,194.473 128.908,197.807 128,201.5C127.505,203.473 127.338,205.473 127.5,207.5L124.5,207.5C124.037,210.221 123.371,212.888 122.5,215.5C120.737,217.885 119.237,220.552 118,223.5C115.338,231.968 113.838,240.634 113.5,249.5C111.914,250.413 110.414,250.413 109,249.5C107.541,251.81 105.708,252.143 103.5,250.5L103.5,247.5C108.459,229.242 114.292,211.242 121,193.5C127.448,172.676 128.114,151.676 123,130.5C119.299,116.891 114.132,103.891 107.5,91.5C107.539,90.417 107.873,89.417 108.5,88.5C106.615,87.803 106.282,86.803 107.5,85.5C106.677,83.36 105.677,81.193 104.5,79C104.667,78.5 104.833,78 105,77.5C105.71,78.973 106.876,79.64 108.5,79.5L108.5,73.5Z" style="fill:rgb(248,247,242);"/>
        </g>
        <g transform="matrix(1.97537,0.364676,-0.349121,1.90545,377.202,94.3743)">
            <path d="M38.5,143.5C38.344,146.066 38.678,148.566 39.5,151C39.836,152.03 40.503,152.53 41.5,152.5C45.272,153.274 47.272,155.607 47.5,159.5L43.5,159.5C43.32,155.588 41.154,153.921 37,154.5C30.13,154.684 26.297,158.184 25.5,165C25.804,168.511 26.137,172.011 26.5,175.5C29.667,176.028 32.834,176.695 36,177.5C39.638,176.143 43.471,175.476 47.5,175.5L47.5,178.5C44.439,180.155 41.105,181.488 37.5,182.5C34.039,180.765 30.539,180.432 27,181.5C26.028,179.695 24.861,178.028 23.5,176.5C24.302,170.831 23.969,165.164 22.5,159.5C21.823,170.279 20.49,180.946 18.5,191.5L23.5,191.5C25.13,194.675 26.63,198.009 28,201.5C28.496,203.473 28.662,205.473 28.5,207.5C27.209,207.263 26.209,207.596 25.5,208.5C24.295,209.672 24.295,211.005 25.5,212.5C28.421,215.664 31.754,218.331 35.5,220.5C36.429,221.689 36.762,223.022 36.5,224.5C34.958,223.699 33.292,223.366 31.5,223.5C26.356,216.571 21.189,209.571 16,202.5C13.644,199.121 11.811,195.455 10.5,191.5C11.552,191.649 12.552,191.483 13.5,191C17.885,187.569 19.552,183.069 18.5,177.5C18.167,174.833 17.833,172.167 17.5,169.5C16.893,169.624 16.56,169.957 16.5,170.5L15.5,170.5C15.998,167.99 16.664,165.49 17.5,163C17.325,161.342 16.658,160.009 15.5,159C16.774,157.779 18.274,156.946 20,156.5C22.12,157.459 24.287,157.626 26.5,157C29.369,153.265 28.702,151.431 24.5,151.5L24.5,143.5C24.679,141.394 25.679,139.728 27.5,138.5C32.87,136.688 36.537,138.354 38.5,143.5Z" style="fill:rgb(250,153,86);"/>
        </g>
        <g transform="matrix(1.97537,0.364676,-0.349121,1.90545,377.202,94.3743)">
            <path d="M284.5,147.5C283.888,150.697 281.888,152.031 278.5,151.5C278.297,153.638 277.297,155.305 275.5,156.5C277.865,157.085 279.865,158.252 281.5,160C278.291,160.598 275.457,159.765 273,157.5C270.106,158.697 267.273,160.03 264.5,161.5C263.479,162.002 263.312,162.668 264,163.5C265.067,164.191 266.234,164.691 267.5,165C268.252,165.671 268.586,166.504 268.5,167.5C264.81,165.712 261.143,164.045 257.5,162.5C259.525,160.436 261.858,159.102 264.5,158.5C266.993,157.203 269.66,156.203 272.5,155.5C275.803,151.844 279.803,149.178 284.5,147.5Z" style="fill:rgb(254,240,225);"/>
        </g>
        <g transform="matrix(1.97537,0.364676,-0.349121,1.90545,377.202,94.3743)">
            <path d="M47.5,159.5C48.151,161.826 48.818,164.159 49.5,166.5C48.077,169.275 47.411,172.275 47.5,175.5C43.471,175.476 39.638,176.143 36,177.5C32.834,176.695 29.667,176.028 26.5,175.5C26.137,172.011 25.804,168.511 25.5,165C26.297,158.184 30.13,154.684 37,154.5C41.154,153.921 43.32,155.588 43.5,159.5L47.5,159.5Z" style="fill:rgb(248,117,113);"/>
        </g>
        <g transform="matrix(1.97537,0.364676,-0.349121,1.90545,377.202,94.3743)">
            <path d="M2.5,159.5C3.806,164.616 4.473,169.949 4.5,175.5C2.922,170.417 2.255,165.084 2.5,159.5Z" style="fill:rgb(240,178,131);"/>
        </g>
        <g transform="matrix(1.97537,0.364676,-0.349121,1.90545,377.202,94.3743)">
            <path d="M196.5,95.5C198.91,97.589 201.243,99.589 203.5,101.5C199.81,103.873 197.143,107.206 195.5,111.5C191.884,114.285 188.718,117.619 186,121.5C184.441,123.217 183.608,125.217 183.5,127.5C182.833,127.5 182.5,127.833 182.5,128.5C176.494,138.227 175.161,148.561 178.5,159.5C178.984,164.607 180.318,169.441 182.5,174C185.204,179.908 188.037,185.741 191,191.5C193.387,194.957 196.22,197.957 199.5,200.5C200.6,201.605 201.267,202.938 201.5,204.5C199.704,203.207 198.037,201.707 196.5,200C195.552,199.517 194.552,199.351 193.5,199.5L193.5,202.5C185.084,190.79 179.251,177.79 176,163.5C172.074,150.548 172.741,137.881 178,125.5C184.439,115.611 190.606,105.611 196.5,95.5Z" style="fill:rgb(245,242,234);"/>
        </g>
        <g transform="matrix(1.97537,0.364676,-0.349121,1.90545,377.202,94.3743)">
            <path d="M59.5,178.5C58.135,182.922 56.801,187.255 55.5,191.5C54.883,186.44 56.217,182.106 59.5,178.5Z" style="fill:rgb(234,172,123);"/>
        </g>
        <g transform="matrix(1.97537,0.364676,-0.349121,1.90545,377.202,94.3743)">
            <path d="M151.5,167.5C154.934,174.124 157.6,181.124 159.5,188.5C157.61,188.703 156.11,188.037 155,186.5C153.752,180.18 152.585,173.846 151.5,167.5Z" style="fill:rgb(243,164,104);"/>
        </g>
        <g transform="matrix(1.97537,0.364676,-0.349121,1.90545,377.202,94.3743)">
            <path d="M15.5,170.5L16.5,170.5C16.666,174.846 16.499,179.179 16,183.5C14.698,186.618 12.865,189.284 10.5,191.5C9.542,189.698 8.875,187.698 8.5,185.5C9.482,186.141 10.482,186.807 11.5,187.5C15.182,182.512 16.516,176.845 15.5,170.5Z" style="fill:rgb(226,153,99);"/>
        </g>
        <g transform="matrix(1.97537,0.364676,-0.349121,1.90545,377.202,94.3743)">
            <path d="M10.5,191.5C12.865,189.284 14.698,186.618 16,183.5C16.499,179.179 16.666,174.846 16.5,170.5C16.56,169.957 16.893,169.624 17.5,169.5C17.833,172.167 18.167,174.833 18.5,177.5C19.552,183.069 17.885,187.569 13.5,191C12.552,191.483 11.552,191.649 10.5,191.5Z" style="fill:rgb(166,100,51);"/>
        </g>
        <g transform="matrix(1.97537,0.364676,-0.349121,1.90545,377.202,94.3743)">
            <path d="M231.5,181.5C232.939,183.588 233.606,185.921 233.5,188.5C232.15,187.517 231.15,186.184 230.5,184.5C229.817,184.863 229.15,185.196 228.5,185.5C228.554,183.368 229.554,182.035 231.5,181.5Z" style="fill:rgb(233,151,100);"/>
        </g>
        <g transform="matrix(1.97537,0.364676,-0.349121,1.90545,377.202,94.3743)">
            <path d="M134.5,180.5C134.354,184.387 133.687,188.054 132.5,191.5C132.251,187.542 132.918,183.876 134.5,180.5Z" style="fill:rgb(239,182,139);"/>
        </g>
        <g transform="matrix(1.97537,0.364676,-0.349121,1.90545,377.202,94.3743)">
            <path d="M233.5,151.5C234.655,158.655 234.822,165.988 234,173.5C233.326,176.26 232.493,178.927 231.5,181.5C229.554,182.035 228.554,183.368 228.5,185.5C226.952,189.598 225.119,193.598 223,197.5C219.254,201.353 215.754,205.353 212.5,209.5C210.955,210.452 209.288,210.785 207.5,210.5L207.5,207.5C205.053,207.385 203.053,206.385 201.5,204.5C201.267,202.938 200.6,201.605 199.5,200.5C199.238,199.022 199.571,197.689 200.5,196.5C203.926,194.819 206.593,192.319 208.5,189C213.675,186.248 218.675,183.248 223.5,180C225.436,179.187 227.436,178.687 229.5,178.5L229.5,175.5L232.5,175.5C233.403,167.542 233.736,159.542 233.5,151.5Z" style="fill:rgb(246,137,63);"/>
        </g>
        <g transform="matrix(1.97537,0.364676,-0.349121,1.90545,377.202,94.3743)">
            <path d="M274.5,170.5C280.684,173.349 286.017,177.349 290.5,182.5C290.343,183.873 290.51,185.207 291,186.5C292.757,187.119 293.924,188.286 294.5,190C293.198,197.13 289.198,201.963 282.5,204.5C281.687,208.576 279.354,211.409 275.5,213C274.748,213.671 274.414,214.504 274.5,215.5C272.973,215.427 271.973,216.094 271.5,217.5C267.108,218.857 262.774,220.524 258.5,222.5L255.5,222.5C255.715,220.821 255.048,219.821 253.5,219.5C253.657,218.127 253.49,216.793 253,215.5C250.696,213.569 248.862,211.236 247.5,208.5C249.045,207.548 250.712,207.215 252.5,207.5C253.107,204.924 254.274,202.591 256,200.5C259.618,198.545 262.951,196.211 266,193.5C267.433,190.402 269.266,187.569 271.5,185C272.118,182.026 273.118,179.192 274.5,176.5C275.729,175.719 277.062,175.219 278.5,175C275.928,174.568 274.594,173.068 274.5,170.5Z" style="fill:rgb(246,136,62);"/>
        </g>
        <g transform="matrix(1.97537,0.364676,-0.349121,1.90545,377.202,94.3743)">
            <path d="M160.5,191.5C163.069,195.635 165.403,199.968 167.5,204.5C166.504,204.586 165.671,204.252 165,203.5C164.39,200.978 163.057,198.978 161,197.5C160.505,195.527 160.338,193.527 160.5,191.5Z" style="fill:rgb(245,167,108);"/>
        </g>
        <g transform="matrix(1.97537,0.364676,-0.349121,1.90545,377.202,94.3743)">
            <path d="M236.5,196.5C239.15,201.799 241.816,207.132 244.5,212.5L244.5,213.5C243.292,212.766 241.959,212.433 240.5,212.5C239.188,207.185 237.855,201.852 236.5,196.5Z" style="fill:rgb(254,235,212);"/>
        </g>
        <g transform="matrix(1.97537,0.364676,-0.349121,1.90545,377.202,94.3743)">
            <path d="M290.5,182.5C295.665,186.42 296.832,191.42 294,197.5C288.405,204.536 281.905,210.536 274.5,215.5C274.414,214.504 274.748,213.671 275.5,213C279.354,211.409 281.687,208.576 282.5,204.5C289.198,201.963 293.198,197.13 294.5,190C293.924,188.286 292.757,187.119 291,186.5C290.51,185.207 290.343,183.873 290.5,182.5Z" style="fill:rgb(233,147,91);"/>
        </g>
        <g transform="matrix(1.97537,0.364676,-0.349121,1.90545,377.202,94.3743)">
            <path d="M25.5,208.5C27.636,209.37 29.47,210.703 31,212.5C31.561,211.978 32.228,211.645 33,211.5C39.862,214.507 47.029,216.174 54.5,216.5C55.104,222.219 55.104,227.886 54.5,233.5C52.304,233.435 50.304,232.768 48.5,231.5C49.325,230.614 50.325,230.281 51.5,230.5L51.5,225.5C48.846,224.658 46.179,224.158 43.5,224C47.112,225.08 48.112,227.247 46.5,230.5C44.754,228.146 42.421,227.146 39.5,227.5C38.694,226.272 37.694,225.272 36.5,224.5C36.762,223.022 36.429,221.689 35.5,220.5C31.754,218.331 28.421,215.664 25.5,212.5C24.295,211.005 24.295,209.672 25.5,208.5Z" style="fill:rgb(246,137,60);"/>
        </g>
        <g transform="matrix(1.97537,0.364676,-0.349121,1.90545,377.202,94.3743)">
            <path d="M168.5,207.5C170.41,208.975 171.576,210.975 172,213.5C173.691,218.399 174.857,223.399 175.5,228.5L175.5,234.5C173.438,235.776 171.104,236.61 168.5,237C167.748,237.671 167.414,238.504 167.5,239.5C156.596,241.393 145.929,244.226 135.5,248C132.854,248.497 130.187,248.664 127.5,248.5C127.719,247.325 127.386,246.325 126.5,245.5C125.571,246.689 125.238,248.022 125.5,249.5L124.5,249.5C121.375,248.521 118.042,248.187 114.5,248.5C114.468,243.278 115.968,238.612 119,234.5C119.333,230.833 119.667,227.167 120,223.5C121.591,221.073 122.425,218.407 122.5,215.5C138.102,212.745 153.435,210.079 168.5,207.5Z" style="fill:rgb(246,136,62);"/>
        </g>
        <g transform="matrix(1.97537,0.364676,-0.349121,1.90545,377.202,94.3743)">
            <path d="M271.5,217.5C270.878,219.335 269.544,220.502 267.5,221C264.555,222.131 261.555,222.964 258.5,223.5L258.5,222.5C262.774,220.524 267.108,218.857 271.5,217.5Z" style="fill:rgb(252,226,201);"/>
        </g>
        <g transform="matrix(1.97537,0.364676,-0.349121,1.90545,377.202,94.3743)">
            <path d="M244.5,212.5C246.951,214.123 248.951,216.289 250.5,219C251.448,219.483 252.448,219.649 253.5,219.5C255.048,219.821 255.715,220.821 255.5,222.5L258.5,222.5L258.5,223.5C251.931,222.945 247.265,219.611 244.5,213.5L244.5,212.5Z" style="fill:rgb(237,160,100);"/>
        </g>
        <g transform="matrix(1.97537,0.364676,-0.349121,1.90545,377.202,94.3743)">
            <path d="M54.5,216.5C56.226,223.603 58.226,230.77 60.5,238C60.164,239.03 59.497,239.53 58.5,239.5C51.355,236.669 45.021,232.669 39.5,227.5C42.421,227.146 44.754,228.146 46.5,230.5C48.112,227.247 47.112,225.08 43.5,224C46.179,224.158 48.846,224.658 51.5,225.5L51.5,230.5C50.325,230.281 49.325,230.614 48.5,231.5C50.304,232.768 52.304,233.435 54.5,233.5C55.104,227.886 55.104,222.219 54.5,216.5Z" style="fill:rgb(238,146,83);"/>
        </g>
        <g transform="matrix(1.97537,0.364676,-0.349121,1.90545,377.202,94.3743)">
            <path d="M122.5,215.5C122.425,218.407 121.591,221.073 120,223.5C119.667,227.167 119.333,230.833 119,234.5C115.968,238.612 114.468,243.278 114.5,248.5C118.042,248.187 121.375,248.521 124.5,249.5L113.5,249.5C113.838,240.634 115.338,231.968 118,223.5C119.237,220.552 120.737,217.885 122.5,215.5Z" style="fill:rgb(235,149,89);"/>
        </g>
        <g transform="matrix(1.97537,0.364676,-0.349121,1.90545,377.202,94.3743)">
            <path d="M175.5,228.5C176.434,229.772 177.101,231.272 177.5,233C177.164,234.03 176.497,234.53 175.5,234.5L175.5,228.5Z" style="fill:rgb(226,168,143);"/>
        </g>
        <g transform="matrix(1.97537,0.364676,-0.349121,1.90545,377.202,94.3743)">
            <path d="M167.5,239.5C170.5,241.833 173.167,244.5 175.5,247.5L175.5,249.5C172.581,248.087 170.081,246.087 168,243.5C167.51,242.207 167.343,240.873 167.5,239.5Z" style="fill:rgb(228,132,77);"/>
        </g>
        <g transform="matrix(1.97537,0.364676,-0.349121,1.90545,377.202,94.3743)">
            <path d="M103.5,247.5L103.5,250.5C100.615,250.806 97.948,250.473 95.5,249.5C98.533,249.868 101.2,249.202 103.5,247.5Z" style="fill:rgb(130,130,128);"/>
        </g>
        <g transform="matrix(1.97537,0.364676,-0.349121,1.90545,377.202,94.3743)">
            <path d="M167.5,239.5C167.343,240.873 167.51,242.207 168,243.5C170.081,246.087 172.581,248.087 175.5,249.5C176.906,249.973 177.573,250.973 177.5,252.5L177.5,257.5C172.862,258.562 168.195,260.396 163.5,263C151.301,265.53 138.968,267.03 126.5,267.5C126.817,263.298 126.483,259.298 125.5,255.5L125.5,249.5C125.238,248.022 125.571,246.689 126.5,245.5C127.386,246.325 127.719,247.325 127.5,248.5C130.187,248.664 132.854,248.497 135.5,248C145.929,244.226 156.596,241.393 167.5,239.5Z" style="fill:rgb(236,122,43);"/>
        </g>
        <g transform="matrix(1.97537,0.364676,-0.349121,1.90545,377.202,94.3743)">
            <path d="M177.5,252.5C181.877,257.296 183.377,262.963 182,269.5C181.722,270.416 181.222,271.082 180.5,271.5L179.5,271.5C179.878,269.354 180.212,267.187 180.5,265C180.179,262.195 179.179,259.695 177.5,257.5L177.5,252.5Z" style="fill:rgb(238,146,88);"/>
        </g>
        <g transform="matrix(1.97537,0.364676,-0.349121,1.90545,377.202,94.3743)">
            <path d="M125.5,255.5C126.483,259.298 126.817,263.298 126.5,267.5C138.968,267.03 151.301,265.53 163.5,263C168.195,260.396 172.862,258.562 177.5,257.5C179.179,259.695 180.179,262.195 180.5,265C180.212,267.187 179.878,269.354 179.5,271.5C178.468,273.378 177.134,275.045 175.5,276.5C171.071,275.972 167.404,277.305 164.5,280.5C162.833,281.167 161.167,281.833 159.5,282.5C153.931,282.376 148.598,283.043 143.5,284.5C140.059,284.699 136.726,284.199 133.5,283C131.951,280.289 129.951,278.123 127.5,276.5C125.932,269.615 125.265,262.615 125.5,255.5Z" style="fill:rgb(246,136,61);"/>
        </g>
        <g transform="matrix(1.97537,0.364676,-0.349121,1.90545,377.202,94.3743)">
            <path d="M179.5,271.5L180.5,271.5C180.167,274.5 178.5,276.167 175.5,276.5C177.134,275.045 178.468,273.378 179.5,271.5Z" style="fill:rgb(246,202,168);"/>
        </g>
        <g transform="matrix(1.97537,0.364676,-0.349121,1.90545,377.202,94.3743)">
            <path d="M175.5,276.5C172.203,278.601 168.537,279.935 164.5,280.5C167.404,277.305 171.071,275.972 175.5,276.5Z" style="fill:rgb(228,156,105);"/>
        </g>
        <g transform="matrix(1.97537,0.364676,-0.349121,1.90545,377.202,94.3743)">
            <path d="M127.5,277.5L127.5,276.5C129.951,278.123 131.951,280.289 133.5,283C136.726,284.199 140.059,284.699 143.5,284.5C140.36,285.641 137.027,285.808 133.5,285C131.361,282.522 129.361,280.022 127.5,277.5Z" style="fill:rgb(232,158,112);"/>
        </g>
        <g transform="matrix(1.97537,0.364676,-0.349121,1.90545,377.202,94.3743)">
            <path d="M159.5,282.5L159.5,283.5C154.187,284.098 148.854,284.431 143.5,284.5C148.598,283.043 153.931,282.376 159.5,282.5Z" style="fill:rgb(229,165,117);"/>
        </g>
        <g transform="matrix(1.97537,0.364676,-0.349121,1.90545,377.202,94.3743)">
            <path d="M127.5,277.5C129.361,280.022 131.361,282.522 133.5,285C137.027,285.808 140.36,285.641 143.5,284.5C148.854,284.431 154.187,284.098 159.5,283.5C154.91,284.694 150.243,286.027 145.5,287.5C139.484,287.335 133.817,286.002 128.5,283.5C127.534,281.604 127.201,279.604 127.5,277.5Z" style="fill:rgb(253,246,228);"/>
        </g>
        <g transform="matrix(1.67071,-0.507819,0.51945,1.72193,150.298,95.6097)">
            <path d="M77.5,43.5C78.496,56.99 78.829,70.656 78.5,84.5C85.022,84.177 91.355,84.51 97.5,85.5L77.5,85.5L77.5,43.5Z" style="fill:rgb(141,0,0);"/>
        </g>
        <g transform="matrix(1.67071,-0.507819,0.51945,1.72193,150.298,95.6097)">
            <path d="M77.5,43.5C86.16,42.834 94.994,42.5 104,42.5C114.547,42.397 125.047,42.897 135.5,44C160.151,54.136 167.651,71.636 158,96.5C152.885,106.945 144.719,113.779 133.5,117C144.924,132.513 156.591,147.846 168.5,163C164.167,163.667 159.833,163.667 155.5,163C143.601,147.341 131.601,131.841 119.5,116.5L119.5,106.5C123.702,106.817 127.702,106.483 131.5,105.5C140.255,103.251 146.421,97.918 150,89.5C154.957,72.432 149.124,60.599 132.5,54C117.837,53.5 103.17,53.333 88.5,53.5L88.5,74.5C94.645,75.49 100.978,75.824 107.5,75.5L107.5,115.5L87.5,115.5L87.5,163.5L47.5,163.5L47.5,116.5C40.687,115.509 33.687,115.175 26.5,115.5L26.5,75.5L58.5,75.5L58.5,85.5L36.5,85.5L36.5,105.5L58.5,105.5L58.5,153.5L77.5,153.5L77.5,105.5L97.5,105.5L97.5,85.5C91.355,84.51 85.022,84.177 78.5,84.5C78.829,70.656 78.496,56.99 77.5,43.5Z" style="fill:rgb(166,33,41);"/>
        </g>
        <g transform="matrix(1.67071,-0.507819,0.51945,1.72193,150.298,95.6097)">
            <path d="M58.5,75.5L26.5,75.5L26.5,115.5C33.687,115.175 40.687,115.509 47.5,116.5L25.5,116.5L25.5,74.5C36.679,74.172 47.679,74.505 58.5,75.5Z" style="fill:rgb(195,143,145);"/>
        </g>
        <g transform="matrix(1.67071,-0.507819,0.51945,1.72193,150.298,95.6097)">
            <path d="M88.5,74.5L108.5,74.5L108.5,116.5L88.5,116.5C88.83,132.342 88.496,148.009 87.5,163.5L87.5,115.5L107.5,115.5L107.5,75.5C100.978,75.824 94.645,75.49 88.5,74.5Z" style="fill:rgb(177,112,116);"/>
        </g>
        <g transform="matrix(1.67071,-0.507819,0.51945,1.72193,150.298,95.6097)">
            <path d="M131.5,105.5C127.702,106.483 123.702,106.817 119.5,106.5L119.5,116.5C118.518,113.038 118.185,109.371 118.5,105.5L131.5,105.5Z" style="fill:rgb(213,171,174);"/>
        </g>
    </g>
</svg>
