<?xml version="1.0" encoding="UTF-8" standalone="no"?>
<!DOCTYPE svg PUBLIC "-//W3C//DTD SVG 1.1//EN" "http://www.w3.org/Graphics/SVG/1.1/DTD/svg11.dtd">
<svg width="100%" height="100%" viewBox="0 0 1024 1024" version="1.1" xmlns="http://www.w3.org/2000/svg" xmlns:xlink="http://www.w3.org/1999/xlink" xml:space="preserve" xmlns:serif="http://www.serif.com/" style="fill-rule:evenodd;clip-rule:evenodd;stroke-linejoin:round;stroke-miterlimit:2;">
    <g transform="matrix(0.999995,0.003039,-0.003039,0.999995,499.05,75.4404)">
        <g id="Layer-1" serif:id="Layer 1">
            <g id="g4003">
                <path id="path2996-1-7" d="M-247,254.977C-278.879,254.48 -289.693,281.286 -253.156,291.946C-196.558,313.163 -167.673,313.036 -135.955,321.812C-68.06,332.786 70.752,354.828 96.877,370.541C105.143,404.685 138.66,424.901 192.751,432.748C248.586,440.849 274.797,432.577 300.938,399.509C295.639,374.059 225.43,343.183 197.094,340.821C156.012,337.397 129.836,340.994 114.5,353.165C-2.329,311.065 -119.855,283.614 -240.344,255.477C-242.649,255.189 -244.875,255.01 -247,254.977Z" style="fill:rgb(222,170,135);fill-rule:nonzero;stroke:black;stroke-width:2px;"/>
                <path id="path2996-1" d="M-247,247.906C-278.879,247.409 -289.693,274.215 -253.156,284.875C-196.558,306.092 -169.816,305.965 -138.098,314.741C-70.203,325.714 74.813,349.787 100.938,365.5C94.204,390.145 141.691,418.84 195.781,426.688C251.617,434.788 300.051,419.445 303.969,392.438C307.887,365.43 225.43,336.112 197.094,333.75C156.012,330.326 129.836,333.923 114.5,346.094C-2.329,303.994 -119.855,276.543 -240.344,248.406C-242.649,248.118 -244.875,247.939 -247,247.906Z" style="fill:rgb(233,198,175);fill-rule:nonzero;stroke:black;stroke-width:2px;"/>
                <path id="path3843" d="M-276.031,263.719C-276.187,264.937 -276.155,266.19 -275.906,267.438L-149.781,292.875L-73.719,304.938L110.313,348.188L-35.219,309L-146.281,289.094L-208.494,277.829L-276.031,263.719Z" style="fill:rgb(228,185,157);fill-rule:nonzero;"/>
                <path id="path3845" d="M-264.688,251.063C-266.692,251.945 -268.459,252.996 -269.969,254.156L-228.219,262.906C-168.834,278.467 -140.26,280.823 -96.281,289.781L59.25,330.25L-69.406,292.656C-133.187,279.021 -190.201,269.897 -261.219,251.438L-264.688,251.063Z" style="fill:rgb(228,185,157);fill-rule:nonzero;"/>
                <path id="path3847" d="M-270.069,273.415C-236.718,280.582 -206.627,289.378 -168.514,294.163L50.36,339.819L-152.17,301.34C-181.624,296.714 -216.455,289.938 -259.231,279.983L-270.069,273.415Z" style="fill:rgb(228,185,157);fill-rule:nonzero;"/>
                <path id="path3851" d="M-203,299.375L-204.688,300.219C-189.393,304.097 -176.689,306.386 -164.688,308.719C-120.664,314.781 -60.5,323.375 -60.5,323.375L-203,299.375Z" style="fill:rgb(228,185,157);fill-rule:nonzero;"/>
                <path id="path2996-0" d="M171.406,336.813C160.493,336.906 151.197,337.851 143.313,339.719C138.776,343.693 135.366,348.622 132.969,354.563C123.735,377.441 130.84,397.965 214.781,412.406C243.34,417.32 269.824,413.662 287.375,405.375C291.43,401.232 294.028,396.538 294.781,391.344C298.346,366.775 223.341,340.086 197.563,337.938C187.972,337.138 179.274,336.745 171.406,336.813Z" style="fill:rgb(214,172,143);fill-rule:nonzero;"/>
                <path id="path2996-0-4" d="M171.406,336.813C161.364,336.898 152.714,337.729 145.25,339.313C144.63,339.438 144.009,339.545 143.406,339.688C143.375,339.695 143.344,339.711 143.313,339.719C126.563,343.686 116.268,351.804 110.844,364.656C101.191,387.529 145.549,415.1 196.344,422.469C236.4,428.28 272.25,420.83 287.375,405.375C288.389,404.339 289.3,403.26 290.125,402.156C290.542,401.599 290.948,401.044 291.313,400.469C293.13,397.626 294.31,394.59 294.781,391.344C296.229,381.363 284.699,371.018 268.781,362.125C267.56,361.443 266.299,360.787 265.031,360.125C242.125,348.132 212.063,339.146 197.563,337.937C190.024,337.309 183.06,336.944 176.594,336.844C174.834,336.817 173.089,336.798 171.406,336.813L171.406,336.813Z" style="fill:rgb(214,172,143);fill-rule:nonzero;"/>
                <path id="path3908" d="M139.737,340.953C173.027,372.032 224.37,372.635 251.05,353.544L256.404,355.691C213.231,388.092 152.829,362.347 133.914,343.13L139.737,340.953Z" style="fill:rgb(227,189,164);fill-rule:nonzero;"/>
                <path id="path3910" d="M278.543,368.107C272.219,375.608 248.395,381.144 228.646,382.312C253.075,383.236 275.602,377.708 282.278,370.886L278.543,368.107Z" style="fill:rgb(221,186,161);fill-rule:nonzero;"/>
                <path id="path3912" d="M119.159,352.625C153.903,378.596 208.398,409.388 289.487,377.539C290.27,378.479 291.008,379.419 291.557,380.36C245.97,410.727 167.279,400.409 115.245,356.862L119.159,352.625Z" style="fill:rgb(227,189,164);fill-rule:nonzero;"/>
                <path id="path2996" d="M171.406,336.813C173.089,336.798 174.834,336.817 176.594,336.844C174.831,336.818 173.092,336.798 171.406,336.813ZM179.563,336.906C183.084,337.003 186.708,337.158 190.531,337.406C186.731,337.163 183.065,337 179.563,336.906ZM190.531,337.406C192.818,337.554 195.165,337.738 197.563,337.937C195.154,337.737 192.828,337.553 190.531,337.406ZM197.563,337.937C199.979,338.139 202.823,338.545 206,339.156C202.823,338.545 199.979,338.139 197.563,337.937ZM206,339.156C208.118,339.563 210.372,340.052 212.75,340.625C210.373,340.052 208.118,339.564 206,339.156ZM212.75,340.625C216.316,341.484 220.15,342.523 224.125,343.719C220.15,342.523 216.316,341.485 212.75,340.625ZM145.781,339.188C144.976,339.353 144.184,339.504 143.406,339.688C144.179,339.506 144.982,339.352 145.781,339.188ZM143.313,339.719C126.563,343.686 116.268,351.804 110.844,364.656C101.191,387.529 145.549,415.1 196.344,422.469C236.4,428.28 272.25,420.83 287.375,405.375C269.824,413.662 243.34,417.32 214.781,412.406C130.84,397.965 123.735,377.441 132.969,354.563C135.366,348.622 138.776,343.693 143.313,339.719ZM287.375,405.375C288.9,403.817 290.226,402.185 291.313,400.469C290.222,402.175 288.896,403.821 287.375,405.375ZM291.313,400.469C291.62,399.983 291.917,399.498 292.188,399C291.913,399.501 291.625,399.98 291.313,400.469ZM232.25,346.313C236.381,347.708 240.592,349.248 244.781,350.906C240.593,349.248 236.381,347.708 232.25,346.313ZM244.781,350.906C247.574,352.012 250.353,353.169 253.094,354.375C250.354,353.169 247.574,352.012 244.781,350.906ZM258.469,356.844C262.045,358.538 265.503,360.294 268.781,362.125C265.51,360.297 262.037,358.535 258.469,356.844Z" style="fill:rgb(181,139,110);fill-opacity:0.64;fill-rule:nonzero;"/>
            </g>
        </g>
    </g>
</svg>
