<?xml version="1.0" encoding="UTF-8" standalone="no"?>
<!-- Created with Inkscape (http://www.inkscape.org/) -->

<svg
   xmlns:dc="http://purl.org/dc/elements/1.1/"
   xmlns:cc="http://creativecommons.org/ns#"
   xmlns:rdf="http://www.w3.org/1999/02/22-rdf-syntax-ns#"
   xmlns:svg="http://www.w3.org/2000/svg"
   xmlns="http://www.w3.org/2000/svg"
   xmlns:sodipodi="http://sodipodi.sourceforge.net/DTD/sodipodi-0.dtd"
   xmlns:inkscape="http://www.inkscape.org/namespaces/inkscape"
   width="579.8642"
   height="189.18237"
   id="svg2"
   version="1.1"
   inkscape:version="0.48.4 r9939"
   sodipodi:docname="New document 1">
  <defs
     id="defs4" />
  <sodipodi:namedview
     id="base"
     pagecolor="#ffffff"
     bordercolor="#666666"
     borderopacity="1.0"
     inkscape:pageopacity="0.0"
     inkscape:pageshadow="2"
     inkscape:zoom="1"
     inkscape:cx="690.08827"
     inkscape:cy="63.610976"
     inkscape:document-units="px"
     inkscape:current-layer="layer1"
     showgrid="false"
     fit-margin-top="0"
     fit-margin-left="0"
     fit-margin-right="0"
     fit-margin-bottom="0"
     inkscape:window-width="1920"
     inkscape:window-height="1017"
     inkscape:window-x="-8"
     inkscape:window-y="-8"
     inkscape:window-maximized="1" />
  <metadata
     id="metadata7">
    <rdf:RDF>
      <cc:Work
         rdf:about="">
        <dc:format>image/svg+xml</dc:format>
        <dc:type
           rdf:resource="http://purl.org/dc/dcmitype/StillImage" />
        <dc:title></dc:title>
      </cc:Work>
    </rdf:RDF>
  </metadata>
  <g
     inkscape:label="Layer 1"
     inkscape:groupmode="layer"
     id="layer1"
     transform="translate(272.0027,-245.98481)">
    <g
       id="g4003"
       transform="matrix(0.99999539,0.003039,-0.003039,0.99999539,4.9460144,-1.1599398)">
      <path
         sodipodi:nodetypes="scccscsccs"
         id="path2996-1-7"
         d="m -247,254.97732 c -31.87929,-0.49703 -42.69284,26.30906 -6.15625,36.96875 56.59805,21.21665 85.48315,21.08957 117.20089,29.86607 67.895263,10.97337 206.707715,33.01575 232.831945,48.72846 8.266875,34.1448 41.783525,54.36079 95.874205,62.20781 55.83554,8.10014 82.04612,-0.17151 108.1875,-33.23985 -5.2993,-25.4492 -75.50798,-56.32572 -103.84454,-58.68749 -41.08161,-3.42403 -67.25759,0.17327 -82.59375,12.34375 -116.8287599,-42.10011 -234.35481,-69.55098 -354.84375,-97.6875 -2.30475,-0.2886 -4.53096,-0.46686 -6.65625,-0.5 z"
         style="color:#000000;fill:#deaa87;fill-opacity:1;fill-rule:nonzero;stroke:none;stroke-width:1.09924769;marker:none;visibility:visible;display:inline;overflow:visible;enable-background:accumulate"
         inkscape:connector-curvature="0" />
      <path
         sodipodi:nodetypes="scccsssccs"
         inkscape:connector-curvature="0"
         id="path2996-1"
         d="m -247,247.90625 c -31.87929,-0.49703 -42.69284,26.30906 -6.15625,36.96875 56.59805,21.21665 83.3403,21.08957 115.05804,29.86607 67.895259,10.97337 212.911478,35.04622 239.03571,50.75893 -6.733128,24.6448 40.75307,53.34048 94.84375,61.1875 55.83554,8.10014 104.26948,-7.24258 108.1875,-34.25 3.918,-27.00742 -78.53844,-56.32573 -106.875,-58.6875 -41.08161,-3.42403 -67.25759,0.17327 -82.59375,12.34375 -116.8287631,-42.10011 -234.35481,-69.55098 -354.84375,-97.6875 -2.30475,-0.2886 -4.53096,-0.46686 -6.65625,-0.5 z"
         style="color:#000000;fill:#e9c6af;fill-opacity:1;fill-rule:nonzero;stroke:none;stroke-width:1.09924769;marker:none;visibility:visible;display:inline;overflow:visible;enable-background:accumulate" />
      <path
         sodipodi:nodetypes="ccccccccc"
         inkscape:connector-curvature="0"
         id="path3843"
         d="m -276.03125,263.71875 c -0.15587,1.21843 -0.12409,2.47118 0.125,3.71875 l 126.125,25.4375 76.0625,12.0625 184.03125,43.25 L -35.21875,309 l -111.0625,-19.90625 -62.2123,-11.26454 z"
         style="fill:#e4b99d;fill-opacity:1;stroke:none" />
      <path
         sodipodi:nodetypes="cccccccc"
         inkscape:connector-curvature="0"
         id="path3845"
         d="m -264.6875,251.0625 c -2.00435,0.88291 -3.77176,1.93385 -5.28125,3.09375 l 41.75,8.75 c 59.38429,15.56053 87.95833,17.91667 131.9375,26.875 L 59.25,330.25 -69.40625,292.65625 C -133.18723,279.02101 -190.20138,269.897 -261.21875,251.4375 z"
         style="fill:#e4b99d;fill-opacity:1;stroke:none" />
      <path
         sodipodi:nodetypes="cccccc"
         inkscape:connector-curvature="0"
         id="path3847"
         d="m -270.06863,273.41544 c 33.35108,7.16619 63.44209,15.96242 101.55496,20.74772 L 50.360448,339.81869 -152.17019,301.34041 c -29.45402,-4.62594 -64.28524,-11.40276 -107.06114,-21.35745 z"
         style="fill:#e4b99d;fill-opacity:1;stroke:none" />
      <path
         id="path3851"
         d="m -203,299.375 -1.6875,0.84375 c 15.29471,3.8778 27.99838,6.16748 40,8.5 C -120.66399,314.7808 -60.5,323.375 -60.5,323.375 l -142.5,-24 z"
         style="fill:#e4b99d;fill-opacity:1;stroke:none"
         inkscape:connector-curvature="0" />
      <path
         sodipodi:nodetypes="scsscsss"
         inkscape:connector-curvature="0"
         id="path2996-0"
         d="m 171.40625,336.8125 c -10.9129,0.0933 -20.20888,1.03868 -28.09375,2.90625 -4.53665,3.97422 -7.94606,8.90291 -10.34375,14.84375 -9.23353,22.87831 -2.12907,43.40202 81.8125,57.84375 28.55862,4.91337 55.04312,1.25588 72.59375,-7.03125 4.05484,-4.14337 6.65272,-8.83709 7.40625,-14.03125 3.56426,-24.569 -71.44061,-51.25772 -97.21875,-53.40625 -9.59038,-0.79933 -18.28826,-1.19224 -26.15625,-1.125 z"
         style="color:#000000;fill:#d6ac8f;fill-opacity:1;fill-rule:nonzero;stroke:none;stroke-width:1;marker:none;visibility:visible;display:inline;overflow:visible;enable-background:accumulate" />
      <path
         id="path2996-0-4"
         d="m 171.40625,336.8125 c -10.04222,0.0859 -18.69206,0.91643 -26.15625,2.5 -0.61966,0.12514 -1.24082,0.23298 -1.84375,0.375 -0.0313,0.007 -0.0625,0.0239 -0.0937,0.0312 -16.74945,3.96718 -27.04474,12.08563 -32.46875,24.9375 -9.65317,22.87261 34.70567,50.44368 85.5,57.8125 40.05585,5.81096 75.90618,-1.63846 91.03125,-17.09375 1.01371,-1.03584 1.92446,-2.11489 2.75,-3.21875 0.41677,-0.55703 0.82315,-1.1119 1.1875,-1.6875 1.81728,-2.8432 2.99779,-5.87865 3.46875,-9.125 1.44798,-9.98116 -10.08237,-20.32539 -26,-29.21875 -1.22115,-0.68227 -2.48207,-1.33802 -3.75,-2 -22.90658,-11.993 -52.96855,-20.97895 -67.46875,-22.1875 -7.53882,-0.62834 -14.50251,-0.99378 -20.96875,-1.09375 -1.75967,-0.0272 -3.50439,-0.0457 -5.1875,-0.0312 z"
         style="color:#000000;fill:#d6ac8f;fill-opacity:1;fill-rule:nonzero;stroke:none;stroke-width:1;marker:none;visibility:visible;display:inline;overflow:visible;enable-background:accumulate"
         inkscape:connector-curvature="0" />
      <path
         sodipodi:nodetypes="ccccc"
         inkscape:connector-curvature="0"
         id="path3908"
         d="m 139.73744,340.95317 c 33.28915,31.07883 84.63271,31.68228 111.31281,12.59099 l 5.35356,2.14645 c -43.17317,32.40161 -103.5746,6.65648 -122.4896,-12.56066 z"
         style="fill:#e3bda4;fill-opacity:1;stroke:none" />
      <path
         sodipodi:nodetypes="cccc"
         inkscape:connector-curvature="0"
         id="path3910"
         d="m 278.54335,368.10742 c -6.32451,7.50015 -30.14881,13.03657 -49.8969,14.20451 24.42851,0.92415 46.95561,-4.60426 53.63173,-11.42548 z"
         style="fill:#ddbaa1;fill-opacity:1;stroke:none" />
      <path
         sodipodi:nodetypes="ccccc"
         inkscape:connector-curvature="0"
         id="path3912"
         d="m 119.15901,352.62474 c 34.74442,25.97117 89.23927,56.76278 170.32843,24.91422 0.78251,0.94021 1.52038,1.88042 2.06932,2.82063 -45.58695,30.36712 -124.27783,20.04987 -176.31197,-23.49741 z"
         style="fill:#e3bda4;fill-opacity:1;stroke:none" />
      <path
         id="path2996"
         d="m 171.40625,336.8125 c 1.68311,-0.0144 3.42783,0.004 5.1875,0.0312 -1.76288,-0.0262 -3.50147,-0.0457 -5.1875,-0.0312 z m 8.15625,0.0937 c 3.52131,0.0971 7.14574,0.25228 10.96875,0.5 -3.8005,-0.24354 -7.46653,-0.40576 -10.96875,-0.5 z m 10.96875,0.5 c 2.28701,0.14819 4.63366,0.33142 7.03125,0.53125 -2.40849,-0.20074 -4.73432,-0.38406 -7.03125,-0.53125 z m 7.03125,0.53125 c 2.4167,0.20142 5.26079,0.60792 8.4375,1.21875 -3.17653,-0.61097 -6.0208,-1.01733 -8.4375,-1.21875 z m 8.4375,1.2188 c 2.11781,0.40722 4.37241,0.89585 6.75,1.46875 -2.3774,-0.57305 -4.63231,-1.06144 -6.75,-1.46875 z m 6.75,1.46875 c 3.56639,0.85936 7.3996,1.89821 11.375,3.09375 -3.97499,-1.19585 -7.8089,-2.23417 -11.375,-3.09375 z m -66.96875,-1.4375 c -0.80571,0.16545 -1.59723,0.31679 -2.375,0.5 0.77237,-0.18197 1.57542,-0.33561 2.375,-0.5 z m -2.46875,0.53125 c -16.74945,3.96718 -27.04474,12.08563 -32.46875,24.9375 -9.65317,22.87261 34.70567,50.44368 85.5,57.8125 40.05585,5.81096 75.90618,-1.63846 91.03125,-17.09375 -17.55063,8.28713 -44.03513,11.94462 -72.59375,7.03125 -83.94157,-14.44173 -91.04603,-34.96544 -81.8125,-57.84375 2.39769,-5.94084 5.8071,-10.86953 10.34375,-14.84375 z M 287.375,405.375 c 1.52519,-1.55849 2.85122,-3.19018 3.9375,-4.90625 -1.09037,1.70592 -2.41693,3.35249 -3.9375,4.90625 z m 3.9375,-4.90625 c 0.30758,-0.4859 0.60436,-0.97077 0.875,-1.46875 -0.27498,0.50109 -0.56253,0.97988 -0.875,1.46875 z M 232.25,346.3125 c 4.13107,1.39525 8.34217,2.93555 12.53125,4.59375 -4.18856,-1.65861 -8.40065,-3.19814 -12.53125,-4.59375 z m 12.53125,4.59375 c 2.79272,1.10547 5.572,2.26268 8.3125,3.46875 -2.74014,-1.20634 -5.52013,-2.36301 -8.3125,-3.46875 z m 13.6875,5.9375 c 3.57633,1.69394 7.03443,3.44976 10.3125,5.28125 -3.27112,-1.82823 -6.74416,-3.58999 -10.3125,-5.28125 z"
         style="color:#000000;fill:#b58b6e;fill-opacity:0.63829794;fill-rule:nonzero;stroke:none;stroke-width:1;marker:none;visibility:visible;display:inline;overflow:visible;enable-background:accumulate"
         inkscape:connector-curvature="0" />
    </g>
  </g>
</svg>
