<svg clip-rule="evenodd" fill-rule="evenodd" stroke-linejoin="round" stroke-miterlimit="2" viewBox="0 0 1024 1024" xmlns="http://www.w3.org/2000/svg"><g fill-rule="nonzero"><g transform="matrix(.279085 .960266 -.960266 .279085 739.504 298.112)"><path d="m-247 254.977c-31.879-.497-42.693 26.309-6.156 36.969 56.598 21.217 85.483 21.09 117.201 29.866 67.895 10.974 206.707 33.016 232.832 48.729 8.266 34.144 41.783 54.36 95.874 62.207 55.835 8.101 82.046-.171 108.187-33.239-5.299-25.45-75.508-56.326-103.844-58.688-41.082-3.424-67.258.173-82.594 12.344-116.829-42.1-234.355-69.551-354.844-97.688-2.305-.288-4.531-.467-6.656-.5z" fill="#deaa87" stroke="#000" stroke-width="2"/><path d="m-247 247.906c-31.879-.497-42.693 26.309-6.156 36.969 56.598 21.217 83.34 21.09 115.058 29.866 67.895 10.973 212.911 35.046 239.036 50.759-6.734 24.645 40.753 53.34 94.843 61.188 55.836 8.1 104.27-7.243 108.188-34.25 3.918-27.008-78.539-56.326-106.875-58.688-41.082-3.424-67.258.173-82.594 12.344-116.829-42.1-234.355-69.551-354.844-97.688-2.305-.288-4.531-.467-6.656-.5z" fill="#e9c6af" stroke="#000" stroke-width="2"/><g fill="#e4b99d"><path d="m-276.031 263.719c-.156 1.218-.124 2.471.125 3.719l126.125 25.437 76.062 12.063 184.032 43.25-145.532-39.188-111.062-19.906-62.213-11.265z"/><path d="m-264.688 251.063c-2.004.882-3.771 1.933-5.281 3.093l41.75 8.75c59.385 15.561 87.959 17.917 131.938 26.875l155.531 40.469-128.656-37.594c-63.781-13.635-120.795-22.759-191.813-41.218z"/><path d="m-270.069 273.415c33.351 7.167 63.442 15.963 101.555 20.748l218.874 45.656-202.53-38.479c-29.454-4.626-64.285-11.402-107.061-21.357z"/><path d="m-203 299.375-1.688.844c15.295 3.878 27.999 6.167 40 8.5 44.024 6.062 104.188 14.656 104.188 14.656z"/></g><path d="m171.406 336.813c-10.913.093-20.209 1.038-28.093 2.906-4.537 3.974-7.947 8.903-10.344 14.844-9.234 22.878-2.129 43.402 81.812 57.843 28.559 4.914 55.043 1.256 72.594-7.031 4.055-4.143 6.653-8.837 7.406-14.031 3.565-24.569-71.44-51.258-97.218-53.406-9.591-.8-18.289-1.193-26.157-1.125z" fill="#d6ac8f"/><path d="m171.406 336.813c-10.042.085-18.692.916-26.156 2.5-.62.125-1.241.232-1.844.375-.031.007-.062.023-.093.031-16.75 3.967-27.045 12.085-32.469 24.937-9.653 22.873 34.705 50.444 85.5 57.813 40.056 5.811 75.906-1.639 91.031-17.094 1.014-1.036 1.925-2.115 2.75-3.219.417-.557.823-1.112 1.188-1.687 1.817-2.843 2.997-5.879 3.468-9.125 1.448-9.981-10.082-20.326-26-29.219-1.221-.682-2.482-1.338-3.75-2-22.906-11.993-52.968-20.979-67.468-22.188-7.539-.628-14.503-.993-20.969-1.093-1.76-.027-3.505-.046-5.188-.031z" fill="#d6ac8f"/><path d="m139.737 340.953c33.29 31.079 84.633 31.682 111.313 12.591l5.354 2.147c-43.173 32.401-103.575 6.656-122.49-12.561z" fill="#e3bda4"/><path d="m278.543 368.107c-6.324 7.501-30.148 13.037-49.897 14.205 24.429.924 46.956-4.604 53.632-11.426z" fill="#ddbaa1"/><path d="m119.159 352.625c34.744 25.971 89.239 56.763 170.328 24.914.783.94 1.521 1.88 2.07 2.821-45.587 30.367-124.278 20.049-176.312-23.498z" fill="#e3bda4"/><path d="m171.406 336.813c1.683-.015 3.428.004 5.188.031-1.763-.026-3.502-.046-5.188-.031zm8.157.093c3.521.097 7.145.252 10.968.5-3.8-.243-7.466-.406-10.968-.5zm10.968.5c2.287.148 4.634.332 7.032.531-2.409-.2-4.735-.384-7.032-.531zm7.032.531c2.416.202 5.26.608 8.437 1.219-3.177-.611-6.021-1.017-8.437-1.219zm8.437 1.219c2.118.407 4.372.896 6.75 1.469-2.377-.573-4.632-1.061-6.75-1.469zm6.75 1.469c3.566.859 7.4 1.898 11.375 3.094-3.975-1.196-7.809-2.234-11.375-3.094zm-66.969-1.437c-.805.165-1.597.316-2.375.5.773-.182 1.576-.336 2.375-.5zm-2.468.531c-16.75 3.967-27.045 12.085-32.469 24.937-9.653 22.873 34.705 50.444 85.5 57.813 40.056 5.811 75.906-1.639 91.031-17.094-17.551 8.287-44.035 11.945-72.594 7.031-83.941-14.441-91.046-34.965-81.812-57.843 2.397-5.941 5.807-10.87 10.344-14.844zm144.062 65.656c1.525-1.558 2.851-3.19 3.938-4.906-1.091 1.706-2.417 3.352-3.938 4.906zm3.938-4.906c.307-.486.604-.971.875-1.469-.275.501-.563.98-.875 1.469zm-59.063-54.156c4.131 1.395 8.342 2.935 12.531 4.593-4.188-1.658-8.4-3.198-12.531-4.593zm12.531 4.593c2.793 1.106 5.572 2.263 8.313 3.469-2.74-1.206-5.52-2.363-8.313-3.469zm13.688 5.938c3.576 1.694 7.034 3.45 10.312 5.281-3.271-1.828-6.744-3.59-10.312-5.281z" fill="#b58b6e" fill-opacity=".64"/></g><g transform="matrix(.832241 .554414 -.554414 .832241 680.402 208.308)"><path d="m-247 254.977c-31.879-.497-42.693 26.309-6.156 36.969 56.598 21.217 85.483 21.09 117.201 29.866 67.895 10.974 206.707 33.016 232.832 48.729 8.266 34.144 41.783 54.36 95.874 62.207 55.835 8.101 82.046-.171 108.187-33.239-5.299-25.45-75.508-56.326-103.844-58.688-41.082-3.424-67.258.173-82.594 12.344-116.829-42.1-234.355-69.551-354.844-97.688-2.305-.288-4.531-.467-6.656-.5z" fill="#deaa87" stroke="#000" stroke-width="2"/><path d="m-247 247.906c-31.879-.497-42.693 26.309-6.156 36.969 56.598 21.217 83.34 21.09 115.058 29.866 67.895 10.973 212.911 35.046 239.036 50.759-6.734 24.645 40.753 53.34 94.843 61.188 55.836 8.1 104.27-7.243 108.188-34.25 3.918-27.008-78.539-56.326-106.875-58.688-41.082-3.424-67.258.173-82.594 12.344-116.829-42.1-234.355-69.551-354.844-97.688-2.305-.288-4.531-.467-6.656-.5z" fill="#e9c6af" stroke="#000" stroke-width="2"/><g fill="#e4b99d"><path d="m-276.031 263.719c-.156 1.218-.124 2.471.125 3.719l126.125 25.437 76.062 12.063 184.032 43.25-145.532-39.188-111.062-19.906-62.213-11.265z"/><path d="m-264.688 251.063c-2.004.882-3.771 1.933-5.281 3.093l41.75 8.75c59.385 15.561 87.959 17.917 131.938 26.875l155.531 40.469-128.656-37.594c-63.781-13.635-120.795-22.759-191.813-41.218z"/><path d="m-270.069 273.415c33.351 7.167 63.442 15.963 101.555 20.748l218.874 45.656-202.53-38.479c-29.454-4.626-64.285-11.402-107.061-21.357z"/><path d="m-203 299.375-1.688.844c15.295 3.878 27.999 6.167 40 8.5 44.024 6.062 104.188 14.656 104.188 14.656z"/></g><path d="m171.406 336.813c-10.913.093-20.209 1.038-28.093 2.906-4.537 3.974-7.947 8.903-10.344 14.844-9.234 22.878-2.129 43.402 81.812 57.843 28.559 4.914 55.043 1.256 72.594-7.031 4.055-4.143 6.653-8.837 7.406-14.031 3.565-24.569-71.44-51.258-97.218-53.406-9.591-.8-18.289-1.193-26.157-1.125z" fill="#d6ac8f"/><path d="m171.406 336.813c-10.042.085-18.692.916-26.156 2.5-.62.125-1.241.232-1.844.375-.031.007-.062.023-.093.031-16.75 3.967-27.045 12.085-32.469 24.937-9.653 22.873 34.705 50.444 85.5 57.813 40.056 5.811 75.906-1.639 91.031-17.094 1.014-1.036 1.925-2.115 2.75-3.219.417-.557.823-1.112 1.188-1.687 1.817-2.843 2.997-5.879 3.468-9.125 1.448-9.981-10.082-20.326-26-29.219-1.221-.682-2.482-1.338-3.75-2-22.906-11.993-52.968-20.979-67.468-22.188-7.539-.628-14.503-.993-20.969-1.093-1.76-.027-3.505-.046-5.188-.031z" fill="#d6ac8f"/><path d="m139.737 340.953c33.29 31.079 84.633 31.682 111.313 12.591l5.354 2.147c-43.173 32.401-103.575 6.656-122.49-12.561z" fill="#e3bda4"/><path d="m278.543 368.107c-6.324 7.501-30.148 13.037-49.897 14.205 24.429.924 46.956-4.604 53.632-11.426z" fill="#ddbaa1"/><path d="m119.159 352.625c34.744 25.971 89.239 56.763 170.328 24.914.783.94 1.521 1.88 2.07 2.821-45.587 30.367-124.278 20.049-176.312-23.498z" fill="#e3bda4"/><path d="m171.406 336.813c1.683-.015 3.428.004 5.188.031-1.763-.026-3.502-.046-5.188-.031zm8.157.093c3.521.097 7.145.252 10.968.5-3.8-.243-7.466-.406-10.968-.5zm10.968.5c2.287.148 4.634.332 7.032.531-2.409-.2-4.735-.384-7.032-.531zm7.032.531c2.416.202 5.26.608 8.437 1.219-3.177-.611-6.021-1.017-8.437-1.219zm8.437 1.219c2.118.407 4.372.896 6.75 1.469-2.377-.573-4.632-1.061-6.75-1.469zm6.75 1.469c3.566.859 7.4 1.898 11.375 3.094-3.975-1.196-7.809-2.234-11.375-3.094zm-66.969-1.437c-.805.165-1.597.316-2.375.5.773-.182 1.576-.336 2.375-.5zm-2.468.531c-16.75 3.967-27.045 12.085-32.469 24.937-9.653 22.873 34.705 50.444 85.5 57.813 40.056 5.811 75.906-1.639 91.031-17.094-17.551 8.287-44.035 11.945-72.594 7.031-83.941-14.441-91.046-34.965-81.812-57.843 2.397-5.941 5.807-10.87 10.344-14.844zm144.062 65.656c1.525-1.558 2.851-3.19 3.938-4.906-1.091 1.706-2.417 3.352-3.938 4.906zm3.938-4.906c.307-.486.604-.971.875-1.469-.275.501-.563.98-.875 1.469zm-59.063-54.156c4.131 1.395 8.342 2.935 12.531 4.593-4.188-1.658-8.4-3.198-12.531-4.593zm12.531 4.593c2.793 1.106 5.572 2.263 8.313 3.469-2.74-1.206-5.52-2.363-8.313-3.469zm13.688 5.938c3.576 1.694 7.034 3.45 10.312 5.281-3.271-1.828-6.744-3.59-10.312-5.281z" fill="#b58b6e" fill-opacity=".64"/></g><g transform="matrix(.733078 -.680144 .680144 .733078 361.871 368.755)"><path d="m-247 254.977c-31.879-.497-42.693 26.309-6.156 36.969 56.598 21.217 85.483 21.09 117.201 29.866 67.895 10.974 206.707 33.016 232.832 48.729 8.266 34.144 41.783 54.36 95.874 62.207 55.835 8.101 82.046-.171 108.187-33.239-5.299-25.45-75.508-56.326-103.844-58.688-41.082-3.424-67.258.173-82.594 12.344-116.829-42.1-234.355-69.551-354.844-97.688-2.305-.288-4.531-.467-6.656-.5z" fill="#deaa87" stroke="#000" stroke-width="2"/><path d="m-247 247.906c-31.879-.497-42.693 26.309-6.156 36.969 56.598 21.217 83.34 21.09 115.058 29.866 67.895 10.973 212.911 35.046 239.036 50.759-6.734 24.645 40.753 53.34 94.843 61.188 55.836 8.1 104.27-7.243 108.188-34.25 3.918-27.008-78.539-56.326-106.875-58.688-41.082-3.424-67.258.173-82.594 12.344-116.829-42.1-234.355-69.551-354.844-97.688-2.305-.288-4.531-.467-6.656-.5z" fill="#e9c6af" stroke="#000" stroke-width="2"/><g fill="#e4b99d"><path d="m-276.031 263.719c-.156 1.218-.124 2.471.125 3.719l126.125 25.437 76.062 12.063 184.032 43.25-145.532-39.188-111.062-19.906-62.213-11.265z"/><path d="m-264.688 251.063c-2.004.882-3.771 1.933-5.281 3.093l41.75 8.75c59.385 15.561 87.959 17.917 131.938 26.875l155.531 40.469-128.656-37.594c-63.781-13.635-120.795-22.759-191.813-41.218z"/><path d="m-270.069 273.415c33.351 7.167 63.442 15.963 101.555 20.748l218.874 45.656-202.53-38.479c-29.454-4.626-64.285-11.402-107.061-21.357z"/><path d="m-203 299.375-1.688.844c15.295 3.878 27.999 6.167 40 8.5 44.024 6.062 104.188 14.656 104.188 14.656z"/></g><path d="m171.406 336.813c-10.913.093-20.209 1.038-28.093 2.906-4.537 3.974-7.947 8.903-10.344 14.844-9.234 22.878-2.129 43.402 81.812 57.843 28.559 4.914 55.043 1.256 72.594-7.031 4.055-4.143 6.653-8.837 7.406-14.031 3.565-24.569-71.44-51.258-97.218-53.406-9.591-.8-18.289-1.193-26.157-1.125z" fill="#d6ac8f"/><path d="m171.406 336.813c-10.042.085-18.692.916-26.156 2.5-.62.125-1.241.232-1.844.375-.031.007-.062.023-.093.031-16.75 3.967-27.045 12.085-32.469 24.937-9.653 22.873 34.705 50.444 85.5 57.813 40.056 5.811 75.906-1.639 91.031-17.094 1.014-1.036 1.925-2.115 2.75-3.219.417-.557.823-1.112 1.188-1.687 1.817-2.843 2.997-5.879 3.468-9.125 1.448-9.981-10.082-20.326-26-29.219-1.221-.682-2.482-1.338-3.75-2-22.906-11.993-52.968-20.979-67.468-22.188-7.539-.628-14.503-.993-20.969-1.093-1.76-.027-3.505-.046-5.188-.031z" fill="#d6ac8f"/><path d="m139.737 340.953c33.29 31.079 84.633 31.682 111.313 12.591l5.354 2.147c-43.173 32.401-103.575 6.656-122.49-12.561z" fill="#e3bda4"/><path d="m278.543 368.107c-6.324 7.501-30.148 13.037-49.897 14.205 24.429.924 46.956-4.604 53.632-11.426z" fill="#ddbaa1"/><path d="m119.159 352.625c34.744 25.971 89.239 56.763 170.328 24.914.783.94 1.521 1.88 2.07 2.821-45.587 30.367-124.278 20.049-176.312-23.498z" fill="#e3bda4"/><path d="m171.406 336.813c1.683-.015 3.428.004 5.188.031-1.763-.026-3.502-.046-5.188-.031zm8.157.093c3.521.097 7.145.252 10.968.5-3.8-.243-7.466-.406-10.968-.5zm10.968.5c2.287.148 4.634.332 7.032.531-2.409-.2-4.735-.384-7.032-.531zm7.032.531c2.416.202 5.26.608 8.437 1.219-3.177-.611-6.021-1.017-8.437-1.219zm8.437 1.219c2.118.407 4.372.896 6.75 1.469-2.377-.573-4.632-1.061-6.75-1.469zm6.75 1.469c3.566.859 7.4 1.898 11.375 3.094-3.975-1.196-7.809-2.234-11.375-3.094zm-66.969-1.437c-.805.165-1.597.316-2.375.5.773-.182 1.576-.336 2.375-.5zm-2.468.531c-16.75 3.967-27.045 12.085-32.469 24.937-9.653 22.873 34.705 50.444 85.5 57.813 40.056 5.811 75.906-1.639 91.031-17.094-17.551 8.287-44.035 11.945-72.594 7.031-83.941-14.441-91.046-34.965-81.812-57.843 2.397-5.941 5.807-10.87 10.344-14.844zm144.062 65.656c1.525-1.558 2.851-3.19 3.938-4.906-1.091 1.706-2.417 3.352-3.938 4.906zm3.938-4.906c.307-.486.604-.971.875-1.469-.275.501-.563.98-.875 1.469zm-59.063-54.156c4.131 1.395 8.342 2.935 12.531 4.593-4.188-1.658-8.4-3.198-12.531-4.593zm12.531 4.593c2.793 1.106 5.572 2.263 8.313 3.469-2.74-1.206-5.52-2.363-8.313-3.469zm13.688 5.938c3.576 1.694 7.034 3.45 10.312 5.281-3.271-1.828-6.744-3.59-10.312-5.281z" fill="#b58b6e" fill-opacity=".64"/></g><g transform="matrix(.501624 -.865085 1.0312 .21514 158.448 522.259)"><path d="m-247 254.977c-31.879-.497-42.693 26.309-6.156 36.969 56.598 21.217 85.483 21.09 117.201 29.866 67.895 10.974 206.707 33.016 232.832 48.729 8.266 34.144 41.783 54.36 95.874 62.207 55.835 8.101 82.046-.171 108.187-33.239-5.299-25.45-75.508-56.326-103.844-58.688-41.082-3.424-67.258.173-82.594 12.344-116.829-42.1-234.355-69.551-354.844-97.688-2.305-.288-4.531-.467-6.656-.5z" fill="#deaa87" stroke="#000" stroke-width="2"/><path d="m-247 247.906c-31.879-.497-42.693 26.309-6.156 36.969 56.598 21.217 83.34 21.09 115.058 29.866 67.895 10.973 212.911 35.046 239.036 50.759-6.734 24.645 40.753 53.34 94.843 61.188 55.836 8.1 104.27-7.243 108.188-34.25 3.918-27.008-78.539-56.326-106.875-58.688-41.082-3.424-67.258.173-82.594 12.344-116.829-42.1-234.355-69.551-354.844-97.688-2.305-.288-4.531-.467-6.656-.5z" fill="#e9c6af" stroke="#000" stroke-width="2"/><g fill="#e4b99d"><path d="m-276.031 263.719c-.156 1.218-.124 2.471.125 3.719l126.125 25.437 76.062 12.063 184.032 43.25-145.532-39.188-111.062-19.906-62.213-11.265z"/><path d="m-264.688 251.063c-2.004.882-3.771 1.933-5.281 3.093l41.75 8.75c59.385 15.561 87.959 17.917 131.938 26.875l155.531 40.469-128.656-37.594c-63.781-13.635-120.795-22.759-191.813-41.218z"/><path d="m-270.069 273.415c33.351 7.167 63.442 15.963 101.555 20.748l218.874 45.656-202.53-38.479c-29.454-4.626-64.285-11.402-107.061-21.357z"/><path d="m-203 299.375-1.688.844c15.295 3.878 27.999 6.167 40 8.5 44.024 6.062 104.188 14.656 104.188 14.656z"/></g><path d="m171.406 336.813c-10.913.093-20.209 1.038-28.093 2.906-4.537 3.974-7.947 8.903-10.344 14.844-9.234 22.878-2.129 43.402 81.812 57.843 28.559 4.914 55.043 1.256 72.594-7.031 4.055-4.143 6.653-8.837 7.406-14.031 3.565-24.569-71.44-51.258-97.218-53.406-9.591-.8-18.289-1.193-26.157-1.125z" fill="#d6ac8f"/><path d="m171.406 336.813c-10.042.085-18.692.916-26.156 2.5-.62.125-1.241.232-1.844.375-.031.007-.062.023-.093.031-16.75 3.967-27.045 12.085-32.469 24.937-9.653 22.873 34.705 50.444 85.5 57.813 40.056 5.811 75.906-1.639 91.031-17.094 1.014-1.036 1.925-2.115 2.75-3.219.417-.557.823-1.112 1.188-1.687 1.817-2.843 2.997-5.879 3.468-9.125 1.448-9.981-10.082-20.326-26-29.219-1.221-.682-2.482-1.338-3.75-2-22.906-11.993-52.968-20.979-67.468-22.188-7.539-.628-14.503-.993-20.969-1.093-1.76-.027-3.505-.046-5.188-.031z" fill="#d6ac8f"/><path d="m139.737 340.953c33.29 31.079 84.633 31.682 111.313 12.591l5.354 2.147c-43.173 32.401-103.575 6.656-122.49-12.561z" fill="#e3bda4"/><path d="m278.543 368.107c-6.324 7.501-30.148 13.037-49.897 14.205 24.429.924 46.956-4.604 53.632-11.426z" fill="#ddbaa1"/><path d="m119.159 352.625c34.744 25.971 89.239 56.763 170.328 24.914.783.94 1.521 1.88 2.07 2.821-45.587 30.367-124.278 20.049-176.312-23.498z" fill="#e3bda4"/><path d="m171.406 336.813c1.683-.015 3.428.004 5.188.031-1.763-.026-3.502-.046-5.188-.031zm8.157.093c3.521.097 7.145.252 10.968.5-3.8-.243-7.466-.406-10.968-.5zm10.968.5c2.287.148 4.634.332 7.032.531-2.409-.2-4.735-.384-7.032-.531zm7.032.531c2.416.202 5.26.608 8.437 1.219-3.177-.611-6.021-1.017-8.437-1.219zm8.437 1.219c2.118.407 4.372.896 6.75 1.469-2.377-.573-4.632-1.061-6.75-1.469zm6.75 1.469c3.566.859 7.4 1.898 11.375 3.094-3.975-1.196-7.809-2.234-11.375-3.094zm-66.969-1.437c-.805.165-1.597.316-2.375.5.773-.182 1.576-.336 2.375-.5zm-2.468.531c-16.75 3.967-27.045 12.085-32.469 24.937-9.653 22.873 34.705 50.444 85.5 57.813 40.056 5.811 75.906-1.639 91.031-17.094-17.551 8.287-44.035 11.945-72.594 7.031-83.941-14.441-91.046-34.965-81.812-57.843 2.397-5.941 5.807-10.87 10.344-14.844zm144.062 65.656c1.525-1.558 2.851-3.19 3.938-4.906-1.091 1.706-2.417 3.352-3.938 4.906zm3.938-4.906c.307-.486.604-.971.875-1.469-.275.501-.563.98-.875 1.469zm-59.063-54.156c4.131 1.395 8.342 2.935 12.531 4.593-4.188-1.658-8.4-3.198-12.531-4.593zm12.531 4.593c2.793 1.106 5.572 2.263 8.313 3.469-2.74-1.206-5.52-2.363-8.313-3.469zm13.688 5.938c3.576 1.694 7.034 3.45 10.312 5.281-3.271-1.828-6.744-3.59-10.312-5.281z" fill="#b58b6e" fill-opacity=".64"/></g><g transform="matrix(.999995 .003039 -.003039 .999995 496.949 228.795)"><path d="m-247 254.977c-31.879-.497-42.693 26.309-6.156 36.969 56.598 21.217 85.483 21.09 117.201 29.866 67.895 10.974 206.707 33.016 232.832 48.729 8.266 34.144 41.783 54.36 95.874 62.207 55.835 8.101 82.046-.171 108.187-33.239-5.299-25.45-75.508-56.326-103.844-58.688-41.082-3.424-67.258.173-82.594 12.344-116.829-42.1-234.355-69.551-354.844-97.688-2.305-.288-4.531-.467-6.656-.5z" fill="#deaa87" stroke="#000" stroke-width="2"/><path d="m-247 247.906c-31.879-.497-42.693 26.309-6.156 36.969 56.598 21.217 83.34 21.09 115.058 29.866 67.895 10.973 212.911 35.046 239.036 50.759-6.734 24.645 40.753 53.34 94.843 61.188 55.836 8.1 104.27-7.243 108.188-34.25 3.918-27.008-78.539-56.326-106.875-58.688-41.082-3.424-67.258.173-82.594 12.344-116.829-42.1-234.355-69.551-354.844-97.688-2.305-.288-4.531-.467-6.656-.5z" fill="#e9c6af" stroke="#000" stroke-width="2"/><g fill="#e4b99d"><path d="m-276.031 263.719c-.156 1.218-.124 2.471.125 3.719l126.125 25.437 76.062 12.063 184.032 43.25-145.532-39.188-111.062-19.906-62.213-11.265z"/><path d="m-264.688 251.063c-2.004.882-3.771 1.933-5.281 3.093l41.75 8.75c59.385 15.561 87.959 17.917 131.938 26.875l155.531 40.469-128.656-37.594c-63.781-13.635-120.795-22.759-191.813-41.218z"/><path d="m-270.069 273.415c33.351 7.167 63.442 15.963 101.555 20.748l218.874 45.656-202.53-38.479c-29.454-4.626-64.285-11.402-107.061-21.357z"/><path d="m-203 299.375-1.688.844c15.295 3.878 27.999 6.167 40 8.5 44.024 6.062 104.188 14.656 104.188 14.656z"/></g><path d="m171.406 336.813c-10.913.093-20.209 1.038-28.093 2.906-4.537 3.974-7.947 8.903-10.344 14.844-9.234 22.878-2.129 43.402 81.812 57.843 28.559 4.914 55.043 1.256 72.594-7.031 4.055-4.143 6.653-8.837 7.406-14.031 3.565-24.569-71.44-51.258-97.218-53.406-9.591-.8-18.289-1.193-26.157-1.125z" fill="#d6ac8f"/><path d="m171.406 336.813c-10.042.085-18.692.916-26.156 2.5-.62.125-1.241.232-1.844.375-.031.007-.062.023-.093.031-16.75 3.967-27.045 12.085-32.469 24.937-9.653 22.873 34.705 50.444 85.5 57.813 40.056 5.811 75.906-1.639 91.031-17.094 1.014-1.036 1.925-2.115 2.75-3.219.417-.557.823-1.112 1.188-1.687 1.817-2.843 2.997-5.879 3.468-9.125 1.448-9.981-10.082-20.326-26-29.219-1.221-.682-2.482-1.338-3.75-2-22.906-11.993-52.968-20.979-67.468-22.188-7.539-.628-14.503-.993-20.969-1.093-1.76-.027-3.505-.046-5.188-.031z" fill="#d6ac8f"/><path d="m139.737 340.953c33.29 31.079 84.633 31.682 111.313 12.591l5.354 2.147c-43.173 32.401-103.575 6.656-122.49-12.561z" fill="#e3bda4"/><path d="m278.543 368.107c-6.324 7.501-30.148 13.037-49.897 14.205 24.429.924 46.956-4.604 53.632-11.426z" fill="#ddbaa1"/><path d="m119.159 352.625c34.744 25.971 89.239 56.763 170.328 24.914.783.94 1.521 1.88 2.07 2.821-45.587 30.367-124.278 20.049-176.312-23.498z" fill="#e3bda4"/><path d="m171.406 336.813c1.683-.015 3.428.004 5.188.031-1.763-.026-3.502-.046-5.188-.031zm8.157.093c3.521.097 7.145.252 10.968.5-3.8-.243-7.466-.406-10.968-.5zm10.968.5c2.287.148 4.634.332 7.032.531-2.409-.2-4.735-.384-7.032-.531zm7.032.531c2.416.202 5.26.608 8.437 1.219-3.177-.611-6.021-1.017-8.437-1.219zm8.437 1.219c2.118.407 4.372.896 6.75 1.469-2.377-.573-4.632-1.061-6.75-1.469zm6.75 1.469c3.566.859 7.4 1.898 11.375 3.094-3.975-1.196-7.809-2.234-11.375-3.094zm-66.969-1.437c-.805.165-1.597.316-2.375.5.773-.182 1.576-.336 2.375-.5zm-2.468.531c-16.75 3.967-27.045 12.085-32.469 24.937-9.653 22.873 34.705 50.444 85.5 57.813 40.056 5.811 75.906-1.639 91.031-17.094-17.551 8.287-44.035 11.945-72.594 7.031-83.941-14.441-91.046-34.965-81.812-57.843 2.397-5.941 5.807-10.87 10.344-14.844zm144.062 65.656c1.525-1.558 2.851-3.19 3.938-4.906-1.091 1.706-2.417 3.352-3.938 4.906zm3.938-4.906c.307-.486.604-.971.875-1.469-.275.501-.563.98-.875 1.469zm-59.063-54.156c4.131 1.395 8.342 2.935 12.531 4.593-4.188-1.658-8.4-3.198-12.531-4.593zm12.531 4.593c2.793 1.106 5.572 2.263 8.313 3.469-2.74-1.206-5.52-2.363-8.313-3.469zm13.688 5.938c3.576 1.694 7.034 3.45 10.312 5.281-3.271-1.828-6.744-3.59-10.312-5.281z" fill="#b58b6e" fill-opacity=".64"/></g><g transform="matrix(.999995 .003039 -.003039 .999995 496.949 378.296)"><path d="m-247 254.977c-31.879-.497-42.693 26.309-6.156 36.969 56.598 21.217 85.483 21.09 117.201 29.866 67.895 10.974 206.707 33.016 232.832 48.729 8.266 34.144 41.783 54.36 95.874 62.207 55.835 8.101 82.046-.171 108.187-33.239-5.299-25.45-75.508-56.326-103.844-58.688-41.082-3.424-67.258.173-82.594 12.344-116.829-42.1-234.355-69.551-354.844-97.688-2.305-.288-4.531-.467-6.656-.5z" fill="#deaa87" stroke="#000" stroke-width="2"/><path d="m-247 247.906c-31.879-.497-42.693 26.309-6.156 36.969 56.598 21.217 83.34 21.09 115.058 29.866 67.895 10.973 212.911 35.046 239.036 50.759-6.734 24.645 40.753 53.34 94.843 61.188 55.836 8.1 104.27-7.243 108.188-34.25 3.918-27.008-78.539-56.326-106.875-58.688-41.082-3.424-67.258.173-82.594 12.344-116.829-42.1-234.355-69.551-354.844-97.688-2.305-.288-4.531-.467-6.656-.5z" fill="#e9c6af" stroke="#000" stroke-width="2"/><g fill="#e4b99d"><path d="m-276.031 263.719c-.156 1.218-.124 2.471.125 3.719l126.125 25.437 76.062 12.063 184.032 43.25-145.532-39.188-111.062-19.906-62.213-11.265z"/><path d="m-264.688 251.063c-2.004.882-3.771 1.933-5.281 3.093l41.75 8.75c59.385 15.561 87.959 17.917 131.938 26.875l155.531 40.469-128.656-37.594c-63.781-13.635-120.795-22.759-191.813-41.218z"/><path d="m-270.069 273.415c33.351 7.167 63.442 15.963 101.555 20.748l218.874 45.656-202.53-38.479c-29.454-4.626-64.285-11.402-107.061-21.357z"/><path d="m-203 299.375-1.688.844c15.295 3.878 27.999 6.167 40 8.5 44.024 6.062 104.188 14.656 104.188 14.656z"/></g><path d="m171.406 336.813c-10.913.093-20.209 1.038-28.093 2.906-4.537 3.974-7.947 8.903-10.344 14.844-9.234 22.878-2.129 43.402 81.812 57.843 28.559 4.914 55.043 1.256 72.594-7.031 4.055-4.143 6.653-8.837 7.406-14.031 3.565-24.569-71.44-51.258-97.218-53.406-9.591-.8-18.289-1.193-26.157-1.125z" fill="#d6ac8f"/><path d="m171.406 336.813c-10.042.085-18.692.916-26.156 2.5-.62.125-1.241.232-1.844.375-.031.007-.062.023-.093.031-16.75 3.967-27.045 12.085-32.469 24.937-9.653 22.873 34.705 50.444 85.5 57.813 40.056 5.811 75.906-1.639 91.031-17.094 1.014-1.036 1.925-2.115 2.75-3.219.417-.557.823-1.112 1.188-1.687 1.817-2.843 2.997-5.879 3.468-9.125 1.448-9.981-10.082-20.326-26-29.219-1.221-.682-2.482-1.338-3.75-2-22.906-11.993-52.968-20.979-67.468-22.188-7.539-.628-14.503-.993-20.969-1.093-1.76-.027-3.505-.046-5.188-.031z" fill="#d6ac8f"/><path d="m139.737 340.953c33.29 31.079 84.633 31.682 111.313 12.591l5.354 2.147c-43.173 32.401-103.575 6.656-122.49-12.561z" fill="#e3bda4"/><path d="m278.543 368.107c-6.324 7.501-30.148 13.037-49.897 14.205 24.429.924 46.956-4.604 53.632-11.426z" fill="#ddbaa1"/><path d="m119.159 352.625c34.744 25.971 89.239 56.763 170.328 24.914.783.94 1.521 1.88 2.07 2.821-45.587 30.367-124.278 20.049-176.312-23.498z" fill="#e3bda4"/><path d="m171.406 336.813c1.683-.015 3.428.004 5.188.031-1.763-.026-3.502-.046-5.188-.031zm8.157.093c3.521.097 7.145.252 10.968.5-3.8-.243-7.466-.406-10.968-.5zm10.968.5c2.287.148 4.634.332 7.032.531-2.409-.2-4.735-.384-7.032-.531zm7.032.531c2.416.202 5.26.608 8.437 1.219-3.177-.611-6.021-1.017-8.437-1.219zm8.437 1.219c2.118.407 4.372.896 6.75 1.469-2.377-.573-4.632-1.061-6.75-1.469zm6.75 1.469c3.566.859 7.4 1.898 11.375 3.094-3.975-1.196-7.809-2.234-11.375-3.094zm-66.969-1.437c-.805.165-1.597.316-2.375.5.773-.182 1.576-.336 2.375-.5zm-2.468.531c-16.75 3.967-27.045 12.085-32.469 24.937-9.653 22.873 34.705 50.444 85.5 57.813 40.056 5.811 75.906-1.639 91.031-17.094-17.551 8.287-44.035 11.945-72.594 7.031-83.941-14.441-91.046-34.965-81.812-57.843 2.397-5.941 5.807-10.87 10.344-14.844zm144.062 65.656c1.525-1.558 2.851-3.19 3.938-4.906-1.091 1.706-2.417 3.352-3.938 4.906zm3.938-4.906c.307-.486.604-.971.875-1.469-.275.501-.563.98-.875 1.469zm-59.063-54.156c4.131 1.395 8.342 2.935 12.531 4.593-4.188-1.658-8.4-3.198-12.531-4.593zm12.531 4.593c2.793 1.106 5.572 2.263 8.313 3.469-2.74-1.206-5.52-2.363-8.313-3.469zm13.688 5.938c3.576 1.694 7.034 3.45 10.312 5.281-3.271-1.828-6.744-3.59-10.312-5.281z" fill="#b58b6e" fill-opacity=".64"/></g></g></svg>