<svg clip-rule="evenodd" fill-rule="evenodd" stroke-linecap="round" stroke-linejoin="round" stroke-miterlimit="1.5" viewBox="0 0 2048 2048" xmlns="http://www.w3.org/2000/svg" xmlns:xlink="http://www.w3.org/1999/xlink"><clipPath id="a"><path clip-rule="evenodd" d="m135.302 1691.66c347.631 111.74 724.74 87.03 1054.818-69.09 194.53-92 365.93-226.5 501.57-393.57l-218.33-177.24c-109.1 134.4-246.98 242.59-403.47 316.61-265.533 125.58-568.893 145.45-848.529 55.56z"/></clipPath><clipPath id="b"><path clip-rule="evenodd" d="m280.563 1292.92c250.639 87.28 520.55 74.15 754.977-36.73 117.88-55.75 223.46-134.68 311.04-232.52l-769.271-736.306z"/></clipPath><path d="m135.302 1691.66c347.631 111.74 724.74 87.03 1054.818-69.09 194.53-92 365.93-226.5 501.57-393.57l-218.33-177.24c-109.1 134.4-246.98 242.59-403.47 316.61-265.533 125.58-568.893 145.45-848.529 55.56z" fill="#a5ff96"/><g clip-path="url(#a)"><path d="m1596.61 1151.82c51.86 99.99-3.86-22.58 75.65 61.41-122.03 391.54-1016.199 562.25-968.335 544.54 373.625-138.2 681.965-266.64 892.685-605.95z" fill="#66cf6e"/></g><path d="m135.302 1691.66c347.631 111.74 724.74 87.03 1054.818-69.09 194.53-92 365.93-226.5 501.57-393.57l-218.33-177.24c-109.1 134.4-246.98 242.59-403.47 316.61-265.533 125.58-568.893 145.45-848.529 55.56z" fill="none" stroke="#000" stroke-width="36.03"/><path d="m280.563 1292.92c250.639 87.28 520.55 74.15 754.977-36.73 117.88-55.75 223.46-134.68 311.04-232.52l-769.271-736.306z" fill="#eb5454"/><g clip-path="url(#b)"><path d="m725.611 1350.04c3.728-17.45 179.799-87.83 298.389-191.18 119.23-103.9 181.03-240.733 203.85-240.685 98.88.209 99.71 149.345 74.21 166.185-126.4 83.5-592.744 341.96-576.449 265.68z" fill="#973030"/></g><path d="m280.563 1292.92c250.639 87.28 520.55 74.15 754.977-36.73 117.88-55.75 223.46-134.68 311.04-232.52l-769.271-736.306z" fill="none" stroke="#000" stroke-width="47.34"/><path d="m665.211 488.796s32.927 4.185 47.747 26.46c14.821 22.277 17.49 46.59 5.959 54.263-11.532 7.672-32.926-4.184-47.746-26.461-14.82-22.275-5.96-54.262-5.96-54.262z"/><path d="m601.712 678.195s32.927 4.185 47.747 26.46c14.821 22.277 17.49 46.59 5.959 54.263-11.532 7.672-32.926-4.184-47.746-26.461-14.82-22.275-5.96-54.262-5.96-54.262z"/><path d="m830.749 777.176s32.927 4.185 47.747 26.46c14.821 22.277 17.49 46.59 5.959 54.263-11.532 7.672-32.926-4.184-47.746-26.461-14.82-22.275-5.96-54.262-5.96-54.262z"/><path d="m552.749 995.723s29.791 14.637 36.588 40.517c6.797 25.87 1.44 49.74-11.957 53.26-13.395 3.52-29.79-14.64-36.587-40.51-6.797-25.88 11.956-53.267 11.956-53.267z"/><path d="m792.441 978.065s31.511 10.429 41.778 35.135c10.267 24.71 8.218 49.08-4.573 54.4-12.789 5.31-31.509-10.43-41.776-35.14s4.571-54.395 4.571-54.395z"/><path d="m1058.95 916.859s33.17-1.037 51.31 18.636c18.13 19.673 24.58 43.266 14.4 52.654-10.18 9.387-33.17 1.037-51.31-18.637-18.13-19.672-14.4-52.653-14.4-52.653z"/></svg>