<svg clip-rule="evenodd" fill-rule="evenodd" stroke-linecap="round" stroke-linejoin="round" stroke-miterlimit="1.5" viewBox="0 0 2048 2048" xmlns="http://www.w3.org/2000/svg" xmlns:xlink="http://www.w3.org/1999/xlink"><clipPath id="a"><path clip-rule="evenodd" d="m946.904 1292.89c-212.355 75.89-446.744 76.5-666.333.03l166.107-562.882 27.712 71.953 208.862 277.419z"/></clipPath><clipPath id="b"><path clip-rule="evenodd" d="m1083.67 1361.74 193 89.88 156.67 24.98c-75.54 56.17-156.93 105.17-243.21 145.98-330.083 156.11-707.195 180.81-1054.819 69.08l86.053-267.73c279.64 89.89 583.001 70.02 848.526-55.57 4.61-2.18 9.2-4.38 13.78-6.62z"/></clipPath><path d="m946.904 1292.89c-212.355 75.89-446.744 76.5-666.333.03l166.107-562.882 27.712 71.953 208.862 277.419z" fill="#eb5454"/><g clip-path="url(#a)"><path d="m764.637 1145.31c41.629 56.29 103.218 53.66 182.267 147.58-267.653 67.89-105.893 15.57-379.275 57.15 31.578-39.93-340.093 34.34-125.363-52.55 254.986-85.21 121.28-33.38 322.371-152.18z" fill="#dc3939"/><path d="m426.446 1141.61s29.791 14.63 36.588 40.51 1.439 49.74-11.957 53.26-29.79-14.63-36.587-40.51 11.956-53.26 11.956-53.26z"/><path d="m609.643 1163.77s33.148 1.69 49.609 22.78c16.461 21.1 20.956 45.13 10.038 53.66-10.919 8.52-33.146-1.69-49.607-22.78-16.461-21.1-10.04-53.66-10.04-53.66z"/><path d="m493.228 964.197s29.791 14.633 36.588 40.513 1.439 49.74-11.957 53.26-29.79-14.63-36.587-40.51 11.956-53.263 11.956-53.263z"/></g><path d="m946.904 1292.89c-212.355 75.89-446.744 76.5-666.333.03l166.107-562.882 27.712 71.953 208.862 277.419z" fill="none" stroke="#000" stroke-width="47.34"/><path d="m1083.67 1361.74 193 89.88 156.67 24.98c-75.54 56.17-156.93 105.17-243.21 145.98-330.083 156.11-707.195 180.81-1054.819 69.08l86.053-267.73c279.64 89.89 583.001 70.02 848.526-55.57 4.61-2.18 9.2-4.38 13.78-6.62z" fill="#a5ff96"/><g clip-path="url(#b)"><path d="m1186.04 1409.41c-5.63 40.49 60.9 10.43 145.72 50.99 86.39 41.32 110.33-22.73 50.8 52.28-473.939 258.9-59.94 73.37-534.089 221.78-91.385 28.6-131.157 18.66-223.862 37.88-108.705-21.24-378.468-2.89-287.083-31.5 408.155 10.63 575.259 12.83 848.514-331.43z" fill="#6eca75"/></g><path d="m1083.67 1361.74 193 89.88 156.67 24.98c-75.54 56.17-156.93 105.17-243.21 145.98-330.083 156.11-707.195 180.81-1054.819 69.08l86.053-267.73c279.64 89.89 583.001 70.02 848.526-55.57 4.61-2.18 9.2-4.38 13.78-6.62z" fill="none" stroke="#000" stroke-width="36.04"/></svg>