<?xml version="1.0" encoding="UTF-8" standalone="no"?>
<!DOCTYPE svg PUBLIC "-//W3C//DTD SVG 1.1//EN" "http://www.w3.org/Graphics/SVG/1.1/DTD/svg11.dtd">
<svg width="100%" height="100%" viewBox="0 0 2048 2048" version="1.1" xmlns="http://www.w3.org/2000/svg" xmlns:xlink="http://www.w3.org/1999/xlink" xml:space="preserve" xmlns:serif="http://www.serif.com/" style="fill-rule:evenodd;clip-rule:evenodd;stroke-linecap:round;stroke-linejoin:round;stroke-miterlimit:1.5;">
    <g>
        <g>
            <path d="M135.302,1691.66C482.933,1803.4 860.042,1778.69 1190.12,1622.57C1384.65,1530.57 1556.05,1396.07 1691.69,1229L1473.36,1051.76C1364.26,1186.16 1226.38,1294.35 1069.89,1368.37C804.357,1493.95 500.997,1513.82 221.361,1423.93L135.302,1691.66Z" style="fill:rgb(165,255,150);"/>
            <g>
                <clipPath id="_clip1">
                    <path d="M135.302,1691.66C482.933,1803.4 860.042,1778.69 1190.12,1622.57C1384.65,1530.57 1556.05,1396.07 1691.69,1229L1473.36,1051.76C1364.26,1186.16 1226.38,1294.35 1069.89,1368.37C804.357,1493.95 500.997,1513.82 221.361,1423.93L135.302,1691.66Z"/>
                </clipPath>
                <g clip-path="url(#_clip1)">
                    <g>
                        <path d="M1596.61,1151.82C1648.47,1251.81 1592.75,1129.24 1672.26,1213.23C1550.23,1604.77 656.061,1775.48 703.925,1757.77C1077.55,1619.57 1385.89,1491.13 1596.61,1151.82Z" style="fill:rgb(102,207,110);"/>
                    </g>
                </g>
            </g>
            <path d="M135.302,1691.66C482.933,1803.4 860.042,1778.69 1190.12,1622.57C1384.65,1530.57 1556.05,1396.07 1691.69,1229L1473.36,1051.76C1364.26,1186.16 1226.38,1294.35 1069.89,1368.37C804.357,1493.95 500.997,1513.82 221.361,1423.93L135.302,1691.66Z" style="fill:none;stroke:black;stroke-width:36.03px;"/>
        </g>
        <g>
            <path d="M280.563,1292.92C531.202,1380.2 801.113,1367.07 1035.54,1256.19C1153.42,1200.44 1259,1121.51 1346.58,1023.67L577.309,287.364L280.563,1292.92Z" style="fill:rgb(235,84,84);"/>
            <g>
                <clipPath id="_clip2">
                    <path d="M280.563,1292.92C531.202,1380.2 801.113,1367.07 1035.54,1256.19C1153.42,1200.44 1259,1121.51 1346.58,1023.67L577.309,287.364L280.563,1292.92Z"/>
                </clipPath>
                <g clip-path="url(#_clip2)">
                    <g>
                        <path d="M725.611,1350.04C729.339,1332.59 905.41,1262.21 1024,1158.86C1143.23,1054.96 1205.03,918.127 1227.85,918.175C1326.73,918.384 1327.56,1067.52 1302.06,1084.36C1175.66,1167.86 709.316,1426.32 725.611,1350.04Z" style="fill:rgb(151,48,48);"/>
                    </g>
                </g>
            </g>
            <path d="M280.563,1292.92C531.202,1380.2 801.113,1367.07 1035.54,1256.19C1153.42,1200.44 1259,1121.51 1346.58,1023.67L577.309,287.364L280.563,1292.92Z" style="fill:none;stroke:black;stroke-width:47.34px;"/>
        </g>
    </g>
    <g>
        <g>
            <path d="M665.211,488.796C665.211,488.796 698.138,492.981 712.958,515.256C727.779,537.533 730.448,561.846 718.917,569.519C707.385,577.191 685.991,565.335 671.171,543.058C656.351,520.783 665.211,488.796 665.211,488.796Z"/>
        </g>
        <g>
            <path d="M601.712,678.195C601.712,678.195 634.639,682.38 649.459,704.655C664.28,726.932 666.949,751.245 655.418,758.918C643.886,766.59 622.492,754.734 607.672,732.457C592.852,710.182 601.712,678.195 601.712,678.195Z"/>
        </g>
        <g>
            <path d="M830.749,777.176C830.749,777.176 863.676,781.361 878.496,803.636C893.317,825.913 895.986,850.226 884.455,857.899C872.923,865.571 851.529,853.715 836.709,831.438C821.889,809.163 830.749,777.176 830.749,777.176Z"/>
        </g>
        <g>
            <path d="M552.749,995.723C552.749,995.723 582.54,1010.36 589.337,1036.24C596.134,1062.11 590.777,1085.98 577.38,1089.5C563.985,1093.02 547.59,1074.86 540.793,1048.99C533.996,1023.11 552.749,995.723 552.749,995.723Z"/>
        </g>
        <g>
            <path d="M792.441,978.065C792.441,978.065 823.952,988.494 834.219,1013.2C844.486,1037.91 842.437,1062.28 829.646,1067.6C816.857,1072.91 798.137,1057.17 787.87,1032.46C777.603,1007.75 792.441,978.065 792.441,978.065Z"/>
        </g>
        <g>
            <path d="M1058.95,916.859C1058.95,916.859 1092.12,915.822 1110.26,935.495C1128.39,955.168 1134.84,978.761 1124.66,988.149C1114.48,997.536 1091.49,989.186 1073.35,969.512C1055.22,949.84 1058.95,916.859 1058.95,916.859Z"/>
        </g>
    </g>
</svg>
