<svg clip-rule="evenodd" height="475.5pt" stroke-linecap="round" stroke-linejoin="round" stroke-miterlimit="10" viewBox="0 0 625.5 475.5" width="625.5pt" xmlns="http://www.w3.org/2000/svg"><path d="m242.427 139.651c-1.586-.179-5.165-2.97-4.547-1.498 10.704 25.501-23.555 17.502-20.666-1.969.661-4.456 81.852-50.9222 69.175-61.3899-7.55-6.2344-88.253 4.9043-88.098 4.0032 1.506-8.713 55.183-10.7223 64.233-11.1532 9.733-.4633 37.699 1.9863 29.114-2.624-12.164-6.5332-37.299-2.6066-50.119-.4714-8.482 1.4126-33.777 6.0767-25.544 3.597 7.754-2.3354 100.014-11.3863 67.012-12.8093-8.049-.3471-21.796 9.2424-24.119 1.529-4.582-15.2124 61.596 5.0607 47.599-2.4563-18.428-9.8969-55.698.6513-76.116 1.6233-13.788.6563-47.211 19.9071-40.68 7.7462 9.039-16.8304 62.005 8.6504 56.495-9.642-1.403-4.6584-55.964-.033-63.567 1.1212-7.516 1.1408-28.933 1.4621-22.236 5.0587 10.178 5.4663 44.134-1.4836 33.956-6.9499-19.604-10.5283-86.06 22.6429-64.754 16.2257 16.412-4.9432 48.635-16.6966 48.635-16.6966s-18.504 3.8182-27.72 5.8911c-24.901 5.6007-70.8906 13.7613-22.309 7.5384 17.223-2.2061-24.971 32.9342-18.055 48.8608 22.927 52.802 22.511 123.706 39.532 180.219" style="fill:none;opacity:.999071;stroke:#000;stroke-linecap:round;stroke-linejoin:round;stroke-width:50.2491"/><path d="m314.844 45.4062c-2.122-.0717-3.891.996-3.938 2.375-5.7 11.7469-9.477 24.2095-11.562 37.0938-.623 3.848-1.085 7.7431-1.438 11.625-.317 3.4916-.478 6.982-.844 10.469-1.489 14.216-1.56 28.63-.437 42.875.817 10.359 2.318 20.617 4.313 30.812 2.946 15.064 7.099 29.868 12.468 44.25 2.257 6.044 4.602 12.155 7.406 17.969.692 1.433 1.419 2.857 2.188 4.25 1.021 1.85 2.229 3.582 3.344 5.375 1.105 1.779 2.185 3.603 3.25 5.406 2.115 3.583 4.161 7.22 6.562 10.625 5.572 7.902 12.172 15.037 19.406 21.438 3.37 2.981 6.853 5.843 10.532 8.437 6.545 4.615 13.543 8.418 20.844 11.688 5.819 5.14 16.936 2.047 24.843-6.906 7.908-8.954 9.601-20.36 3.781-25.5-8.586-3.292-16.512-7.521-24.062-12.782-7.018-4.89-13.452-10.594-19.625-16.5-3.794-3.629-7.701-7.189-11.25-11.062-1.305-1.424-2.578-2.933-3.75-4.469-1.488-1.95-2.808-4.029-4.313-5.969-2.758-3.557-5.56-7.093-8.187-10.75-2.96-4.121-5.692-8.406-8.313-12.75-3.442-5.707-6.519-11.667-9.374-17.687-7.449-15.707-13.043-32.222-16.688-49.219-1.656-7.722-2.897-15.538-3.594-23.406-.337-3.802-.685-7.68-.625-11.5.076-4.7448.647-9.553 1.281-14.2502 1.845-13.6495 5.511-26.9062 11.532-39.3126.046-1.379-1.629-2.5532-3.75-2.625z" opacity=".999071"/><path d="m314.5 44.6562c-8.66.4937-15.492 4.9339-15.938 10.8438-4.115 8.3144-7.352 16.9248-9.218 26.0312-1.644 8.0224-2.434 16.2526-1.906 24.4378.219 3.406.895 6.748 1.343 10.125.15 1.131.335 2.274.469 3.406.182 1.536.203 3.095.438 4.625.171 1.121.471 2.237.718 3.344.664 2.97 1.598 5.876 2.5 8.781 1.369 4.409 2.849 8.78 4.406 13.125 6.032 16.821 13.542 33.091 21.594 49.031 2.742 5.429 5.58 10.817 8.375 16.219 1.188 2.296 2.505 4.579 3.563 6.937.599 1.336 1.091 2.731 1.625 4.094 1.053 2.688 2.107 5.374 3.156 8.063 3.51 8.999 6.925 18.039 10.031 27.187.717 1.466 3.12 1.759 5.375.656 2.255-1.102 3.498-3.19 2.781-4.656-3.01-8.865-6.297-17.618-9.687-26.344-1.176-3.026-2.378-6.039-3.563-9.062-.533-1.362-1.127-2.707-1.593-4.094-.358-1.064-.611-2.198-.907-3.281-.601-2.207-1.218-4.416-1.812-6.625-1.92-7.135-3.684-14.3-5.344-21.5-3.612-15.665-6.717-31.483-8-47.531-.364-4.561-.575-9.174-.562-13.75.007-2.636.15-5.243.25-7.875.055-1.453.134-2.922.125-4.375-.007-1.045-.102-2.111-.125-3.157-.032-1.407.047-2.815.156-4.218.298-3.835 1.145-7.6796 1.781-11.469 1.004-5.9804 2.132-11.9517 3.938-17.75 1.915-6.1489 4.511-11.9571 7.719-17.5312.509-6.7543-7.484-12.8412-17.876-13.625-1.298-.098-2.575-.1331-3.812-.0626z" opacity=".999071"/><path d="m403.625 295.688c-11.086 4.422-22.248 8.673-33.5 12.656-5.738 2.031-11.496 4.077-17.313 5.875-2.323.718-4.675 1.275-7.031 1.875-3.868.985-7.769 1.939-11.656 2.844-12.057 2.804-24.203 5.262-36.437 7.156-19.377 2.999-39.092 5.023-58.719 3.968-3.218-.172-6.42-.526-9.625-.843-1.786-.177-3.585-.369-5.375-.5-3.109-.228-6.173-.387-9.25-.938-4.419-.79-8.81-2.092-13.125-3.312-6.26-1.769-12.465-3.807-18.313-6.688-8.421-4.148-15.913-9.899-21.843-17.187-4.762-6.651-16.925-6.076-27.157 1.25-10.231 7.325-14.636 18.631-9.875 25.281 4.632 5.001 9.781 9.438 15.5 13.156 11.872 7.718 25.781 12.296 39.719 14.407 6.526.988 13.039 1.142 19.625 1.25 3.835.062 7.696.239 11.531.218 3.978-.021 7.956-.385 11.907-.812 32.118-3.478 63.629-11.556 94.25-21.688 11.689-3.868 23.192-8.179 34.718-12.5 2.307-.864 4.666-1.59 7-2.375 3.581-1.203 7.156-2.433 10.719-3.687 11.851-4.172 23.581-8.626 35.25-13.282 1.099-.18 1.778-1.684 1.5-3.374-.278-1.691-1.401-2.931-2.5-2.75z" opacity=".999071"/><path d="m397.5 296.781c-.699.099-1.329.364-1.844.813-7.479 5.598-15.812 9.619-24.437 13.125-2.388.97-4.767 2.02-7.188 2.906-3.011 1.102-6.129 1.854-9.187 2.813-16.14 5.058-32.796 8.037-49.563 10.093-5.805.712-11.609 1.32-17.437 1.813-2.834.239-5.688.561-8.532.656-3.768.126-7.542.085-11.312.094-6.513.014-13.019-.044-19.531-.125-.635-.292-1.521.273-1.969 1.25s-.291 1.99.344 2.281c7.064.089 14.123.154 21.187.125 3.811-.016 7.628-.19 11.438-.094 7.261.184 14.516.439 21.781.438 12.179-.003 24.346-.482 36.469-1.657 3.482-.337 6.969-.763 10.437-1.218 2.891-.379 5.803-.736 8.656-1.344 2.306-.491 4.575-1.109 6.876-1.625 3.43-.77 6.829-1.54 10.187-2.594 11.308-3.548 22.061-8.734 31.813-15.469 2.057-1.795 1.481-5.803-1.282-8.968-2.072-2.374-4.809-3.61-6.906-3.313z" opacity=".999071"/><path d="m385.688 305.688c-10.777 4.221-21.723 7.814-32.782 11.218-3.522 1.085-7.018 2.268-10.562 3.282-2.972.849-6.02 1.523-9 2.343-5.52 1.52-11.027 3.004-16.594 4.344-13.746 3.309-27.667 5.924-41.625 8.156-8.785 1.405-17.616 2.809-26.469 3.719-4.243.436-8.524.599-12.781.844-7.676.442-15.347.779-23.031 1.031-.635-.255-1.483.336-1.875 1.313-.392.976-.197 1.963.437 2.218 7.724-.253 15.442-.587 23.156-1.031 4.283-.246 8.591-.626 12.876-.813 7.365-.32 14.729-.437 22.093-.812 14.41-.734 28.787-1.924 43.125-3.531 6.86-.769 13.784-1.456 20.594-2.594 3.119-.521 6.195-1.247 9.312-1.781 3.084-.529 6.16-1.027 9.219-1.688 12.146-2.624 24.043-6.265 35.75-10.406 2.84-.331 4.729-4.132 4.219-8.5s-3.223-7.644-6.062-7.312z" opacity=".999071"/><path d="m327.875 322.188c-9.429 1.502-18.895 2.932-28.281 4.687-2.983.558-5.93 1.294-8.906 1.875-2.455.479-4.922.764-7.376 1.25-4.943.979-9.861 2.053-14.812 3-11.301 2.161-22.702 3.927-34.094 5.531-4.967.7-9.92 1.355-14.906 1.907-2 .221-4.024.483-6.031.624-2.946.208-5.893.222-8.844.313-6.461.2-12.942.256-19.406.25-.635-.282-1.503.273-1.938 1.25-.434.977-.26 1.999.375 2.281 6.014.006 12.02-.03 18.032-.187 3.467-.091 6.938-.337 10.406-.375 2.409-.027 4.84.076 7.25.094 3.838.027 7.661.052 11.5.031 10.51-.059 21.027-.365 31.531-.688 5.729-.176 11.463-.251 17.187-.531 2.409-.118 4.811-.435 7.219-.562 2.887-.154 5.772-.219 8.657-.438 9.317-.708 18.592-1.821 27.874-2.875 3.134.818 6.68-2.429 7.938-7.25s-.242-9.37-3.375-10.187z" opacity=".999071"/><path d="m293.812 328.219c-.692-.133-1.399-.071-2.031.187-8.035 4.418-16.672 7.254-25.5 9.625-2.465.662-4.917 1.401-7.406 1.969-2.548.582-5.149.882-7.719 1.344-4.899.88-9.798 1.689-14.75 2.218-11.84 1.267-23.813 1.334-35.687.563-7.65-.497-15.48-1.228-23-2.75-3.005-.608-5.974-1.522-8.907-2.406-6.804-2.052-13.416-4.595-19.843-7.625-.582-.543-1.728-.239-2.563.656s-1.05 2.051-.468 2.594c6.087 2.869 12.355 5.308 18.781 7.312 3.473 1.083 6.978 1.925 10.469 2.938 5.621 1.631 11.223 3.269 16.937 4.562 12.501 2.83 25.269 4.505 38.063 5.188 3.373.18 6.747.303 10.124.344 2.81.033 5.633.071 8.438-.126 2.271-.158 4.544-.486 6.812-.687 3.359-.297 6.674-.581 10-1.156 11.11-1.923 21.887-5.466 31.969-10.5 2.528-1.032 3.306-5.018 1.719-8.907-1.19-2.916-3.359-4.945-5.438-5.343z" opacity=".999071"/><path d="m395.064 300.921-64.377 25.7-61.538 7.864-40.347 4.105-46.876-9.892-39.116-56.072-12.165-90.417-4.119-91.073 70.473-17.8552 79.929.2991 27.329 68.1711 22.577 71.687 14.862 40.775 21.727 22.02z" opacity=".999071" stroke="#000" stroke-linecap="butt" stroke-linejoin="round" stroke-width="25.5157"/><path d="m109.906 62.6875c-1.084-.0721-2.182-.0783-3.25.1563-.889.1952-1.73.5129-2.5 1-3.654 2.3105-3.564 6.8267-3.812 10.6562-.103 1.5799-.268 3.1181-.6565 4.6562-.4766 1.8891-1.6768 3.5278-2.5313 5.25-1.3633 2.748-2.4856 5.5957-3.4687 8.5-3.3311 9.8408-4.8705 20.2108-6.2813 30.4688-2.245 16.325-2.8952 32.849-2.625 49.313.306 18.643 1.8323 37.289 4.4376 55.75 1.553 11.005 3.3757 22.028 6.0937 32.812 1.1389 4.519 2.6527 8.956 4.0313 13.406 2.0512 6.62 4.3252 13.139 7.3752 19.375 2.179 4.457 4.639 8.749 7.625 12.719 2.032 2.702 4.476 5.04 6.562 7.688 1.278 1.621 2.523 3.27 3.782 4.906 5.763 7.49 13.203 17.218 23.968 15.312 1.603-.283 3.033-.7 4.532-1.344 2.082-.894 3.888-2.134 5.656-3.531 1.798-2.133.594-6.076-2.688-8.843-2.382-2.01-5.162-2.799-7.218-2.282 1.047-.55 2.128-1.029 3.343-1.25.512-.093.985-.116 1.5-.094.143.007.296.012.438.032.069.009.257.072.187.062-.431-.059-.897-.431-1.25-.656-1.033-.659-1.976-1.452-2.875-2.281-3.409-3.145-6.315-6.824-9.281-10.375-1.105-1.323-2.201-2.644-3.375-3.906-1.081-1.163-2.291-2.215-3.375-3.376-1.428-1.529-2.735-3.155-3.969-4.843-3.593-4.916-6.528-10.239-9.281-15.657-2.775-5.461-5.427-10.973-7.406-16.781-2.06-6.044-4.227-12.068-6.156-18.156-1.641-5.175-3.086-10.43-4.438-15.687-5.5201-21.457-8.9433-43.536-10.5312-65.626-.6986-9.716-1.0233-19.478-.75-29.218.19-6.776.6038-13.527 1.7187-20.219 1.2126-7.279 2.8593-14.5567 5.5625-21.4375.8064-2.0528 1.734-4.0894 2.781-6.0313 1.006-1.8655 1.884-3.5289 2.313-5.625.474-2.3198.469-4.6802.656-7.0312.041-.5225.107-1.1669.188-1.6875.073-.4749.17-.8557.312-1.3125.481-1.5519 1.098-1.3972 2.781-1.2812.633.3329 1.582-.2133 2.094-1.1876.512-.9742.414-2.0107-.219-2.3437z" opacity=".999071"/><path d="m97.7812 49.125c-6.765 1.0328-13.3673 2.7924-19.5312 5.8125-4.5045 2.207-8.6999 5.0221-12.4062 8.4063-2.6557 2.4247-5.0607 5.1488-7.125 8.0937-6.1075 8.7126-9.0449 19.2554-9.5313 29.8125-.2191 4.756.1251 9.483.5313 14.219.3478 4.057.7658 8.118 1.5 12.125.9645 5.265 2.332 10.444 3.7812 15.594 2.4775 8.803 5.4713 17.464 8.75 26 7.5095 19.549 16.6018 38.542 26.5938 56.937 3.2804 6.039 6.6523 12.007 10.1252 17.937 1.381 2.36 2.814 4.7 4.187 7.063 1.843 3.171 3.575 6.415 5.406 9.594 4.339 7.53 8.85 14.946 13.657 22.187 3.458 5.21 7.056 10.382 11.062 15.188.478.68 1.703.609 2.75-.125 1.047-.735 1.509-1.882 1.031-2.563-6.701-8.038-12.383-16.937-17.843-25.844-2.811-4.583-5.532-9.231-8.188-13.906-1.299-2.287-2.633-4.57-3.843-6.906-1.769-3.414-3.394-6.897-5.032-10.375-3.7105-7.88-7.2069-15.855-10.531-23.906-6.4104-15.526-12.1553-31.338-16.75-47.5-3.3939-11.939-6.2164-24.083-7.7812-36.407-.5174-4.074-.877-8.158-1.2188-12.25-.2782-3.33-.5297-6.622-.5312-9.968-.0019-3.93.3927-7.863.9374-11.7502.4251-3.0334.9616-6.0773 1.7813-9.0313 1.834-6.6094 5.0031-13.4499 11.0625-17.1563 3.8412-2.3495 8.3059-3.281 12.7188-3.8437 3.1302.7951 6.6832-2.4654 7.9062-7.2813 1.223-4.8158-.338-9.3611-3.4688-10.1562z" opacity=".999071"/><path d="m62.1875 108.438c-.4722-.117-1.0687-.112-1.6563.093-1.175.41-1.8911 1.361-1.625 2.125.6325 8.567 1.3876 17.126 2.4063 25.656.3344 2.801.6759 5.613 1.0625 8.407.2881 2.082.6717 4.161.9062 6.25 1.1754 10.466 2.3793 20.904 4.2188 31.281 2.5937 14.631 6.1315 29.048 10.5938 43.219 1.4572 4.628 3.0537 9.224 4.7187 13.781 1.1887 3.254 2.3596 6.526 3.7813 9.688 1.1405 2.536 2.4985 4.969 3.6562 7.5 1.1693 2.555 2.2728 5.141 3.5312 7.656 1.4241 2.845 3.0167 5.63 4.625 8.375 5.8728 10.023 12.6968 19.401 19.9378 28.469 2.388 3.402 8.578 3.174 13.812-.5 5.234-3.675 7.545-9.411 5.156-12.813-4.669-5.346-9.21-10.804-13.531-16.437-3.773-4.92-7.308-10.003-10.843-15.094-2.126-3.061-4.38-6.06-6.407-9.188-1.837-2.835-3.37-5.817-5.093-8.718-3.5819-6.03-7.0852-12.096-10.2192-18.376-6.8516-13.727-12.2635-28.188-16.6563-42.874-2.722-9.101-5.1844-18.328-7-27.657-.8657-4.448-1.319-9.005-1.875-13.5-1.0933-8.838-1.8757-17.713-2.5313-26.593-.1331-.382-.4965-.634-.9687-.75z" opacity=".999071"/><path d="m75.6875 77.9688c-.4643-.1296-1.0366-.1224-1.625.0624-1.1768.3697-1.9278 1.2976-1.6875 2.0626.1261 8.7217.4743 17.4325 1.2188 26.1252.429 5.009 1.1039 10.001 1.625 15 .3752 3.599.5996 7.211.9687 10.812.736 7.182 1.5901 14.328 2.6563 21.469 2.2897 15.336 5.3554 30.561 8.75 45.688 1.5887 7.079 3.1714 14.181 4.9374 21.218.9678 3.857 2.2572 7.607 3.3126 11.438.7759 2.817 1.4441 5.651 2.2187 8.468.9602 3.493 2.0095 6.983 3.0935 10.438 3.482 11.091 7.418 22.027 11.25 33 1.871 3.703 7.991 4.378 13.688 1.5s8.808-8.203 6.937-11.906c-5.047-12.687-10.04-25.411-15.25-38.032-1.627-3.941-3.532-7.747-5.156-11.687-1.487-3.609-2.713-7.336-4.219-10.937-2.577-6.166-5.194-12.293-7.594-18.532-5.7724-15.006-10.7325-30.34-14.8745-45.875-1.8021-6.759-3.4563-13.556-4.875-20.406-.5682-2.744-1.1755-5.51-1.5937-8.281-.6371-4.222-1.0176-8.5-1.4063-12.75-.8546-9.3452-1.3019-18.7124-1.4375-28.094-.1201-.3825-.4732-.6517-.9375-.7812z" opacity=".999071"/><path d="m90.5625 71c-.4617-.1335-1.0366-.1162-1.625.0625-1.1769.3575-1.9511 1.2663-1.7187 2.0313-.0198 6.5267-.0183 13.0363.0937 19.5624.0658 3.8344.2812 7.6968.3125 11.5318.0229 2.804-.1559 5.602-.2188 8.406-.1012 4.516-.1828 9.045-.2187 13.562-.1036 13.05.1937 26.089.75 39.125.2672 6.263.4804 12.537 1.0313 18.781.247 2.801.7798 5.578 1.0624 8.376.2857 2.827.4848 5.651.875 8.468 1.5257 11.016 4.0898 21.863 6.9688 32.594 1.7522 3.743 7.836 4.602 13.594 1.906s9.002-7.913 7.25-11.656c-3.172-9.661-5.915-19.439-8.688-29.219-.875-3.085-1.924-6.107-2.812-9.187-.601-2.082-.982-4.206-1.469-6.313-.604-2.61-1.395-5.164-2.094-7.75-.84-3.11-1.636-6.239-2.375-9.375-2.7224-11.553-4.7462-23.291-6.4685-35.031-1.0951-7.465-2.1168-14.954-2.8125-22.469-.3512-3.793-.2946-7.6305-.375-11.4372-.1489-7.0536-.1464-14.1329-.125-21.1876-.1162-.3824-.4758-.6477-.9375-.7812z" opacity=".999071"/><path d="m88.4375 56.5312c-5.6619.4932-10.008 3.8511-9.6875 7.5313-3.0812 10.0661-5.5751 20.3348-6.75 30.8125-.2698 2.4064-.4789 4.8291-.5625 7.25-.081 2.345-.0285 4.686-.0313 7.031-.0026 2.329-.1336 4.672-.0624 7 .0862 2.822.4364 5.638.7812 8.438.4083 3.314.8829 6.618 1.4688 9.906 2.6354 14.791 7.0062 29.172 12.4687 43.156 1.6774 4.294 3.4408 8.541 5.25 12.782.9242 2.166 1.9495 4.308 2.8125 6.5 1.3282 3.372 2.5208 6.799 3.8125 10.187 2.6905 7.057 5.4755 14.101 8.2505 21.125.38.738 1.583.867 2.718.281 1.136-.585 1.756-1.668 1.375-2.406-2.772-7.017-5.531-14.044-8.219-21.094-1.286-3.373-2.6646-6.732-3.812-10.156-.9422-2.811-1.6628-5.702-2.4375-8.563-1.2149-4.486-2.3204-8.997-3.3437-13.531-3.0688-13.594-5.2396-27.447-5.4688-41.406-.1011-6.156.3369-12.251.9062-18.375.2588-2.783.3304-5.605.7188-8.375.4843-3.454 1.2756-6.8582 1.9375-10.2812 2.1078-10.9002 5.0199-21.5961 8.7187-32.0626-.3205-3.6802-5.1818-6.2431-10.8437-5.75z" opacity=".999071"/><path d="m88.6875 95.8125c-1.4017.136-2.8799.4718-4.3437 1.0313-5.8556 2.2378-9.4234 7.1312-7.9688 10.9372 1.3398 7.985 1.9523 15.993 2.5 24.063.1728 2.546.5478 5.08.7188 7.625.1466 2.183-.0137 4.38.0937 6.562.2132 4.332.5961 8.667.8125 13 .438 8.772.7167 17.53 1.5 26.281.4692 5.242 1.1892 10.478 2.125 15.657.3899 2.157.9242 4.281 1.3125 6.437.5547 3.081 1.0185 6.164 1.7187 9.219 1.2201 5.323 2.8921 10.491 4.9063 15.563.3811.737 1.6148.836 2.75.25 1.1352-.587 1.7561-1.638 1.375-2.376-2.4648-6.206-4.4046-12.561-5.6563-19.124-.3265-1.713-.6531-3.454-.8437-5.188-.2433-2.213-.2297-4.463-.25-6.688-.0411-4.507.162-9.037.5-13.531.7588-10.087 2.1857-20.119 3.8437-30.093.6965-4.19 1.5012-8.341 2.1876-12.532.4508-2.753.5537-5.553.9374-8.312.3936-2.83.8645-5.618 1.0938-8.469.7093-8.818.4808-17.644-.4062-26.4375-1.091-2.8546-4.7011-4.2831-8.9063-3.875z" opacity=".999071"/><path d="m82.25 67.1875c-.4574-.1399-1.0367-.1376-1.625.0313-1.1765.3376-1.9695 1.2352-1.75 2-.219 7.1044-.7256 14.1754-1.4062 21.25-.3009 3.1272-.5242 6.2958-.9688 9.4062-.3864 2.704-.9496 5.375-1.4375 8.063-1.0938 6.024-2.2578 12.062-3.3125 18.093-2.048 11.713-3.7275 23.464-4.75 35.313-.4404 5.103-.8362 10.281-.8438 15.406-.0041 2.817.3557 5.599.5313 8.406.1424 2.278.2135 4.54.4375 6.813.3326 3.375.905 6.756 1.6562 10.062 1.9141 8.423 4.9799 16.49 8.875 24.188 2.0969 3.6 8.2739 3.882 13.8126.656 5.5386-3.226 8.3155-8.744 6.2187-12.344-2.8942-4.983-5.3891-10.185-7.4687-15.562-1.4778-3.821-2.7183-7.729-3.875-11.657-.8603-2.92-1.8186-5.811-2.5-8.781-.5756-2.508-.8525-5.064-1.3126-7.593-.9229-5.075-1.7255-10.14-2.1874-15.282-1.0369-11.541-.8761-23.151-.5-34.718.1712-5.269.3838-10.547.625-15.813.0954-2.084.121-4.17.2812-6.25.3228-4.1916.899-8.3745 1.2812-12.5625.5561-6.0919.9366-12.1985 1.125-18.3125-.1097-.3824-.4488-.6726-.9062-.8125z" opacity=".999071"/><path d="m73.9375 71.5625c-2.4507-.3753-5.4218.0376-8.3125 1.3437-5.7813 2.6124-9.0731 7.7734-7.375 11.5313 2.4598 8.1851 4.1341 16.4855 5.7188 24.8745.4944 2.618 1.1626 5.228 1.6562 7.844.504 2.672.6623 5.358 1.1562 8.032.8172 4.422 1.648 8.847 2.4063 13.281 1.4578 8.524 2.9178 17.04 4.875 25.469 1.7838 7.681 4.2247 15.131 7.0937 22.468 1.2185 3.116 2.1787 6.314 3.4688 9.406 2.3129 5.544 5.1345 10.796 8.2812 15.907.4363.71 1.6886.765 2.7813.093 1.0927-.671 1.6238-1.789 1.1875-2.5-4.5266-7.351-8.5803-15.302-11.0938-23.593-.6788-2.24-1.0597-4.575-1.4687-6.875-.8181-4.601-1.3626-9.248-1.7187-13.906-.8232-10.769-.6879-21.592-.2188-32.376.188-4.32.4855-8.647.6562-12.968.1129-2.854-.1504-5.679-.0937-8.532.0582-2.927.2126-5.852.0937-8.781-.374-9.2188-1.7636-18.3327-3.8437-27.3122-.849-1.879-2.7993-3.031-5.25-3.4063z" opacity=".999071"/><g fill="#1c1c1c"><path d="m265.969 35.7188c-3.397-.1119-6.795.054-10.188.1874-4.084.1606-8.17.3671-12.25.625-14.788.9351-29.524 2.3963-44.281 3.7188-5.214.4673-10.433.8661-15.656 1.2188-3.18.2146-6.375.4931-9.563.5312-3.036.0363-6.123-.1144-9.156-.25-8.658-.387-17.23-1.3132-25.75-2.9062-.717-.4736-1.865.0525-2.594 1.1562-.728 1.1037-.748 2.3702-.031 2.8438 6.918 1.2935 13.852 2.1799 20.875 2.6562 4.915.3334 9.831.3625 14.75.5625 2.46.1 4.947.3414 7.406.4687 4.993.2587 9.973.477 14.969.6563 14.443.5183 28.906.7234 43.312 1.9687 5.976.5166 11.885 1.3281 17.813 2.2188 2.902.4361 5.836.6466 8.719 1.2188 3.295.654 6.552 1.5711 9.812 2.375 10.516 2.5923 20.696 6.0466 30.094 11.5 3.28 3.2564 9.99 1.7967 15-3.25 5.01-5.0468 6.437-11.7748 3.156-15.0313-11.422-5.832-23.783-9.5166-36.5-11.1563-3.992-.5148-7.983-.655-12-.8437-2.642-.1241-5.295-.3817-7.937-.4687z" opacity=".999071"/><path d="m169.344 29.3438c-2.637.0808-5.257.226-7.875.4687-8.461.7845-16.734 2.5148-24.657 5.625-3.177.6116-5.003 5.0809-4.062 9.9687.941 4.8879 4.292 8.3304 7.469 7.7188 6.357-2.8398 13.321-4.0102 20.187-4.875 3.158-.3978 6.334-.7386 9.5-1.0625 2.33-.2383 4.632-.5567 6.969-.7187 2.999-.2079 6.029-.0889 9.031-.2188 5.822-.252 11.609-.4654 17.438-.4375 12.652.0606 25.296.8011 37.906 1.7813 8.224.6392 16.498 1.2508 24.688 2.25 3.928.4792 7.821 1.3141 11.718 2 7.108 1.2511 14.226 2.5257 21.344 3.7187.72.4601 1.855-.0489 2.562-1.1563.708-1.1073.72-2.3836 0-2.8437-7.107-1.1911-14.215-2.4696-21.312-3.7187-3.891-.6849-7.83-1.2387-11.688-2.0938-8.245-1.8279-16.41-3.9469-24.656-5.7812-11.787-2.6223-23.633-4.9365-35.531-7-3.697-.6413-7.416-1.2438-11.125-1.8126-1.833-.281-3.653-.5458-5.5-.7187-2.46-.2302-4.943-.2716-7.406-.4687-2.364-.1893-4.724-.443-7.094-.5626-2.628-.1325-5.27-.1433-7.906-.0624z" opacity=".999071"/><path d="m270 32.2188c-6.125-.0943-12.286.1798-18.406.4062-11.623.43-23.214 1.3016-34.782 2.5-5.802.6011-11.61 1.3741-17.406 2.0312-3.404.3861-6.833.4665-10.25.7188-6.26.4622-12.503 1.0414-18.75 1.6562-.726-.2281-1.617.4771-1.968 1.5938-.352 1.1167-.039 2.2093.687 2.4375 6.2-.6103 12.412-1.1662 18.625-1.625 2.886-.2131 5.764-.4815 8.656-.5937 2.42-.0939 4.862.0325 7.282.0937 4.457.1127 8.923.3341 13.374.5937 10.001.5835 19.971 1.4756 29.876 3 4.764.7333 9.478 1.7402 14.187 2.75 2.311.4956 4.639.7585 6.937 1.3126 2.61.6288 5.188 1.4644 7.782 2.1562 8.299 2.2137 16.42 4.6694 24.218 8.3125 3.39 3.0313 9.931 1.2766 14.594-3.9375 4.664-5.2141 5.702-11.9062 2.313-14.9375-8.973-3.4974-18.293-5.8616-27.844-7.125-3.713-.4911-7.391-.6143-11.125-.8125-2.668-.1416-5.326-.4901-8-.5312z" opacity=".999071"/><path d="m220.656 28.7188c-7.862-.3397-15.748.248-23.562 1.0624-3.605-.9347-7.687 2.7975-9.125 8.3438s.301 10.8153 3.906 11.75c7.195-1.229 14.418-2.1089 21.656-3.0312 2.348-.2993 4.679-.7709 7.031-1.0313 1.939-.2146 3.904-.1731 5.844-.375 3.659-.3807 7.296-.8007 10.969-1.0313 9.402-.59 18.865-.3813 28.25.375 5.264.4243 10.587.926 15.781 1.9063 2.641.4984 5.226 1.432 7.782 2.25 4.699 1.5042 9.326 3.2148 13.874 5.125.68.6029 1.979.2637 2.907-.7813.927-1.0449 1.117-2.397.437-3-4.275-1.7954-8.591-3.4324-13-4.875-2.975-.9734-6.055-1.6994-9-2.75-5.082-1.8128-10.132-3.6627-15.312-5.1874-7.875-2.3178-15.875-4.131-23.938-5.6563-2.305-.4362-4.625-.8508-6.937-1.25-1.923-.332-3.838-.7105-5.781-.9063-1.593-.1604-3.187-.1398-4.782-.2812-2.337-.2072-4.652-.5548-7-.6562z" opacity=".999071"/><path d="m273.75 41.8125c-6.151-.0049-12.29.0873-18.438.3125-3.973.1456-7.908.5264-11.874.7812-3.235.2079-6.486.1763-9.719.4063-7.232.5145-14.466 1.2659-21.688 1.9063-14.929 1.3237-29.846 2.6866-44.75 4.2812-5.809.6215-11.602 1.2752-17.406 1.9375-2.568.293-5.143.6531-7.719.875-4.404.3795-8.84.591-13.25.9063-7.569.5412-15.123 1.133-22.687 1.75-.728-.2454-1.623.4746-2 1.5937-.378 1.1191-.103 2.2234.625 2.4687 8.172-.6665 16.351-1.3371 24.531-1.9062 3.77-.2623 7.537-.5846 11.313-.75 3.072-.1346 6.175-.0861 9.25-.0938 5.523-.0138 11.039.0463 16.562.125 14.062.2006 28.146.5277 42.188 1.3438 6.058.3521 12.101.8824 18.156 1.2812 3.077.2028 6.142.1533 9.218.375 3.625.2613 7.248.6975 10.876.9376 11.757.778 23.519 1.287 35.281 2 3.65 1.7925 8.867-1.2906 11.625-6.9063 2.757-5.6157 2.025-11.6137-1.625-13.4063-6.149-.1046-12.318-.2138-18.469-.2187z" opacity=".999071"/><path d="m308.125 53.6875c-.803-.0758-1.59.044-2.281.4063-5.02 2.9896-10.206 5.529-15.688 7.5624-6.822 2.5309-13.958 4.2466-21.094 5.625-3.058.5909-6.1 1.2572-9.187 1.6876-2.797.3899-5.595.5246-8.406.75-2.563.2054-5.124.4306-7.688.625-19.756 1.4981-39.67.1947-59.375-1.4376-10.208-.8455-20.421-1.7599-30.625-2.6562-3.079-.2705-6.173-.4792-9.25-.7812-5.883-.5776-11.737-1.415-17.625-1.9688-8.406-.7907-16.807-1.2634-25.25-1.3438-.73-.3327-1.7379.3135-2.2498 1.4376-.5118 1.124-.3556 2.3235.375 2.6562 10.4868.0998 20.9198.8292 31.3438 1.9688 3.658.3999 7.365.7357 11 1.3124 2.541.4032 5.065.9286 7.594 1.4063 5.507 1.0406 11.005 2.1448 16.5 3.25 17.911 3.6032 35.838 7.0915 53.969 9.4063 7.116.9086 14.296 1.7137 21.468 2 4.217.1682 8.442-.0698 12.656-.1876 3.043-.085 6.09-.1328 9.126-.375 8.615-.6872 17.16-2.3786 25.437-4.8437 8.749-2.6057 17.085-6.2676 25.063-10.6875 2.764-1.4491 3.198-6.0589.968-10.3125-1.672-3.1902-4.371-5.2725-6.781-5.5z" opacity=".999071"/><path d="m292.062 29.3125c-2.079-.0366-4.167.037-6.25.0937-5.224.1425-10.429.4971-15.624 1.0626-6.684.7272-13.335 1.7019-19.938 2.9687-3.992.7659-7.949 1.7324-11.938 2.5-2.548.4903-5.16.8093-7.718 1.25-4.644.7998-9.241 1.715-13.844 2.7187-.705-.0991-1.41.6961-1.562 1.7813-.153 1.0852.294 2.0571 1 2.1563 4.922-1.0735 9.874-2.0722 14.843-2.9063 2.076-.3483 4.154-.7437 6.25-.9375 1.62-.1498 3.281-.1715 4.907-.2188 3.214-.0933 6.441-.0795 9.656 0 7.861.1947 15.76.8089 23.468 2.4376 3.249.6864 6.404 1.654 9.563 2.6562 1.492.4733 3.031.7343 4.5 1.2812 1.871.6969 3.632 1.7157 5.437 2.5626 5.391 2.5277 10.505 5.5687 14.282 10.25 2.805 3.866 9.896 3.5029 15.844-.8126 5.947-4.3154 8.492-10.9464 5.687-14.8124-5.914-6.0349-13.588-9.999-21.781-11.9688-3.479-.8363-7.039-1.0146-10.563-1.5625-2.063-.3208-4.139-.4634-6.219-.5z" opacity=".999071"/><path d="m323.5 50.6562c-.806.0004-1.534.1996-2.188.625-5.699 3.808-10.837 8.2589-15.124 13.625-2.917 3.6498-5.164 7.6015-6.876 11.9376-.998 2.5307-2.213 4.9743-2.874 7.625-.802 3.2117-1.323 6.5015-1.75 9.7812-1.088 8.341-1.3 16.786-1.032 25.188.139 4.341.496 8.659.625 13 .076 2.533-.231 5.126-.375 7.656-.257 4.53-.529 9.038-.875 13.562.228.879 1.492 1.319 2.844.969s2.259-1.34 2.031-2.219c.32-4.183.603-8.374.844-12.562.146-2.541.21-5.122.438-7.656.17-1.903.596-3.778.937-5.657.556-3.062 1.178-6.116 1.844-9.156 2.166-9.885 4.851-19.7937 9.406-28.875 1.076-2.1462 2.375-4.1363 3.563-6.2188.607-1.0642 1.113-2.1757 1.812-3.1874.856-1.2385 1.873-2.3536 2.844-3.5 1.498-1.7697 3.031-3.5311 4.718-5.125 1.941-1.8324 4.161-3.3054 6.469-4.625 2.613-1.702 2.619-6.3555 0-10.375-1.964-3.0147-4.863-4.8137-7.281-4.8126z" opacity=".999071"/><path d="m321.688 60.5c-3.754-.0732-6.855 1.4276-7.626 4.0312-3.576 5.053-6.824 10.4302-8.687 16.375-.55 1.7542-.79 3.4779-1.094 5.2813-.197 1.1692-.564 2.3031-.781 3.4687-.308 1.6528-.243 3.3596-.25 5.0313-.007 1.6402.025 3.2675.094 4.9063.27 6.4262 1.081 12.8172 2.156 19.1562.537 3.165 1.269 6.317 1.688 9.5.287 2.191.177 4.452.187 6.656.015 3.357-.052 6.707-.125 10.063.258.88 1.552 1.271 2.906.875s2.258-1.433 2-2.313c.073-3.381.141-6.774.125-10.156-.01-2.238-.154-4.488.063-6.719.393-4.057 1.134-8.138 1.812-12.156 1.033-6.119 2.244-12.218 4.282-18.0938.903-2.6066 2.036-5.0759 3.218-7.5624.655-1.3772 1.068-2.8532 1.813-4.1876.509-.9134 1.134-1.7688 1.687-2.6562 1.268-2.0317 2.448-4.092 3.813-6.0625 1.369-1.9763 2.873-3.8641 4.437-5.6875 1.028-3.4715-2.471-7.5441-7.812-9.125-1.335-.3952-2.655-.6006-3.906-.625z" opacity=".999071"/><path d="m135.438 55.9062c-1.643-.0187-3.266.0819-4.907.125-5.976.1573-11.956.138-17.906.8126-13.3256 1.5107-26.6576 5.1375-38.4375 11.625-3.4844 1.9189-6.7566 4.1168-9.9375 6.5-2.2117 2.2765-1.1898 6.8785 2.3125 10.2812s8.132 4.3078 10.3437 2.0312c6.6679-5.3793 14.7718-8.4975 23-10.625 4.1588-1.0753 8.3418-1.9234 12.5628-2.7187 2.869-.5406 5.756-1.0922 8.656-1.4375 4.173-.4968 8.376-.6521 12.563-1 19.784-1.6439 39.768-.6176 59.468 1.5938 10.074 1.1307 20.11 2.554 30.094 4.3124 4.345.7652 8.73 1.4856 13.031 2.4688 5.051 1.1545 10.06 2.6721 15.031 4.125 8.789 2.5682 17.487 5.3844 26.063 8.5938.688.5818 1.98.2141 2.875-.8438s1.063-2.3869.375-2.9688c-8.99-3.3641-18.125-6.3279-27.344-9-4.674-1.355-9.425-2.5075-14.093-3.875-1.841-.5392-3.664-1.1318-5.5-1.6874-6.105-1.8471-12.242-3.6167-18.407-5.25-16.958-4.4928-34.178-8.0875-51.562-10.4688-5.342-.7318-10.692-1.3615-16.063-1.8438-4.059-.3644-8.141-.7034-12.218-.75z" opacity=".999071"/><path d="m56.625 92.6562c-.5372.1885-1.0864.6108-1.5312 1.1876-.8898 1.1534-.9998 2.5466-.25 3.125 9.3901 2.7069 18.8374 5.2362 28.375 7.3752 27.2172 6.104 54.8062 10.356 82.0312 16.437 8.954 2 17.767 4.647 26.625 7.031.151.113.421.014.594-.218s.182-.513.031-.625c-7.468-2.011-14.903-4.16-22.406-6.031-1.88-.469-3.775-.882-5.656-1.344-5.606-1.378-11.201-2.836-16.813-4.188-11.233-2.706-22.51-5.197-33.75-7.875-18.7206-4.459-37.3912-9.1696-55.8125-14.7498-.3749-.2891-.9003-.3134-1.4375-.125z" opacity=".999071"/><path d="m59.7188 110.188c-.7812-.338-1.8238.36-2.3438 1.562s-.3124 2.443.4688 2.781c27.5763-.415 55.0512 1.579 82.4372 4.688 6.641.754 13.313 1.491 19.938 2.375 8.33 1.111 16.642 2.329 24.969 3.468.154.094.387-.012.531-.25.144-.237.123-.531-.031-.624-8.325-1.14-16.657-2.24-24.969-3.469-7.378-1.091-14.72-2.352-22.094-3.469-17.347-2.628-34.773-5.043-52.2812-6.281-8.8641-.627-17.7418-.8-26.625-.781z" opacity=".999071"/><path d="m58.625 98.8125c-.4998.227-.9971.6892-1.375 1.2815-.7558 1.184-.7696 2.54 0 3.031 24.1775 3.83 47.967 9.541 71.812 15 4.857 1.112 9.736 2.176 14.594 3.281 7.017 1.597 14.032 3.172 21.094 4.563.153.102.405-.015.562-.25.158-.236.154-.523 0-.625-7.406-1.458-14.847-2.913-22.156-4.813-20.396-5.301-40.433-11.899-60.906-16.906-7.3554-1.799-14.7935-3.256-22.25-4.5625-.3848-.2456-.8752-.227-1.375 0z" opacity=".999071"/><path d="m65 99.0625c-.773-.4694-1.9967.092-2.7188 1.2815-.722 1.189-.6792 2.562.0938 3.031 40.028 5.245 78.915 17.218 119.125 21.281.155.088.396-.042.531-.281s.093-.506-.062-.594c-8.229-.831-16.475-1.83-24.594-3.437-22.813-4.517-45.028-11.558-67.6875-16.719-8.1716-1.861-16.3958-3.352-24.6875-4.5625z" opacity=".999071"/><path d="m282.062 65.0312c-17.673 6.451-36.717 7.1885-55.343 6.6876-21.007-.5651-41.916-3.0794-62.907-4-13.838-.607-27.678-.4791-41.374 1.75-.154-.0343-.292.1391-.344.375-.053.2358.003.4345.156.4687 10.755-1.7504 21.671-2.3438 32.562-1.9687 7.96.274 15.923 1.009 23.844 1.8124 12.091 1.2264 24.148 2.7291 36.25 3.8438 22.694 2.0903 45.748 2.66 67.532-5.0625.704-.0658 1.195-.9787 1.093-2.0625-.101-1.0838-.764-1.9095-1.469-1.8438z" opacity=".999071"/><path d="m249.812 85.8125c-5.582-.1072-11.173-.0753-16.75.0313-11.611.2219-23.197.9069-34.75 2.0937-8.642.8879-17.239 1.9497-25.781 3.5625-.152-.0281-.3.1408-.343.375-.044.2342.035.4406.187.4688 8.049-1.5199 16.185-2.6671 24.344-3.4063 4.873-.4415 9.767-.647 14.656-.8125 9.22-.3121 18.439-.2709 27.656.0938 10.839.4287 21.683 1.3488 32.438 2.75 8.479 1.1046 16.887 2.5017 25.219 4.4374.761.533 2.055.0154 2.874-1.1562.82-1.1715.856-2.5608.094-3.0938-16.391-3.5591-33.095-5.022-49.844-5.3437z" opacity=".999071"/><path d="m226.156 96.4375c-11.376-.1701-22.762.0857-34.125.6563-9.683.4861-19.294 1.2335-28.906 2.5312-.154-.0406-.344.1064-.406.3438-.063.2372.033.4592.187.5002 9.553-1.2901 19.176-2.194 28.813-2.5315 7.568-.2651 15.15-.1535 22.719.0313 15.418.3764 30.797 1.6004 46.124 3.2812 15.116 1.658 30.199 3.513 45.25 5.688.774.469 1.998-.124 2.719-1.313.722-1.189.679-2.531-.093-3-9.682-1.278-19.369-2.442-29.094-3.3438-17.68-1.6387-35.435-2.5783-53.188-2.8437z" opacity=".999071"/><path d="m298.719 94.4375c-19.892 5.6775-40.576 6.5065-61.125 5.7815-19.974-.7057-39.856-2.9066-59.782-4.344-3.152-.2274-6.313-.5153-9.468-.6875-3.125-.1706-6.248-.2293-9.375-.3437-18.779-.6872-37.415-.2123-55.813 3.9687-.15-.019-.283.1437-.312.375s.068.4498.218.4687c12.778-2.9038 25.815-4.1372 38.907-4.2187 6.15-.0383 12.302.4065 18.437.7813 19.735 1.2054 39.334 3.9672 59 5.9372 15.651 1.569 31.431 2.607 47.156 1.625 10.821-.675 21.549-2.353 32-5.2498.736.0297 1.361-.8691 1.407-2 .045-1.1308-.515-2.0641-1.25-2.0937z" opacity=".999071"/><path d="m178.812 88.4688c-.155-.0879-.396.011-.531.25-.135.2389-.124.5059.031.5937 4.764.484 9.518.9848 14.282 1.4687 2.166.2202 4.359.5047 6.531.6563 2.606.1819 5.234.2288 7.844.375 4.328.2424 8.638.5389 12.969.7187 5.21.2164 10.443.2648 15.656.4063 22.422.6085 44.891.8753 67.187 3.5625.776.449 1.966-.1506 2.657-1.3438.69-1.1931.619-2.5196-.157-2.9687-8.742-.9305-17.521-1.5053-26.312-1.6875-19.451-.4032-38.894.6335-58.344.5625-3.957-.0144-7.919-.1366-11.875-.2187-3.058-.0636-6.135-.0682-9.188-.2813-2.595-.1812-5.192-.5182-7.781-.7813-4.33-.4399-8.638-.8725-12.969-1.3124z" opacity=".999071"/><path d="m244.438 58.6875c-4.832.0909-9.655.261-14.469.4687-13.898.5997-27.752 1.7545-41.594 3.0938-8.162.7897-16.281 1.6312-24.406 2.75-.154-.04-.345.1066-.407.3438-.061.2371.003.4599.157.5 24.336-3.3512 48.972-4.5998 73.531-4.1563 7.97.1439 15.925.463 23.875 1.0313 7.995.5714 15.987 1.3974 23.875 2.8437.768.498 2.015-.0677 2.781-1.25s.737-2.5332-.031-3.0313c-14.301-2.4067-28.819-2.8665-43.312-2.5937z" opacity=".999071"/><path d="m249.125 65.75c-20.152.6722-40.112 3.8866-60.25 4.8125-3.287.1511-6.583.2887-9.875.2813-8-.0183-15.999-.7858-23.875-2.1563-.154-.0993-.41.0135-.563.25-.152.2365-.122.5257.032.625 11.18 1.9453 22.454 2.3272 33.781 2.25 27.708-.1888 55.439-4.2697 83.094-.7813.775.4533 1.99-.1513 2.687-1.3437.698-1.1924.619-2.5155-.156-2.9687-8.263-.9181-16.565-1.246-24.875-.9688z" opacity=".999071"/><path d="m167.531 51.4062c-7.298.0635-14.59.2819-21.875.6563-9.345.4803-18.654 1.3291-27.937 2.5-7.98 1.0065-15.893 2.2375-23.7502 3.9687-.1508-.0206-.2808.1432-.3126.375-.0317.2319.0681.4481.2188.4688 7.788-1.7159 15.66-3.0986 23.594-3.9375 6.174-.6528 12.392-.9767 18.593-1.2187 12.588-.4914 25.209-.2219 37.782.5 12.482.7166 24.956 1.6192 37.406 2.7812.778.4258 1.939-.2095 2.594-1.4062.655-1.1968.528-2.5117-.25-2.9376-8.05-.6335-16.086-1.182-24.156-1.4687-7.291-.2589-14.609-.3447-21.907-.2813z" opacity=".999071"/><path d="m155.844 31.75c-6.516-.2089-13.106.9962-19.375 2.6562-2.887.7644-5.763 1.546-8.594 2.5-14.14 4.765-27.656 11.0842-40.9062 17.9063-6.0114 3.0952-12.0503 6.1645-17.9688 9.4375-.1208.0575-.1197.2517-.0312.4375.0884.1858.2542.3075.375.25 5.5855-3.0889 11.2093-6.1195 16.9374-8.9375 5.5886-2.7493 11.3368-5.222 17.0938-7.5938 8.671-3.572 17.508-6.7487 26.594-9.0937 4.876-1.2585 9.775-2.3074 14.781-2.9063 4.888-.5846 9.853-.72 14.688.3126.764.5179 2.015-.0111 2.812-1.1876.797-1.1764.827-2.5445.062-3.0624-2.145-.4156-4.296-.6492-6.468-.7188z" opacity=".999071"/><path d="m149.031 39.9062c-5.243 1.0076-10.487 2.1298-15.625 3.5938-14.377 4.0965-28.177 9.8418-41.7185 16.125-4.7447 2.2015-9.4945 4.3761-14.1875 6.6875-.1276.0443-.1932.2411-.125.4375s.2473.3256.375.2812c4.6633-2.2966 9.3371-4.6274 14.125-6.6562 18.043-7.6455 37.013-12.9179 56.313-16.2188.762.1493 1.551-.7015 1.781-1.875.229-1.1734-.175-2.2257-.938-2.375z" opacity=".999071"/><path d="m148.188 38.5c-.398-.0224-.791.0582-1.126.25-3.65 2.2891-7.404 4.3434-11.218 6.3438-2.798 1.467-5.55 2.9661-8.406 4.3124-2.5 1.1781-4.967 2.4803-7.469 3.6563-5.634 2.6478-11.354 5.064-17.094 7.4687-3.607 1.5111-7.2253 3.0951-10.875 4.5-1.9922.767-4.0235 1.4302-6.0312 2.1563-2.8952 1.047-5.7841 2.1108-8.6563 3.2187-.3205.0451-.5067.507-.4375 1 .0692.4931.3983.8575.7188.8126 4.8165-1.858 9.64-3.7819 14.5624-5.3438 3.6083-1.1449 7.2926-2.0727 10.9378-3.0938 5.884-1.6483 11.767-3.3234 17.625-5.0624 2.666-.7915 5.38-1.5008 8-2.4376 1.056-.3776 2.099-.8128 3.156-1.1874 1.574-.5578 3.166-1.0693 4.719-1.6876 5.093-2.0278 9.988-4.4785 14.75-7.1874 1.338-.7674 1.461-3.0668.281-5.125-.885-1.5437-2.244-2.5267-3.437-2.5938z" opacity=".999071"/><path d="m140.062 35.4375c-5.042.8846-10.019 2.188-14.812 4-1.501.5675-2.942 1.2244-4.406 1.875-1.454.6456-2.917 1.2007-4.344 1.9063-7.565 3.7388-14.903 7.9981-22.0938 12.4062-2.5967 1.5919-5.1317 3.2884-7.75 4.8438-4.0784 2.4227-8.3234 4.6301-12.4687 6.9374-.2784.1347-.3322.603-.125 1.0313s.5966.6659.875.5313c4.1358-2.302 8.2148-4.7678 12.4375-6.9063 3.1057-1.5728 6.3445-2.9452 9.5312-4.3437 4.9988-2.1936 10.0468-4.3085 15.2188-6.0626 2.247-.762 4.528-1.3576 6.781-2.0937 2.161-.706 4.326-1.2603 6.532-1.8125 4.041-1.0117 8.08-1.9008 12.218-2.4062 1.778.4286 3.778-1.4206 4.438-4.1563.659-2.7357-.253-5.3214-2.032-5.75z" opacity=".999071"/><path d="m170.688 45.9375c-7.407-.2717-14.846.1709-22.219.8437-1.792-.5363-3.894 1.2428-4.719 4-.825 2.7573-.042 5.4324 1.75 5.9688 6.777-.8625 13.562-1.3649 20.375-1.8438 2.145-.1507 4.29-.3695 6.437-.4687 1.782-.0823 3.563-.0592 5.344-.125 3.612-.1334 7.198-.2796 10.813-.3125 7.934-.0723 15.887.2138 23.812.5625 5.457.2401 10.929.3886 16.375.8125 2.868.2232 5.731.5916 8.594.875 3.989.3947 7.976.7393 11.969 1.0938.36.198.914-.1028 1.219-.6563.304-.5535.266-1.1769-.094-1.375-4.705-.4176-9.425-.8161-14.125-1.2813-2.142-.2119-4.272-.3798-6.407-.6562-4.49-.5816-8.964-1.4223-13.437-2.125-11.628-1.8265-23.333-3.6419-35.063-4.6875-1.769-.1578-3.54-.1672-5.312-.2813-1.774-.1141-3.536-.2785-5.312-.3437z" opacity=".999071"/><path d="m302.25 85.0625c-.705.0524-1.447.2046-2.188.4687-2.962 1.0566-4.811 3.4494-4.124 5.375.739 6.7689.842 13.5448.781 20.3438-.019 2.1.047 4.213-.031 6.312-.068 1.81-.263 3.597-.344 5.407-.498 11.153-1.879 22.204-3.875 33.187-.904 4.973-1.77 10.033-3.125 14.906-1.787 6.425-3.96 12.765-6.313 19 .019.367.467.623 1.031.594.565-.029 1.019-.321 1-.687 1.625-4.305 3.118-8.675 4.5-13.063.749-2.375 1.42-4.756 2.188-7.125 2.987-9.217 5.756-18.477 8.125-27.875 1.737-6.892 3.332-13.852 4.625-20.844.347-1.878.539-3.766.812-5.656.379-2.61.841-5.217 1.094-7.844.657-6.811.745-13.6418.282-20.4682-.516-1.4443-2.324-2.1886-4.438-2.0313z" opacity=".999071"/><path d="m308.469 99c-.699.0255-1.446.1728-2.188.4062-2.969.9338-4.857 3.2268-4.25 5.1558.235 5.899-.009 11.768-.343 17.657-.097 1.692-.143 3.378-.344 5.062-.135 1.132-.336 2.275-.469 3.407-.327 2.789-.634 5.57-1.094 8.343-1.023 6.175-2.476 12.253-4.031 18.313-1.01 3.935-2.021 7.879-3.156 11.781-.84 2.884-1.891 5.715-2.844 8.563-.969 2.896-1.878 5.81-2.812 8.718.034.372.521.647 1.093.594.573-.053 1.004-.409.969-.781 1.852-5.763 3.575-11.599 5.75-17.25 1.32-3.43 2.749-6.83 4.094-10.25 4.938-12.562 9.652-25.348 12.25-38.625 1.216-6.216 1.635-12.585 1.687-18.906-.455-1.4478-2.216-2.2645-4.312-2.188z" opacity=".999071"/><path d="m317.062 109.625c-.695.014-1.414.123-2.156.344-2.969.881-4.916 3.164-4.344 5.093.054 6.098-.453 12.112-1.218 18.157-.223 1.758-.386 3.508-.719 5.25-.225 1.177-.537 2.358-.781 3.531-.605 2.907-1.218 5.79-2 8.656-1.752 6.418-4.057 12.682-6.625 18.813-1.658 3.957-3.387 7.883-5.313 11.719-1.125 2.241-2.383 4.415-3.625 6.593-1.863 3.269-3.776 6.509-5.687 9.75-.042.338.324.686.844.75.519.064.989-.162 1.031-.5 3.205-5.436 6.235-10.971 9.437-16.406 1.979-3.359 4.027-6.694 5.938-10.094 7.053-12.55 13.334-25.808 16.875-39.812 1.622-6.416 2.352-12.994 2.593-19.594-.429-1.447-2.163-2.292-4.25-2.25z" opacity=".999071"/><path d="m289.562 93.125c-.746-.0321-1.513-.0005-2.25.125-1.243.2119-2.386.6447-3.531 1.1562-1.31.4507-1.818 2.4527-1.125 4.4688.694 2.016 2.346 3.294 3.656 2.844.105-.171-.475.084-.593.093.47-.117 1.795.276 2.093.376.593.197 1.238.35 1.813.593.415.175.768.46 1.156.688.666.39 1.389.685 2.063 1.062 2.948 1.652 5.581 3.821 8.094 6.063 1.192 1.064 2.461 2.157 3.468 3.406 1.296 1.606 2.379 3.451 3.5 5.188.224.356.827.374 1.375.031.548-.344.817-.925.594-1.281-1.415-2.191-3.035-4.274-4.219-6.594-.754-1.479-1.472-3.001-2.25-4.469-1.064-2.008-2.196-3.952-3.406-5.875-.579-.92-1.135-1.8753-1.781-2.75-.479-.6478-1.104-1.1103-1.657-1.6875-.504-.5262-.482-.6113-1.031-1.0937-1.613-1.4196-3.83-2.2517-5.969-2.3438z" opacity=".999071"/><path d="m282.375 86.5938c-1.258.0592-2.692.559-4 1.5-2.617 1.8819-3.755 4.7677-2.531 6.4687 1.486 1.5017 3.018 3.0011 4.625 4.375.842.7201 1.763 1.3445 2.656 2.0005.897.658 1.748 1.357 2.656 2 3.634 2.572 7.208 5.168 10.469 8.218 1.116 1.044 2.362 2.148 3.281 3.375.603.805 1.059 1.737 1.531 2.625.698 1.31 1.277 2.619 1.813 4 .191.373.801.45 1.375.156.574-.293.879-.845.688-1.218-.552-1.418-1.128-2.781-1.844-4.125-.485-.911-1.076-1.747-1.563-2.657-1.267-2.364-2.323-4.837-3.687-7.156-2.476-4.208-5.071-8.3389-7.813-12.3748-1.422-2.0934-3.131-4.0371-4.687-6.0312-.612-.8505-1.711-1.2155-2.969-1.1562z" opacity=".999071"/><path d="m270.031 92.2812c-1.242.1323-2.634.7419-3.875 1.75-2.481 2.0164-3.435 4.9497-2.125 6.5628 2.825 2.261 5.604 4.581 8.5 6.75.93.696 1.914 1.305 2.844 2 .596.445 1.164.978 1.75 1.437 1.745 1.369 3.607 2.564 5.375 3.907 5.184 3.936 10.285 8.083 15.125 12.437 1.11.998 2.111 2.125 3.125 3.219 1.587 1.713 3.163 3.443 4.75 5.156.248.337.856.288 1.375-.094.519-.381.748-.975.5-1.312-2.343-2.53-4.778-4.985-7.031-7.594-1.64-1.898-3.066-4.021-4.563-6.031-2.518-3.384-5.075-6.735-7.625-10.094-1.297-1.708-2.481-3.558-3.875-5.187-.48-.562-1.025-1.06-1.5-1.626-.973-1.16-1.846-2.352-2.875-3.468-2.184-2.3692-4.533-4.6028-6.875-6.8128-.655-.8064-1.757-1.1322-3-1z" opacity=".999071"/><path d="m253.5 98.125c-1.426.0671-3.051 1.1977-4.125 3.031-1.432 2.445-1.308 5.194.281 6.125 4.364.405 8.431 2.385 12.219 4.469 2.034 1.119 4.109 2.245 6.063 3.5 1.039.668 1.995 1.437 3 2.156 2.676 1.916 5.365 3.784 7.937 5.844 5.729 4.588 11.048 9.751 15.969 15.188 2.058 2.273 4.13 4.588 5.906 7.093.968 1.366 1.862 2.844 2.719 4.281 1.869 3.138 3.513 6.381 4.687 9.844.184.376.797.439 1.375.156.578-.282.902-.811.719-1.187-1.198-3.53-2.876-6.833-4.781-10.031-1.175-1.972-2.474-3.877-3.657-5.844-4.897-8.149-10.449-15.888-16.656-23.094-2.344-2.721-4.689-5.539-7.312-8-.924-.866-1.898-1.657-2.844-2.5-.91-.811-1.808-1.663-2.75-2.437-4.963-4.084-10.978-7.412-17.406-8.3128-.398-.2326-.869-.3036-1.344-.2812z" opacity=".999071"/></g><path d="m160.485 162.816c1.583 8.848 18.885 112.449 25.873 113.467" style="fill:none;opacity:.999071;stroke:#f5891d;stroke-linecap:round;stroke-linejoin:round;stroke-width:12.8741"/><path d="m163.888 161.045c6.679-22.658 54.991 1.831 55.094 23.39.083 17.379-59.04 22.385-43.108 29.329 14.858 6.476 48.787-14.689 62.063-1.336 26.05 26.2-24.862 81.085-53.72 60.984" style="fill:none;opacity:.999071;stroke:#f5891d;stroke-linecap:round;stroke-linejoin:round;stroke-width:12.8741"/><path d="m169.597 127.953c3.525 9.915 2.632 20.298 6.058 29.933" style="fill:none;opacity:.999071;stroke:#f5891d;stroke-linecap:round;stroke-linejoin:round;stroke-width:4.18224"/><path d="m179.54 125.383c4.267.524 4.31 27.099 7.323 32.137" style="fill:none;opacity:.999071;stroke:#f5891d;stroke-linecap:round;stroke-linejoin:round;stroke-width:4.18224"/><path d="m210.988 275.601c3.941 7.099 9.582 31.025 6.862 23.374" style="fill:none;opacity:.999071;stroke:#f5891d;stroke-linecap:round;stroke-linejoin:round;stroke-width:4.18224"/><path d="m222.845 271.627c2.953 8.306 4.383 17.081 7.333 25.378" style="fill:none;opacity:.999071;stroke:#f5891d;stroke-linecap:round;stroke-linejoin:round;stroke-width:4.18224"/><path d="m370.203 239.316c-1.528.304-2.654 12.579 3.269 9.785 1.585-.748 3.199-2.449 3.947-4.008.375-.781.663-2.742.626-3.538-.426-9.08-9.302-1.951-8.578 1.701" style="fill:none;opacity:.999071;stroke:#f5891d;stroke-linecap:round;stroke-linejoin:round;stroke-width:.822435"/><path d="m372.454 246.363c-1.387.413.011 3.401.067 3.685.4 2.014.308 7.175 3.64 5.918 4.643-1.753 5.479-7.391 1.695-10.58-.721-.608-3.353-3.06-4.522-1.759-.597.666.136 2.433-.88 2.736z" style="fill:none;opacity:.999071;stroke:#f5891d;stroke-linecap:round;stroke-linejoin:round;stroke-width:.822435"/><path d="m376.804 253.467c-.396.307-.389-1.004-.819-1.26-.608-.362-.253 1.416-.15 2.116.108.736.29 1.46.435 2.19.38 1.916 1.26 7.408 4.624 6.101 2.771-1.076 3.785-9.043 1.112-10.653-.783-.472-2.783-.312-3.576.14-1.303.742-1.219 2.052-1.317 1.969-.477-.402.159-.966-.309-.603z" style="fill:none;opacity:.999071;stroke:#f5891d;stroke-linecap:round;stroke-linejoin:round;stroke-width:.822435"/><path d="m380.332 260.734c.065-.465.002-.945-.089-1.405-.05-.251-.02.511-.038.766-.032.451-.147.9-.112 1.35.049.619.216 1.223.362 1.825.262 1.081 1.527 7.304 3.748 6.465 2.399-.905 3.711-6.948 2.752-9.081-.237-.527-1.689-1.213-2.151-1.281-4.301-.638-4.966 4.867-4.472 1.361z" style="fill:none;opacity:.999071;stroke:#f5891d;stroke-linecap:round;stroke-linejoin:round;stroke-width:.822435"/><path d="m384.424 268.458c-.306-.439-.097-1.725-.581-1.497-.905.427.205 3.903.285 4.307.495 2.498 1.254 9.049 5.353 6.905 2.731-1.428 4.273-6.299 2.386-9.009-.843-1.212-6.891-3.125-7.733-1.691-.253.431-.375 1.364.107 1.496.456.125.42-.171.183-.511z" style="fill:none;opacity:.999071;stroke:#f5891d;stroke-linecap:round;stroke-linejoin:round;stroke-width:.822435"/><path d="m389.816 274.123c-1.088-.299.161 12.753 3.668 10.843 1.654-.9 1.696-2.235 2.269-3.864.543-1.545 1.574-3.96.775-5.655-2.34-4.96-7.995-3.009-6.901 2.507" style="fill:none;opacity:.999071;stroke:#f5891d;stroke-linecap:round;stroke-linejoin:round;stroke-width:.822435"/><path d="m393.835 282.431c.031.443-.465-1.663-.527-1.223-.302 2.123 1.583 12 3.994 12.486 1.427.288 2.542-3.302 2.559-3.353.694-2.119 1.616-6.218.233-8.393-.849-1.334-3.346-2.643-4.924-1.869-.434.214-.736.68-.914 1.13-.215.548.309 2.006-.221 1.751-.674-.323-.267-1.458-.2-.529z" style="fill:none;opacity:.999071;stroke:#f5891d;stroke-linecap:round;stroke-linejoin:round;stroke-width:.822435"/><path d="m397.909 290.064c-.061.272-.139-1.1-.162-.821-.156 1.883 1.456 10.299 4.695 7.415 2.092-1.863 3.506-6.292 1.327-8.61-1.633-1.738-5.01-2.859-5.875.027-.191.64-.653 1.366-.368 1.97.207.438.576-.833.383.019z" style="fill:none;opacity:.999071;stroke:#f5891d;stroke-linecap:round;stroke-linejoin:round;stroke-width:.822435"/><path d="m401.587 295.215c-.295.441-.393-2.037-.49-1.515-.365 1.951 2.72 13.62 5.526 12.561 1.868-.705 2.423-8.945 1.513-10.543-.354-.621-2.441-1.705-3.026-1.866-1.277-.35-2.336-.519-3.066.798-.297.534-.202 2.364-.405 1.787-.334-.952.391-1.885-.052-1.222z" style="fill:none;opacity:.999071;stroke:#f5891d;stroke-linecap:round;stroke-linejoin:round;stroke-width:.822435"/><path d="m407.175 303.306c-.344-6.113-.498 8.648 3.234 8.654 3.623.006 3.988-7.222 2.861-9.483-.586-1.178-1.798-2.378-3.17-2.596-2.064-.327-2.902 3.832-2.925 3.425z" style="fill:none;opacity:.999071;stroke:#f5891d;stroke-linecap:round;stroke-linejoin:round;stroke-width:.822435"/><path d="m412.202 308.569c-3.221-.159 2.13 10.389 5.386 8.985 1.495-.644 1.26-3.585 1.139-4.778-.184-1.818-.897-4.034-2.838-4.748-2.967-1.093-6.221 1.754-4.022 4.591" style="fill:none;opacity:.999071;stroke:#f5891d;stroke-linecap:round;stroke-linejoin:round;stroke-width:.822435"/><path d="m417.812 314.854c2.293-1.268-.584-.703-.73.145-.302 1.742 1.322 9.941 4.182 8.655 3.687-1.658 3.242-9.509-.128-11.166-2.952-1.452-6.283 4.003-3.324 2.366z" style="fill:none;opacity:.999071;stroke:#f5891d;stroke-linecap:round;stroke-linejoin:round;stroke-width:.822435"/><path d="m421.58 319.987c.011-.435-.193-1.73-.162-1.295.148 2.065 2.597 13.875 6.297 9.753 2.011-2.241 1.335-8.528-.932-10.438-4.846-4.084-5.311 6.404-5.203 1.98z" style="fill:none;opacity:.999071;stroke:#f5891d;stroke-linecap:round;stroke-linejoin:round;stroke-width:.822435"/><path d="m426.684 323.243c-.094.232-.489-.816-.492-.566-.018 1.515 2.932 10.659 4.581 10.662 2.052.003 3.437-6.878 2.713-8.315-.899-1.784-3.45-3.191-5.285-3.694-1.572-.432-1.295 1.366-1.517 1.913z" style="fill:none;opacity:.999071;stroke:#f5891d;stroke-linecap:round;stroke-linejoin:round;stroke-width:.822435"/><path d="m432.133 326.81c2.351-1.625-.778-.622-.838-.403-.587 2.137 2.264 9.517 5.351 7.854 3.019-1.627 1.975-10.708-1.771-10.841-1.904-.067-5.744 5.464-2.742 3.39z" style="fill:none;opacity:.999071;stroke:#f5891d;stroke-linecap:round;stroke-linejoin:round;stroke-width:.822435"/><path d="m437.573 325.067c.162-.556.304 2.966.541 4.16.299 1.509 2.066 8.422 4.989 6.029 2.729-2.233 3.319-7.332.709-9.814-.958-.912-5.918-2.511-6.858-1.106-.142.212-.291.734-.038.766.448.057.544.353.657-.035z" style="fill:none;opacity:.999071;stroke:#f5891d;stroke-linecap:round;stroke-linejoin:round;stroke-width:.822435"/><path d="m441.428 322.026c-.58-3.723 1.22 8.846 4.315 5.499 1.327-1.436 2.037-5.341.704-6.969-.754-.922-2.161-1.029-3.209-.881-2.738.387-1.333 5.415-1.81 2.351z" style="fill:none;opacity:.999071;stroke:#f5891d;stroke-linecap:round;stroke-linejoin:round;stroke-width:.822435"/><path d="m444.502 316.484c.263-.027.82-.196.675-.418-.172-.265-.687-.181-.948-.002-.74.507.05 3.26.176 3.759.425 1.675 1.721 4.677 4.118 3.546 2.52-1.189 3.69-8.243.342-8.793-2.392-.394-9.209 2.41-4.363 1.908z" style="fill:none;opacity:.999071;stroke:#f5891d;stroke-linecap:round;stroke-linejoin:round;stroke-width:.822435"/><path d="m450.003 310.746c-1.889-1.264-1.168 8.198.972 7.774 1.174-.233 1.889-2.093 2.049-3.062 1.161-7.06-7.698-8.207-6.528-2.309" style="fill:none;opacity:.999071;stroke:#f5891d;stroke-linecap:round;stroke-linejoin:round;stroke-width:.822435"/><path d="m450.394 305.547c-.092.334.242-1.349.275-1.003.144 1.487-.264 9.297 3.601 7.632 2.635-1.136 3.79-6.797 1.656-8.865-.818-.792-3.157-.943-3.976-.918-.682.021-1.489-.046-2.008.398-.485.415-.506 1.19-.586 1.823-.071.558-.394 1.843.143 1.679.882-.268 1.097-1.482.895-.746z" style="fill:none;opacity:.999071;stroke:#f5891d;stroke-linecap:round;stroke-linejoin:round;stroke-width:.822435"/><path d="m453.164 296.556c.266.02.399-.361.548-.583.124-.186-.416.258-.475.474-.1.364.01.755.034 1.131.072 1.137.213 2.829.578 3.869.619 1.764 2.619 2.613 4.267 1.43 3.127-2.244.519-8.333-3.015-8.507-.602-.03-5.672 1.912-1.937 2.186z" style="fill:none;opacity:.999071;stroke:#f5891d;stroke-linecap:round;stroke-linejoin:round;stroke-width:.822435"/><path d="m456.003 289.354c.031-1.532.072 2.865.341 3.631.703 2.002 1.936 3.789 4.264 3.328.37-.074.803-.123 1.059-.4 1.32-1.428 1.814-7.05-.426-7.883-1.508-.56-4.071-.317-5.365.685-.245.19-.707.899-.402.839.438-.087.52.244.529-.2z" style="fill:none;opacity:.999071;stroke:#f5891d;stroke-linecap:round;stroke-linejoin:round;stroke-width:.822435"/><path d="m461.521 284.656c.291-.09.507-.879.202-.894-1.348-.066-1.214 8.057 3.092 6.026 3.115-1.47-.084-7.041-2.762-7.23-.586-.041-2.733 2.774-.532 2.098z" style="fill:none;opacity:.999071;stroke:#f5891d;stroke-linecap:round;stroke-linejoin:round;stroke-width:.822435"/><path d="m465.214 279.845c-.233-1.636-.814 2.034-.788 2.243.223 1.782 1.327 3.263 3.058 3.945.421.166.928.272 1.35.112 1.756-.663 1.72-5.771.705-6.968-1.404-1.658-4.153 1.881-4.325.668z" style="fill:none;opacity:.999071;stroke:#f5891d;stroke-linecap:round;stroke-linejoin:round;stroke-width:.822435"/><path d="m470.806 274.088c-.187.587-1.496.323-1.588.6-.701 2.091-.26 6.501 2.873 5.879 6.077-1.205.373-11.682-1.285-6.479z" style="fill:none;opacity:.999071;stroke:#f5891d;stroke-linecap:round;stroke-linejoin:round;stroke-width:.822435"/></svg>