<svg clip-rule="evenodd" stroke-linecap="round" stroke-linejoin="round" stroke-miterlimit="10" viewBox="0 0 626 476" xmlns="http://www.w3.org/2000/svg"><g fill-rule="evenodd"><path d="m573.5 66.5c.131-.876-.202-1.543-1-2-1.078 1.961-2.411 3.628-4 5-10.044 1.86-19.711.693-29-3.5-.752-.671-1.086-1.504-1-2.5 6.204 1.841 12.537 3.174 19 4 2-.167 4-.333 6-.5 1.256-.417 1.923-1.25 2-2.5.418-.722 1.084-1.222 2-1.5-10.401-1.375-20.067-4.708-29-10-7.903-7.447-15.57-15.114-23-23-7.23-4.56-14.897-8.226-23-11-7.269-.844-14.269.156-21 3-.566.995-1.233 1.828-2 2.5-4.426.22-6.426 2.554-6 7h-8c.667-.667 1.333-1.333 2-2 17.313-16.66 35.98-18.16 56-4.5 9.345 10.011 19.345 19.344 30 28 9.41 4.6 19.41 7.1 30 7.5 1.293 2.137 1.293 4.137 0 6z" fill="#a7a9b8"/><path d="m565.5 64.5c-5.567-.461-11.234-1.461-17-3-.477-.978-1.143-1.811-2-2.5-13.257-2.823-24.59-9.156-34-19-5.787-2.394-11.454-5.06-17-8-8.206-2.047-16.539-2.881-25-2.5-.129-1.716-.462-3.383-1-5 .767-.672 1.434-1.505 2-2.5 6.731-2.844 13.731-3.844 21-3 8.103 2.774 15.77 6.44 23 11 7.43 7.886 15.097 15.553 23 23 8.933 5.292 18.599 8.625 29 10-.916.278-1.582.778-2 1.5z" fill="#9394a4"/><path d="m399.5 10.5c2.737.531 5.404 1.364 8 2.5 3.812 3.482 7.312 7.315 10.5 11.5.483.948.649 1.948.5 3 1.175-.219 2.175.114 3 1 4.123 5.913 7.457 12.247 10 19 1.05 9.351 1.05 18.684 0 28-7.926 1.366-14.259-1.134-19-7.5-1.525-1.009-3.192-1.509-5-1.5v-3c-7.82-3.739-15.82-7.239-24-10.5-9.926-5.342-20.592-8.508-32-9.5-.526-3.308.807-5.474 4-6.5 10.238-1.347 20.238-3.347 30-6 1.793-2.795 3.96-5.295 6.5-7.5 1.549-3.981 1.715-7.981.5-12 2.243-.974 4.576-1.308 7-1z" fill="#b6b9ca"/><path d="m295.5 27.5c2.528.666 5.194 1.332 8 2-2.667.333-5.333.667-8 1-37.347-1.333-74.68-1-112 1 4.259-1.361 8.593-2.361 13-3 32.968-2.135 65.968-2.468 99-1z" fill="#5e5e5e"/><path d="m348.5 207.5h3c-.098 3.75 1.069 7.083 3.5 10 2.744 1.585 4.911 3.585 6.5 6 .495 1.982.995 3.982 1.5 6 1.572 3.263 3.572 6.263 6 9 1.661 5.966 3.827 11.633 6.5 17 .62 10.938-.713 21.605-4 32-1.373-.157-2.707.01-4 .5.874 1.727.707 3.56-.5 5.5-3.703 4.868-7.87 9.202-12.5 13-.333-.5-.667-1-1-1.5 2.865-8.286 4.365-16.786 4.5-25.5-.667.667-1.333 1.333-2 2-10.922 16.674-20.422 34.174-28.5 52.5-1.719 2.578-3.385 5.078-5 7.5.537 1.241 1.204 2.408 2 3.5-3.25 7.097-5.083 14.597-5.5 22.5-.333 17-.667 34-1 51-.37 6.103-3.203 10.437-8.5 13-6.156-2.648-11.322-6.648-15.5-12-2.464-3.934-4.631-7.934-6.5-12-1.144-1.6-2.311-3.267-3.5-5-1.769-11.412-4.936-22.412-9.5-33 1.109-1.714.442-2.381-2-2-3.917-17.252-7.584-34.585-11-52-3.283-28.226-2.116-56.226 3.5-84 2.644-7.249 4.644-14.582 6-22-7.108 10.571-14.441 20.904-22 31 .332 4.341-1.002 8.341-4 12-3.712 11.565-7.046 23.231-10 35-8.571 10.837-19.904 15.171-34 13-12.479.882-24.313-1.284-35.5-6.5-.457-.414-.791-.914-1-1.5 5.052-16.178 7.218-32.511 6.5-49-2.732 10.53-6.066 20.863-10 31-5.491 7.639-10.991 15.305-16.5 23-.966 1.896-1.299 3.896-1 6-1.478-.262-2.811.071-4 1-6.878 9.758-12.712 20.091-17.5 31-.333 2.667-.667 5.333-1 8-.667 1.333-1.667 2.333-3 3-.731 7.212-1.898 14.212-3.5 21-.819 14.884.514 29.551 4 44-.56 3.445-1.893 6.445-4 9-1.383-2.576-2.217-2.242-2.5 1-5.392-.457-9.725-2.79-13-7-2.591-4.931-5.091-9.931-7.5-15-2.838-11.673-5.671-23.339-8.5-35-1.891-7.349-1.891-14.683 0-22 4.975-4.304 9.975-8.638 15-13 4.002-6.59 3.335-12.59-2-18-.002-6.503-2.502-11.836-7.5-16-8.703-15.268-17.87-30.268-27.5-45-5-13.333-10-26.667-15-40-3.591-22.503-2.758-44.837 2.5-67 3.817-9.638 8.65-18.638 14.5-27 .493-1.634.66-3.301.5-5 3.036-1.312 5.202-3.646 6.5-7 4.41-3.241 7.91-7.241 10.5-12 4.709-3.363 9.042-7.196 13-11.5 4.855-1.52 8.522-4.52 11-9 2.108-.36 4.108-1.027 6-2 2.014-2.345 4.347-4.345 7-6 25.433-13.865 52.766-21.865 82-24 38.11-2.856 75.444 1.144 112 12 3.108 2.106 6.441 3.772 10 5 1.092 2.594 2.759 4.761 5 6.5 1.887 4.1 2.887 8.433 3 13-1.13 16.548-3.296 32.881-6.5 49-4.622 21.535-1.622 41.868 9 61 3.581 4.828 6.915 9.828 10 15 1.731 2.568 3.898 4.568 6.5 6z" fill="#c4c5d0"/><path d="m521.5 57.5c-.438-.065-.772.101-1 .5 4.48 6.806 9.313 13.306 14.5 19.5 1.759 3.108 2.592 6.441 2.5 10 12.515.571 22.348-4.096 29.5-14 .791-1.245 1.291-2.578 1.5-4 1.589-1.372 2.922-3.039 4-5 .798.457 1.131 1.124 1 2-5.579 13.584-15.579 21.584-30 24h-9c-.707-3.748-1.707-7.414-3-11h-4c-.356-1.69-1.356-2.69-3-3-2.191-4.725-5.525-8.391-10-11-2.545-3.327-5.212-6.493-8-9.5-1-.333-2-.667-3-1-3.247-2.741-5.914-5.908-8-9.5v-3c-3.899-.131-7.232-1.464-10-4 9.342-1.661 17.008 1.172 23 8.5.948.483 1.948.65 3 .5-.381 2.442.286 3.109 2 2 3.688 1.688 6.355 4.355 8 8z" fill="#8b8b8b"/><path d="m196.5 28.5c-4.407.639-8.741 1.639-13 3-12.099.948-24.099 2.615-36 5-.209.586-.543 1.086-1 1.5-11.573.238-22.74 2.404-33.5 6.5-2.65 2.529-5.816 3.529-9.5 3v3c-2.458-.272-4.125.728-5 3-1.896.966-3.896 1.299-6 1v3h-3c-.495 3.853-2.495 5.186-6 4-1.196.346-1.196.846 0 1.5-1.293.49-2.627.657-4 .5.381 2.442-.286 3.109-2 2-3.333 3-6.667 6-10 9-.797-.457-1.131-1.124-1-2 12.929-14.473 28.596-24.973 47-31.5 27.098-7.514 54.765-11.68 83-12.5z" fill="#5e5e5e"/><path d="m463.5 31.5c10.577 1.497 21.243 2.664 32 3.5 10.725 4.411 20.059 10.744 28 19 4.307 3.483 8.973 6.317 14 8.5-1.446 1.113-3.113 1.28-5 .5-3.417-2.377-7.083-4.211-11-5.5-1.645-3.645-4.312-6.312-8-8-1.714 1.109-2.381.442-2-2-1.052.15-2.052-.017-3-.5-5.992-7.328-13.658-10.161-23-8.5 2.768 2.536 6.101 3.869 10 4v3c-9.832-4.323-19.832-8.323-30-12-1.213-.247-1.88-.914-2-2z" fill="#a7a9b8"/><path d="m469.5 24.5c.538 1.617.871 3.284 1 5 8.461-.381 16.794.453 25 2.5 5.546 2.94 11.213 5.606 17 8 9.41 9.844 20.743 16.177 34 19 .857.689 1.523 1.522 2 2.5 5.766 1.539 11.433 2.539 17 3-.077 1.25-.744 2.083-2 2.5-2 .167-4 .333-6 .5-6.463-.826-12.796-2.159-19-4 0-.667-.333-1-1-1-5.027-2.183-9.693-5.017-14-8.5-7.941-8.256-17.275-14.589-28-19-10.757-.836-21.423-2.003-32-3.5-.426-4.446 1.574-6.78 6-7z" fill="#b6b9ca"/><path d="m399.5 10.5c-2.424-.308-4.757.026-7 1 1.215 4.019 1.049 8.019-.5 12-2.54 2.205-4.707 4.705-6.5 7.5-9.762 2.653-19.762 4.653-30 6-3.193 1.026-4.526 3.192-4 6.5 11.408.992 22.074 4.158 32 9.5 8.18 3.261 16.18 6.761 24 10.5v3c1.808-.009 3.475.491 5 1.5 4.741 6.366 11.074 8.866 19 7.5 1.05-9.316 1.05-18.649 0-28 7.105 14.019 7.772 28.352 2 43-1.574 1.131-3.241 1.298-5 .5-16.386-9.519-32.386-19.519-48-30-6.208-2.108-12.541-3.608-19-4.5-5.898-.702-10.565 1.298-14 6 .333.333.667.667 1 1 6.989-6.097 8.489-5.097 4.5 3-.333-.333-.667-.667-1-1-.563 6.454-1.73 12.787-3.5 19-9.753-13.09-13.919-27.757-12.5-44 3.65-4.795 8.484-7.628 14.5-8.5-1.634-.493-3.301-.66-5-.5.418-.722 1.084-1.222 2-1.5 4.333-.333 8.667-.667 13-1 3.203-3.371 6.536-6.538 10-9.5-.131.876.202 1.543 1 2 2.017-.674 3.683-1.841 5-3.5 1.293-.49 2.627-.657 4-.5-.157-1.373.01-2.707.5-4 5.911-3.286 12.077-4.286 18.5-3z" fill="#a7a9b8"/><path d="m424.5 28.5c11.027-.213 22.027.12 33 1-.667.667-1.333 1.333-2 2-6.694-.969-13.36-.969-20 0-.165 3.682.001 7.348.5 11 7.534 17.92 8.368 36.087 2.5 54.5.333.333.667.667 1 1-2.371.735-4.705 1.568-7 2.5-13.585-8.753-28.418-14.086-44.5-16-10.335-.009-17.002 4.991-20 15-3.588 21.102-2.921 42.102 2 63 2.477 5.431 4.144 11.097 5 17 2.656 3.644 4.489 7.644 5.5 12h3c2.986 4.576 6.486 8.909 10.5 13 .455 3.257 2.121 5.591 5 7 .483.948.649 1.948.5 3h3c-.219 1.175.114 2.175 1 3 8.33 4.404 16.997 8.071 26 11 26.54 7.26 42.54-3.073 48-31 .692.525 1.192 1.192 1.5 2 .82 6.514.653 12.847-.5 19 .165-3.682-.001-7.348-.5-11-2.042 12.268-8.209 21.768-18.5 28.5 6.472-.322 11.638-3.155 15.5-8.5 15.459 11.908 32.959 16.742 52.5 14.5 11.18-2.797 22.513-4.297 34-4.5h6v1c-5.686 6.351-12.019 12.017-19 17 .219-1.175-.114-2.175-1-3-11.141 6.55-23.141 11.05-36 13.5-19.309 2.656-38.642 2.99-58 1-34.683-9.512-62.349-29.012-83-58.5-.825-.886-1.825-1.219-3-1 .128-2.155-.372-4.155-1.5-6-20.746-30.395-27.412-63.729-20-100 2.526-4.414 4.359-9.08 5.5-14 4.532-7.38 9.698-14.38 15.5-21 .483-.948.649-1.948.5-3 1.599.268 2.932-.065 4-1 .617-.111 1.117-.444 1.5-1 2.544 1.383 5.044 2.883 7.5 4.5 3.942-.063 6.942 1.603 9 5 3.503 1.757 6.836 3.591 10 5.5v3c1.699-.16 3.366.007 5 .5 7.632 4.277 15.299 8.611 23 13 2.502 1.432 5.002 1.598 7.5.5 1.608-2.882 2.941-5.882 4-9 1.626-12.934.126-25.434-4.5-37.5-2.161-3.796-4.328-7.629-6.5-11.5-.49-1.293-.657-2.627-.5-4 1.478.262 2.811-.071 4-1-2.469-.668-4.802-1.335-7-2z" fill="#a7a9b8"/><path d="m521.5 57.5c3.917 1.289 7.583 3.123 11 5.5 1.887.78 3.554.613 5-.5.667 0 1 .333 1 1-.086.996.248 1.829 1 2.5 9.289 4.193 18.956 5.36 29 3.5-.209 1.422-.709 2.755-1.5 4-7.152 9.904-16.985 14.571-29.5 14 .092-3.559-.741-6.892-2.5-10-5.187-6.194-10.02-12.694-14.5-19.5.228-.399.562-.565 1-.5z" fill="#9698a6"/><path d="m516.5 74.5c1.333 2 3 3.667 5 5 .528 1.347.695 2.681.5 4-6.118-5.649-11.785-5.316-17 1 .201-7.342 4.034-10.675 11.5-10z" fill="#303030"/><path d="m63.5 74.5c.997-.03 1.664.47 2 1.5-9.522 9.999-17.188 21.166-23 33.5-.886-.825-1.219-1.825-1-3 2.975-6.938 6.309-13.605 10-20 2.756-.95 5.089-3.117 7-6.5-.259-1.261-.926-2.261-2-3-6.015-3.035-12.348-4.035-19-3-10.574 1.955-18.074 7.788-22.5 17.5-.667 4-.667 8 0 12 2.208 6.61 6.708 8.776 13.5 6.5 5.923-4.855 7.59-11.021 5-18.5-1.3-2.932-3.3-5.266-6-7 3.307-4.147 7.64-5.814 13-5 2.333.333 4.667.667 7 1 2.477 1.38 2.477 2.38 0 3-5.577-2.968-10.91-2.634-16 1 7.911 8.899 7.911 17.733 0 26.5-9.155 4.838-15.322 2.338-18.5-7.5-.667-4.333-.667-8.667 0-13 1.559-1.717 2.392-3.717 2.5-6-2.357.163-4.69-.003-7-.5-2.667-2-2.667-4 0-6 5.333-.333 10.667-.667 16-1 11.929-7.08 23.929-7.247 36-.5 1.239-.442 2.239-1.109 3-2z" fill="#5e5e5e"/><path d="m51.5 86.5c-1.372-1.012-2.705-2.012-4-3 2.477-.62 2.477-1.62 0-3-2.333-.333-4.667-.667-7-1-5.36-.814-9.693.853-13 5 2.7 1.734 4.7 4.068 6 7 2.59 7.479.923 13.645-5 18.5-6.792 2.276-11.292.11-13.5-6.5-.667-4-.667-8 0-12 4.426-9.712 11.926-15.545 22.5-17.5 6.652-1.035 12.985-.035 19 3 1.074.739 1.741 1.739 2 3-1.911 3.383-4.244 5.55-7 6.5z" fill="#303030"/><path d="m455.5 31.5h8c.12 1.086.787 1.753 2 2 10.168 3.677 20.168 7.677 30 12 2.086 3.592 4.753 6.759 8 9.5 1 .333 2 .667 3 1 2.788 3.007 5.455 6.173 8 9.5 4.475 2.609 7.809 6.275 10 11-3.119-2.11-5.452-4.777-7-8h-4c.183 2.488 1.183 4.488 3 6-7.466-.675-11.299 2.658-11.5 10 5.215-6.316 10.882-6.649 17-1 .195-1.319.028-2.653-.5-4 1.791 4.056 3.458 8.389 5 13 .825.886 1.825 1.219 3 1 2.676 9.019 7.176 17.019 13.5 24 1.926 7.139 5.76 12.973 11.5 17.5 3.701 1.201 6.701 3.368 9 6.5 2.317-1.21 4.317-.71 6 1.5 3.711.825 7.378.659 11-.5-20.26-8.094-34.76-22.094-43.5-42-2.368-4.398-3.868-9.065-4.5-14-2.89-1.543-4.557-3.876-5-7h4c1.293 3.586 2.293 7.252 3 11h9c-2.198.665-4.531 1.332-7 2 3.322 7.977 7.155 15.643 11.5 23 12.112 13.625 26.612 23.625 43.5 30-8.361-1.18-16.695-1.18-25 0-4.874.266-9.541 1.433-14 3.5-3.243 5.077-7.576 8.91-13 11.5-9.599 19.883-15.099 40.883-16.5 63-4.118 7.158-10.284 9.658-18.5 7.5-5.511-1.9-11.178-3.233-17-4-2.508-1.903-5.341-3.07-8.5-3.5-1.03-.336-1.53-1.003-1.5-2-.237-1.291.096-2.291 1-3 1.153-6.153 1.32-12.486.5-19-.308-.808-.808-1.475-1.5-2-5.46 27.927-21.46 38.26-48 31-9.003-2.929-17.67-6.596-26-11-.886-.825-1.219-1.825-1-3h-3c.149-1.052-.017-2.052-.5-3-2.879-1.409-4.545-3.743-5-7-4.014-4.091-7.514-8.424-10.5-13h-3c-1.011-4.356-2.844-8.356-5.5-12-.856-5.903-2.523-11.569-5-17-4.921-20.898-5.588-41.898-2-63 2.998-10.009 9.665-15.009 20-15 16.082 1.914 30.915 7.247 44.5 16 2.295-.932 4.629-1.765 7-2.5-.333-.333-.667-.667-1-1 5.868-18.413 5.034-36.58-2.5-54.5-.499-3.652-.665-7.318-.5-11 6.64-.969 13.306-.969 20 0z" fill="#d2d2db"/><path d="m457.5 72.5c6.271-.359 9.604 2.307 10 8-4.852-3.939-9.685-3.939-14.5 0-.667-1-.667-2 0-3 1.366-1.862 2.866-3.528 4.5-5z" fill="#303030"/><path d="m524.5 76.5c1.644.31 2.644 1.31 3 3 .443 3.124 2.11 5.457 5 7 .632 4.935 2.132 9.602 4.5 14 8.74 19.906 23.24 33.906 43.5 42-3.622 1.159-7.289 1.325-11 .5-1.683-2.21-3.683-2.71-6-1.5-2.299-3.132-5.299-5.299-9-6.5-5.74-4.527-9.574-10.361-11.5-17.5-6.324-6.981-10.824-14.981-13.5-24-1.175.219-2.175-.114-3-1-1.542-4.611-3.209-8.944-5-13-2-1.333-3.667-3-5-5-1.817-1.512-2.817-3.512-3-6h4c1.548 3.223 3.881 5.89 7 8z" fill="#97989d"/><path d="m23.5 87.5c1.89-.203 3.39.463 4.5 2 3.31 3.715 4.31 8.048 3 13-6.428 5.931-10.261 4.431-11.5-4.5 1.028-3.579 2.361-7.079 4-10.5z" fill="#5e5e5e"/><path d="m24.5 91.5c4.578 1.343 6.078 4.343 4.5 9-3.793 4.04-6.293 3.207-7.5-2.5.34-2.511 1.34-4.678 3-6.5z" fill="#fcf1ee"/><path d="m458.5 112.5c3.681 1.357 4.515 3.69 2.5 7-.708-.881-1.542-1.547-2.5-2z" fill="#d3d6d0"/><path d="m531.5 121.5c-.904.709-1.237 1.709-1 3-1.699.16-3.366-.006-5-.5-2.153-2.995-3.819-6.162-5-9.5-.16-1.699.006-3.366.5-5 .934 3.092 2.1 3.425 3.5 1-.044-2.91-1.21-3.91-3.5-3-.636-3.022.53-4.522 3.5-4.5 4.991 5.136 7.324 11.302 7 18.5z" fill="#180f0d"/><path d="m468.5 120.5c-.506 13.914-3.84 14.581-10 2v-5c.958.453 1.792 1.119 2.5 2 2.015-3.31 1.181-5.643-2.5-7 .072-4.036 1.739-4.87 5-2.5 2.617 3.066 4.283 6.566 5 10.5z" fill="#130c0c"/><path d="m520.5 114.5c1.181 3.338 2.847 6.505 5 9.5 1.634.494 3.301.66 5 .5-.237-1.291.096-2.291 1-3 .493 1.99 1.66 1.99 3.5 0 3.642 1.502 7.142 3.169 10.5 5-3.714 1.43-7.214 1.097-10.5-1-1.932 1.678-4.098 2.178-6.5 1.5 1.196-.654 1.196-1.154 0-1.5-5.492 1.286-11.159 1.953-17 2-10.703.509-21.369.676-32 .5 2 .333 4 .667 6 1-25.717 5.43-50.384 13.93-74 25.5.282-2.335 1.615-4.502 4-6.5 5.326-4.985 10.993-9.651 17-14 3.975-1.436 7.642-3.436 11-6 2-.333 4-.667 6-1 2.83-1.947 5.83-3.447 9-4.5 6.16 12.581 9.494 11.914 10-2 17.274-1.776 34.607-2.443 52-2z" fill="#a7a9b8"/><path d="m591.5 145.5c1.879.841 3.879 1.175 6 1-2 .667-4 1.333-6 2-.79.901-1.79 1.568-3 2-.709-.904-1.709-1.237-3-1 .111-.617.444-1.117 1-1.5-6.181-.819-12.181-.653-18 .5-5.519 1.453-10.019 4.453-13.5 9-1.922 4.179-4.088 8.179-6.5 12-.996-.086-1.829.248-2.5 1-4.538 6.395-7.371 13.395-8.5 21h-4c.604-4.201 1.77-8.201 3.5-12 3.019-4.039 5.519-8.372 7.5-13 3.653-5.15 7.653-9.983 12-14.5 3.263-2.459 6.596-4.626 10-6.5 8.305-1.18 16.639-1.18 25 0z" fill="#5e5e5e"/><path d="m568.5 148.5c1.373-.157 2.707.01 4 .5-10.16 7.327-18.827 16.16-26 26.5-.333-.167-.667-.333-1-.5 1.258-1.741 2.258-3.574 3-5.5 2.412-3.821 4.578-7.821 6.5-12 3.481-4.547 7.981-7.547 13.5-9z" fill="#5e5e5e"/><path d="m591.5 148.5h3c4.364 2.611 8.531 5.611 12.5 9 3.297 4.885 5.631 10.218 7 16 1.414 14.138 1.914 28.138 1.5 42v3c-.617-.111-1.117-.444-1.5-1-.949 1.593-2.115 2.926-3.5 4-3.525 2.931-7.525 5.098-12 6.5-8.752 3.117-17.752 4.117-27 3-3.775-1.442-6.608-3.942-8.5-7.5-.667-6.667-.667-13.333 0-20 1.515-5.575 2.515-11.242 3-17 4.775-9.115 9.109-18.448 13-28 2.757-1.445 4.924-3.445 6.5-6 .79-.901 1.79-1.568 3-2s2.21-1.099 3-2z" fill="#c1c3ca"/><path d="m597.5 146.5c10.91 3.756 17.41 11.423 19.5 23 .495 1.973.662 3.973.5 6 .149 1.052-.017 2.052-.5 3-.987-8.295-3.653-15.962-8-23-3.602-4.884-8.435-7.218-14.5-7h-3c2-.667 4-1.333 6-2z" fill="#5e5e5e"/><path d="m568.5 148.5c5.819-1.153 11.819-1.319 18-.5-.556.383-.889.883-1 1.5-3.221 1.209-6.221 2.876-9 5-10.72 10.372-18.054 22.705-22 37-1.291 1.815-3.124 2.815-5.5 3-3.604-1.698-7.437-2.698-11.5-3 1.129-7.605 3.962-14.605 8.5-21 .671-.752 1.504-1.086 2.5-1-.742 1.926-1.742 3.759-3 5.5.333.167.667.333 1 .5 7.173-10.34 15.84-19.173 26-26.5-1.293-.49-2.627-.657-4-.5z" fill="#8b8b8b"/><path d="m585.5 149.5c1.291-.237 2.291.096 3 1-1.21.432-2.21 1.099-3 2-11.111 6.62-19.278 15.953-24.5 28-2.719 6.824-5.052 13.824-7 21-1.247 7.279-1.747 14.612-1.5 22h-3c-.331-8.36.002-16.693 1-25 2.447-1.653 3.78-3.987 4-7 3.946-14.295 11.28-26.628 22-37 2.779-2.124 5.779-3.791 9-5z" fill="#8b8b8b"/><path d="m594.5 148.5c6.065-.218 10.898 2.116 14.5 7 4.347 7.038 7.013 14.705 8 23 .483-.948.649-1.948.5-3 .961 1.765 1.295 3.765 1 6-.83 9.825-1.33 19.825-1.5 30-.791 1.245-1.291 2.578-1.5 4 .414-13.862-.086-27.862-1.5-42-1.369-5.782-3.703-11.115-7-16-3.969-3.389-8.136-6.389-12.5-9z" fill="#adadad"/><path d="m618.5 181.5c.167 10.672 0 21.339-.5 32-.24 2.352-1.073 4.352-2.5 6v-4c.209-1.422.709-2.755 1.5-4 .17-10.175.67-20.175 1.5-30z" fill="#5e5e5e"/><path d="m580.5 185.5c.965 1.221.798 2.554-.5 4-.108 7.411-.775 14.745-2 22-3.387 1.818-5.387.818-6-3-.545-8.911 2.289-16.578 8.5-23z" fill="#a7a9b8"/><path d="m607.5 185.5c-.166 6.271.167 12.771 1 19.5.897 6.454-1.27 7.954-6.5 4.5-1.94-8.791-.107-16.791 5.5-24z" fill="#a7a9b8"/><path d="m585.5 152.5c-1.576 2.555-3.743 4.555-6.5 6-3.891 9.552-8.225 18.885-13 28-.485 5.758-1.485 11.425-3 17-.667 6.667-.667 13.333 0 20 1.892 3.558 4.725 6.058 8.5 7.5 9.248 1.117 18.248.117 27-3 4.475-1.402 8.475-3.569 12-6.5-1.081 2.264-2.415 4.431-4 6.5-3.612 1.139-6.946 2.806-10 5-8.866.533-17.699 1.367-26.5 2.5-2.086-.918-4.253-1.585-6.5-2-1.973-.987-3.973-1.987-6-3-1.443-2.577-3.11-4.91-5-7-.247-7.388.253-14.721 1.5-22 1.948-7.176 4.281-14.176 7-21 5.222-12.047 13.389-21.38 24.5-28z" fill="#9698a6"/><path d="m42.5 252.5c-10.518-18.904-15.518-39.237-15-61 .507-17.418 2.007-34.751 4.5-52 1.356-9.759 3.856-19.093 7.5-28 1.509-1.359 2.176-.859 2 1.5-3.999 15.171-6.333 30.671-7 46.5h-3c-.833 15.994-1 31.994-.5 48 1.39 8.735 3.057 17.401 5 26 1.952 5.193 4.285 10.193 7 15 .765 1.566.598 2.899-.5 4z" fill="#303030"/><path d="m535.5 191.5h2c4.063.302 7.896 1.302 11.5 3 2.376-.185 4.209-1.185 5.5-3-.22 3.013-1.553 5.347-4 7-.998 8.307-1.331 16.64-1 25-5.984.797-11.984 1.463-18 2-1.121-5.918-1.288-11.918-.5-18 1.69-5.288 3.19-10.621 4.5-16z" fill="#5e5e5e"/><path d="m566.5 145.5c-3.404 1.874-6.737 4.041-10 6.5-4.347 4.517-8.347 9.35-12 14.5-1.981 4.628-4.481 8.961-7.5 13-1.73 3.799-2.896 7.799-3.5 12-1.629 2.358-2.795 5.024-3.5 8-1.566 9.316-1.733 18.649-.5 28 1.206 3.538 3.206 6.538 6 9 .086.996-.248 1.829-1 2.5-18.645 3.338-35.979.004-52-10-2.022-2.022-4.022-4.022-6-6 .07-.765.403-1.265 1-1.5-.03.997.47 1.664 1.5 2 3.159.43 5.992 1.597 8.5 3.5 5.822.767 11.489 2.1 17 4 8.216 2.158 14.382-.342 18.5-7.5 1.401-22.117 6.901-43.117 16.5-63 5.424-2.59 9.757-6.423 13-11.5 4.459-2.067 9.126-3.234 14-3.5z" fill="#9f9db9"/><path d="m478.5 218.5c-.904.709-1.237 1.709-1 3-.597.235-.93.735-1 1.5l6 6c16.021 10.004 33.355 13.338 52 10 .752-.671 1.086-1.504 1-2.5 8.849-.326 17.516.007 26 1-11.487.203-22.82 1.703-34 4.5-19.541 2.242-37.041-2.592-52.5-14.5-3.862 5.345-9.028 8.178-15.5 8.5 10.291-6.732 16.458-16.232 18.5-28.5.499 3.652.665 7.318.5 11z" fill="#5e5e5e"/><path d="m533.5 191.5h2c-1.31 5.379-2.81 10.712-4.5 16-.788 6.082-.621 12.082.5 18 1.949 9.155 7.615 12.488 17 10 5.447-.266 10.447-.933 15-2 2.247.415 4.414 1.082 6.5 2 8.801-1.133 17.634-1.967 26.5-2.5 3.054-2.194 6.388-3.861 10-5 1.585-2.069 2.919-4.236 4-6.5 1.385-1.074 2.551-2.407 3.5-4 .383.556.883.889 1.5 1v1c-1.658 4.172-4.325 7.672-8 10.5-5.093 3.056-10.427 5.223-16 6.5-7.983.666-15.983.999-24 1h-6c-8.484-.993-17.151-1.326-26-1-2.794-2.462-4.794-5.462-6-9-1.233-9.351-1.066-18.684.5-28 .705-2.976 1.871-5.642 3.5-8z" fill="#303030"/><path d="m549.5 223.5h3c1.89 2.09 3.557 4.423 5 7 2.027 1.013 4.027 2.013 6 3-4.553 1.067-9.553 1.734-15 2-9.385 2.488-15.051-.845-17-10 6.016-.537 12.016-1.203 18-2z" fill="#5e5e5e"/><path d="m361.5 223.5c2.956 1.896 4.956 4.562 6 8 1.052-.149 2.052.017 3 .5 1.81 2.519 3.477 5.019 5 7.5 3.828 1.149 6.828 3.483 9 7 7.922 6.81 16.922 11.643 27 14.5 5.79 4.456 10.956 9.623 15.5 15.5.483.948.649 1.948.5 3 1.322-.17 2.489.163 3.5 1 .1 2.937.933 5.604 2.5 8-.811.716-1.478 1.55-2 2.5.667 1.333 1.333 2.667 2 4-.733 2.835-1.4 5.668-2 8.5-1.43-.079-2.764.254-4 1-2.709 2.617-5.709 4.783-9 6.5-5.782 1.369-11.115 3.703-16 7l1 1c-3.435 2.221-7.101 4.221-11 6-19.298 7.998-39.131 14.498-59.5 19.5-.667-1.333-.667-2.667 0-4 2.934-4.534 5.267-9.2 7-14-4.04 5.429-7.54 11.095-10.5 17-.42-1.594-1.086-3.094-2-4.5.772-1.221 1.772-2.221 3-3-1.26-1.814-1.26-3.647 0-5.5 1.634-.468 2.8-1.468 3.5-3l1 1c-.266-3.401 1.234-5.067 4.5-5-.163-2.357.003-4.69.5-7 3.472-3.613 5.305-7.947 5.5-13 1.814-3.438 3.814-6.771 6-10 .825-.886 1.825-1.219 3-1-2.064 9.032-4.064 18.032-6 27h3c-.591-6.162 2.075-8.996 8-8.5-.758-1.364-.258-2.531 1.5-3.5.217-2.988 1.217-5.655 3-8h3l5-5c1.256-6.662 3.589-12.995 7-19 .5-6.658.666-13.325.5-20h-4c-2.673-5.367-4.839-11.034-6.5-17-2.428-2.737-4.428-5.737-6-9-.505-2.018-1.005-4.018-1.5-6z" fill="#9394a4"/><path d="m591.5 236.5c-7.597 1.967-15.597 2.634-24 2v-1c8.017-.001 16.017-.334 24-1z" fill="#fdd7e0"/><path d="m424.5 28.5c2.198.665 4.531 1.332 7 2-1.189.929-2.522 1.262-4 1-.157 1.373.01 2.707.5 4 2.172 3.871 4.339 7.704 6.5 11.5 4.626 12.066 6.126 24.566 4.5 37.5-1.059 3.118-2.392 6.118-4 9-2.498 1.098-4.998.932-7.5-.5-7.701-4.389-15.368-8.723-23-13-1.634-.493-3.301-.66-5-.5v-3c-3.164-1.909-6.497-3.743-10-5.5-2.058-3.397-5.058-5.063-9-5-2.456-1.617-4.956-3.117-7.5-4.5-.383.556-.883.889-1.5 1-.077-1.25-.744-2.083-2-2.5-1.667-.167-3.333-.333-5-.5-2.511-.212-4.678.455-6.5 2-2.766 8.554-4.933 17.22-6.5 26-1.141 4.92-2.974 9.586-5.5 14-7.412 36.271-.746 69.605 20 100 1.128 1.845 1.628 3.845 1.5 6 1.175-.219 2.175.114 3 1 20.651 29.488 48.317 48.988 83 58.5 19.358 1.99 38.691 1.656 58-1 12.859-2.45 24.859-6.95 36-13.5.886.825 1.219 1.825 1 3-26.543 13.43-54.876 18.93-85 16.5-7.584 10.587-16.25 20.253-26 29-1.717 1.559-3.717 2.392-6 2.5.6-2.832 1.267-5.665 2-8.5-.667-1.333-1.333-2.667-2-4 .522-.95 1.189-1.784 2-2.5-1.567-2.396-2.4-5.063-2.5-8-1.011-.837-2.178-1.17-3.5-1 .149-1.052-.017-2.052-.5-3-4.544-5.877-9.71-11.044-15.5-15.5-10.078-2.857-19.078-7.69-27-14.5-2.172-3.517-5.172-5.851-9-7-1.523-2.481-3.19-4.981-5-7.5-.948-.483-1.948-.649-3-.5-1.044-3.438-3.044-6.104-6-8-1.589-2.415-3.756-4.415-6.5-6-2.431-2.917-3.598-6.25-3.5-10h-3c.408-3.099-.759-5.433-3.5-7-2.411-4.225-4.244-8.725-5.5-13.5-.509-1.169-1.342-2.002-2.5-2.5-2.29-8.534-4.957-16.867-8-25-.667-15.667-.667-31.333 0-47 3.004-14.433 5.837-27.6 8.5-39.5-.968-4.116-1.801-8.283-2.5-12.5-.667-.667-1.333-1.333-2-2-.667-5.667-.667-11.333 0-17 1.812-2.78 3.979-5.28 6.5-7.5-1.884-.216-3.551-.883-5-2-7.667-.333-15.333-.667-23-1 5.991-.499 11.991-.666 18-.5 5.313.598 10.646.931 16 1 1.699-.16 3.366.007 5 .5-6.016.872-10.85 3.705-14.5 8.5-1.419 16.243 2.747 30.91 12.5 44 1.77-6.213 2.937-12.546 3.5-19 .333.333.667.667 1 1 3.989-8.097 2.489-9.097-4.5-3-.333-.333-.667-.667-1-1 3.435-4.702 8.102-6.702 14-6 6.459.892 12.792 2.392 19 4.5 15.614 10.481 31.614 20.481 48 30 1.759.798 3.426.631 5-.5 5.772-14.648 5.105-28.981-2-43-2.543-6.753-5.877-13.087-10-19-.825-.886-1.825-1.219-3-1 .149-1.052-.017-2.052-.5-3-3.188-4.185-6.688-8.018-10.5-11.5-2.596-1.136-5.263-1.969-8-2.5-6.423-1.286-12.589-.286-18.5 3-.49 1.293-.657 2.627-.5 4-1.373-.157-2.707.01-4 .5-1.317 1.659-2.983 2.826-5 3.5-.798-.457-1.131-1.124-1-2 4.737-4.547 10.07-8.38 16-11.5 4.241-1.457 8.574-1.791 13-1 5.162 1.834 9.828 4.501 14 8 3.909 4.399 7.576 8.899 11 13.5z" fill="#97989d"/><path d="m371.5 62.5c-1.068.935-2.401 1.268-4 1 .149 1.052-.017 2.052-.5 3-5.802 6.62-10.968 13.62-15.5 21 1.567-8.78 3.734-17.446 6.5-26 1.822-1.545 3.989-2.212 6.5-2 1.667.167 3.333.333 5 .5 1.256.417 1.923 1.25 2 2.5z" fill="#9698a6"/><path d="m295.5 27.5c11.576-.131 22.91.869 34 3-6.009-.166-12.009.001-18 .5 7.667.333 15.333.667 23 1 1.449 1.117 3.116 1.784 5 2-2.521 2.22-4.688 4.72-6.5 7.5-.667 5.667-.667 11.333 0 17 .667.667 1.333 1.333 2 2 .699 4.217 1.532 8.384 2.5 12.5-2.663 11.9-5.496 25.067-8.5 39.5-.667 15.667-.667 31.333 0 47 3.043 8.133 5.71 16.466 8 25 1.158.498 1.991 1.331 2.5 2.5 1.256 4.775 3.089 9.275 5.5 13.5 2.741 1.567 3.908 3.901 3.5 7-2.602-1.432-4.769-3.432-6.5-6-3.085-5.172-6.419-10.172-10-15-10.622-19.132-13.622-39.465-9-61 3.204-16.119 5.37-32.452 6.5-49-.113-4.567-1.113-8.9-3-13-2.241-1.739-3.908-3.906-5-6.5-3.559-1.228-6.892-2.894-10-5-36.556-10.856-73.89-14.856-112-12-29.234 2.135-56.567 10.135-82 24-2.653 1.655-4.986 3.655-7 6-1.892.973-3.892 1.64-6 2-2.478 4.48-6.145 7.48-11 9-3.958 4.304-8.291 8.137-13 11.5-2.59 4.759-6.09 8.759-10.5 12-1.298 3.354-3.464 5.688-6.5 7 .16 1.699-.007 3.366-.5 5-5.85 8.362-10.683 17.362-14.5 27-5.258 22.163-6.091 44.497-2.5 67 5 13.333 10 26.667 15 40 9.63 14.732 18.797 29.732 27.5 45 4.998 4.164 7.498 9.497 7.5 16 5.335 5.41 6.002 11.41 2 18-5.025 4.362-10.025 8.696-15 13-1.891 7.317-1.891 14.651 0 22 2.829 11.661 5.662 23.327 8.5 35 2.409 5.069 4.909 10.069 7.5 15 3.275 4.21 7.608 6.543 13 7 .283-3.242 1.117-3.576 2.5-1 2.107-2.555 3.44-5.555 4-9-3.486-14.449-4.819-29.116-4-44 1.602-6.788 2.769-13.788 3.5-21 1.333-.667 2.333-1.667 3-3 .333-2.667.667-5.333 1-8 4.788-10.909 10.622-21.242 17.5-31 1.189-.929 2.522-1.262 4-1-.299-2.104.034-4.104 1-6 5.509-7.695 11.009-15.361 16.5-23 3.934-10.137 7.268-20.47 10-31 .718 16.489-1.448 32.822-6.5 49 .209.586.543 1.086 1 1.5 11.187 5.216 23.021 7.382 35.5 6.5 14.096 2.171 25.429-2.163 34-13 2.954-11.769 6.288-23.435 10-35 2.998-3.659 4.332-7.659 4-12 7.559-10.096 14.892-20.429 22-31-1.356 7.418-3.356 14.751-6 22-5.616 27.774-6.783 55.774-3.5 84 3.416 17.415 7.083 34.748 11 52 2.442-.381 3.109.286 2 2 4.564 10.588 7.731 21.588 9.5 33 1.189 1.733 2.356 3.4 3.5 5-.053 3.833-.553 7.499-1.5 11 5.643 2.109 10.143 6.109 13.5 12-.876.751-1.876 1.251-3 1.5 2.508 1.819 5.341 2.653 8.5 2.5 4.811-.698 9.644-1.031 14.5-1v-12c.828 5.819 1.328 11.819 1.5 18 .671.752 1.504 1.086 2.5 1-1.068.934-2.401 1.268-4 1 .03-.997-.47-1.664-1.5-2-8.798 1.125-17.631 1.292-26.5.5-1.438-.219-2.771-.719-4-1.5-5.199-8.17-9.199-16.837-12-26-.952 1.545-1.285 3.212-1 5-2.085-2.184-3.085-4.851-3-8 1.165-.996 1.832-2.329 2-4-3.469-12.28-7.636-24.28-12.5-36-.469-6.178-1.636-12.178-3.5-18h-3c-2.146-7.606-4.813-14.94-8-22-4.655-16.39-6.155-33.056-4.5-50-1.308 3.23-2.308 6.564-3 10-.667 7.333-.667 14.667 0 22 2.074 6.388 4.24 12.721 6.5 19 1.008 3.344 2.008 6.677 3 10-22.679-1.501-45.345-3.334-68-5.5-10.911-2.034-21.578-4.701-32-8-2.616-.896-4.95-2.23-7-4 2.089-5.678 4.589-11.178 7.5-16.5.667-1 .667-2 0-3-6.009 11.362-12.509 22.362-19.5 33-8.48 20.17-11.314 41.17-8.5 63 .84 6.359 1.84 12.692 3 19 .234-6.333.068-12.666-.5-19 1.324 7.883 2.657 15.883 4 24-.661-1.218-1.328-2.551-2-4-.333 1.167-.667 2.333-1 3.5.531 2.817.864 5.65 1 8.5-10.041 1.331-20.041.997-30-1-1.649-1.148-3.149-2.481-4.5-4-3.896-7.237-6.73-14.903-8.5-23-.825-.886-1.825-1.219-3-1-1.352-5.746-3.686-11.079-7-16-.797.457-1.131 1.124-1 2-.904-.709-1.237-1.709-1-3 .647-.774.981-1.774 1-3-1.096-3.456-2.096-6.956-3-10.5.145-1.226.478-2.393 1-3.5-.774-1.211-1.607-1.211-2.5 0-2.857-7.982-1.857-15.315 3-22 7.018-4.495 10.851-10.828 11.5-19-.022-3.09-.688-5.757-2-8 .199-3.441-.301-6.774-1.5-10-12.35-17.05-22.85-35.05-31.5-54-.692-.525-1.192-1.192-1.5-2-.49 1.293-.657 2.627-.5 4-.809-1.528-1.476-3.194-2-5 1.098-1.101 1.265-2.434.5-4-2.715-4.807-5.048-9.807-7-15-1.943-8.599-3.61-17.265-5-26-.5-16.006-.333-32.006.5-48h3c.667-15.829 3.001-31.329 7-46.5.176-2.359-.491-2.859-2-1.5-.098-2.053.569-3.72 2-5-.219 1.175.114 2.175 1 3 5.812-12.334 13.478-23.501 23-33.5-.336-1.03-1.003-1.53-2-1.5.79-.901 1.79-1.568 3-2-.131.876.203 1.543 1 2 3.333-3 6.667-6 10-9 1.714 1.109 2.381.442 2-2 1.373.157 2.707-.01 4-.5-1.196-.654-1.196-1.154 0-1.5 3.505 1.186 5.505-.147 6-4h3v-3c2.104.299 4.104-.034 6-1 .875-2.272 2.542-3.272 5-3v-3c3.684.529 6.85-.471 9.5-3 10.76-4.096 21.927-6.262 33.5-6.5.457-.414.791-.914 1-1.5 11.901-2.385 23.901-4.052 36-5 37.32-2 74.653-2.333 112-1 2.667-.333 5.333-.667 8-1-2.806-.668-5.472-1.334-8-2z" fill="#b3b4bb"/><path d="m162.448 66.9217c1.699-.16 3.366.007 5 .5-10.369 6.851-21.036 13.184-32 19-3.544 3.375-6.877 6.875-10 10.5-5.02 3.1813-9.686 6.8483-14 11.0003-6.351 7.404-12.6835 14.737-18.9995 22-6.684 10.012-13.351 20.012-20 30 .808-6.045 2.642-12.045 5.5-18 .497-2.646.664-5.313.5-8 1.478.262 2.811-.071 4-1 1.995-4.66 4.495-8.994 7.5-13 1.11-1.537 2.61-2.203 4.5-2-.262-1.478.071-2.811 1-4 3.872-3.371 7.2045-7.204 9.9995-11.5 1.634-.493 3.301-.66 5-.5-.157-1.373.01-2.7073.5-4.0003 4.616-3.299 9.45-6.299 14.5-9 .886-.825 1.219-1.825 1-3 11.56-7.082 23.56-13.416 36-19z" fill="#adadad"/><path d="m246.5 329.5c0 .667-.333 1-1 1-2.26-6.279-4.426-12.612-6.5-19-.667-7.333-.667-14.667 0-22 .692-3.436 1.692-6.77 3-10-1.655 16.944-.155 33.61 4.5 50z" fill="#5e5e5e"/><path d="m79.5 319.5c-5.293-10.524-11.46-20.524-18.5-30-5.765-10.579-11.265-21.246-16.5-32-.157-1.373.01-2.707.5-4 .308.808.808 1.475 1.5 2 8.65 18.95 19.15 36.95 31.5 54 1.199 3.226 1.699 6.559 1.5 10z" fill="#97989d"/><path d="m375.5 255.5h4c.166 6.675 0 13.342-.5 20-3.411 6.005-5.744 12.338-7 19-1.667 1.667-3.333 3.333-5 5h-3c-1.783 2.345-2.783 5.012-3 8-1.758.969-2.258 2.136-1.5 3.5-5.925-.496-8.591 2.338-8 8.5h-3c1.936-8.968 3.936-17.968 6-27-1.175-.219-2.175.114-3 1-2.186 3.229-4.186 6.562-6 10-.195 5.053-2.028 9.387-5.5 13-.497 2.31-.663 4.643-.5 7-3.266-.067-4.766 1.599-4.5 5-.333-.333-.667-.667-1-1-.7 1.532-1.866 2.532-3.5 3-1.26 1.853-1.26 3.686 0 5.5-1.228.779-2.228 1.779-3 3 .914 1.406 1.58 2.906 2 4.5-1.31 1.648-2.643 3.314-4 5-.672 4.339-2.172 8.339-4.5 12-.827 4.041-.66 8.041.5 12 1.115-3.763 2.115-7.43 3-11-1.765 17.941-2.432 35.941-2 54-.667-13.191-1.5-26.524-2.5-40-.5 15.33-.667 30.663-.5 46v12c-4.856-.031-9.689.302-14.5 1-3.159.153-5.992-.681-8.5-2.5 1.124-.249 2.124-.749 3-1.5-3.357-5.891-7.857-9.891-13.5-12 .947-3.501 1.447-7.167 1.5-11 1.869 4.066 4.036 8.066 6.5 12 4.178 5.352 9.344 9.352 15.5 12 5.297-2.563 8.13-6.897 8.5-13 .333-17 .667-34 1-51 .417-7.903 2.25-15.403 5.5-22.5-.796-1.092-1.463-2.259-2-3.5 1.615-2.422 3.281-4.922 5-7.5 8.078-18.326 17.578-35.826 28.5-52.5l2-2c-.135 8.714-1.635 17.214-4.5 25.5.333.5.667 1 1 1.5 4.63-3.798 8.797-8.132 12.5-13 1.207-1.94 1.374-3.773.5-5.5 1.293-.49 2.627-.657 4-.5 3.287-10.395 4.62-21.062 4-32z" fill="#97989d"/><path d="m431.5 303.5c-4.073 4.318-8.573 8.318-13.5 12-3.331 6.506-6.165 13.173-8.5 20-.876.131-1.543-.202-2-1 .691-3.315 1.691-6.481 3-9.5-.333-.833-.667-1.667-1-2.5-8.613 3.645-17.28 6.979-26 10v3c-2.357-.163-4.69.003-7 .5-2.201 2.463-4.867 4.297-8 5.5-.751.876-1.251 1.876-1.5 3-5.588.262-10.755 2.262-15.5 6-1.545.952-3.212 1.285-5 1 .149 1.052-.017 2.052-.5 3-1 .333-2 .667-3 1-.49 1.293-.657 2.627-.5 4h-3c-.667-4.333-1.333-8.667-2-13-2.619-.268-5.119.065-7.5 1-2.526 4.414-4.359 9.08-5.5 14-.885 3.57-1.885 7.237-3 11-1.16-3.959-1.327-7.959-.5-12 2.328-3.661 3.828-7.661 4.5-12 1.357-1.686 2.69-3.352 4-5 2.96-5.905 6.46-11.571 10.5-17-1.733 4.8-4.066 9.466-7 14-.667 1.333-.667 2.667 0 4 20.369-5.002 40.202-11.502 59.5-19.5 3.899-1.779 7.565-3.779 11-6-.333-.333-.667-.667-1-1 4.885-3.297 10.218-5.631 16-7 3.291-1.717 6.291-3.883 9-6.5 1.236-.746 2.57-1.079 4-1z" fill="#a7a9b8"/><path d="m245.5 330.5c.667 0 1-.333 1-1 3.187 7.06 5.854 14.394 8 22h3c1.864 5.822 3.031 11.822 3.5 18 4.864 11.72 9.031 23.72 12.5 36-.168 1.671-.835 3.004-2 4-7.314-22.324-14.647-44.657-22-67-12.373-.051-24.706-.717-37-2-6.081-1.912-12.414-2.412-19-1.5-1.218 1.416-2.551 1.249-4-.5-13.961-1.614-27.627-4.614-41-9-2.977.977-4.977 2.977-6 6-.798-.457-1.131-1.124-1-2 .42-1.594 1.086-3.094 2-4.5-1.978-2.997-4.145-3.164-6.5-.5-4.292 7.245-7.459 14.912-9.5 23-1.803 5.142-3.303 10.475-4.5 16-.823 8.51-.657 16.844.5 25v7c.568 6.334.734 12.667.5 19-1.16-6.308-2.16-12.641-3-19-2.814-21.83.02-42.83 8.5-63 6.991-10.638 13.491-21.638 19.5-33 .667 1 .667 2 0 3-2.911 5.322-5.411 10.822-7.5 16.5 2.05 1.77 4.384 3.104 7 4 10.422 3.299 21.089 5.966 32 8 22.655 2.166 45.321 3.999 68 5.5-.992-3.323-1.992-6.656-3-10z" fill="#303030"/><path d="m212.5 340.5c-6.009-.201-12.009-.534-18-1-8.061 19.227-10.227 39.227-6.5 60 2.361 7.263 5.194 14.263 8.5 21-7.684 2.917-15.684 4.25-24 4-4.602-.589-8.769-2.256-12.5-5-.399.228-.565.562-.5 1-.951-1.419-1.284-3.085-1-5 1.129-2.128 1.296-4.461.5-7-1.333-2-2.667-4-4-6-1.685-6.412-3.518-12.745-5.5-19h-3c-2.261-7.195-5.094-14.195-8.5-21-1.759-5.217-2.426-10.551-2-16 2.393-2.182 3.393-4.849 3-8-.74 1.819-1.907 3.152-3.5 4 1.223-3.549 3.223-6.549 6-9-.131.876.202 1.543 1 2 1.023-3.023 3.023-5.023 6-6 13.373 4.386 27.039 7.386 41 9 1.449 1.749 2.782 1.916 4 .5 6.586-.912 12.919-.412 19 1.5z" fill="#b6b9ca"/><path d="m409.5 335.5c-9.091 28.178-11.091 56.844-6 86-.722-.418-1.222-1.084-1.5-2-.49 1.293-.657 2.627-.5 4-.768-.763-1.268-1.763-1.5-3-1.161-8.64-1.994-17.307-2.5-26 1.222-11.995 2.222-23.995 3-36-.302-2.559.032-4.893 1-7 2.662-6.275 4.328-12.942 5-20-2.091.182-4.091-.152-6-1-.952 1.545-1.285 3.212-1 5-17.941 8.136-28.441 22.136-31.5 42-.831 7.356-.665 14.689.5 22 2.898 10.861 6.231 21.528 10 32-2.87.252-5.203-.748-7-3-1.386-3.275-3.22-6.275-5.5-9-.497-2.31-.663-4.643-.5-7-3.266.067-4.766-1.599-4.5-5-1-.667-2-1.333-3-2-.774-3.647-1.441-7.314-2-11-7.256-9.425-11.589-20.091-13-32-.333-.333-.667-.667-1-1-.495 1.973-.662 3.973-.5 6-1.268-2.405-1.935-5.072-2-8h3c-.157-1.373.01-2.707.5-4 1-.333 2-.667 3-1 .483-.948.649-1.948.5-3 1.788.285 3.455-.048 5-1 4.745-3.738 9.912-5.738 15.5-6 .249-1.124.749-2.124 1.5-3 3.133-1.203 5.799-3.037 8-5.5 2.31-.497 4.643-.663 7-.5v-3c8.72-3.021 17.387-6.355 26-10 .333.833.667 1.667 1 2.5-1.309 3.019-2.309 6.185-3 9.5.457.798 1.124 1.131 2 1z" fill="#97989d"/><path d="m401.5 351.5c.313-2.747-.02-5.414-1-8-8.718 14.066-11.885 29.4-9.5 46 .389 6.221 1.722 12.221 4 18 .333-13.333.667-26.667 1-40 .511-2.378 1.178-4.712 2-7 .417-1.256 1.25-1.923 2.5-2-.778 12.005-1.778 24.005-3 36 .506 8.693 1.339 17.36 2.5 26 .232 1.237.732 2.237 1.5 3-.12 2.234.213 4.401 1 6.5-.32 1.653-1.32 2.653-3 3-6.653 1.474-13.319 1.641-20 .5-.363-.683-.696-1.35-1-2-3.769-10.472-7.102-21.139-10-32-1.165-7.311-1.331-14.644-.5-22 3.059-19.864 13.559-33.864 31.5-42-.285-1.788.048-3.455 1-5 1.909.848 3.909 1.182 6 1-.672 7.058-2.338 13.725-5 20z" fill="#b3b4bb"/><path d="m170.5 343.5c6.357-.024 12.69.31 19 1-1.397 4.933-2.897 9.933-4.5 15-2 13.333-2 26.667 0 40 3.682 6.544 5.848 13.544 6.5 21-6.643.712-13.309 1.046-20 1 .043-3.41-.457-6.743-1.5-10-10.906-16.045-15.906-33.711-15-53 3.139-7.31 8.306-12.31 15.5-15z" fill="#c1c4d5"/><path d="m328.5 306.5c1.175-.219 2.175.114 3 1-8.222 22.429-14.056 45.429-17.5 69-1.629-7.5-1.962-15.167-1-23 1.95-11.483 4.45-22.817 7.5-34 3.443-3.892 6.11-8.226 8-13z" fill="#97989d"/><path d="m401.5 351.5c-.968 2.107-1.302 4.441-1 7-1.25.077-2.083.744-2.5 2-.822 2.288-1.489 4.622-2 7-.333 13.333-.667 26.667-1 40-2.278-5.779-3.611-11.779-4-18-2.385-16.6.782-31.934 9.5-46 .98 2.586 1.313 5.253 1 8z" fill="#b6b9ca"/><path d="m114.5 367.5c-.83 7.849-1.663 15.849-2.5 24-6.19-28.424-1.19-54.424 15-78 .667 1.333.667 2.667 0 4-8.535 15.474-12.702 32.14-12.5 50z" fill="#5e5e5e"/><path d="m79.5 319.5c1.312 2.243 1.978 4.91 2 8-.649 8.172-4.482 14.505-11.5 19-4.857 6.685-5.857 14.018-3 22 .893-1.211 1.726-1.211 2.5 0-.522 1.107-.855 2.274-1 3.5.904 3.544 1.904 7.044 3 10.5-.019 1.226-.353 2.226-1 3-1.653-5.44-3.82-10.774-6.5-16-3.157-7.365-3.157-14.699 0-22 6.747-3.745 11.747-9.078 15-16 .499-3.986.666-7.986.5-12z" fill="#97989d"/><path d="m127.5 351.5c-1.24 5.341-1.24 10.674 0 16h-3c-.907 8.292-1.24 16.625-1 25-1.157-8.156-1.323-16.49-.5-25 1.197-5.525 2.697-10.858 4.5-16z" fill="#fde4df"/><path d="m182.5 353.5c.661 1.634.994 3.467 1 5.5-.382 10.65-1.215 21.15-2.5 31.5-5.009-12.645-4.509-24.978 1.5-37z" fill="#97989d"/><path d="m158.5 415.5c-.997.03-1.664-.47-2-1.5-7.707-19.244-15.54-38.41-23.5-57.5-1.089-5.056-.256-9.722 2.5-14 1.593-.848 2.76-2.181 3.5-4 .393 3.151-.607 5.818-3 8-.426 5.449.241 10.783 2 16 3.406 6.805 6.239 13.805 8.5 21h3c1.982 6.255 3.815 12.588 5.5 19 1.333 2 2.667 4 4 6 .796 2.539.629 4.872-.5 7z" fill="#303030"/><path d="m127.5 423.5v8c-6.672 4.103-14.005 5.769-22 5-5.46-.48-10.293-2.48-14.5-6-.399.228-.565.562-.5 1-6.737-14.097-13.07-28.431-19-43-.131-.876.203-1.543 1-2 3.314 4.921 5.648 10.254 7 16 1.175-.219 2.175.114 3 1 1.77 8.097 4.604 15.763 8.5 23 1.351 1.519 2.851 2.852 4.5 4 9.959 1.997 19.959 2.331 30 1-.136-2.85-.469-5.683-1-8.5.333-1.167.667-2.333 1-3.5.672 1.449 1.339 2.782 2 4z" fill="#5e5e5e"/><path d="m378.5 431.5c.304.65.637 1.317 1 2 6.681 1.141 13.347.974 20-.5 1.68-.347 2.68-1.347 3-3-.787-2.099-1.12-4.266-1-6.5-.157-1.373.01-2.707.5-4 .278.916.778 1.582 1.5 2 .368 3.597 1.368 6.931 3 10-.838.342-1.172 1.008-1 2-8.081 2.768-16.414 4.102-25 4-3.381.04-6.714-.293-10-1-12.972-21.574-22.639-44.574-29-69-.162-2.027.005-4.027.5-6l1 1c1.411 11.909 5.744 22.575 13 32 .559 3.686 1.226 7.353 2 11 1 .667 2 1.333 3 2-.266 3.401 1.234 5.067 4.5 5-.163 2.357.003 4.69.5 7 2.28 2.725 4.114 5.725 5.5 9 1.797 2.252 4.13 3.252 7 3z" fill="#303030"/><path d="m322.5 415.5c.685 8.316 1.018 16.649 1 25-.996.086-1.829-.248-2.5-1-.172-6.181-.672-12.181-1.5-18-.167-15.337 0-30.67.5-46 1 13.476 1.833 26.809 2.5 40z" fill="#303030"/><path d="m319.5 441.5c-6.969 2.602-14.302 3.602-22 3-2.813-.048-5.479-.715-8-2-.607.124-.94.457-1 1-6.732-7.458-11.398-16.125-14-26-.285-1.788.048-3.455 1-5 2.801 9.163 6.801 17.83 12 26 1.229.781 2.562 1.281 4 1.5 8.869.792 17.702.625 26.5-.5 1.03.336 1.53 1.003 1.5 2z" fill="#303030"/><path d="m196.5 420.5c.667 0 1 .333 1 1-.543.06-.876.393-1 1 2.37 2.552 3.703 5.552 4 9 3.752.806 4.752 2.972 3 6.5-1.759.798-3.426.631-5-.5-2.356-2.522-4.523-5.188-6.5-8-.429 2.169.071 4.169 1.5 6-.477.978-1.143 1.811-2 2.5-3 .667-6 .667-9 0-3.573-3.248-7.407-6.081-11.5-8.5-.613-1.995-.113-3.662 1.5-5 8.316.25 16.316-1.083 24-4z" fill="#6d524f"/><path d="m172.5 424.5c-1.613 1.338-2.113 3.005-1.5 5 4.093 2.419 7.927 5.252 11.5 8.5 3 .667 6 .667 9 0 .857-.689 1.523-1.522 2-2.5-1.429-1.831-1.929-3.831-1.5-6 1.977 2.812 4.144 5.478 6.5 8 1.574 1.131 3.241 1.298 5 .5 1.752-3.528.752-5.694-3-6.5-.297-3.448-1.63-6.448-4-9 .124-.607.457-.94 1-1 3.32 3.963 6.154 8.296 8.5 13 .667 1.667.667 3.333 0 5-2.405.774-4.905 1.274-7.5 1.5-.667.667-1.333 1.333-2 2-19.763 4.138-32.096-3.362-37-22.5-.065-.438.101-.772.5-1 3.731 2.744 7.898 4.411 12.5 5z" fill="#4f3534"/><path d="m405.5 433.5c2.595 5.011 5.595 9.845 9 14.5-2 .667-4 .667-6 0-2.276-3.781-5.276-6.615-9-8.5 1.259 2.96 2.592 5.96 4 9-2.944 3.076-6.444 3.743-10.5 2-5.325-3.733-10.491-7.566-15.5-11.5 1.237-.232 2.237-.732 3-1.5 8.586.102 16.919-1.232 25-4z" fill="#6d534c"/><path d="m127.5 431.5c.992-.172 1.658.162 2 1-.597.235-.93.735-1 1.5 1.063 2.898 2.73 5.398 5 7.5.966 1.896 1.299 3.896 1 6-2.027.162-4.027-.005-6-.5-1.791-2.414-3.457-4.914-5-7.5-.333.333-.667.667-1 1 4.446 8.391 2.113 11.557-7 9.5-4.191-1.084-7.691-3.251-10.5-6.5-1.033-2.717-.2-4.551 2.5-5.5-.916-.278-1.582-.778-2-1.5 7.995.769 15.328-.897 22-5z" fill="#6c5250"/><path d="m323.5 440.5c3.408 1.078 5.408 3.411 6 7-.111.617-.444 1.117-1 1.5 1.841 2.257 3.174 4.757 4 7.5-2.82.252-5.486-.248-8-1.5-1.833-2.5-3.667-5-5.5-7.5 1.629 3.677 2.463 7.677 2.5 12-11.213.064-19.213-4.936-24-15 7.698.602 15.031-.398 22-3 1.599.268 2.932-.066 4-1z" fill="#6c524f"/><path d="m406.5 431.5c4.039 4.744 7.039 10.077 9 16-.333 1-.667 2-1 3-10.751 5.098-21.751 5.265-33 .5-5.955-3.067-9.621-7.901-11-14.5 3.286.707 6.619 1.04 10 1-.763.768-1.763 1.268-3 1.5 5.009 3.934 10.175 7.767 15.5 11.5 4.056 1.743 7.556 1.076 10.5-2-1.408-3.04-2.741-6.04-4-9 3.724 1.885 6.724 4.719 9 8.5 2 .667 4 .667 6 0-3.405-4.655-6.405-9.489-9-14.5-.172-.992.162-1.658 1-2z" fill="#4c3533"/><path d="m105.5 436.5c.418.722 1.084 1.222 2 1.5-2.7.949-3.533 2.783-2.5 5.5 2.809 3.249 6.309 5.416 10.5 6.5 9.113 2.057 11.446-1.109 7-9.5.333-.333.667-.667 1-1 1.543 2.586 3.209 5.086 5 7.5 1.973.495 3.973.662 6 .5.299-2.104-.034-4.104-1-6-2.27-2.102-3.937-4.602-5-7.5.07-.765.403-1.265 1-1.5 4.481 4.961 7.314 10.628 8.5 17-12.498 5.485-24.998 5.318-37.5-.5-5.017-4.866-8.35-10.7-10-17.5-.065-.438.101-.772.5-1 4.207 3.52 9.04 5.52 14.5 6z" fill="#493433"/><path d="m297.5 444.5c4.787 10.064 12.787 15.064 24 15-.037-4.323-.871-8.323-2.5-12 1.833 2.5 3.667 5 5.5 7.5 2.514 1.252 5.18 1.752 8 1.5-.826-2.743-2.159-5.243-4-7.5.556-.383.889-.883 1-1.5 3.159 2.986 4.659 6.652 4.5 11-4.227.506-8.06 1.839-11.5 4-5.037.087-10.037-.246-15-1-10.783-1.236-17.116-7.236-19-18 .06-.543.393-.876 1-1 2.521 1.285 5.187 1.952 8 2z" fill="#4a3231"/><path d="m307.5 461.5c4.963.754 9.963 1.087 15 1-1.804.662-3.804.995-6 1-3.314.157-6.314-.509-9-2z" fill="#d3bebf"/></g><path d="m352.469 92.2188c-.459.1043-.787.4204-.719.7187-1.227 9.7305-1.94 19.5005-1.906 29.3125.022 6.412.426 12.799.937 19.188 1.184 14.797 3.763 29.469 7.938 43.718 1.478 5.044 3.431 9.96 5.437 14.813 2.521 6.095 5.256 12.092 8.188 18 3.6 7.254 7.464 14.396 11.625 21.343 2.449 4.091 4.973 8.123 7.75 12 2.055 2.87 4.187 5.707 6.343 8.5 1.75 2.267 3.539 4.482 5.438 6.626 9.787 11.051 23.41 22.614 39 22.656 2.431.006 4.814-.312 7.188-.813 1.201.171 2.362-1.214 2.624-3.062.263-1.849-.486-3.455-1.687-3.625-8.739 1.965-17.066-1.235-24.375-5.938-5.109-3.287-9.694-7.325-14-11.594-4-3.964-7.821-8.136-11.344-12.531-1.829-2.282-3.545-4.647-5.281-7-8.146-11.035-15.408-22.684-21.813-34.812-4.322-8.186-8.438-16.574-11.531-25.313-3.445-9.733-5.93-19.812-7.75-29.968-1.008-5.627-1.907-11.301-2.375-17-1.228-14.975-.628-29.983 1.25-44.8755-.068-.2983-.478-.4481-.937-.3437z" fill="#ddd"/><path d="m337.031 30.4375c-1.969-.325-3.757.4389-3.969 1.7187-5.275 8.3964-7.492 18.0662-8.156 27.875-.505 7.4551-.197 14.9516.594 22.375.539 5.0592 1.342 10.0851 2.031 15.125 1.583 11.5758 4.009 23.0708 6.688 34.4378 5.409 22.957 12.708 45.528 22.437 67.031 2.661 5.881 5.469 11.724 8.532 17.406 3.36 6.235 7.025 12.291 10.374 18.532 1.218 2.268 2.443 4.556 3.563 6.874 1.135 2.351 2.148 4.777 3.219 7.157.155.286.621.332 1.062.093.441-.238.687-.65.532-.937-1.074-2.387-2.081-4.831-3.219-7.187-1.125-2.329-2.371-4.628-3.594-6.907-4.266-7.947-9.017-15.62-13.063-23.687-2.019-4.028-3.745-8.232-5.437-12.406-9.183-22.654-15.616-46.429-19.937-70.469-1.794-9.976-3.023-20.007-4.25-30.0628-.824-6.7465-1.436-13.492-1.782-20.2812-.324-6.3734-.429-12.7613.125-19.125.751-8.623 2.691-17.3057 7.438-24.6562.211-1.2799-1.219-2.5813-3.188-2.9063z" fill="#ddd"/><path d="m343.062 89.3438c-2.778.8375-5.402 2.1838-8.062 3.3437-.017.0074-.004.2799 0 .5-.063-.2128-.002-.196 0 .125v.1875c.001.0238 0 .0413 0 .0625v.2187c.001.1046-.001.208 0 .3126.003.0083-.003.0229 0 .0312.007.3015.024.6047.031.9062.003.1269.028.2483.031.375.004.1346-.003.2718 0 .4063.084 3.346.165 6.6865.282 10.0315.504 14.465 1.912 28.963 4.437 43.218 1.629 9.198 4.057 18.317 6.657 27.282 5.376 18.543 12.463 36.696 21.843 53.594 4.572 8.235 9.521 16.318 15.281 23.781 3.68 4.766 7.715 9.211 12.032 13.406.198.257.667.211 1.062-.094.395-.304.542-.743.344-1-9.049-8.793-16.821-18.947-23.031-29.937-4.97-8.796-9.001-18.171-12.531-27.625-7.26-19.443-12.04-39.678-14.876-60.219-.402-2.918-.856-5.819-1.156-8.75-.417-4.089-.663-8.211-.906-12.312-.349-5.892-.648-11.79-.875-17.688-.165-4.305-.206-8.598-.25-12.9062-.013-1.2952-.021-2.6111-.031-3.9063.127-.412.124-.8237 0-1.2187-.004-.1465-.008-.3303 0-.5-.001-.1124 0-.2618 0-.375-.001-.0661-.006-.2534 0-.1876.003.0422-.026.1177-.032.1876-.004-.1478.039-.3078 0-.4376-.082-.2786.029-.8963-.25-.8124z" fill="#ddd"/><path d="m333.875 111.719c-.457.186-.715.578-.594.875 1.217 6.791 2.559 13.544 4.188 20.25 1.012 4.169 2.166 8.304 3.312 12.437 1.608 5.799 3.184 11.605 5 17.344 3.107 9.819 6.684 19.474 10.594 29 3.917 9.542 8.216 18.924 12.75 28.187 1.783 3.642 3.824 7.152 5.625 10.782 1.688 3.401 3.065 6.956 4.5 10.468 4.288 10.497 8.766 21.132 18.281 27.907 1.069 1.188 3.423.831 5.25-.813 1.828-1.644 2.444-3.937 1.375-5.125-8.945-6.1-13.283-16.307-17.687-25.812-1.897-4.094-3.981-8.07-6.25-11.969-4.297-7.381-8.756-14.638-12.813-22.156-9.681-17.941-17.945-36.73-24.25-56.125-1.32-4.061-2.394-8.205-3.437-12.344-1.893-7.507-3.417-15.068-4.781-22.687-.121-.298-.606-.405-1.063-.219z" fill="#ddd"/><path d="m332 85.0625c-.938-.2022-2.102-.1249-3.25.3125-2.295.8748-3.694 2.7894-3.125 4.2812 1.588 11.1638 3.865 22.2338 7.031 33.0628.913 3.12 1.941 6.197 2.969 9.281.735 2.204 1.419 4.433 2.187 6.625 2.144 6.112 4.637 12.116 7.126 18.094 6.23 14.965 13.127 29.629 20.187 44.219 2.808 5.802 5.744 11.576 8.219 17.531 2.192 5.276 4.142 10.671 6.844 15.719 1.712 3.199 3.731 6.159 6.062 8.937.187.266.684.257 1.094-.031.41-.289.562-.734.375-1-2.297-2.737-4.282-5.661-5.969-8.813-2.476-4.626-4.293-9.56-6.281-14.406-.869-2.117-1.813-4.212-2.719-6.313-2.207-5.113-4.291-10.285-6.406-15.437-5.468-13.321-10.841-26.694-15.532-40.313-2.117-6.147-4.039-12.348-5.843-18.593-.899-3.112-1.892-6.18-2.719-9.313-3.678-13.923-6.569-28.11-8.312-42.406-.285-.7459-1-1.2353-1.938-1.4375z" fill="#ddd"/><path d="m348.219 166.062c-.445.232-.682.68-.531.969 1.702 4.194 3.38 8.387 4.968 12.625.71 1.893 1.457 3.769 2.094 5.688 1.355 4.081 2.582 8.221 3.906 12.312 3.372 10.422 7.021 20.831 11.969 30.625.894 1.77 1.946 3.442 2.937 5.157 1.012 1.749 2.03 3.508 3.157 5.187 3.593 5.356 7.813 10.206 12.312 14.813.986 1.287 3.395 1.11 5.375-.407 1.981-1.517 2.799-3.806 1.813-5.093-9.645-9.195-18.051-19.705-24.719-31.25-3.483-6.03-6.485-12.33-9.312-18.688-1.988-4.467-3.929-8.944-5.782-13.469-.894-2.184-1.664-4.448-2.5-6.656-1.484-3.923-3.016-7.802-4.594-11.687-.15-.289-.649-.357-1.093-.126z" fill="#ddd"/><path d="m331.312 71.3125c-.552-.058-1.116-.1001-1.656.0313-.807.1965-1.6.5094-2.312.9374-.595.3574-1.089.8687-1.563 1.375-1.462 1.5613-1.16 3.8174-1.156 5.75.003 1.144-.065 2.2925-.063 3.4376.014 6.8805.344 13.7482 1.032 20.5942.367 3.654 1.006 7.313 1.594 10.937 1.101 6.792 2.332 13.529 3.812 20.25 1.447 6.571 3.041 13.102 4.812 19.594 1.261 4.617 2.663 9.187 4 13.781.809 2.776 1.577 5.574 2.407 8.344 1.673 5.587 3.488 11.107 5.375 16.625.143.291.645.376 1.094.156.448-.22.674-.646.531-.937-2.813-8.226-5.576-16.515-7.75-24.938-1.93-7.474-3.347-15.116-4.657-22.719-2.216-12.871-3.72-25.736-4.374-38.781-.137-2.711-.473-5.44-.469-8.1562.005-3.7322.217-7.4573.312-11.1876 1.192-.8763 2.02-1.9532 1.688-3-.113-3.0108 1.339-5.9624.437-8.9687-.404-1.3471-1.57-2.965-3.094-3.125z" fill="#ddd"/><path d="m347.906 184.625c-.974.067-2.064.468-3.062 1.219-1.996 1.501-2.82 3.796-1.844 5.094 7.59 7.589 14.353 15.933 20.969 24.374 1.342 1.713 2.614 3.494 3.937 5.219 3.188 4.156 6.431 8.249 9.656 12.375 5.35 6.842 10.84 13.621 16.876 19.875 4.525 4.69 9.373 8.991 14.531 12.969 2.418 1.865 4.85 3.698 7.406 5.375 4.544 2.982 9.331 5.436 14.313 7.594.23.207.681.104 1-.25.318-.355.386-.824.156-1.031-7.671-3.324-15.044-7.482-21.469-12.876-4.542-3.812-8.63-8.215-12.437-12.75-8.886-10.581-16.114-22.355-23.438-34.031-1.389-2.214-2.897-4.334-4.312-6.531-5.946-9.226-12.416-17.77-19.969-25.75-.488-.649-1.339-.942-2.313-.875z" fill="#ddd"/><path d="m431.531 273.281c-.932.185-1.941.714-2.812 1.563-1.743 1.698-2.26 3.992-1.157 5.125 1.999 1.037 3.965 2.165 6.032 3.062 2.565 1.114 5.147 2.158 7.75 3.188 2.149.85 4.328 1.703 6.531 2.406 1.327.423 2.666.761 4 1.156 2.182.646 4.301 1.361 6.531 1.844.243.168.648-.001.906-.375.259-.374.275-.801.032-.969-2.108-.456-4.324-.935-6.282-1.875-1.096-.526-2.178-1.261-3.187-1.937-2.057-1.38-4.017-2.926-5.875-4.563-.947-.834-1.814-1.75-2.781-2.562-.988-.83-1.944-1.717-2.969-2.5-1.415-1.081-2.919-2.023-4.406-3-.552-.567-1.38-.748-2.313-.563z" fill="#ddd"/><path d="m338.062 40.375c-.441.0307-.769.2758-.75.5625-1.677 4.7471-2.269 9.7368-2.781 14.7187-.24 2.3377-.537 4.6593-.75 7-.703 7.719-.908 15.5032-.719 23.25.079 3.1987.13 6.4411.469 9.625.129 1.2103.325 2.4165.469 3.625.822 6.9068 2.277 13.9748 6.156 19.8748.885 1.373 3.327 1.393 5.438.031 2.111-1.361 3.103-3.596 2.218-4.968-2.497-3.438-3.964-7.441-5.218-11.469-.996-3.1961-1.871-6.3825-2.563-9.6562-.627-2.9676-1.341-5.9121-1.843-8.9063-1.222-7.2829-1.898-14.6807-2.063-22.0625-.158-7.0721.405-14.4373 2.781-21.1562-.02-.2867-.402-.4995-.844-.4688z" fill="#ddd"/><path d="m333.531 27.6875c-.419-.0198-.768.1648-.781.4375-2.212 4.4121-3.341 8.8456-4.438 13.625-.654 2.8551-1.222 5.7233-1.624 8.625-1.05 7.5705-1.348 15.2673-1.282 22.9062.013 1.492.186 2.9797.25 4.4688.064 1.4687.088 2.9092.219 4.375.391 4.3669 1.124 8.7005 1.969 13 .636 1.48 2.973 1.8846 5.25.9062 2.277-.9783 3.604-2.9575 2.968-4.4374-1.023-4.0981-1.855-8.2413-2.718-12.375-.477-2.2828-1.007-4.51-1.375-6.8126-.377-2.3536-.901-4.671-1.25-7.0312-.771-5.2073-1.149-10.4868-1.125-15.75.014-3.1633.085-6.4116.656-9.5312.755-4.1192 2.125-8.1368 4-11.875.013-.2727-.299-.5115-.719-.5313z" fill="#ddd"/><path d="m348.594 92.5625c-.942-.1946-2.104-.1043-3.25.3437-2.292.8961-3.677 2.8539-3.094 4.3438 1.25 7.513 1.694 15.093 2.5 22.656 1.701 15.954 3.062 32.071 6.781 47.719.955 4.017 2.144 7.935 3.469 11.844 2.282 6.73 5.102 13.3 10.156 18.437.196.259.696.239 1.094-.062s.54-.773.344-1.032c-8.992-9.137-11.679-22.705-13-35-.842-7.831-1.276-15.686-1.406-23.562-.063-3.74-.024-7.51-.063-11.25-.017-1.608-.112-3.204-.125-4.812-.019-2.357.048-4.706 0-7.063-.143-7.059-.531-14.125-1.469-21.125-.291-.745-.995-1.2429-1.937-1.4375z" fill="#ddd"/><path d="m337.094 84.125c-.452.2104-.7.6127-.563.9062 2.037 6.9453 1.069 14.1649 1.688 21.2808.238 2.746.568 5.505.812 8.25.9 10.099 1.782 20.184 3 30.25 1.035 8.549 2.139 17.162 4.188 25.532.601 2.455 1.133 4.939 1.812 7.375 2.341 8.398 5.792 16.694 11.407 23.437.942 1.328 3.363 1.232 5.406-.218 2.042-1.451 2.943-3.704 2-5.032-4.395-4.967-7.345-10.867-9.844-16.968-1.284-3.134-2.542-6.323-3.625-9.532-.57-1.69-.998-3.415-1.5-5.125-1.443-4.91-2.862-9.796-4.031-14.781-2.368-10.097-4.17-20.337-5.875-30.562-.627-3.759-1.282-7.513-1.844-11.282-.673-4.515-.37-9.1122-.531-13.656-.118-3.3112-.506-6.538-1.438-9.7188-.136-.2935-.611-.3666-1.062-.1562z" fill="#ddd"/><path d="m333.594 57.2812c-.459.1803-.742.5459-.625.8438.439 2.8448 1.083 5.6852 1.5 8.5312.335 2.2948.554 4.5853.937 6.875.952 5.6871 2.267 11.3677 4.438 16.7188 1.107 2.7307 2.716 5.2464 4.344 7.6875.899 1.3616 3.342 1.3219 5.437-.0625s3.056-3.6071 2.156-4.9688c-1.753-2.1965-3.353-4.498-5.031-6.75-1.624-2.1802-3.175-4.438-4.562-6.7812-1.665-2.811-3.06-5.7862-4.282-8.8125-.614-1.5212-1.229-3.0793-1.687-4.6563-.792-2.7241-1.131-5.6401-1.563-8.4374-.117-.2979-.604-.3678-1.062-.1876z" fill="#ddd"/><path d="m333.438 52.625c-.459.1754-.739.5454-.626.8438.432 3.23 1.004 6.475 1.313 9.7187.192 2.0165.233 4.043.406 6.0625.631 7.3568 1.652 14.8853 4.407 21.7812 1.263 3.1629 3.168 6.043 5.25 8.7188.936 1.333 3.355 1.253 5.406-.1875 2.05-1.441 2.968-3.6984 2.031-5.0313-4.19-4.6352-7.682-10.0132-10.344-15.6562-1.631-3.4595-2.856-7.0864-3.937-10.75-.544-1.8428-1.108-3.7429-1.5-5.625-.662-3.1752-.946-6.4433-1.375-9.6562-.114-.2984-.573-.3942-1.031-.2188z" fill="#ddd"/><path d="m333.875 125.844c-.451.211-.7.613-.563.906 1.373 4.629 2.68 9.389 3.313 14.188.444 3.368.67 6.77.937 10.156.804 10.172 1.339 20.493 4.063 30.375 1.353 4.908 3.554 9.53 6.125 13.906.857 1.39 3.299 1.444 5.438.125 2.138-1.319 3.169-3.516 2.312-4.906-5.171-7.867-8.787-16.691-11.375-25.719-1.543-5.382-2.643-10.879-3.844-16.344-.713-3.245-1.552-6.464-2.219-9.719-.885-4.326-1.868-8.576-3.124-12.812-.138-.293-.612-.367-1.063-.156z" fill="#ddd"/><path d="m397.812 258.688c-.179-.273-.674-.246-1.093.031s-.618.696-.438.969c1.814 2.487 3.759 4.932 5.5 7.468 1.044 1.521 1.991 3.111 3 4.656 1.408 2.154 2.88 4.273 4.407 6.344 2.187 2.967 4.454 5.931 7.25 8.344.85.734 1.657 1.497 2.593 2.125 1.836 1.232 4.34 2.665 6.625 2.094 1.231-.308 2.136-.804 3.094-1.625 1.711-1.466 2.245-3.671 1.875-5.813-.154-.894-.489-1.738-1.031-2.469-.924-1.343-3.339-1.295-5.406.126-.565.388-.808.899-1.188 1.374-1.155-.567-2.214-1.261-3.312-1.937-1.299-.8-2.571-1.633-3.782-2.563-3.072-2.36-5.93-4.968-8.687-7.687-1.318-1.299-2.703-2.592-3.907-4-1.989-2.328-3.695-4.964-5.5-7.437z" fill="#ddd"/><path d="m424.188 276.906c-.981.014-2.083.364-3.126 1.063-2.085 1.397-3.064 3.644-2.156 5 .976 1.135 2.01 2.148 3.25 3 1.001.686 2.081 1.117 3.188 1.593 3.326 1.431 7.116 2.097 10.687 2.626 1.157.171 2.352.226 3.5.437 1.653.304 3.295.799 4.938 1.156.243.168.647-.001.906-.375.259-.373.274-.8.031-.968-1.595-.347-3.356-.614-4.906-1.157-1.261-.441-2.49-1.168-3.656-1.812-2.91-1.607-5.427-3.642-7.625-6.125-.989-1.117-1.943-2.177-2.75-3.438-.454-.678-1.301-1.013-2.281-1z" fill="#ddd"/><path d="m424.688 281.938c-.975.061-2.092.472-3.094 1.218-2.005 1.492-2.845 3.759-1.875 5.063 1.207 1.113 2.456 2.177 3.906 2.969.714.389 1.486.628 2.25.906.362.131.726.291 1.094.406 1.126.351 2.362.504 3.531.625 3.52.364 6.859-.123 10.281-.906 1.821-.417 3.636-.78 5.438-1.281.234.01.421-.265.437-.626.017-.36-.14-.645-.375-.656-1.654.461-3.397.995-5.125 1.063-2.524.099-5.328-.497-7.531-1.75-2.548-1.45-4.783-3.908-6.625-6.157-.485-.651-1.338-.936-2.312-.874z" fill="#ddd"/><path d="m435.625 282.688c-.962.113-2.047.582-3 1.374-1.906 1.585-2.592 3.887-1.563 5.126 1.07.756 2.135 1.45 3.344 1.968.636.273 1.331.454 2 .625 3.324.852 6.836.987 10.25.657.991-.096 1.983-.313 2.969-.438 1.493-.189 2.956-.267 4.437-.562.242.04.5-.254.563-.626.063-.371-.102-.677-.344-.718-1.318.263-2.741.586-4.093.5-1.012-.065-2.073-.407-3.032-.719-2.419-.786-4.521-2.19-6.375-3.906-.934-.865-1.935-1.635-2.843-2.531-.515-.62-1.351-.864-2.313-.75z" fill="#ddd"/><path d="m445 284.312c-1.121.025-2.433.895-3.312 2.313-1.174 1.891-1.105 4.05.124 4.813.649.014 1.484.062 2.126-.032 2.228-.324 4.458-1.264 6.468-2.25.63-.309 1.157-.623 1.813-.875.569-.219 1.143-.392 1.719-.593.225-.018.402-.31.374-.657-.027-.347-.243-.611-.468-.593-3.903-.925-2.313-.952-3.906-.907-1.106.032 2.156.601 3.093 1.188.23.143-.514.205-.781.25-.523.087-.933-.008-1.438-.125-1.089-.253-1.978-.784-2.906-1.375-.181-.116-.311-.271-.5-.375-.193-.107-.841-.296-.625-.25 2.365.499-.015-.008-.75-.25-.307-.191-.657-.29-1.031-.282z" fill="#ddd"/><path d="m458.25 283.312c-3.744.496-2.173-.113-3.75.5-.805.313 1.767-.085 2.562.25.411.174-.869.23-1.312.282-.839.097-1.66-.034-2.5-.125-.397-.043-1.612-.054-1.219-.125 2.051-.374.004.028-1.281.218-1.126.095-1.927 1.55-1.781 3.282.146 1.731 1.187 3.063 2.312 2.968 3.823-3.147 1.971-2.064 3.813-3.156.968-.574-1.675 1.525-2.375 2.406-.376.473.957-.753 1.406-1.156.864-.774 1.62-1.645 2.437-2.468.371-.374 1.531-1.429 1.126-1.094-2.169 1.79.011-.005 1.25-.813.173-.123.158-.452-.032-.719-.189-.266-.483-.373-.656-.25z" fill="#ddd"/><path d="m457.188 280.875c-.394-.066-.77.088-.813.344-3.553 3.244-2.439 1.751-3.531 3.219-.683.917 1.745-1.452 2.75-2 .502-.275-.793.804-1.219 1.187-1.103.992-2.31 1.842-3.5 2.719-.213.157-.447.275-.656.437-.168.13-.626.58-.469.438 2.207-2.005.014-.008-.469.469-.309 1.213.947 2.587 2.813 3.062s3.628-.131 3.937-1.344c.821-3.693.184-2.753.813-3.812-.021-.568-.012-1.142.031-1.719.031-.421.25-1.668.187-1.25-.338 2.261-.009-.002.75-1.187.044-.256-.231-.497-.624-.563zm-.344 4.719c.014.372-.011.753-.032 1.125.246-1.018.43-1.84.094-1.281-.068.113-.013.072-.062.156zm-.032 1.125c-.175.726-.37 1.568-.406 2.031-.021.272.238-.488.313-.75.069-.241.058-.502.093-.75.025-.176-.009-.356 0-.531z" fill="#ddd"/><path d="m462.781 270.969c-2.2.138-3.902 1.413-3.812 2.843-.281.972-.797 1.931-1.219 2.844-.687 1.489-1.417 2.959-2.188 4.406-.472.888-.933 1.762-1.437 2.626-.329.168-.671.331-1 .5-1.645.844-4.078 1.865-5.375 3.25-.186.198-.396.388-.531.624-.202.353-.431.721-.469 1.126-.039.411.107.83.25 1.218.046.124.158.214.25.313.008.005-.008.026 0 .031.005.005.027-.005.031 0 .036.038.06.086.094.125 1.803 2.03 4.611 1.311 6.813.031.52-.081 1.058-.023 1.562-.187 3.591-1.171 5.773-4.868 6.688-8.344.055-.211.041-.631.093-.937.398-.646.875-1.252 1.25-1.907 1.148-2.001 2.298-4.058 3.125-6.219-.09-1.43-1.925-2.482-4.125-2.343zm-4.093 15.719c-.196.377-.349.806-.594 1.124-.324.421-.798.603-1.219.876.649-.626 1.226-1.318 1.813-2z" fill="#ddd"/><path d="m447.344 292.312c.004.308.253 1.974 0 .282.138.795.135 1.636.375 2.406.226.727-.012-.061-.375-2.688zm.062 1.126c.026.346.03.685.063 1.031.014.147.047.291.062.437-.05-.489-.088-.978-.125-1.468zm.656 4.25c.014.136.05.269.063.406-.254-1.939.006.006-.031-.406-.002-.002-.031-.001-.032 0zm-.124.718c.032.241.087.629.124.875.018.111.044.202.063.313-.086-.405-.141-.837-.187-1.188zm.218.063c.031.355.041.706.063 1.062.006.107.028.206.031.313-.003-.101.006-.214 0-.313-.021-.352-.061-.709-.094-1.062z" fill="#ed4d4d"/><path d="m452.312 294.688c-1.298.712-.826.417-1.312.718-.2.124.421-.259.656-.281.144-.013-.223.17-.344.25-.074.049-.172.111-.25.156-.248.145-.516.231-.781.344-.055.023-.101.039-.156.063-.063.027-.247.127-.187.093.79-.45-.004 0-.219.094-.029.035.127.2.343.375.217.175.409.285.438.25 1.301-.714.64-.321 1.281-.719.355-.219-.705.411-1.062.625-.059.035.125-.035.187-.062.102-.044.211-.113.313-.156.306-.13.596-.254.875-.438.12-.08.475-.311.344-.25-.663.308.01.002.656-.438.028-.035-.127-.2-.344-.374-.217-.175-.409-.286-.438-.25z" fill="#ed4d4d"/><path d="m450.125 295.625c.513 1.17.656 1.317.875 1.687-.02-.235-.014-.482-.031-.718-.006-.081-.026-.17-.031-.25-.002-.028-.012-.088 0-.063 1.058 2.375.004-.009 0-.062.026-.036-.154-.21-.376-.375-.221-.166-.41-.255-.437-.219zm.875 1.687c.032.378.156.727.188 1.126.123.32.135.146.218.312.036-.081.09-.159.125-.25-.062-.122-.32-.83-.531-1.188zm.531 1.188c.071.14.138.18.188.719.033.357-.189-.223-.313-.469-.023.053-.068.111-.094.156-.006.012-.024.019-.031.032-.03-.169-.08-.323-.093-.5-.352-.912-.778-2.122-1.063-2.75-.027-.059.027.123.031.187.007.099-.007.181 0 .281.024.327.063.643.094.969.081.852.237 1.596.656 2.187-.063.003-.154.004-.125.032.1.095.225.178.344.25.141.127.162.311.375.406.508.226.904-1.249 1.062-1.438.037-.043.092-.077.126-.124.034.147.069.313.093.437.121.623.206 1.244.281 1.875.299.742.671 1.646.969 2.062.199.277-.054-.692-.093-1.031-.046-.396-.104-.792-.157-1.187-.103-.776-.329-1.699-.843-2.375.066-.01.127-.032.156-.031-.208-.177-.405-.373-.625-.532-.029-.021-.032-.074-.063-.094-.006-.004-.025.005-.031 0-.012-.009-.02-.021-.031-.031-.054-.03-.113.017-.188.031-.049.01-.148-.033-.125 0 .011.01.021.022.031.032-.289.176-.399.564-.531.906zm1.531 2.25c-.353-.878-.618-1.541-.562-.938.079.862.244 1.038.656 1.75-.036-.199-.017-.252-.031-.374-.017-.147-.045-.291-.063-.438zm.094.812c.064.35.165.848.063.657-1.149-2.138.006-.01.062.593-.027.036.123.21.344.376.221.165.442.254.469.218-.548-1.249-.718-1.464-.938-1.844z" fill="#ed4d4d"/><path d="m453.406 302.312c-.028.033.115.201.313.376.197.174.377.282.406.25 1.267.063.629.124 1.25.062.35-.035-.68-.013-1.031 0-.064.002.094.016.156.031.054.014.134.049.188.063.334.088.679.24 1.031.187.112-.017.455-.039.343-.062-.635-.132-.008-.025.594-.157.029-.034-.13-.199-.344-.374-.213-.176-.408-.285-.437-.25-1.238-.062-.767-.11-1.25-.063-.22.022.489.042.656.187.085.074-.232.077-.343.094-.33.05-.656-.105-.969-.187-.055-.015-.102-.049-.157-.063-.062-.016-.252-.032-.187-.031.755.009-.005-.011-.219-.063z" fill="#ed4d4d"/><path d="m455.344 298.25c.07.152.003.021.062.156-.031-.063.044.12.063.188.022.082.042.167.062.25.077.305.154.63.219.937.144.68.267 1.351.406 2.031.105.514.16.796.282 1.032-.003.012-.006.04 0 .031.006.005.024-.005.031 0-.004.006.026.026.031.031.016.014.015.049.031.063.094.131.176.244.407.406.009.006.156.068.25.094.011.009.019.022.031.031.008 0 .025.003.031 0 .049-.154.009-.389 0-.531-.008-.116.012-.236-.031-.344-.294-.738-.287-.722-.219-.594-.044-.047-.051-.096-.125-.156-.093-.541-.244-1.058-.344-1.531-.065-.309-.111-.6-.187-.906-.054-.216-.126-.492-.125-.469.038.869-.006.002-.063-.157.026-.035-.124-.185-.344-.343-.219-.159-.442-.255-.468-.219z" fill="#ed4d4d"/><path d="m457.656 297.406c-1.101.279-.673.164-1.094.282-.166.046.327-.093.5-.094.03 0-.479.142-.531.156-.207.056-.414.083-.625.125-.092.019-.372.086-.281.063.677-.178.014-.004-.156.031-.029.035.13.199.343.375.214.176.409.285.438.25.155-.04.059-.007.156-.032.051-.013.08-.01.156-.031.081-.016.17-.015.25-.031.245-.049.48-.116.719-.188.11-.032.425-.118.313-.093-.541.118.002-.01.594-.188.028-.035-.13-.199-.344-.375-.215-.175-.409-.285-.438-.25z" fill="#ed4d4d"/><path d="m457.312 293.531c.104 1.771.042.797.094 1.781.011.196-.028-.787 0-.593.058.387.13 1.578.094 1.187-.072-.784-.017.002 0 1.188-.027.036.123.177.344.344.221.166.441.285.468.25-.103-1.773-.072-.795-.124-1.782-.011-.197.092.791.093.594.003-.393-.068-1.58-.062-1.188.011.788-.017-.004-.125-1.187.027-.036-.123-.178-.344-.344-.221-.165-.411-.286-.438-.25z" fill="#ed4d4d"/><path d="m457 294.031c-1.17.167-.707.079-1.156.157-.184.031.377-.051.562-.032.115.012-.23.041-.344.063-.07.013-.147.02-.218.031-.227.036-.459.043-.688.062-.101.009-.413.047-.312.032.718-.109-.002-.017-.188 0-.029.034.133.23.344.406s.409.284.438.25c.19-.027.077-.016.187-.031-.053.009.102.005.156 0 .088-.008.163-.024.25-.031.263-.023.522-.045.781-.094.114-.022.459-.075.344-.063-.579.061.013-.004.625-.125.029-.034-.13-.199-.343-.375-.214-.176-.409-.285-.438-.25z" fill="#ed4d4d"/><path d="m454.438 292.125c-.015 1.135.062.722 0 1.156-.027.188-.027-.424-.157-.562-.076-.082-.039.203-.062.312-.065.305.029.611.093.907.022.098.058.381.063.281.035-.696-.004.007.031.187-.026.036.123.181.344.344s.442.286.469.25c.014-1.124-.081-.56 0-1.125.044-.311.002.625-.031.937-.006.054-.021-.103-.032-.156-.018-.085-.043-.164-.062-.25-.057-.252-.149-.49-.094-.75.023-.108.077-.422.094-.312.082.55.011-.011.156-.594.028-.036-.154-.205-.375-.375s-.41-.286-.437-.25z" fill="#ed4d4d"/><path d="m460.781 289.875c-.716-.258-1.563-.12-2.281.031-1.37.288-2.666.85-4.031 1.156-.029.035.13.199.343.376.214.176.409.284.438.25.465.49.528.39.875.687-.137-.26-.327-.601-.437-.781-.085-.138.313-.08.468-.125.166-.048.335-.106.5-.157.348-.107.684-.205 1.032-.312 1.15-.354 2.254-.678 3.468-.562.207.019.278.09.438.156.01.004.02-.005.031 0 .909 1.285 2.203 3.2 1.687 4.844-.21.671-.68 1.243-1.187 1.718-.147.138-.279.501-.437.375-2.272-1.798-.008-.007-.532.375-.028.036.126.232.344.406.218.175.409.286.438.25.898-.654 1.81-1.396 2.156-2.5.438-1.399-.296-2.495-.938-3.656-.578-1.044-1.172-2.098-2.375-2.531zm-4.656 2.5c.746 1.415 1.712 3.532 2.063 2.437.364-1.138-.209-.847-2.063-2.437z" fill="#ed4d4d"/><path d="m461.438 298.125c-.021.016.029.126.124.25.021.027.012.04.032.063-.001.002.032-.003.031 0 .063.069.142.167.156.156.014.018.044.042.063.062 1.878 1.864 1.087 1.176 2.062 2.032.366.321-.415-.505-.968-1.094.309.223.617.448.937.656.26.316.537.588.781.906.032.041.047.067.094.125.455.441.8.791 1.25 1.125.267.199-.391-.517-.594-.781-.194-.253-.397-.499-.594-.75.149.101.293.207.438.313.066.066.159.119.219.187.166.188.158.509.343.687.245.236.499.468.782.657.078.052.344.101.375-.063.055-.288-.425-.689-.594-.844-.381-.348-.827-.632-1.25-.937-.605-.523-1.196-1.062-1.844-1.531-.202-.147-.418-.298-.625-.438-.104-.07-.162-.082-.312-.187-.053-.038-.062-.074-.094-.094-.038-.019-.079-.002-.125-.031-.08-.052-.137-.022-.219-.063-.175-.15-.336-.323-.468-.406zm.968.813c.017.009.047.055.063.062-.005-.004-.027.005-.031 0-.014-.012-.017-.049-.032-.062zm.156.156c.122.081.232.143.344.218.142.096.287.205.438.313-.071-.046-.148-.079-.219-.125-.219-.143-.368-.266-.563-.406zm2.282 2.312c.263.317.654.761.468.594-1.22-1.095.018.021.719.781-.015.028.109.124.281.219.173.095.329.153.344.125-1.793-1.715-1.604-1.523-1.812-1.719z" fill="#ed4d4d"/></svg>