<svg width="244" height="101" viewBox="0 0 269 126" fill="none" xmlns="http://www.w3.org/2000/svg">
<g filter="url(#filter0_d_1_20)">
<rect x="19.5" y="12.5" width="232" height="82" fill="#ADE8E8" stroke="black" style="fill:#ADE8E8;fill:color(display-p3 0.6780 0.9093 0.9093);fill-opacity:1;stroke:black;stroke:black;stroke-opacity:1;" stroke-width="5"/>
<path d="M15 10H254L31 22L17 97L15 10Z" fill="#86E9FF" style="fill:#86E9FF;fill:color(display-p3 0.5236 0.9143 1.0000);fill-opacity:1;"/>
<path d="M15 10H254L31 22L17 97L15 10Z" fill="#86E9FF" style="fill:#86E9FF;fill:color(display-p3 0.5236 0.9143 1.0000);fill-opacity:1;"/>
<path d="M15 10H254L31 22L17 97L15 10Z" stroke="black" style="stroke:black;stroke:black;stroke-opacity:1;" stroke-width="5"/>
<path d="M254 106L15 97L238 85L254 16.5V106Z" fill="#25DEC8" style="fill:#25DEC8;fill:color(display-p3 0.1441 0.8712 0.7840);fill-opacity:1;"/>
<path d="M254 106L15 97L238 85L254 16.5V106Z" fill="#25DEC8" style="fill:#25DEC8;fill:color(display-p3 0.1441 0.8712 0.7840);fill-opacity:1;"/>
<path d="M254 106L15 97L238 85L254 16.5V106Z" stroke="black" style="stroke:black;stroke:black;stroke-opacity:1;" stroke-width="5"/>
</g>
</svg>