<svg xmlns="http://www.w3.org/2000/svg" xmlns:xlink="http://www.w3.org/1999/xlink" height="634" stroke-miterlimit="10" style="fill-rule:nonzero;clip-rule:evenodd;stroke-linecap:round;stroke-linejoin:round" width="834" version="1.1" viewBox="0 0 625.5 475.5" xml:space="preserve"><g id="Layer-1"><path fill="none" stroke="#000" stroke-linecap="round" stroke-linejoin="round" stroke-width="50.249" d="M242.427 139.651C240.841 139.472 237.262 136.681 237.88 138.153C248.584 163.654 214.325 155.655 217.214 136.184C217.875 131.728 299.066 85.2618 286.389 74.7941C278.839 68.5597 198.136 79.6984 198.291 78.7973C199.797 70.0843 253.474 68.075 262.524 67.6441C272.257 67.1808 300.223 69.6304 291.638 65.0201C279.474 58.4869 254.339 62.4135 241.519 64.5487C233.037 65.9613 207.742 70.6254 215.975 68.1457C223.729 65.8103 315.989 56.7594 282.987 55.3364C274.938 54.9893 261.191 64.5788 258.868 56.8654C254.286 41.653 320.464 61.9261 306.467 54.4091C288.039 44.5122 250.769 55.0604 230.351 56.0324C216.563 56.6887 183.14 75.9395 189.671 63.7786C198.71 46.9482 251.676 72.429 246.166 54.1366C244.763 49.4782 190.202 54.1036 182.599 55.2578C175.083 56.3986 153.666 56.7199 160.363 60.3165C170.541 65.7828 204.497 58.8329 194.319 53.3666C174.715 42.8383 108.259 76.0095 129.565 69.5923C145.977 64.6491 178.2 52.8957 178.2 52.8957C178.2 52.8957 159.696 56.7139 150.48 58.7868C125.579 64.3875 79.5894 72.5481 128.171 66.3252C145.394 64.1191 103.2 99.2594 110.116 115.186C133.043 167.988 132.627 238.892 149.648 295.405" opacity=".999"/><g opacity=".999"><path fill="#000" stroke="none" d="M314.844 45.4062C312.722 45.3345 310.953 46.4022 310.906 47.7812C305.206 59.5281 301.429 71.9907 299.344 84.875C298.721 88.723 298.259 92.6181 297.906 96.5C297.589 99.9916 297.428 103.482 297.062 106.969C295.573 121.185 295.502 135.599 296.625 149.844C297.442 160.203 298.943 170.461 300.938 180.656C303.884 195.72 308.037 210.524 313.406 224.906C315.663 230.95 318.008 237.061 320.812 242.875C321.504 244.308 322.231 245.732 323 247.125C324.021 248.975 325.229 250.707 326.344 252.5C327.449 254.279 328.529 256.103 329.594 257.906C331.709 261.489 333.755 265.126 336.156 268.531C341.728 276.433 348.328 283.568 355.562 289.969C358.932 292.95 362.415 295.812 366.094 298.406C372.639 303.021 379.637 306.824 386.938 310.094C392.757 315.234 403.874 312.141 411.781 303.188C419.689 294.234 421.382 282.828 415.562 277.688C406.976 274.396 399.05 270.167 391.5 264.906C384.482 260.016 378.048 254.312 371.875 248.406C368.081 244.777 364.174 241.217 360.625 237.344C359.32 235.92 358.047 234.411 356.875 232.875C355.387 230.925 354.067 228.846 352.562 226.906C349.804 223.349 347.002 219.813 344.375 216.156C341.415 212.035 338.683 207.75 336.062 203.406C332.62 197.699 329.543 191.739 326.688 185.719C319.239 170.012 313.645 153.497 310 136.5C308.344 128.778 307.103 120.962 306.406 113.094C306.069 109.292 305.721 105.414 305.781 101.594C305.857 96.8492 306.428 92.041 307.062 87.3438C308.907 73.6943 312.573 60.4376 318.594 48.0312C318.64 46.6522 316.965 45.478 314.844 45.4062Z"/></g><g opacity=".999"><path fill="#000" stroke="none" d="M314.5 44.6562C305.84 45.1499 299.008 49.5901 298.562 55.5C294.447 63.8144 291.21 72.4248 289.344 81.5312C287.7 89.5536 286.91 97.7838 287.438 105.969C287.657 109.375 288.333 112.717 288.781 116.094C288.931 117.225 289.116 118.368 289.25 119.5C289.432 121.036 289.453 122.595 289.688 124.125C289.859 125.246 290.159 126.362 290.406 127.469C291.07 130.439 292.004 133.345 292.906 136.25C294.275 140.659 295.755 145.03 297.312 149.375C303.344 166.196 310.854 182.466 318.906 198.406C321.648 203.835 324.486 209.223 327.281 214.625C328.469 216.921 329.786 219.204 330.844 221.562C331.443 222.898 331.935 224.293 332.469 225.656C333.522 228.344 334.576 231.03 335.625 233.719C339.135 242.718 342.55 251.758 345.656 260.906C346.373 262.372 348.776 262.665 351.031 261.562C353.286 260.46 354.529 258.372 353.812 256.906C350.802 248.041 347.515 239.288 344.125 230.562C342.949 227.536 341.747 224.523 340.562 221.5C340.029 220.138 339.435 218.793 338.969 217.406C338.611 216.342 338.358 215.208 338.062 214.125C337.461 211.918 336.844 209.709 336.25 207.5C334.33 200.365 332.566 193.2 330.906 186C327.294 170.335 324.189 154.517 322.906 138.469C322.542 133.908 322.331 129.295 322.344 124.719C322.351 122.083 322.494 119.476 322.594 116.844C322.649 115.391 322.728 113.922 322.719 112.469C322.712 111.424 322.617 110.358 322.594 109.312C322.562 107.905 322.641 106.497 322.75 105.094C323.048 101.259 323.895 97.4144 324.531 93.625C325.535 87.6446 326.663 81.6733 328.469 75.875C330.384 69.7261 332.98 63.9179 336.188 58.3438C336.697 51.5895 328.704 45.5026 318.312 44.7188C317.014 44.6208 315.737 44.5857 314.5 44.6562Z"/></g><g opacity=".999"><path fill="#000" stroke="none" d="M403.625 295.688C392.539 300.11 381.377 304.361 370.125 308.344C364.387 310.375 358.629 312.421 352.812 314.219C350.489 314.937 348.137 315.494 345.781 316.094C341.913 317.079 338.012 318.033 334.125 318.938C322.068 321.742 309.922 324.2 297.688 326.094C278.311 329.093 258.596 331.117 238.969 330.062C235.751 329.89 232.549 329.536 229.344 329.219C227.558 329.042 225.759 328.85 223.969 328.719C220.86 328.491 217.796 328.332 214.719 327.781C210.3 326.991 205.909 325.689 201.594 324.469C195.334 322.7 189.129 320.662 183.281 317.781C174.86 313.633 167.368 307.882 161.438 300.594C156.676 293.943 144.513 294.518 134.281 301.844C124.05 309.169 119.645 320.475 124.406 327.125C129.038 332.126 134.187 336.563 139.906 340.281C151.778 347.999 165.687 352.577 179.625 354.688C186.151 355.676 192.664 355.83 199.25 355.938C203.085 356 206.946 356.177 210.781 356.156C214.759 356.135 218.737 355.771 222.688 355.344C254.806 351.866 286.317 343.788 316.938 333.656C328.627 329.788 340.13 325.477 351.656 321.156C353.963 320.292 356.322 319.566 358.656 318.781C362.237 317.578 365.812 316.348 369.375 315.094C381.226 310.922 392.956 306.468 404.625 301.812C405.724 301.632 406.403 300.128 406.125 298.438C405.847 296.747 404.724 295.507 403.625 295.688Z"/></g><g opacity=".999"><path fill="#000" stroke="none" d="M397.5 296.781C396.801 296.88 396.171 297.145 395.656 297.594C388.177 303.192 379.844 307.213 371.219 310.719C368.831 311.689 366.452 312.739 364.031 313.625C361.02 314.727 357.902 315.479 354.844 316.438C338.704 321.496 322.048 324.475 305.281 326.531C299.476 327.243 293.672 327.851 287.844 328.344C285.01 328.583 282.156 328.905 279.312 329C275.544 329.126 271.77 329.085 268 329.094C261.487 329.108 254.981 329.05 248.469 328.969C247.834 328.677 246.948 329.242 246.5 330.219C246.052 331.196 246.209 332.209 246.844 332.5C253.908 332.589 260.967 332.654 268.031 332.625C271.842 332.609 275.659 332.435 279.469 332.531C286.73 332.715 293.985 332.97 301.25 332.969C313.429 332.966 325.596 332.487 337.719 331.312C341.201 330.975 344.688 330.549 348.156 330.094C351.047 329.715 353.959 329.358 356.812 328.75C359.118 328.259 361.387 327.641 363.688 327.125C367.118 326.355 370.517 325.585 373.875 324.531C385.183 320.983 395.936 315.797 405.688 309.062C407.745 307.267 407.169 303.259 404.406 300.094C402.334 297.72 399.597 296.484 397.5 296.781Z"/></g><g opacity=".999"><path fill="#000" stroke="none" d="M385.688 305.688C374.911 309.909 363.965 313.502 352.906 316.906C349.384 317.991 345.888 319.174 342.344 320.188C339.372 321.037 336.324 321.711 333.344 322.531C327.824 324.051 322.317 325.535 316.75 326.875C303.004 330.184 289.083 332.799 275.125 335.031C266.34 336.436 257.509 337.84 248.656 338.75C244.413 339.186 240.132 339.349 235.875 339.594C228.199 340.036 220.528 340.373 212.844 340.625C212.209 340.37 211.361 340.961 210.969 341.938C210.577 342.914 210.772 343.901 211.406 344.156C219.13 343.903 226.848 343.569 234.562 343.125C238.845 342.879 243.153 342.499 247.438 342.312C254.803 341.992 262.167 341.875 269.531 341.5C283.941 340.766 298.318 339.576 312.656 337.969C319.516 337.2 326.44 336.513 333.25 335.375C336.369 334.854 339.445 334.128 342.562 333.594C345.646 333.065 348.722 332.567 351.781 331.906C363.927 329.282 375.824 325.641 387.531 321.5C390.371 321.169 392.26 317.368 391.75 313C391.24 308.632 388.527 305.356 385.688 305.688Z"/></g><g opacity=".999"><path fill="#000" stroke="none" d="M327.875 322.188C318.446 323.69 308.98 325.12 299.594 326.875C296.611 327.433 293.664 328.169 290.688 328.75C288.233 329.229 285.766 329.514 283.312 330C278.369 330.979 273.451 332.053 268.5 333C257.199 335.161 245.798 336.927 234.406 338.531C229.439 339.231 224.486 339.886 219.5 340.438C217.5 340.659 215.476 340.921 213.469 341.062C210.523 341.27 207.576 341.284 204.625 341.375C198.164 341.575 191.683 341.631 185.219 341.625C184.584 341.343 183.716 341.898 183.281 342.875C182.847 343.852 183.021 344.874 183.656 345.156C189.67 345.162 195.676 345.126 201.688 344.969C205.155 344.878 208.626 344.632 212.094 344.594C214.503 344.567 216.934 344.67 219.344 344.688C223.182 344.715 227.005 344.74 230.844 344.719C241.354 344.66 251.871 344.354 262.375 344.031C268.104 343.855 273.838 343.78 279.562 343.5C281.971 343.382 284.373 343.065 286.781 342.938C289.668 342.784 292.553 342.719 295.438 342.5C304.755 341.792 314.03 340.679 323.312 339.625C326.446 340.443 329.992 337.196 331.25 332.375C332.508 327.554 331.008 323.005 327.875 322.188Z"/></g><g opacity=".999"><path fill="#000" stroke="none" d="M293.812 328.219C293.12 328.086 292.413 328.148 291.781 328.406C283.746 332.824 275.109 335.66 266.281 338.031C263.816 338.693 261.364 339.432 258.875 340C256.327 340.582 253.726 340.882 251.156 341.344C246.257 342.224 241.358 343.033 236.406 343.562C224.566 344.829 212.593 344.896 200.719 344.125C193.069 343.628 185.239 342.897 177.719 341.375C174.714 340.767 171.745 339.853 168.812 338.969C162.008 336.917 155.396 334.374 148.969 331.344C148.387 330.801 147.241 331.105 146.406 332C145.571 332.895 145.356 334.051 145.938 334.594C152.025 337.463 158.293 339.902 164.719 341.906C168.192 342.989 171.697 343.831 175.188 344.844C180.809 346.475 186.411 348.113 192.125 349.406C204.626 352.236 217.394 353.911 230.188 354.594C233.561 354.774 236.935 354.897 240.312 354.938C243.122 354.971 245.945 355.009 248.75 354.812C251.021 354.654 253.294 354.326 255.562 354.125C258.921 353.828 262.236 353.544 265.562 352.969C276.672 351.046 287.449 347.503 297.531 342.469C300.059 341.437 300.837 337.451 299.25 333.562C298.06 330.646 295.891 328.617 293.812 328.219Z"/></g><path fill="#000" fill-rule="nonzero" stroke="#000" stroke-linecap="butt" stroke-linejoin="round" stroke-width="25.516" d="M395.064 300.921L330.687 326.621L269.149 334.485L228.802 338.59L181.926 328.698L142.81 272.626L130.645 182.209L126.526 91.136L196.999 73.2808L276.928 73.5799L304.257 141.751L326.834 213.438L341.696 254.213L363.423 276.233L395.064 300.921Z" opacity=".999"/><g opacity=".999"><path fill="#000" stroke="none" d="M109.906 62.6875C108.822 62.6154 107.724 62.6092 106.656 62.8438C105.767 63.039 104.926 63.3567 104.156 63.8438C100.502 66.1543 100.592 70.6705 100.344 74.5C100.241 76.0799 100.076 77.6181 99.6875 79.1562C99.2109 81.0453 98.0107 82.684 97.1562 84.4062C95.7929 87.1542 94.6706 90.0019 93.6875 92.9062C90.3564 102.747 88.817 113.117 87.4062 123.375C85.1612 139.7 84.511 156.224 84.7812 172.688C85.0872 191.331 86.6135 209.977 89.2188 228.438C90.7718 239.443 92.5945 250.466 95.3125 261.25C96.4514 265.769 97.9652 270.206 99.3438 274.656C101.395 281.276 103.669 287.795 106.719 294.031C108.898 298.488 111.358 302.78 114.344 306.75C116.376 309.452 118.82 311.79 120.906 314.438C122.184 316.059 123.429 317.708 124.688 319.344C130.451 326.834 137.891 336.562 148.656 334.656C150.259 334.373 151.689 333.956 153.188 333.312C155.27 332.418 157.076 331.178 158.844 329.781C160.642 327.648 159.438 323.705 156.156 320.938C153.774 318.928 150.994 318.139 148.938 318.656C149.985 318.106 151.066 317.627 152.281 317.406C152.793 317.313 153.266 317.29 153.781 317.312C153.924 317.319 154.077 317.324 154.219 317.344C154.288 317.353 154.476 317.416 154.406 317.406C153.975 317.347 153.509 316.975 153.156 316.75C152.123 316.091 151.18 315.298 150.281 314.469C146.872 311.324 143.966 307.645 141 304.094C139.895 302.771 138.799 301.45 137.625 300.188C136.544 299.025 135.334 297.973 134.25 296.812C132.822 295.283 131.515 293.657 130.281 291.969C126.688 287.053 123.753 281.73 121 276.312C118.225 270.851 115.573 265.339 113.594 259.531C111.534 253.487 109.367 247.463 107.438 241.375C105.797 236.2 104.352 230.945 103 225.688C97.4799 204.231 94.0567 182.152 92.4688 160.062C91.7702 150.346 91.4455 140.584 91.7188 130.844C91.9088 124.068 92.3226 117.317 93.4375 110.625C94.6501 103.346 96.2968 96.0683 99 89.1875C99.8064 87.1347 100.734 85.0981 101.781 83.1562C102.787 81.2907 103.665 79.6273 104.094 77.5312C104.568 75.2114 104.563 72.851 104.75 70.5C104.791 69.9775 104.857 69.3331 104.938 68.8125C105.011 68.3376 105.108 67.9568 105.25 67.5C105.731 65.9481 106.348 66.1028 108.031 66.2188C108.664 66.5517 109.613 66.0055 110.125 65.0312C110.637 64.057 110.539 63.0205 109.906 62.6875Z"/></g><g opacity=".999"><path fill="#000" stroke="none" d="M97.7812 49.125C91.0162 50.1578 84.4139 51.9174 78.25 54.9375C73.7455 57.1445 69.5501 59.9596 65.8438 63.3438C63.1881 65.7685 60.7831 68.4926 58.7188 71.4375C52.6113 80.1501 49.6739 90.6929 49.1875 101.25C48.9684 106.006 49.3126 110.733 49.7188 115.469C50.0666 119.526 50.4846 123.587 51.2188 127.594C52.1833 132.859 53.5508 138.038 55 143.188C57.4775 151.991 60.4713 160.652 63.75 169.188C71.2595 188.737 80.3518 207.73 90.3438 226.125C93.6242 232.164 96.9961 238.132 100.469 244.062C101.85 246.422 103.283 248.762 104.656 251.125C106.499 254.296 108.231 257.54 110.062 260.719C114.401 268.249 118.912 275.665 123.719 282.906C127.177 288.116 130.775 293.288 134.781 298.094C135.259 298.774 136.484 298.703 137.531 297.969C138.578 297.234 139.04 296.087 138.562 295.406C131.861 287.368 126.179 278.469 120.719 269.562C117.908 264.979 115.187 260.331 112.531 255.656C111.232 253.369 109.898 251.086 108.688 248.75C106.919 245.336 105.294 241.853 103.656 238.375C99.9455 230.495 96.4491 222.52 93.125 214.469C86.7146 198.943 80.9697 183.131 76.375 166.969C72.9811 155.03 70.1586 142.886 68.5938 130.562C68.0764 126.488 67.7168 122.404 67.375 118.312C67.0968 114.982 66.8453 111.69 66.8438 108.344C66.8419 104.414 67.2365 100.481 67.7812 96.5938C68.2063 93.5604 68.7428 90.5165 69.5625 87.5625C71.3965 80.9531 74.5656 74.1126 80.625 70.4062C84.4662 68.0567 88.9309 67.1252 93.3438 66.5625C96.474 67.3576 100.027 64.0971 101.25 59.2812C102.473 54.4654 100.912 49.9201 97.7812 49.125Z"/></g><g opacity=".999"><path fill="#000" stroke="none" d="M62.1875 108.438C61.7153 108.321 61.1188 108.326 60.5312 108.531C59.3562 108.941 58.6401 109.892 58.9062 110.656C59.5387 119.223 60.2938 127.782 61.3125 136.312C61.6469 139.113 61.9884 141.925 62.375 144.719C62.6631 146.801 63.0467 148.88 63.2812 150.969C64.4566 161.435 65.6605 171.873 67.5 182.25C70.0937 196.881 73.6315 211.298 78.0938 225.469C79.551 230.097 81.1475 234.693 82.8125 239.25C84.0012 242.504 85.1721 245.776 86.5938 248.938C87.7343 251.474 89.0923 253.907 90.25 256.438C91.4193 258.993 92.5228 261.579 93.7812 264.094C95.2053 266.939 96.7979 269.724 98.4062 272.469C104.279 282.492 111.103 291.87 118.344 300.938C120.732 304.34 126.922 304.112 132.156 300.438C137.39 296.763 139.701 291.027 137.312 287.625C132.643 282.279 128.102 276.821 123.781 271.188C120.008 266.268 116.473 261.185 112.938 256.094C110.812 253.033 108.558 250.034 106.531 246.906C104.694 244.071 103.161 241.089 101.438 238.188C97.8561 232.158 94.3528 226.092 91.2188 219.812C84.3672 206.085 78.9553 191.624 74.5625 176.938C71.8405 167.837 69.3781 158.61 67.5625 149.281C66.6968 144.833 66.2435 140.276 65.6875 135.781C64.5942 126.943 63.8118 118.068 63.1562 109.188C63.0231 108.806 62.6597 108.554 62.1875 108.438Z"/></g><g opacity=".999"><path fill="#000" stroke="none" d="M75.6875 77.9688C75.2232 77.8392 74.6509 77.8464 74.0625 78.0312C72.8857 78.4009 72.1347 79.3288 72.375 80.0938C72.5011 88.8155 72.8493 97.5263 73.5938 106.219C74.0228 111.228 74.6977 116.22 75.2188 121.219C75.594 124.818 75.8184 128.43 76.1875 132.031C76.9235 139.213 77.7776 146.359 78.8438 153.5C81.1335 168.836 84.1992 184.061 87.5938 199.188C89.1825 206.267 90.7652 213.369 92.5312 220.406C93.499 224.263 94.7884 228.013 95.8438 231.844C96.6197 234.661 97.2879 237.495 98.0625 240.312C99.0227 243.805 100.072 247.295 101.156 250.75C104.638 261.841 108.574 272.777 112.406 283.75C114.277 287.453 120.397 288.128 126.094 285.25C131.791 282.372 134.902 277.047 133.031 273.344C127.984 260.657 122.991 247.933 117.781 235.312C116.154 231.371 114.249 227.565 112.625 223.625C111.138 220.016 109.912 216.289 108.406 212.688C105.829 206.522 103.212 200.395 100.812 194.156C95.0396 179.15 90.0795 163.816 85.9375 148.281C84.1354 141.522 82.4812 134.725 81.0625 127.875C80.4943 125.131 79.887 122.365 79.4688 119.594C78.8317 115.372 78.4512 111.094 78.0625 106.844C77.2079 97.4988 76.7606 88.1316 76.625 78.75C76.5049 78.3675 76.1518 78.0983 75.6875 77.9688Z"/></g><g opacity=".999"><path fill="#000" stroke="none" d="M90.5625 71C90.1008 70.8665 89.5259 70.8838 88.9375 71.0625C87.7606 71.42 86.9864 72.3288 87.2188 73.0938C87.199 79.6205 87.2005 86.1301 87.3125 92.6562C87.3783 96.4906 87.5937 100.353 87.625 104.188C87.6479 106.992 87.4691 109.79 87.4062 112.594C87.305 117.11 87.2234 121.639 87.1875 126.156C87.0839 139.206 87.3812 152.245 87.9375 165.281C88.2047 171.544 88.4179 177.818 88.9688 184.062C89.2158 186.863 89.7486 189.64 90.0312 192.438C90.3169 195.265 90.516 198.089 90.9062 200.906C92.4319 211.922 94.996 222.769 97.875 233.5C99.6272 237.243 105.711 238.102 111.469 235.406C117.227 232.71 120.471 227.493 118.719 223.75C115.547 214.089 112.804 204.311 110.031 194.531C109.156 191.446 108.107 188.424 107.219 185.344C106.618 183.262 106.237 181.138 105.75 179.031C105.146 176.421 104.355 173.867 103.656 171.281C102.816 168.171 102.02 165.042 101.281 161.906C98.5586 150.353 96.5348 138.615 94.8125 126.875C93.7174 119.41 92.6957 111.921 92 104.406C91.6488 100.613 91.7054 96.7755 91.625 92.9688C91.4761 85.9152 91.4786 78.8359 91.5 71.7812C91.3838 71.3988 91.0242 71.1335 90.5625 71Z"/></g><g opacity=".999"><path fill="#000" stroke="none" d="M88.4375 56.5312C82.7756 57.0244 78.4295 60.3823 78.75 64.0625C75.6688 74.1286 73.1749 84.3973 72 94.875C71.7302 97.2814 71.5211 99.7041 71.4375 102.125C71.3565 104.47 71.409 106.811 71.4062 109.156C71.4036 111.485 71.2726 113.828 71.3438 116.156C71.43 118.978 71.7802 121.794 72.125 124.594C72.5333 127.908 73.0079 131.212 73.5938 134.5C76.2292 149.291 80.6 163.672 86.0625 177.656C87.7399 181.95 89.5033 186.197 91.3125 190.438C92.2367 192.604 93.262 194.746 94.125 196.938C95.4532 200.31 96.6458 203.737 97.9375 207.125C100.628 214.182 103.413 221.226 106.188 228.25C106.568 228.988 107.771 229.117 108.906 228.531C110.042 227.946 110.662 226.863 110.281 226.125C107.509 219.108 104.75 212.081 102.062 205.031C100.776 201.658 99.3974 198.299 98.25 194.875C97.3078 192.064 96.5872 189.173 95.8125 186.312C94.5976 181.826 93.4921 177.315 92.4688 172.781C89.4 159.187 87.2292 145.334 87 131.375C86.8989 125.219 87.3369 119.124 87.9062 113C88.165 110.217 88.2366 107.395 88.625 104.625C89.1093 101.171 89.9006 97.7668 90.5625 94.3438C92.6703 83.4436 95.5824 72.7477 99.2812 62.2812C98.9607 58.601 94.0994 56.0381 88.4375 56.5312Z"/></g><g opacity=".999"><path fill="#000" stroke="none" d="M88.6875 95.8125C87.2858 95.9485 85.8076 96.2843 84.3438 96.8438C78.4882 99.0816 74.9204 103.975 76.375 107.781C77.7148 115.766 78.3273 123.774 78.875 131.844C79.0478 134.39 79.4228 136.924 79.5938 139.469C79.7404 141.652 79.5801 143.849 79.6875 146.031C79.9007 150.363 80.2836 154.698 80.5 159.031C80.938 167.803 81.2167 176.561 82 185.312C82.4692 190.554 83.1892 195.79 84.125 200.969C84.5149 203.126 85.0492 205.25 85.4375 207.406C85.9922 210.487 86.456 213.57 87.1562 216.625C88.3763 221.948 90.0483 227.116 92.0625 232.188C92.4436 232.925 93.6773 233.024 94.8125 232.438C95.9477 231.851 96.5686 230.8 96.1875 230.062C93.7227 223.856 91.7829 217.501 90.5312 210.938C90.2047 209.225 89.8781 207.484 89.6875 205.75C89.4442 203.537 89.4578 201.287 89.4375 199.062C89.3964 194.555 89.5995 190.025 89.9375 185.531C90.6963 175.444 92.1232 165.412 93.7812 155.438C94.4777 151.248 95.2824 147.097 95.9688 142.906C96.4196 140.153 96.5225 137.353 96.9062 134.594C97.2998 131.764 97.7707 128.976 98 126.125C98.7093 117.307 98.4808 108.481 97.5938 99.6875C96.5028 96.8329 92.8927 95.4044 88.6875 95.8125Z"/></g><g opacity=".999"><path fill="#000" stroke="none" d="M82.25 67.1875C81.7926 67.0476 81.2133 67.0499 80.625 67.2188C79.4485 67.5564 78.6555 68.454 78.875 69.2188C78.656 76.3232 78.1494 83.3942 77.4688 90.4688C77.1679 93.596 76.9446 96.7646 76.5 99.875C76.1136 102.579 75.5504 105.25 75.0625 107.938C73.9687 113.962 72.8047 120 71.75 126.031C69.702 137.744 68.0225 149.495 67 161.344C66.5596 166.447 66.1638 171.625 66.1562 176.75C66.1521 179.567 66.5119 182.349 66.6875 185.156C66.8299 187.434 66.901 189.696 67.125 191.969C67.4576 195.344 68.03 198.725 68.7812 202.031C70.6953 210.454 73.7611 218.521 77.6562 226.219C79.7531 229.819 85.9301 230.101 91.4688 226.875C97.0074 223.649 99.7843 218.131 97.6875 214.531C94.7933 209.548 92.2984 204.346 90.2188 198.969C88.741 195.148 87.5005 191.24 86.3438 187.312C85.4835 184.392 84.5252 181.501 83.8438 178.531C83.2682 176.023 82.9913 173.467 82.5312 170.938C81.6083 165.863 80.8057 160.798 80.3438 155.656C79.3069 144.115 79.4677 132.505 79.8438 120.938C80.015 115.669 80.2276 110.391 80.4688 105.125C80.5642 103.041 80.5898 100.955 80.75 98.875C81.0728 94.6834 81.649 90.5005 82.0312 86.3125C82.5873 80.2206 82.9678 74.114 83.1562 68C83.0465 67.6176 82.7074 67.3274 82.25 67.1875Z"/></g><g opacity=".999"><path fill="#000" stroke="none" d="M73.9375 71.5625C71.4868 71.1872 68.5157 71.6001 65.625 72.9062C59.8437 75.5186 56.5519 80.6796 58.25 84.4375C60.7098 92.6226 62.3841 100.923 63.9688 109.312C64.4632 111.93 65.1314 114.54 65.625 117.156C66.129 119.828 66.2873 122.514 66.7812 125.188C67.5984 129.61 68.4292 134.035 69.1875 138.469C70.6453 146.993 72.1053 155.509 74.0625 163.938C75.8463 171.619 78.2872 179.069 81.1562 186.406C82.3747 189.522 83.3349 192.72 84.625 195.812C86.9379 201.356 89.7595 206.608 92.9062 211.719C93.3425 212.429 94.5948 212.484 95.6875 211.812C96.7802 211.141 97.3113 210.023 96.875 209.312C92.3484 201.961 88.2947 194.01 85.7812 185.719C85.1024 183.479 84.7215 181.144 84.3125 178.844C83.4944 174.243 82.9499 169.596 82.5938 164.938C81.7706 154.169 81.9059 143.346 82.375 132.562C82.563 128.242 82.8605 123.915 83.0312 119.594C83.1441 116.74 82.8808 113.915 82.9375 111.062C82.9957 108.135 83.1501 105.21 83.0312 102.281C82.6572 93.0622 81.2676 83.9483 79.1875 74.9688C78.3385 73.0898 76.3882 71.9378 73.9375 71.5625Z"/></g></g><g id="Layer-2"><g opacity=".999"><path fill="#1c1c1c" stroke="none" d="M265.969 35.7188C262.572 35.6069 259.174 35.7728 255.781 35.9062C251.697 36.0668 247.611 36.2733 243.531 36.5312C228.743 37.4663 214.007 38.9275 199.25 40.25C194.036 40.7173 188.817 41.1161 183.594 41.4688C180.414 41.6834 177.219 41.9619 174.031 42C170.995 42.0363 167.908 41.8856 164.875 41.75C156.217 41.363 147.645 40.4368 139.125 38.8438C138.408 38.3702 137.26 38.8963 136.531 40C135.803 41.1037 135.783 42.3702 136.5 42.8438C143.418 44.1373 150.352 45.0237 157.375 45.5C162.29 45.8334 167.206 45.8625 172.125 46.0625C174.585 46.1625 177.072 46.4039 179.531 46.5312C184.524 46.7899 189.504 47.0082 194.5 47.1875C208.943 47.7058 223.406 47.9109 237.812 49.1562C243.788 49.6728 249.697 50.4843 255.625 51.375C258.527 51.8111 261.461 52.0216 264.344 52.5938C267.639 53.2478 270.896 54.1649 274.156 54.9688C284.672 57.5611 294.852 61.0154 304.25 66.4688C307.53 69.7252 314.24 68.2655 319.25 63.2188C324.26 58.172 325.687 51.444 322.406 48.1875C310.984 42.3555 298.623 38.6709 285.906 37.0312C281.914 36.5164 277.923 36.3762 273.906 36.1875C271.264 36.0634 268.611 35.8058 265.969 35.7188Z"/></g><g opacity=".999"><path fill="#1c1c1c" stroke="none" d="M169.344 29.3438C166.707 29.4246 164.087 29.5698 161.469 29.8125C153.008 30.597 144.735 32.3273 136.812 35.4375C133.635 36.0491 131.809 40.5184 132.75 45.4062C133.691 50.2941 137.042 53.7366 140.219 53.125C146.576 50.2852 153.54 49.1148 160.406 48.25C163.564 47.8522 166.74 47.5114 169.906 47.1875C172.236 46.9492 174.538 46.6308 176.875 46.4688C179.874 46.2609 182.904 46.3799 185.906 46.25C191.728 45.998 197.515 45.7846 203.344 45.8125C215.996 45.8731 228.64 46.6136 241.25 47.5938C249.474 48.233 257.748 48.8446 265.938 49.8438C269.866 50.323 273.759 51.1579 277.656 51.8438C284.764 53.0949 291.882 54.3695 299 55.5625C299.72 56.0226 300.855 55.5136 301.562 54.4062C302.27 53.2989 302.282 52.0226 301.562 51.5625C294.455 50.3714 287.347 49.0929 280.25 47.8438C276.359 47.1589 272.42 46.6051 268.562 45.75C260.317 43.9221 252.152 41.8031 243.906 39.9688C232.119 37.3465 220.273 35.0323 208.375 32.9688C204.678 32.3275 200.959 31.725 197.25 31.1562C195.417 30.8752 193.597 30.6104 191.75 30.4375C189.29 30.2073 186.807 30.1659 184.344 29.9688C181.98 29.7795 179.62 29.5258 177.25 29.4062C174.622 29.2737 171.98 29.2629 169.344 29.3438Z"/></g><g opacity=".999"><path fill="#1c1c1c" stroke="none" d="M270 32.2188C263.875 32.1245 257.714 32.3986 251.594 32.625C239.971 33.055 228.38 33.9266 216.812 35.125C211.01 35.7261 205.202 36.4991 199.406 37.1562C196.002 37.5423 192.573 37.6227 189.156 37.875C182.896 38.3372 176.653 38.9164 170.406 39.5312C169.68 39.3031 168.789 40.0083 168.438 41.125C168.086 42.2417 168.399 43.3343 169.125 43.5625C175.325 42.9522 181.537 42.3963 187.75 41.9375C190.636 41.7244 193.514 41.456 196.406 41.3438C198.826 41.2499 201.268 41.3763 203.688 41.4375C208.145 41.5502 212.611 41.7716 217.062 42.0312C227.063 42.6147 237.033 43.5068 246.938 45.0312C251.702 45.7645 256.416 46.7714 261.125 47.7812C263.436 48.2768 265.764 48.5397 268.062 49.0938C270.672 49.7226 273.25 50.5582 275.844 51.25C284.143 53.4637 292.264 55.9194 300.062 59.5625C303.452 62.5938 309.993 60.8391 314.656 55.625C319.32 50.4109 320.358 43.7188 316.969 40.6875C307.996 37.1901 298.676 34.8259 289.125 33.5625C285.412 33.0714 281.734 32.9482 278 32.75C275.332 32.6084 272.674 32.2599 270 32.2188Z"/></g><g opacity=".999"><path fill="#1c1c1c" stroke="none" d="M220.656 28.7188C212.794 28.3791 204.908 28.9668 197.094 29.7812C193.489 28.8465 189.407 32.5787 187.969 38.125C186.531 43.6713 188.27 48.9403 191.875 49.875C199.07 48.646 206.293 47.7661 213.531 46.8438C215.879 46.5445 218.21 46.0729 220.562 45.8125C222.501 45.5979 224.466 45.6394 226.406 45.4375C230.065 45.0568 233.702 44.6368 237.375 44.4062C246.777 43.8162 256.24 44.0249 265.625 44.7812C270.889 45.2055 276.212 45.7072 281.406 46.6875C284.047 47.1859 286.632 48.1195 289.188 48.9375C293.887 50.4417 298.514 52.1523 303.062 54.0625C303.742 54.6654 305.041 54.3262 305.969 53.2812C306.896 52.2363 307.086 50.8842 306.406 50.2812C302.131 48.4858 297.815 46.8488 293.406 45.4062C290.431 44.4328 287.351 43.7068 284.406 42.6562C279.324 40.8434 274.274 38.9935 269.094 37.4688C261.219 35.151 253.219 33.3378 245.156 31.8125C242.851 31.3763 240.531 30.9617 238.219 30.5625C236.296 30.2305 234.381 29.852 232.438 29.6562C230.845 29.4958 229.251 29.5164 227.656 29.375C225.319 29.1678 223.004 28.8202 220.656 28.7188Z"/></g><g opacity=".999"><path fill="#1c1c1c" stroke="none" d="M273.75 41.8125C267.599 41.8076 261.46 41.8998 255.312 42.125C251.339 42.2706 247.404 42.6514 243.438 42.9062C240.203 43.1141 236.952 43.0825 233.719 43.3125C226.487 43.827 219.253 44.5784 212.031 45.2188C197.102 46.5425 182.185 47.9054 167.281 49.5C161.472 50.1215 155.679 50.7752 149.875 51.4375C147.307 51.7305 144.732 52.0906 142.156 52.3125C137.752 52.692 133.316 52.9035 128.906 53.2188C121.337 53.76 113.783 54.3518 106.219 54.9688C105.491 54.7234 104.596 55.4434 104.219 56.5625C103.841 57.6816 104.116 58.7859 104.844 59.0312C113.016 58.3647 121.195 57.6941 129.375 57.125C133.145 56.8627 136.912 56.5404 140.688 56.375C143.76 56.2404 146.863 56.2889 149.938 56.2812C155.461 56.2674 160.977 56.3275 166.5 56.4062C180.562 56.6068 194.646 56.9339 208.688 57.75C214.746 58.1021 220.789 58.6324 226.844 59.0312C229.921 59.234 232.986 59.1845 236.062 59.4062C239.687 59.6675 243.31 60.1037 246.938 60.3438C258.695 61.1218 270.457 61.6308 282.219 62.3438C285.869 64.1363 291.086 61.0532 293.844 55.4375C296.601 49.8218 295.869 43.8238 292.219 42.0312C286.07 41.9266 279.901 41.8174 273.75 41.8125Z"/></g><g opacity=".999"><path fill="#1c1c1c" stroke="none" d="M308.125 53.6875C307.322 53.6117 306.535 53.7315 305.844 54.0938C300.824 57.0834 295.638 59.6228 290.156 61.6562C283.334 64.1871 276.198 65.9028 269.062 67.2812C266.004 67.8721 262.962 68.5384 259.875 68.9688C257.078 69.3587 254.28 69.4934 251.469 69.7188C248.906 69.9242 246.345 70.1494 243.781 70.3438C224.025 71.8419 204.111 70.5385 184.406 68.9062C174.198 68.0607 163.985 67.1463 153.781 66.25C150.702 65.9795 147.608 65.7708 144.531 65.4688C138.648 64.8912 132.794 64.0538 126.906 63.5C118.5 62.7093 110.099 62.2366 101.656 62.1562C100.926 61.8235 99.9181 62.4697 99.4062 63.5938C98.8944 64.7178 99.0506 65.9173 99.7812 66.25C110.268 66.3498 120.701 67.0792 131.125 68.2188C134.783 68.6187 138.49 68.9545 142.125 69.5312C144.666 69.9344 147.19 70.4598 149.719 70.9375C155.226 71.9781 160.724 73.0823 166.219 74.1875C184.13 77.7907 202.057 81.279 220.188 83.5938C227.304 84.5024 234.484 85.3075 241.656 85.5938C245.873 85.762 250.098 85.524 254.312 85.4062C257.355 85.3212 260.402 85.2734 263.438 85.0312C272.053 84.344 280.598 82.6526 288.875 80.1875C297.624 77.5818 305.96 73.9199 313.938 69.5C316.702 68.0509 317.136 63.4411 314.906 59.1875C313.234 55.9973 310.535 53.915 308.125 53.6875Z"/></g><g opacity=".999"><path fill="#1c1c1c" stroke="none" d="M292.062 29.3125C289.983 29.2759 287.895 29.3495 285.812 29.4062C280.588 29.5487 275.383 29.9033 270.188 30.4688C263.504 31.196 256.853 32.1707 250.25 33.4375C246.258 34.2034 242.301 35.1699 238.312 35.9375C235.764 36.4278 233.152 36.7468 230.594 37.1875C225.95 37.9873 221.353 38.9025 216.75 39.9062C216.045 39.8071 215.34 40.6023 215.188 41.6875C215.035 42.7727 215.482 43.7446 216.188 43.8438C221.11 42.7703 226.062 41.7716 231.031 40.9375C233.107 40.5892 235.185 40.1938 237.281 40C238.901 39.8502 240.562 39.8285 242.188 39.7812C245.402 39.6879 248.629 39.7017 251.844 39.7812C259.705 39.9759 267.604 40.5901 275.312 42.2188C278.561 42.9052 281.716 43.8728 284.875 44.875C286.367 45.3483 287.906 45.6093 289.375 46.1562C291.246 46.8531 293.007 47.8719 294.812 48.7188C300.203 51.2465 305.317 54.2875 309.094 58.9688C311.899 62.8348 318.99 62.4717 324.938 58.1562C330.885 53.8408 333.43 47.2098 330.625 43.3438C324.711 37.3089 317.037 33.3448 308.844 31.375C305.365 30.5387 301.805 30.3604 298.281 29.8125C296.218 29.4917 294.142 29.3491 292.062 29.3125Z"/></g><g opacity=".999"><path fill="#1c1c1c" stroke="none" d="M323.5 50.6562C322.694 50.6566 321.966 50.8558 321.312 51.2812C315.613 55.0892 310.475 59.5401 306.188 64.9062C303.271 68.556 301.024 72.5077 299.312 76.8438C298.314 79.3745 297.099 81.8181 296.438 84.4688C295.636 87.6805 295.115 90.9703 294.688 94.25C293.6 102.591 293.388 111.036 293.656 119.438C293.795 123.779 294.152 128.097 294.281 132.438C294.357 134.971 294.05 137.564 293.906 140.094C293.649 144.624 293.377 149.132 293.031 153.656C293.259 154.535 294.523 154.975 295.875 154.625C297.227 154.275 298.134 153.285 297.906 152.406C298.226 148.223 298.509 144.032 298.75 139.844C298.896 137.303 298.96 134.722 299.188 132.188C299.358 130.285 299.784 128.41 300.125 126.531C300.681 123.469 301.303 120.415 301.969 117.375C304.135 107.49 306.82 97.5813 311.375 88.5C312.451 86.3538 313.75 84.3637 314.938 82.2812C315.545 81.217 316.051 80.1055 316.75 79.0938C317.606 77.8553 318.623 76.7402 319.594 75.5938C321.092 73.8241 322.625 72.0627 324.312 70.4688C326.253 68.6364 328.473 67.1634 330.781 65.8438C333.394 64.1418 333.4 59.4883 330.781 55.4688C328.817 52.4541 325.918 50.6551 323.5 50.6562Z"/></g><g opacity=".999"><path fill="#1c1c1c" stroke="none" d="M321.688 60.5C317.934 60.4268 314.833 61.9276 314.062 64.5312C310.486 69.5842 307.238 74.9614 305.375 80.9062C304.825 82.6604 304.585 84.3841 304.281 86.1875C304.084 87.3567 303.717 88.4906 303.5 89.6562C303.192 91.309 303.257 93.0158 303.25 94.6875C303.243 96.3277 303.275 97.955 303.344 99.5938C303.614 106.02 304.425 112.411 305.5 118.75C306.037 121.915 306.769 125.067 307.188 128.25C307.475 130.441 307.365 132.702 307.375 134.906C307.39 138.263 307.323 141.613 307.25 144.969C307.508 145.849 308.802 146.24 310.156 145.844C311.51 145.448 312.414 144.411 312.156 143.531C312.229 140.15 312.297 136.757 312.281 133.375C312.271 131.137 312.127 128.887 312.344 126.656C312.737 122.599 313.478 118.518 314.156 114.5C315.189 108.381 316.4 102.282 318.438 96.4062C319.341 93.7996 320.474 91.3303 321.656 88.8438C322.311 87.4666 322.724 85.9906 323.469 84.6562C323.978 83.7428 324.603 82.8874 325.156 82C326.424 79.9683 327.604 77.908 328.969 75.9375C330.338 73.9612 331.842 72.0734 333.406 70.25C334.434 66.7785 330.935 62.7059 325.594 61.125C324.259 60.7298 322.939 60.5244 321.688 60.5Z"/></g><g opacity=".999"><path fill="#1c1c1c" stroke="none" d="M135.438 55.9062C133.795 55.8875 132.172 55.9881 130.531 56.0312C124.555 56.1885 118.575 56.1692 112.625 56.8438C99.2994 58.3545 85.9674 61.9813 74.1875 68.4688C70.7031 70.3877 67.4309 72.5856 64.25 74.9688C62.0383 77.2453 63.0602 81.8473 66.5625 85.25C70.0648 88.6527 74.6945 89.5578 76.9062 87.2812C83.5741 81.9019 91.678 78.7837 99.9062 76.6562C104.065 75.5809 108.248 74.7328 112.469 73.9375C115.338 73.3969 118.225 72.8453 121.125 72.5C125.298 72.0032 129.501 71.8479 133.688 71.5C153.472 69.8561 173.456 70.8824 193.156 73.0938C203.23 74.2245 213.266 75.6478 223.25 77.4062C227.595 78.1714 231.98 78.8918 236.281 79.875C241.332 81.0295 246.341 82.5471 251.312 84C260.101 86.5682 268.799 89.3844 277.375 92.5938C278.063 93.1756 279.355 92.8079 280.25 91.75C281.145 90.6921 281.313 89.3631 280.625 88.7812C271.635 85.4171 262.5 82.4533 253.281 79.7812C248.607 78.4262 243.856 77.2737 239.188 75.9062C237.347 75.367 235.524 74.7744 233.688 74.2188C227.583 72.3717 221.446 70.6021 215.281 68.9688C198.323 64.476 181.103 60.8813 163.719 58.5C158.377 57.7682 153.027 57.1385 147.656 56.6562C143.597 56.2918 139.515 55.9528 135.438 55.9062Z"/></g><g opacity=".999"><path fill="#1c1c1c" stroke="none" d="M56.625 92.6562C56.0878 92.8447 55.5386 93.267 55.0938 93.8438C54.204 94.9972 54.094 96.3904 54.8438 96.9688C64.2339 99.6757 73.6812 102.205 83.2188 104.344C110.436 110.448 138.025 114.7 165.25 120.781C174.204 122.781 183.017 125.428 191.875 127.812C192.026 127.925 192.296 127.826 192.469 127.594C192.642 127.362 192.651 127.081 192.5 126.969C185.032 124.958 177.597 122.809 170.094 120.938C168.214 120.469 166.319 120.056 164.438 119.594C158.832 118.216 153.237 116.758 147.625 115.406C136.392 112.7 125.115 110.209 113.875 107.531C95.1544 103.072 76.4838 98.3614 58.0625 92.7812C57.6876 92.4921 57.1622 92.4678 56.625 92.6562Z"/></g><g opacity=".999"><path fill="#1c1c1c" stroke="none" d="M59.7188 110.188C58.9376 109.85 57.895 110.548 57.375 111.75C56.855 112.952 57.0626 114.193 57.8438 114.531C85.4201 114.116 112.895 116.11 140.281 119.219C146.922 119.973 153.594 120.71 160.219 121.594C168.549 122.705 176.861 123.923 185.188 125.062C185.342 125.156 185.575 125.05 185.719 124.812C185.863 124.575 185.842 124.281 185.688 124.188C177.363 123.048 169.031 121.948 160.719 120.719C153.341 119.628 145.999 118.367 138.625 117.25C121.278 114.622 103.852 112.207 86.3438 110.969C77.4797 110.342 68.602 110.169 59.7188 110.188Z"/></g><g opacity=".999"><path fill="#1c1c1c" stroke="none" d="M58.625 98.8125C58.1252 99.0395 57.6279 99.5017 57.25 100.094C56.4942 101.278 56.4804 102.634 57.25 103.125C81.4275 106.955 105.217 112.666 129.062 118.125C133.919 119.237 138.798 120.301 143.656 121.406C150.673 123.003 157.688 124.578 164.75 125.969C164.903 126.071 165.155 125.954 165.312 125.719C165.47 125.483 165.466 125.196 165.312 125.094C157.906 123.636 150.465 122.181 143.156 120.281C122.76 114.98 102.723 108.382 82.25 103.375C74.8946 101.576 67.4565 100.119 60 98.8125C59.6152 98.5669 59.1248 98.5855 58.625 98.8125Z"/></g><g opacity=".999"><path fill="#1c1c1c" stroke="none" d="M65 99.0625C64.227 98.5931 63.0033 99.1545 62.2812 100.344C61.5592 101.533 61.602 102.906 62.375 103.375C102.403 108.62 141.29 120.593 181.5 124.656C181.655 124.744 181.896 124.614 182.031 124.375C182.166 124.136 182.124 123.869 181.969 123.781C173.74 122.95 165.494 121.951 157.375 120.344C134.562 115.827 112.347 108.786 89.6875 103.625C81.5159 101.764 73.2917 100.273 65 99.0625Z"/></g><g opacity=".999"><path fill="#1c1c1c" stroke="none" d="M282.062 65.0312C264.389 71.4822 245.345 72.2197 226.719 71.7188C205.712 71.1537 184.803 68.6394 163.812 67.7188C149.974 67.1118 136.134 67.2397 122.438 69.4688C122.284 69.4345 122.146 69.6079 122.094 69.8438C122.041 70.0796 122.097 70.2783 122.25 70.3125C133.005 68.5621 143.921 67.9687 154.812 68.3438C162.772 68.6178 170.735 69.3528 178.656 70.1562C190.747 71.3826 202.804 72.8853 214.906 74C237.6 76.0903 260.654 76.66 282.438 68.9375C283.142 68.8717 283.633 67.9588 283.531 66.875C283.43 65.7912 282.767 64.9655 282.062 65.0312Z"/></g><g opacity=".999"><path fill="#1c1c1c" stroke="none" d="M249.812 85.8125C244.23 85.7053 238.639 85.7372 233.062 85.8438C221.451 86.0657 209.865 86.7507 198.312 87.9375C189.67 88.8254 181.073 89.8872 172.531 91.5C172.379 91.4719 172.231 91.6408 172.188 91.875C172.144 92.1092 172.223 92.3156 172.375 92.3438C180.424 90.8239 188.56 89.6767 196.719 88.9375C201.592 88.496 206.486 88.2905 211.375 88.125C220.595 87.8129 229.814 87.8541 239.031 88.2188C249.87 88.6475 260.714 89.5676 271.469 90.9688C279.948 92.0734 288.356 93.4705 296.688 95.4062C297.449 95.9392 298.743 95.4216 299.562 94.25C300.382 93.0785 300.418 91.6892 299.656 91.1562C283.265 87.5971 266.561 86.1342 249.812 85.8125Z"/></g><g opacity=".999"><path fill="#1c1c1c" stroke="none" d="M226.156 96.4375C214.78 96.2674 203.394 96.5232 192.031 97.0938C182.348 97.5799 172.737 98.3273 163.125 99.625C162.971 99.5844 162.781 99.7314 162.719 99.9688C162.656 100.206 162.752 100.428 162.906 100.469C172.459 99.1789 182.082 98.275 191.719 97.9375C199.287 97.6724 206.869 97.784 214.438 97.9688C229.856 98.3452 245.235 99.5692 260.562 101.25C275.678 102.908 290.761 104.763 305.812 106.938C306.586 107.407 307.81 106.814 308.531 105.625C309.253 104.436 309.21 103.094 308.438 102.625C298.756 101.347 289.069 100.183 279.344 99.2812C261.664 97.6425 243.909 96.7029 226.156 96.4375Z"/></g><g opacity=".999"><path fill="#1c1c1c" stroke="none" d="M298.719 94.4375C278.827 100.115 258.143 100.944 237.594 100.219C217.62 99.5133 197.738 97.3124 177.812 95.875C174.66 95.6476 171.499 95.3597 168.344 95.1875C165.219 95.0169 162.096 94.9582 158.969 94.8438C140.19 94.1566 121.554 94.6315 103.156 98.8125C103.006 98.7935 102.873 98.9562 102.844 99.1875C102.815 99.4188 102.912 99.6373 103.062 99.6562C115.84 96.7524 128.877 95.519 141.969 95.4375C148.119 95.3992 154.271 95.844 160.406 96.2188C180.141 97.4242 199.74 100.186 219.406 102.156C235.057 103.725 250.837 104.763 266.562 103.781C277.383 103.106 288.111 101.428 298.562 98.5312C299.298 98.5609 299.923 97.6621 299.969 96.5312C300.014 95.4004 299.454 94.4671 298.719 94.4375Z"/></g><g opacity=".999"><path fill="#1c1c1c" stroke="none" d="M178.812 88.4688C178.657 88.3809 178.416 88.4798 178.281 88.7188C178.146 88.9577 178.157 89.2247 178.312 89.3125C183.076 89.7965 187.83 90.2973 192.594 90.7812C194.76 91.0014 196.953 91.2859 199.125 91.4375C201.731 91.6194 204.359 91.6663 206.969 91.8125C211.297 92.0549 215.607 92.3514 219.938 92.5312C225.148 92.7476 230.381 92.796 235.594 92.9375C258.016 93.546 280.485 93.8128 302.781 96.5C303.557 96.949 304.747 96.3494 305.438 95.1562C306.128 93.9631 306.057 92.6366 305.281 92.1875C296.539 91.257 287.76 90.6822 278.969 90.5C259.518 90.0968 240.075 91.1335 220.625 91.0625C216.668 91.0481 212.706 90.9259 208.75 90.8438C205.692 90.7802 202.615 90.7756 199.562 90.5625C196.967 90.3813 194.37 90.0443 191.781 89.7812C187.451 89.3413 183.143 88.9087 178.812 88.4688Z"/></g><g opacity=".999"><path fill="#1c1c1c" stroke="none" d="M244.438 58.6875C239.606 58.7784 234.783 58.9485 229.969 59.1562C216.071 59.7559 202.217 60.9107 188.375 62.25C180.213 63.0397 172.094 63.8812 163.969 65C163.815 64.96 163.624 65.1066 163.562 65.3438C163.501 65.5809 163.565 65.8037 163.719 65.8438C188.055 62.4926 212.691 61.244 237.25 61.6875C245.22 61.8314 253.175 62.1505 261.125 62.7188C269.12 63.2902 277.112 64.1162 285 65.5625C285.768 66.0605 287.015 65.4948 287.781 64.3125C288.547 63.1302 288.518 61.7793 287.75 61.2812C273.449 58.8745 258.931 58.4147 244.438 58.6875Z"/></g><g opacity=".999"><path fill="#1c1c1c" stroke="none" d="M249.125 65.75C228.973 66.4222 209.013 69.6366 188.875 70.5625C185.588 70.7136 182.292 70.8512 179 70.8438C171 70.8255 163.001 70.058 155.125 68.6875C154.971 68.5882 154.715 68.701 154.562 68.9375C154.41 69.174 154.44 69.4632 154.594 69.5625C165.774 71.5078 177.048 71.8897 188.375 71.8125C216.083 71.6237 243.814 67.5428 271.469 71.0312C272.244 71.4845 273.459 70.8799 274.156 69.6875C274.854 68.4951 274.775 67.172 274 66.7188C265.737 65.8007 257.435 65.4728 249.125 65.75Z"/></g><g opacity=".999"><path fill="#1c1c1c" stroke="none" d="M167.531 51.4062C160.233 51.4697 152.941 51.6881 145.656 52.0625C136.311 52.5428 127.002 53.3916 117.719 54.5625C109.739 55.569 101.826 56.8 93.9688 58.5312C93.818 58.5106 93.688 58.6744 93.6562 58.9062C93.6245 59.1381 93.7243 59.3543 93.875 59.375C101.663 57.6591 109.535 56.2764 117.469 55.4375C123.643 54.7847 129.861 54.4608 136.062 54.2188C148.65 53.7274 161.271 53.9969 173.844 54.7188C186.326 55.4354 198.8 56.338 211.25 57.5C212.028 57.9258 213.189 57.2905 213.844 56.0938C214.499 54.897 214.372 53.5821 213.594 53.1562C205.544 52.5227 197.508 51.9742 189.438 51.6875C182.147 51.4286 174.829 51.3428 167.531 51.4062Z"/></g><g opacity=".999"><path fill="#1c1c1c" stroke="none" d="M155.844 31.75C149.328 31.5411 142.738 32.7462 136.469 34.4062C133.582 35.1706 130.706 35.9522 127.875 36.9062C113.735 41.6712 100.219 47.9904 86.9688 54.8125C80.9574 57.9077 74.9185 60.977 69 64.25C68.8792 64.3075 68.8803 64.5017 68.9688 64.6875C69.0572 64.8733 69.223 64.995 69.3438 64.9375C74.9293 61.8486 80.5531 58.818 86.2812 56C91.8698 53.2507 97.618 50.778 103.375 48.4062C112.046 44.8342 120.883 41.6575 129.969 39.3125C134.845 38.054 139.744 37.0051 144.75 36.4062C149.638 35.8216 154.603 35.6862 159.438 36.7188C160.202 37.2367 161.453 36.7077 162.25 35.5312C163.047 34.3548 163.077 32.9867 162.312 32.4688C160.167 32.0532 158.016 31.8196 155.844 31.75Z"/></g><g opacity=".999"><path fill="#1c1c1c" stroke="none" d="M149.031 39.9062C143.788 40.9138 138.544 42.036 133.406 43.5C119.029 47.5965 105.229 53.3418 91.6875 59.625C86.9428 61.8265 82.193 64.0011 77.5 66.3125C77.3724 66.3568 77.3068 66.5536 77.375 66.75C77.4432 66.9464 77.6223 67.0756 77.75 67.0312C82.4133 64.7346 87.0871 62.4038 91.875 60.375C109.918 52.7295 128.888 47.4571 148.188 44.1562C148.95 44.3055 149.739 43.4547 149.969 42.2812C150.198 41.1078 149.794 40.0555 149.031 39.9062Z"/></g><g opacity=".999"><path fill="#1c1c1c" stroke="none" d="M148.188 38.5C147.79 38.4776 147.397 38.5582 147.062 38.75C143.412 41.0391 139.658 43.0934 135.844 45.0938C133.046 46.5608 130.294 48.0599 127.438 49.4062C124.938 50.5843 122.471 51.8865 119.969 53.0625C114.335 55.7103 108.615 58.1265 102.875 60.5312C99.268 62.0423 95.6497 63.6263 92 65.0312C90.0078 65.7982 87.9765 66.4614 85.9688 67.1875C83.0736 68.2345 80.1847 69.2983 77.3125 70.4062C76.992 70.4513 76.8058 70.9132 76.875 71.4062C76.9442 71.8993 77.2733 72.2637 77.5938 72.2188C82.4103 70.3608 87.2338 68.4369 92.1562 66.875C95.7645 65.7301 99.4488 64.8023 103.094 63.7812C108.978 62.1329 114.861 60.4578 120.719 58.7188C123.385 57.9273 126.099 57.218 128.719 56.2812C129.775 55.9036 130.818 55.4684 131.875 55.0938C133.449 54.536 135.041 54.0245 136.594 53.4062C141.687 51.3784 146.582 48.9277 151.344 46.2188C152.682 45.4514 152.805 43.152 151.625 41.0938C150.74 39.5501 149.381 38.5671 148.188 38.5Z"/></g><g opacity=".999"><path fill="#1c1c1c" stroke="none" d="M140.062 35.4375C135.02 36.3221 130.043 37.6255 125.25 39.4375C123.749 40.005 122.308 40.6619 120.844 41.3125C119.39 41.9581 117.927 42.5132 116.5 43.2188C108.935 46.9576 101.597 51.2169 94.4062 55.625C91.8095 57.2169 89.2745 58.9134 86.6562 60.4688C82.5778 62.8915 78.3328 65.0989 74.1875 67.4062C73.9091 67.5409 73.8553 68.0092 74.0625 68.4375C74.2697 68.8658 74.6591 69.1034 74.9375 68.9688C79.0733 66.6668 83.1523 64.201 87.375 62.0625C90.4807 60.4897 93.7195 59.1173 96.9062 57.7188C101.905 55.5252 106.953 53.4103 112.125 51.6562C114.372 50.8942 116.653 50.2986 118.906 49.5625C121.067 48.8565 123.232 48.3022 125.438 47.75C129.479 46.7383 133.518 45.8492 137.656 45.3438C139.434 45.7724 141.434 43.9232 142.094 41.1875C142.753 38.4518 141.841 35.8661 140.062 35.4375Z"/></g><g opacity=".999"><path fill="#1c1c1c" stroke="none" d="M170.688 45.9375C163.281 45.6658 155.842 46.1084 148.469 46.7812C146.677 46.2449 144.575 48.024 143.75 50.7812C142.925 53.5385 143.708 56.2136 145.5 56.75C152.277 55.8875 159.062 55.3851 165.875 54.9062C168.02 54.7555 170.165 54.5367 172.312 54.4375C174.094 54.3552 175.875 54.3783 177.656 54.3125C181.268 54.1791 184.854 54.0329 188.469 54C196.403 53.9277 204.356 54.2138 212.281 54.5625C217.738 54.8026 223.21 54.9511 228.656 55.375C231.524 55.5982 234.387 55.9666 237.25 56.25C241.239 56.6447 245.226 56.9893 249.219 57.3438C249.579 57.5418 250.133 57.241 250.438 56.6875C250.742 56.134 250.704 55.5106 250.344 55.3125C245.639 54.8949 240.919 54.4964 236.219 54.0312C234.077 53.8193 231.947 53.6514 229.812 53.375C225.322 52.7934 220.848 51.9527 216.375 51.25C204.747 49.4235 193.042 47.6081 181.312 46.5625C179.543 46.4047 177.772 46.3953 176 46.2812C174.226 46.1671 172.464 46.0027 170.688 45.9375Z"/></g><g opacity=".999"><path fill="#1c1c1c" stroke="none" d="M302.25 85.0625C301.545 85.1149 300.803 85.2671 300.062 85.5312C297.1 86.5878 295.251 88.9806 295.938 90.9062C296.677 97.6751 296.78 104.451 296.719 111.25C296.7 113.35 296.766 115.463 296.688 117.562C296.62 119.372 296.425 121.159 296.344 122.969C295.846 134.122 294.465 145.173 292.469 156.156C291.565 161.129 290.699 166.189 289.344 171.062C287.557 177.487 285.384 183.827 283.031 190.062C283.05 190.429 283.498 190.685 284.062 190.656C284.627 190.627 285.081 190.335 285.062 189.969C286.687 185.664 288.18 181.294 289.562 176.906C290.311 174.531 290.982 172.15 291.75 169.781C294.737 160.564 297.506 151.304 299.875 141.906C301.612 135.014 303.207 128.054 304.5 121.062C304.847 119.184 305.039 117.296 305.312 115.406C305.691 112.796 306.153 110.189 306.406 107.562C307.063 100.751 307.151 93.9202 306.688 87.0938C306.172 85.6495 304.364 84.9052 302.25 85.0625Z"/></g><g opacity=".999"><path fill="#1c1c1c" stroke="none" d="M308.469 99C307.77 99.0255 307.023 99.1728 306.281 99.4062C303.312 100.34 301.424 102.633 302.031 104.562C302.266 110.461 302.022 116.33 301.688 122.219C301.591 123.911 301.545 125.597 301.344 127.281C301.209 128.413 301.008 129.556 300.875 130.688C300.548 133.477 300.241 136.258 299.781 139.031C298.758 145.206 297.305 151.284 295.75 157.344C294.74 161.279 293.729 165.223 292.594 169.125C291.754 172.009 290.703 174.84 289.75 177.688C288.781 180.584 287.872 183.498 286.938 186.406C286.972 186.778 287.459 187.053 288.031 187C288.604 186.947 289.035 186.591 289 186.219C290.852 180.456 292.575 174.62 294.75 168.969C296.07 165.539 297.499 162.139 298.844 158.719C303.782 146.157 308.496 133.371 311.094 120.094C312.31 113.878 312.729 107.509 312.781 101.188C312.326 99.7402 310.565 98.9235 308.469 99Z"/></g><g opacity=".999"><path fill="#1c1c1c" stroke="none" d="M317.062 109.625C316.367 109.639 315.648 109.748 314.906 109.969C311.937 110.85 309.99 113.133 310.562 115.062C310.616 121.16 310.109 127.174 309.344 133.219C309.121 134.977 308.958 136.727 308.625 138.469C308.4 139.646 308.088 140.827 307.844 142C307.239 144.907 306.626 147.79 305.844 150.656C304.092 157.074 301.787 163.338 299.219 169.469C297.561 173.426 295.832 177.352 293.906 181.188C292.781 183.429 291.523 185.603 290.281 187.781C288.418 191.05 286.505 194.29 284.594 197.531C284.552 197.869 284.918 198.217 285.438 198.281C285.957 198.345 286.427 198.119 286.469 197.781C289.674 192.345 292.704 186.81 295.906 181.375C297.885 178.016 299.933 174.681 301.844 171.281C308.897 158.731 315.178 145.473 318.719 131.469C320.341 125.053 321.071 118.475 321.312 111.875C320.883 110.428 319.149 109.583 317.062 109.625Z"/></g><g opacity=".999"><path fill="#1c1c1c" stroke="none" d="M289.562 93.125C288.816 93.0929 288.049 93.1245 287.312 93.25C286.069 93.4619 284.926 93.8947 283.781 94.4062C282.471 94.8569 281.963 96.8589 282.656 98.875C283.35 100.891 285.002 102.169 286.312 101.719C286.417 101.548 285.837 101.803 285.719 101.812C286.189 101.695 287.514 102.088 287.812 102.188C288.405 102.385 289.05 102.538 289.625 102.781C290.04 102.956 290.393 103.241 290.781 103.469C291.447 103.859 292.17 104.154 292.844 104.531C295.792 106.183 298.425 108.352 300.938 110.594C302.13 111.658 303.399 112.751 304.406 114C305.702 115.606 306.785 117.451 307.906 119.188C308.13 119.544 308.733 119.562 309.281 119.219C309.829 118.875 310.098 118.294 309.875 117.938C308.46 115.747 306.84 113.664 305.656 111.344C304.902 109.865 304.184 108.343 303.406 106.875C302.342 104.867 301.21 102.923 300 101C299.421 100.08 298.865 99.1247 298.219 98.25C297.74 97.6022 297.115 97.1397 296.562 96.5625C296.058 96.0363 296.08 95.9512 295.531 95.4688C293.918 94.0492 291.701 93.2171 289.562 93.125Z"/></g><g opacity=".999"><path fill="#1c1c1c" stroke="none" d="M282.375 86.5938C281.117 86.653 279.683 87.1528 278.375 88.0938C275.758 89.9757 274.62 92.8615 275.844 94.5625C277.33 96.0642 278.862 97.5636 280.469 98.9375C281.311 99.6576 282.232 100.282 283.125 100.938C284.022 101.596 284.873 102.295 285.781 102.938C289.415 105.51 292.989 108.106 296.25 111.156C297.366 112.2 298.612 113.304 299.531 114.531C300.134 115.336 300.59 116.268 301.062 117.156C301.76 118.466 302.339 119.775 302.875 121.156C303.066 121.529 303.676 121.606 304.25 121.312C304.824 121.019 305.129 120.467 304.938 120.094C304.386 118.676 303.81 117.313 303.094 115.969C302.609 115.058 302.018 114.222 301.531 113.312C300.264 110.948 299.208 108.475 297.844 106.156C295.368 101.948 292.773 97.8171 290.031 93.7812C288.609 91.6878 286.9 89.7441 285.344 87.75C284.732 86.8995 283.633 86.5345 282.375 86.5938Z"/></g><g opacity=".999"><path fill="#1c1c1c" stroke="none" d="M270.031 92.2812C268.789 92.4135 267.397 93.0231 266.156 94.0312C263.675 96.0476 262.721 98.9809 264.031 100.594C266.856 102.855 269.635 105.175 272.531 107.344C273.461 108.04 274.445 108.649 275.375 109.344C275.971 109.789 276.539 110.322 277.125 110.781C278.87 112.15 280.732 113.345 282.5 114.688C287.684 118.624 292.785 122.771 297.625 127.125C298.735 128.123 299.736 129.25 300.75 130.344C302.337 132.057 303.913 133.787 305.5 135.5C305.748 135.837 306.356 135.788 306.875 135.406C307.394 135.025 307.623 134.431 307.375 134.094C305.032 131.564 302.597 129.109 300.344 126.5C298.704 124.602 297.278 122.479 295.781 120.469C293.263 117.085 290.706 113.734 288.156 110.375C286.859 108.667 285.675 106.817 284.281 105.188C283.801 104.626 283.256 104.128 282.781 103.562C281.808 102.402 280.935 101.21 279.906 100.094C277.722 97.7248 275.373 95.4912 273.031 93.2812C272.376 92.4748 271.274 92.149 270.031 92.2812Z"/></g><g opacity=".999"><path fill="#1c1c1c" stroke="none" d="M253.5 98.125C252.074 98.1921 250.449 99.3227 249.375 101.156C247.943 103.601 248.067 106.35 249.656 107.281C254.02 107.686 258.087 109.666 261.875 111.75C263.909 112.869 265.984 113.995 267.938 115.25C268.977 115.918 269.933 116.687 270.938 117.406C273.614 119.322 276.303 121.19 278.875 123.25C284.604 127.838 289.923 133.001 294.844 138.438C296.902 140.711 298.974 143.026 300.75 145.531C301.718 146.897 302.612 148.375 303.469 149.812C305.338 152.95 306.982 156.193 308.156 159.656C308.34 160.032 308.953 160.095 309.531 159.812C310.109 159.53 310.433 159.001 310.25 158.625C309.052 155.095 307.374 151.792 305.469 148.594C304.294 146.622 302.995 144.717 301.812 142.75C296.915 134.601 291.363 126.862 285.156 119.656C282.812 116.935 280.467 114.117 277.844 111.656C276.92 110.79 275.946 109.999 275 109.156C274.09 108.345 273.192 107.493 272.25 106.719C267.287 102.635 261.272 99.307 254.844 98.4062C254.446 98.1736 253.975 98.1026 253.5 98.125Z"/></g></g><g id="Layer-3"><path fill="none" stroke="#f5891d" stroke-linecap="round" stroke-linejoin="round" stroke-width="12.874" d="M160.485 162.816C162.068 171.664 179.37 275.265 186.358 276.283" opacity=".999"/><path fill="none" stroke="#f5891d" stroke-linecap="round" stroke-linejoin="round" stroke-width="12.874" d="M163.888 161.045C170.567 138.387 218.879 162.876 218.982 184.435C219.065 201.814 159.942 206.82 175.874 213.764C190.732 220.24 224.661 199.075 237.937 212.428C263.987 238.628 213.075 293.513 184.217 273.412" opacity=".999"/><path fill="none" stroke="#f5891d" stroke-linecap="round" stroke-linejoin="round" stroke-width="4.182" d="M169.597 127.953C173.122 137.868 172.229 148.251 175.655 157.886" opacity=".999"/><path fill="none" stroke="#f5891d" stroke-linecap="round" stroke-linejoin="round" stroke-width="4.182" d="M179.54 125.383C183.807 125.907 183.85 152.482 186.863 157.52" opacity=".999"/><path fill="none" stroke="#f5891d" stroke-linecap="round" stroke-linejoin="round" stroke-width="4.182" d="M210.988 275.601C214.929 282.7 220.57 306.626 217.85 298.975" opacity=".999"/><path fill="none" stroke="#f5891d" stroke-linecap="round" stroke-linejoin="round" stroke-width="4.182" d="M222.845 271.627C225.798 279.933 227.228 288.708 230.178 297.005" opacity=".999"/></g><g id="Layer-4"><path fill="none" stroke="#f5891d" stroke-linecap="round" stroke-linejoin="round" stroke-width=".822" d="M370.203 239.316C368.675 239.62 367.549 251.895 373.472 249.101C375.057 248.353 376.671 246.652 377.419 245.093C377.794 244.312 378.082 242.351 378.045 241.555C377.619 232.475 368.743 239.604 369.467 243.256" opacity=".999"/><path fill="none" stroke="#f5891d" stroke-linecap="round" stroke-linejoin="round" stroke-width=".822" d="M372.454 246.363C371.067 246.776 372.465 249.764 372.521 250.048C372.921 252.062 372.829 257.223 376.161 255.966C380.804 254.213 381.64 248.575 377.856 245.386C377.135 244.778 374.503 242.326 373.334 243.627C372.737 244.293 373.47 246.06 372.454 246.363Z" opacity=".999"/><path fill="none" stroke="#f5891d" stroke-linecap="round" stroke-linejoin="round" stroke-width=".822" d="M376.804 253.467C376.408 253.774 376.415 252.463 375.985 252.207C375.377 251.845 375.732 253.623 375.835 254.323C375.943 255.059 376.125 255.783 376.27 256.513C376.65 258.429 377.53 263.921 380.894 262.614C383.665 261.538 384.679 253.571 382.006 251.961C381.223 251.489 379.223 251.649 378.43 252.101C377.127 252.843 377.211 254.153 377.113 254.07C376.636 253.668 377.272 253.104 376.804 253.467Z" opacity=".999"/><path fill="none" stroke="#f5891d" stroke-linecap="round" stroke-linejoin="round" stroke-width=".822" d="M380.332 260.734C380.397 260.269 380.334 259.789 380.243 259.329C380.193 259.078 380.223 259.84 380.205 260.095C380.173 260.546 380.058 260.995 380.093 261.445C380.142 262.064 380.309 262.668 380.455 263.27C380.717 264.351 381.982 270.574 384.203 269.735C386.602 268.83 387.914 262.787 386.955 260.654C386.718 260.127 385.266 259.441 384.804 259.373C380.503 258.735 379.838 264.24 380.332 260.734Z" opacity=".999"/><path fill="none" stroke="#f5891d" stroke-linecap="round" stroke-linejoin="round" stroke-width=".822" d="M384.424 268.458C384.118 268.019 384.327 266.733 383.843 266.961C382.938 267.388 384.048 270.864 384.128 271.268C384.623 273.766 385.382 280.317 389.481 278.173C392.212 276.745 393.754 271.874 391.867 269.164C391.024 267.952 384.976 266.039 384.134 267.473C383.881 267.904 383.759 268.837 384.241 268.969C384.697 269.094 384.661 268.798 384.424 268.458Z" opacity=".999"/><path fill="none" stroke="#f5891d" stroke-linecap="round" stroke-linejoin="round" stroke-width=".822" d="M389.816 274.123C388.728 273.824 389.977 286.876 393.484 284.966C395.138 284.066 395.18 282.731 395.753 281.102C396.296 279.557 397.327 277.142 396.528 275.447C394.188 270.487 388.533 272.438 389.627 277.954" opacity=".999"/><path fill="none" stroke="#f5891d" stroke-linecap="round" stroke-linejoin="round" stroke-width=".822" d="M393.835 282.431C393.866 282.874 393.37 280.768 393.308 281.208C393.006 283.331 394.891 293.208 397.302 293.694C398.729 293.982 399.844 290.392 399.861 290.341C400.555 288.222 401.477 284.123 400.094 281.948C399.245 280.614 396.748 279.305 395.17 280.079C394.736 280.293 394.434 280.759 394.256 281.209C394.041 281.757 394.565 283.215 394.035 282.96C393.361 282.637 393.768 281.502 393.835 282.431Z" opacity=".999"/><path fill="none" stroke="#f5891d" stroke-linecap="round" stroke-linejoin="round" stroke-width=".822" d="M397.909 290.064C397.848 290.336 397.77 288.964 397.747 289.243C397.591 291.126 399.203 299.542 402.442 296.658C404.534 294.795 405.948 290.366 403.769 288.048C402.136 286.31 398.759 285.189 397.894 288.075C397.703 288.715 397.241 289.441 397.526 290.045C397.733 290.483 398.102 289.212 397.909 290.064Z" opacity=".999"/><path fill="none" stroke="#f5891d" stroke-linecap="round" stroke-linejoin="round" stroke-width=".822" d="M401.587 295.215C401.292 295.656 401.194 293.178 401.097 293.7C400.732 295.651 403.817 307.32 406.623 306.261C408.491 305.556 409.046 297.316 408.136 295.718C407.782 295.097 405.695 294.013 405.11 293.852C403.833 293.502 402.774 293.333 402.044 294.65C401.747 295.184 401.842 297.014 401.639 296.437C401.305 295.485 402.03 294.552 401.587 295.215Z" opacity=".999"/><path fill="none" stroke="#f5891d" stroke-linecap="round" stroke-linejoin="round" stroke-width=".822" d="M407.175 303.306C406.831 297.193 406.677 311.954 410.409 311.96C414.032 311.966 414.397 304.738 413.27 302.477C412.684 301.299 411.472 300.099 410.1 299.881C408.036 299.554 407.198 303.713 407.175 303.306Z" opacity=".999"/><path fill="none" stroke="#f5891d" stroke-linecap="round" stroke-linejoin="round" stroke-width=".822" d="M412.202 308.569C408.981 308.41 414.332 318.958 417.588 317.554C419.083 316.91 418.848 313.969 418.727 312.776C418.543 310.958 417.83 308.742 415.889 308.028C412.922 306.935 409.668 309.782 411.867 312.619" opacity=".999"/><path fill="none" stroke="#f5891d" stroke-linecap="round" stroke-linejoin="round" stroke-width=".822" d="M417.812 314.854C420.105 313.586 417.228 314.151 417.082 314.999C416.78 316.741 418.404 324.94 421.264 323.654C424.951 321.996 424.506 314.145 421.136 312.488C418.184 311.036 414.853 316.491 417.812 314.854Z" opacity=".999"/><path fill="none" stroke="#f5891d" stroke-linecap="round" stroke-linejoin="round" stroke-width=".822" d="M421.58 319.987C421.591 319.552 421.387 318.257 421.418 318.692C421.566 320.757 424.015 332.567 427.715 328.445C429.726 326.204 429.05 319.917 426.783 318.007C421.937 313.923 421.472 324.411 421.58 319.987Z" opacity=".999"/><path fill="none" stroke="#f5891d" stroke-linecap="round" stroke-linejoin="round" stroke-width=".822" d="M426.684 323.243C426.59 323.475 426.195 322.427 426.192 322.677C426.174 324.192 429.124 333.336 430.773 333.339C432.825 333.342 434.21 326.461 433.486 325.024C432.587 323.24 430.036 321.833 428.201 321.33C426.629 320.898 426.906 322.696 426.684 323.243Z" opacity=".999"/><path fill="none" stroke="#f5891d" stroke-linecap="round" stroke-linejoin="round" stroke-width=".822" d="M432.133 326.81C434.484 325.185 431.355 326.188 431.295 326.407C430.708 328.544 433.559 335.924 436.646 334.261C439.665 332.634 438.621 323.553 434.875 323.42C432.971 323.353 429.131 328.884 432.133 326.81Z" opacity=".999"/><path fill="none" stroke="#f5891d" stroke-linecap="round" stroke-linejoin="round" stroke-width=".822" d="M437.573 325.067C437.735 324.511 437.877 328.033 438.114 329.227C438.413 330.736 440.18 337.649 443.103 335.256C445.832 333.023 446.422 327.924 443.812 325.442C442.854 324.53 437.894 322.931 436.954 324.336C436.812 324.548 436.663 325.07 436.916 325.102C437.364 325.159 437.46 325.455 437.573 325.067Z" opacity=".999"/><path fill="none" stroke="#f5891d" stroke-linecap="round" stroke-linejoin="round" stroke-width=".822" d="M441.428 322.026C440.848 318.303 442.648 330.872 445.743 327.525C447.07 326.089 447.78 322.184 446.447 320.556C445.693 319.634 444.286 319.527 443.238 319.675C440.5 320.062 441.905 325.09 441.428 322.026Z" opacity=".999"/><path fill="none" stroke="#f5891d" stroke-linecap="round" stroke-linejoin="round" stroke-width=".822" d="M444.502 316.484C444.765 316.457 445.322 316.288 445.177 316.066C445.005 315.801 444.49 315.885 444.229 316.064C443.489 316.571 444.279 319.324 444.405 319.823C444.83 321.498 446.126 324.5 448.523 323.369C451.043 322.18 452.213 315.126 448.865 314.576C446.473 314.182 439.656 316.986 444.502 316.484Z" opacity=".999"/><path fill="none" stroke="#f5891d" stroke-linecap="round" stroke-linejoin="round" stroke-width=".822" d="M450.003 310.746C448.114 309.482 448.835 318.944 450.975 318.52C452.149 318.287 452.864 316.427 453.024 315.458C454.185 308.398 445.326 307.251 446.496 313.149" opacity=".999"/><path fill="none" stroke="#f5891d" stroke-linecap="round" stroke-linejoin="round" stroke-width=".822" d="M450.394 305.547C450.302 305.881 450.636 304.198 450.669 304.544C450.813 306.031 450.405 313.841 454.27 312.176C456.905 311.04 458.06 305.379 455.926 303.311C455.108 302.519 452.769 302.368 451.95 302.393C451.268 302.414 450.461 302.347 449.942 302.791C449.457 303.206 449.436 303.981 449.356 304.614C449.285 305.172 448.962 306.457 449.499 306.293C450.381 306.025 450.596 304.811 450.394 305.547Z" opacity=".999"/><path fill="none" stroke="#f5891d" stroke-linecap="round" stroke-linejoin="round" stroke-width=".822" d="M453.164 296.556C453.43 296.576 453.563 296.195 453.712 295.973C453.836 295.787 453.296 296.231 453.237 296.447C453.137 296.811 453.247 297.202 453.271 297.578C453.343 298.715 453.484 300.407 453.849 301.447C454.468 303.211 456.468 304.06 458.116 302.877C461.243 300.633 458.635 294.544 455.101 294.37C454.499 294.34 449.429 296.282 453.164 296.556Z" opacity=".999"/><path fill="none" stroke="#f5891d" stroke-linecap="round" stroke-linejoin="round" stroke-width=".822" d="M456.003 289.354C456.034 287.822 456.075 292.219 456.344 292.985C457.047 294.987 458.28 296.774 460.608 296.313C460.978 296.239 461.411 296.19 461.667 295.913C462.987 294.485 463.481 288.863 461.241 288.03C459.733 287.47 457.17 287.713 455.876 288.715C455.631 288.905 455.169 289.614 455.474 289.554C455.912 289.467 455.994 289.798 456.003 289.354Z" opacity=".999"/><path fill="none" stroke="#f5891d" stroke-linecap="round" stroke-linejoin="round" stroke-width=".822" d="M461.521 284.656C461.812 284.566 462.028 283.777 461.723 283.762C460.375 283.696 460.509 291.819 464.815 289.788C467.93 288.318 464.731 282.747 462.053 282.558C461.467 282.517 459.32 285.332 461.521 284.656Z" opacity=".999"/><path fill="none" stroke="#f5891d" stroke-linecap="round" stroke-linejoin="round" stroke-width=".822" d="M465.214 279.845C464.981 278.209 464.4 281.879 464.426 282.088C464.649 283.87 465.753 285.351 467.484 286.033C467.905 286.199 468.412 286.305 468.834 286.145C470.59 285.482 470.554 280.374 469.539 279.177C468.135 277.519 465.386 281.058 465.214 279.845Z" opacity=".999"/><path fill="none" stroke="#f5891d" stroke-linecap="round" stroke-linejoin="round" stroke-width=".822" d="M470.806 274.088C470.619 274.675 469.31 274.411 469.218 274.688C468.517 276.779 468.958 281.189 472.091 280.567C478.168 279.362 472.464 268.885 470.806 274.088Z" opacity=".999"/></g></svg>