<?xml version="1.0" encoding="UTF-8" standalone="no"?>
<!DOCTYPE svg PUBLIC "-//W3C//DTD SVG 1.1//EN" "http://www.w3.org/Graphics/SVG/1.1/DTD/svg11.dtd">
<svg width="100%" height="100%" viewBox="0 0 2048 2048" version="1.1" xmlns="http://www.w3.org/2000/svg" xmlns:xlink="http://www.w3.org/1999/xlink" xml:space="preserve" xmlns:serif="http://www.serif.com/" style="fill-rule:evenodd;clip-rule:evenodd;stroke-linecap:round;stroke-linejoin:round;stroke-miterlimit:1.5;">
    <g transform="matrix(1.32214,0.473061,-0.473061,1.32214,-178.485,-1304.29)">
        <g transform="matrix(0.707107,0.707107,-0.707107,0.707107,895.768,-538.08)">
            <path d="M1771.3,1724.09C1949.08,1534.32 2048,1284.03 2048,1024C2048,870.753 2013.6,719.461 1947.35,581.277L1766.77,667.859C1820.07,779.019 1847.74,900.723 1847.74,1024C1847.74,1233.18 1768.16,1434.52 1625.15,1587.17L1771.3,1724.09Z" style="fill:rgb(165,255,150);"/>
            <clipPath id="_clip1">
                <path d="M1771.3,1724.09C1949.08,1534.32 2048,1284.03 2048,1024C2048,870.753 2013.6,719.461 1947.35,581.277L1766.77,667.859C1820.07,779.019 1847.74,900.723 1847.74,1024C1847.74,1233.18 1768.16,1434.52 1625.15,1587.17L1771.3,1724.09Z"/>
            </clipPath>
            <g clip-path="url(#_clip1)">
                <g transform="matrix(0.304481,-0.643762,0.643762,0.304481,641.076,1296.11)">
                    <path d="M1896.71,517.277C1914.73,469.528 1968.13,445.39 2015.88,463.409C2063.62,481.427 2087.76,534.822 2069.74,582.571C1995.59,779.09 1916.31,981.721 1805.29,1160.5C1574.9,1531.48 1191.35,1852.56 789.256,2018.42C742.076,2037.88 687.972,2015.37 668.511,1968.19C649.051,1921.02 671.555,1866.91 718.734,1847.45C1086.51,1695.75 1437.46,1402.25 1648.18,1062.93C1752.92,894.272 1826.75,702.674 1896.71,517.277Z" style="fill:rgb(102,207,110);"/>
                </g>
            </g>
            <path d="M1771.3,1724.09C1949.08,1534.32 2048,1284.03 2048,1024C2048,870.753 2013.6,719.461 1947.35,581.277L1766.77,667.859C1820.07,779.019 1847.74,900.723 1847.74,1024C1847.74,1233.18 1768.16,1434.52 1625.15,1587.17L1771.3,1724.09Z" style="fill:none;stroke:black;stroke-width:25.66px;"/>
        </g>
        <g transform="matrix(0.527029,0.527029,-0.502191,0.502191,863.185,-168.022)">
            <path d="M1771.3,1724.09C1949.08,1534.32 2048,1284.03 2048,1024C2048,893.246 2022.96,763.702 1974.23,642.367L1024,1024L1771.3,1724.09Z" style="fill:rgb(235,84,84);"/>
            <clipPath id="_clip2">
                <path d="M1771.3,1724.09C1949.08,1534.32 2048,1284.03 2048,1024C2048,893.246 2022.96,763.702 1974.23,642.367L1024,1024L1771.3,1724.09Z"/>
            </clipPath>
            <g clip-path="url(#_clip2)">
                <g transform="matrix(0.408518,-0.906445,0.863725,0.428723,562.952,1388.79)">
                    <path d="M1440.24,468.298C1459.7,421.12 1513.81,398.621 1560.99,418.086C1608.16,437.551 1630.66,491.657 1611.2,538.835C1491.07,829.98 1358.33,1153 1083.58,1334.47C899.187,1456.27 671.247,1506.49 459.469,1556.98C409.825,1568.82 359.91,1538.13 348.073,1488.48C336.236,1438.84 366.93,1388.92 416.574,1377.09C607.839,1331.48 815.12,1290.15 981.655,1180.16C1225.35,1019.2 1333.69,726.537 1440.24,468.298Z" style="fill:rgb(151,48,48);"/>
                </g>
            </g>
            <path d="M1771.3,1724.09C1949.08,1534.32 2048,1284.03 2048,1024C2048,893.246 2022.96,763.702 1974.23,642.367L1024,1024L1771.3,1724.09Z" style="fill:none;stroke:black;stroke-width:46.31px;"/>
        </g>
    </g>
    <g>
        <g transform="matrix(0.832571,-0.553918,0.761365,1.14438,-673.777,101.649)">
            <path d="M900.357,774.106C900.357,774.106 925.453,789.91 925.453,809.375C925.453,828.841 914.208,844.644 900.357,844.644C886.507,844.644 875.262,828.841 875.262,809.375C875.262,789.91 900.357,774.106 900.357,774.106Z"/>
        </g>
        <g transform="matrix(0.832571,-0.553918,0.761365,1.14438,-737.276,291.048)">
            <path d="M900.357,774.106C900.357,774.106 925.453,789.91 925.453,809.375C925.453,828.841 914.208,844.644 900.357,844.644C886.507,844.644 875.262,828.841 875.262,809.375C875.262,789.91 900.357,774.106 900.357,774.106Z"/>
        </g>
        <g transform="matrix(0.832571,-0.553918,0.761365,1.14438,-508.239,390.029)">
            <path d="M900.357,774.106C900.357,774.106 925.453,789.91 925.453,809.375C925.453,828.841 914.208,844.644 900.357,844.644C886.507,844.644 875.262,828.841 875.262,809.375C875.262,789.91 900.357,774.106 900.357,774.106Z"/>
        </g>
        <g transform="matrix(0.967191,-0.254049,0.349192,1.32941,-588.38,195.354)">
            <path d="M900.357,774.106C900.357,774.106 925.453,789.91 925.453,809.375C925.453,828.841 914.208,844.644 900.357,844.644C886.507,844.644 875.262,828.841 875.262,809.375C875.262,789.91 900.357,774.106 900.357,774.106Z"/>
        </g>
        <g transform="matrix(0.923443,-0.383735,0.527447,1.26928,-447.287,341.006)">
            <path d="M900.357,774.106C900.357,774.106 925.453,789.91 925.453,809.375C925.453,828.841 914.208,844.644 900.357,844.644C886.507,844.644 875.262,828.841 875.262,809.375C875.262,789.91 900.357,774.106 900.357,774.106Z"/>
        </g>
        <g transform="matrix(0.735284,-0.677759,0.931585,1.01066,-324.217,744.726)">
            <path d="M900.357,774.106C900.357,774.106 925.453,789.91 925.453,809.375C925.453,828.841 914.208,844.644 900.357,844.644C886.507,844.644 875.262,828.841 875.262,809.375C875.262,789.91 900.357,774.106 900.357,774.106Z"/>
        </g>
    </g>
</svg>
