<?xml version="1.0" encoding="UTF-8" standalone="no"?>
<!DOCTYPE svg PUBLIC "-//W3C//DTD SVG 1.1//EN" "http://www.w3.org/Graphics/SVG/1.1/DTD/svg11.dtd">
<svg width="100%" height="100%" viewBox="0 0 2048 2048" version="1.1" xmlns="http://www.w3.org/2000/svg" xmlns:xlink="http://www.w3.org/1999/xlink" xml:space="preserve" xmlns:serif="http://www.serif.com/" style="fill-rule:evenodd;clip-rule:evenodd;stroke-linecap:round;stroke-linejoin:round;stroke-miterlimit:1.5;">
    <path d="M946.904,1292.89C734.549,1368.78 500.16,1369.39 280.571,1292.92L446.678,730.038L474.39,801.991L683.252,1079.41L946.904,1292.89Z" style="fill:rgb(235,84,84);"/>
    <g>
        <clipPath id="_clip1">
            <path d="M946.904,1292.89C734.549,1368.78 500.16,1369.39 280.571,1292.92L446.678,730.038L474.39,801.991L683.252,1079.41L946.904,1292.89Z"/>
        </clipPath>
        <g clip-path="url(#_clip1)">
            <path d="M764.637,1145.31C806.266,1201.6 867.855,1198.97 946.904,1292.89C679.251,1360.78 841.011,1308.46 567.629,1350.04C599.207,1310.11 227.536,1384.38 442.266,1297.49C697.252,1212.28 563.546,1264.11 764.637,1145.31Z" style="fill:rgb(220,57,57);"/>
            <g>
                <path d="M426.446,1141.61C426.446,1141.61 456.237,1156.24 463.034,1182.12C469.831,1208 464.473,1231.86 451.077,1235.38C437.681,1238.9 421.287,1220.75 414.49,1194.87C407.693,1168.99 426.446,1141.61 426.446,1141.61Z"/>
            </g>
            <g>
                <path d="M609.643,1163.77C609.643,1163.77 642.791,1165.46 659.252,1186.55C675.713,1207.65 680.208,1231.68 669.29,1240.21C658.371,1248.73 636.144,1238.52 619.683,1217.43C603.222,1196.33 609.643,1163.77 609.643,1163.77Z"/>
            </g>
            <g>
                <path d="M493.228,964.197C493.228,964.197 523.019,978.83 529.816,1004.71C536.613,1030.59 531.255,1054.45 517.859,1057.97C504.463,1061.49 488.069,1043.34 481.272,1017.46C474.475,991.58 493.228,964.197 493.228,964.197Z"/>
            </g>
        </g>
    </g>
    <path d="M946.904,1292.89C734.549,1368.78 500.16,1369.39 280.571,1292.92L446.678,730.038L474.39,801.991L683.252,1079.41L946.904,1292.89Z" style="fill:none;stroke:black;stroke-width:47.34px;"/>
    <path d="M1083.67,1361.74L1276.67,1451.62L1433.34,1476.6C1357.8,1532.77 1276.41,1581.77 1190.13,1622.58C860.047,1778.69 482.935,1803.39 135.311,1691.66L221.364,1423.93C501.004,1513.82 804.365,1493.95 1069.89,1368.36C1074.5,1366.18 1079.09,1363.98 1083.67,1361.74Z" style="fill:rgb(165,255,150);"/>
    <g>
        <clipPath id="_clip2">
            <path d="M1083.67,1361.74L1276.67,1451.62L1433.34,1476.6C1357.8,1532.77 1276.41,1581.77 1190.13,1622.58C860.047,1778.69 482.935,1803.39 135.311,1691.66L221.364,1423.93C501.004,1513.82 804.365,1493.95 1069.89,1368.36C1074.5,1366.18 1079.09,1363.98 1083.67,1361.74Z"/>
        </clipPath>
        <g clip-path="url(#_clip2)">
            <path d="M1186.04,1409.41C1180.41,1449.9 1246.94,1419.84 1331.76,1460.4C1418.15,1501.72 1442.09,1437.67 1382.56,1512.68C908.621,1771.58 1322.62,1586.05 848.471,1734.46C757.086,1763.06 717.314,1753.12 624.609,1772.34C515.904,1751.1 246.141,1769.45 337.526,1740.84C745.681,1751.47 912.785,1753.67 1186.04,1409.41Z" style="fill:rgb(110,202,117);"/>
        </g>
    </g>
    <path d="M1083.67,1361.74L1276.67,1451.62L1433.34,1476.6C1357.8,1532.77 1276.41,1581.77 1190.13,1622.58C860.047,1778.69 482.935,1803.39 135.311,1691.66L221.364,1423.93C501.004,1513.82 804.365,1493.95 1069.89,1368.36C1074.5,1366.18 1079.09,1363.98 1083.67,1361.74Z" style="fill:none;stroke:black;stroke-width:36.04px;"/>
</svg>
