<?xml version="1.0" encoding="UTF-8" standalone="no"?>
<!DOCTYPE svg PUBLIC "-//W3C//DTD SVG 1.1//EN" "http://www.w3.org/Graphics/SVG/1.1/DTD/svg11.dtd">
<svg width="100%" height="100%" viewBox="0 0 2048 2048" version="1.1" xmlns="http://www.w3.org/2000/svg" xmlns:xlink="http://www.w3.org/1999/xlink" xml:space="preserve" xmlns:serif="http://www.serif.com/" style="fill-rule:evenodd;clip-rule:evenodd;stroke-linecap:round;stroke-linejoin:round;stroke-miterlimit:1.5;">
    <path d="M946.904,1292.89C734.549,1368.78 500.16,1369.39 280.571,1292.92L446.678,730.038L474.39,801.991L683.252,1079.41L946.904,1292.89Z" style="fill:rgb(235,84,84);"/>
    <clipPath id="_clip1">
        <path d="M946.904,1292.89C734.549,1368.78 500.16,1369.39 280.571,1292.92L446.678,730.038L474.39,801.991L683.252,1079.41L946.904,1292.89Z"/>
    </clipPath>
    <g clip-path="url(#_clip1)">
        <path d="M1064.24,959.128C1139.64,900.113 1248.78,913.424 1307.8,988.834C1366.81,1064.24 1353.5,1173.38 1278.09,1232.39C1046.58,1413.57 843.872,1509.3 572.436,1619.14C332.178,1716.37 94.52,1793.58 -162.327,1832.32C-257.013,1846.6 -345.481,1781.32 -359.762,1686.64C-374.044,1591.95 -308.765,1503.48 -214.079,1489.2C15.477,1454.58 227.536,1384.38 442.266,1297.49C681.103,1200.83 860.532,1118.54 1064.24,959.128Z" style="fill:rgb(220,57,57);"/>
        <g transform="matrix(1,0,0,1,-126.304,145.881)">
            <path d="M552.75,995.727C552.75,995.727 582.541,1010.36 589.338,1036.24C596.135,1062.12 590.777,1085.98 577.381,1089.5C563.985,1093.02 547.591,1074.87 540.794,1048.99C533.997,1023.11 552.75,995.727 552.75,995.727Z"/>
        </g>
        <g transform="matrix(0.918793,-0.394739,0.394739,0.918793,-291.272,467.096)">
            <path d="M552.75,995.727C552.75,995.727 582.541,1010.36 589.338,1036.24C596.135,1062.12 590.777,1085.98 577.381,1089.5C563.985,1093.02 547.591,1074.87 540.794,1048.99C533.997,1023.11 552.75,995.727 552.75,995.727Z"/>
        </g>
        <g transform="matrix(1,0,0,1,-59.5217,-31.5299)">
            <path d="M552.75,995.727C552.75,995.727 582.541,1010.36 589.338,1036.24C596.135,1062.12 590.777,1085.98 577.381,1089.5C563.985,1093.02 547.591,1074.87 540.794,1048.99C533.997,1023.11 552.75,995.727 552.75,995.727Z"/>
        </g>
    </g>
    <path d="M946.904,1292.89C734.549,1368.78 500.16,1369.39 280.571,1292.92L446.678,730.038L474.39,801.991L683.252,1079.41L946.904,1292.89Z" style="fill:none;stroke:black;stroke-width:47.34px;"/>
    <path d="M1083.67,1361.74L1276.67,1451.62L1433.34,1476.6C1357.8,1532.77 1276.41,1581.77 1190.13,1622.58C860.047,1778.69 482.935,1803.39 135.311,1691.66L221.364,1423.93C501.004,1513.82 804.365,1493.95 1069.89,1368.36C1074.5,1366.18 1079.09,1363.98 1083.67,1361.74Z" style="fill:rgb(165,255,150);"/>
    <clipPath id="_clip2">
        <path d="M1083.67,1361.74L1276.67,1451.62L1433.34,1476.6C1357.8,1532.77 1276.41,1581.77 1190.13,1622.58C860.047,1778.69 482.935,1803.39 135.311,1691.66L221.364,1423.93C501.004,1513.82 804.365,1493.95 1069.89,1368.36C1074.5,1366.18 1079.09,1363.98 1083.67,1361.74Z"/>
    </clipPath>
    <g clip-path="url(#_clip2)">
        <path d="M1411.82,1200.18C1471.35,1125.17 1580.58,1112.62 1655.58,1172.15C1730.58,1231.68 1743.14,1340.9 1683.61,1415.91C1365.9,1816.18 905.349,2004.87 431.198,2153.28C339.813,2181.88 242.397,2130.91 213.793,2039.53C185.189,1948.14 236.159,1850.73 327.544,1822.12C735.346,1694.48 1138.57,1544.44 1411.82,1200.18Z" style="fill:rgb(110,202,117);"/>
    </g>
    <path d="M1083.67,1361.74L1276.67,1451.62L1433.34,1476.6C1357.8,1532.77 1276.41,1581.77 1190.13,1622.58C860.047,1778.69 482.935,1803.39 135.311,1691.66L221.364,1423.93C501.004,1513.82 804.365,1493.95 1069.89,1368.36C1074.5,1366.18 1079.09,1363.98 1083.67,1361.74Z" style="fill:none;stroke:black;stroke-width:36.04px;"/>
</svg>
