<?xml version="1.0" encoding="UTF-8" standalone="no"?>
<!DOCTYPE svg PUBLIC "-//W3C//DTD SVG 1.1//EN" "http://www.w3.org/Graphics/SVG/1.1/DTD/svg11.dtd">
<svg width="100%" height="100%" viewBox="0 0 626 476" version="1.1" xmlns="http://www.w3.org/2000/svg" xmlns:xlink="http://www.w3.org/1999/xlink" xml:space="preserve" xmlns:serif="http://www.serif.com/" style="fill-rule:evenodd;clip-rule:evenodd;stroke-linejoin:round;stroke-miterlimit:2;">
    <g>
        <path d="M573.5,66.5C573.631,65.624 573.298,64.957 572.5,64.5C571.422,66.461 570.089,68.128 568.5,69.5C558.456,71.36 548.789,70.193 539.5,66C538.748,65.329 538.414,64.496 538.5,63.5C544.704,65.341 551.037,66.674 557.5,67.5C559.5,67.333 561.5,67.167 563.5,67C564.756,66.583 565.423,65.75 565.5,64.5C565.918,63.778 566.584,63.278 567.5,63C557.099,61.625 547.433,58.292 538.5,53C530.597,45.553 522.93,37.886 515.5,30C508.27,25.44 500.603,21.774 492.5,19C485.231,18.156 478.231,19.156 471.5,22C470.934,22.995 470.267,23.828 469.5,24.5C465.074,24.72 463.074,27.054 463.5,31.5L455.5,31.5C456.167,30.833 456.833,30.167 457.5,29.5C474.813,12.84 493.48,11.34 513.5,25C522.845,35.011 532.845,44.344 543.5,53C552.91,57.6 562.91,60.1 573.5,60.5C574.793,62.637 574.793,64.637 573.5,66.5Z" style="fill:rgb(235,155,141);"/>
    </g>
    <g>
        <path d="M565.5,64.5C559.933,64.039 554.266,63.039 548.5,61.5C548.023,60.522 547.357,59.689 546.5,59C533.243,56.177 521.91,49.844 512.5,40C506.713,37.606 501.046,34.94 495.5,32C487.294,29.953 478.961,29.119 470.5,29.5C470.371,27.784 470.038,26.117 469.5,24.5C470.267,23.828 470.934,22.995 471.5,22C478.231,19.156 485.231,18.156 492.5,19C500.603,21.774 508.27,25.44 515.5,30C522.93,37.886 530.597,45.553 538.5,53C547.433,58.292 557.099,61.625 567.5,63C566.584,63.278 565.918,63.778 565.5,64.5Z" style="fill:rgb(244,188,180);"/>
    </g>
    <g>
        <path d="M399.5,10.5C402.237,11.031 404.904,11.864 407.5,13C411.312,16.482 414.812,20.315 418,24.5C418.483,25.448 418.649,26.448 418.5,27.5C419.675,27.281 420.675,27.614 421.5,28.5C425.623,34.413 428.957,40.747 431.5,47.5C432.55,56.851 432.55,66.184 431.5,75.5C423.574,76.866 417.241,74.366 412.5,68C410.975,66.991 409.308,66.491 407.5,66.5L407.5,63.5C399.68,59.761 391.68,56.261 383.5,53C373.574,47.658 362.908,44.492 351.5,43.5C350.974,40.192 352.307,38.026 355.5,37C365.738,35.653 375.738,33.653 385.5,31C387.293,28.205 389.46,25.705 392,23.5C393.549,19.519 393.715,15.519 392.5,11.5C394.743,10.526 397.076,10.192 399.5,10.5Z" style="fill:rgb(244,187,180);"/>
    </g>
    <g>
        <path d="M295.5,27.5C298.028,28.166 300.694,28.832 303.5,29.5C300.833,29.833 298.167,30.167 295.5,30.5C258.153,29.167 220.82,29.5 183.5,31.5C187.759,30.139 192.093,29.139 196.5,28.5C229.468,26.365 262.468,26.032 295.5,27.5Z" style="fill:rgb(235,147,135);"/>
    </g>
    <g>
        <path d="M348.5,207.5L351.5,207.5C351.402,211.25 352.569,214.583 355,217.5C357.744,219.085 359.911,221.085 361.5,223.5C361.995,225.482 362.495,227.482 363,229.5C364.572,232.763 366.572,235.763 369,238.5C370.661,244.466 372.827,250.133 375.5,255.5C376.12,266.438 374.787,277.105 371.5,287.5C370.127,287.343 368.793,287.51 367.5,288C368.374,289.727 368.207,291.56 367,293.5C363.297,298.368 359.13,302.702 354.5,306.5C354.167,306 353.833,305.5 353.5,305C356.365,296.714 357.865,288.214 358,279.5C357.333,280.167 356.667,280.833 356,281.5C345.078,298.174 335.578,315.674 327.5,334C325.781,336.578 324.115,339.078 322.5,341.5C323.037,342.741 323.704,343.908 324.5,345C321.25,352.097 319.417,359.597 319,367.5C318.667,384.5 318.333,401.5 318,418.5C317.63,424.603 314.797,428.937 309.5,431.5C303.344,428.852 298.178,424.852 294,419.5C291.536,415.566 289.369,411.566 287.5,407.5C286.356,405.9 285.189,404.233 284,402.5C282.231,391.088 279.064,380.088 274.5,369.5C275.609,367.786 274.942,367.119 272.5,367.5C268.583,350.248 264.916,332.915 261.5,315.5C258.217,287.274 259.384,259.274 265,231.5C267.644,224.251 269.644,216.918 271,209.5C263.892,220.071 256.559,230.404 249,240.5C249.332,244.841 247.998,248.841 245,252.5C241.288,264.065 237.954,275.731 235,287.5C226.429,298.337 215.096,302.671 201,300.5C188.521,301.382 176.687,299.216 165.5,294C165.043,293.586 164.709,293.086 164.5,292.5C169.552,276.322 171.718,259.989 171,243.5C168.268,254.03 164.934,264.363 161,274.5C155.509,282.139 150.009,289.805 144.5,297.5C143.534,299.396 143.201,301.396 143.5,303.5C142.022,303.238 140.689,303.571 139.5,304.5C132.622,314.258 126.788,324.591 122,335.5C121.667,338.167 121.333,340.833 121,343.5C120.333,344.833 119.333,345.833 118,346.5C117.269,353.712 116.102,360.712 114.5,367.5C113.681,382.384 115.014,397.051 118.5,411.5C117.94,414.945 116.607,417.945 114.5,420.5C113.117,417.924 112.283,418.258 112,421.5C106.608,421.043 102.275,418.71 99,414.5C96.409,409.569 93.909,404.569 91.5,399.5C88.662,387.827 85.829,376.161 83,364.5C81.109,357.151 81.109,349.817 83,342.5C87.975,338.196 92.975,333.862 98,329.5C102.002,322.91 101.335,316.91 96,311.5C95.998,304.997 93.498,299.664 88.5,295.5C79.797,280.232 70.63,265.232 61,250.5C56,237.167 51,223.833 46,210.5C42.409,187.997 43.242,165.663 48.5,143.5C52.317,133.862 57.15,124.862 63,116.5C63.493,114.866 63.66,113.199 63.5,111.5C66.536,110.188 68.702,107.854 70,104.5C74.41,101.259 77.91,97.259 80.5,92.5C85.209,89.137 89.542,85.304 93.5,81C98.355,79.48 102.022,76.48 104.5,72C106.608,71.64 108.608,70.973 110.5,70C112.514,67.655 114.847,65.655 117.5,64C142.933,50.135 170.266,42.135 199.5,40C237.61,37.144 274.944,41.144 311.5,52C314.608,54.106 317.941,55.772 321.5,57C322.592,59.594 324.259,61.761 326.5,63.5C328.387,67.6 329.387,71.933 329.5,76.5C328.37,93.048 326.204,109.381 323,125.5C318.378,147.035 321.378,167.368 332,186.5C335.581,191.328 338.915,196.328 342,201.5C343.731,204.068 345.898,206.068 348.5,207.5Z" style="fill:rgb(243,186,179);"/>
    </g>
    <g>
        <path d="M521.5,57.5C521.062,57.435 520.728,57.601 520.5,58C524.98,64.806 529.813,71.306 535,77.5C536.759,80.608 537.592,83.941 537.5,87.5C550.015,88.071 559.848,83.404 567,73.5C567.791,72.255 568.291,70.922 568.5,69.5C570.089,68.128 571.422,66.461 572.5,64.5C573.298,64.957 573.631,65.624 573.5,66.5C567.921,80.084 557.921,88.084 543.5,90.5L534.5,90.5C533.793,86.752 532.793,83.086 531.5,79.5L527.5,79.5C527.144,77.81 526.144,76.81 524.5,76.5C522.309,71.775 518.975,68.109 514.5,65.5C511.955,62.173 509.288,59.007 506.5,56C505.5,55.667 504.5,55.333 503.5,55C500.253,52.259 497.586,49.092 495.5,45.5L495.5,42.5C491.601,42.369 488.268,41.036 485.5,38.5C494.842,36.839 502.508,39.672 508.5,47C509.448,47.483 510.448,47.65 511.5,47.5C511.119,49.942 511.786,50.609 513.5,49.5C517.188,51.188 519.855,53.855 521.5,57.5Z" style="fill:rgb(232,133,143);"/>
    </g>
    <g>
        <path d="M196.5,28.5C192.093,29.139 187.759,30.139 183.5,31.5C171.401,32.448 159.401,34.115 147.5,36.5C147.291,37.086 146.957,37.586 146.5,38C134.927,38.238 123.76,40.404 113,44.5C110.35,47.029 107.184,48.029 103.5,47.5L103.5,50.5C101.042,50.228 99.375,51.228 98.5,53.5C96.604,54.466 94.604,54.799 92.5,54.5L92.5,57.5L89.5,57.5C89.005,61.353 87.005,62.686 83.5,61.5C82.304,61.846 82.304,62.346 83.5,63C82.207,63.49 80.873,63.657 79.5,63.5C79.881,65.942 79.214,66.609 77.5,65.5C74.167,68.5 70.833,71.5 67.5,74.5C66.703,74.043 66.369,73.376 66.5,72.5C79.429,58.027 95.096,47.527 113.5,41C140.598,33.486 168.265,29.32 196.5,28.5Z" style="fill:rgb(235,151,139);"/>
    </g>
    <g>
        <path d="M463.5,31.5C474.077,32.997 484.743,34.164 495.5,35C506.225,39.411 515.559,45.744 523.5,54C527.807,57.483 532.473,60.317 537.5,62.5C536.054,63.613 534.387,63.78 532.5,63C529.083,60.623 525.417,58.789 521.5,57.5C519.855,53.855 517.188,51.188 513.5,49.5C511.786,50.609 511.119,49.942 511.5,47.5C510.448,47.65 509.448,47.483 508.5,47C502.508,39.672 494.842,36.839 485.5,38.5C488.268,41.036 491.601,42.369 495.5,42.5L495.5,45.5C485.668,41.177 475.668,37.177 465.5,33.5C464.287,33.253 463.62,32.586 463.5,31.5Z" style="fill:rgb(234,142,136);"/>
    </g>
    <g>
        <path d="M469.5,24.5C470.038,26.117 470.371,27.784 470.5,29.5C478.961,29.119 487.294,29.953 495.5,32C501.046,34.94 506.713,37.606 512.5,40C521.91,49.844 533.243,56.177 546.5,59C547.357,59.689 548.023,60.522 548.5,61.5C554.266,63.039 559.933,64.039 565.5,64.5C565.423,65.75 564.756,66.583 563.5,67C561.5,67.167 559.5,67.333 557.5,67.5C551.037,66.674 544.704,65.341 538.5,63.5C538.5,62.833 538.167,62.5 537.5,62.5C532.473,60.317 527.807,57.483 523.5,54C515.559,45.744 506.225,39.411 495.5,35C484.743,34.164 474.077,32.997 463.5,31.5C463.074,27.054 465.074,24.72 469.5,24.5Z" style="fill:rgb(240,167,159);"/>
    </g>
    <g>
        <path d="M399.5,10.5C397.076,10.192 394.743,10.526 392.5,11.5C393.715,15.519 393.549,19.519 392,23.5C389.46,25.705 387.293,28.205 385.5,31C375.738,33.653 365.738,35.653 355.5,37C352.307,38.026 350.974,40.192 351.5,43.5C362.908,44.492 373.574,47.658 383.5,53C391.68,56.261 399.68,59.761 407.5,63.5L407.5,66.5C409.308,66.491 410.975,66.991 412.5,68C417.241,74.366 423.574,76.866 431.5,75.5C432.55,66.184 432.55,56.851 431.5,47.5C438.605,61.519 439.272,75.852 433.5,90.5C431.926,91.631 430.259,91.798 428.5,91C412.114,81.481 396.114,71.481 380.5,61C374.292,58.892 367.959,57.392 361.5,56.5C355.602,55.798 350.935,57.798 347.5,62.5C347.833,62.833 348.167,63.167 348.5,63.5C355.489,57.403 356.989,58.403 353,66.5C352.667,66.167 352.333,65.833 352,65.5C351.437,71.954 350.27,78.287 348.5,84.5C338.747,71.41 334.581,56.743 336,40.5C339.65,35.705 344.484,32.872 350.5,32C348.866,31.507 347.199,31.34 345.5,31.5C345.918,30.778 346.584,30.278 347.5,30C351.833,29.667 356.167,29.333 360.5,29C363.703,25.629 367.036,22.462 370.5,19.5C370.369,20.376 370.702,21.043 371.5,21.5C373.517,20.826 375.183,19.659 376.5,18C377.793,17.51 379.127,17.343 380.5,17.5C380.343,16.127 380.51,14.793 381,13.5C386.911,10.214 393.077,9.214 399.5,10.5Z" style="fill:rgb(239,166,159);"/>
    </g>
    <g>
        <path d="M424.5,28.5C435.527,28.287 446.527,28.62 457.5,29.5C456.833,30.167 456.167,30.833 455.5,31.5C448.806,30.531 442.14,30.531 435.5,31.5C435.335,35.182 435.501,38.848 436,42.5C443.534,60.42 444.368,78.587 438.5,97C438.833,97.333 439.167,97.667 439.5,98C437.129,98.735 434.795,99.568 432.5,100.5C418.915,91.747 404.082,86.414 388,84.5C377.665,84.491 370.998,89.491 368,99.5C364.412,120.602 365.079,141.602 370,162.5C372.477,167.931 374.144,173.597 375,179.5C377.656,183.144 379.489,187.144 380.5,191.5L383.5,191.5C386.486,196.076 389.986,200.409 394,204.5C394.455,207.757 396.121,210.091 399,211.5C399.483,212.448 399.649,213.448 399.5,214.5L402.5,214.5C402.281,215.675 402.614,216.675 403.5,217.5C411.83,221.904 420.497,225.571 429.5,228.5C456.04,235.76 472.04,225.427 477.5,197.5C478.192,198.025 478.692,198.692 479,199.5C479.82,206.014 479.653,212.347 478.5,218.5C478.665,214.818 478.499,211.152 478,207.5C475.958,219.768 469.791,229.268 459.5,236C465.972,235.678 471.138,232.845 475,227.5C490.459,239.408 507.959,244.242 527.5,242C538.68,239.203 550.013,237.703 561.5,237.5L567.5,237.5L567.5,238.5C561.814,244.851 555.481,250.517 548.5,255.5C548.719,254.325 548.386,253.325 547.5,252.5C536.359,259.05 524.359,263.55 511.5,266C492.191,268.656 472.858,268.99 453.5,267C418.817,257.488 391.151,237.988 370.5,208.5C369.675,207.614 368.675,207.281 367.5,207.5C367.628,205.345 367.128,203.345 366,201.5C345.254,171.105 338.588,137.771 346,101.5C348.526,97.086 350.359,92.42 351.5,87.5C356.032,80.12 361.198,73.12 367,66.5C367.483,65.552 367.649,64.552 367.5,63.5C369.099,63.768 370.432,63.435 371.5,62.5C372.117,62.389 372.617,62.056 373,61.5C375.544,62.883 378.044,64.383 380.5,66C384.442,65.937 387.442,67.603 389.5,71C393.003,72.757 396.336,74.591 399.5,76.5L399.5,79.5C401.199,79.34 402.866,79.507 404.5,80C412.132,84.277 419.799,88.611 427.5,93C430.002,94.432 432.502,94.598 435,93.5C436.608,90.618 437.941,87.618 439,84.5C440.626,71.566 439.126,59.066 434.5,47C432.339,43.204 430.172,39.371 428,35.5C427.51,34.207 427.343,32.873 427.5,31.5C428.978,31.762 430.311,31.429 431.5,30.5C429.031,29.832 426.698,29.165 424.5,28.5Z" style="fill:rgb(239,166,159);"/>
    </g>
    <g>
        <path d="M521.5,57.5C525.417,58.789 529.083,60.623 532.5,63C534.387,63.78 536.054,63.613 537.5,62.5C538.167,62.5 538.5,62.833 538.5,63.5C538.414,64.496 538.748,65.329 539.5,66C548.789,70.193 558.456,71.36 568.5,69.5C568.291,70.922 567.791,72.255 567,73.5C559.848,83.404 550.015,88.071 537.5,87.5C537.592,83.941 536.759,80.608 535,77.5C529.813,71.306 524.98,64.806 520.5,58C520.728,57.601 521.062,57.435 521.5,57.5Z" style="fill:rgb(234,147,162);"/>
    </g>
    <g>
        <path d="M516.5,74.5C517.833,76.5 519.5,78.167 521.5,79.5C522.028,80.847 522.195,82.181 522,83.5C515.882,77.851 510.215,78.184 505,84.5C505.201,77.158 509.034,73.825 516.5,74.5Z" style="fill:rgb(151,73,30);"/>
    </g>
    <g>
        <path d="M63.5,74.5C64.497,74.47 65.164,74.97 65.5,76C55.978,85.999 48.312,97.166 42.5,109.5C41.614,108.675 41.281,107.675 41.5,106.5C44.475,99.562 47.809,92.895 51.5,86.5C54.256,85.55 56.589,83.383 58.5,80C58.241,78.739 57.574,77.739 56.5,77C50.485,73.965 44.152,72.965 37.5,74C26.926,75.955 19.426,81.788 15,91.5C14.333,95.5 14.333,99.5 15,103.5C17.208,110.11 21.708,112.276 28.5,110C34.423,105.145 36.09,98.979 33.5,91.5C32.2,88.568 30.2,86.234 27.5,84.5C30.807,80.353 35.14,78.686 40.5,79.5C42.833,79.833 45.167,80.167 47.5,80.5C49.977,81.88 49.977,82.88 47.5,83.5C41.923,80.532 36.59,80.866 31.5,84.5C39.411,93.399 39.411,102.233 31.5,111C22.345,115.838 16.178,113.338 13,103.5C12.333,99.167 12.333,94.833 13,90.5C14.559,88.783 15.392,86.783 15.5,84.5C13.143,84.663 10.81,84.497 8.5,84C5.833,82 5.833,80 8.5,78C13.833,77.667 19.167,77.333 24.5,77C36.429,69.92 48.429,69.753 60.5,76.5C61.739,76.058 62.739,75.391 63.5,74.5Z" style="fill:rgb(235,158,144);"/>
    </g>
    <g>
        <path d="M51.5,86.5C50.128,85.488 48.795,84.488 47.5,83.5C49.977,82.88 49.977,81.88 47.5,80.5C45.167,80.167 42.833,79.833 40.5,79.5C35.14,78.686 30.807,80.353 27.5,84.5C30.2,86.234 32.2,88.568 33.5,91.5C36.09,98.979 34.423,105.145 28.5,110C21.708,112.276 17.208,110.11 15,103.5C14.333,99.5 14.333,95.5 15,91.5C19.426,81.788 26.926,75.955 37.5,74C44.152,72.965 50.485,73.965 56.5,77C57.574,77.739 58.241,78.739 58.5,80C56.589,83.383 54.256,85.55 51.5,86.5Z" style="fill:rgb(245,189,179);"/>
    </g>
    <g>
        <path d="M455.5,31.5L463.5,31.5C463.62,32.586 464.287,33.253 465.5,33.5C475.668,37.177 485.668,41.177 495.5,45.5C497.586,49.092 500.253,52.259 503.5,55C504.5,55.333 505.5,55.667 506.5,56C509.288,59.007 511.955,62.173 514.5,65.5C518.975,68.109 522.309,71.775 524.5,76.5C521.381,74.39 519.048,71.723 517.5,68.5L513.5,68.5C513.683,70.988 514.683,72.988 516.5,74.5C509.034,73.825 505.201,77.158 505,84.5C510.215,78.184 515.882,77.851 522,83.5C522.195,82.181 522.028,80.847 521.5,79.5C523.291,83.556 524.958,87.889 526.5,92.5C527.325,93.386 528.325,93.719 529.5,93.5C532.176,102.519 536.676,110.519 543,117.5C544.926,124.639 548.76,130.473 554.5,135C558.201,136.201 561.201,138.368 563.5,141.5C565.817,140.29 567.817,140.79 569.5,143C573.211,143.825 576.878,143.659 580.5,142.5C560.24,134.406 545.74,120.406 537,100.5C534.632,96.102 533.132,91.435 532.5,86.5C529.61,84.957 527.943,82.624 527.5,79.5L531.5,79.5C532.793,83.086 533.793,86.752 534.5,90.5L543.5,90.5C541.302,91.165 538.969,91.832 536.5,92.5C539.822,100.477 543.655,108.143 548,115.5C560.112,129.125 574.612,139.125 591.5,145.5C583.139,144.32 574.805,144.32 566.5,145.5C561.626,145.766 556.959,146.933 552.5,149C549.257,154.077 544.924,157.91 539.5,160.5C529.901,180.383 524.401,201.383 523,223.5C518.882,230.658 512.716,233.158 504.5,231C498.989,229.1 493.322,227.767 487.5,227C484.992,225.097 482.159,223.93 479,223.5C477.97,223.164 477.47,222.497 477.5,221.5C477.263,220.209 477.596,219.209 478.5,218.5C479.653,212.347 479.82,206.014 479,199.5C478.692,198.692 478.192,198.025 477.5,197.5C472.04,225.427 456.04,235.76 429.5,228.5C420.497,225.571 411.83,221.904 403.5,217.5C402.614,216.675 402.281,215.675 402.5,214.5L399.5,214.5C399.649,213.448 399.483,212.448 399,211.5C396.121,210.091 394.455,207.757 394,204.5C389.986,200.409 386.486,196.076 383.5,191.5L380.5,191.5C379.489,187.144 377.656,183.144 375,179.5C374.144,173.597 372.477,167.931 370,162.5C365.079,141.602 364.412,120.602 368,99.5C370.998,89.491 377.665,84.491 388,84.5C404.082,86.414 418.915,91.747 432.5,100.5C434.795,99.568 437.129,98.735 439.5,98C439.167,97.667 438.833,97.333 438.5,97C444.368,78.587 443.534,60.42 436,42.5C435.501,38.848 435.335,35.182 435.5,31.5C442.14,30.531 448.806,30.531 455.5,31.5Z" style="fill:rgb(243,186,179);"/>
    </g>
    <g>
        <path d="M457.5,72.5C463.771,72.141 467.104,74.807 467.5,80.5C462.648,76.561 457.815,76.561 453,80.5C452.333,79.5 452.333,78.5 453,77.5C454.366,75.638 455.866,73.972 457.5,72.5Z" style="fill:rgb(149,76,31);"/>
    </g>
    <g>
        <path d="M524.5,76.5C526.144,76.81 527.144,77.81 527.5,79.5C527.943,82.624 529.61,84.957 532.5,86.5C533.132,91.435 534.632,96.102 537,100.5C545.74,120.406 560.24,134.406 580.5,142.5C576.878,143.659 573.211,143.825 569.5,143C567.817,140.79 565.817,140.29 563.5,141.5C561.201,138.368 558.201,136.201 554.5,135C548.76,130.473 544.926,124.639 543,117.5C536.676,110.519 532.176,102.519 529.5,93.5C528.325,93.719 527.325,93.386 526.5,92.5C524.958,87.889 523.291,83.556 521.5,79.5C519.5,78.167 517.833,76.5 516.5,74.5C514.683,72.988 513.683,70.988 513.5,68.5L517.5,68.5C519.048,71.723 521.381,74.39 524.5,76.5Z" style="fill:rgb(247,202,193);"/>
    </g>
    <g>
        <path d="M23.5,87.5C25.39,87.297 26.89,87.963 28,89.5C31.31,93.215 32.31,97.548 31,102.5C24.572,108.431 20.739,106.931 19.5,98C20.528,94.421 21.861,90.921 23.5,87.5Z" style="fill:rgb(236,154,143);"/>
    </g>
    <g>
        <path d="M24.5,91.5C29.078,92.843 30.578,95.843 29,100.5C25.207,104.54 22.707,103.707 21.5,98C21.84,95.489 22.84,93.322 24.5,91.5Z" style="fill:rgb(252,241,238);"/>
    </g>
    <g>
        <path d="M458.5,112.5C462.181,113.857 463.015,116.19 461,119.5C460.292,118.619 459.458,117.953 458.5,117.5L458.5,112.5Z" style="fill:rgb(211,214,208);"/>
    </g>
    <g>
        <path d="M531.5,121.5C530.596,122.209 530.263,123.209 530.5,124.5C528.801,124.66 527.134,124.494 525.5,124C523.347,121.005 521.681,117.838 520.5,114.5C520.34,112.801 520.506,111.134 521,109.5C521.934,112.592 523.1,112.925 524.5,110.5C524.456,107.59 523.29,106.59 521,107.5C520.364,104.478 521.53,102.978 524.5,103C529.491,108.136 531.824,114.302 531.5,121.5Z" style="fill:rgb(24,15,13);"/>
    </g>
    <g>
        <path d="M468.5,120.5C467.994,134.414 464.66,135.081 458.5,122.5L458.5,117.5C459.458,117.953 460.292,118.619 461,119.5C463.015,116.19 462.181,113.857 458.5,112.5C458.572,108.464 460.239,107.63 463.5,110C466.117,113.066 467.783,116.566 468.5,120.5Z" style="fill:rgb(19,12,12);"/>
    </g>
    <g>
        <path d="M520.5,114.5C521.681,117.838 523.347,121.005 525.5,124C527.134,124.494 528.801,124.66 530.5,124.5C530.263,123.209 530.596,122.209 531.5,121.5C531.993,123.49 533.16,123.49 535,121.5C538.642,123.002 542.142,124.669 545.5,126.5C541.786,127.93 538.286,127.597 535,125.5C533.068,127.178 530.902,127.678 528.5,127C529.696,126.346 529.696,125.846 528.5,125.5C523.008,126.786 517.341,127.453 511.5,127.5C500.797,128.009 490.131,128.176 479.5,128C481.5,128.333 483.5,128.667 485.5,129C459.783,134.43 435.116,142.93 411.5,154.5C411.782,152.165 413.115,149.998 415.5,148C420.826,143.015 426.493,138.349 432.5,134C436.475,132.564 440.142,130.564 443.5,128C445.5,127.667 447.5,127.333 449.5,127C452.33,125.053 455.33,123.553 458.5,122.5C464.66,135.081 467.994,134.414 468.5,120.5C485.774,118.724 503.107,118.057 520.5,118.5L520.5,114.5Z" style="fill:rgb(237,167,161);"/>
    </g>
    <g>
        <path d="M591.5,145.5C593.379,146.341 595.379,146.675 597.5,146.5C595.5,147.167 593.5,147.833 591.5,148.5C590.71,149.401 589.71,150.068 588.5,150.5C587.791,149.596 586.791,149.263 585.5,149.5C585.611,148.883 585.944,148.383 586.5,148C580.319,147.181 574.319,147.347 568.5,148.5C562.981,149.953 558.481,152.953 555,157.5C553.078,161.679 550.912,165.679 548.5,169.5C547.504,169.414 546.671,169.748 546,170.5C541.462,176.895 538.629,183.895 537.5,191.5L533.5,191.5C534.104,187.299 535.27,183.299 537,179.5C540.019,175.461 542.519,171.128 544.5,166.5C548.153,161.35 552.153,156.517 556.5,152C559.763,149.541 563.096,147.374 566.5,145.5C574.805,144.32 583.139,144.32 591.5,145.5Z" style="fill:rgb(224,108,126);"/>
    </g>
    <g>
        <path d="M568.5,148.5C569.873,148.343 571.207,148.51 572.5,149C562.34,156.327 553.673,165.16 546.5,175.5C546.167,175.333 545.833,175.167 545.5,175C546.758,173.259 547.758,171.426 548.5,169.5C550.912,165.679 553.078,161.679 555,157.5C558.481,152.953 562.981,149.953 568.5,148.5Z" style="fill:rgb(253,201,199);"/>
    </g>
    <g>
        <path d="M591.5,148.5L594.5,148.5C598.864,151.111 603.031,154.111 607,157.5C610.297,162.385 612.631,167.718 614,173.5C615.414,187.638 615.914,201.638 615.5,215.5L615.5,218.5C614.883,218.389 614.383,218.056 614,217.5C613.051,219.093 611.885,220.426 610.5,221.5C606.975,224.431 602.975,226.598 598.5,228C589.748,231.117 580.748,232.117 571.5,231C567.725,229.558 564.892,227.058 563,223.5C562.333,216.833 562.333,210.167 563,203.5C564.515,197.925 565.515,192.258 566,186.5C570.775,177.385 575.109,168.052 579,158.5C581.757,157.055 583.924,155.055 585.5,152.5C586.29,151.599 587.29,150.932 588.5,150.5C589.71,150.068 590.71,149.401 591.5,148.5Z" style="fill:rgb(247,150,151);"/>
    </g>
    <g>
        <path d="M597.5,146.5C608.41,150.256 614.91,157.923 617,169.5C617.495,171.473 617.662,173.473 617.5,175.5C617.649,176.552 617.483,177.552 617,178.5C616.013,170.205 613.347,162.538 609,155.5C605.398,150.616 600.565,148.282 594.5,148.5L591.5,148.5C593.5,147.833 595.5,147.167 597.5,146.5Z" style="fill:rgb(212,133,150);"/>
    </g>
    <g>
        <path d="M568.5,148.5C574.319,147.347 580.319,147.181 586.5,148C585.944,148.383 585.611,148.883 585.5,149.5C582.279,150.709 579.279,152.376 576.5,154.5C565.78,164.872 558.446,177.205 554.5,191.5C553.209,193.315 551.376,194.315 549,194.5C545.396,192.802 541.563,191.802 537.5,191.5C538.629,183.895 541.462,176.895 546,170.5C546.671,169.748 547.504,169.414 548.5,169.5C547.758,171.426 546.758,173.259 545.5,175C545.833,175.167 546.167,175.333 546.5,175.5C553.673,165.16 562.34,156.327 572.5,149C571.207,148.51 569.873,148.343 568.5,148.5Z" style="fill:rgb(246,151,153);"/>
    </g>
    <g>
        <path d="M585.5,149.5C586.791,149.263 587.791,149.596 588.5,150.5C587.29,150.932 586.29,151.599 585.5,152.5C574.389,159.12 566.222,168.453 561,180.5C558.281,187.324 555.948,194.324 554,201.5C552.753,208.779 552.253,216.112 552.5,223.5L549.5,223.5C549.169,215.14 549.502,206.807 550.5,198.5C552.947,196.847 554.28,194.513 554.5,191.5C558.446,177.205 565.78,164.872 576.5,154.5C579.279,152.376 582.279,150.709 585.5,149.5Z" style="fill:rgb(224,98,113);"/>
    </g>
    <g>
        <path d="M594.5,148.5C600.565,148.282 605.398,150.616 609,155.5C613.347,162.538 616.013,170.205 617,178.5C617.483,177.552 617.649,176.552 617.5,175.5C618.461,177.265 618.795,179.265 618.5,181.5C617.67,191.325 617.17,201.325 617,211.5C616.209,212.745 615.709,214.078 615.5,215.5C615.914,201.638 615.414,187.638 614,173.5C612.631,167.718 610.297,162.385 607,157.5C603.031,154.111 598.864,151.111 594.5,148.5Z" style="fill:rgb(250,187,196);"/>
    </g>
    <g>
        <path d="M618.5,181.5C618.667,192.172 618.5,202.839 618,213.5C617.76,215.852 616.927,217.852 615.5,219.5L615.5,215.5C615.709,214.078 616.209,212.745 617,211.5C617.17,201.325 617.67,191.325 618.5,181.5Z" style="fill:rgb(195,119,133);"/>
    </g>
    <g>
        <path d="M580.5,185.5C581.465,186.721 581.298,188.054 580,189.5C579.892,196.911 579.225,204.245 578,211.5C574.613,213.318 572.613,212.318 572,208.5C571.455,199.589 574.289,191.922 580.5,185.5Z" style="fill:rgb(207,65,68);"/>
    </g>
    <g>
        <path d="M607.5,185.5C607.334,191.771 607.667,198.271 608.5,205C609.397,211.454 607.23,212.954 602,209.5C600.06,200.709 601.893,192.709 607.5,185.5Z" style="fill:rgb(205,63,64);"/>
    </g>
    <g>
        <path d="M585.5,152.5C583.924,155.055 581.757,157.055 579,158.5C575.109,168.052 570.775,177.385 566,186.5C565.515,192.258 564.515,197.925 563,203.5C562.333,210.167 562.333,216.833 563,223.5C564.892,227.058 567.725,229.558 571.5,231C580.748,232.117 589.748,231.117 598.5,228C602.975,226.598 606.975,224.431 610.5,221.5C609.419,223.764 608.085,225.931 606.5,228C602.888,229.139 599.554,230.806 596.5,233C587.634,233.533 578.801,234.367 570,235.5C567.914,234.582 565.747,233.915 563.5,233.5C561.527,232.513 559.527,231.513 557.5,230.5C556.057,227.923 554.39,225.59 552.5,223.5C552.253,216.112 552.753,208.779 554,201.5C555.948,194.324 558.281,187.324 561,180.5C566.222,168.453 574.389,159.12 585.5,152.5Z" style="fill:rgb(242,125,128);"/>
    </g>
    <g>
        <path d="M42.5,252.5C31.982,233.596 26.982,213.263 27.5,191.5C28.007,174.082 29.507,156.749 32,139.5C33.356,129.741 35.856,120.407 39.5,111.5C41.009,110.141 41.676,110.641 41.5,113C37.501,128.171 35.167,143.671 34.5,159.5L31.5,159.5C30.667,175.494 30.5,191.494 31,207.5C32.39,216.235 34.057,224.901 36,233.5C37.952,238.693 40.285,243.693 43,248.5C43.765,250.066 43.598,251.399 42.5,252.5Z" style="fill:rgb(234,149,136);"/>
    </g>
    <g>
        <path d="M535.5,191.5L537.5,191.5C541.563,191.802 545.396,192.802 549,194.5C551.376,194.315 553.209,193.315 554.5,191.5C554.28,194.513 552.947,196.847 550.5,198.5C549.502,206.807 549.169,215.14 549.5,223.5C543.516,224.297 537.516,224.963 531.5,225.5C530.379,219.582 530.212,213.582 531,207.5C532.69,202.212 534.19,196.879 535.5,191.5Z" style="fill:rgb(243,125,125);"/>
    </g>
    <g>
        <path d="M566.5,145.5C563.096,147.374 559.763,149.541 556.5,152C552.153,156.517 548.153,161.35 544.5,166.5C542.519,171.128 540.019,175.461 537,179.5C535.27,183.299 534.104,187.299 533.5,191.5C531.871,193.858 530.705,196.524 530,199.5C528.434,208.816 528.267,218.149 529.5,227.5C530.706,231.038 532.706,234.038 535.5,236.5C535.586,237.496 535.252,238.329 534.5,239C515.855,242.338 498.521,239.004 482.5,229C480.478,226.978 478.478,224.978 476.5,223C476.57,222.235 476.903,221.735 477.5,221.5C477.47,222.497 477.97,223.164 479,223.5C482.159,223.93 484.992,225.097 487.5,227C493.322,227.767 498.989,229.1 504.5,231C512.716,233.158 518.882,230.658 523,223.5C524.401,201.383 529.901,180.383 539.5,160.5C544.924,157.91 549.257,154.077 552.5,149C556.959,146.933 561.626,145.766 566.5,145.5Z" style="fill:rgb(239,164,160);"/>
    </g>
    <g>
        <path d="M478.5,218.5C477.596,219.209 477.263,220.209 477.5,221.5C476.903,221.735 476.57,222.235 476.5,223C478.478,224.978 480.478,226.978 482.5,229C498.521,239.004 515.855,242.338 534.5,239C535.252,238.329 535.586,237.496 535.5,236.5C544.349,236.174 553.016,236.507 561.5,237.5C550.013,237.703 538.68,239.203 527.5,242C507.959,244.242 490.459,239.408 475,227.5C471.138,232.845 465.972,235.678 459.5,236C469.791,229.268 475.958,219.768 478,207.5C478.499,211.152 478.665,214.818 478.5,218.5Z" style="fill:rgb(191,106,105);"/>
    </g>
    <g>
        <path d="M533.5,191.5L535.5,191.5C534.19,196.879 532.69,202.212 531,207.5C530.212,213.582 530.379,219.582 531.5,225.5C533.449,234.655 539.115,237.988 548.5,235.5C553.947,235.234 558.947,234.567 563.5,233.5C565.747,233.915 567.914,234.582 570,235.5C578.801,234.367 587.634,233.533 596.5,233C599.554,230.806 602.888,229.139 606.5,228C608.085,225.931 609.419,223.764 610.5,221.5C611.885,220.426 613.051,219.093 614,217.5C614.383,218.056 614.883,218.389 615.5,218.5L615.5,219.5C613.842,223.672 611.175,227.172 607.5,230C602.407,233.056 597.073,235.223 591.5,236.5C583.517,237.166 575.517,237.499 567.5,237.5L561.5,237.5C553.016,236.507 544.349,236.174 535.5,236.5C532.706,234.038 530.706,231.038 529.5,227.5C528.267,218.149 528.434,208.816 530,199.5C530.705,196.524 531.871,193.858 533.5,191.5Z" style="fill:rgb(219,92,111);"/>
    </g>
    <g>
        <path d="M549.5,223.5L552.5,223.5C554.39,225.59 556.057,227.923 557.5,230.5C559.527,231.513 561.527,232.513 563.5,233.5C558.947,234.567 553.947,235.234 548.5,235.5C539.115,237.988 533.449,234.655 531.5,225.5C537.516,224.963 543.516,224.297 549.5,223.5Z" style="fill:rgb(239,103,108);"/>
    </g>
    <g>
        <path d="M361.5,223.5C364.456,225.396 366.456,228.062 367.5,231.5C368.552,231.351 369.552,231.517 370.5,232C372.31,234.519 373.977,237.019 375.5,239.5C379.328,240.649 382.328,242.983 384.5,246.5C392.422,253.31 401.422,258.143 411.5,261C417.29,265.456 422.456,270.623 427,276.5C427.483,277.448 427.649,278.448 427.5,279.5C428.822,279.33 429.989,279.663 431,280.5C431.1,283.437 431.933,286.104 433.5,288.5C432.689,289.216 432.022,290.05 431.5,291C432.167,292.333 432.833,293.667 433.5,295C432.767,297.835 432.1,300.668 431.5,303.5C430.07,303.421 428.736,303.754 427.5,304.5C424.791,307.117 421.791,309.283 418.5,311C412.718,312.369 407.385,314.703 402.5,318C402.833,318.333 403.167,318.667 403.5,319C400.065,321.221 396.399,323.221 392.5,325C373.202,332.998 353.369,339.498 333,344.5C332.333,343.167 332.333,341.833 333,340.5C335.934,335.966 338.267,331.3 340,326.5C335.96,331.929 332.46,337.595 329.5,343.5C329.08,341.906 328.414,340.406 327.5,339C328.272,337.779 329.272,336.779 330.5,336C329.24,334.186 329.24,332.353 330.5,330.5C332.134,330.032 333.3,329.032 334,327.5C334.333,327.833 334.667,328.167 335,328.5C334.734,325.099 336.234,323.433 339.5,323.5C339.337,321.143 339.503,318.81 340,316.5C343.472,312.887 345.305,308.553 345.5,303.5C347.314,300.062 349.314,296.729 351.5,293.5C352.325,292.614 353.325,292.281 354.5,292.5C352.436,301.532 350.436,310.532 348.5,319.5L351.5,319.5C350.909,313.338 353.575,310.504 359.5,311C358.742,309.636 359.242,308.469 361,307.5C361.217,304.512 362.217,301.845 364,299.5L367,299.5C368.667,297.833 370.333,296.167 372,294.5C373.256,287.838 375.589,281.505 379,275.5C379.5,268.842 379.666,262.175 379.5,255.5L375.5,255.5C372.827,250.133 370.661,244.466 369,238.5C366.572,235.763 364.572,232.763 363,229.5C362.495,227.482 361.995,225.482 361.5,223.5Z" style="fill:rgb(239,166,160);"/>
    </g>
    <g>
        <path d="M591.5,236.5C583.903,238.467 575.903,239.134 567.5,238.5L567.5,237.5C575.517,237.499 583.517,237.166 591.5,236.5Z" style="fill:rgb(253,215,224);"/>
    </g>
    <g>
        <path d="M424.5,28.5C426.698,29.165 429.031,29.832 431.5,30.5C430.311,31.429 428.978,31.762 427.5,31.5C427.343,32.873 427.51,34.207 428,35.5C430.172,39.371 432.339,43.204 434.5,47C439.126,59.066 440.626,71.566 439,84.5C437.941,87.618 436.608,90.618 435,93.5C432.502,94.598 430.002,94.432 427.5,93C419.799,88.611 412.132,84.277 404.5,80C402.866,79.507 401.199,79.34 399.5,79.5L399.5,76.5C396.336,74.591 393.003,72.757 389.5,71C387.442,67.603 384.442,65.937 380.5,66C378.044,64.383 375.544,62.883 373,61.5C372.617,62.056 372.117,62.389 371.5,62.5C371.423,61.25 370.756,60.417 369.5,60C367.833,59.833 366.167,59.667 364.5,59.5C361.989,59.288 359.822,59.955 358,61.5C355.234,70.054 353.067,78.72 351.5,87.5C350.359,92.42 348.526,97.086 346,101.5C338.588,137.771 345.254,171.105 366,201.5C367.128,203.345 367.628,205.345 367.5,207.5C368.675,207.281 369.675,207.614 370.5,208.5C391.151,237.988 418.817,257.488 453.5,267C472.858,268.99 492.191,268.656 511.5,266C524.359,263.55 536.359,259.05 547.5,252.5C548.386,253.325 548.719,254.325 548.5,255.5C521.957,268.93 493.624,274.43 463.5,272C455.916,282.587 447.25,292.253 437.5,301C435.783,302.559 433.783,303.392 431.5,303.5C432.1,300.668 432.767,297.835 433.5,295C432.833,293.667 432.167,292.333 431.5,291C432.022,290.05 432.689,289.216 433.5,288.5C431.933,286.104 431.1,283.437 431,280.5C429.989,279.663 428.822,279.33 427.5,279.5C427.649,278.448 427.483,277.448 427,276.5C422.456,270.623 417.29,265.456 411.5,261C401.422,258.143 392.422,253.31 384.5,246.5C382.328,242.983 379.328,240.649 375.5,239.5C373.977,237.019 372.31,234.519 370.5,232C369.552,231.517 368.552,231.351 367.5,231.5C366.456,228.062 364.456,225.396 361.5,223.5C359.911,221.085 357.744,219.085 355,217.5C352.569,214.583 351.402,211.25 351.5,207.5L348.5,207.5C348.908,204.401 347.741,202.067 345,200.5C342.589,196.275 340.756,191.775 339.5,187C338.991,185.831 338.158,184.998 337,184.5C334.71,175.966 332.043,167.633 329,159.5C328.333,143.833 328.333,128.167 329,112.5C332.004,98.067 334.837,84.9 337.5,73C336.532,68.884 335.699,64.717 335,60.5C334.333,59.833 333.667,59.167 333,58.5C332.333,52.833 332.333,47.167 333,41.5C334.812,38.72 336.979,36.22 339.5,34C337.616,33.784 335.949,33.117 334.5,32C326.833,31.667 319.167,31.333 311.5,31C317.491,30.501 323.491,30.334 329.5,30.5C334.813,31.098 340.146,31.431 345.5,31.5C347.199,31.34 348.866,31.507 350.5,32C344.484,32.872 339.65,35.705 336,40.5C334.581,56.743 338.747,71.41 348.5,84.5C350.27,78.287 351.437,71.954 352,65.5C352.333,65.833 352.667,66.167 353,66.5C356.989,58.403 355.489,57.403 348.5,63.5C348.167,63.167 347.833,62.833 347.5,62.5C350.935,57.798 355.602,55.798 361.5,56.5C367.959,57.392 374.292,58.892 380.5,61C396.114,71.481 412.114,81.481 428.5,91C430.259,91.798 431.926,91.631 433.5,90.5C439.272,75.852 438.605,61.519 431.5,47.5C428.957,40.747 425.623,34.413 421.5,28.5C420.675,27.614 419.675,27.281 418.5,27.5C418.649,26.448 418.483,25.448 418,24.5C414.812,20.315 411.312,16.482 407.5,13C404.904,11.864 402.237,11.031 399.5,10.5C393.077,9.214 386.911,10.214 381,13.5C380.51,14.793 380.343,16.127 380.5,17.5C379.127,17.343 377.793,17.51 376.5,18C375.183,19.659 373.517,20.826 371.5,21.5C370.702,21.043 370.369,20.376 370.5,19.5C375.237,14.953 380.57,11.12 386.5,8C390.741,6.543 395.074,6.209 399.5,7C404.662,8.834 409.328,11.501 413.5,15C417.409,19.399 421.076,23.899 424.5,28.5Z" style="fill:rgb(234,148,137);"/>
    </g>
    <g>
        <path d="M371.5,62.5C370.432,63.435 369.099,63.768 367.5,63.5C367.649,64.552 367.483,65.552 367,66.5C361.198,73.12 356.032,80.12 351.5,87.5C353.067,78.72 355.234,70.054 358,61.5C359.822,59.955 361.989,59.288 364.5,59.5C366.167,59.667 367.833,59.833 369.5,60C370.756,60.417 371.423,61.25 371.5,62.5Z" style="fill:rgb(231,122,138);"/>
    </g>
    <g>
        <path d="M295.5,27.5C307.076,27.369 318.41,28.369 329.5,30.5C323.491,30.334 317.491,30.501 311.5,31C319.167,31.333 326.833,31.667 334.5,32C335.949,33.117 337.616,33.784 339.5,34C336.979,36.22 334.812,38.72 333,41.5C332.333,47.167 332.333,52.833 333,58.5C333.667,59.167 334.333,59.833 335,60.5C335.699,64.717 336.532,68.884 337.5,73C334.837,84.9 332.004,98.067 329,112.5C328.333,128.167 328.333,143.833 329,159.5C332.043,167.633 334.71,175.966 337,184.5C338.158,184.998 338.991,185.831 339.5,187C340.756,191.775 342.589,196.275 345,200.5C347.741,202.067 348.908,204.401 348.5,207.5C345.898,206.068 343.731,204.068 342,201.5C338.915,196.328 335.581,191.328 332,186.5C321.378,167.368 318.378,147.035 323,125.5C326.204,109.381 328.37,93.048 329.5,76.5C329.387,71.933 328.387,67.6 326.5,63.5C324.259,61.761 322.592,59.594 321.5,57C317.941,55.772 314.608,54.106 311.5,52C274.944,41.144 237.61,37.144 199.5,40C170.266,42.135 142.933,50.135 117.5,64C114.847,65.655 112.514,67.655 110.5,70C108.608,70.973 106.608,71.64 104.5,72C102.022,76.48 98.355,79.48 93.5,81C89.542,85.304 85.209,89.137 80.5,92.5C77.91,97.259 74.41,101.259 70,104.5C68.702,107.854 66.536,110.188 63.5,111.5C63.66,113.199 63.493,114.866 63,116.5C57.15,124.862 52.317,133.862 48.5,143.5C43.242,165.663 42.409,187.997 46,210.5C51,223.833 56,237.167 61,250.5C70.63,265.232 79.797,280.232 88.5,295.5C93.498,299.664 95.998,304.997 96,311.5C101.335,316.91 102.002,322.91 98,329.5C92.975,333.862 87.975,338.196 83,342.5C81.109,349.817 81.109,357.151 83,364.5C85.829,376.161 88.662,387.827 91.5,399.5C93.909,404.569 96.409,409.569 99,414.5C102.275,418.71 106.608,421.043 112,421.5C112.283,418.258 113.117,417.924 114.5,420.5C116.607,417.945 117.94,414.945 118.5,411.5C115.014,397.051 113.681,382.384 114.5,367.5C116.102,360.712 117.269,353.712 118,346.5C119.333,345.833 120.333,344.833 121,343.5C121.333,340.833 121.667,338.167 122,335.5C126.788,324.591 132.622,314.258 139.5,304.5C140.689,303.571 142.022,303.238 143.5,303.5C143.201,301.396 143.534,299.396 144.5,297.5C150.009,289.805 155.509,282.139 161,274.5C164.934,264.363 168.268,254.03 171,243.5C171.718,259.989 169.552,276.322 164.5,292.5C164.709,293.086 165.043,293.586 165.5,294C176.687,299.216 188.521,301.382 201,300.5C215.096,302.671 226.429,298.337 235,287.5C237.954,275.731 241.288,264.065 245,252.5C247.998,248.841 249.332,244.841 249,240.5C256.559,230.404 263.892,220.071 271,209.5C269.644,216.918 267.644,224.251 265,231.5C259.384,259.274 258.217,287.274 261.5,315.5C264.916,332.915 268.583,350.248 272.5,367.5C274.942,367.119 275.609,367.786 274.5,369.5C279.064,380.088 282.231,391.088 284,402.5C285.189,404.233 286.356,405.9 287.5,407.5C287.447,411.333 286.947,414.999 286,418.5C291.643,420.609 296.143,424.609 299.5,430.5C298.624,431.251 297.624,431.751 296.5,432C299.008,433.819 301.841,434.653 305,434.5C309.811,433.802 314.644,433.469 319.5,433.5L319.5,421.5C320.328,427.319 320.828,433.319 321,439.5C321.671,440.252 322.504,440.586 323.5,440.5C322.432,441.434 321.099,441.768 319.5,441.5C319.53,440.503 319.03,439.836 318,439.5C309.202,440.625 300.369,440.792 291.5,440C290.062,439.781 288.729,439.281 287.5,438.5C282.301,430.33 278.301,421.663 275.5,412.5C274.548,414.045 274.215,415.712 274.5,417.5C272.415,415.316 271.415,412.649 271.5,409.5C272.665,408.504 273.332,407.171 273.5,405.5C270.031,393.22 265.864,381.22 261,369.5C260.531,363.322 259.364,357.322 257.5,351.5L254.5,351.5C252.354,343.894 249.687,336.56 246.5,329.5C241.845,313.11 240.345,296.444 242,279.5C240.692,282.73 239.692,286.064 239,289.5C238.333,296.833 238.333,304.167 239,311.5C241.074,317.888 243.24,324.221 245.5,330.5C246.508,333.844 247.508,337.177 248.5,340.5C225.821,338.999 203.155,337.166 180.5,335C169.589,332.966 158.922,330.299 148.5,327C145.884,326.104 143.55,324.77 141.5,323C143.589,317.322 146.089,311.822 149,306.5C149.667,305.5 149.667,304.5 149,303.5C142.991,314.862 136.491,325.862 129.5,336.5C121.02,356.67 118.186,377.67 121,399.5C121.84,405.859 122.84,412.192 124,418.5C124.234,412.167 124.068,405.834 123.5,399.5C124.824,407.383 126.157,415.383 127.5,423.5C126.839,422.282 126.172,420.949 125.5,419.5C125.167,420.667 124.833,421.833 124.5,423C125.031,425.817 125.364,428.65 125.5,431.5C115.459,432.831 105.459,432.497 95.5,430.5C93.851,429.352 92.351,428.019 91,426.5C87.104,419.263 84.27,411.597 82.5,403.5C81.675,402.614 80.675,402.281 79.5,402.5C78.148,396.754 75.814,391.421 72.5,386.5C71.703,386.957 71.369,387.624 71.5,388.5C70.596,387.791 70.263,386.791 70.5,385.5C71.147,384.726 71.481,383.726 71.5,382.5C70.404,379.044 69.404,375.544 68.5,372C68.645,370.774 68.978,369.607 69.5,368.5C68.726,367.289 67.893,367.289 67,368.5C64.143,360.518 65.143,353.185 70,346.5C77.018,342.005 80.851,335.672 81.5,327.5C81.478,324.41 80.812,321.743 79.5,319.5C79.699,316.059 79.199,312.726 78,309.5C65.65,292.45 55.15,274.45 46.5,255.5C45.808,254.975 45.308,254.308 45,253.5C44.51,254.793 44.343,256.127 44.5,257.5C43.691,255.972 43.024,254.306 42.5,252.5C43.598,251.399 43.765,250.066 43,248.5C40.285,243.693 37.952,238.693 36,233.5C34.057,224.901 32.39,216.235 31,207.5C30.5,191.494 30.667,175.494 31.5,159.5L34.5,159.5C35.167,143.671 37.501,128.171 41.5,113C41.676,110.641 41.009,110.141 39.5,111.5C39.402,109.447 40.069,107.78 41.5,106.5C41.281,107.675 41.614,108.675 42.5,109.5C48.312,97.166 55.978,85.999 65.5,76C65.164,74.97 64.497,74.47 63.5,74.5C64.29,73.599 65.29,72.932 66.5,72.5C66.369,73.376 66.703,74.043 67.5,74.5C70.833,71.5 74.167,68.5 77.5,65.5C79.214,66.609 79.881,65.942 79.5,63.5C80.873,63.657 82.207,63.49 83.5,63C82.304,62.346 82.304,61.846 83.5,61.5C87.005,62.686 89.005,61.353 89.5,57.5L92.5,57.5L92.5,54.5C94.604,54.799 96.604,54.466 98.5,53.5C99.375,51.228 101.042,50.228 103.5,50.5L103.5,47.5C107.184,48.029 110.35,47.029 113,44.5C123.76,40.404 134.927,38.238 146.5,38C146.957,37.586 147.291,37.086 147.5,36.5C159.401,34.115 171.401,32.448 183.5,31.5C220.82,29.5 258.153,29.167 295.5,30.5C298.167,30.167 300.833,29.833 303.5,29.5C300.694,28.832 298.028,28.166 295.5,27.5Z" style="fill:rgb(239,167,159);"/>
    </g>
    <g>
        <path d="M147.5,60.5C149.199,60.34 150.866,60.507 152.5,61C142.131,67.851 131.464,74.184 120.5,80C116.956,83.375 113.623,86.875 110.5,90.5C105.48,93.681 100.814,97.348 96.5,101.5C90.149,108.904 83.816,116.237 77.5,123.5C70.816,133.512 64.149,143.512 57.5,153.5C58.308,147.455 60.142,141.455 63,135.5C63.497,132.854 63.664,130.187 63.5,127.5C64.978,127.762 66.311,127.429 67.5,126.5C69.495,121.84 71.995,117.506 75,113.5C76.11,111.963 77.61,111.297 79.5,111.5C79.238,110.022 79.571,108.689 80.5,107.5C84.372,104.129 87.705,100.296 90.5,96C92.134,95.507 93.801,95.34 95.5,95.5C95.343,94.127 95.51,92.793 96,91.5C100.616,88.201 105.45,85.201 110.5,82.5C111.386,81.675 111.719,80.675 111.5,79.5C123.06,72.418 135.06,66.084 147.5,60.5Z" style="fill:rgb(247,204,197);"/>
    </g>
    <g>
        <path d="M246.5,329.5C246.5,330.167 246.167,330.5 245.5,330.5C243.24,324.221 241.074,317.888 239,311.5C238.333,304.167 238.333,296.833 239,289.5C239.692,286.064 240.692,282.73 242,279.5C240.345,296.444 241.845,313.11 246.5,329.5Z" style="fill:rgb(188,104,102);"/>
    </g>
    <g>
        <path d="M79.5,319.5C74.207,308.976 68.04,298.976 61,289.5C55.235,278.921 49.735,268.254 44.5,257.5C44.343,256.127 44.51,254.793 45,253.5C45.308,254.308 45.808,254.975 46.5,255.5C55.15,274.45 65.65,292.45 78,309.5C79.199,312.726 79.699,316.059 79.5,319.5Z" style="fill:rgb(235,144,133);"/>
    </g>
    <g>
        <path d="M375.5,255.5L379.5,255.5C379.666,262.175 379.5,268.842 379,275.5C375.589,281.505 373.256,287.838 372,294.5C370.333,296.167 368.667,297.833 367,299.5L364,299.5C362.217,301.845 361.217,304.512 361,307.5C359.242,308.469 358.742,309.636 359.5,311C353.575,310.504 350.909,313.338 351.5,319.5L348.5,319.5C350.436,310.532 352.436,301.532 354.5,292.5C353.325,292.281 352.325,292.614 351.5,293.5C349.314,296.729 347.314,300.062 345.5,303.5C345.305,308.553 343.472,312.887 340,316.5C339.503,318.81 339.337,321.143 339.5,323.5C336.234,323.433 334.734,325.099 335,328.5C334.667,328.167 334.333,327.833 334,327.5C333.3,329.032 332.134,330.032 330.5,330.5C329.24,332.353 329.24,334.186 330.5,336C329.272,336.779 328.272,337.779 327.5,339C328.414,340.406 329.08,341.906 329.5,343.5C328.19,345.148 326.857,346.814 325.5,348.5C324.828,352.839 323.328,356.839 321,360.5C320.173,364.541 320.34,368.541 321.5,372.5C322.615,368.737 323.615,365.07 324.5,361.5C322.735,379.441 322.068,397.441 322.5,415.5C321.833,402.309 321,388.976 320,375.5C319.5,390.83 319.333,406.163 319.5,421.5L319.5,433.5C314.644,433.469 309.811,433.802 305,434.5C301.841,434.653 299.008,433.819 296.5,432C297.624,431.751 298.624,431.251 299.5,430.5C296.143,424.609 291.643,420.609 286,418.5C286.947,414.999 287.447,411.333 287.5,407.5C289.369,411.566 291.536,415.566 294,419.5C298.178,424.852 303.344,428.852 309.5,431.5C314.797,428.937 317.63,424.603 318,418.5C318.333,401.5 318.667,384.5 319,367.5C319.417,359.597 321.25,352.097 324.5,345C323.704,343.908 323.037,342.741 322.5,341.5C324.115,339.078 325.781,336.578 327.5,334C335.578,315.674 345.078,298.174 356,281.5C356.667,280.833 357.333,280.167 358,279.5C357.865,288.214 356.365,296.714 353.5,305C353.833,305.5 354.167,306 354.5,306.5C359.13,302.702 363.297,298.368 367,293.5C368.207,291.56 368.374,289.727 367.5,288C368.793,287.51 370.127,287.343 371.5,287.5C374.787,277.105 376.12,266.438 375.5,255.5Z" style="fill:rgb(237,170,163);"/>
    </g>
    <g>
        <path d="M431.5,303.5C427.427,307.818 422.927,311.818 418,315.5C414.669,322.006 411.835,328.673 409.5,335.5C408.624,335.631 407.957,335.298 407.5,334.5C408.191,331.185 409.191,328.019 410.5,325C410.167,324.167 409.833,323.333 409.5,322.5C400.887,326.145 392.22,329.479 383.5,332.5L383.5,335.5C381.143,335.337 378.81,335.503 376.5,336C374.299,338.463 371.633,340.297 368.5,341.5C367.749,342.376 367.249,343.376 367,344.5C361.412,344.762 356.245,346.762 351.5,350.5C349.955,351.452 348.288,351.785 346.5,351.5C346.649,352.552 346.483,353.552 346,354.5C345,354.833 344,355.167 343,355.5C342.51,356.793 342.343,358.127 342.5,359.5L339.5,359.5C338.833,355.167 338.167,350.833 337.5,346.5C334.881,346.232 332.381,346.565 330,347.5C327.474,351.914 325.641,356.58 324.5,361.5C323.615,365.07 322.615,368.737 321.5,372.5C320.34,368.541 320.173,364.541 321,360.5C323.328,356.839 324.828,352.839 325.5,348.5C326.857,346.814 328.19,345.148 329.5,343.5C332.46,337.595 335.96,331.929 340,326.5C338.267,331.3 335.934,335.966 333,340.5C332.333,341.833 332.333,343.167 333,344.5C353.369,339.498 373.202,332.998 392.5,325C396.399,323.221 400.065,321.221 403.5,319C403.167,318.667 402.833,318.333 402.5,318C407.385,314.703 412.718,312.369 418.5,311C421.791,309.283 424.791,307.117 427.5,304.5C428.736,303.754 430.07,303.421 431.5,303.5Z" style="fill:rgb(234,146,135);"/>
    </g>
    <g>
        <path d="M245.5,330.5C246.167,330.5 246.5,330.167 246.5,329.5C249.687,336.56 252.354,343.894 254.5,351.5L257.5,351.5C259.364,357.322 260.531,363.322 261,369.5C265.864,381.22 270.031,393.22 273.5,405.5C273.332,407.171 272.665,408.504 271.5,409.5C264.186,387.176 256.853,364.843 249.5,342.5C237.127,342.449 224.794,341.783 212.5,340.5C206.419,338.588 200.086,338.088 193.5,339C192.282,340.416 190.949,340.249 189.5,338.5C175.539,336.886 161.873,333.886 148.5,329.5C145.523,330.477 143.523,332.477 142.5,335.5C141.702,335.043 141.369,334.376 141.5,333.5C141.92,331.906 142.586,330.406 143.5,329C141.522,326.003 139.355,325.836 137,328.5C132.708,335.745 129.541,343.412 127.5,351.5C125.697,356.642 124.197,361.975 123,367.5C122.177,376.01 122.343,384.344 123.5,392.5L123.5,399.5C124.068,405.834 124.234,412.167 124,418.5C122.84,412.192 121.84,405.859 121,399.5C118.186,377.67 121.02,356.67 129.5,336.5C136.491,325.862 142.991,314.862 149,303.5C149.667,304.5 149.667,305.5 149,306.5C146.089,311.822 143.589,317.322 141.5,323C143.55,324.77 145.884,326.104 148.5,327C158.922,330.299 169.589,332.966 180.5,335C203.155,337.166 225.821,338.999 248.5,340.5C247.508,337.177 246.508,333.844 245.5,330.5Z" style="fill:rgb(231,142,132);"/>
    </g>
    <g>
        <path d="M212.5,340.5C206.491,340.299 200.491,339.966 194.5,339.5C186.439,358.727 184.273,378.727 188,399.5C190.361,406.763 193.194,413.763 196.5,420.5C188.816,423.417 180.816,424.75 172.5,424.5C167.898,423.911 163.731,422.244 160,419.5C159.601,419.728 159.435,420.062 159.5,420.5C158.549,419.081 158.216,417.415 158.5,415.5C159.629,413.372 159.796,411.039 159,408.5C157.667,406.5 156.333,404.5 155,402.5C153.315,396.088 151.482,389.755 149.5,383.5L146.5,383.5C144.239,376.305 141.406,369.305 138,362.5C136.241,357.283 135.574,351.949 136,346.5C138.393,344.318 139.393,341.651 139,338.5C138.26,340.319 137.093,341.652 135.5,342.5C136.723,338.951 138.723,335.951 141.5,333.5C141.369,334.376 141.702,335.043 142.5,335.5C143.523,332.477 145.523,330.477 148.5,329.5C161.873,333.886 175.539,336.886 189.5,338.5C190.949,340.249 192.282,340.416 193.5,339C200.086,338.088 206.419,338.588 212.5,340.5Z" style="fill:rgb(239,165,157);"/>
    </g>
    <g>
        <path d="M409.5,335.5C400.409,363.678 398.409,392.344 403.5,421.5C402.778,421.082 402.278,420.416 402,419.5C401.51,420.793 401.343,422.127 401.5,423.5C400.732,422.737 400.232,421.737 400,420.5C398.839,411.86 398.006,403.193 397.5,394.5C398.722,382.505 399.722,370.505 400.5,358.5C400.198,355.941 400.532,353.607 401.5,351.5C404.162,345.225 405.828,338.558 406.5,331.5C404.409,331.682 402.409,331.348 400.5,330.5C399.548,332.045 399.215,333.712 399.5,335.5C381.559,343.636 371.059,357.636 368,377.5C367.169,384.856 367.335,392.189 368.5,399.5C371.398,410.361 374.731,421.028 378.5,431.5C375.63,431.752 373.297,430.752 371.5,428.5C370.114,425.225 368.28,422.225 366,419.5C365.503,417.19 365.337,414.857 365.5,412.5C362.234,412.567 360.734,410.901 361,407.5C360,406.833 359,406.167 358,405.5C357.226,401.853 356.559,398.186 356,394.5C348.744,385.075 344.411,374.409 343,362.5C342.667,362.167 342.333,361.833 342,361.5C341.505,363.473 341.338,365.473 341.5,367.5C340.232,365.095 339.565,362.428 339.5,359.5L342.5,359.5C342.343,358.127 342.51,356.793 343,355.5C344,355.167 345,354.833 346,354.5C346.483,353.552 346.649,352.552 346.5,351.5C348.288,351.785 349.955,351.452 351.5,350.5C356.245,346.762 361.412,344.762 367,344.5C367.249,343.376 367.749,342.376 368.5,341.5C371.633,340.297 374.299,338.463 376.5,336C378.81,335.503 381.143,335.337 383.5,335.5L383.5,332.5C392.22,329.479 400.887,326.145 409.5,322.5C409.833,323.333 410.167,324.167 410.5,325C409.191,328.019 408.191,331.185 407.5,334.5C407.957,335.298 408.624,335.631 409.5,335.5Z" style="fill:rgb(239,167,158);"/>
    </g>
    <g>
        <path d="M401.5,351.5C401.813,348.753 401.48,346.086 400.5,343.5C391.782,357.566 388.615,372.9 391,389.5C391.389,395.721 392.722,401.721 395,407.5C395.333,394.167 395.667,380.833 396,367.5C396.511,365.122 397.178,362.788 398,360.5C398.417,359.244 399.25,358.577 400.5,358.5C399.722,370.505 398.722,382.505 397.5,394.5C398.006,403.193 398.839,411.86 400,420.5C400.232,421.737 400.732,422.737 401.5,423.5C401.38,425.734 401.713,427.901 402.5,430C402.18,431.653 401.18,432.653 399.5,433C392.847,434.474 386.181,434.641 379.5,433.5C379.137,432.817 378.804,432.15 378.5,431.5C374.731,421.028 371.398,410.361 368.5,399.5C367.335,392.189 367.169,384.856 368,377.5C371.059,357.636 381.559,343.636 399.5,335.5C399.215,333.712 399.548,332.045 400.5,330.5C402.409,331.348 404.409,331.682 406.5,331.5C405.828,338.558 404.162,345.225 401.5,351.5Z" style="fill:rgb(244,186,179);"/>
    </g>
    <g>
        <path d="M170.5,343.5C176.857,343.476 183.19,343.81 189.5,344.5C188.103,349.433 186.603,354.433 185,359.5C183,372.833 183,386.167 185,399.5C188.682,406.044 190.848,413.044 191.5,420.5C184.857,421.212 178.191,421.546 171.5,421.5C171.543,418.09 171.043,414.757 170,411.5C159.094,395.455 154.094,377.789 155,358.5C158.139,351.19 163.306,346.19 170.5,343.5Z" style="fill:rgb(244,186,179);"/>
    </g>
    <g>
        <path d="M328.5,306.5C329.675,306.281 330.675,306.614 331.5,307.5C323.278,329.929 317.444,352.929 314,376.5C312.371,369 312.038,361.333 313,353.5C314.95,342.017 317.45,330.683 320.5,319.5C323.943,315.608 326.61,311.274 328.5,306.5Z" style="fill:rgb(248,203,197);"/>
    </g>
    <g>
        <path d="M401.5,351.5C400.532,353.607 400.198,355.941 400.5,358.5C399.25,358.577 398.417,359.244 398,360.5C397.178,362.788 396.511,365.122 396,367.5C395.667,380.833 395.333,394.167 395,407.5C392.722,401.721 391.389,395.721 391,389.5C388.615,372.9 391.782,357.566 400.5,343.5C401.48,346.086 401.813,348.753 401.5,351.5Z" style="fill:rgb(247,203,196);"/>
    </g>
    <g>
        <path d="M114.5,367.5C113.67,375.349 112.837,383.349 112,391.5C105.81,363.076 110.81,337.076 127,313.5C127.667,314.833 127.667,316.167 127,317.5C118.465,332.974 114.298,349.64 114.5,367.5Z" style="fill:rgb(247,200,193);"/>
    </g>
    <g>
        <path d="M79.5,319.5C80.812,321.743 81.478,324.41 81.5,327.5C80.851,335.672 77.018,342.005 70,346.5C65.143,353.185 64.143,360.518 67,368.5C67.893,367.289 68.726,367.289 69.5,368.5C68.978,369.607 68.645,370.774 68.5,372C69.404,375.544 70.404,379.044 71.5,382.5C71.481,383.726 71.147,384.726 70.5,385.5C68.847,380.06 66.68,374.726 64,369.5C60.843,362.135 60.843,354.801 64,347.5C70.747,343.755 75.747,338.422 79,331.5C79.499,327.514 79.666,323.514 79.5,319.5Z" style="fill:rgb(235,151,138);"/>
    </g>
    <g>
        <path d="M127.5,351.5C126.26,356.841 126.26,362.174 127.5,367.5L124.5,367.5C123.593,375.792 123.26,384.125 123.5,392.5C122.343,384.344 122.177,376.01 123,367.5C124.197,361.975 125.697,356.642 127.5,351.5Z" style="fill:rgb(253,228,223);"/>
    </g>
    <g>
        <path d="M182.5,353.5C183.161,355.134 183.494,356.967 183.5,359C183.118,369.65 182.285,380.15 181,390.5C175.991,377.855 176.491,365.522 182.5,353.5Z" style="fill:rgb(245,204,196);"/>
    </g>
    <g>
        <path d="M158.5,415.5C157.503,415.53 156.836,415.03 156.5,414C148.793,394.756 140.96,375.59 133,356.5C131.911,351.444 132.744,346.778 135.5,342.5C137.093,341.652 138.26,340.319 139,338.5C139.393,341.651 138.393,344.318 136,346.5C135.574,351.949 136.241,357.283 138,362.5C141.406,369.305 144.239,376.305 146.5,383.5L149.5,383.5C151.482,389.755 153.315,396.088 155,402.5C156.333,404.5 157.667,406.5 159,408.5C159.796,411.039 159.629,413.372 158.5,415.5Z" style="fill:rgb(235,149,137);"/>
    </g>
    <g>
        <path d="M127.5,423.5L127.5,431.5C120.828,435.603 113.495,437.269 105.5,436.5C100.04,436.02 95.207,434.02 91,430.5C90.601,430.728 90.435,431.062 90.5,431.5C83.763,417.403 77.43,403.069 71.5,388.5C71.369,387.624 71.703,386.957 72.5,386.5C75.814,391.421 78.148,396.754 79.5,402.5C80.675,402.281 81.675,402.614 82.5,403.5C84.27,411.597 87.104,419.263 91,426.5C92.351,428.019 93.851,429.352 95.5,430.5C105.459,432.497 115.459,432.831 125.5,431.5C125.364,428.65 125.031,425.817 124.5,423C124.833,421.833 125.167,420.667 125.5,419.5C126.172,420.949 126.839,422.282 127.5,423.5Z" style="fill:rgb(230,146,138);"/>
    </g>
    <g>
        <path d="M378.5,431.5C378.804,432.15 379.137,432.817 379.5,433.5C386.181,434.641 392.847,434.474 399.5,433C401.18,432.653 402.18,431.653 402.5,430C401.713,427.901 401.38,425.734 401.5,423.5C401.343,422.127 401.51,420.793 402,419.5C402.278,420.416 402.778,421.082 403.5,421.5C403.868,425.097 404.868,428.431 406.5,431.5C405.662,431.842 405.328,432.508 405.5,433.5C397.419,436.268 389.086,437.602 380.5,437.5C377.119,437.54 373.786,437.207 370.5,436.5C357.528,414.926 347.861,391.926 341.5,367.5C341.338,365.473 341.505,363.473 342,361.5C342.333,361.833 342.667,362.167 343,362.5C344.411,374.409 348.744,385.075 356,394.5C356.559,398.186 357.226,401.853 358,405.5C359,406.167 360,406.833 361,407.5C360.734,410.901 362.234,412.567 365.5,412.5C365.337,414.857 365.503,417.19 366,419.5C368.28,422.225 370.114,425.225 371.5,428.5C373.297,430.752 375.63,431.752 378.5,431.5Z" style="fill:rgb(235,155,142);"/>
    </g>
    <g>
        <path d="M322.5,415.5C323.185,423.816 323.518,432.149 323.5,440.5C322.504,440.586 321.671,440.252 321,439.5C320.828,433.319 320.328,427.319 319.5,421.5C319.333,406.163 319.5,390.83 320,375.5C321,388.976 321.833,402.309 322.5,415.5Z" style="fill:rgb(233,144,131);"/>
    </g>
    <g>
        <path d="M319.5,441.5C312.531,444.102 305.198,445.102 297.5,444.5C294.687,444.452 292.021,443.785 289.5,442.5C288.893,442.624 288.56,442.957 288.5,443.5C281.768,436.042 277.102,427.375 274.5,417.5C274.215,415.712 274.548,414.045 275.5,412.5C278.301,421.663 282.301,430.33 287.5,438.5C288.729,439.281 290.062,439.781 291.5,440C300.369,440.792 309.202,440.625 318,439.5C319.03,439.836 319.53,440.503 319.5,441.5Z" style="fill:rgb(229,145,133);"/>
    </g>
    <g>
        <path d="M196.5,420.5C197.167,420.5 197.5,420.833 197.5,421.5C196.957,421.56 196.624,421.893 196.5,422.5C198.87,425.052 200.203,428.052 200.5,431.5C204.252,432.306 205.252,434.472 203.5,438C201.741,438.798 200.074,438.631 198.5,437.5C196.144,434.978 193.977,432.312 192,429.5C191.571,431.669 192.071,433.669 193.5,435.5C193.023,436.478 192.357,437.311 191.5,438C188.5,438.667 185.5,438.667 182.5,438C178.927,434.752 175.093,431.919 171,429.5C170.387,427.505 170.887,425.838 172.5,424.5C180.816,424.75 188.816,423.417 196.5,420.5Z" style="fill:rgb(109,82,79);"/>
    </g>
    <g>
        <path d="M172.5,424.5C170.887,425.838 170.387,427.505 171,429.5C175.093,431.919 178.927,434.752 182.5,438C185.5,438.667 188.5,438.667 191.5,438C192.357,437.311 193.023,436.478 193.5,435.5C192.071,433.669 191.571,431.669 192,429.5C193.977,432.312 196.144,434.978 198.5,437.5C200.074,438.631 201.741,438.798 203.5,438C205.252,434.472 204.252,432.306 200.5,431.5C200.203,428.052 198.87,425.052 196.5,422.5C196.624,421.893 196.957,421.56 197.5,421.5C200.82,425.463 203.654,429.796 206,434.5C206.667,436.167 206.667,437.833 206,439.5C203.595,440.274 201.095,440.774 198.5,441C197.833,441.667 197.167,442.333 196.5,443C176.737,447.138 164.404,439.638 159.5,420.5C159.435,420.062 159.601,419.728 160,419.5C163.731,422.244 167.898,423.911 172.5,424.5Z" style="fill:rgb(79,53,52);"/>
    </g>
    <g>
        <path d="M405.5,433.5C408.095,438.511 411.095,443.345 414.5,448C412.5,448.667 410.5,448.667 408.5,448C406.224,444.219 403.224,441.385 399.5,439.5C400.759,442.46 402.092,445.46 403.5,448.5C400.556,451.576 397.056,452.243 393,450.5C387.675,446.767 382.509,442.934 377.5,439C378.737,438.768 379.737,438.268 380.5,437.5C389.086,437.602 397.419,436.268 405.5,433.5Z" style="fill:rgb(109,83,76);"/>
    </g>
    <g>
        <path d="M127.5,431.5C128.492,431.328 129.158,431.662 129.5,432.5C128.903,432.735 128.57,433.235 128.5,434C129.563,436.898 131.23,439.398 133.5,441.5C134.466,443.396 134.799,445.396 134.5,447.5C132.473,447.662 130.473,447.495 128.5,447C126.709,444.586 125.043,442.086 123.5,439.5C123.167,439.833 122.833,440.167 122.5,440.5C126.946,448.891 124.613,452.057 115.5,450C111.309,448.916 107.809,446.749 105,443.5C103.967,440.783 104.8,438.949 107.5,438C106.584,437.722 105.918,437.222 105.5,436.5C113.495,437.269 120.828,435.603 127.5,431.5Z" style="fill:rgb(108,82,80);"/>
    </g>
    <g>
        <path d="M323.5,440.5C326.908,441.578 328.908,443.911 329.5,447.5C329.389,448.117 329.056,448.617 328.5,449C330.341,451.257 331.674,453.757 332.5,456.5C329.68,456.752 327.014,456.252 324.5,455C322.667,452.5 320.833,450 319,447.5C320.629,451.177 321.463,455.177 321.5,459.5C310.287,459.564 302.287,454.564 297.5,444.5C305.198,445.102 312.531,444.102 319.5,441.5C321.099,441.768 322.432,441.434 323.5,440.5Z" style="fill:rgb(108,82,79);"/>
    </g>
    <g>
        <path d="M406.5,431.5C410.539,436.244 413.539,441.577 415.5,447.5C415.167,448.5 414.833,449.5 414.5,450.5C403.749,455.598 392.749,455.765 381.5,451C375.545,447.933 371.879,443.099 370.5,436.5C373.786,437.207 377.119,437.54 380.5,437.5C379.737,438.268 378.737,438.768 377.5,439C382.509,442.934 387.675,446.767 393,450.5C397.056,452.243 400.556,451.576 403.5,448.5C402.092,445.46 400.759,442.46 399.5,439.5C403.224,441.385 406.224,444.219 408.5,448C410.5,448.667 412.5,448.667 414.5,448C411.095,443.345 408.095,438.511 405.5,433.5C405.328,432.508 405.662,431.842 406.5,431.5Z" style="fill:rgb(76,53,51);"/>
    </g>
    <g>
        <path d="M105.5,436.5C105.918,437.222 106.584,437.722 107.5,438C104.8,438.949 103.967,440.783 105,443.5C107.809,446.749 111.309,448.916 115.5,450C124.613,452.057 126.946,448.891 122.5,440.5C122.833,440.167 123.167,439.833 123.5,439.5C125.043,442.086 126.709,444.586 128.5,447C130.473,447.495 132.473,447.662 134.5,447.5C134.799,445.396 134.466,443.396 133.5,441.5C131.23,439.398 129.563,436.898 128.5,434C128.57,433.235 128.903,432.735 129.5,432.5C133.981,437.461 136.814,443.128 138,449.5C125.502,454.985 113.002,454.818 100.5,449C95.483,444.134 92.15,438.3 90.5,431.5C90.435,431.062 90.601,430.728 91,430.5C95.207,434.02 100.04,436.02 105.5,436.5Z" style="fill:rgb(73,52,51);"/>
    </g>
    <g>
        <path d="M297.5,444.5C302.287,454.564 310.287,459.564 321.5,459.5C321.463,455.177 320.629,451.177 319,447.5C320.833,450 322.667,452.5 324.5,455C327.014,456.252 329.68,456.752 332.5,456.5C331.674,453.757 330.341,451.257 328.5,449C329.056,448.617 329.389,448.117 329.5,447.5C332.659,450.486 334.159,454.152 334,458.5C329.773,459.006 325.94,460.339 322.5,462.5C317.463,462.587 312.463,462.254 307.5,461.5C296.717,460.264 290.384,454.264 288.5,443.5C288.56,442.957 288.893,442.624 289.5,442.5C292.021,443.785 294.687,444.452 297.5,444.5Z" style="fill:rgb(74,50,49);"/>
    </g>
    <g>
        <path d="M307.5,461.5C312.463,462.254 317.463,462.587 322.5,462.5C320.696,463.162 318.696,463.495 316.5,463.5C313.186,463.657 310.186,462.991 307.5,461.5Z" style="fill:rgb(211,190,191);"/>
    </g>
</svg>
