<?xml version="1.0" encoding="UTF-8"?>
<!DOCTYPE svg PUBLIC "-//W3C//DTD SVG 1.1//EN" "http://www.w3.org/Graphics/SVG/1.1/DTD/svg11.dtd">
<svg xmlns="http://www.w3.org/2000/svg" version="1.1" width="626px" height="476px" style="shape-rendering:geometricPrecision; text-rendering:geometricPrecision; image-rendering:optimizeQuality; fill-rule:evenodd; clip-rule:evenodd" xmlns:xlink="http://www.w3.org/1999/xlink">
<g><path style="opacity:1" fill="#fefefd" d="M -0.5,-0.5 C 208.167,-0.5 416.833,-0.5 625.5,-0.5C 625.5,158.167 625.5,316.833 625.5,475.5C 416.833,475.5 208.167,475.5 -0.5,475.5C -0.5,316.833 -0.5,158.167 -0.5,-0.5 Z"/></g>
<g><path style="opacity:1" fill="#eb9b8d" d="M 573.5,66.5 C 573.631,65.6236 573.298,64.9569 572.5,64.5C 571.422,66.4612 570.089,68.1279 568.5,69.5C 558.456,71.36 548.789,70.1933 539.5,66C 538.748,65.3292 538.414,64.4959 538.5,63.5C 544.704,65.341 551.037,66.6743 557.5,67.5C 559.5,67.3333 561.5,67.1667 563.5,67C 564.756,66.5831 565.423,65.7498 565.5,64.5C 565.918,63.7784 566.584,63.2784 567.5,63C 557.099,61.625 547.433,58.2917 538.5,53C 530.597,45.5527 522.93,37.886 515.5,30C 508.27,25.4402 500.603,21.7736 492.5,19C 485.231,18.1561 478.231,19.1561 471.5,22C 470.934,22.9947 470.267,23.828 469.5,24.5C 465.074,24.7203 463.074,27.0536 463.5,31.5C 460.833,31.5 458.167,31.5 455.5,31.5C 456.167,30.8333 456.833,30.1667 457.5,29.5C 474.813,12.8403 493.48,11.3403 513.5,25C 522.845,35.0111 532.845,44.3444 543.5,53C 552.91,57.6004 562.91,60.1004 573.5,60.5C 574.793,62.6365 574.793,64.6365 573.5,66.5 Z"/></g>
<g><path style="opacity:1" fill="#f4bcb4" d="M 565.5,64.5 C 559.933,64.0389 554.266,63.0389 548.5,61.5C 548.023,60.5224 547.357,59.6891 546.5,59C 533.243,56.1772 521.91,49.8439 512.5,40C 506.713,37.6065 501.046,34.9398 495.5,32C 487.294,29.9527 478.961,29.1194 470.5,29.5C 470.371,27.7839 470.038,26.1172 469.5,24.5C 470.267,23.828 470.934,22.9947 471.5,22C 478.231,19.1561 485.231,18.1561 492.5,19C 500.603,21.7736 508.27,25.4402 515.5,30C 522.93,37.886 530.597,45.5527 538.5,53C 547.433,58.2917 557.099,61.625 567.5,63C 566.584,63.2784 565.918,63.7784 565.5,64.5 Z"/></g>
<g><path style="opacity:1" fill="#f4bbb4" d="M 399.5,10.5 C 402.237,11.031 404.904,11.8644 407.5,13C 411.312,16.4819 414.812,20.3153 418,24.5C 418.483,25.448 418.649,26.448 418.5,27.5C 419.675,27.281 420.675,27.6143 421.5,28.5C 425.623,34.4132 428.957,40.7465 431.5,47.5C 432.55,56.8506 432.55,66.184 431.5,75.5C 423.574,76.8656 417.241,74.3656 412.5,68C 410.975,66.9914 409.308,66.4914 407.5,66.5C 407.5,65.5 407.5,64.5 407.5,63.5C 399.68,59.7608 391.68,56.2608 383.5,53C 373.574,47.6582 362.908,44.4915 351.5,43.5C 350.974,40.1922 352.307,38.0255 355.5,37C 365.738,35.6532 375.738,33.6532 385.5,31C 387.293,28.2047 389.46,25.7047 392,23.5C 393.549,19.5193 393.715,15.5193 392.5,11.5C 394.743,10.5258 397.076,10.1924 399.5,10.5 Z"/></g>
<g><path style="opacity:1" fill="#eb9387" d="M 295.5,27.5 C 298.028,28.1657 300.694,28.8324 303.5,29.5C 300.833,29.8333 298.167,30.1667 295.5,30.5C 258.153,29.1669 220.82,29.5002 183.5,31.5C 187.759,30.1389 192.093,29.1389 196.5,28.5C 229.468,26.3652 262.468,26.0318 295.5,27.5 Z"/></g>
<g><path style="opacity:1" fill="#f3bab3" d="M 348.5,207.5 C 349.5,207.5 350.5,207.5 351.5,207.5C 351.402,211.25 352.569,214.583 355,217.5C 357.744,219.085 359.911,221.085 361.5,223.5C 361.995,225.482 362.495,227.482 363,229.5C 364.572,232.763 366.572,235.763 369,238.5C 370.661,244.466 372.827,250.133 375.5,255.5C 376.12,266.438 374.787,277.105 371.5,287.5C 370.127,287.343 368.793,287.51 367.5,288C 368.374,289.727 368.207,291.56 367,293.5C 363.297,298.368 359.13,302.702 354.5,306.5C 354.167,306 353.833,305.5 353.5,305C 356.365,296.714 357.865,288.214 358,279.5C 357.333,280.167 356.667,280.833 356,281.5C 345.078,298.174 335.578,315.674 327.5,334C 325.781,336.578 324.115,339.078 322.5,341.5C 323.037,342.741 323.704,343.908 324.5,345C 321.25,352.097 319.417,359.597 319,367.5C 318.667,384.5 318.333,401.5 318,418.5C 317.63,424.603 314.797,428.937 309.5,431.5C 303.344,428.852 298.178,424.852 294,419.5C 291.536,415.566 289.369,411.566 287.5,407.5C 286.356,405.9 285.189,404.233 284,402.5C 282.231,391.088 279.064,380.088 274.5,369.5C 275.609,367.786 274.942,367.119 272.5,367.5C 268.583,350.248 264.916,332.915 261.5,315.5C 258.217,287.274 259.384,259.274 265,231.5C 267.644,224.251 269.644,216.918 271,209.5C 263.892,220.071 256.559,230.404 249,240.5C 249.332,244.841 247.998,248.841 245,252.5C 241.288,264.065 237.954,275.731 235,287.5C 226.429,298.337 215.096,302.671 201,300.5C 188.521,301.382 176.687,299.216 165.5,294C 165.043,293.586 164.709,293.086 164.5,292.5C 169.552,276.322 171.718,259.989 171,243.5C 168.268,254.03 164.934,264.363 161,274.5C 155.509,282.139 150.009,289.805 144.5,297.5C 143.534,299.396 143.201,301.396 143.5,303.5C 142.022,303.238 140.689,303.571 139.5,304.5C 132.622,314.258 126.788,324.591 122,335.5C 121.667,338.167 121.333,340.833 121,343.5C 120.333,344.833 119.333,345.833 118,346.5C 117.269,353.712 116.102,360.712 114.5,367.5C 113.681,382.384 115.014,397.051 118.5,411.5C 117.94,414.945 116.607,417.945 114.5,420.5C 113.117,417.924 112.283,418.258 112,421.5C 106.608,421.043 102.275,418.71 99,414.5C 96.4088,409.569 93.9088,404.569 91.5,399.5C 88.6619,387.827 85.8286,376.161 83,364.5C 81.1085,357.151 81.1085,349.817 83,342.5C 87.9747,338.196 92.9747,333.862 98,329.5C 102.002,322.91 101.335,316.91 96,311.5C 95.9981,304.997 93.4981,299.664 88.5,295.5C 79.7965,280.232 70.6298,265.232 61,250.5C 56,237.167 51,223.833 46,210.5C 42.4086,187.997 43.2419,165.663 48.5,143.5C 52.3166,133.862 57.1499,124.862 63,116.5C 63.4935,114.866 63.6602,113.199 63.5,111.5C 66.5356,110.188 68.7022,107.854 70,104.5C 74.4103,101.259 77.9103,97.2589 80.5,92.5C 85.209,89.1369 89.5423,85.3035 93.5,81C 98.3552,79.4804 102.022,76.4804 104.5,72C 106.608,71.6401 108.608,70.9734 110.5,70C 112.514,67.655 114.847,65.655 117.5,64C 142.933,50.1346 170.266,42.1346 199.5,40C 237.61,37.1441 274.944,41.1441 311.5,52C 314.608,54.1056 317.941,55.7723 321.5,57C 322.592,59.5942 324.259,61.7609 326.5,63.5C 328.387,67.5996 329.387,71.933 329.5,76.5C 328.37,93.0475 326.204,109.381 323,125.5C 318.378,147.035 321.378,167.368 332,186.5C 335.581,191.328 338.915,196.328 342,201.5C 343.731,204.068 345.898,206.068 348.5,207.5 Z"/></g>
<g><path style="opacity:1" fill="#e8858f" d="M 521.5,57.5 C 521.062,57.4346 520.728,57.6012 520.5,58C 524.98,64.8058 529.813,71.3058 535,77.5C 536.759,80.6076 537.592,83.941 537.5,87.5C 550.015,88.0706 559.848,83.404 567,73.5C 567.791,72.255 568.291,70.9217 568.5,69.5C 570.089,68.1279 571.422,66.4612 572.5,64.5C 573.298,64.9569 573.631,65.6236 573.5,66.5C 567.921,80.0837 557.921,88.0837 543.5,90.5C 540.5,90.5 537.5,90.5 534.5,90.5C 533.793,86.7524 532.793,83.0857 531.5,79.5C 530.167,79.5 528.833,79.5 527.5,79.5C 527.144,77.8102 526.144,76.8102 524.5,76.5C 522.309,71.7754 518.975,68.1087 514.5,65.5C 511.955,62.1733 509.288,59.0066 506.5,56C 505.5,55.6667 504.5,55.3333 503.5,55C 500.253,52.2588 497.586,49.0921 495.5,45.5C 495.5,44.5 495.5,43.5 495.5,42.5C 491.601,42.369 488.268,41.0357 485.5,38.5C 494.842,36.8389 502.508,39.6723 508.5,47C 509.448,47.4828 510.448,47.6495 511.5,47.5C 511.119,49.9418 511.786,50.6085 513.5,49.5C 517.188,51.1884 519.855,53.855 521.5,57.5 Z"/></g>
<g><path style="opacity:1" fill="#eb978b" d="M 196.5,28.5 C 192.093,29.1389 187.759,30.1389 183.5,31.5C 171.401,32.4484 159.401,34.1151 147.5,36.5C 147.291,37.086 146.957,37.586 146.5,38C 134.927,38.2378 123.76,40.4044 113,44.5C 110.35,47.0291 107.184,48.0291 103.5,47.5C 103.5,48.5 103.5,49.5 103.5,50.5C 101.042,50.2275 99.3751,51.2275 98.5,53.5C 96.604,54.4656 94.604,54.7989 92.5,54.5C 92.5,55.5 92.5,56.5 92.5,57.5C 91.5,57.5 90.5,57.5 89.5,57.5C 89.0047,61.353 87.0047,62.6864 83.5,61.5C 82.3044,61.8457 82.3044,62.3457 83.5,63C 82.2068,63.49 80.8734,63.6567 79.5,63.5C 79.8808,65.9418 79.2141,66.6085 77.5,65.5C 74.1667,68.5 70.8333,71.5 67.5,74.5C 66.7025,74.0431 66.3691,73.3764 66.5,72.5C 79.4292,58.0269 95.0959,47.5269 113.5,41C 140.598,33.4861 168.265,29.3195 196.5,28.5 Z"/></g>
<g><path style="opacity:1" fill="#ea8e88" d="M 463.5,31.5 C 474.077,32.9969 484.743,34.1635 495.5,35C 506.225,39.4106 515.559,45.744 523.5,54C 527.807,57.4832 532.473,60.3166 537.5,62.5C 536.054,63.6129 534.387,63.7796 532.5,63C 529.083,60.6228 525.417,58.7894 521.5,57.5C 519.855,53.855 517.188,51.1884 513.5,49.5C 511.786,50.6085 511.119,49.9418 511.5,47.5C 510.448,47.6495 509.448,47.4828 508.5,47C 502.508,39.6723 494.842,36.8389 485.5,38.5C 488.268,41.0357 491.601,42.369 495.5,42.5C 495.5,43.5 495.5,44.5 495.5,45.5C 485.668,41.1767 475.668,37.1767 465.5,33.5C 464.287,33.2528 463.62,32.5862 463.5,31.5 Z"/></g>
<g><path style="opacity:1" fill="#f0a79f" d="M 469.5,24.5 C 470.038,26.1172 470.371,27.7839 470.5,29.5C 478.961,29.1194 487.294,29.9527 495.5,32C 501.046,34.9398 506.713,37.6065 512.5,40C 521.91,49.8439 533.243,56.1772 546.5,59C 547.357,59.6891 548.023,60.5224 548.5,61.5C 554.266,63.0389 559.933,64.0389 565.5,64.5C 565.423,65.7498 564.756,66.5831 563.5,67C 561.5,67.1667 559.5,67.3333 557.5,67.5C 551.037,66.6743 544.704,65.341 538.5,63.5C 538.5,62.8333 538.167,62.5 537.5,62.5C 532.473,60.3166 527.807,57.4832 523.5,54C 515.559,45.744 506.225,39.4106 495.5,35C 484.743,34.1635 474.077,32.9969 463.5,31.5C 463.074,27.0536 465.074,24.7203 469.5,24.5 Z"/></g>
<g><path style="opacity:1" fill="#efa69f" d="M 399.5,10.5 C 397.076,10.1924 394.743,10.5258 392.5,11.5C 393.715,15.5193 393.549,19.5193 392,23.5C 389.46,25.7047 387.293,28.2047 385.5,31C 375.738,33.6532 365.738,35.6532 355.5,37C 352.307,38.0255 350.974,40.1922 351.5,43.5C 362.908,44.4915 373.574,47.6582 383.5,53C 391.68,56.2608 399.68,59.7608 407.5,63.5C 407.5,64.5 407.5,65.5 407.5,66.5C 409.308,66.4914 410.975,66.9914 412.5,68C 417.241,74.3656 423.574,76.8656 431.5,75.5C 432.55,66.184 432.55,56.8506 431.5,47.5C 438.605,61.519 439.272,75.8524 433.5,90.5C 431.926,91.6309 430.259,91.7975 428.5,91C 412.114,81.4814 396.114,71.4814 380.5,61C 374.292,58.8915 367.959,57.3915 361.5,56.5C 355.602,55.7983 350.935,57.7983 347.5,62.5C 347.833,62.8333 348.167,63.1667 348.5,63.5C 355.489,57.4028 356.989,58.4028 353,66.5C 352.667,66.1667 352.333,65.8333 352,65.5C 351.437,71.9538 350.27,78.2871 348.5,84.5C 338.747,71.4102 334.581,56.7435 336,40.5C 339.65,35.7048 344.484,32.8715 350.5,32C 348.866,31.5065 347.199,31.3398 345.5,31.5C 345.918,30.7784 346.584,30.2784 347.5,30C 351.833,29.6667 356.167,29.3333 360.5,29C 363.703,25.6291 367.036,22.4625 370.5,19.5C 370.369,20.3764 370.702,21.0431 371.5,21.5C 373.517,20.8257 375.183,19.6591 376.5,18C 377.793,17.51 379.127,17.3433 380.5,17.5C 380.343,16.1266 380.51,14.7932 381,13.5C 386.911,10.2138 393.077,9.21376 399.5,10.5 Z"/></g>
<g><path style="opacity:1" fill="#efa69f" d="M 424.5,28.5 C 435.527,28.2867 446.527,28.6201 457.5,29.5C 456.833,30.1667 456.167,30.8333 455.5,31.5C 448.806,30.5311 442.14,30.5311 435.5,31.5C 435.335,35.1817 435.501,38.8484 436,42.5C 443.534,60.4202 444.368,78.5868 438.5,97C 438.833,97.3333 439.167,97.6667 439.5,98C 437.129,98.7348 434.795,99.5682 432.5,100.5C 418.915,91.7471 404.082,86.4137 388,84.5C 377.665,84.4907 370.998,89.4907 368,99.5C 364.412,120.602 365.079,141.602 370,162.5C 372.477,167.931 374.144,173.597 375,179.5C 377.656,183.144 379.489,187.144 380.5,191.5C 381.5,191.5 382.5,191.5 383.5,191.5C 386.486,196.076 389.986,200.409 394,204.5C 394.455,207.757 396.121,210.091 399,211.5C 399.483,212.448 399.649,213.448 399.5,214.5C 400.5,214.5 401.5,214.5 402.5,214.5C 402.281,215.675 402.614,216.675 403.5,217.5C 411.83,221.904 420.497,225.571 429.5,228.5C 456.04,235.76 472.04,225.427 477.5,197.5C 478.192,198.025 478.692,198.692 479,199.5C 479.82,206.014 479.653,212.347 478.5,218.5C 478.665,214.818 478.499,211.152 478,207.5C 475.958,219.768 469.791,229.268 459.5,236C 465.972,235.678 471.138,232.845 475,227.5C 490.459,239.408 507.959,244.242 527.5,242C 538.68,239.203 550.013,237.703 561.5,237.5C 563.5,237.5 565.5,237.5 567.5,237.5C 567.5,237.833 567.5,238.167 567.5,238.5C 561.814,244.851 555.481,250.517 548.5,255.5C 548.719,254.325 548.386,253.325 547.5,252.5C 536.359,259.05 524.359,263.55 511.5,266C 492.191,268.656 472.858,268.99 453.5,267C 418.817,257.488 391.151,237.988 370.5,208.5C 369.675,207.614 368.675,207.281 367.5,207.5C 367.628,205.345 367.128,203.345 366,201.5C 345.254,171.105 338.588,137.771 346,101.5C 348.526,97.0862 350.359,92.4195 351.5,87.5C 356.032,80.12 361.198,73.12 367,66.5C 367.483,65.552 367.649,64.552 367.5,63.5C 369.099,63.7678 370.432,63.4345 371.5,62.5C 372.117,62.3893 372.617,62.056 373,61.5C 375.544,62.8831 378.044,64.3831 380.5,66C 384.442,65.9366 387.442,67.6032 389.5,71C 393.003,72.7575 396.336,74.5908 399.5,76.5C 399.5,77.5 399.5,78.5 399.5,79.5C 401.199,79.3398 402.866,79.5065 404.5,80C 412.132,84.2773 419.799,88.6106 427.5,93C 430.002,94.4316 432.502,94.5982 435,93.5C 436.608,90.6179 437.941,87.6179 439,84.5C 440.626,71.566 439.126,59.066 434.5,47C 432.339,43.2043 430.172,39.3709 428,35.5C 427.51,34.2068 427.343,32.8734 427.5,31.5C 428.978,31.762 430.311,31.4287 431.5,30.5C 429.031,29.8319 426.698,29.1653 424.5,28.5 Z"/></g>
<g><path style="opacity:1" fill="#ea93a2" d="M 521.5,57.5 C 525.417,58.7894 529.083,60.6228 532.5,63C 534.387,63.7796 536.054,63.6129 537.5,62.5C 538.167,62.5 538.5,62.8333 538.5,63.5C 538.414,64.4959 538.748,65.3292 539.5,66C 548.789,70.1933 558.456,71.36 568.5,69.5C 568.291,70.9217 567.791,72.255 567,73.5C 559.848,83.404 550.015,88.0706 537.5,87.5C 537.592,83.941 536.759,80.6076 535,77.5C 529.813,71.3058 524.98,64.8058 520.5,58C 520.728,57.6012 521.062,57.4346 521.5,57.5 Z"/></g>
<g><path style="opacity:1" fill="#97491e" d="M 516.5,74.5 C 517.833,76.5 519.5,78.1667 521.5,79.5C 522.028,80.8474 522.195,82.1807 522,83.5C 515.882,77.851 510.215,78.1844 505,84.5C 505.201,77.1582 509.034,73.8249 516.5,74.5 Z"/></g>
<g><path style="opacity:1" fill="#eb9e90" d="M 63.5,74.5 C 64.4972,74.4701 65.1639,74.9701 65.5,76C 55.9784,85.9993 48.3117,97.1659 42.5,109.5C 41.6143,108.675 41.281,107.675 41.5,106.5C 44.4754,99.5616 47.8088,92.8949 51.5,86.5C 54.2557,85.55 56.589,83.3833 58.5,80C 58.2409,78.7387 57.5742,77.7387 56.5,77C 50.4853,73.9653 44.1519,72.9653 37.5,74C 26.9259,75.9551 19.4259,81.7884 15,91.5C 14.3333,95.5 14.3333,99.5 15,103.5C 17.2077,110.11 21.7077,112.276 28.5,110C 34.4232,105.145 36.0899,98.9788 33.5,91.5C 32.2003,88.5677 30.2003,86.2344 27.5,84.5C 30.807,80.3526 35.1403,78.686 40.5,79.5C 42.8333,79.8333 45.1667,80.1667 47.5,80.5C 49.9767,81.88 49.9767,82.88 47.5,83.5C 41.9235,80.5323 36.5901,80.8656 31.5,84.5C 39.4114,93.3993 39.4114,102.233 31.5,111C 22.3445,115.838 16.1778,113.338 13,103.5C 12.3333,99.1667 12.3333,94.8333 13,90.5C 14.5588,88.7834 15.3921,86.7834 15.5,84.5C 13.1432,84.6633 10.8098,84.4966 8.5,84C 5.83333,82 5.83333,80 8.5,78C 13.8333,77.6667 19.1667,77.3333 24.5,77C 36.4288,69.9201 48.4288,69.7534 60.5,76.5C 61.7387,76.0576 62.7387,75.3909 63.5,74.5 Z"/></g>
<g><path style="opacity:1" fill="#f5bdb3" d="M 51.5,86.5 C 50.1283,85.4884 48.795,84.4884 47.5,83.5C 49.9767,82.88 49.9767,81.88 47.5,80.5C 45.1667,80.1667 42.8333,79.8333 40.5,79.5C 35.1403,78.686 30.807,80.3526 27.5,84.5C 30.2003,86.2344 32.2003,88.5677 33.5,91.5C 36.0899,98.9788 34.4232,105.145 28.5,110C 21.7077,112.276 17.2077,110.11 15,103.5C 14.3333,99.5 14.3333,95.5 15,91.5C 19.4259,81.7884 26.9259,75.9551 37.5,74C 44.1519,72.9653 50.4853,73.9653 56.5,77C 57.5742,77.7387 58.2409,78.7387 58.5,80C 56.589,83.3833 54.2557,85.55 51.5,86.5 Z"/></g>
<g><path style="opacity:1" fill="#f3bab3" d="M 455.5,31.5 C 458.167,31.5 460.833,31.5 463.5,31.5C 463.62,32.5862 464.287,33.2528 465.5,33.5C 475.668,37.1767 485.668,41.1767 495.5,45.5C 497.586,49.0921 500.253,52.2588 503.5,55C 504.5,55.3333 505.5,55.6667 506.5,56C 509.288,59.0066 511.955,62.1733 514.5,65.5C 518.975,68.1087 522.309,71.7754 524.5,76.5C 521.381,74.39 519.048,71.7234 517.5,68.5C 516.167,68.5 514.833,68.5 513.5,68.5C 513.683,70.9878 514.683,72.9878 516.5,74.5C 509.034,73.8249 505.201,77.1582 505,84.5C 510.215,78.1844 515.882,77.851 522,83.5C 522.195,82.1807 522.028,80.8474 521.5,79.5C 523.291,83.5558 524.958,87.8891 526.5,92.5C 527.325,93.3857 528.325,93.719 529.5,93.5C 532.176,102.519 536.676,110.519 543,117.5C 544.926,124.639 548.76,130.473 554.5,135C 558.201,136.201 561.201,138.368 563.5,141.5C 565.817,140.29 567.817,140.79 569.5,143C 573.211,143.825 576.878,143.659 580.5,142.5C 560.24,134.406 545.74,120.406 537,100.5C 534.632,96.1015 533.132,91.4348 532.5,86.5C 529.61,84.9571 527.943,82.6238 527.5,79.5C 528.833,79.5 530.167,79.5 531.5,79.5C 532.793,83.0857 533.793,86.7524 534.5,90.5C 537.5,90.5 540.5,90.5 543.5,90.5C 541.302,91.1653 538.969,91.8319 536.5,92.5C 539.822,100.477 543.655,108.143 548,115.5C 560.112,129.125 574.612,139.125 591.5,145.5C 583.139,144.32 574.805,144.32 566.5,145.5C 561.626,145.766 556.959,146.933 552.5,149C 549.257,154.077 544.924,157.91 539.5,160.5C 529.901,180.383 524.401,201.383 523,223.5C 518.882,230.658 512.716,233.158 504.5,231C 498.989,229.1 493.322,227.767 487.5,227C 484.992,225.097 482.159,223.93 479,223.5C 477.97,223.164 477.47,222.497 477.5,221.5C 477.263,220.209 477.596,219.209 478.5,218.5C 479.653,212.347 479.82,206.014 479,199.5C 478.692,198.692 478.192,198.025 477.5,197.5C 472.04,225.427 456.04,235.76 429.5,228.5C 420.497,225.571 411.83,221.904 403.5,217.5C 402.614,216.675 402.281,215.675 402.5,214.5C 401.5,214.5 400.5,214.5 399.5,214.5C 399.649,213.448 399.483,212.448 399,211.5C 396.121,210.091 394.455,207.757 394,204.5C 389.986,200.409 386.486,196.076 383.5,191.5C 382.5,191.5 381.5,191.5 380.5,191.5C 379.489,187.144 377.656,183.144 375,179.5C 374.144,173.597 372.477,167.931 370,162.5C 365.079,141.602 364.412,120.602 368,99.5C 370.998,89.4907 377.665,84.4907 388,84.5C 404.082,86.4137 418.915,91.7471 432.5,100.5C 434.795,99.5682 437.129,98.7348 439.5,98C 439.167,97.6667 438.833,97.3333 438.5,97C 444.368,78.5868 443.534,60.4202 436,42.5C 435.501,38.8484 435.335,35.1817 435.5,31.5C 442.14,30.5311 448.806,30.5311 455.5,31.5 Z"/></g>
<g><path style="opacity:1" fill="#954c1f" d="M 457.5,72.5 C 463.771,72.1405 467.104,74.8072 467.5,80.5C 462.648,76.561 457.815,76.561 453,80.5C 452.333,79.5 452.333,78.5 453,77.5C 454.366,75.6383 455.866,73.9717 457.5,72.5 Z"/></g>
<g><path style="opacity:1" fill="#f7cac1" d="M 524.5,76.5 C 526.144,76.8102 527.144,77.8102 527.5,79.5C 527.943,82.6238 529.61,84.9571 532.5,86.5C 533.132,91.4348 534.632,96.1015 537,100.5C 545.74,120.406 560.24,134.406 580.5,142.5C 576.878,143.659 573.211,143.825 569.5,143C 567.817,140.79 565.817,140.29 563.5,141.5C 561.201,138.368 558.201,136.201 554.5,135C 548.76,130.473 544.926,124.639 543,117.5C 536.676,110.519 532.176,102.519 529.5,93.5C 528.325,93.719 527.325,93.3857 526.5,92.5C 524.958,87.8891 523.291,83.5558 521.5,79.5C 519.5,78.1667 517.833,76.5 516.5,74.5C 514.683,72.9878 513.683,70.9878 513.5,68.5C 514.833,68.5 516.167,68.5 517.5,68.5C 519.048,71.7234 521.381,74.39 524.5,76.5 Z"/></g>
<g><path style="opacity:1" fill="#ec9a8f" d="M 23.5,87.5 C 25.3904,87.2965 26.8904,87.9632 28,89.5C 31.3103,93.215 32.3103,97.5483 31,102.5C 24.5721,108.431 20.7388,106.931 19.5,98C 20.528,94.4207 21.8613,90.9207 23.5,87.5 Z"/></g>
<g><path style="opacity:1" fill="#fcf1ee" d="M 24.5,91.5 C 29.0779,92.8432 30.5779,95.8432 29,100.5C 25.207,104.54 22.707,103.707 21.5,98C 21.8402,95.4887 22.8402,93.322 24.5,91.5 Z"/></g>
<g><path style="opacity:1" fill="#d3d6d0" d="M 458.5,112.5 C 462.181,113.857 463.015,116.19 461,119.5C 460.292,118.619 459.458,117.953 458.5,117.5C 458.5,115.833 458.5,114.167 458.5,112.5 Z"/></g>
<g><path style="opacity:1" fill="#180f0d" d="M 531.5,121.5 C 530.596,122.209 530.263,123.209 530.5,124.5C 528.801,124.66 527.134,124.494 525.5,124C 523.347,121.005 521.681,117.838 520.5,114.5C 520.34,112.801 520.506,111.134 521,109.5C 521.934,112.592 523.1,112.925 524.5,110.5C 524.456,107.59 523.29,106.59 521,107.5C 520.364,104.478 521.53,102.978 524.5,103C 529.491,108.136 531.824,114.302 531.5,121.5 Z"/></g>
<g><path style="opacity:1" fill="#130c0c" d="M 468.5,120.5 C 467.994,134.414 464.66,135.081 458.5,122.5C 458.5,120.833 458.5,119.167 458.5,117.5C 459.458,117.953 460.292,118.619 461,119.5C 463.015,116.19 462.181,113.857 458.5,112.5C 458.572,108.464 460.239,107.63 463.5,110C 466.117,113.066 467.783,116.566 468.5,120.5 Z"/></g>
<g><path style="opacity:1" fill="#eda7a1" d="M 520.5,114.5 C 521.681,117.838 523.347,121.005 525.5,124C 527.134,124.494 528.801,124.66 530.5,124.5C 530.263,123.209 530.596,122.209 531.5,121.5C 531.993,123.49 533.16,123.49 535,121.5C 538.642,123.002 542.142,124.669 545.5,126.5C 541.786,127.93 538.286,127.597 535,125.5C 533.068,127.178 530.902,127.678 528.5,127C 529.696,126.346 529.696,125.846 528.5,125.5C 523.008,126.786 517.341,127.453 511.5,127.5C 500.797,128.009 490.131,128.176 479.5,128C 481.5,128.333 483.5,128.667 485.5,129C 459.783,134.43 435.116,142.93 411.5,154.5C 411.782,152.165 413.115,149.998 415.5,148C 420.826,143.015 426.493,138.349 432.5,134C 436.475,132.564 440.142,130.564 443.5,128C 445.5,127.667 447.5,127.333 449.5,127C 452.33,125.053 455.33,123.553 458.5,122.5C 464.66,135.081 467.994,134.414 468.5,120.5C 485.774,118.724 503.107,118.057 520.5,118.5C 520.5,117.167 520.5,115.833 520.5,114.5 Z"/></g>
<g><path style="opacity:1" fill="#e06c7e" d="M 591.5,145.5 C 593.379,146.341 595.379,146.675 597.5,146.5C 595.5,147.167 593.5,147.833 591.5,148.5C 590.71,149.401 589.71,150.068 588.5,150.5C 587.791,149.596 586.791,149.263 585.5,149.5C 585.611,148.883 585.944,148.383 586.5,148C 580.319,147.181 574.319,147.347 568.5,148.5C 562.981,149.953 558.481,152.953 555,157.5C 553.078,161.679 550.912,165.679 548.5,169.5C 547.504,169.414 546.671,169.748 546,170.5C 541.462,176.895 538.629,183.895 537.5,191.5C 536.833,191.5 536.167,191.5 535.5,191.5C 534.833,191.5 534.167,191.5 533.5,191.5C 534.104,187.299 535.27,183.299 537,179.5C 540.019,175.461 542.519,171.128 544.5,166.5C 548.153,161.35 552.153,156.517 556.5,152C 559.763,149.541 563.096,147.374 566.5,145.5C 574.805,144.32 583.139,144.32 591.5,145.5 Z"/></g>
<g><path style="opacity:1" fill="#fdc9c7" d="M 568.5,148.5 C 569.873,148.343 571.207,148.51 572.5,149C 562.34,156.327 553.673,165.16 546.5,175.5C 546.167,175.333 545.833,175.167 545.5,175C 546.758,173.259 547.758,171.426 548.5,169.5C 550.912,165.679 553.078,161.679 555,157.5C 558.481,152.953 562.981,149.953 568.5,148.5 Z"/></g>
<g><path style="opacity:1" fill="#f79697" d="M 591.5,148.5 C 592.5,148.5 593.5,148.5 594.5,148.5C 598.864,151.111 603.031,154.111 607,157.5C 610.297,162.385 612.631,167.718 614,173.5C 615.414,187.638 615.914,201.638 615.5,215.5C 615.5,216.5 615.5,217.5 615.5,218.5C 614.883,218.389 614.383,218.056 614,217.5C 613.051,219.093 611.885,220.426 610.5,221.5C 606.975,224.431 602.975,226.598 598.5,228C 589.748,231.117 580.748,232.117 571.5,231C 567.725,229.558 564.892,227.058 563,223.5C 562.333,216.833 562.333,210.167 563,203.5C 564.515,197.925 565.515,192.258 566,186.5C 570.775,177.385 575.109,168.052 579,158.5C 581.757,157.055 583.924,155.055 585.5,152.5C 586.29,151.599 587.29,150.932 588.5,150.5C 589.71,150.068 590.71,149.401 591.5,148.5 Z"/></g>
<g><path style="opacity:1" fill="#d48596" d="M 597.5,146.5 C 608.41,150.256 614.91,157.923 617,169.5C 617.495,171.473 617.662,173.473 617.5,175.5C 617.649,176.552 617.483,177.552 617,178.5C 616.013,170.205 613.347,162.538 609,155.5C 605.398,150.616 600.565,148.282 594.5,148.5C 593.5,148.5 592.5,148.5 591.5,148.5C 593.5,147.833 595.5,147.167 597.5,146.5 Z"/></g>
<g><path style="opacity:1" fill="#f69799" d="M 568.5,148.5 C 574.319,147.347 580.319,147.181 586.5,148C 585.944,148.383 585.611,148.883 585.5,149.5C 582.279,150.709 579.279,152.376 576.5,154.5C 565.78,164.872 558.446,177.205 554.5,191.5C 553.209,193.315 551.376,194.315 549,194.5C 545.396,192.802 541.563,191.802 537.5,191.5C 538.629,183.895 541.462,176.895 546,170.5C 546.671,169.748 547.504,169.414 548.5,169.5C 547.758,171.426 546.758,173.259 545.5,175C 545.833,175.167 546.167,175.333 546.5,175.5C 553.673,165.16 562.34,156.327 572.5,149C 571.207,148.51 569.873,148.343 568.5,148.5 Z"/></g>
<g><path style="opacity:1" fill="#e06271" d="M 585.5,149.5 C 586.791,149.263 587.791,149.596 588.5,150.5C 587.29,150.932 586.29,151.599 585.5,152.5C 574.389,159.12 566.222,168.453 561,180.5C 558.281,187.324 555.948,194.324 554,201.5C 552.753,208.779 552.253,216.112 552.5,223.5C 551.5,223.5 550.5,223.5 549.5,223.5C 549.169,215.14 549.502,206.807 550.5,198.5C 552.947,196.847 554.28,194.513 554.5,191.5C 558.446,177.205 565.78,164.872 576.5,154.5C 579.279,152.376 582.279,150.709 585.5,149.5 Z"/></g>
<g><path style="opacity:1" fill="#fabbc4" d="M 594.5,148.5 C 600.565,148.282 605.398,150.616 609,155.5C 613.347,162.538 616.013,170.205 617,178.5C 617.483,177.552 617.649,176.552 617.5,175.5C 618.461,177.265 618.795,179.265 618.5,181.5C 617.67,191.325 617.17,201.325 617,211.5C 616.209,212.745 615.709,214.078 615.5,215.5C 615.914,201.638 615.414,187.638 614,173.5C 612.631,167.718 610.297,162.385 607,157.5C 603.031,154.111 598.864,151.111 594.5,148.5 Z"/></g>
<g><path style="opacity:1" fill="#c37785" d="M 618.5,181.5 C 618.667,192.172 618.5,202.839 618,213.5C 617.76,215.852 616.927,217.852 615.5,219.5C 615.5,219.167 615.5,218.833 615.5,218.5C 615.5,217.5 615.5,216.5 615.5,215.5C 615.709,214.078 616.209,212.745 617,211.5C 617.17,201.325 617.67,191.325 618.5,181.5 Z"/></g>
<g><path style="opacity:1" fill="#cf4144" d="M 580.5,185.5 C 581.465,186.721 581.298,188.054 580,189.5C 579.892,196.911 579.225,204.245 578,211.5C 574.613,213.318 572.613,212.318 572,208.5C 571.455,199.589 574.289,191.922 580.5,185.5 Z"/></g>
<g><path style="opacity:1" fill="#cd3f40" d="M 607.5,185.5 C 607.334,191.771 607.667,198.271 608.5,205C 609.397,211.454 607.23,212.954 602,209.5C 600.06,200.709 601.893,192.709 607.5,185.5 Z"/></g>
<g><path style="opacity:1" fill="#f27d80" d="M 585.5,152.5 C 583.924,155.055 581.757,157.055 579,158.5C 575.109,168.052 570.775,177.385 566,186.5C 565.515,192.258 564.515,197.925 563,203.5C 562.333,210.167 562.333,216.833 563,223.5C 564.892,227.058 567.725,229.558 571.5,231C 580.748,232.117 589.748,231.117 598.5,228C 602.975,226.598 606.975,224.431 610.5,221.5C 609.419,223.764 608.085,225.931 606.5,228C 602.888,229.139 599.554,230.806 596.5,233C 587.634,233.533 578.801,234.367 570,235.5C 567.914,234.582 565.747,233.915 563.5,233.5C 561.527,232.513 559.527,231.513 557.5,230.5C 556.057,227.923 554.39,225.59 552.5,223.5C 552.253,216.112 552.753,208.779 554,201.5C 555.948,194.324 558.281,187.324 561,180.5C 566.222,168.453 574.389,159.12 585.5,152.5 Z"/></g>
<g><path style="opacity:1" fill="#ea9588" d="M 42.5,252.5 C 31.9824,233.596 26.9824,213.263 27.5,191.5C 28.0071,174.082 29.5071,156.749 32,139.5C 33.3565,129.741 35.8565,120.407 39.5,111.5C 41.0093,110.141 41.676,110.641 41.5,113C 37.5005,128.171 35.1671,143.671 34.5,159.5C 33.5,159.5 32.5,159.5 31.5,159.5C 30.6668,175.494 30.5002,191.494 31,207.5C 32.39,216.235 34.0566,224.901 36,233.5C 37.9517,238.693 40.285,243.693 43,248.5C 43.765,250.066 43.5983,251.399 42.5,252.5 Z"/></g>
<g><path style="opacity:1" fill="#f37d7d" d="M 535.5,191.5 C 536.167,191.5 536.833,191.5 537.5,191.5C 541.563,191.802 545.396,192.802 549,194.5C 551.376,194.315 553.209,193.315 554.5,191.5C 554.28,194.513 552.947,196.847 550.5,198.5C 549.502,206.807 549.169,215.14 549.5,223.5C 543.516,224.297 537.516,224.963 531.5,225.5C 530.379,219.582 530.212,213.582 531,207.5C 532.69,202.212 534.19,196.879 535.5,191.5 Z"/></g>
<g><path style="opacity:1" fill="#efa4a0" d="M 566.5,145.5 C 563.096,147.374 559.763,149.541 556.5,152C 552.153,156.517 548.153,161.35 544.5,166.5C 542.519,171.128 540.019,175.461 537,179.5C 535.27,183.299 534.104,187.299 533.5,191.5C 531.871,193.858 530.705,196.524 530,199.5C 528.434,208.816 528.267,218.149 529.5,227.5C 530.706,231.038 532.706,234.038 535.5,236.5C 535.586,237.496 535.252,238.329 534.5,239C 515.855,242.338 498.521,239.004 482.5,229C 480.478,226.978 478.478,224.978 476.5,223C 476.57,222.235 476.903,221.735 477.5,221.5C 477.47,222.497 477.97,223.164 479,223.5C 482.159,223.93 484.992,225.097 487.5,227C 493.322,227.767 498.989,229.1 504.5,231C 512.716,233.158 518.882,230.658 523,223.5C 524.401,201.383 529.901,180.383 539.5,160.5C 544.924,157.91 549.257,154.077 552.5,149C 556.959,146.933 561.626,145.766 566.5,145.5 Z"/></g>
<g><path style="opacity:1" fill="#bf6a69" d="M 478.5,218.5 C 477.596,219.209 477.263,220.209 477.5,221.5C 476.903,221.735 476.57,222.235 476.5,223C 478.478,224.978 480.478,226.978 482.5,229C 498.521,239.004 515.855,242.338 534.5,239C 535.252,238.329 535.586,237.496 535.5,236.5C 544.349,236.174 553.016,236.507 561.5,237.5C 550.013,237.703 538.68,239.203 527.5,242C 507.959,244.242 490.459,239.408 475,227.5C 471.138,232.845 465.972,235.678 459.5,236C 469.791,229.268 475.958,219.768 478,207.5C 478.499,211.152 478.665,214.818 478.5,218.5 Z"/></g>
<g><path style="opacity:1" fill="#db5c6f" d="M 533.5,191.5 C 534.167,191.5 534.833,191.5 535.5,191.5C 534.19,196.879 532.69,202.212 531,207.5C 530.212,213.582 530.379,219.582 531.5,225.5C 533.449,234.655 539.115,237.988 548.5,235.5C 553.947,235.234 558.947,234.567 563.5,233.5C 565.747,233.915 567.914,234.582 570,235.5C 578.801,234.367 587.634,233.533 596.5,233C 599.554,230.806 602.888,229.139 606.5,228C 608.085,225.931 609.419,223.764 610.5,221.5C 611.885,220.426 613.051,219.093 614,217.5C 614.383,218.056 614.883,218.389 615.5,218.5C 615.5,218.833 615.5,219.167 615.5,219.5C 613.842,223.672 611.175,227.172 607.5,230C 602.407,233.056 597.073,235.223 591.5,236.5C 583.517,237.166 575.517,237.499 567.5,237.5C 565.5,237.5 563.5,237.5 561.5,237.5C 553.016,236.507 544.349,236.174 535.5,236.5C 532.706,234.038 530.706,231.038 529.5,227.5C 528.267,218.149 528.434,208.816 530,199.5C 530.705,196.524 531.871,193.858 533.5,191.5 Z"/></g>
<g><path style="opacity:1" fill="#ef676c" d="M 549.5,223.5 C 550.5,223.5 551.5,223.5 552.5,223.5C 554.39,225.59 556.057,227.923 557.5,230.5C 559.527,231.513 561.527,232.513 563.5,233.5C 558.947,234.567 553.947,235.234 548.5,235.5C 539.115,237.988 533.449,234.655 531.5,225.5C 537.516,224.963 543.516,224.297 549.5,223.5 Z"/></g>
<g><path style="opacity:1" fill="#efa6a0" d="M 361.5,223.5 C 364.456,225.396 366.456,228.062 367.5,231.5C 368.552,231.351 369.552,231.517 370.5,232C 372.31,234.519 373.977,237.019 375.5,239.5C 379.328,240.649 382.328,242.983 384.5,246.5C 392.422,253.31 401.422,258.143 411.5,261C 417.29,265.456 422.456,270.623 427,276.5C 427.483,277.448 427.649,278.448 427.5,279.5C 428.822,279.33 429.989,279.663 431,280.5C 431.1,283.437 431.933,286.104 433.5,288.5C 432.689,289.216 432.022,290.05 431.5,291C 432.167,292.333 432.833,293.667 433.5,295C 432.767,297.835 432.1,300.668 431.5,303.5C 430.07,303.421 428.736,303.754 427.5,304.5C 424.791,307.117 421.791,309.283 418.5,311C 412.718,312.369 407.385,314.703 402.5,318C 402.833,318.333 403.167,318.667 403.5,319C 400.065,321.221 396.399,323.221 392.5,325C 373.202,332.998 353.369,339.498 333,344.5C 332.333,343.167 332.333,341.833 333,340.5C 335.934,335.966 338.267,331.3 340,326.5C 335.96,331.929 332.46,337.595 329.5,343.5C 329.08,341.906 328.414,340.406 327.5,339C 328.272,337.779 329.272,336.779 330.5,336C 329.24,334.186 329.24,332.353 330.5,330.5C 332.134,330.032 333.3,329.032 334,327.5C 334.333,327.833 334.667,328.167 335,328.5C 334.734,325.099 336.234,323.433 339.5,323.5C 339.337,321.143 339.503,318.81 340,316.5C 343.472,312.887 345.305,308.553 345.5,303.5C 347.314,300.062 349.314,296.729 351.5,293.5C 352.325,292.614 353.325,292.281 354.5,292.5C 352.436,301.532 350.436,310.532 348.5,319.5C 349.5,319.5 350.5,319.5 351.5,319.5C 350.909,313.338 353.575,310.504 359.5,311C 358.742,309.636 359.242,308.469 361,307.5C 361.217,304.512 362.217,301.845 364,299.5C 365,299.5 366,299.5 367,299.5C 368.667,297.833 370.333,296.167 372,294.5C 373.256,287.838 375.589,281.505 379,275.5C 379.5,268.842 379.666,262.175 379.5,255.5C 378.167,255.5 376.833,255.5 375.5,255.5C 372.827,250.133 370.661,244.466 369,238.5C 366.572,235.763 364.572,232.763 363,229.5C 362.495,227.482 361.995,225.482 361.5,223.5 Z"/></g>
<g><path style="opacity:1" fill="#fdd7e0" d="M 591.5,236.5 C 583.903,238.467 575.903,239.134 567.5,238.5C 567.5,238.167 567.5,237.833 567.5,237.5C 575.517,237.499 583.517,237.166 591.5,236.5 Z"/></g>
<g><path style="opacity:1" fill="#ea9489" d="M 424.5,28.5 C 426.698,29.1653 429.031,29.8319 431.5,30.5C 430.311,31.4287 428.978,31.762 427.5,31.5C 427.343,32.8734 427.51,34.2068 428,35.5C 430.172,39.3709 432.339,43.2043 434.5,47C 439.126,59.066 440.626,71.566 439,84.5C 437.941,87.6179 436.608,90.6179 435,93.5C 432.502,94.5982 430.002,94.4316 427.5,93C 419.799,88.6106 412.132,84.2773 404.5,80C 402.866,79.5065 401.199,79.3398 399.5,79.5C 399.5,78.5 399.5,77.5 399.5,76.5C 396.336,74.5908 393.003,72.7575 389.5,71C 387.442,67.6032 384.442,65.9366 380.5,66C 378.044,64.3831 375.544,62.8831 373,61.5C 372.617,62.056 372.117,62.3893 371.5,62.5C 371.423,61.2502 370.756,60.4169 369.5,60C 367.833,59.8333 366.167,59.6667 364.5,59.5C 361.989,59.288 359.822,59.9546 358,61.5C 355.234,70.0537 353.067,78.7204 351.5,87.5C 350.359,92.4195 348.526,97.0862 346,101.5C 338.588,137.771 345.254,171.105 366,201.5C 367.128,203.345 367.628,205.345 367.5,207.5C 368.675,207.281 369.675,207.614 370.5,208.5C 391.151,237.988 418.817,257.488 453.5,267C 472.858,268.99 492.191,268.656 511.5,266C 524.359,263.55 536.359,259.05 547.5,252.5C 548.386,253.325 548.719,254.325 548.5,255.5C 521.957,268.93 493.624,274.43 463.5,272C 455.916,282.587 447.25,292.253 437.5,301C 435.783,302.559 433.783,303.392 431.5,303.5C 432.1,300.668 432.767,297.835 433.5,295C 432.833,293.667 432.167,292.333 431.5,291C 432.022,290.05 432.689,289.216 433.5,288.5C 431.933,286.104 431.1,283.437 431,280.5C 429.989,279.663 428.822,279.33 427.5,279.5C 427.649,278.448 427.483,277.448 427,276.5C 422.456,270.623 417.29,265.456 411.5,261C 401.422,258.143 392.422,253.31 384.5,246.5C 382.328,242.983 379.328,240.649 375.5,239.5C 373.977,237.019 372.31,234.519 370.5,232C 369.552,231.517 368.552,231.351 367.5,231.5C 366.456,228.062 364.456,225.396 361.5,223.5C 359.911,221.085 357.744,219.085 355,217.5C 352.569,214.583 351.402,211.25 351.5,207.5C 350.5,207.5 349.5,207.5 348.5,207.5C 348.908,204.401 347.741,202.067 345,200.5C 342.589,196.275 340.756,191.775 339.5,187C 338.991,185.831 338.158,184.998 337,184.5C 334.71,175.966 332.043,167.633 329,159.5C 328.333,143.833 328.333,128.167 329,112.5C 332.004,98.0666 334.837,84.8999 337.5,73C 336.532,68.8836 335.699,64.717 335,60.5C 334.333,59.8333 333.667,59.1667 333,58.5C 332.333,52.8333 332.333,47.1667 333,41.5C 334.812,38.7198 336.979,36.2198 339.5,34C 337.616,33.7837 335.949,33.117 334.5,32C 326.833,31.6667 319.167,31.3333 311.5,31C 317.491,30.5005 323.491,30.3338 329.5,30.5C 334.813,31.0978 340.146,31.4312 345.5,31.5C 347.199,31.3398 348.866,31.5065 350.5,32C 344.484,32.8715 339.65,35.7048 336,40.5C 334.581,56.7435 338.747,71.4102 348.5,84.5C 350.27,78.2871 351.437,71.9538 352,65.5C 352.333,65.8333 352.667,66.1667 353,66.5C 356.989,58.4028 355.489,57.4028 348.5,63.5C 348.167,63.1667 347.833,62.8333 347.5,62.5C 350.935,57.7983 355.602,55.7983 361.5,56.5C 367.959,57.3915 374.292,58.8915 380.5,61C 396.114,71.4814 412.114,81.4814 428.5,91C 430.259,91.7975 431.926,91.6309 433.5,90.5C 439.272,75.8524 438.605,61.519 431.5,47.5C 428.957,40.7465 425.623,34.4132 421.5,28.5C 420.675,27.6143 419.675,27.281 418.5,27.5C 418.649,26.448 418.483,25.448 418,24.5C 414.812,20.3153 411.312,16.4819 407.5,13C 404.904,11.8644 402.237,11.031 399.5,10.5C 393.077,9.21376 386.911,10.2138 381,13.5C 380.51,14.7932 380.343,16.1266 380.5,17.5C 379.127,17.3433 377.793,17.51 376.5,18C 375.183,19.6591 373.517,20.8257 371.5,21.5C 370.702,21.0431 370.369,20.3764 370.5,19.5C 375.237,14.953 380.57,11.1197 386.5,8C 390.741,6.54268 395.074,6.20935 399.5,7C 404.662,8.83441 409.328,11.5011 413.5,15C 417.409,19.3986 421.076,23.8986 424.5,28.5 Z"/></g>
<g><path style="opacity:1" fill="#e77a8a" d="M 371.5,62.5 C 370.432,63.4345 369.099,63.7678 367.5,63.5C 367.649,64.552 367.483,65.552 367,66.5C 361.198,73.12 356.032,80.12 351.5,87.5C 353.067,78.7204 355.234,70.0537 358,61.5C 359.822,59.9546 361.989,59.288 364.5,59.5C 366.167,59.6667 367.833,59.8333 369.5,60C 370.756,60.4169 371.423,61.2502 371.5,62.5 Z"/></g>
<g><path style="opacity:1" fill="#efa79f" d="M 295.5,27.5 C 307.076,27.3689 318.41,28.3689 329.5,30.5C 323.491,30.3338 317.491,30.5005 311.5,31C 319.167,31.3333 326.833,31.6667 334.5,32C 335.949,33.117 337.616,33.7837 339.5,34C 336.979,36.2198 334.812,38.7198 333,41.5C 332.333,47.1667 332.333,52.8333 333,58.5C 333.667,59.1667 334.333,59.8333 335,60.5C 335.699,64.717 336.532,68.8836 337.5,73C 334.837,84.8999 332.004,98.0666 329,112.5C 328.333,128.167 328.333,143.833 329,159.5C 332.043,167.633 334.71,175.966 337,184.5C 338.158,184.998 338.991,185.831 339.5,187C 340.756,191.775 342.589,196.275 345,200.5C 347.741,202.067 348.908,204.401 348.5,207.5C 345.898,206.068 343.731,204.068 342,201.5C 338.915,196.328 335.581,191.328 332,186.5C 321.378,167.368 318.378,147.035 323,125.5C 326.204,109.381 328.37,93.0475 329.5,76.5C 329.387,71.933 328.387,67.5996 326.5,63.5C 324.259,61.7609 322.592,59.5942 321.5,57C 317.941,55.7723 314.608,54.1056 311.5,52C 274.944,41.1441 237.61,37.1441 199.5,40C 170.266,42.1346 142.933,50.1346 117.5,64C 114.847,65.655 112.514,67.655 110.5,70C 108.608,70.9734 106.608,71.6401 104.5,72C 102.022,76.4804 98.3552,79.4804 93.5,81C 89.5423,85.3035 85.209,89.1369 80.5,92.5C 77.9103,97.2589 74.4103,101.259 70,104.5C 68.7022,107.854 66.5356,110.188 63.5,111.5C 63.6602,113.199 63.4935,114.866 63,116.5C 57.1499,124.862 52.3166,133.862 48.5,143.5C 43.2419,165.663 42.4086,187.997 46,210.5C 51,223.833 56,237.167 61,250.5C 70.6298,265.232 79.7965,280.232 88.5,295.5C 93.4981,299.664 95.9981,304.997 96,311.5C 101.335,316.91 102.002,322.91 98,329.5C 92.9747,333.862 87.9747,338.196 83,342.5C 81.1085,349.817 81.1085,357.151 83,364.5C 85.8286,376.161 88.6619,387.827 91.5,399.5C 93.9088,404.569 96.4088,409.569 99,414.5C 102.275,418.71 106.608,421.043 112,421.5C 112.283,418.258 113.117,417.924 114.5,420.5C 116.607,417.945 117.94,414.945 118.5,411.5C 115.014,397.051 113.681,382.384 114.5,367.5C 116.102,360.712 117.269,353.712 118,346.5C 119.333,345.833 120.333,344.833 121,343.5C 121.333,340.833 121.667,338.167 122,335.5C 126.788,324.591 132.622,314.258 139.5,304.5C 140.689,303.571 142.022,303.238 143.5,303.5C 143.201,301.396 143.534,299.396 144.5,297.5C 150.009,289.805 155.509,282.139 161,274.5C 164.934,264.363 168.268,254.03 171,243.5C 171.718,259.989 169.552,276.322 164.5,292.5C 164.709,293.086 165.043,293.586 165.5,294C 176.687,299.216 188.521,301.382 201,300.5C 215.096,302.671 226.429,298.337 235,287.5C 237.954,275.731 241.288,264.065 245,252.5C 247.998,248.841 249.332,244.841 249,240.5C 256.559,230.404 263.892,220.071 271,209.5C 269.644,216.918 267.644,224.251 265,231.5C 259.384,259.274 258.217,287.274 261.5,315.5C 264.916,332.915 268.583,350.248 272.5,367.5C 274.942,367.119 275.609,367.786 274.5,369.5C 279.064,380.088 282.231,391.088 284,402.5C 285.189,404.233 286.356,405.9 287.5,407.5C 287.447,411.333 286.947,414.999 286,418.5C 291.643,420.609 296.143,424.609 299.5,430.5C 298.624,431.251 297.624,431.751 296.5,432C 299.008,433.819 301.841,434.653 305,434.5C 309.811,433.802 314.644,433.469 319.5,433.5C 319.5,429.5 319.5,425.5 319.5,421.5C 320.328,427.319 320.828,433.319 321,439.5C 321.671,440.252 322.504,440.586 323.5,440.5C 322.432,441.434 321.099,441.768 319.5,441.5C 319.53,440.503 319.03,439.836 318,439.5C 309.202,440.625 300.369,440.792 291.5,440C 290.062,439.781 288.729,439.281 287.5,438.5C 282.301,430.33 278.301,421.663 275.5,412.5C 274.548,414.045 274.215,415.712 274.5,417.5C 272.415,415.316 271.415,412.649 271.5,409.5C 272.665,408.504 273.332,407.171 273.5,405.5C 270.031,393.22 265.864,381.22 261,369.5C 260.531,363.322 259.364,357.322 257.5,351.5C 256.5,351.5 255.5,351.5 254.5,351.5C 252.354,343.894 249.687,336.56 246.5,329.5C 241.845,313.11 240.345,296.444 242,279.5C 240.692,282.73 239.692,286.064 239,289.5C 238.333,296.833 238.333,304.167 239,311.5C 241.074,317.888 243.24,324.221 245.5,330.5C 246.508,333.844 247.508,337.177 248.5,340.5C 225.821,338.999 203.155,337.166 180.5,335C 169.589,332.966 158.922,330.299 148.5,327C 145.884,326.104 143.55,324.77 141.5,323C 143.589,317.322 146.089,311.822 149,306.5C 149.667,305.5 149.667,304.5 149,303.5C 142.991,314.862 136.491,325.862 129.5,336.5C 121.02,356.67 118.186,377.67 121,399.5C 121.84,405.859 122.84,412.192 124,418.5C 124.234,412.167 124.068,405.834 123.5,399.5C 124.824,407.383 126.157,415.383 127.5,423.5C 126.839,422.282 126.172,420.949 125.5,419.5C 125.167,420.667 124.833,421.833 124.5,423C 125.031,425.817 125.364,428.65 125.5,431.5C 115.459,432.831 105.459,432.497 95.5,430.5C 93.8513,429.352 92.3513,428.019 91,426.5C 87.1036,419.263 84.2703,411.597 82.5,403.5C 81.675,402.614 80.675,402.281 79.5,402.5C 78.1476,396.754 75.8142,391.421 72.5,386.5C 71.7025,386.957 71.3691,387.624 71.5,388.5C 70.596,387.791 70.2627,386.791 70.5,385.5C 71.1471,384.726 71.4805,383.726 71.5,382.5C 70.4041,379.044 69.4041,375.544 68.5,372C 68.6448,370.774 68.9781,369.607 69.5,368.5C 68.7261,367.289 67.8928,367.289 67,368.5C 64.1433,360.518 65.1433,353.185 70,346.5C 77.0178,342.005 80.8511,335.672 81.5,327.5C 81.4783,324.41 80.8117,321.743 79.5,319.5C 79.6989,316.059 79.1989,312.726 78,309.5C 65.6496,292.45 55.1496,274.45 46.5,255.5C 45.8076,254.975 45.3076,254.308 45,253.5C 44.51,254.793 44.3433,256.127 44.5,257.5C 43.6908,255.972 43.0241,254.306 42.5,252.5C 43.5983,251.399 43.765,250.066 43,248.5C 40.285,243.693 37.9517,238.693 36,233.5C 34.0566,224.901 32.39,216.235 31,207.5C 30.5002,191.494 30.6668,175.494 31.5,159.5C 32.5,159.5 33.5,159.5 34.5,159.5C 35.1671,143.671 37.5005,128.171 41.5,113C 41.676,110.641 41.0093,110.141 39.5,111.5C 39.4021,109.447 40.0687,107.78 41.5,106.5C 41.281,107.675 41.6143,108.675 42.5,109.5C 48.3117,97.1659 55.9784,85.9993 65.5,76C 65.1639,74.9701 64.4972,74.4701 63.5,74.5C 64.2905,73.5987 65.2905,72.9321 66.5,72.5C 66.3691,73.3764 66.7025,74.0431 67.5,74.5C 70.8333,71.5 74.1667,68.5 77.5,65.5C 79.2141,66.6085 79.8808,65.9418 79.5,63.5C 80.8734,63.6567 82.2068,63.49 83.5,63C 82.3044,62.3457 82.3044,61.8457 83.5,61.5C 87.0047,62.6864 89.0047,61.353 89.5,57.5C 90.5,57.5 91.5,57.5 92.5,57.5C 92.5,56.5 92.5,55.5 92.5,54.5C 94.604,54.7989 96.604,54.4656 98.5,53.5C 99.3751,51.2275 101.042,50.2275 103.5,50.5C 103.5,49.5 103.5,48.5 103.5,47.5C 107.184,48.0291 110.35,47.0291 113,44.5C 123.76,40.4044 134.927,38.2378 146.5,38C 146.957,37.586 147.291,37.086 147.5,36.5C 159.401,34.1151 171.401,32.4484 183.5,31.5C 220.82,29.5002 258.153,29.1669 295.5,30.5C 298.167,30.1667 300.833,29.8333 303.5,29.5C 300.694,28.8324 298.028,28.1657 295.5,27.5 Z"/></g>
<g><path style="opacity:1" fill="#f7ccc5" d="M 147.5,60.5 C 149.199,60.3398 150.866,60.5065 152.5,61C 142.131,67.8505 131.464,74.1838 120.5,80C 116.956,83.375 113.623,86.875 110.5,90.5C 105.48,93.6814 100.814,97.3481 96.5,101.5C 90.1493,108.904 83.816,116.237 77.5,123.5C 70.816,133.512 64.1494,143.512 57.5,153.5C 58.3083,147.455 60.1417,141.455 63,135.5C 63.4974,132.854 63.6641,130.187 63.5,127.5C 64.9778,127.762 66.3112,127.429 67.5,126.5C 69.4947,121.84 71.9947,117.506 75,113.5C 76.1096,111.963 77.6096,111.297 79.5,111.5C 79.238,110.022 79.5713,108.689 80.5,107.5C 84.3716,104.129 87.7049,100.296 90.5,96C 92.1341,95.5065 93.8008,95.3398 95.5,95.5C 95.3433,94.1266 95.51,92.7932 96,91.5C 100.616,88.2013 105.45,85.2013 110.5,82.5C 111.386,81.675 111.719,80.675 111.5,79.5C 123.06,72.4177 135.06,66.0844 147.5,60.5 Z"/></g>
<g><path style="opacity:1" fill="#bc6866" d="M 246.5,329.5 C 246.5,330.167 246.167,330.5 245.5,330.5C 243.24,324.221 241.074,317.888 239,311.5C 238.333,304.167 238.333,296.833 239,289.5C 239.692,286.064 240.692,282.73 242,279.5C 240.345,296.444 241.845,313.11 246.5,329.5 Z"/></g>
<g><path style="opacity:1" fill="#eb9085" d="M 79.5,319.5 C 74.2065,308.976 68.0398,298.976 61,289.5C 55.2352,278.921 49.7352,268.254 44.5,257.5C 44.3433,256.127 44.51,254.793 45,253.5C 45.3076,254.308 45.8076,254.975 46.5,255.5C 55.1496,274.45 65.6496,292.45 78,309.5C 79.1989,312.726 79.6989,316.059 79.5,319.5 Z"/></g>
<g><path style="opacity:1" fill="#edaaa3" d="M 375.5,255.5 C 376.833,255.5 378.167,255.5 379.5,255.5C 379.666,262.175 379.5,268.842 379,275.5C 375.589,281.505 373.256,287.838 372,294.5C 370.333,296.167 368.667,297.833 367,299.5C 366,299.5 365,299.5 364,299.5C 362.217,301.845 361.217,304.512 361,307.5C 359.242,308.469 358.742,309.636 359.5,311C 353.575,310.504 350.909,313.338 351.5,319.5C 350.5,319.5 349.5,319.5 348.5,319.5C 350.436,310.532 352.436,301.532 354.5,292.5C 353.325,292.281 352.325,292.614 351.5,293.5C 349.314,296.729 347.314,300.062 345.5,303.5C 345.305,308.553 343.472,312.887 340,316.5C 339.503,318.81 339.337,321.143 339.5,323.5C 336.234,323.433 334.734,325.099 335,328.5C 334.667,328.167 334.333,327.833 334,327.5C 333.3,329.032 332.134,330.032 330.5,330.5C 329.24,332.353 329.24,334.186 330.5,336C 329.272,336.779 328.272,337.779 327.5,339C 328.414,340.406 329.08,341.906 329.5,343.5C 328.19,345.148 326.857,346.814 325.5,348.5C 324.828,352.839 323.328,356.839 321,360.5C 320.173,364.541 320.34,368.541 321.5,372.5C 322.615,368.737 323.615,365.07 324.5,361.5C 322.735,379.441 322.068,397.441 322.5,415.5C 321.833,402.309 321,388.976 320,375.5C 319.5,390.83 319.333,406.163 319.5,421.5C 319.5,425.5 319.5,429.5 319.5,433.5C 314.644,433.469 309.811,433.802 305,434.5C 301.841,434.653 299.008,433.819 296.5,432C 297.624,431.751 298.624,431.251 299.5,430.5C 296.143,424.609 291.643,420.609 286,418.5C 286.947,414.999 287.447,411.333 287.5,407.5C 289.369,411.566 291.536,415.566 294,419.5C 298.178,424.852 303.344,428.852 309.5,431.5C 314.797,428.937 317.63,424.603 318,418.5C 318.333,401.5 318.667,384.5 319,367.5C 319.417,359.597 321.25,352.097 324.5,345C 323.704,343.908 323.037,342.741 322.5,341.5C 324.115,339.078 325.781,336.578 327.5,334C 335.578,315.674 345.078,298.174 356,281.5C 356.667,280.833 357.333,280.167 358,279.5C 357.865,288.214 356.365,296.714 353.5,305C 353.833,305.5 354.167,306 354.5,306.5C 359.13,302.702 363.297,298.368 367,293.5C 368.207,291.56 368.374,289.727 367.5,288C 368.793,287.51 370.127,287.343 371.5,287.5C 374.787,277.105 376.12,266.438 375.5,255.5 Z"/></g>
<g><path style="opacity:1" fill="#ea9287" d="M 431.5,303.5 C 427.427,307.818 422.927,311.818 418,315.5C 414.669,322.006 411.835,328.673 409.5,335.5C 408.624,335.631 407.957,335.298 407.5,334.5C 408.191,331.185 409.191,328.019 410.5,325C 410.167,324.167 409.833,323.333 409.5,322.5C 400.887,326.145 392.22,329.479 383.5,332.5C 383.5,333.5 383.5,334.5 383.5,335.5C 381.143,335.337 378.81,335.503 376.5,336C 374.299,338.463 371.633,340.297 368.5,341.5C 367.749,342.376 367.249,343.376 367,344.5C 361.412,344.762 356.245,346.762 351.5,350.5C 349.955,351.452 348.288,351.785 346.5,351.5C 346.649,352.552 346.483,353.552 346,354.5C 345,354.833 344,355.167 343,355.5C 342.51,356.793 342.343,358.127 342.5,359.5C 341.5,359.5 340.5,359.5 339.5,359.5C 338.833,355.167 338.167,350.833 337.5,346.5C 334.881,346.232 332.381,346.565 330,347.5C 327.474,351.914 325.641,356.58 324.5,361.5C 323.615,365.07 322.615,368.737 321.5,372.5C 320.34,368.541 320.173,364.541 321,360.5C 323.328,356.839 324.828,352.839 325.5,348.5C 326.857,346.814 328.19,345.148 329.5,343.5C 332.46,337.595 335.96,331.929 340,326.5C 338.267,331.3 335.934,335.966 333,340.5C 332.333,341.833 332.333,343.167 333,344.5C 353.369,339.498 373.202,332.998 392.5,325C 396.399,323.221 400.065,321.221 403.5,319C 403.167,318.667 402.833,318.333 402.5,318C 407.385,314.703 412.718,312.369 418.5,311C 421.791,309.283 424.791,307.117 427.5,304.5C 428.736,303.754 430.07,303.421 431.5,303.5 Z"/></g>
<g><path style="opacity:1" fill="#e78e84" d="M 245.5,330.5 C 246.167,330.5 246.5,330.167 246.5,329.5C 249.687,336.56 252.354,343.894 254.5,351.5C 255.5,351.5 256.5,351.5 257.5,351.5C 259.364,357.322 260.531,363.322 261,369.5C 265.864,381.22 270.031,393.22 273.5,405.5C 273.332,407.171 272.665,408.504 271.5,409.5C 264.186,387.176 256.853,364.843 249.5,342.5C 237.127,342.449 224.794,341.783 212.5,340.5C 206.419,338.588 200.086,338.088 193.5,339C 192.282,340.416 190.949,340.249 189.5,338.5C 175.539,336.886 161.873,333.886 148.5,329.5C 145.523,330.477 143.523,332.477 142.5,335.5C 141.702,335.043 141.369,334.376 141.5,333.5C 141.92,331.906 142.586,330.406 143.5,329C 141.522,326.003 139.355,325.836 137,328.5C 132.708,335.745 129.541,343.412 127.5,351.5C 125.697,356.642 124.197,361.975 123,367.5C 122.177,376.01 122.343,384.344 123.5,392.5C 123.5,394.833 123.5,397.167 123.5,399.5C 124.068,405.834 124.234,412.167 124,418.5C 122.84,412.192 121.84,405.859 121,399.5C 118.186,377.67 121.02,356.67 129.5,336.5C 136.491,325.862 142.991,314.862 149,303.5C 149.667,304.5 149.667,305.5 149,306.5C 146.089,311.822 143.589,317.322 141.5,323C 143.55,324.77 145.884,326.104 148.5,327C 158.922,330.299 169.589,332.966 180.5,335C 203.155,337.166 225.821,338.999 248.5,340.5C 247.508,337.177 246.508,333.844 245.5,330.5 Z"/></g>
<g><path style="opacity:1" fill="#efa59d" d="M 212.5,340.5 C 206.491,340.299 200.491,339.966 194.5,339.5C 186.439,358.727 184.273,378.727 188,399.5C 190.361,406.763 193.194,413.763 196.5,420.5C 188.816,423.417 180.816,424.75 172.5,424.5C 167.898,423.911 163.731,422.244 160,419.5C 159.601,419.728 159.435,420.062 159.5,420.5C 158.549,419.081 158.216,417.415 158.5,415.5C 159.629,413.372 159.796,411.039 159,408.5C 157.667,406.5 156.333,404.5 155,402.5C 153.315,396.088 151.482,389.755 149.5,383.5C 148.5,383.5 147.5,383.5 146.5,383.5C 144.239,376.305 141.406,369.305 138,362.5C 136.241,357.283 135.574,351.949 136,346.5C 138.393,344.318 139.393,341.651 139,338.5C 138.26,340.319 137.093,341.652 135.5,342.5C 136.723,338.951 138.723,335.951 141.5,333.5C 141.369,334.376 141.702,335.043 142.5,335.5C 143.523,332.477 145.523,330.477 148.5,329.5C 161.873,333.886 175.539,336.886 189.5,338.5C 190.949,340.249 192.282,340.416 193.5,339C 200.086,338.088 206.419,338.588 212.5,340.5 Z"/></g>
<g><path style="opacity:1" fill="#efa79e" d="M 409.5,335.5 C 400.409,363.678 398.409,392.344 403.5,421.5C 402.778,421.082 402.278,420.416 402,419.5C 401.51,420.793 401.343,422.127 401.5,423.5C 400.732,422.737 400.232,421.737 400,420.5C 398.839,411.86 398.006,403.193 397.5,394.5C 398.722,382.505 399.722,370.505 400.5,358.5C 400.198,355.941 400.532,353.607 401.5,351.5C 404.162,345.225 405.828,338.558 406.5,331.5C 404.409,331.682 402.409,331.348 400.5,330.5C 399.548,332.045 399.215,333.712 399.5,335.5C 381.559,343.636 371.059,357.636 368,377.5C 367.169,384.856 367.335,392.189 368.5,399.5C 371.398,410.361 374.731,421.028 378.5,431.5C 375.63,431.752 373.297,430.752 371.5,428.5C 370.114,425.225 368.28,422.225 366,419.5C 365.503,417.19 365.337,414.857 365.5,412.5C 362.234,412.567 360.734,410.901 361,407.5C 360,406.833 359,406.167 358,405.5C 357.226,401.853 356.559,398.186 356,394.5C 348.744,385.075 344.411,374.409 343,362.5C 342.667,362.167 342.333,361.833 342,361.5C 341.505,363.473 341.338,365.473 341.5,367.5C 340.232,365.095 339.565,362.428 339.5,359.5C 340.5,359.5 341.5,359.5 342.5,359.5C 342.343,358.127 342.51,356.793 343,355.5C 344,355.167 345,354.833 346,354.5C 346.483,353.552 346.649,352.552 346.5,351.5C 348.288,351.785 349.955,351.452 351.5,350.5C 356.245,346.762 361.412,344.762 367,344.5C 367.249,343.376 367.749,342.376 368.5,341.5C 371.633,340.297 374.299,338.463 376.5,336C 378.81,335.503 381.143,335.337 383.5,335.5C 383.5,334.5 383.5,333.5 383.5,332.5C 392.22,329.479 400.887,326.145 409.5,322.5C 409.833,323.333 410.167,324.167 410.5,325C 409.191,328.019 408.191,331.185 407.5,334.5C 407.957,335.298 408.624,335.631 409.5,335.5 Z"/></g>
<g><path style="opacity:1" fill="#f4bab3" d="M 401.5,351.5 C 401.813,348.753 401.48,346.086 400.5,343.5C 391.782,357.566 388.615,372.9 391,389.5C 391.389,395.721 392.722,401.721 395,407.5C 395.333,394.167 395.667,380.833 396,367.5C 396.511,365.122 397.178,362.788 398,360.5C 398.417,359.244 399.25,358.577 400.5,358.5C 399.722,370.505 398.722,382.505 397.5,394.5C 398.006,403.193 398.839,411.86 400,420.5C 400.232,421.737 400.732,422.737 401.5,423.5C 401.38,425.734 401.713,427.901 402.5,430C 402.18,431.653 401.18,432.653 399.5,433C 392.847,434.474 386.181,434.641 379.5,433.5C 379.137,432.817 378.804,432.15 378.5,431.5C 374.731,421.028 371.398,410.361 368.5,399.5C 367.335,392.189 367.169,384.856 368,377.5C 371.059,357.636 381.559,343.636 399.5,335.5C 399.215,333.712 399.548,332.045 400.5,330.5C 402.409,331.348 404.409,331.682 406.5,331.5C 405.828,338.558 404.162,345.225 401.5,351.5 Z"/></g>
<g><path style="opacity:1" fill="#f4bab3" d="M 170.5,343.5 C 176.857,343.476 183.19,343.81 189.5,344.5C 188.103,349.433 186.603,354.433 185,359.5C 183,372.833 183,386.167 185,399.5C 188.682,406.044 190.848,413.044 191.5,420.5C 184.857,421.212 178.191,421.546 171.5,421.5C 171.543,418.09 171.043,414.757 170,411.5C 159.094,395.455 154.094,377.789 155,358.5C 158.139,351.19 163.306,346.19 170.5,343.5 Z"/></g>
<g><path style="opacity:1" fill="#f8cbc5" d="M 328.5,306.5 C 329.675,306.281 330.675,306.614 331.5,307.5C 323.278,329.929 317.444,352.929 314,376.5C 312.371,369 312.038,361.333 313,353.5C 314.95,342.017 317.45,330.683 320.5,319.5C 323.943,315.608 326.61,311.274 328.5,306.5 Z"/></g>
<g><path style="opacity:1" fill="#f7cbc4" d="M 401.5,351.5 C 400.532,353.607 400.198,355.941 400.5,358.5C 399.25,358.577 398.417,359.244 398,360.5C 397.178,362.788 396.511,365.122 396,367.5C 395.667,380.833 395.333,394.167 395,407.5C 392.722,401.721 391.389,395.721 391,389.5C 388.615,372.9 391.782,357.566 400.5,343.5C 401.48,346.086 401.813,348.753 401.5,351.5 Z"/></g>
<g><path style="opacity:1" fill="#f7c8c1" d="M 114.5,367.5 C 113.67,375.349 112.837,383.349 112,391.5C 105.81,363.076 110.81,337.076 127,313.5C 127.667,314.833 127.667,316.167 127,317.5C 118.465,332.974 114.298,349.64 114.5,367.5 Z"/></g>
<g><path style="opacity:1" fill="#eb978a" d="M 79.5,319.5 C 80.8117,321.743 81.4783,324.41 81.5,327.5C 80.8511,335.672 77.0178,342.005 70,346.5C 65.1433,353.185 64.1433,360.518 67,368.5C 67.8928,367.289 68.7261,367.289 69.5,368.5C 68.9781,369.607 68.6448,370.774 68.5,372C 69.4041,375.544 70.4041,379.044 71.5,382.5C 71.4805,383.726 71.1471,384.726 70.5,385.5C 68.8469,380.06 66.6803,374.726 64,369.5C 60.8429,362.135 60.8429,354.801 64,347.5C 70.7466,343.755 75.7466,338.422 79,331.5C 79.4988,327.514 79.6655,323.514 79.5,319.5 Z"/></g>
<g><path style="opacity:1" fill="#fde4df" d="M 127.5,351.5 C 126.26,356.841 126.26,362.174 127.5,367.5C 126.5,367.5 125.5,367.5 124.5,367.5C 123.593,375.792 123.26,384.125 123.5,392.5C 122.343,384.344 122.177,376.01 123,367.5C 124.197,361.975 125.697,356.642 127.5,351.5 Z"/></g>
<g><path style="opacity:1" fill="#f5ccc4" d="M 182.5,353.5 C 183.161,355.134 183.494,356.967 183.5,359C 183.118,369.65 182.285,380.15 181,390.5C 175.991,377.855 176.491,365.522 182.5,353.5 Z"/></g>
<g><path style="opacity:1" fill="#eb9589" d="M 158.5,415.5 C 157.503,415.53 156.836,415.03 156.5,414C 148.793,394.756 140.96,375.59 133,356.5C 131.911,351.444 132.744,346.778 135.5,342.5C 137.093,341.652 138.26,340.319 139,338.5C 139.393,341.651 138.393,344.318 136,346.5C 135.574,351.949 136.241,357.283 138,362.5C 141.406,369.305 144.239,376.305 146.5,383.5C 147.5,383.5 148.5,383.5 149.5,383.5C 151.482,389.755 153.315,396.088 155,402.5C 156.333,404.5 157.667,406.5 159,408.5C 159.796,411.039 159.629,413.372 158.5,415.5 Z"/></g>
<g><path style="opacity:1" fill="#e6928a" d="M 127.5,423.5 C 127.5,426.167 127.5,428.833 127.5,431.5C 120.828,435.603 113.495,437.269 105.5,436.5C 100.04,436.02 95.207,434.02 91,430.5C 90.6012,430.728 90.4346,431.062 90.5,431.5C 83.7629,417.403 77.4295,403.069 71.5,388.5C 71.3691,387.624 71.7025,386.957 72.5,386.5C 75.8142,391.421 78.1476,396.754 79.5,402.5C 80.675,402.281 81.675,402.614 82.5,403.5C 84.2703,411.597 87.1036,419.263 91,426.5C 92.3513,428.019 93.8513,429.352 95.5,430.5C 105.459,432.497 115.459,432.831 125.5,431.5C 125.364,428.65 125.031,425.817 124.5,423C 124.833,421.833 125.167,420.667 125.5,419.5C 126.172,420.949 126.839,422.282 127.5,423.5 Z"/></g>
<g><path style="opacity:1" fill="#eb9b8e" d="M 378.5,431.5 C 378.804,432.15 379.137,432.817 379.5,433.5C 386.181,434.641 392.847,434.474 399.5,433C 401.18,432.653 402.18,431.653 402.5,430C 401.713,427.901 401.38,425.734 401.5,423.5C 401.343,422.127 401.51,420.793 402,419.5C 402.278,420.416 402.778,421.082 403.5,421.5C 403.868,425.097 404.868,428.431 406.5,431.5C 405.662,431.842 405.328,432.508 405.5,433.5C 397.419,436.268 389.086,437.602 380.5,437.5C 377.119,437.54 373.786,437.207 370.5,436.5C 357.528,414.926 347.861,391.926 341.5,367.5C 341.338,365.473 341.505,363.473 342,361.5C 342.333,361.833 342.667,362.167 343,362.5C 344.411,374.409 348.744,385.075 356,394.5C 356.559,398.186 357.226,401.853 358,405.5C 359,406.167 360,406.833 361,407.5C 360.734,410.901 362.234,412.567 365.5,412.5C 365.337,414.857 365.503,417.19 366,419.5C 368.28,422.225 370.114,425.225 371.5,428.5C 373.297,430.752 375.63,431.752 378.5,431.5 Z"/></g>
<g><path style="opacity:1" fill="#e99083" d="M 322.5,415.5 C 323.185,423.816 323.518,432.149 323.5,440.5C 322.504,440.586 321.671,440.252 321,439.5C 320.828,433.319 320.328,427.319 319.5,421.5C 319.333,406.163 319.5,390.83 320,375.5C 321,388.976 321.833,402.309 322.5,415.5 Z"/></g>
<g><path style="opacity:1" fill="#e59185" d="M 319.5,441.5 C 312.531,444.102 305.198,445.102 297.5,444.5C 294.687,444.452 292.021,443.785 289.5,442.5C 288.893,442.624 288.56,442.957 288.5,443.5C 281.768,436.042 277.102,427.375 274.5,417.5C 274.215,415.712 274.548,414.045 275.5,412.5C 278.301,421.663 282.301,430.33 287.5,438.5C 288.729,439.281 290.062,439.781 291.5,440C 300.369,440.792 309.202,440.625 318,439.5C 319.03,439.836 319.53,440.503 319.5,441.5 Z"/></g>
<g><path style="opacity:1" fill="#6d524f" d="M 196.5,420.5 C 197.167,420.5 197.5,420.833 197.5,421.5C 196.957,421.56 196.624,421.893 196.5,422.5C 198.87,425.052 200.203,428.052 200.5,431.5C 204.252,432.306 205.252,434.472 203.5,438C 201.741,438.798 200.074,438.631 198.5,437.5C 196.144,434.978 193.977,432.312 192,429.5C 191.571,431.669 192.071,433.669 193.5,435.5C 193.023,436.478 192.357,437.311 191.5,438C 188.5,438.667 185.5,438.667 182.5,438C 178.927,434.752 175.093,431.919 171,429.5C 170.387,427.505 170.887,425.838 172.5,424.5C 180.816,424.75 188.816,423.417 196.5,420.5 Z"/></g>
<g><path style="opacity:1" fill="#4f3534" d="M 172.5,424.5 C 170.887,425.838 170.387,427.505 171,429.5C 175.093,431.919 178.927,434.752 182.5,438C 185.5,438.667 188.5,438.667 191.5,438C 192.357,437.311 193.023,436.478 193.5,435.5C 192.071,433.669 191.571,431.669 192,429.5C 193.977,432.312 196.144,434.978 198.5,437.5C 200.074,438.631 201.741,438.798 203.5,438C 205.252,434.472 204.252,432.306 200.5,431.5C 200.203,428.052 198.87,425.052 196.5,422.5C 196.624,421.893 196.957,421.56 197.5,421.5C 200.82,425.463 203.654,429.796 206,434.5C 206.667,436.167 206.667,437.833 206,439.5C 203.595,440.274 201.095,440.774 198.5,441C 197.833,441.667 197.167,442.333 196.5,443C 176.737,447.138 164.404,439.638 159.5,420.5C 159.435,420.062 159.601,419.728 160,419.5C 163.731,422.244 167.898,423.911 172.5,424.5 Z"/></g>
<g><path style="opacity:1" fill="#6d534c" d="M 405.5,433.5 C 408.095,438.511 411.095,443.345 414.5,448C 412.5,448.667 410.5,448.667 408.5,448C 406.224,444.219 403.224,441.385 399.5,439.5C 400.759,442.46 402.092,445.46 403.5,448.5C 400.556,451.576 397.056,452.243 393,450.5C 387.675,446.767 382.509,442.934 377.5,439C 378.737,438.768 379.737,438.268 380.5,437.5C 389.086,437.602 397.419,436.268 405.5,433.5 Z"/></g>
<g><path style="opacity:1" fill="#6c5250" d="M 127.5,431.5 C 128.492,431.328 129.158,431.662 129.5,432.5C 128.903,432.735 128.57,433.235 128.5,434C 129.563,436.898 131.23,439.398 133.5,441.5C 134.466,443.396 134.799,445.396 134.5,447.5C 132.473,447.662 130.473,447.495 128.5,447C 126.709,444.586 125.043,442.086 123.5,439.5C 123.167,439.833 122.833,440.167 122.5,440.5C 126.946,448.891 124.613,452.057 115.5,450C 111.309,448.916 107.809,446.749 105,443.5C 103.967,440.783 104.8,438.949 107.5,438C 106.584,437.722 105.918,437.222 105.5,436.5C 113.495,437.269 120.828,435.603 127.5,431.5 Z"/></g>
<g><path style="opacity:1" fill="#6c524f" d="M 323.5,440.5 C 326.908,441.578 328.908,443.911 329.5,447.5C 329.389,448.117 329.056,448.617 328.5,449C 330.341,451.257 331.674,453.757 332.5,456.5C 329.68,456.752 327.014,456.252 324.5,455C 322.667,452.5 320.833,450 319,447.5C 320.629,451.177 321.463,455.177 321.5,459.5C 310.287,459.564 302.287,454.564 297.5,444.5C 305.198,445.102 312.531,444.102 319.5,441.5C 321.099,441.768 322.432,441.434 323.5,440.5 Z"/></g>
<g><path style="opacity:1" fill="#4c3533" d="M 406.5,431.5 C 410.539,436.244 413.539,441.577 415.5,447.5C 415.167,448.5 414.833,449.5 414.5,450.5C 403.749,455.598 392.749,455.765 381.5,451C 375.545,447.933 371.879,443.099 370.5,436.5C 373.786,437.207 377.119,437.54 380.5,437.5C 379.737,438.268 378.737,438.768 377.5,439C 382.509,442.934 387.675,446.767 393,450.5C 397.056,452.243 400.556,451.576 403.5,448.5C 402.092,445.46 400.759,442.46 399.5,439.5C 403.224,441.385 406.224,444.219 408.5,448C 410.5,448.667 412.5,448.667 414.5,448C 411.095,443.345 408.095,438.511 405.5,433.5C 405.328,432.508 405.662,431.842 406.5,431.5 Z"/></g>
<g><path style="opacity:1" fill="#493433" d="M 105.5,436.5 C 105.918,437.222 106.584,437.722 107.5,438C 104.8,438.949 103.967,440.783 105,443.5C 107.809,446.749 111.309,448.916 115.5,450C 124.613,452.057 126.946,448.891 122.5,440.5C 122.833,440.167 123.167,439.833 123.5,439.5C 125.043,442.086 126.709,444.586 128.5,447C 130.473,447.495 132.473,447.662 134.5,447.5C 134.799,445.396 134.466,443.396 133.5,441.5C 131.23,439.398 129.563,436.898 128.5,434C 128.57,433.235 128.903,432.735 129.5,432.5C 133.981,437.461 136.814,443.128 138,449.5C 125.502,454.985 113.002,454.818 100.5,449C 95.4832,444.134 92.1498,438.3 90.5,431.5C 90.4346,431.062 90.6012,430.728 91,430.5C 95.207,434.02 100.04,436.02 105.5,436.5 Z"/></g>
<g><path style="opacity:1" fill="#4a3231" d="M 297.5,444.5 C 302.287,454.564 310.287,459.564 321.5,459.5C 321.463,455.177 320.629,451.177 319,447.5C 320.833,450 322.667,452.5 324.5,455C 327.014,456.252 329.68,456.752 332.5,456.5C 331.674,453.757 330.341,451.257 328.5,449C 329.056,448.617 329.389,448.117 329.5,447.5C 332.659,450.486 334.159,454.152 334,458.5C 329.773,459.006 325.94,460.339 322.5,462.5C 317.463,462.587 312.463,462.254 307.5,461.5C 296.717,460.264 290.384,454.264 288.5,443.5C 288.56,442.957 288.893,442.624 289.5,442.5C 292.021,443.785 294.687,444.452 297.5,444.5 Z"/></g>
<g><path style="opacity:1" fill="#d3bebf" d="M 307.5,461.5 C 312.463,462.254 317.463,462.587 322.5,462.5C 320.696,463.162 318.696,463.495 316.5,463.5C 313.186,463.657 310.186,462.991 307.5,461.5 Z"/></g>
</svg>
