<svg clip-rule="evenodd" fill-rule="evenodd" height="1024" image-rendering="optimizeQuality" shape-rendering="geometricPrecision" text-rendering="geometricPrecision" width="1024" xmlns="http://www.w3.org/2000/svg"><path d="m-.5-.5h1017c-198.577 9.90293-397.243 19.9029-596 30-31.014 1.034-62.014 2.3674-93 4-38.729 1.844-77.396 3.844-116 6-23.005.9002-46.005 1.9002-69 3-8.005.3574-16.005.8574-24 1.5-.544.7172-1.211 1.2172-2 1.5-4.32-.6658-8.82-.9991-13.5-1-14.8407.5837-29.674 1.2504-44.5 2-1.291 20.322-2.6243 40.6554-4 61-1.8328 31.325-3.4995 62.658-5 94-2.6212 31.814-4.7879 63.814-6.5 96-.8213 7.179-.6546 14.179.5 21-1.2219 2.562-1.8885 5.395-2 8.5-1.8122 28.829-3.4789 57.662-5 86.5-12.1377 199.444-24.471 398.777-37 598 0-337.333 0-674.667 0-1012z" fill="#f2ebdb"/><path d="m1016.5-.5h7v1c-19.9 321.152-39.401 642.485-58.5 964-321.272 19.535-642.439 39.2-963.5 59-.666667 0-1.333333 0-2 0 0-4 0-8 0-12 12.529-199.223 24.8623-398.556 37-598 128.333-127.667 256.333-255.667 384-384 198.757-10.0971 397.423-20.09707 596-30z" fill="#cdc9c0"/><path d="m1023.5.5v1023c-340.667 0-681.333 0-1022 0 321.061-19.8 642.228-39.465 963.5-59 19.099-321.515 38.6-642.848 58.5-964z" fill="#b7b3ac"/><path d="m736.5 26.5c62.668-.1667 125.334 0 188 .5-299.5 299.5-599 599-898.5 898.5-.6667-62.667-.6667-125.333 0-188 237.035-236.868 473.868-473.868 710.5-711z" fill="#d5d1c9"/><path d="m420.5 29.5c-127.667 128.333-255.667 256.333-384 384 1.5211-28.838 3.1878-57.671 5-86.5.1115-3.105.7781-5.938 2-8.5 94.667-95 189.333-190 284-285 30.986-1.6326 61.986-2.966 93-4z" fill="#e6e5e3"/><path d="m327.5 33.5c-94.667 95-189.333 190-284 285-1.1546-6.821-1.3213-13.821-.5-21 1.7121-32.186 3.8788-64.186 6.5-96 54.333-53.667 108.333-107.6667 162-162 38.604-2.156 77.271-4.156 116-6z" fill="#cdc9c0"/><path d="m211.5 39.5c-53.667 54.3333-107.667 108.333-162 162 1.5005-31.342 3.1672-62.675 5-94 11-10.6667 22-21.3333 33-32 7.6739.1664 15.341-.0003 23-.5 10.869-10.7016 21.535-21.5349 32-32.5 22.995-1.0998 45.995-2.0998 69-3z" fill="#e6e5e3"/><path d="m142.5 42.5c-10.465 10.9651-21.131 21.7984-32 32.5-7.659.4997-15.3261.6664-23 .5 9.6667-10 19.333-20 29-30 .789-.2828 1.456-.7828 2-1.5 7.995-.6426 15.995-1.1426 24-1.5z" fill="#fefefe"/><path d="m116.5 45.5c-9.667 10-19.3333 20-29 30-11 10.6667-22 21.3333-33 32 1.3757-20.3446 2.709-40.678 4-61 14.826-.7496 29.6593-1.4163 44.5-2 4.68.0009 9.18.3342 13.5 1z" fill="#cdc9c0"/></svg>