<svg xmlns="http://www.w3.org/2000/svg" xmlns:xlink="http://www.w3.org/1999/xlink" width="1024" height="1024" version="1.1" style="shape-rendering:geometricPrecision;text-rendering:geometricPrecision;image-rendering:optimizeQuality;fill-rule:evenodd;clip-rule:evenodd"><g><path style="opacity:1" fill="#f2ebdb" d="M -0.5,-0.5 C 338.5,-0.5 677.5,-0.5 1016.5,-0.5C 817.923,9.40293 619.257,19.4029 420.5,29.5C 389.486,30.534 358.486,31.8674 327.5,33.5C 288.771,35.344 250.104,37.344 211.5,39.5C 188.495,40.4002 165.495,41.4002 142.5,42.5C 134.495,42.8574 126.495,43.3574 118.5,44C 117.956,44.7172 117.289,45.2172 116.5,45.5C 112.18,44.8342 107.68,44.5009 103,44.5C 88.1593,45.0837 73.326,45.7504 58.5,46.5C 57.209,66.822 55.8757,87.1554 54.5,107.5C 52.6672,138.825 51.0005,170.158 49.5,201.5C 46.8788,233.314 44.7121,265.314 43,297.5C 42.1787,304.679 42.3454,311.679 43.5,318.5C 42.2781,321.062 41.6115,323.895 41.5,327C 39.6878,355.829 38.0211,384.662 36.5,413.5C 24.3623,612.944 12.029,812.277 -0.5,1011.5C -0.5,674.167 -0.5,336.833 -0.5,-0.5 Z"/></g><g><path style="opacity:1" fill="#cdc9c0" d="M 1016.5,-0.5 C 1018.83,-0.5 1021.17,-0.5 1023.5,-0.5C 1023.5,-0.166667 1023.5,0.166667 1023.5,0.5C 1003.6,321.652 984.099,642.985 965,964.5C 643.728,984.035 322.561,1003.7 1.5,1023.5C 0.833333,1023.5 0.166667,1023.5 -0.5,1023.5C -0.5,1019.5 -0.5,1015.5 -0.5,1011.5C 12.029,812.277 24.3623,612.944 36.5,413.5C 164.833,285.833 292.833,157.833 420.5,29.5C 619.257,19.4029 817.923,9.40293 1016.5,-0.5 Z"/></g><g><path style="opacity:1" fill="#b7b3ac" d="M 1023.5,0.5 C 1023.5,341.5 1023.5,682.5 1023.5,1023.5C 682.833,1023.5 342.167,1023.5 1.5,1023.5C 322.561,1003.7 643.728,984.035 965,964.5C 984.099,642.985 1003.6,321.652 1023.5,0.5 Z"/></g><g><path style="opacity:1" fill="#d5d1c9" d="M 736.5,26.5 C 799.168,26.3333 861.834,26.5 924.5,27C 625,326.5 325.5,626 26,925.5C 25.3333,862.833 25.3333,800.167 26,737.5C 263.035,500.632 499.868,263.632 736.5,26.5 Z"/></g><g><path style="opacity:1" fill="#e6e5e3" d="M 420.5,29.5 C 292.833,157.833 164.833,285.833 36.5,413.5C 38.0211,384.662 39.6878,355.829 41.5,327C 41.6115,323.895 42.2781,321.062 43.5,318.5C 138.167,223.5 232.833,128.5 327.5,33.5C 358.486,31.8674 389.486,30.534 420.5,29.5 Z"/></g><g><path style="opacity:1" fill="#cdc9c0" d="M 327.5,33.5 C 232.833,128.5 138.167,223.5 43.5,318.5C 42.3454,311.679 42.1787,304.679 43,297.5C 44.7121,265.314 46.8788,233.314 49.5,201.5C 103.833,147.833 157.833,93.8333 211.5,39.5C 250.104,37.344 288.771,35.344 327.5,33.5 Z"/></g><g><path style="opacity:1" fill="#e6e5e3" d="M 211.5,39.5 C 157.833,93.8333 103.833,147.833 49.5,201.5C 51.0005,170.158 52.6672,138.825 54.5,107.5C 65.5,96.8333 76.5,86.1667 87.5,75.5C 95.1739,75.6664 102.841,75.4997 110.5,75C 121.369,64.2984 132.035,53.4651 142.5,42.5C 165.495,41.4002 188.495,40.4002 211.5,39.5 Z"/></g><g><path style="opacity:1" fill="#fefefe" d="M 142.5,42.5 C 132.035,53.4651 121.369,64.2984 110.5,75C 102.841,75.4997 95.1739,75.6664 87.5,75.5C 97.1667,65.5 106.833,55.5 116.5,45.5C 117.289,45.2172 117.956,44.7172 118.5,44C 126.495,43.3574 134.495,42.8574 142.5,42.5 Z"/></g><g><path style="opacity:1" fill="#cdc9c0" d="M 116.5,45.5 C 106.833,55.5 97.1667,65.5 87.5,75.5C 76.5,86.1667 65.5,96.8333 54.5,107.5C 55.8757,87.1554 57.209,66.822 58.5,46.5C 73.326,45.7504 88.1593,45.0837 103,44.5C 107.68,44.5009 112.18,44.8342 116.5,45.5 Z"/></g></svg>